<?xml version="1.0" encoding="UTF-8" standalone="no"?>
<!-- Created with Inkscape (http://www.inkscape.org/) -->

<svg
   width="130pt"
   height="130pt"
   viewBox="0 0 45.861111 45.861108"
   version="1.1"
   id="svg5"
   xml:space="preserve"
   inkscape:version="1.2.2 (b0a8486541, 2022-12-01)"
   sodipodi:docname="icon.svg"
   inkscape:export-filename="logo.png"
   inkscape:export-xdpi="187.8261"
   inkscape:export-ydpi="187.8261"
   xmlns:inkscape="http://www.inkscape.org/namespaces/inkscape"
   xmlns:sodipodi="http://sodipodi.sourceforge.net/DTD/sodipodi-0.dtd"
   xmlns="http://www.w3.org/2000/svg"
   xmlns:svg="http://www.w3.org/2000/svg"><sodipodi:namedview
     id="namedview7"
     pagecolor="#ffffff"
     bordercolor="#000000"
     borderopacity="0.25"
     inkscape:showpageshadow="2"
     inkscape:pageopacity="0.0"
     inkscape:pagecheckerboard="0"
     inkscape:deskcolor="#d1d1d1"
     inkscape:document-units="pt"
     showgrid="false"
     showguides="true"
     inkscape:zoom="7.6489916"
     inkscape:cx="111.71407"
     inkscape:cy="107.39978"
     inkscape:window-width="3836"
     inkscape:window-height="2095"
     inkscape:window-x="0"
     inkscape:window-y="0"
     inkscape:window-maximized="1"
     inkscape:current-layer="layer1"
     inkscape:lockguides="true" /><defs
     id="defs2" /><g
     inkscape:label="Layer 1"
     inkscape:groupmode="layer"
     id="layer1"
     transform="translate(-80.193856,-83.428233)"><rect
       style="fill:#ececec;stroke:none;stroke-width:0.352777"
       id="rect388"
       width="45.861111"
       height="45.861111"
       x="80.193855"
       y="83.428238"
       ry="0" /><g
       id="g941"
       transform="translate(-0.08957958,12.838584)"><g
         id="g1878"
         transform="translate(0.76172204,1.0583333)"><path
           style="fill:none;stroke:#000000;stroke-width:1.41111;stroke-dasharray:none"
           id="path778"
           sodipodi:type="arc"
           sodipodi:cx="100.26396"
           sodipodi:cy="85.439995"
           sodipodi:rx="2.3645399"
           sodipodi:ry="2.3645399"
           sodipodi:start="1.5285875"
           sodipodi:end="4.7276215"
           sodipodi:open="true"
           sodipodi:arc-type="arc"
           d="m 100.36374,87.802429 a 2.3645399,2.3645399 0 0 1 -2.119723,-1.133258 2.3645399,2.3645399 0 0 1 -0.03242,-2.403421 2.3645399,2.3645399 0 0 1 2.088382,-1.190021" /><path
           style="fill:none;stroke:#000000;stroke-width:1.41111;stroke-dasharray:none"
           d="m 100.26396,83.075455 6.75525,0.01908"
           id="path782"
           sodipodi:nodetypes="cc" /><path
           style="fill:none;stroke:#000000;stroke-width:1.41111;stroke-dasharray:none"
           d="m 100.26396,87.804535 4.37859,0.01908"
           id="path784"
           sodipodi:nodetypes="cc" /><path
           style="fill:none;stroke:#000000;stroke-width:1.41111;stroke-dasharray:none"
           id="path786"
           sodipodi:type="arc"
           sodipodi:cx="-104.64255"
           sodipodi:cy="-90.188156"
           sodipodi:rx="2.3645399"
           sodipodi:ry="2.3645399"
           sodipodi:start="1.5285875"
           sodipodi:end="4.7141818"
           sodipodi:open="true"
           sodipodi:arc-type="arc"
           d="m -104.54277,-87.825722 a 2.3645399,2.3645399 0 0 1 -2.1142,-1.124221 2.3645399,2.3645399 0 0 1 -0.0484,-2.394022 2.3645399,2.3645399 0 0 1 2.06704,-1.208727"
           transform="scale(-1)" /><path
           style="fill:none;stroke:#000000;stroke-width:1.41111;stroke-dasharray:none"
           d="m 97.891538,92.533616 6.751012,0.01908"
           id="path788" /></g><g
         id="g1857"
         transform="translate(21.148144,1.0583333)"><path
           style="fill:none;stroke:#ff6600;stroke-width:1.41111;stroke-dasharray:none;stroke-opacity:1"
           id="path800"
           sodipodi:type="arc"
           sodipodi:cx="-71.274399"
           sodipodi:cy="-85.477646"
           sodipodi:rx="2.3645399"
           sodipodi:ry="2.3645399"
           sodipodi:start="1.5285875"
           sodipodi:end="4.7141818"
           sodipodi:open="true"
           sodipodi:arc-type="arc"
           d="m -71.174624,-83.115212 a 2.3645399,2.3645399 0 0 1 -2.114192,-1.124221 2.3645399,2.3645399 0 0 1 -0.04838,-2.394022 2.3645399,2.3645399 0 0 1 2.067041,-1.208727"
           transform="scale(-1)" /><path
           style="fill:none;stroke:#ff6600;stroke-width:1.41111;stroke-dasharray:none;stroke-opacity:1"
           d="M 71.274399,83.113106 64.519148,83.09455"
           id="path802"
           sodipodi:nodetypes="cc" /><path
           style="fill:none;stroke:#ff6600;stroke-width:1.41111;stroke-dasharray:none;stroke-opacity:1"
           d="M 71.274397,87.842184 64.519148,87.82361"
           id="path804" /><path
           style="fill:none;stroke:#ff6600;stroke-width:1.41111;stroke-dasharray:none;stroke-opacity:1"
           id="path806"
           sodipodi:type="arc"
           sodipodi:cx="-71.270157"
           sodipodi:cy="-90.206718"
           sodipodi:rx="2.3645399"
           sodipodi:ry="2.3645399"
           sodipodi:start="1.5285875"
           sodipodi:end="3.1318139"
           sodipodi:open="true"
           sodipodi:arc-type="arc"
           d="m -71.170382,-87.844285 a 2.3645399,2.3645399 0 0 1 -1.727736,-0.64756 2.3645399,2.3645399 0 0 1 -0.736466,-1.691752"
           transform="scale(-1)" /><path
           style="fill:none;stroke:#ff6600;stroke-width:1.41111;stroke-dasharray:none;stroke-opacity:1"
           d="m 73.634583,90.183596 0.0044,2.875435"
           id="path808"
           sodipodi:nodetypes="cc" /></g><path
         style="fill:none;stroke:#ff6600;stroke-width:1.41111;stroke-dasharray:none;stroke-opacity:1"
         d="m 111.64284,83.563335 v 9.996788 h 9.11979"
         id="path912"
         sodipodi:nodetypes="ccc" /></g><g
       id="g948"
       transform="translate(0.99807842,13.860574)"><path
         style="fill:none;stroke:#000000;stroke-width:0.352778;stroke-dasharray:none;stroke-opacity:1"
         d="M 80.193856,97.569431 H 92.295148"
         id="path1020" /><path
         style="fill:none;stroke:#000000;stroke-width:0.352778;stroke-dasharray:none;stroke-opacity:1"
         d="m 124.05881,97.569431 h -12.481"
         id="path1022" /></g><path
       id="text991"
       style="font-size:3.31963px;font-family:'Latin Modern Sans Quotation';-inkscape-font-specification:'Latin Modern Sans Quotation';fill:#000000;stroke:none;stroke-width:0.352777;stroke-dasharray:none"
       d="m 84.343473,114.04083 c -0.570975,0 -0.932759,0.31835 -0.932759,0.64699 0,0.18922 0.09973,0.31543 0.186035,0.39842 0.18258,0.16599 0.378527,0.20263 0.727087,0.27234 0.27221,0.0531 0.358282,0.0697 0.481108,0.14934 0.09959,0.0664 0.172599,0.16627 0.172599,0.28577 0,0.20914 -0.255351,0.41807 -0.653707,0.41807 -0.205816,0 -0.501201,-0.0433 -0.823205,-0.24908 -0.03652,-0.0232 -0.04327,-0.0233 -0.05323,-0.0233 -0.03652,0 -0.04305,0.0234 -0.05633,0.0997 -0.0033,0.0232 -0.02325,0.12263 -0.02325,0.13591 0,0.0266 0.01662,0.0401 0.02325,0.0434 0.0066,0.003 0.3983,0.23203 0.932759,0.23203 0.557698,0 0.929143,-0.33498 0.929143,-0.6935 0,-0.23569 -0.132562,-0.3654 -0.198955,-0.43511 -0.17594,-0.17262 -0.428174,-0.22217 -0.627351,-0.262 -0.404995,-0.0797 -0.477873,-0.0929 -0.59738,-0.1726 -0.08299,-0.0564 -0.143144,-0.13635 -0.143144,-0.23926 0,-0.1859 0.252549,-0.37517 0.654224,-0.37517 0.248972,0 0.424776,0.0566 0.620634,0.18603 0.03652,0.0266 0.04305,0.0269 0.05633,0.0269 0.03652,0 0.04357,-0.0234 0.05684,-0.0997 0.0033,-0.0232 0.02274,-0.12315 0.02274,-0.13643 0,-0.0332 -0.0029,-0.0361 -0.09922,-0.076 -0.252292,-0.10955 -0.465005,-0.13281 -0.654224,-0.13281 z m 2.752287,0.0362 c -0.338602,0 -0.670649,0.11327 -0.922941,0.339 -0.235693,0.21246 -0.381889,0.51124 -0.381889,0.82992 0,0.31869 0.146196,0.61747 0.381889,0.82993 0.252292,0.22573 0.584339,0.33848 0.922941,0.33848 0.136105,0 0.27856,-0.003 0.411345,-0.0331 0.136104,-0.0332 0.262461,-0.0899 0.388606,-0.15297 0.0166,-0.007 0.02635,-0.023 0.02635,-0.0429 l -0.01344,-0.14934 c -0.0033,-0.0232 -0.02276,-0.0434 -0.04599,-0.0434 -0.01,0 -0.01662,0.003 -0.02326,0.007 -0.112867,0.0631 -0.229388,0.12596 -0.355534,0.15916 -0.126146,0.0332 -0.258624,0.0367 -0.38809,0.0367 -0.26225,0 -0.514614,-0.0965 -0.703833,-0.27905 -0.182579,-0.17594 -0.292488,-0.41463 -0.292488,-0.67025 0,-0.25561 0.109909,-0.49482 0.292488,-0.67076 0.189219,-0.18258 0.441583,-0.27905 0.703833,-0.27905 0.116187,0 0.23573,0.01 0.351917,0.0398 0.112867,0.0266 0.222136,0.0767 0.325045,0.13643 0.0066,0.003 0.01329,0.003 0.02325,0.003 0.02324,0 0.04009,-0.0163 0.04341,-0.0362 l 0.03617,-0.19586 c 0,-0.0299 -0.01316,-0.0466 -0.03307,-0.0532 -0.119507,-0.0365 -0.242307,-0.07 -0.368453,-0.0899 -0.126146,-0.0166 -0.252126,-0.0233 -0.378272,-0.0233 z m 16.55144,0 c -0.3386,0 -0.67064,0.11327 -0.92294,0.339 -0.23569,0.21246 -0.38137,0.51124 -0.38137,0.82992 0,0.31869 0.14568,0.61747 0.38137,0.82993 0.2523,0.22573 0.58434,0.33848 0.92294,0.33848 0.13611,0 0.27908,-0.003 0.41187,-0.0331 0.1361,-0.0332 0.26194,-0.0899 0.38809,-0.15297 0.0166,-0.007 0.0269,-0.023 0.0269,-0.0429 l -0.0134,-0.14934 c -0.003,-0.0232 -0.0233,-0.0434 -0.0465,-0.0434 -0.01,0 -0.0166,0.003 -0.0233,0.007 -0.11287,0.0631 -0.22887,0.12596 -0.35502,0.15916 -0.12614,0.0332 -0.25914,0.0367 -0.38861,0.0367 -0.26225,0 -0.51461,-0.0965 -0.70383,-0.27905 -0.18258,-0.17594 -0.29197,-0.41463 -0.29197,-0.67025 0,-0.25561 0.10939,-0.49482 0.29197,-0.67076 0.18922,-0.18258 0.44158,-0.27905 0.70383,-0.27905 0.11619,0 0.23573,0.01 0.35192,0.0398 0.11287,0.0266 0.22265,0.0767 0.32556,0.13643 0.007,0.003 0.0133,0.003 0.0233,0.003 0.0232,0 0.0396,-0.0163 0.0429,-0.0362 l 0.0367,-0.19586 c 0,-0.0299 -0.0137,-0.0466 -0.0336,-0.0532 -0.11951,-0.0365 -0.24231,-0.07 -0.36845,-0.0899 -0.12615,-0.0166 -0.25213,-0.0233 -0.37828,-0.0233 z m 12.5982,0 c -0.0764,0 -0.15957,1.7e-4 -0.21601,0.12299 l -0.94257,2.04484 c -0.01,0.0199 -0.0202,0.0398 -0.0202,0.063 0,0.073 0.0763,0.0734 0.10284,0.0734 0.0465,0 0.13322,-0.004 0.18965,-0.12661 l 0.22531,-0.49093 h 1.26142 l 0.1726,0.37156 c 0.10291,0.22573 0.11329,0.24598 0.27595,0.24598 0.0631,0 0.13281,-3.5e-4 0.13281,-0.0734 0,-0.0166 -0.0135,-0.0498 -0.0202,-0.063 l -0.94258,-2.03812 c -0.0498,-0.10291 -0.0863,-0.12971 -0.21911,-0.12971 z m -27.589528,0.0336 c -0.112868,0 -0.146245,0.0262 -0.146245,0.14573 v 1.97869 c 0,0.11287 0.02674,0.14625 0.146245,0.14625 h 0.01964 c 0.112867,0 0.146244,-0.0267 0.146244,-0.14625 v -1.97869 c 0,-0.11287 -0.02674,-0.14573 -0.146244,-0.14573 z m 3.651456,0 c -0.112867,0 -0.146244,0.0262 -0.146244,0.14573 v 1.97869 c 0,0.0664 2.43e-4,0.14625 0.129708,0.14625 0.129465,0 0.129708,-0.0799 0.129708,-0.14625 v -1.91203 l 1.171505,1.93529 c 0.07303,0.12282 0.166151,0.12299 0.232543,0.12299 h 0.12299 c 0.112868,0 0.145728,-0.0267 0.145728,-0.14625 v -1.97869 c 0,-0.0664 2.74e-4,-0.14573 -0.129191,-0.14573 -0.129466,0 -0.129708,0.0793 -0.129708,0.14573 v 1.91203 l -1.172021,-1.93528 c -0.07303,-0.12283 -0.165635,-0.12248 -0.232028,-0.12248 z m 5.663221,0 c -0.112868,0 -0.145728,0.0262 -0.145728,0.14573 v 1.97869 c 0,0.11287 0.02622,0.14625 0.145728,0.14625 h 0.02015 c 0.112868,0 0.145728,-0.0267 0.145728,-0.14625 v -1.97869 c 0,-0.11287 -0.02622,-0.14573 -0.145728,-0.14573 z m 3.525361,0 c -0.11286,0 -0.14572,0.0262 -0.14572,0.14573 v 1.97869 c 0,0.11287 0.0262,0.14625 0.14572,0.14625 h 0.0202 c 0.11287,0 0.14624,-0.0267 0.14624,-0.14625 v -1.97869 c 0,-0.11287 -0.0267,-0.14573 -0.14624,-0.14573 z m 5.09582,0 c -0.11287,0 -0.14625,0.0262 -0.14625,0.14573 v 1.97869 c 0,0.11287 0.0267,0.14625 0.14625,0.14625 h 1.5105 c 0.0465,0 0.14624,-10e-6 0.14624,-0.10956 0,-0.10955 -0.0998,-0.10955 -0.14624,-0.10955 h -1.34462 v -1.90583 c 0,-0.11287 -0.0262,-0.14573 -0.14573,-0.14573 z m 2.35024,0 c -0.11287,0 -0.14573,0.0262 -0.14573,0.14573 v 1.97869 c 0,0.11287 0.0262,0.14625 0.14573,0.14625 h 0.0202 c 0.11286,0 0.14572,-0.0267 0.14572,-0.14625 v -1.97869 c 0,-0.11287 -0.0262,-0.14573 -0.14572,-0.14573 z m 1.06557,0 c -0.11287,0 -0.14573,0.0262 -0.14573,0.14573 v 1.97869 c 0,0.11287 0.0262,0.14625 0.14573,0.14625 h 0.9462 c 0.53777,0 1.01595,-0.27569 1.01595,-0.62426 0,-0.27884 -0.34862,-0.50123 -0.79013,-0.5643 0.33528,-0.0697 0.67386,-0.24263 0.67386,-0.50488 0,-0.32864 -0.48784,-0.57723 -1.01234,-0.57723 z m 2.7156,0 c -0.11287,0 -0.14625,0.0262 -0.14625,0.14573 v 1.97869 c 0,0.13279 0.0501,0.14625 0.15296,0.14625 0.0996,0 0.15245,-0.0101 0.15245,-0.14625 v -0.88625 h 0.75706 l 0.78651,0.96945 c 0.0498,0.0631 0.0966,0.063 0.15969,0.063 h 0.0263 c 0.0664,0 0.10645,-2.1e-4 0.10645,-0.0832 l -0.79995,-0.97255 c 0.55438,-0.11951 0.76016,-0.37541 0.76016,-0.59118 0,-0.35852 -0.51783,-0.62374 -1.06557,-0.62374 z m 5.38416,0 c -0.11286,0 -0.14572,0.0262 -0.14572,0.14573 v 1.97869 c 0,0.13279 0.0495,0.14625 0.15244,0.14625 0.0996,0 0.15296,-0.0101 0.15296,-0.14625 v -0.88625 h 0.75655 l 0.78703,0.96945 c 0.0498,0.0631 0.0961,0.063 0.15916,0.063 h 0.0269 c 0.0664,0 0.10594,-2.1e-4 0.10594,-0.0832 l -0.79995,-0.97255 c 0.55438,-0.11951 0.76016,-0.37541 0.76016,-0.59118 0,-0.35852 -0.51783,-0.62374 -1.06557,-0.62374 z m 2.41019,0 c -0.083,0 -0.13591,-2e-5 -0.13591,0.0631 0,0.0232 0.007,0.0332 0.0331,0.063 l 1.06246,1.23455 v 0.76378 c 0,0.13279 0.0495,0.14625 0.15245,0.14625 0.0996,0 0.15296,-0.0104 0.15296,-0.14315 v -0.76326 l 1.06195,-1.23817 c 0.0365,-0.0365 0.0367,-0.0431 0.0367,-0.063 0,-0.0631 -0.063,-0.0631 -0.10283,-0.0631 -0.0531,0 -0.15252,-2.9e-4 -0.24547,0.10594 l -0.86661,1.00614 -0.85628,-0.99942 c -0.0963,-0.11287 -0.19954,-0.11266 -0.29249,-0.11266 z m -30.802768,0.007 c -0.112867,0 -0.146244,0.0262 -0.146244,0.14573 v 1.97197 c 0,0.11287 0.02674,0.14625 0.146244,0.14625 h 1.743046 c 0.04979,0 0.145727,-3.1e-4 0.145727,-0.11318 0,-0.11618 -0.09261,-0.11627 -0.145727,-0.11627 h -1.577165 v -0.83302 h 1.404566 c 0.04647,0 0.145727,-10e-6 0.145727,-0.10956 0,-0.10954 -0.09925,-0.10955 -0.145727,-0.10955 h -1.404566 v -0.76378 h 1.520321 c 0.04648,0 0.146244,0 0.146244,-0.10955 0,-0.10955 -0.09977,-0.10904 -0.146244,-0.10904 z m 9.314677,0 c -0.112868,0 -0.145728,0.0262 -0.145728,0.14573 v 1.97197 c 0,0.11287 0.02622,0.14625 0.145728,0.14625 h 0.02015 c 0.112867,0 0.146244,-0.0267 0.146244,-0.14625 v -0.87643 h 1.287777 c 0.0465,0 0.14625,-1e-5 0.14625,-0.10956 0,-0.10954 -0.0998,-0.10955 -0.14625,-0.10955 h -1.287777 v -0.80357 h 1.460377 c 0.0465,0 0.14625,0 0.14625,-0.10955 0,-0.10955 -0.0998,-0.10904 -0.14625,-0.10904 z m -4.255554,0.003 c -0.04648,0 -0.146245,10e-6 -0.146245,0.10956 0,0.10954 0.09977,0.10955 0.146245,0.10955 h 1.035595 v 1.89549 c 0,0.11287 0.02674,0.14625 0.146245,0.14625 h 0.02015 c 0.112868,0 0.145728,-0.0267 0.145728,-0.14625 v -1.89549 h 1.032495 c 0.04648,0 0.146244,-1e-5 0.146244,-0.10955 0,-0.10955 -0.09977,-0.10956 -0.146244,-0.10956 z m 15.389755,0.20929 h 0.56793 c 0.3552,0 0.83302,0.12272 0.83302,0.36174 0,0.23237 -0.40813,0.40514 -0.85628,0.40514 h -0.54467 z m 2.7187,0 h 0.72399 c 0.53778,0 0.77669,0.18885 0.77669,0.40463 0,0.22905 -0.26879,0.40514 -0.77669,0.40514 h -0.72399 z m 5.38468,0 h 0.72347 c 0.53778,0 0.7767,0.18885 0.7767,0.40463 0,0.22905 -0.26879,0.40514 -0.7767,0.40514 h -0.72347 z m -2.05155,0.0527 0.52762,1.1622 h -1.05885 z m -6.05183,0.92294 h 0.63407 c 0.41164,0 0.87643,0.17915 0.87643,0.44804 0,0.26225 -0.4579,0.40876 -0.83302,0.40876 h -0.67748 z" /><path
       id="text995"
       style="font-size:3.31963px;font-family:'Latin Modern Sans Quotation';-inkscape-font-specification:'Latin Modern Sans Quotation';fill:#ff6600;stroke:none;stroke-width:0.352777;stroke-dasharray:none"
       d="m 100.93833,110.22504 c -0.57098,0 -0.93276,0.31886 -0.93276,0.64751 0,0.18922 0.0997,0.31492 0.18603,0.39791 0.18258,0.16598 0.37853,0.20262 0.72709,0.27233 0.27221,0.0531 0.35828,0.0697 0.48111,0.14935 0.0996,0.0664 0.1726,0.16626 0.1726,0.28577 0,0.20913 -0.25536,0.41806 -0.65371,0.41806 -0.20582,0 -0.5012,-0.0433 -0.82321,-0.24908 -0.0365,-0.0232 -0.0433,-0.0233 -0.0532,-0.0233 -0.0365,0 -0.04305,0.0234 -0.05633,0.0997 -0.0033,0.0232 -0.02325,0.12263 -0.02325,0.13591 0,0.0266 0.01662,0.0401 0.02325,0.0434 0.0066,0.003 0.3983,0.23254 0.93276,0.23254 0.5577,0 0.92914,-0.33549 0.92914,-0.69401 0,-0.2357 -0.13256,-0.36541 -0.19895,-0.43512 -0.17594,-0.17262 -0.42818,-0.22216 -0.62735,-0.262 -0.405,-0.0797 -0.47788,-0.0929 -0.59738,-0.1726 -0.083,-0.0564 -0.14315,-0.13635 -0.14315,-0.23926 0,-0.1859 0.25255,-0.37465 0.65423,-0.37465 0.24897,0 0.42477,0.056 0.62063,0.18551 0.0365,0.0266 0.0431,0.0269 0.0563,0.0269 0.0365,0 0.0431,-0.0234 0.0563,-0.0997 0.003,-0.0232 0.0233,-0.12263 0.0233,-0.13591 0,-0.0332 -0.003,-0.0366 -0.0992,-0.0765 -0.25229,-0.10955 -0.46501,-0.13281 -0.65422,-0.13281 z m 2.30373,0 c -0.57097,0 -0.93276,0.31886 -0.93276,0.64751 0,0.18922 0.0997,0.31492 0.18604,0.39791 0.18258,0.16598 0.37852,0.20262 0.72708,0.27233 0.27221,0.0531 0.35829,0.0697 0.48111,0.14935 0.0996,0.0664 0.1726,0.16626 0.1726,0.28577 0,0.20913 -0.25535,0.41806 -0.65371,0.41806 -0.20581,0 -0.5012,-0.0433 -0.8232,-0.24908 -0.0365,-0.0232 -0.0433,-0.0233 -0.0532,-0.0233 -0.0365,0 -0.043,0.0234 -0.0563,0.0997 -0.003,0.0232 -0.0233,0.12263 -0.0233,0.13591 0,0.0266 0.0166,0.0401 0.0233,0.0434 0.007,0.003 0.3983,0.23254 0.93276,0.23254 0.5577,0 0.92966,-0.33549 0.92966,-0.69401 0,-0.2357 -0.13308,-0.36541 -0.19947,-0.43512 -0.17594,-0.17262 -0.42817,-0.22216 -0.62735,-0.262 -0.40499,-0.0797 -0.47787,-0.0929 -0.59738,-0.1726 -0.083,-0.0564 -0.14314,-0.13635 -0.14314,-0.23926 0,-0.1859 0.25255,-0.37465 0.65422,-0.37465 0.24897,0 0.42478,0.056 0.62063,0.18551 0.0365,0.0266 0.0431,0.0269 0.0563,0.0269 0.0365,0 0.0436,-0.0234 0.0568,-0.0997 0.003,-0.0232 0.0233,-0.12263 0.0233,-0.13591 0,-0.0332 -0.003,-0.0366 -0.0997,-0.0765 -0.2523,-0.10955 -0.46501,-0.13281 -0.65423,-0.13281 z m -8.338508,0.0698 c -0.112867,0 -0.146244,0.0262 -0.146244,0.14572 v 1.97869 c 0,0.13279 0.04954,0.14625 0.152446,0.14625 0.09959,0 0.152962,-0.0101 0.152962,-0.14625 V 111.533 h 0.75706 l 0.786515,0.96945 c 0.04979,0.0631 0.09609,0.0631 0.159163,0.0631 h 0.02687 c 0.06639,0 0.105937,-2.1e-4 0.105937,-0.0832 l -0.799952,-0.97255 c 0.554378,-0.11951 0.760161,-0.3754 0.760161,-0.59118 0,-0.35852 -0.51783,-0.62373 -1.065568,-0.62373 z m 2.705262,0 c -0.112868,0 -0.146245,0.0262 -0.146245,0.14572 v 1.35806 c 0,0.48135 0.451448,0.83664 0.979269,0.83664 0.52782,0 0.959631,-0.36193 0.959631,-0.83664 v -1.35806 c 0,-0.0697 -2.3e-5,-0.14572 -0.132808,-0.14572 -0.132785,0 -0.132809,0.076 -0.132809,0.14572 v 1.34824 c 0,0.41163 -0.355115,0.62735 -0.690397,0.62735 -0.318684,0 -0.67076,-0.19912 -0.67076,-0.62735 v -1.34824 c 0,-0.11286 -0.02622,-0.14572 -0.145728,-0.14572 z m 9.875886,0 c -0.11287,0 -0.14625,0.0262 -0.14625,0.14572 v 1.97869 c 0,0.11287 0.0267,0.14625 0.14625,0.14625 h 1.5105 c 0.0465,0 0.14624,-1e-5 0.14624,-0.10956 0,-0.10954 -0.0998,-0.10955 -0.14624,-0.10955 h -1.34462 v -1.90583 c 0,-0.11286 -0.0262,-0.14572 -0.14573,-0.14572 z m 2.35024,0 c -0.11287,0 -0.14573,0.0262 -0.14573,0.14572 v 1.97869 c 0,0.11287 0.0262,0.14625 0.14573,0.14625 h 1.5105 c 0.0465,0 0.14625,-1e-5 0.14625,-0.10956 0,-0.10954 -0.0998,-0.10955 -0.14625,-0.10955 h -1.34462 v -1.90583 c 0,-0.11286 -0.0262,-0.14572 -0.14573,-0.14572 z m -4.93303,0.007 c -0.11287,0 -0.14573,0.0262 -0.14573,0.14573 v 1.97197 c 0,0.11287 0.0262,0.14625 0.14573,0.14625 h 1.74304 c 0.0498,0 0.14625,-3.1e-4 0.14625,-0.11317 0,-0.11619 -0.0931,-0.11628 -0.14625,-0.11628 h -1.57664 v -0.83302 h 1.40405 c 0.0465,0 0.14572,-1e-5 0.14572,-0.10955 0,-0.10955 -0.0993,-0.10956 -0.14572,-0.10956 h -1.40405 v -0.76326 h 1.52032 c 0.0465,0 0.14572,0 0.14572,-0.10955 0,-0.10955 -0.0993,-0.10956 -0.14572,-0.10956 z m -9.839194,0.21239 h 0.72347 c 0.537779,0 0.777213,0.18885 0.777213,0.40463 0,0.22905 -0.26931,0.40514 -0.777213,0.40514 h -0.72347 z" /></g></svg>
