<?xml version="1.0" encoding="UTF-8" standalone="no"?>
<!-- Created with Inkscape (http://www.inkscape.org/) -->

<svg
   width="130pt"
   height="130pt"
   viewBox="0 0 45.861111 45.861108"
   version="1.1"
   id="svg5"
   xml:space="preserve"
   inkscape:version="1.2.2 (b0a8486541, 2022-12-01)"
   sodipodi:docname="icon.svg"
   inkscape:export-filename="logo.png"
   inkscape:export-xdpi="187.8261"
   inkscape:export-ydpi="187.8261"
   xmlns:inkscape="http://www.inkscape.org/namespaces/inkscape"
   xmlns:sodipodi="http://sodipodi.sourceforge.net/DTD/sodipodi-0.dtd"
   xmlns="http://www.w3.org/2000/svg"
   xmlns:svg="http://www.w3.org/2000/svg"><sodipodi:namedview
     id="namedview7"
     pagecolor="#ffffff"
     bordercolor="#000000"
     borderopacity="0.25"
     inkscape:showpageshadow="2"
     inkscape:pageopacity="0.0"
     inkscape:pagecheckerboard="0"
     inkscape:deskcolor="#d1d1d1"
     inkscape:document-units="pt"
     showgrid="false"
     showguides="true"
     inkscape:zoom="7.6489916"
     inkscape:cx="111.4526"
     inkscape:cy="106.87683"
     inkscape:window-width="3836"
     inkscape:window-height="2095"
     inkscape:window-x="0"
     inkscape:window-y="0"
     inkscape:window-maximized="1"
     inkscape:current-layer="layer1"
     inkscape:lockguides="true" /><defs
     id="defs2" /><g
     inkscape:label="Layer 1"
     inkscape:groupmode="layer"
     id="layer1"
     transform="translate(-80.193856,-83.428233)"><g
       id="g968"
       transform="translate(0.01470099,0.0265219)"><g
         id="g941"
         transform="translate(-0.1468076,13.190069)"><g
           id="g1878"
           transform="translate(0.76172204,1.0583333)"><path
             style="fill:none;stroke:#000000;stroke-width:1.41111;stroke-dasharray:none"
             id="path778"
             sodipodi:type="arc"
             sodipodi:cx="100.26396"
             sodipodi:cy="85.439995"
             sodipodi:rx="2.3645399"
             sodipodi:ry="2.3645399"
             sodipodi:start="1.5285875"
             sodipodi:end="4.7276215"
             sodipodi:open="true"
             sodipodi:arc-type="arc"
             d="m 100.36374,87.802429 a 2.3645399,2.3645399 0 0 1 -2.119723,-1.133258 2.3645399,2.3645399 0 0 1 -0.03242,-2.403421 2.3645399,2.3645399 0 0 1 2.088382,-1.190021" /><path
             style="fill:none;stroke:#000000;stroke-width:1.41111;stroke-dasharray:none"
             d="m 100.26396,83.075455 6.75525,0.01908"
             id="path782"
             sodipodi:nodetypes="cc" /><path
             style="fill:none;stroke:#000000;stroke-width:1.41111;stroke-dasharray:none"
             d="m 100.26396,87.804535 4.37859,0.01908"
             id="path784"
             sodipodi:nodetypes="cc" /><path
             style="fill:none;stroke:#000000;stroke-width:1.41111;stroke-dasharray:none"
             id="path786"
             sodipodi:type="arc"
             sodipodi:cx="-104.64255"
             sodipodi:cy="-90.188156"
             sodipodi:rx="2.3645399"
             sodipodi:ry="2.3645399"
             sodipodi:start="1.5285875"
             sodipodi:end="4.7141818"
             sodipodi:open="true"
             sodipodi:arc-type="arc"
             d="m -104.54277,-87.825722 a 2.3645399,2.3645399 0 0 1 -2.1142,-1.124221 2.3645399,2.3645399 0 0 1 -0.0484,-2.394022 2.3645399,2.3645399 0 0 1 2.06704,-1.208727"
             transform="scale(-1)" /><path
             style="fill:none;stroke:#000000;stroke-width:1.41111;stroke-dasharray:none"
             d="m 97.891538,92.533616 6.751012,0.01908"
             id="path788" /></g><g
           id="g1857"
           transform="translate(21.148144,1.0583333)"><path
             style="fill:none;stroke:#ff6600;stroke-width:1.41111;stroke-dasharray:none;stroke-opacity:1"
             id="path800"
             sodipodi:type="arc"
             sodipodi:cx="-71.274399"
             sodipodi:cy="-85.477646"
             sodipodi:rx="2.3645399"
             sodipodi:ry="2.3645399"
             sodipodi:start="1.5285875"
             sodipodi:end="4.7141818"
             sodipodi:open="true"
             sodipodi:arc-type="arc"
             d="m -71.174624,-83.115212 a 2.3645399,2.3645399 0 0 1 -2.114192,-1.124221 2.3645399,2.3645399 0 0 1 -0.04838,-2.394022 2.3645399,2.3645399 0 0 1 2.067041,-1.208727"
             transform="scale(-1)" /><path
             style="fill:none;stroke:#ff6600;stroke-width:1.41111;stroke-dasharray:none;stroke-opacity:1"
             d="M 71.274399,83.113106 64.519148,83.09455"
             id="path802"
             sodipodi:nodetypes="cc" /><path
             style="fill:none;stroke:#ff6600;stroke-width:1.41111;stroke-dasharray:none;stroke-opacity:1"
             d="M 71.274397,87.842184 64.519148,87.82361"
             id="path804" /><path
             style="fill:none;stroke:#ff6600;stroke-width:1.41111;stroke-dasharray:none;stroke-opacity:1"
             id="path806"
             sodipodi:type="arc"
             sodipodi:cx="-71.270157"
             sodipodi:cy="-90.206718"
             sodipodi:rx="2.3645399"
             sodipodi:ry="2.3645399"
             sodipodi:start="1.5285875"
             sodipodi:end="3.1318139"
             sodipodi:open="true"
             sodipodi:arc-type="arc"
             d="m -71.170382,-87.844285 a 2.3645399,2.3645399 0 0 1 -1.727736,-0.64756 2.3645399,2.3645399 0 0 1 -0.736466,-1.691752"
             transform="scale(-1)" /><path
             style="fill:none;stroke:#ff6600;stroke-width:1.41111;stroke-dasharray:none;stroke-opacity:1"
             d="m 73.634583,90.183596 0.0044,2.875435"
             id="path808"
             sodipodi:nodetypes="cc" /></g><path
           style="fill:none;stroke:#ff6600;stroke-width:1.41111;stroke-dasharray:none;stroke-opacity:1"
           d="m 111.64284,83.563335 v 9.996788 h 9.11979"
           id="path912"
           sodipodi:nodetypes="ccc" /></g><path
         id="text968"
         style="font-size:4.23333px;fill:none;stroke:#ff6600;stroke-width:0.0881944;stroke-dasharray:none;stroke-opacity:1"
         d="m 85.908361,113.87385 c -0.521666,0 -0.852276,0.28481 -0.852276,0.57869 0,0.1692 0.09108,0.28199 0.169937,0.3562 0.166812,0.14842 0.345739,0.18117 0.664197,0.24351 0.248701,0.0475 0.327247,0.0625 0.439466,0.13371 0.09099,0.0594 0.157719,0.14824 0.157719,0.2551 0,0.18702 -0.233232,0.37396 -0.597185,0.37396 -0.188042,0 -0.458117,-0.0384 -0.752312,-0.22249 -0.03337,-0.0208 -0.03941,-0.0207 -0.0485,-0.0207 -0.03336,0 -0.03933,0.0205 -0.05146,0.0888 -0.003,0.0208 -0.02147,0.10988 -0.02147,0.12176 0,0.0238 0.01541,0.0358 0.02147,0.0388 0.0061,0.003 0.363972,0.20763 0.852276,0.20763 0.509533,0 0.848943,-0.29977 0.848943,-0.62037 0,-0.21076 -0.121125,-0.32647 -0.181783,-0.38881 -0.160747,-0.15436 -0.391144,-0.19883 -0.573121,-0.23445 -0.370018,-0.0712 -0.436908,-0.0831 -0.546092,-0.15437 -0.07582,-0.0505 -0.130323,-0.12177 -0.130323,-0.21379 0,-0.16623 0.23057,-0.33554 0.597555,-0.33554 0.227471,0 0.387883,0.0506 0.566826,0.16632 0.03336,0.0238 0.0397,0.0236 0.05183,0.0236 0.03337,0 0.03933,-0.0205 0.05146,-0.0888 0.003,-0.0208 0.0211,-0.10988 0.0211,-0.12175 0,-0.0297 -0.0027,-0.0329 -0.09071,-0.0685 -0.230503,-0.098 -0.424677,-0.1185 -0.597555,-0.1185 z m 2.51425,0.0326 c -0.30936,0 -0.612517,0.10072 -0.84302,0.30257 -0.215339,0.18998 -0.349129,0.45714 -0.349129,0.74212 0,0.28497 0.13379,0.55213 0.349129,0.74212 0.230503,0.20185 0.53366,0.30293 0.84302,0.30293 0.124349,0 0.254838,-0.003 0.376155,-0.0297 0.124352,-0.0297 0.239431,-0.0802 0.354683,-0.13661 0.01517,-0.006 0.02444,-0.0206 0.02444,-0.0384 l -0.01222,-0.13371 c -0.003,-0.0208 -0.02134,-0.0384 -0.04258,-0.0384 -0.0091,0 -0.01504,0.003 -0.02111,0.006 -0.10312,0.0564 -0.209443,0.11272 -0.324694,0.14241 -0.115251,0.0297 -0.236397,0.0326 -0.354683,0.0326 -0.239601,0 -0.470215,-0.086 -0.643093,-0.24931 -0.166812,-0.15733 -0.266938,-0.37114 -0.266938,-0.59971 0,-0.22857 0.100126,-0.44202 0.266938,-0.59935 0.172878,-0.16326 0.403492,-0.24966 0.643093,-0.24966 0.106154,0 0.21521,0.009 0.321362,0.0359 0.103121,0.0237 0.203277,0.0683 0.297298,0.12175 0.0061,0.003 0.01201,0.003 0.02111,0.003 0.02123,0 0.03658,-0.0148 0.03961,-0.0326 l 0.03332,-0.17538 c 0,-0.0267 -0.01216,-0.0415 -0.03036,-0.0475 -0.109185,-0.0327 -0.221289,-0.0623 -0.33654,-0.0801 -0.115252,-0.0148 -0.230546,-0.0207 -0.345798,-0.0207 z m 15.122149,0 c -0.30936,0 -0.61252,0.10072 -0.84302,0.30257 -0.21534,0.18998 -0.34876,0.45714 -0.34876,0.74212 0,0.28497 0.13342,0.55213 0.34876,0.74212 0.2305,0.20185 0.53366,0.30293 0.84302,0.30293 0.12435,0 0.25484,-0.003 0.37616,-0.0297 0.12435,-0.0297 0.23943,-0.0802 0.35468,-0.13661 0.0152,-0.006 0.0244,-0.0206 0.0244,-0.0384 l -0.0122,-0.13371 c -0.003,-0.0208 -0.021,-0.0384 -0.0422,-0.0384 -0.009,0 -0.0154,0.003 -0.0215,0.006 -0.10312,0.0564 -0.20907,0.11272 -0.32432,0.14241 -0.11526,0.0297 -0.23677,0.0326 -0.35506,0.0326 -0.2396,0 -0.47021,-0.086 -0.64309,-0.24931 -0.16681,-0.15733 -0.26657,-0.37114 -0.26657,-0.59971 0,-0.22857 0.0998,-0.44202 0.26657,-0.59935 0.17288,-0.16326 0.40349,-0.24966 0.64309,-0.24966 0.10616,0 0.21558,0.009 0.32174,0.0359 0.10311,0.0237 0.2029,0.0683 0.29693,0.12175 0.006,0.003 0.0124,0.003 0.0215,0.003 0.0212,0 0.0362,-0.0148 0.0393,-0.0326 l 0.0333,-0.17538 c 0,-0.0267 -0.0122,-0.0415 -0.0304,-0.0475 -0.10919,-0.0327 -0.22129,-0.0623 -0.33655,-0.0801 -0.11525,-0.0148 -0.23054,-0.0207 -0.34579,-0.0207 z m 11.51016,0 c -0.0698,0 -0.14577,-4e-5 -0.19734,0.10979 l -0.86116,1.82848 c -0.009,0.0178 -0.0181,0.0358 -0.0181,0.0565 0,0.0653 0.0698,0.0652 0.094,0.0652 0.0425,0 0.12134,-0.003 0.17289,-0.11269 l 0.20622,-0.43955 h 1.15254 l 0.15772,0.33265 c 0.094,0.20186 0.10277,0.21959 0.25138,0.21959 0.0576,0 0.12144,8e-5 0.12144,-0.0652 0,-0.0148 -0.0121,-0.0447 -0.0181,-0.0565 l -0.86153,-1.82268 c -0.0455,-0.092 -0.0786,-0.11559 -0.19992,-0.11559 z m -25.206915,0.0297 c -0.10312,0 -0.133284,0.0236 -0.133284,0.13045 v 1.76941 c 0,0.10093 0.0241,0.13045 0.133284,0.13045 h 0.01814 c 0.103119,0 0.133654,-0.0236 0.133654,-0.13045 v -1.76941 c 0,-0.10093 -0.02447,-0.13045 -0.133654,-0.13045 z m 3.336165,0 c -0.103119,0 -0.133283,0.0236 -0.133283,0.13045 v 1.76941 c 0,0.0594 -1.81e-4,0.13045 0.118103,0.13045 0.118285,0 0.118475,-0.0711 0.118475,-0.13045 v -1.70998 l 1.070712,1.73064 c 0.06672,0.10983 0.151485,0.10979 0.212144,0.10979 h 0.11218 c 0.10312,0 0.133654,-0.0236 0.133654,-0.13045 v -1.76941 c 0,-0.0594 -1.89e-4,-0.13045 -0.118474,-0.13045 -0.118284,0 -0.118105,0.0711 -0.118105,0.13045 v 1.70999 l -1.070712,-1.73064 c -0.06672,-0.10984 -0.151854,-0.1098 -0.212514,-0.1098 z m 5.17437,0 c -0.10312,0 -0.133654,0.0236 -0.133654,0.13045 v 1.76941 c 0,0.10093 0.02447,0.13045 0.133654,0.13045 h 0.01814 c 0.10312,0 0.133284,-0.0236 0.133284,-0.13045 v -1.76941 c 0,-0.10093 -0.0241,-0.13045 -0.133284,-0.13045 z m 3.22103,0 c -0.10313,0 -0.13365,0.0236 -0.13365,0.13045 v 1.76941 c 0,0.10093 0.0244,0.13045 0.13365,0.13045 h 0.0181 c 0.10312,0 0.13328,-0.0236 0.13328,-0.13045 v -1.76941 c 0,-0.10093 -0.0241,-0.13045 -0.13328,-0.13045 z m 4.6553,0 c -0.10312,0 -0.13328,0.0236 -0.13328,0.13045 v 1.76941 c 0,0.10093 0.0241,0.13045 0.13328,0.13045 h 1.38023 c 0.0425,0 0.13328,1.3e-4 0.13328,-0.0978 0,-0.098 -0.0908,-0.0982 -0.13328,-0.0982 h -1.22843 v -1.70382 c 0,-0.10093 -0.0241,-0.13045 -0.13329,-0.13045 z m 2.14735,0 c -0.10312,0 -0.13329,0.0236 -0.13329,0.13045 v 1.76941 c 0,0.10093 0.0241,0.13045 0.13329,0.13045 h 0.0185 c 0.10312,0 0.13328,-0.0236 0.13328,-0.13045 v -1.76941 c 0,-0.10093 -0.0241,-0.13045 -0.13328,-0.13045 z m 0.97371,0 c -0.10312,0 -0.13328,0.0236 -0.13328,0.13045 v 1.76941 c 0,0.10093 0.0241,0.13045 0.13328,0.13045 h 0.86449 c 0.49134,0 0.9278,-0.24635 0.9278,-0.55803 0,-0.24936 -0.3182,-0.44838 -0.72158,-0.50478 0.30633,-0.0623 0.6157,-0.21663 0.6157,-0.45114 0,-0.29387 -0.44601,-0.51636 -0.92521,-0.51636 z m 2.48093,0 c -0.10312,0 -0.13328,0.0236 -0.13328,0.13045 v 1.76941 c 0,0.11874 0.0452,0.13045 0.1392,0.13045 0.091,0 0.13958,-0.009 0.13958,-0.13045 v -0.79285 h 0.6916 l 0.71898,0.86678 c 0.0455,0.0564 0.0879,0.0565 0.14551,0.0565 h 0.0241 c 0.0607,0 0.097,-8e-5 0.097,-0.0743 l -0.73084,-0.86968 c 0.5065,-0.10686 0.69456,-0.33537 0.69456,-0.52832 0,-0.32059 -0.47291,-0.55803 -0.97334,-0.55803 z m 4.91928,0 c -0.10312,0 -0.13328,0.0236 -0.13328,0.13045 v 1.76941 c 0,0.11874 0.0456,0.13045 0.13957,0.13045 0.091,0 0.13958,-0.009 0.13958,-0.13045 v -0.79285 h 0.69122 l 0.71899,0.86678 c 0.0455,0.0564 0.0879,0.0565 0.14551,0.0565 h 0.0244 c 0.0607,0 0.097,-8e-5 0.097,-0.0743 l -0.73084,-0.86968 c 0.5065,-0.10686 0.69456,-0.33537 0.69456,-0.52832 0,-0.32059 -0.47329,-0.55803 -0.97372,-0.55803 z m 2.20214,0 c -0.0758,0 -0.1244,-2.3e-4 -0.1244,0.0562 0,0.0208 0.006,0.0298 0.0304,0.0565 l 0.97038,1.10411 v 0.68306 c 0,0.11874 0.0456,0.13045 0.13958,0.13045 0.091,0 0.13957,-0.009 0.13957,-0.12755 v -0.68269 l 0.97038,-1.10738 c 0.0334,-0.0327 0.0337,-0.0387 0.0337,-0.0565 0,-0.0564 -0.0577,-0.0562 -0.094,-0.0562 -0.0485,0 -0.13981,-5e-5 -0.22473,0.0949 l -0.79156,0.89938 -0.7823,-0.89358 c -0.0879,-0.10093 -0.18202,-0.10074 -0.26694,-0.10074 z m -28.142857,0.006 c -0.10312,0 -0.133285,0.0239 -0.133285,0.13081 v 1.76326 c 0,0.10092 0.0241,0.13045 0.133285,0.13045 h 1.59237 c 0.04549,0 0.133654,1.9e-4 0.133654,-0.10074 0,-0.1039 -0.08513,-0.104 -0.133654,-0.104 h -1.440575 v -0.74504 h 1.282856 c 0.04246,0 0.133654,-2.4e-4 0.133654,-0.0982 0,-0.098 -0.09119,-0.0978 -0.133654,-0.0978 h -1.282856 v -0.68268 h 1.389113 c 0.04246,0 0.133284,-2.4e-4 0.133284,-0.0982 0,-0.098 -0.09082,-0.0978 -0.133284,-0.0978 z m 8.510535,0 c -0.10312,0 -0.133284,0.0239 -0.133284,0.13081 v 1.76326 c 0,0.10092 0.0241,0.13045 0.133284,0.13045 h 0.01814 c 0.103121,0 0.133654,-0.0236 0.133654,-0.13045 v -0.7838 h 1.176598 c 0.0425,0 0.13366,1.3e-4 0.13366,-0.0978 0,-0.098 -0.0912,-0.0982 -0.13366,-0.0982 h -1.176598 v -0.71819 h 1.334318 c 0.0425,0 0.13366,-2.5e-4 0.13366,-0.0982 0,-0.098 -0.0912,-0.0978 -0.13366,-0.0978 z m -3.888182,0.003 c -0.04246,0 -0.133284,2.4e-4 -0.133284,0.0982 0,0.098 0.09082,0.0978 0.133284,0.0978 h 0.946315 v 1.69513 c 0,0.10093 0.0241,0.13045 0.133284,0.13045 h 0.01814 c 0.103121,0 0.133654,-0.0236 0.133654,-0.13045 v -1.69513 h 0.943354 c 0.04246,0 0.133284,1.2e-4 0.133284,-0.0978 0,-0.098 -0.09082,-0.0982 -0.133284,-0.0982 z m 14.060694,0.18698 h 0.5187 c 0.32452,0 0.76119,0.10986 0.76119,0.32358 0,0.2078 -0.37285,0.36237 -0.7823,0.36237 h -0.49759 z m 2.48389,0 h 0.66123 c 0.49134,0 0.70974,0.16941 0.70974,0.36236 0,0.20482 -0.2457,0.362 -0.70974,0.362 h -0.66123 z m 4.91965,0 h 0.66124 c 0.49133,0 0.70936,0.16941 0.70936,0.36236 0,0.20482 -0.24532,0.362 -0.70936,0.362 h -0.66124 z m -1.87449,0.0475 0.48241,1.03925 h -0.96778 z m -5.52905,0.82546 h 0.57942 c 0.37608,0 0.80044,0.16032 0.80044,0.40077 0,0.23451 -0.41848,0.3649 -0.7612,0.3649 h -0.61866 z" /><g
         id="g948"
         transform="translate(0.9408504,13.190069)"><path
           style="fill:none;stroke:#ff6600;stroke-width:0.176389;stroke-opacity:1"
           d="M 80.193856,97.569431 H 92.295148"
           id="path1020" /><path
           style="fill:none;stroke:#ff6600;stroke-width:0.176389;stroke-opacity:1"
           d="m 124.05881,97.569431 h -12.481"
           id="path1022" /></g></g><rect
       style="fill:none;stroke:#ff6600;stroke-width:0.0881943;stroke-dasharray:none"
       id="rect1022"
       width="45.772915"
       height="45.772919"
       x="80.195427"
       y="83.485672"
       ry="0" /></g></svg>
