<?xml version="1.0" encoding="UTF-8" standalone="no"?>
<!-- Created with Inkscape (http://www.inkscape.org/) -->

<svg
   width="130pt"
   height="130pt"
   viewBox="0 0 45.861111 45.861108"
   version="1.1"
   id="svg5"
   xml:space="preserve"
   inkscape:version="1.2.2 (b0a8486541, 2022-12-01)"
   sodipodi:docname="icon.svg"
   inkscape:export-filename="logo.png"
   inkscape:export-xdpi="187.8261"
   inkscape:export-ydpi="187.8261"
   xmlns:inkscape="http://www.inkscape.org/namespaces/inkscape"
   xmlns:sodipodi="http://sodipodi.sourceforge.net/DTD/sodipodi-0.dtd"
   xmlns="http://www.w3.org/2000/svg"
   xmlns:svg="http://www.w3.org/2000/svg"><sodipodi:namedview
     id="namedview7"
     pagecolor="#ffffff"
     bordercolor="#000000"
     borderopacity="0.25"
     inkscape:showpageshadow="2"
     inkscape:pageopacity="0.0"
     inkscape:pagecheckerboard="0"
     inkscape:deskcolor="#d1d1d1"
     inkscape:document-units="pt"
     showgrid="false"
     showguides="true"
     inkscape:zoom="10.817308"
     inkscape:cx="86.759109"
     inkscape:cy="86.759109"
     inkscape:window-width="3836"
     inkscape:window-height="2047"
     inkscape:window-x="0"
     inkscape:window-y="72"
     inkscape:window-maximized="1"
     inkscape:current-layer="layer1"
     inkscape:lockguides="true" /><defs
     id="defs2" /><g
     inkscape:label="Layer 1"
     inkscape:groupmode="layer"
     id="layer1"
     transform="translate(-80.193856,-83.428233)"><rect
       style="fill:#ececec;stroke:none;stroke-width:0.352777"
       id="rect388"
       width="45.861111"
       height="45.861111"
       x="80.193855"
       y="83.428238"
       ry="0"
       sodipodi:insensitive="true" /><g
       id="g1964"
       transform="translate(0,5.7263468)"><path
         id="path788"
         style="fill:none;stroke:#0055d4;stroke-width:1.76389;stroke-dasharray:none"
         d="m 108.92901,94.652037 -8.56306,-0.02409 c -1.071277,-0.0165 -2.088024,0.563074 -2.631455,1.513218 -0.54343,0.950146 -0.527644,2.120677 0.04121,3.055812 0.568854,0.935143 1.60086,1.487063 2.630765,1.442203 l 5.43838,0.027 c 1.02509,-0.0447 2.05323,0.50224 2.62374,1.43071 0.57051,0.92847 0.59404,2.09309 0.0615,3.04386 -0.53254,0.95077 -1.53775,1.53878 -2.62452,1.53685 l -8.577871,-0.0243"
         sodipodi:nodetypes="ccssccsscc" /><path
         id="path808"
         style="fill:none;stroke:#ff6600;stroke-width:2.46944;stroke-dasharray:none;stroke-opacity:1"
         d="m 89.406437,100.69107 c 0.813242,-0.0344 1.475422,0.26274 2.065747,0.82334 0.590325,0.5606 0.92809,1.33675 0.936051,2.15096 l 0.0056,3.65595 m -11.591358,-12.669262 8.522548,0.02493 c 1.025092,-0.04465 2.053231,0.502254 2.623741,1.430722 0.570511,0.928468 0.594042,2.093092 0.0615,3.043862 -0.532543,0.950768 -1.537753,1.538778 -2.624528,1.536828 l -8.583261,-0.0236"
         sodipodi:nodetypes="csccccsscc" /><path
         style="fill:none;stroke:#ff6600;stroke-width:2.46944;stroke-dasharray:none;stroke-opacity:1"
         d="m 113.83751,93.902478 v 12.710342 h 11.5913"
         id="path912"
         sodipodi:nodetypes="ccc" /></g><g
       id="g948"
       transform="translate(0.99807842,24.408265)"
       style="stroke:#0055d4"><path
         style="fill:none;stroke:#0055d4;stroke-width:0.352778;stroke-dasharray:none;stroke-opacity:1"
         d="M 80.193856,97.569431 H 92.295148"
         id="path1020" /><path
         style="fill:none;stroke:#0055d4;stroke-width:0.352778;stroke-dasharray:none;stroke-opacity:1"
         d="m 124.05881,97.569431 h -12.481"
         id="path1022" /></g><path
       id="text426"
       style="font-size:5.7443px;font-family:'Latin Modern Sans Quotation';-inkscape-font-specification:'Latin Modern Sans Quotation';fill:#0055d4;stroke:none;stroke-width:0.176389;stroke-dasharray:none"
       d="m 105.04299,119.80715 c -0.98802,0 -1.61438,0.55166 -1.61438,1.12035 0,0.32742 0.1726,0.54575 0.32195,0.68936 0.31593,0.28721 0.65465,0.35014 1.2578,0.47077 0.47103,0.0919 0.62049,0.12052 0.83303,0.25838 0.17232,0.11489 0.29869,0.28724 0.29869,0.49403 0,0.36189 -0.4424,0.72399 -1.13172,0.72399 -0.35614,0 -0.867,-0.0748 -1.4242,-0.43098 -0.0632,-0.0402 -0.0747,-0.0398 -0.092,-0.0398 -0.0632,0 -0.0747,0.04 -0.0977,0.17208 -0.006,0.0402 -0.0403,0.21267 -0.0403,0.23564 0,0.046 0.0288,0.0687 0.0403,0.0744 0.0115,0.006 0.68902,0.40204 1.61385,0.40204 0.96504,0 1.60869,-0.58006 1.60869,-1.20044 0,-0.40785 -0.2298,-0.63178 -0.34468,-0.75241 -0.30445,-0.29871 -0.74107,-0.38479 -1.08572,-0.45372 -0.70081,-0.13787 -0.82726,-0.16083 -1.03405,-0.29869 -0.14361,-0.0977 -0.24701,-0.23586 -0.24701,-0.41393 0,-0.32168 0.43665,-0.64906 1.13171,-0.64906 0.43082,0 0.73544,0.0979 1.07435,0.32195 0.0632,0.046 0.0747,0.046 0.0977,0.046 0.0632,0 0.0747,-0.0405 0.0977,-0.1726 0.006,-0.0402 0.0398,-0.21215 0.0398,-0.23513 0,-0.0574 -0.005,-0.0634 -0.17208,-0.13229 -0.43657,-0.18956 -0.80429,-0.22996 -1.13171,-0.22996 z m -10.443295,0.12092 c -0.195306,0 -0.252698,0.0459 -0.252698,0.2527 v 3.42357 c 0,0.22977 0.08651,0.25269 0.264584,0.25269 0.172328,0 0.264066,-0.0172 0.264066,-0.25269 v -1.53376 h 1.309481 l 1.361674,1.67742 c 0.08616,0.10914 0.166294,0.10903 0.275435,0.10903 h 0.04599 c 0.114886,0 0.183968,-5e-5 0.183968,-0.14366 l -1.384411,-1.6831 c 0.959297,-0.20679 1.315682,-0.6493 1.315682,-1.02268 0,-0.62038 -0.896524,-1.07952 -1.844332,-1.07952 z m 4.681885,0 c -0.195306,0 -0.252698,0.0459 -0.252698,0.2527 v 2.34921 c 0,0.83293 0.781127,1.44746 1.694468,1.44746 0.91334,0 1.65985,-0.62602 1.65985,-1.44746 v -2.34921 c 0,-0.12063 3.3e-4,-0.2527 -0.22944,-0.2527 -0.22978,0 -0.22996,0.13207 -0.22996,0.2527 v 2.33216 c 0,0.71229 -0.61459,1.08572 -1.19476,1.08572 -0.55146,0 -1.160139,-0.34471 -1.160139,-1.08572 v -2.33216 c 0,-0.1953 -0.04642,-0.2527 -0.253215,-0.2527 z m 8.24859,0.0171 c -0.0804,0 -0.2527,9e-5 -0.2527,0.18965 0,0.18956 0.17228,0.18965 0.2527,0.18965 h 1.79214 v 3.27991 c 0,0.1953 0.0459,0.25269 0.2527,0.25269 h 0.0346 c 0.19531,0 0.2527,-0.0459 0.2527,-0.25269 v -3.27991 h 1.78645 c 0.0804,0 0.2527,-9e-5 0.2527,-0.18965 0,-0.18956 -0.17228,-0.18965 -0.2527,-0.18965 z m -12.654523,0.36173 h 1.25212 c 0.930576,0 1.344104,0.32736 1.344104,0.70073 0,0.39636 -0.465227,0.70125 -1.344104,0.70125 h -1.25212 z" /><text
       xml:space="preserve"
       style="font-size:8.41221px;font-family:'Latin Modern Sans Quotation';-inkscape-font-specification:'Latin Modern Sans Quotation';fill:none;stroke:#0055d4;stroke-width:0.176389;stroke-dasharray:none"
       x="82.173157"
       y="89.38063"
       id="text1086"
       transform="scale(0.98825379,1.0118858)"><tspan
         sodipodi:role="line"
         id="tspan1084"
         style="stroke:#0055d4;stroke-width:0.176389"
         x="82.173157"
         y="89.38063">RUSSELL</tspan></text><path
       id="text1090"
       style="font-size:3.52778px;font-family:'Latin Modern Sans Quotation';-inkscape-font-specification:'Latin Modern Sans Quotation';fill:none;stroke:#ff6600;stroke-width:0.141111;stroke-dasharray:none"
       d="m 82.206732,125.6873 c -0.635935,0 -1.03878,0.35567 -1.03878,0.72257 0,0.21124 0.110759,0.35197 0.206889,0.44461 0.20335,0.18531 0.42147,0.22619 0.809685,0.30402 0.303178,0.0593 0.39938,0.0777 0.53618,0.16666 0.110918,0.0741 0.192266,0.18525 0.192266,0.31867 0,0.23348 -0.284771,0.46741 -0.728446,0.46741 -0.229232,0 -0.558283,-0.0482 -0.916921,-0.27795 -0.04068,-0.0259 -0.04794,-0.026 -0.05904,-0.026 -0.04067,0 -0.04803,0.026 -0.06282,0.11129 -0.0037,0.026 -0.02599,0.13718 -0.02599,0.152 0,0.0296 0.0186,0.044 0.02599,0.0478 0.0074,0.004 0.443516,0.25949 1.03878,0.25949 0.621146,0 1.035532,-0.37443 1.035532,-0.77468 0,-0.26312 -0.148109,-0.4075 -0.222055,-0.48533 -0.195957,-0.19271 -0.476821,-0.24814 -0.698659,-0.29261 -0.451068,-0.089 -0.532518,-0.10379 -0.66562,-0.19273 -0.09243,-0.063 -0.158688,-0.1522 -0.158688,-0.26708 0,-0.20754 0.281074,-0.41856 0.728446,-0.41856 0.277297,0 0.472936,0.0628 0.691076,0.20738 0.04068,0.0296 0.04803,0.0298 0.06282,0.0298 0.04067,0 0.04803,-0.0261 0.06282,-0.1113 0.0037,-0.026 0.02599,-0.13718 0.02599,-0.152 0,-0.0371 -0.0038,-0.0408 -0.111026,-0.0852 -0.280994,-0.12229 -0.517701,-0.1482 -0.728446,-0.1482 z m 3.065432,0.0408 c -0.377125,0 -0.746955,0.12582 -1.027949,0.37784 -0.262508,0.23718 -0.425153,0.57091 -0.425153,0.92669 0,0.35578 0.162645,0.6895 0.425153,0.92669 0.280994,0.25201 0.650824,0.37784 1.027949,0.37784 0.151588,0 0.310297,-0.003 0.458189,-0.0369 0.151589,-0.0371 0.292238,-0.10001 0.432735,-0.17046 0.01849,-0.007 0.02979,-0.026 0.02979,-0.0483 l -0.01517,-0.16667 c -0.0037,-0.0259 -0.02557,-0.0483 -0.05145,-0.0483 -0.01109,0 -0.0186,0.004 -0.026,0.007 -0.125707,0.0704 -0.255409,0.14047 -0.395905,0.17753 -0.140498,0.0371 -0.288,0.0413 -0.432194,0.0413 -0.292086,0 -0.572943,-0.10778 -0.783689,-0.31161 -0.203351,-0.19642 -0.325499,-0.46326 -0.325499,-0.74863 0,-0.28537 0.122148,-0.55221 0.325499,-0.74863 0.210746,-0.20383 0.491603,-0.31106 0.783689,-0.31106 0.129405,0 0.262168,0.0111 0.391573,0.0445 0.125709,0.0296 0.247713,0.0848 0.362329,0.15147 0.0074,0.004 0.0149,0.004 0.02599,0.004 0.02588,0 0.0445,-0.0185 0.0482,-0.0408 l 0.04062,-0.21878 c 0,-0.0334 -0.01464,-0.0518 -0.03683,-0.0591 -0.133102,-0.0408 -0.270032,-0.0776 -0.41053,-0.0999 -0.140497,-0.0185 -0.280864,-0.0261 -0.421361,-0.0261 z m 18.434836,0 c -0.37713,0 -0.74696,0.12582 -1.02795,0.37784 -0.26251,0.23718 -0.42515,0.57091 -0.42515,0.92669 0,0.35578 0.16264,0.6895 0.42515,0.92669 0.28099,0.25201 0.65082,0.37784 1.02795,0.37784 0.15159,0 0.3103,-0.003 0.45819,-0.0369 0.15159,-0.0371 0.29224,-0.10001 0.43273,-0.17046 0.0184,-0.007 0.0292,-0.026 0.0292,-0.0483 l -0.0147,-0.16667 c -0.004,-0.0259 -0.0256,-0.0483 -0.0515,-0.0483 -0.0111,0 -0.0186,0.004 -0.026,0.007 -0.1257,0.0704 -0.25541,0.14047 -0.3959,0.17753 -0.1405,0.0371 -0.288,0.0413 -0.43219,0.0413 -0.2921,0 -0.57349,-0.10778 -0.78424,-0.31161 -0.20334,-0.19642 -0.32496,-0.46326 -0.32496,-0.74863 0,-0.28537 0.12162,-0.55221 0.32496,-0.74863 0.21075,-0.20383 0.49214,-0.31106 0.78424,-0.31106 0.1294,0 0.26217,0.0111 0.39157,0.0445 0.1257,0.0296 0.24771,0.0848 0.36232,0.15147 0.007,0.004 0.0149,0.004 0.026,0.004 0.0259,0 0.0446,-0.0185 0.0482,-0.0408 l 0.0407,-0.21878 c 0,-0.0334 -0.0147,-0.0518 -0.0368,-0.0591 -0.1331,-0.0408 -0.27003,-0.0776 -0.41053,-0.0999 -0.1405,-0.0185 -0.28087,-0.0261 -0.42136,-0.0261 z m 14.03111,0 c -0.085,0 -0.17761,2.2e-4 -0.24046,0.13735 l -1.05016,2.28279 c -0.0111,0.0223 -0.0222,0.0446 -0.0222,0.0706 0,0.0815 0.0852,0.0814 0.11483,0.0814 0.0518,0 0.14783,-0.004 0.21068,-0.14114 l 0.2513,-0.54831 h 1.40489 l 0.19228,0.4153 c 0.11461,0.25202 0.12591,0.27415 0.30708,0.27415 0.0702,0 0.14785,1.1e-4 0.14785,-0.0814 0,-0.0185 -0.0148,-0.0558 -0.0222,-0.0706 l -1.05016,-2.27574 c -0.0554,-0.11489 -0.0958,-0.1444 -0.24372,-0.1444 z m -30.728507,0.0369 c -0.125709,0 -0.16248,0.0299 -0.16248,0.1634 v 2.20842 c 0,0.126 0.02938,0.1634 0.16248,0.1634 h 0.02221 c 0.125707,0 0.16302,-0.0299 0.16302,-0.1634 v -2.20842 c 0,-0.126 -0.02992,-0.1634 -0.16302,-0.1634 z m 4.067383,0 c -0.125709,0 -0.16302,0.0299 -0.16302,0.1634 v 2.20842 c 0,0.0742 -1.3e-4,0.1634 0.144064,0.1634 0.144194,0 0.144606,-0.0893 0.144606,-0.1634 v -2.13459 l 1.305245,2.16064 c 0.08134,0.13713 0.184396,0.13735 0.258342,0.13735 h 0.137023 c 0.125708,0 0.162479,-0.0299 0.162479,-0.1634 v -2.20842 c 0,-0.0741 1.3e-4,-0.1634 -0.144064,-0.1634 -0.144195,0 -0.144065,0.0893 -0.144065,0.1634 v 2.13459 l -1.305245,-2.16065 c -0.08134,-0.13712 -0.184937,-0.13734 -0.258884,-0.13734 z m 6.307423,0 c -0.125708,0 -0.162478,0.0299 -0.162478,0.1634 v 2.20842 c 0,0.126 0.02938,0.1634 0.162478,0.1634 h 0.02221 c 0.125709,0 0.16248,-0.0299 0.16248,-0.1634 v -2.20842 c 0,-0.126 -0.02938,-0.1634 -0.16248,-0.1634 z m 3.926571,0 c -0.12571,0 -0.16302,0.0299 -0.16302,0.1634 v 2.20842 c 0,0.126 0.0299,0.1634 0.16302,0.1634 h 0.0222 c 0.12571,0 0.16248,-0.0299 0.16248,-0.1634 v -2.20842 c 0,-0.126 -0.0293,-0.1634 -0.16248,-0.1634 z m 5.67538,0 c -0.12571,0 -0.16302,0.0299 -0.16302,0.1634 v 2.20842 c 0,0.126 0.0299,0.1634 0.16302,0.1634 h 1.6822 c 0.0518,0 0.16247,1.6e-4 0.16247,-0.12215 0,-0.12229 -0.11072,-0.12269 -0.16247,-0.12269 h -1.49752 v -2.12698 c 0,-0.126 -0.0294,-0.1634 -0.16248,-0.1634 z m 2.61753,0 c -0.12571,0 -0.16248,0.0299 -0.16248,0.1634 v 2.20842 c 0,0.126 0.0293,0.1634 0.16248,0.1634 h 0.0222 c 0.12572,0 0.16248,-0.0299 0.16248,-0.1634 v -2.20842 c 0,-0.126 -0.0293,-0.1634 -0.16248,-0.1634 z m 1.18664,0 c -0.12572,0 -0.16248,0.0299 -0.16248,0.1634 v 2.20842 c 0,0.126 0.0293,0.1634 0.16248,0.1634 h 1.05394 c 0.59896,0 1.13139,-0.30791 1.13139,-0.69705 0,-0.3113 -0.38835,-0.55932 -0.88009,-0.62974 0.37343,-0.0778 0.75066,-0.27072 0.75066,-0.5635 0,-0.3669 -0.54344,-0.64493 -1.12761,-0.64493 z m 3.02481,0 c -0.12571,0 -0.16302,0.0299 -0.16302,0.1634 v 2.20842 c 0,0.14824 0.0554,0.1634 0.17005,0.1634 0.11093,0 0.17007,-0.0114 0.17007,-0.1634 v -0.98913 h 0.84326 l 0.87631,1.08196 c 0.0554,0.0704 0.10685,0.0706 0.1771,0.0706 h 0.0298 c 0.0739,0 0.11806,-1.8e-4 0.11806,-0.0929 l -0.89092,-1.08575 c 0.61745,-0.13342 0.84706,-0.4187 0.84706,-0.6596 0,-0.40025 -0.57713,-0.69704 -1.18718,-0.69704 z m 5.99709,0 c -0.12571,0 -0.16303,0.0299 -0.16303,0.1634 v 2.20842 c 0,0.14824 0.0554,0.1634 0.17007,0.1634 0.11092,0 0.17006,-0.0114 0.17006,-0.1634 v -0.98913 h 0.84326 l 0.87631,1.08196 c 0.0554,0.0704 0.10685,0.0706 0.1771,0.0706 h 0.0298 c 0.074,0 0.11808,-1.8e-4 0.11808,-0.0929 l -0.89093,-1.08575 c 0.61745,-0.13342 0.84651,-0.4187 0.84651,-0.6596 0,-0.40025 -0.57659,-0.69704 -1.18664,-0.69704 z m 2.68414,0 c -0.0924,0 -0.15164,1.5e-4 -0.15164,0.0706 0,0.026 0.007,0.0372 0.0368,0.0706 l 1.18338,1.37837 v 0.85231 c 0,0.14824 0.0554,0.1634 0.17006,0.1634 0.11093,0 0.17007,-0.0113 0.17007,-0.1596 v -0.85231 l 1.18284,-1.38217 c 0.0407,-0.0408 0.0407,-0.0483 0.0407,-0.0706 0,-0.0704 -0.0699,-0.0706 -0.11428,-0.0706 -0.0591,0 -0.17052,2.9e-4 -0.27404,0.11888 l -0.96459,1.12267 -0.95429,-1.11562 c -0.10721,-0.126 -0.22143,-0.12593 -0.32496,-0.12593 z m -34.307373,0.007 c -0.125707,0 -0.162478,0.0294 -0.162478,0.16286 v 2.20137 c 0,0.126 0.02938,0.1634 0.162478,0.1634 h 1.94108 c 0.05546,0 0.162478,6e-5 0.162478,-0.12594 0,-0.12972 -0.103317,-0.12975 -0.162478,-0.12975 h -1.756395 v -0.9305 h 1.564128 c 0.05176,0 0.162479,1.6e-4 0.162479,-0.12214 0,-0.1223 -0.110717,-0.12215 -0.162479,-0.12215 h -1.564128 v -0.85231 h 1.693569 c 0.05176,0 0.162479,-3.9e-4 0.162479,-0.12269 0,-0.1223 -0.110716,-0.12215 -0.162479,-0.12215 z m 10.374808,0 c -0.125709,0 -0.163021,0.0294 -0.163021,0.16286 v 2.20137 c 0,0.126 0.02992,0.1634 0.163021,0.1634 h 0.02221 c 0.125707,0 0.162478,-0.0299 0.162478,-0.1634 v -0.97827 h 1.434687 c 0.0518,0 0.16248,1.5e-4 0.16248,-0.12214 0,-0.1223 -0.11072,-0.12215 -0.16248,-0.12215 h -1.43469 v -0.89683 h 1.62695 c 0.0518,0 0.16248,-3.9e-4 0.16248,-0.12269 0,-0.1223 -0.11072,-0.12215 -0.16248,-0.12215 z m -4.740046,0.004 c -0.05176,0 -0.163021,-1.6e-4 -0.163021,0.12215 0,0.1223 0.111258,0.12214 0.163021,0.12214 h 1.153598 v 2.11614 c 0,0.126 0.02938,0.1634 0.16248,0.1634 h 0.02221 c 0.125708,0 0.162478,-0.0299 0.162478,-0.1634 v -2.11614 h 1.15035 c 0.05176,0 0.162479,1.6e-4 0.162479,-0.12214 0,-0.12231 -0.110718,-0.12215 -0.162479,-0.12215 z m 17.140421,0.23344 h 0.63258 c 0.39561,0 0.92776,0.13706 0.92776,0.4039 0,0.25942 -0.45461,0.45221 -0.95375,0.45221 h -0.60659 z m 3.02806,0 h 0.80644 c 0.59896,0 0.86492,0.21132 0.86492,0.45221 0,0.25572 -0.29924,0.45222 -0.86492,0.45222 h -0.80644 z m 5.99709,0 h 0.8059 c 0.59896,0 0.86546,0.21132 0.86546,0.45221 0,0.25572 -0.29978,0.45222 -0.86546,0.45222 h -0.8059 z m -2.28499,0.0592 0.58817,1.29693 h -1.1796 z m -6.74016,1.03038 h 0.70624 c 0.45846,0 0.97596,0.20034 0.97596,0.50053 0,0.29277 -0.50997,0.45547 -0.92776,0.45547 h -0.75444 z" /></g></svg>
