<?xml version="1.0" encoding="UTF-8" standalone="no"?>
<!-- Created with Inkscape (http://www.inkscape.org/) -->

<svg
   width="232pt"
   height="54pt"
   viewBox="0 0 81.844445 19.049999"
   version="1.1"
   id="svg5"
   xml:space="preserve"
   inkscape:version="1.2.2 (b0a8486541, 2022-12-01)"
   sodipodi:docname="logo.svg"
   inkscape:export-filename="logo.png"
   inkscape:export-xdpi="187.8261"
   inkscape:export-ydpi="187.8261"
   xmlns:inkscape="http://www.inkscape.org/namespaces/inkscape"
   xmlns:sodipodi="http://sodipodi.sourceforge.net/DTD/sodipodi-0.dtd"
   xmlns="http://www.w3.org/2000/svg"
   xmlns:svg="http://www.w3.org/2000/svg"><sodipodi:namedview
     id="namedview7"
     pagecolor="#ffffff"
     bordercolor="#000000"
     borderopacity="0.25"
     inkscape:showpageshadow="2"
     inkscape:pageopacity="0.0"
     inkscape:pagecheckerboard="0"
     inkscape:deskcolor="#d1d1d1"
     inkscape:document-units="pt"
     showgrid="false"
     showguides="true"
     inkscape:zoom="7.5873765"
     inkscape:cx="152.55603"
     inkscape:cy="13.772877"
     inkscape:window-width="3836"
     inkscape:window-height="2095"
     inkscape:window-x="0"
     inkscape:window-y="0"
     inkscape:window-maximized="1"
     inkscape:current-layer="layer1"
     inkscape:lockguides="true" /><defs
     id="defs2" /><g
     inkscape:label="Layer 1"
     inkscape:groupmode="layer"
     id="layer1"
     transform="translate(-62.929584,-83.428101)"><g
       id="g1278"
       transform="translate(1.6298778,0.89140559)"><path
         id="path788"
         style="fill:none;stroke:#ff6600;stroke-width:1.41111;stroke-dasharray:none"
         d="m 107.57624,84.152868 -6.73725,-0.01894 c -0.842854,-0.01297 -1.642808,0.442863 -2.070368,1.190158 -0.42756,0.747297 -0.415142,1.667929 0.03242,2.403421 0.447561,0.735492 1.259518,1.169587 2.069828,1.134311 l 4.27882,0.02119 c 0.80652,-0.03512 1.61543,0.395028 2.0643,1.125275 0.44887,0.730245 0.46739,1.646231 0.0484,2.394022 -0.41899,0.747791 -1.20988,1.210267 -2.06492,1.208728 l -6.748886,-0.01908"
         sodipodi:nodetypes="ccssccsscc" /><path
         id="path798"
         style="fill:none;stroke:#000000;stroke-width:1.05833;stroke-dasharray:none"
         d="m 95.684376,84.152878 -6.730282,-0.01883 c -0.837468,-0.01795 -1.641384,0.434939 -2.072702,1.181992 -0.431319,0.747052 -0.421589,1.669708 0.02539,2.407498 0.446979,0.737789 1.260268,1.17362 2.072236,1.138274 l 4.278812,0.02119 c 0.806522,-0.03512 1.61544,0.395023 2.064306,1.125271 0.448864,0.730249 0.467375,1.646235 0.04838,2.394022 -0.418993,0.747788 -1.209872,1.210264 -2.067042,1.208724 l -6.746772,-0.01907"
         sodipodi:nodetypes="ccssccsscc" /><path
         id="path808"
         style="fill:none;stroke:#ff6600;stroke-width:1.41111;stroke-dasharray:none;stroke-opacity:1"
         d="m 69.582881,88.902619 c 0.639841,-0.02702 1.263279,0.206643 1.727735,0.64756 0.464456,0.440917 0.730204,1.051371 0.736466,1.691751 l 0.0044,2.875434 m -9.119835,-9.964485 6.705361,0.01961 c 0.806518,-0.03512 1.615437,0.395023 2.064303,1.125271 0.448867,0.730247 0.467382,1.646233 0.04839,2.394022 -0.418993,0.747788 -1.209872,1.210264 -2.064924,1.208731 l -6.75313,-0.01857"
         sodipodi:nodetypes="csccccsscc" /><path
         id="path858"
         style="fill:none;stroke:#000000;stroke-width:1.05833;stroke-dasharray:none"
         d="m 74.836512,83.614254 1.3e-5,7.625286 c -0.0019,0.645635 0.260287,1.263967 0.725694,1.711451 0.465407,0.447483 1.093554,0.685196 1.688724,0.659003 h 4.290935 c 0.595175,0.02619 1.223321,-0.21152 1.688728,-0.659003 0.465407,-0.447483 0.727593,-1.065815 0.725693,-1.707968 l 6e-6,-7.628769"
         sodipodi:nodetypes="ccsccscc" /><g
         id="g1883"
         transform="translate(0.78571015,1.0583333)"><path
           style="fill:none;stroke:#000000;stroke-width:1.05833;stroke-dasharray:none"
           d="m 109.03383,83.094541 h 9.1198"
           id="path904" /><path
           style="fill:none;stroke:#000000;stroke-width:1.05833;stroke-dasharray:none"
           d="m 109.03383,87.823618 h 9.1198"
           id="path906" /><path
           style="fill:none;stroke:#000000;stroke-width:1.05833;stroke-dasharray:none"
           d="m 109.03383,92.552709 h 9.1198"
           id="path908" /></g><path
         style="fill:none;stroke:#000000;stroke-width:1.05833;stroke-dasharray:none"
         d="m 121.01882,83.614254 v 9.996788 h 9.1198"
         id="path910"
         sodipodi:nodetypes="ccc" /><path
         style="fill:none;stroke:#ff6600;stroke-width:1.41111;stroke-dasharray:none;stroke-opacity:1"
         d="m 132.39448,83.614254 v 9.996788 h 9.11979"
         id="path912"
         sodipodi:nodetypes="ccc" /></g><g
       id="g1409"
       transform="translate(0.0601456,0.25906318)"><g
         id="g1266"
         transform="translate(2.4560775,21.846326)"><path
           id="text398"
           style="font-size:4.23333px;font-family:'Latin Modern Sans Quotation';-inkscape-font-specification:'Latin Modern Sans Quotation';fill:none;stroke:#ff6600;stroke-width:0.176389;stroke-dasharray:none"
           d="m 85.076129,76.308945 c -0.728132,0 -1.189592,0.40669 -1.189592,0.825789 0,0.2413 0.126612,0.402146 0.236678,0.507979 0.232833,0.211667 0.482576,0.257849 0.927075,0.346749 0.347133,0.06773 0.457283,0.08909 0.613916,0.190686 0.127,0.08467 0.220142,0.211919 0.220142,0.364319 0,0.2667 -0.326059,0.533301 -0.834058,0.533301 -0.262466,0 -0.638915,-0.05534 -1.049548,-0.31781 -0.04657,-0.02963 -0.055,-0.02946 -0.0677,-0.02946 -0.04657,0 -0.0549,0.02976 -0.07183,0.127124 -0.0042,0.02963 -0.02997,0.1567 -0.02997,0.173633 0,0.03387 0.02151,0.05054 0.02997,0.05478 0.0085,0.0042 0.507509,0.296623 1.189074,0.296623 0.711199,0 1.185458,-0.428018 1.185458,-0.885218 0,-0.300566 -0.169065,-0.465588 -0.253731,-0.554488 -0.224367,-0.220133 -0.546469,-0.283546 -0.800468,-0.334346 -0.516466,-0.1016 -0.609311,-0.118542 -0.761711,-0.220142 -0.105833,-0.07197 -0.181901,-0.173658 -0.181901,-0.304891 0,-0.237066 0.321308,-0.478007 0.833541,-0.478007 0.317499,0 0.541917,0.07158 0.791683,0.236678 0.04657,0.03387 0.05541,0.03411 0.07235,0.03411 0.04657,0 0.0549,-0.02976 0.07183,-0.127124 0.0042,-0.02963 0.02946,-0.1567 0.02946,-0.173633 0,-0.04233 -0.0044,-0.04635 -0.127124,-0.09715 -0.321733,-0.139699 -0.592242,-0.169498 -0.833541,-0.169498 z m 3.509346,0.04651 c -0.431799,0 -0.855456,0.144149 -1.177189,0.432015 -0.300566,0.270933 -0.486792,0.651934 -0.486792,1.058334 0,0.406399 0.186226,0.7874 0.486792,1.058333 0.321733,0.287866 0.74539,0.431498 1.177189,0.431498 0.173567,0 0.3557,-0.0038 0.525033,-0.04186 0.173566,-0.04233 0.334194,-0.114387 0.49506,-0.19482 0.02117,-0.0085 0.03411,-0.02989 0.03411,-0.05529 l -0.01705,-0.190169 c -0.0042,-0.02963 -0.02979,-0.05529 -0.05943,-0.05529 -0.0127,0 -0.02099,0.004 -0.02945,0.0083 -0.143933,0.08043 -0.292336,0.161271 -0.453203,0.203605 -0.160866,0.04233 -0.32996,0.04651 -0.49506,0.04651 -0.334433,0 -0.65632,-0.1227 -0.897619,-0.355533 -0.232833,-0.224367 -0.372588,-0.529279 -0.372588,-0.855245 0,-0.325966 0.139755,-0.630879 0.372588,-0.855245 0.241299,-0.232833 0.563186,-0.355534 0.897619,-0.355534 0.148167,0 0.300385,0.01254 0.448552,0.05064 0.143933,0.03387 0.283728,0.09743 0.414961,0.173633 0.0085,0.0042 0.01676,0.0041 0.02946,0.0041 0.02963,0 0.05106,-0.02111 0.05529,-0.04651 l 0.04651,-0.249597 c 0,-0.0381 -0.01698,-0.05923 -0.04238,-0.0677 -0.1524,-0.04657 -0.308873,-0.0888 -0.469739,-0.114205 -0.160866,-0.02117 -0.321791,-0.02997 -0.482658,-0.02997 z m 21.107235,0 c -0.43179,0 -0.85494,0.144149 -1.17667,0.432015 -0.30056,0.270933 -0.48679,0.651934 -0.48679,1.058334 0,0.406399 0.18623,0.7874 0.48679,1.058333 0.32173,0.287866 0.74488,0.431498 1.17667,0.431498 0.17357,0 0.3557,-0.0038 0.52504,-0.04186 0.17356,-0.04233 0.33419,-0.114387 0.49506,-0.19482 0.0212,-0.0085 0.0341,-0.02989 0.0341,-0.05529 l -0.017,-0.190169 c -0.004,-0.02963 -0.0298,-0.05529 -0.0594,-0.05529 -0.0127,0 -0.021,0.004 -0.0294,0.0083 -0.14394,0.08043 -0.29182,0.161271 -0.45269,0.203605 -0.16087,0.04233 -0.33048,0.04651 -0.49558,0.04651 -0.33443,0 -0.65632,-0.1227 -0.89762,-0.355533 -0.23283,-0.224367 -0.37258,-0.529279 -0.37258,-0.855245 0,-0.325966 0.13975,-0.630879 0.37258,-0.855245 0.2413,-0.232833 0.56319,-0.355534 0.89762,-0.355534 0.14817,0 0.30039,0.01254 0.44856,0.05064 0.14393,0.03387 0.28372,0.09743 0.41496,0.173633 0.008,0.0042 0.0173,0.0041 0.03,0.0041 0.0296,0 0.0505,-0.02111 0.0548,-0.04651 l 0.0465,-0.249597 c 0,-0.0381 -0.017,-0.05923 -0.0424,-0.0677 -0.1524,-0.04657 -0.30887,-0.0888 -0.46974,-0.114205 -0.16086,-0.02117 -0.32179,-0.02997 -0.48266,-0.02997 z m 16.06569,0 c -0.0974,0 -0.20347,-5.3e-5 -0.27543,0.15658 l -1.202,2.60811 c -0.0127,0.0254 -0.0253,0.05047 -0.0253,0.0801 0,0.09313 0.0969,0.09353 0.13074,0.09353 0.0593,0 0.16936,-0.0046 0.24133,-0.16123 l 0.28784,-0.626319 h 1.60869 l 0.22014,0.473873 c 0.13123,0.287867 0.14396,0.313676 0.3514,0.313676 0.0804,0 0.1695,-4.01e-4 0.1695,-0.09353 0,-0.02117 -0.0169,-0.06317 -0.0253,-0.0801 L 126.0375,76.52082 c -0.0635,-0.131233 -0.10972,-0.165365 -0.27905,-0.165365 z m -35.183382,0.04238 c -0.143933,0 -0.186035,0.03415 -0.186035,0.186552 v 2.522843 c 0,0.143933 0.03364,0.186552 0.186035,0.186552 h 0.02532 c 0.143933,0 0.186552,-0.03415 0.186552,-0.186552 v -2.52285 c 0,-0.143933 -0.03415,-0.186552 -0.186552,-0.186552 z m 4.656563,0 c -0.143933,0 -0.186035,0.03415 -0.186035,0.186552 v 2.522843 c 0,0.08467 -2.52e-4,0.186552 0.164848,0.186552 0.1651,0 0.165364,-0.101885 0.165364,-0.186552 v -2.43861 l 1.494483,2.468066 c 0.09313,0.156633 0.211439,0.157096 0.296106,0.157096 h 0.156579 c 0.143934,0 0.186552,-0.03415 0.186552,-0.186552 v -2.52285 c 0,-0.08467 -2.64e-4,-0.186552 -0.165364,-0.186552 -0.1651,0 -0.164848,0.101885 -0.164848,0.186552 v 2.438094 l -1.494482,-2.468066 c -0.09313,-0.156633 -0.211957,-0.15658 -0.296623,-0.15658 z m 7.222299,0 c -0.14393,0 -0.18655,0.03415 -0.18655,0.186552 v 2.522843 c 0,0.143933 0.0341,0.186552 0.18655,0.186552 h 0.0253 c 0.14393,0 0.18604,-0.03415 0.18604,-0.186552 v -2.52285 c 0,-0.143933 -0.0336,-0.186552 -0.18604,-0.186552 z m 4.49585,0 c -0.14393,0 -0.18655,0.03415 -0.18655,0.186552 v 2.522843 c 0,0.143933 0.0341,0.186552 0.18655,0.186552 h 0.0253 c 0.14393,0 0.18604,-0.03415 0.18604,-0.186552 v -2.52285 c 0,-0.143933 -0.0336,-0.186552 -0.18604,-0.186552 z m 6.49779,0 c -0.14393,0 -0.18603,0.03415 -0.18603,0.186552 v 2.522843 c 0,0.143933 0.0336,0.186552 0.18603,0.186552 h 1.9265 c 0.0593,0 0.18604,-3.43e-4 0.18604,-0.140043 0,-0.1397 -0.12677,-0.139526 -0.18604,-0.139526 H 113.6594 V 76.58438 c 0,-0.143933 -0.0336,-0.186552 -0.18604,-0.186552 z m 2.99724,0 c -0.14394,0 -0.18604,0.03415 -0.18604,0.186552 v 2.522843 c 0,0.143933 0.0336,0.186552 0.18604,0.186552 h 0.0253 c 0.14393,0 0.18655,-0.03415 0.18655,-0.186552 v -2.52285 c 0,-0.143933 -0.0342,-0.186552 -0.18655,-0.186552 z m 1.35909,0 c -0.14394,0 -0.18655,0.03415 -0.18655,0.186552 v 2.522843 c 0,0.143933 0.0341,0.186552 0.18655,0.186552 h 1.20664 c 0.6858,0 1.29501,-0.351834 1.29501,-0.796334 0,-0.355599 -0.44414,-0.638902 -1.00717,-0.719335 0.42757,-0.0889 0.85938,-0.308939 0.85938,-0.643372 0,-0.419099 -0.62253,-0.736906 -1.2914,-0.736906 z m 3.46283,0 c -0.14393,0 -0.18603,0.03415 -0.18603,0.186552 v 2.522843 c 0,0.169333 0.0631,0.186552 0.1943,0.186552 0.127,0 0.19482,-0.01299 0.19482,-0.186552 v -1.13017 h 0.96532 l 1.00304,1.2361 c 0.0635,0.08043 0.12317,0.08061 0.2036,0.08061 h 0.0336 c 0.0847,0 0.1354,-1.03e-4 0.1354,-0.105936 l -1.0201,-1.240752 c 0.70697,-0.152399 0.96945,-0.478276 0.96945,-0.753442 0,-0.457199 -0.66059,-0.795817 -1.35909,-0.795817 z m 6.86625,0 c -0.14393,0 -0.18603,0.03415 -0.18603,0.186552 v 2.522843 c 0,0.169333 0.0636,0.186552 0.19482,0.186552 0.127,0 0.19482,-0.01299 0.19482,-0.186552 v -1.13017 h 0.9648 l 1.00355,1.2361 c 0.0635,0.08043 0.12266,0.08061 0.20309,0.08061 h 0.0341 c 0.0847,0 0.13539,-1.03e-4 0.13539,-0.105936 l -1.02061,-1.240752 c 0.70697,-0.152399 0.96945,-0.478276 0.96945,-0.753442 0,-0.457199 -0.66007,-0.795817 -1.35857,-0.795817 z m 3.07372,0 c -0.10584,0 -0.17364,1.82e-4 -0.17364,0.08061 0,0.02963 0.009,0.04252 0.0424,0.08061 l 1.35444,1.574581 v 0.973584 c 0,0.169333 0.0636,0.186552 0.19482,0.186552 0.127,0 0.19482,-0.01308 0.19482,-0.182417 v -0.973584 l 1.35444,-1.578716 c 0.0466,-0.04657 0.0465,-0.05521 0.0465,-0.08061 0,-0.08043 -0.0799,-0.08061 -0.13075,-0.08061 -0.0677,0 -0.19514,-7.4e-5 -0.31367,0.135392 l -1.10484,1.283126 -1.09193,-1.274341 c -0.12276,-0.143933 -0.25405,-0.144177 -0.37258,-0.144177 z m -39.281327,0.0088 c -0.143933,0 -0.186035,0.03364 -0.186035,0.186035 v 2.514575 c 0,0.143933 0.03364,0.186552 0.186035,0.186552 h 2.222603 c 0.0635,0 0.186552,-2.44e-4 0.186552,-0.144177 0,-0.148166 -0.118818,-0.148311 -0.186552,-0.148311 h -2.01073 v -1.062468 h 1.790589 c 0.05927,0 0.186552,1.74e-4 0.186552,-0.139526 0,-0.1397 -0.127286,-0.140043 -0.186552,-0.140043 h -1.790589 v -0.973584 h 1.9389 c 0.05927,0 0.186035,1.73e-4 0.186035,-0.139527 0,-0.139699 -0.126768,-0.139526 -0.186035,-0.139526 z m 11.878857,0 c -0.14393,0 -0.18603,0.03364 -0.18603,0.186035 v 2.514575 c 0,0.143933 0.0336,0.186552 0.18603,0.186552 h 0.0253 c 0.14393,0 0.18655,-0.03415 0.18655,-0.186552 v -1.117761 h 1.64228 c 0.0593,0 0.18655,1.74e-4 0.18655,-0.139526 0,-0.1397 -0.12729,-0.139527 -0.18655,-0.139527 h -1.64228 v -1.024743 h 1.86242 c 0.0593,0 0.18655,1.73e-4 0.18655,-0.139527 0,-0.139699 -0.12729,-0.139526 -0.18655,-0.139526 z m -5.427054,0.0041 c -0.05927,0 -0.186552,-1.73e-4 -0.186552,0.139526 0,0.1397 0.127285,0.139527 0.186552,0.139527 h 1.320849 v 2.417423 c 0,0.143933 0.03364,0.186552 0.186035,0.186552 h 0.02532 c 0.14394,0 0.18655,-0.03415 0.18655,-0.186552 V 76.6898 h 1.31672 c 0.0593,0 0.18603,1.73e-4 0.18603,-0.139527 0,-0.139699 -0.12676,-0.139526 -0.18603,-0.139526 z m 19.625674,0.266651 h 0.72399 c 0.45296,0 1.06247,0.156671 1.06247,0.46147 0,0.296333 -0.52095,0.516248 -1.09244,0.516248 h -0.69402 z m 3.46697,0 h 0.92294 c 0.6858,0 0.99064,0.241081 0.99064,0.516247 0,0.2921 -0.34294,0.516764 -0.99064,0.516764 h -0.92294 z m 6.86677,0 h 0.92242 c 0.6858,0 0.99064,0.241081 0.99064,0.516247 0,0.2921 -0.34294,0.516764 -0.99064,0.516764 h -0.92242 z m -2.61638,0.0677 0.67283,1.481563 h -1.35031 z m -7.71736,1.176672 h 0.80874 c 0.52493,0 1.11724,0.228642 1.11724,0.571541 0,0.334433 -0.5841,0.520899 -1.06247,0.520899 h -0.86351 z"
           sodipodi:nodetypes="ccccsscscsssscccsscscscsscscsccccscsscscsccsccccsscsssccccscsscscsccsccccssccssccccssccsssssssssssssssscssssssccssssssssssssssssssssssssssscsssssssssssssssssscsssssssssccssccsssssssssccssccsssssccsssccsscccssssssssccsssccssssssssssssssccssssssscsscscsssscssscccssscccsssccsccccscscccssscc" /><path
           d="m 76.33293,76.308945 c -0.728132,0 -1.189592,0.40669 -1.189592,0.825789 0,0.2413 0.127128,0.402146 0.237195,0.507979 0.232833,0.211667 0.482576,0.257849 0.927075,0.346749 0.347133,0.06773 0.457283,0.08909 0.613916,0.190686 0.127,0.08467 0.220142,0.211919 0.220142,0.364319 0,0.2667 -0.326059,0.533301 -0.834058,0.533301 -0.262466,0 -0.638916,-0.05534 -1.049548,-0.31781 -0.04657,-0.02963 -0.05551,-0.02946 -0.06821,-0.02946 -0.04657,0 -0.0549,0.02976 -0.07183,0.127124 -0.0042,0.02963 -0.02946,0.1567 -0.02946,0.173633 0,0.03387 0.02099,0.05054 0.02946,0.05478 0.0085,0.0042 0.508026,0.296623 1.189591,0.296623 0.711199,0 1.185457,-0.428018 1.185457,-0.885218 0,-0.300566 -0.169581,-0.465588 -0.254248,-0.554488 -0.224366,-0.220133 -0.545951,-0.283546 -0.799951,-0.334346 -0.516465,-0.1016 -0.609311,-0.118542 -0.76171,-0.220142 -0.105834,-0.07197 -0.182418,-0.173658 -0.182418,-0.304891 0,-0.237066 0.321825,-0.478007 0.834057,-0.478007 0.3175,0 0.541917,0.07158 0.791683,0.236678 0.04657,0.03387 0.0549,0.03411 0.07183,0.03411 0.04657,0 0.05541,-0.02976 0.07235,-0.127124 0.0042,-0.02963 0.02946,-0.1567 0.02946,-0.173633 0,-0.04233 -0.0044,-0.04635 -0.127124,-0.09715 -0.321733,-0.139699 -0.592758,-0.169498 -0.834057,-0.169498 z m -7.696172,0.08888 c -0.143933,0 -0.186035,0.03415 -0.186035,0.186552 v 2.522843 c 0,0.169333 0.06359,0.186552 0.19482,0.186552 0.127,0 0.194304,-0.01299 0.194304,-0.186552 v -1.130163 h 0.965316 l 1.003556,1.2361 c 0.0635,0.08043 0.122655,0.08062 0.203088,0.08062 h 0.03359 c 0.08467,0 0.135909,-1.03e-4 0.135909,-0.105936 l -1.02061,-1.240752 c 0.706966,-0.152399 0.96945,-0.478276 0.96945,-0.753442 0,-0.457199 -0.660074,-0.795817 -1.358573,-0.795817 z m 3.450436,0 c -0.143933,0 -0.186552,0.03415 -0.186552,0.186552 v 1.73116 c 0,0.613833 0.575921,1.067119 1.249019,1.067119 0.673099,0 1.223181,-0.461753 1.223181,-1.067119 v -1.73116 c 0,-0.0889 3.52e-4,-0.186552 -0.168981,-0.186552 -0.169333,0 -0.169499,0.09765 -0.169499,0.186552 v 1.718758 c 0,0.524932 -0.453001,0.799951 -0.880567,0.799951 -0.406399,0 -0.855245,-0.253852 -0.855245,-0.799951 v -1.718758 c 0,-0.143933 -0.03364,-0.186552 -0.186035,-0.186552 z m 6.078699,0.01292 c -0.05927,0 -0.186036,-1.73e-4 -0.186036,0.139526 0,0.1397 0.126769,0.139527 0.186036,0.139527 h 1.320849 v 2.417423 c 0,0.143933 0.03415,0.186552 0.186552,0.186552 h 0.02532 c 0.143933,0 0.186035,-0.03415 0.186035,-0.186552 v -2.417423 h 1.316715 c 0.05927,0 0.186552,1.73e-4 0.186552,-0.139527 0,-0.139699 -0.127285,-0.139526 -0.186552,-0.139526 z m -9.326046,0.266651 h 0.922941 c 0.685799,0 0.990637,0.241081 0.990637,0.516247 0,0.2921 -0.342938,0.516764 -0.990637,0.516764 h -0.922941 z"
           style="font-size:4.23333px;font-family:'Latin Modern Sans Quotation';-inkscape-font-specification:'Latin Modern Sans Quotation';fill:none;stroke:#000000;stroke-width:0.176389;stroke-dasharray:none"
           id="path1215" /></g><path
         style="fill:#000000;stroke:#000000;stroke-width:0.705556;stroke-dasharray:none"
         d="m 138.11461,99.692127 h 5.36826"
         id="path1388" /><path
         style="fill:#000000;stroke:#ff6600;stroke-width:0.705556;stroke-dasharray:none"
         d="m 64.100448,99.692127 h 5.36825"
         id="path1390" /></g></g></svg>
