<?xml version="1.0" encoding="UTF-8" standalone="no"?>
<!-- Created with Inkscape (http://www.inkscape.org/) -->

<svg
   width="230pt"
   height="50pt"
   viewBox="0 0 81.138889 17.638888"
   version="1.1"
   id="svg5"
   xml:space="preserve"
   inkscape:version="1.2.2 (b0a8486541, 2022-12-01)"
   sodipodi:docname="logo.svg"
   inkscape:export-filename="logo.png"
   inkscape:export-xdpi="187.8261"
   inkscape:export-ydpi="187.8261"
   xmlns:inkscape="http://www.inkscape.org/namespaces/inkscape"
   xmlns:sodipodi="http://sodipodi.sourceforge.net/DTD/sodipodi-0.dtd"
   xmlns="http://www.w3.org/2000/svg"
   xmlns:svg="http://www.w3.org/2000/svg"><sodipodi:namedview
     id="namedview7"
     pagecolor="#ffffff"
     bordercolor="#000000"
     borderopacity="0.25"
     inkscape:showpageshadow="2"
     inkscape:pageopacity="0.0"
     inkscape:pagecheckerboard="0"
     inkscape:deskcolor="#d1d1d1"
     inkscape:document-units="pt"
     showgrid="false"
     showguides="true"
     inkscape:zoom="10.392391"
     inkscape:cx="153.33333"
     inkscape:cy="33.341701"
     inkscape:window-width="3836"
     inkscape:window-height="2095"
     inkscape:window-x="0"
     inkscape:window-y="0"
     inkscape:window-maximized="1"
     inkscape:current-layer="g1888"
     inkscape:lockguides="true" /><defs
     id="defs2" /><g
     inkscape:label="Layer 1"
     inkscape:groupmode="layer"
     id="layer1"
     transform="translate(-61.87186,-82.54629)"><g
       id="g1920"
       transform="translate(1.0583333,1.0583333)"><g
         id="g1878"
         transform="translate(-0.50127054)"><path
           style="fill:none;stroke:#ff6600;stroke-width:1.41111113;stroke-dasharray:none"
           id="path778"
           sodipodi:type="arc"
           sodipodi:cx="100.26396"
           sodipodi:cy="85.439995"
           sodipodi:rx="2.3645399"
           sodipodi:ry="2.3645399"
           sodipodi:start="1.5285875"
           sodipodi:end="4.7276215"
           sodipodi:open="true"
           sodipodi:arc-type="arc"
           d="m 100.36374,87.802429 a 2.3645399,2.3645399 0 0 1 -2.119723,-1.133258 2.3645399,2.3645399 0 0 1 -0.03242,-2.403421 2.3645399,2.3645399 0 0 1 2.088382,-1.190021" /><path
           style="fill:none;stroke:#ff6600;stroke-width:1.41111113;stroke-dasharray:none"
           d="m 100.26396,83.075455 6.75525,0.01908"
           id="path782"
           sodipodi:nodetypes="cc" /><path
           style="fill:none;stroke:#ff6600;stroke-width:1.41111113;stroke-dasharray:none"
           d="m 100.26396,87.804535 4.37859,0.01908"
           id="path784"
           sodipodi:nodetypes="cc" /><path
           style="fill:none;stroke:#ff6600;stroke-width:1.41111113;stroke-dasharray:none"
           id="path786"
           sodipodi:type="arc"
           sodipodi:cx="-104.64255"
           sodipodi:cy="-90.188156"
           sodipodi:rx="2.3645399"
           sodipodi:ry="2.3645399"
           sodipodi:start="1.5285875"
           sodipodi:end="4.7141818"
           sodipodi:open="true"
           sodipodi:arc-type="arc"
           d="m -104.54277,-87.825722 a 2.3645399,2.3645399 0 0 1 -2.1142,-1.124221 2.3645399,2.3645399 0 0 1 -0.0484,-2.394022 2.3645399,2.3645399 0 0 1 2.06704,-1.208727"
           transform="scale(-1)" /><path
           style="fill:none;stroke:#ff6600;stroke-width:1.41111113;stroke-dasharray:none"
           d="m 97.891538,92.533616 6.751012,0.01908"
           id="path788" /></g><g
         id="g1871"
         transform="translate(-1.2907712)"><path
           style="fill:none;stroke:#000000;stroke-width:1.05833;stroke-dasharray:none"
           id="path790"
           sodipodi:type="arc"
           sodipodi:cx="89.220291"
           sodipodi:cy="85.439995"
           sodipodi:rx="2.3645399"
           sodipodi:ry="2.3645399"
           sodipodi:start="1.5285875"
           sodipodi:end="4.7335048"
           sodipodi:open="true"
           sodipodi:arc-type="arc"
           d="m 89.320066,87.802429 a 2.3645399,2.3645399 0 0 1 -2.122126,-1.137222 2.3645399,2.3645399 0 0 1 -0.02539,-2.407498 2.3645399,2.3645399 0 0 1 2.097668,-1.181727" /><path
           style="fill:none;stroke:#000000;stroke-width:1.05833;stroke-dasharray:none"
           d="m 89.220291,83.075455 6.755247,0.01909"
           id="path792"
           sodipodi:nodetypes="cc" /><path
           style="fill:none;stroke:#000000;stroke-width:1.05833;stroke-dasharray:none"
           d="m 89.220291,87.804535 4.378587,0.01909"
           id="path794"
           sodipodi:nodetypes="cc" /><path
           style="fill:none;stroke:#000000;stroke-width:1.05833;stroke-dasharray:none"
           id="path796"
           sodipodi:type="arc"
           sodipodi:cx="-93.598877"
           sodipodi:cy="-90.188156"
           sodipodi:rx="2.3645399"
           sodipodi:ry="2.3645399"
           sodipodi:start="1.5285875"
           sodipodi:end="4.7141818"
           sodipodi:open="true"
           sodipodi:arc-type="arc"
           d="m -93.499102,-87.825722 a 2.3645399,2.3645399 0 0 1 -2.114192,-1.124221 2.3645399,2.3645399 0 0 1 -0.04839,-2.394022 2.3645399,2.3645399 0 0 1 2.067041,-1.208727"
           transform="scale(-1)" /><path
           style="fill:none;stroke:#000000;stroke-width:1.05833;stroke-dasharray:none"
           d="m 86.847866,92.533618 6.746772,0.01907"
           id="path798"
           sodipodi:nodetypes="cc" /></g><g
         id="g1857"
         transform="translate(-2.6458334)"><path
           style="fill:none;stroke:#ff6600;stroke-width:1.41111113;stroke-dasharray:none;stroke-opacity:1"
           id="path800"
           sodipodi:type="arc"
           sodipodi:cx="-71.274399"
           sodipodi:cy="-85.477646"
           sodipodi:rx="2.3645399"
           sodipodi:ry="2.3645399"
           sodipodi:start="1.5285875"
           sodipodi:end="4.7141818"
           sodipodi:open="true"
           sodipodi:arc-type="arc"
           d="m -71.174624,-83.115212 a 2.3645399,2.3645399 0 0 1 -2.114192,-1.124221 2.3645399,2.3645399 0 0 1 -0.04838,-2.394022 2.3645399,2.3645399 0 0 1 2.067041,-1.208727"
           transform="scale(-1)" /><path
           style="fill:none;stroke:#ff6600;stroke-width:1.41111113;stroke-dasharray:none;stroke-opacity:1"
           d="M 71.274399,83.113106 64.519148,83.09455"
           id="path802"
           sodipodi:nodetypes="cc" /><path
           style="fill:none;stroke:#ff6600;stroke-width:1.41111113;stroke-dasharray:none;stroke-opacity:1"
           d="M 71.274397,87.842184 64.519148,87.82361"
           id="path804" /><path
           style="fill:none;stroke:#ff6600;stroke-width:1.41111113;stroke-dasharray:none;stroke-opacity:1"
           id="path806"
           sodipodi:type="arc"
           sodipodi:cx="-71.270157"
           sodipodi:cy="-90.206718"
           sodipodi:rx="2.3645399"
           sodipodi:ry="2.3645399"
           sodipodi:start="1.5285875"
           sodipodi:end="3.1318139"
           sodipodi:open="true"
           sodipodi:arc-type="arc"
           d="m -71.170382,-87.844285 a 2.3645399,2.3645399 0 0 1 -1.727736,-0.64756 2.3645399,2.3645399 0 0 1 -0.736466,-1.691752"
           transform="scale(-1)" /><path
           style="fill:none;stroke:#ff6600;stroke-width:1.41111113;stroke-dasharray:none;stroke-opacity:1"
           d="m 73.634583,90.183596 0.0044,2.875435"
           id="path808"
           sodipodi:nodetypes="cc" /></g><g
         id="g1864"
         transform="translate(-2.0428279)"><path
           style="fill:none;stroke:#000000;stroke-width:1.05833;stroke-dasharray:none"
           id="path850"
           sodipodi:type="arc"
           sodipodi:cx="78.126709"
           sodipodi:cy="90.188171"
           sodipodi:rx="2.3645399"
           sodipodi:ry="2.3645399"
           sodipodi:start="1.5285875"
           sodipodi:end="3.1445391"
           sodipodi:open="true"
           sodipodi:arc-type="arc"
           d="M 78.226484,92.550605 A 2.3645399,2.3645399 0 0 1 76.48787,91.892652 2.3645399,2.3645399 0 0 1 75.762179,90.181204" /><path
           style="fill:none;stroke:#000000;stroke-width:1.05833;stroke-dasharray:none"
           id="path852"
           sodipodi:type="arc"
           sodipodi:cx="-82.517418"
           sodipodi:cy="90.188171"
           sodipodi:rx="2.3645399"
           sodipodi:ry="2.3645399"
           sodipodi:start="1.5285875"
           sodipodi:end="3.1445391"
           sodipodi:open="true"
           sodipodi:arc-type="arc"
           d="m -82.417643,92.550605 a 2.3645399,2.3645399 0 0 1 -1.738614,-0.657953 2.3645399,2.3645399 0 0 1 -0.725691,-1.711448"
           transform="scale(-1,1)" /><path
           style="fill:none;stroke:#000000;stroke-width:1.05833;stroke-dasharray:none"
           d="m 78.126709,92.552711 h 4.390709"
           id="path854"
           sodipodi:nodetypes="cc" /><path
           style="fill:none;stroke:#000000;stroke-width:1.05833;stroke-dasharray:none"
           d="m 84.881957,90.18817 3e-6,-7.632249"
           id="path856"
           sodipodi:nodetypes="cc" /><path
           style="fill:none;stroke:#000000;stroke-width:1.05833;stroke-dasharray:none"
           d="m 75.762177,90.181204 -10e-6,-7.625283"
           id="path858"
           sodipodi:nodetypes="cc" /></g><g
         id="g1883"
         transform="translate(-0.33133014)"><path
           style="fill:none;stroke:#000000;stroke-width:1.05833;stroke-dasharray:none"
           d="m 109.03383,83.094541 h 9.1198"
           id="path904" /><path
           style="fill:none;stroke:#000000;stroke-width:1.05833;stroke-dasharray:none"
           d="m 109.03383,87.823618 h 9.1198"
           id="path906" /><path
           style="fill:none;stroke:#000000;stroke-width:1.05833;stroke-dasharray:none"
           d="m 109.03383,92.552709 h 9.1198"
           id="path908" /></g><path
         style="fill:none;stroke:#000000;stroke-width:1.05833;stroke-dasharray:none"
         d="m 120.01932,82.555921 v 9.996788 h 9.1198"
         id="path910"
         sodipodi:nodetypes="ccc" /><path
         style="fill:none;stroke:#ff6600;stroke-width:1.41111113;stroke-dasharray:none;stroke-opacity:1"
         d="m 131.33615,82.555921 v 9.996788 h 9.11979"
         id="path912"
         sodipodi:nodetypes="ccc" /></g><g
       id="g1888"
       transform="translate(-0.26531091,1.0583333)"><path
         id="text968"
         style="font-size:4.23333px;fill:none;stroke:#ff6600;stroke-width:0.176389;stroke-opacity:1"
         d="m 78.536396,95.011255 c -0.728132,0 -1.189591,0.406173 -1.189591,0.825273 0,0.241299 0.127128,0.402146 0.237195,0.507979 0.232833,0.211666 0.482576,0.258366 0.927075,0.347265 0.347132,0.06773 0.456766,0.08909 0.613399,0.190686 0.127,0.08467 0.220142,0.211403 0.220142,0.363803 0,0.266699 -0.325542,0.5333 -0.833541,0.5333 -0.262466,0 -0.639433,-0.05483 -1.050065,-0.317293 -0.04657,-0.02963 -0.055,-0.02946 -0.0677,-0.02946 -0.04657,0 -0.0549,0.02924 -0.07183,0.126608 -0.0042,0.02963 -0.02997,0.156699 -0.02997,0.173633 0,0.03387 0.02151,0.05106 0.02997,0.05529 0.0085,0.0042 0.508026,0.296106 1.189592,0.296106 0.711198,0 1.18494,-0.427501 1.18494,-0.8847 0,-0.300566 -0.169064,-0.465588 -0.253731,-0.554488 -0.224366,-0.220133 -0.545952,-0.283547 -0.799951,-0.334347 -0.516466,-0.1016 -0.609828,-0.118542 -0.762227,-0.220141 -0.105834,-0.07197 -0.181901,-0.173658 -0.181901,-0.304891 0,-0.237067 0.321825,-0.478524 0.834057,-0.478524 0.3175,0 0.5414,0.0721 0.791166,0.237195 0.04657,0.03387 0.05541,0.03359 0.07235,0.03359 0.04657,0 0.0549,-0.02924 0.07183,-0.126607 0.0042,-0.02963 0.02945,-0.156699 0.02945,-0.173633 0,-0.04233 -0.0038,-0.04687 -0.126607,-0.09767 -0.321733,-0.1397 -0.592758,-0.168982 -0.834058,-0.168982 z m 3.509347,0.04651 c -0.431799,0 -0.85494,0.143632 -1.176673,0.431498 -0.300566,0.270933 -0.487308,0.651934 -0.487308,1.058333 0,0.406399 0.186742,0.787401 0.487308,1.058334 0.321733,0.287866 0.744874,0.432015 1.176673,0.432015 0.173566,0 0.355699,-0.0043 0.525032,-0.04237 0.173567,-0.04233 0.334194,-0.114387 0.495061,-0.19482 0.02117,-0.0085 0.03411,-0.02938 0.03411,-0.05478 l -0.01705,-0.190686 c -0.0042,-0.02963 -0.02979,-0.05478 -0.05943,-0.05478 -0.0127,0 -0.02099,0.004 -0.02946,0.0083 -0.143933,0.08043 -0.292336,0.160755 -0.453202,0.203088 -0.160866,0.04233 -0.329961,0.04651 -0.49506,0.04651 -0.334433,0 -0.65632,-0.122701 -0.89762,-0.355534 -0.232833,-0.224366 -0.372587,-0.529279 -0.372587,-0.855245 0,-0.325966 0.139754,-0.630362 0.372587,-0.854728 0.2413,-0.232833 0.563187,-0.356051 0.89762,-0.356051 0.148166,0 0.300385,0.01306 0.448551,0.05116 0.143933,0.03387 0.283729,0.09743 0.414962,0.173633 0.0085,0.0042 0.01676,0.0041 0.02946,0.0041 0.02963,0 0.05106,-0.02111 0.05529,-0.04651 l 0.04651,-0.250114 c 0,-0.0381 -0.01698,-0.05923 -0.04238,-0.0677 -0.152399,-0.04657 -0.308872,-0.08881 -0.469738,-0.114205 -0.160867,-0.02117 -0.321792,-0.02945 -0.482658,-0.02945 z m 21.107237,0 c -0.4318,0 -0.85494,0.143632 -1.17667,0.431498 -0.30057,0.270933 -0.48679,0.651934 -0.48679,1.058333 0,0.406399 0.18622,0.787401 0.48679,1.058334 0.32173,0.287866 0.74487,0.432015 1.17667,0.432015 0.17357,0 0.3557,-0.0043 0.52504,-0.04237 0.17356,-0.04233 0.33419,-0.114387 0.49506,-0.19482 0.0212,-0.0085 0.0341,-0.02938 0.0341,-0.05478 l -0.017,-0.190686 c -0.004,-0.02963 -0.0293,-0.05478 -0.0589,-0.05478 -0.0127,0 -0.0215,0.004 -0.03,0.0083 -0.14394,0.08043 -0.29182,0.160755 -0.45269,0.203088 -0.16087,0.04233 -0.33048,0.04651 -0.49558,0.04651 -0.33443,0 -0.65632,-0.122701 -0.89762,-0.355534 -0.23283,-0.224366 -0.37207,-0.529279 -0.37207,-0.855245 0,-0.325966 0.13924,-0.630362 0.37207,-0.854728 0.2413,-0.232833 0.56319,-0.356051 0.89762,-0.356051 0.14817,0 0.3009,0.01306 0.44907,0.05116 0.14393,0.03387 0.28321,0.09743 0.41445,0.173633 0.008,0.0042 0.0173,0.0041 0.03,0.0041 0.0296,0 0.0505,-0.02111 0.0548,-0.04651 l 0.0465,-0.250114 c 0,-0.0381 -0.017,-0.05923 -0.0424,-0.0677 -0.1524,-0.04657 -0.30887,-0.08881 -0.46974,-0.114205 -0.16087,-0.02117 -0.32179,-0.02945 -0.48266,-0.02945 z m 16.06569,0 c -0.0974,0 -0.20347,-5.4e-5 -0.27544,0.156579 l -1.20199,2.607593 c -0.0127,0.0254 -0.0253,0.05098 -0.0253,0.08062 0,0.09313 0.0974,0.09302 0.13126,0.09302 0.0593,0 0.16936,-0.0041 0.24132,-0.160714 l 0.28784,-0.626835 h 1.60869 l 0.22014,0.47439 c 0.13123,0.287866 0.14345,0.313159 0.35088,0.313159 0.0804,0 0.1695,1.15e-4 0.1695,-0.09302 0,-0.02117 -0.0169,-0.06368 -0.0253,-0.08062 l -1.20251,-2.599325 c -0.0635,-0.131233 -0.10972,-0.164847 -0.27905,-0.164847 z m -35.183385,0.04237 c -0.143933,0 -0.186035,0.03364 -0.186035,0.186036 v 2.52336 c 0,0.143933 0.03364,0.186035 0.186035,0.186035 h 0.02532 c 0.143933,0 0.186552,-0.03364 0.186552,-0.186035 v -2.52336 c 0,-0.143934 -0.03415,-0.186036 -0.186552,-0.186036 z m 4.656564,0 c -0.143933,0 -0.186035,0.03364 -0.186035,0.186036 v 2.52336 c 0,0.08467 -2.52e-4,0.186035 0.164847,0.186035 0.1651,0 0.165365,-0.101369 0.165365,-0.186035 V 95.37092 l 1.494482,2.468066 c 0.09313,0.156633 0.21144,0.15658 0.296106,0.15658 h 0.15658 c 0.143933,0 0.186552,-0.03364 0.186552,-0.186035 v -2.52336 c 0,-0.08467 -2.65e-4,-0.186036 -0.165365,-0.186036 -0.165099,0 -0.164848,0.101369 -0.164848,0.186036 v 2.43861 l -1.494482,-2.468066 c -0.09313,-0.156633 -0.211956,-0.15658 -0.296623,-0.15658 z m 7.222298,0 c -0.143933,0 -0.186552,0.03364 -0.186552,0.186036 v 2.52336 c 0,0.143933 0.03415,0.186035 0.186552,0.186035 h 0.02532 c 0.143933,0 0.186036,-0.03364 0.186036,-0.186035 v -2.52336 c 0,-0.143934 -0.03364,-0.186036 -0.186036,-0.186036 z m 4.495853,0 c -0.14394,0 -0.18655,0.03364 -0.18655,0.186036 v 2.52336 c 0,0.143933 0.0341,0.186035 0.18655,0.186035 h 0.0253 c 0.14393,0 0.18603,-0.03364 0.18603,-0.186035 v -2.52336 c 0,-0.143934 -0.0336,-0.186036 -0.18603,-0.186036 z m 6.49779,0 c -0.14393,0 -0.18603,0.03364 -0.18603,0.186036 v 2.52336 c 0,0.143933 0.0336,0.186035 0.18603,0.186035 h 1.9265 c 0.0593,0 0.18603,1.73e-4 0.18603,-0.139527 0,-0.139699 -0.12676,-0.140043 -0.18603,-0.140043 h -1.71462 v -2.429825 c 0,-0.143934 -0.0336,-0.186036 -0.18604,-0.186036 z m 2.99724,0 c -0.14394,0 -0.18604,0.03364 -0.18604,0.186036 v 2.52336 c 0,0.143933 0.0336,0.186035 0.18604,0.186035 h 0.0258 c 0.14394,0 0.18604,-0.03364 0.18604,-0.186035 v -2.52336 c 0,-0.143934 -0.0336,-0.186036 -0.18604,-0.186036 z m 1.35909,0 c -0.14394,0 -0.18604,0.03364 -0.18604,0.186036 v 2.52336 c 0,0.143933 0.0336,0.186035 0.18604,0.186035 h 1.20664 c 0.6858,0 1.29501,-0.351318 1.29501,-0.795817 0,-0.3556 -0.44414,-0.63942 -1.00717,-0.719853 0.42756,-0.0889 0.85938,-0.308939 0.85938,-0.643371 0,-0.4191 -0.62253,-0.73639 -1.2914,-0.73639 z m 3.46283,0 c -0.14393,0 -0.18603,0.03364 -0.18603,0.186036 v 2.52336 c 0,0.169333 0.0631,0.186035 0.1943,0.186035 0.127,0 0.19482,-0.01247 0.19482,-0.186035 V 96.67885 h 0.96532 l 1.00355,1.236101 c 0.0635,0.08043 0.12266,0.08062 0.20309,0.08062 h 0.0336 c 0.0847,0 0.13539,-1.04e-4 0.13539,-0.105937 L 116.2509,96.6494 c 0.70697,-0.1524 0.96945,-0.478276 0.96945,-0.753443 0,-0.457199 -0.66007,-0.795817 -1.35857,-0.795817 z m 6.86625,0 c -0.14393,0 -0.18603,0.03364 -0.18603,0.186036 v 2.52336 c 0,0.169333 0.0636,0.186035 0.19482,0.186035 0.127,0 0.19482,-0.01247 0.19482,-0.186035 V 96.67885 h 0.96479 l 1.00356,1.236101 c 0.0635,0.08043 0.12266,0.08062 0.20309,0.08062 h 0.0341 c 0.0847,0 0.13539,-1.04e-4 0.13539,-0.105937 L 123.11765,96.6494 c 0.70696,-0.1524 0.96945,-0.478276 0.96945,-0.753443 0,-0.457199 -0.6606,-0.795817 -1.35909,-0.795817 z m 3.07371,0 c -0.10583,0 -0.17363,-3.34e-4 -0.17363,0.0801 0,0.02963 0.009,0.04251 0.0424,0.08061 l 1.35444,1.574581 v 0.974101 c 0,0.169333 0.0636,0.186035 0.19482,0.186035 0.127,0 0.19482,-0.01257 0.19482,-0.181901 v -0.973584 l 1.35444,-1.579232 c 0.0466,-0.04657 0.047,-0.05522 0.047,-0.08061 0,-0.08043 -0.0805,-0.0801 -0.13126,-0.0801 -0.0677,0 -0.19514,-7.4e-5 -0.31367,0.135393 l -1.10485,1.282609 -1.09192,-1.274341 c -0.12276,-0.143933 -0.25405,-0.143661 -0.37259,-0.143661 z m -39.281319,0.0083 c -0.143933,0 -0.186036,0.03415 -0.186036,0.186551 v 2.514576 c 0,0.143933 0.03364,0.186035 0.186036,0.186035 h 2.222603 c 0.0635,0 0.186552,2.72e-4 0.186552,-0.143661 0,-0.148166 -0.118819,-0.148311 -0.186552,-0.148311 h -2.01073 V 96.64113 h 1.790588 c 0.05927,0 0.186552,-3.44e-4 0.186552,-0.140044 0,-0.139699 -0.127285,-0.139526 -0.186552,-0.139526 h -1.790588 v -0.973584 h 1.9389 c 0.05927,0 0.186035,-3.43e-4 0.186035,-0.140043 0,-0.1397 -0.126769,-0.139526 -0.186035,-0.139526 z m 11.878861,0 c -0.143933,0 -0.186035,0.03415 -0.186035,0.186551 v 2.514576 c 0,0.143933 0.03364,0.186035 0.186035,0.186035 h 0.02532 c 0.143933,0 0.186551,-0.03364 0.186551,-0.186035 V 96.6918 H 99.1186 c 0.05927,0 0.186552,1.74e-4 0.186552,-0.139526 0,-0.1397 -0.127285,-0.140043 -0.186552,-0.140043 h -1.642277 v -1.024227 h 1.862419 c 0.05927,0 0.186555,-3.43e-4 0.186555,-0.140043 0,-0.1397 -0.127288,-0.139526 -0.186555,-0.139526 z m -5.427059,0.0041 c -0.05927,0 -0.186035,3.43e-4 -0.186035,0.140043 0,0.1397 0.126769,0.139526 0.186035,0.139526 h 1.32085 v 2.417424 c 0,0.143933 0.03364,0.186035 0.186035,0.186035 h 0.02532 c 0.143933,0 0.186552,-0.03364 0.186552,-0.186035 V 95.39211 h 1.316716 c 0.05927,0 0.186035,1.74e-4 0.186035,-0.139526 0,-0.1397 -0.126769,-0.140043 -0.186035,-0.140043 z m 19.625677,0.26665 h 0.72399 c 0.45296,0 1.06246,0.156671 1.06246,0.461471 0,0.296332 -0.52042,0.516764 -1.09192,0.516764 h -0.69453 z m 3.46697,0 h 0.92294 c 0.6858,0 0.99064,0.241598 0.99064,0.516764 0,0.2921 -0.34294,0.516248 -0.99064,0.516248 h -0.92294 z m 6.86677,0 h 0.92294 c 0.6858,0 0.99012,0.241598 0.99012,0.516764 0,0.2921 -0.34242,0.516248 -0.99012,0.516248 h -0.92294 z m -2.61638,0.0677 0.67334,1.48208 h -1.35082 z m -7.71736,1.177189 h 0.80874 c 0.52493,0 1.11724,0.228642 1.11724,0.571542 0,0.334432 -0.5841,0.520381 -1.06247,0.520381 h -0.86351 z" /><path
         style="fill:none;stroke:#ff6600;stroke-width:0.176389;stroke-opacity:1"
         d="M 64.519148,96.511098 H 76.62044"
         id="path1020" /><path
         style="fill:none;stroke:#ff6600;stroke-width:0.176389;stroke-opacity:1"
         d="m 140.45594,96.511098 h -12.481"
         id="path1022" /></g></g></svg>
