<?xml version="1.0" encoding="utf-8" standalone="no"?>
<!DOCTYPE svg PUBLIC "-//W3C//DTD SVG 1.1//EN"
  "http://www.w3.org/Graphics/SVG/1.1/DTD/svg11.dtd">
<svg xmlns:xlink="http://www.w3.org/1999/xlink" width="422.843437pt" height="333.868615pt" viewBox="0 0 422.843437 333.868615" xmlns="http://www.w3.org/2000/svg" version="1.1">
 <metadata>
  <rdf:RDF xmlns:dc="http://purl.org/dc/elements/1.1/" xmlns:cc="http://creativecommons.org/ns#" xmlns:rdf="http://www.w3.org/1999/02/22-rdf-syntax-ns#">
   <cc:Work>
    <dc:type rdf:resource="http://purl.org/dc/dcmitype/StillImage"/>
    <dc:date>2024-06-26T09:58:48.835784</dc:date>
    <dc:format>image/svg+xml</dc:format>
    <dc:creator>
     <cc:Agent>
      <dc:title>Matplotlib v3.6.3, https://matplotlib.org/</dc:title>
     </cc:Agent>
    </dc:creator>
   </cc:Work>
  </rdf:RDF>
 </metadata>
 <defs>
  <style type="text/css">*{stroke-linejoin: round; stroke-linecap: butt}</style>
 </defs>
 <g id="figure_1">
  <g id="patch_1">
   <path d="M 0 333.868615 
L 422.843437 333.868615 
L 422.843437 0 
L 0 0 
z
" style="fill: #ffffff"/>
  </g>
  <g id="axes_1">
   <g id="patch_2">
    <path d="M 58.523438 296.312365 
L 415.643438 296.312365 
L 415.643438 30.200365 
L 58.523438 30.200365 
z
" style="fill: #ffffff"/>
   </g>
   <g id="matplotlib.axis_1">
    <g id="xtick_1">
     <g id="line2d_1">
      <path d="M 74.756165 296.312365 
L 74.756165 30.200365 
" clip-path="url(#pfdee63ad7d)" style="fill: none; stroke-dasharray: 2.96,1.28; stroke-dashoffset: 0; stroke: #808080; stroke-width: 0.8"/>
     </g>
     <g id="line2d_2">
      <defs>
       <path id="mf6e913c588" d="M 0 0 
L 0 3.5 
" style="stroke: #000000; stroke-width: 0.8"/>
      </defs>
      <g>
       <use xlink:href="#mf6e913c588" x="74.756165" y="296.312365" style="stroke: #000000; stroke-width: 0.8"/>
      </g>
     </g>
     <g id="text_1">
      <!-- −1.00 -->
      <g transform="translate(59.433509 310.910802) scale(0.1 -0.1)">
       <defs>
        <path id="DejaVuSans-2212" d="M 678 2272 
L 4684 2272 
L 4684 1741 
L 678 1741 
L 678 2272 
z
" transform="scale(0.015625)"/>
        <path id="DejaVuSans-31" d="M 794 531 
L 1825 531 
L 1825 4091 
L 703 3866 
L 703 4441 
L 1819 4666 
L 2450 4666 
L 2450 531 
L 3481 531 
L 3481 0 
L 794 0 
L 794 531 
z
" transform="scale(0.015625)"/>
        <path id="DejaVuSans-2e" d="M 684 794 
L 1344 794 
L 1344 0 
L 684 0 
L 684 794 
z
" transform="scale(0.015625)"/>
        <path id="DejaVuSans-30" d="M 2034 4250 
Q 1547 4250 1301 3770 
Q 1056 3291 1056 2328 
Q 1056 1369 1301 889 
Q 1547 409 2034 409 
Q 2525 409 2770 889 
Q 3016 1369 3016 2328 
Q 3016 3291 2770 3770 
Q 2525 4250 2034 4250 
z
M 2034 4750 
Q 2819 4750 3233 4129 
Q 3647 3509 3647 2328 
Q 3647 1150 3233 529 
Q 2819 -91 2034 -91 
Q 1250 -91 836 529 
Q 422 1150 422 2328 
Q 422 3509 836 4129 
Q 1250 4750 2034 4750 
z
" transform="scale(0.015625)"/>
       </defs>
       <use xlink:href="#DejaVuSans-2212"/>
       <use xlink:href="#DejaVuSans-31" x="83.789062"/>
       <use xlink:href="#DejaVuSans-2e" x="147.412109"/>
       <use xlink:href="#DejaVuSans-30" x="179.199219"/>
       <use xlink:href="#DejaVuSans-30" x="242.822266"/>
      </g>
     </g>
    </g>
    <g id="xtick_2">
     <g id="line2d_3">
      <path d="M 115.337983 296.312365 
L 115.337983 30.200365 
" clip-path="url(#pfdee63ad7d)" style="fill: none; stroke-dasharray: 2.96,1.28; stroke-dashoffset: 0; stroke: #808080; stroke-width: 0.8"/>
     </g>
     <g id="line2d_4">
      <g>
       <use xlink:href="#mf6e913c588" x="115.337983" y="296.312365" style="stroke: #000000; stroke-width: 0.8"/>
      </g>
     </g>
     <g id="text_2">
      <!-- −0.75 -->
      <g transform="translate(100.015327 310.910802) scale(0.1 -0.1)">
       <defs>
        <path id="DejaVuSans-37" d="M 525 4666 
L 3525 4666 
L 3525 4397 
L 1831 0 
L 1172 0 
L 2766 4134 
L 525 4134 
L 525 4666 
z
" transform="scale(0.015625)"/>
        <path id="DejaVuSans-35" d="M 691 4666 
L 3169 4666 
L 3169 4134 
L 1269 4134 
L 1269 2991 
Q 1406 3038 1543 3061 
Q 1681 3084 1819 3084 
Q 2600 3084 3056 2656 
Q 3513 2228 3513 1497 
Q 3513 744 3044 326 
Q 2575 -91 1722 -91 
Q 1428 -91 1123 -41 
Q 819 9 494 109 
L 494 744 
Q 775 591 1075 516 
Q 1375 441 1709 441 
Q 2250 441 2565 725 
Q 2881 1009 2881 1497 
Q 2881 1984 2565 2268 
Q 2250 2553 1709 2553 
Q 1456 2553 1204 2497 
Q 953 2441 691 2322 
L 691 4666 
z
" transform="scale(0.015625)"/>
       </defs>
       <use xlink:href="#DejaVuSans-2212"/>
       <use xlink:href="#DejaVuSans-30" x="83.789062"/>
       <use xlink:href="#DejaVuSans-2e" x="147.412109"/>
       <use xlink:href="#DejaVuSans-37" x="179.199219"/>
       <use xlink:href="#DejaVuSans-35" x="242.822266"/>
      </g>
     </g>
    </g>
    <g id="xtick_3">
     <g id="line2d_5">
      <path d="M 155.919801 296.312365 
L 155.919801 30.200365 
" clip-path="url(#pfdee63ad7d)" style="fill: none; stroke-dasharray: 2.96,1.28; stroke-dashoffset: 0; stroke: #808080; stroke-width: 0.8"/>
     </g>
     <g id="line2d_6">
      <g>
       <use xlink:href="#mf6e913c588" x="155.919801" y="296.312365" style="stroke: #000000; stroke-width: 0.8"/>
      </g>
     </g>
     <g id="text_3">
      <!-- −0.50 -->
      <g transform="translate(140.597145 310.910802) scale(0.1 -0.1)">
       <use xlink:href="#DejaVuSans-2212"/>
       <use xlink:href="#DejaVuSans-30" x="83.789062"/>
       <use xlink:href="#DejaVuSans-2e" x="147.412109"/>
       <use xlink:href="#DejaVuSans-35" x="179.199219"/>
       <use xlink:href="#DejaVuSans-30" x="242.822266"/>
      </g>
     </g>
    </g>
    <g id="xtick_4">
     <g id="line2d_7">
      <path d="M 196.501619 296.312365 
L 196.501619 30.200365 
" clip-path="url(#pfdee63ad7d)" style="fill: none; stroke-dasharray: 2.96,1.28; stroke-dashoffset: 0; stroke: #808080; stroke-width: 0.8"/>
     </g>
     <g id="line2d_8">
      <g>
       <use xlink:href="#mf6e913c588" x="196.501619" y="296.312365" style="stroke: #000000; stroke-width: 0.8"/>
      </g>
     </g>
     <g id="text_4">
      <!-- −0.25 -->
      <g transform="translate(181.178963 310.910802) scale(0.1 -0.1)">
       <defs>
        <path id="DejaVuSans-32" d="M 1228 531 
L 3431 531 
L 3431 0 
L 469 0 
L 469 531 
Q 828 903 1448 1529 
Q 2069 2156 2228 2338 
Q 2531 2678 2651 2914 
Q 2772 3150 2772 3378 
Q 2772 3750 2511 3984 
Q 2250 4219 1831 4219 
Q 1534 4219 1204 4116 
Q 875 4013 500 3803 
L 500 4441 
Q 881 4594 1212 4672 
Q 1544 4750 1819 4750 
Q 2544 4750 2975 4387 
Q 3406 4025 3406 3419 
Q 3406 3131 3298 2873 
Q 3191 2616 2906 2266 
Q 2828 2175 2409 1742 
Q 1991 1309 1228 531 
z
" transform="scale(0.015625)"/>
       </defs>
       <use xlink:href="#DejaVuSans-2212"/>
       <use xlink:href="#DejaVuSans-30" x="83.789062"/>
       <use xlink:href="#DejaVuSans-2e" x="147.412109"/>
       <use xlink:href="#DejaVuSans-32" x="179.199219"/>
       <use xlink:href="#DejaVuSans-35" x="242.822266"/>
      </g>
     </g>
    </g>
    <g id="xtick_5">
     <g id="line2d_9">
      <path d="M 237.083438 296.312365 
L 237.083438 30.200365 
" clip-path="url(#pfdee63ad7d)" style="fill: none; stroke-dasharray: 2.96,1.28; stroke-dashoffset: 0; stroke: #808080; stroke-width: 0.8"/>
     </g>
     <g id="line2d_10">
      <g>
       <use xlink:href="#mf6e913c588" x="237.083438" y="296.312365" style="stroke: #000000; stroke-width: 0.8"/>
      </g>
     </g>
     <g id="text_5">
      <!-- 0.00 -->
      <g transform="translate(225.950625 310.910802) scale(0.1 -0.1)">
       <use xlink:href="#DejaVuSans-30"/>
       <use xlink:href="#DejaVuSans-2e" x="63.623047"/>
       <use xlink:href="#DejaVuSans-30" x="95.410156"/>
       <use xlink:href="#DejaVuSans-30" x="159.033203"/>
      </g>
     </g>
    </g>
    <g id="xtick_6">
     <g id="line2d_11">
      <path d="M 277.665256 296.312365 
L 277.665256 30.200365 
" clip-path="url(#pfdee63ad7d)" style="fill: none; stroke-dasharray: 2.96,1.28; stroke-dashoffset: 0; stroke: #808080; stroke-width: 0.8"/>
     </g>
     <g id="line2d_12">
      <g>
       <use xlink:href="#mf6e913c588" x="277.665256" y="296.312365" style="stroke: #000000; stroke-width: 0.8"/>
      </g>
     </g>
     <g id="text_6">
      <!-- 0.25 -->
      <g transform="translate(266.532443 310.910802) scale(0.1 -0.1)">
       <use xlink:href="#DejaVuSans-30"/>
       <use xlink:href="#DejaVuSans-2e" x="63.623047"/>
       <use xlink:href="#DejaVuSans-32" x="95.410156"/>
       <use xlink:href="#DejaVuSans-35" x="159.033203"/>
      </g>
     </g>
    </g>
    <g id="xtick_7">
     <g id="line2d_13">
      <path d="M 318.247074 296.312365 
L 318.247074 30.200365 
" clip-path="url(#pfdee63ad7d)" style="fill: none; stroke-dasharray: 2.96,1.28; stroke-dashoffset: 0; stroke: #808080; stroke-width: 0.8"/>
     </g>
     <g id="line2d_14">
      <g>
       <use xlink:href="#mf6e913c588" x="318.247074" y="296.312365" style="stroke: #000000; stroke-width: 0.8"/>
      </g>
     </g>
     <g id="text_7">
      <!-- 0.50 -->
      <g transform="translate(307.114261 310.910802) scale(0.1 -0.1)">
       <use xlink:href="#DejaVuSans-30"/>
       <use xlink:href="#DejaVuSans-2e" x="63.623047"/>
       <use xlink:href="#DejaVuSans-35" x="95.410156"/>
       <use xlink:href="#DejaVuSans-30" x="159.033203"/>
      </g>
     </g>
    </g>
    <g id="xtick_8">
     <g id="line2d_15">
      <path d="M 358.828892 296.312365 
L 358.828892 30.200365 
" clip-path="url(#pfdee63ad7d)" style="fill: none; stroke-dasharray: 2.96,1.28; stroke-dashoffset: 0; stroke: #808080; stroke-width: 0.8"/>
     </g>
     <g id="line2d_16">
      <g>
       <use xlink:href="#mf6e913c588" x="358.828892" y="296.312365" style="stroke: #000000; stroke-width: 0.8"/>
      </g>
     </g>
     <g id="text_8">
      <!-- 0.75 -->
      <g transform="translate(347.69608 310.910802) scale(0.1 -0.1)">
       <use xlink:href="#DejaVuSans-30"/>
       <use xlink:href="#DejaVuSans-2e" x="63.623047"/>
       <use xlink:href="#DejaVuSans-37" x="95.410156"/>
       <use xlink:href="#DejaVuSans-35" x="159.033203"/>
      </g>
     </g>
    </g>
    <g id="xtick_9">
     <g id="line2d_17">
      <path d="M 399.41071 296.312365 
L 399.41071 30.200365 
" clip-path="url(#pfdee63ad7d)" style="fill: none; stroke-dasharray: 2.96,1.28; stroke-dashoffset: 0; stroke: #808080; stroke-width: 0.8"/>
     </g>
     <g id="line2d_18">
      <g>
       <use xlink:href="#mf6e913c588" x="399.41071" y="296.312365" style="stroke: #000000; stroke-width: 0.8"/>
      </g>
     </g>
     <g id="text_9">
      <!-- 1.00 -->
      <g transform="translate(388.277898 310.910802) scale(0.1 -0.1)">
       <use xlink:href="#DejaVuSans-31"/>
       <use xlink:href="#DejaVuSans-2e" x="63.623047"/>
       <use xlink:href="#DejaVuSans-30" x="95.410156"/>
       <use xlink:href="#DejaVuSans-30" x="159.033203"/>
      </g>
     </g>
    </g>
    <g id="text_10">
     <!-- x -->
     <g transform="translate(234.124063 324.588927) scale(0.1 -0.1)">
      <defs>
       <path id="DejaVuSans-78" d="M 3513 3500 
L 2247 1797 
L 3578 0 
L 2900 0 
L 1881 1375 
L 863 0 
L 184 0 
L 1544 1831 
L 300 3500 
L 978 3500 
L 1906 2253 
L 2834 3500 
L 3513 3500 
z
" transform="scale(0.015625)"/>
      </defs>
      <use xlink:href="#DejaVuSans-78"/>
     </g>
    </g>
   </g>
   <g id="matplotlib.axis_2">
    <g id="ytick_1">
     <g id="line2d_19">
      <path d="M 58.523438 272.494395 
L 415.643438 272.494395 
" clip-path="url(#pfdee63ad7d)" style="fill: none; stroke-dasharray: 2.96,1.28; stroke-dashoffset: 0; stroke: #808080; stroke-width: 0.8"/>
     </g>
     <g id="line2d_20">
      <defs>
       <path id="mced353133f" d="M 0 0 
L -3.5 0 
" style="stroke: #000000; stroke-width: 0.8"/>
      </defs>
      <g>
       <use xlink:href="#mced353133f" x="58.523438" y="272.494395" style="stroke: #000000; stroke-width: 0.8"/>
      </g>
     </g>
     <g id="text_11">
      <!-- −1.00 -->
      <g transform="translate(20.878125 276.293614) scale(0.1 -0.1)">
       <use xlink:href="#DejaVuSans-2212"/>
       <use xlink:href="#DejaVuSans-31" x="83.789062"/>
       <use xlink:href="#DejaVuSans-2e" x="147.412109"/>
       <use xlink:href="#DejaVuSans-30" x="179.199219"/>
       <use xlink:href="#DejaVuSans-30" x="242.822266"/>
      </g>
     </g>
    </g>
    <g id="ytick_2">
     <g id="line2d_21">
      <path d="M 58.523438 242.681088 
L 415.643438 242.681088 
" clip-path="url(#pfdee63ad7d)" style="fill: none; stroke-dasharray: 2.96,1.28; stroke-dashoffset: 0; stroke: #808080; stroke-width: 0.8"/>
     </g>
     <g id="line2d_22">
      <g>
       <use xlink:href="#mced353133f" x="58.523438" y="242.681088" style="stroke: #000000; stroke-width: 0.8"/>
      </g>
     </g>
     <g id="text_12">
      <!-- −0.75 -->
      <g transform="translate(20.878125 246.480306) scale(0.1 -0.1)">
       <use xlink:href="#DejaVuSans-2212"/>
       <use xlink:href="#DejaVuSans-30" x="83.789062"/>
       <use xlink:href="#DejaVuSans-2e" x="147.412109"/>
       <use xlink:href="#DejaVuSans-37" x="179.199219"/>
       <use xlink:href="#DejaVuSans-35" x="242.822266"/>
      </g>
     </g>
    </g>
    <g id="ytick_3">
     <g id="line2d_23">
      <path d="M 58.523438 212.86778 
L 415.643438 212.86778 
" clip-path="url(#pfdee63ad7d)" style="fill: none; stroke-dasharray: 2.96,1.28; stroke-dashoffset: 0; stroke: #808080; stroke-width: 0.8"/>
     </g>
     <g id="line2d_24">
      <g>
       <use xlink:href="#mced353133f" x="58.523438" y="212.86778" style="stroke: #000000; stroke-width: 0.8"/>
      </g>
     </g>
     <g id="text_13">
      <!-- −0.50 -->
      <g transform="translate(20.878125 216.666999) scale(0.1 -0.1)">
       <use xlink:href="#DejaVuSans-2212"/>
       <use xlink:href="#DejaVuSans-30" x="83.789062"/>
       <use xlink:href="#DejaVuSans-2e" x="147.412109"/>
       <use xlink:href="#DejaVuSans-35" x="179.199219"/>
       <use xlink:href="#DejaVuSans-30" x="242.822266"/>
      </g>
     </g>
    </g>
    <g id="ytick_4">
     <g id="line2d_25">
      <path d="M 58.523438 183.054472 
L 415.643438 183.054472 
" clip-path="url(#pfdee63ad7d)" style="fill: none; stroke-dasharray: 2.96,1.28; stroke-dashoffset: 0; stroke: #808080; stroke-width: 0.8"/>
     </g>
     <g id="line2d_26">
      <g>
       <use xlink:href="#mced353133f" x="58.523438" y="183.054472" style="stroke: #000000; stroke-width: 0.8"/>
      </g>
     </g>
     <g id="text_14">
      <!-- −0.25 -->
      <g transform="translate(20.878125 186.853691) scale(0.1 -0.1)">
       <use xlink:href="#DejaVuSans-2212"/>
       <use xlink:href="#DejaVuSans-30" x="83.789062"/>
       <use xlink:href="#DejaVuSans-2e" x="147.412109"/>
       <use xlink:href="#DejaVuSans-32" x="179.199219"/>
       <use xlink:href="#DejaVuSans-35" x="242.822266"/>
      </g>
     </g>
    </g>
    <g id="ytick_5">
     <g id="line2d_27">
      <path d="M 58.523438 153.241164 
L 415.643438 153.241164 
" clip-path="url(#pfdee63ad7d)" style="fill: none; stroke-dasharray: 2.96,1.28; stroke-dashoffset: 0; stroke: #808080; stroke-width: 0.8"/>
     </g>
     <g id="line2d_28">
      <g>
       <use xlink:href="#mced353133f" x="58.523438" y="153.241164" style="stroke: #000000; stroke-width: 0.8"/>
      </g>
     </g>
     <g id="text_15">
      <!-- 0.00 -->
      <g transform="translate(29.257813 157.040383) scale(0.1 -0.1)">
       <use xlink:href="#DejaVuSans-30"/>
       <use xlink:href="#DejaVuSans-2e" x="63.623047"/>
       <use xlink:href="#DejaVuSans-30" x="95.410156"/>
       <use xlink:href="#DejaVuSans-30" x="159.033203"/>
      </g>
     </g>
    </g>
    <g id="ytick_6">
     <g id="line2d_29">
      <path d="M 58.523438 123.427856 
L 415.643438 123.427856 
" clip-path="url(#pfdee63ad7d)" style="fill: none; stroke-dasharray: 2.96,1.28; stroke-dashoffset: 0; stroke: #808080; stroke-width: 0.8"/>
     </g>
     <g id="line2d_30">
      <g>
       <use xlink:href="#mced353133f" x="58.523438" y="123.427856" style="stroke: #000000; stroke-width: 0.8"/>
      </g>
     </g>
     <g id="text_16">
      <!-- 0.25 -->
      <g transform="translate(29.257813 127.227075) scale(0.1 -0.1)">
       <use xlink:href="#DejaVuSans-30"/>
       <use xlink:href="#DejaVuSans-2e" x="63.623047"/>
       <use xlink:href="#DejaVuSans-32" x="95.410156"/>
       <use xlink:href="#DejaVuSans-35" x="159.033203"/>
      </g>
     </g>
    </g>
    <g id="ytick_7">
     <g id="line2d_31">
      <path d="M 58.523438 93.614549 
L 415.643438 93.614549 
" clip-path="url(#pfdee63ad7d)" style="fill: none; stroke-dasharray: 2.96,1.28; stroke-dashoffset: 0; stroke: #808080; stroke-width: 0.8"/>
     </g>
     <g id="line2d_32">
      <g>
       <use xlink:href="#mced353133f" x="58.523438" y="93.614549" style="stroke: #000000; stroke-width: 0.8"/>
      </g>
     </g>
     <g id="text_17">
      <!-- 0.50 -->
      <g transform="translate(29.257813 97.413767) scale(0.1 -0.1)">
       <use xlink:href="#DejaVuSans-30"/>
       <use xlink:href="#DejaVuSans-2e" x="63.623047"/>
       <use xlink:href="#DejaVuSans-35" x="95.410156"/>
       <use xlink:href="#DejaVuSans-30" x="159.033203"/>
      </g>
     </g>
    </g>
    <g id="ytick_8">
     <g id="line2d_33">
      <path d="M 58.523438 63.801241 
L 415.643438 63.801241 
" clip-path="url(#pfdee63ad7d)" style="fill: none; stroke-dasharray: 2.96,1.28; stroke-dashoffset: 0; stroke: #808080; stroke-width: 0.8"/>
     </g>
     <g id="line2d_34">
      <g>
       <use xlink:href="#mced353133f" x="58.523438" y="63.801241" style="stroke: #000000; stroke-width: 0.8"/>
      </g>
     </g>
     <g id="text_18">
      <!-- 0.75 -->
      <g transform="translate(29.257813 67.600459) scale(0.1 -0.1)">
       <use xlink:href="#DejaVuSans-30"/>
       <use xlink:href="#DejaVuSans-2e" x="63.623047"/>
       <use xlink:href="#DejaVuSans-37" x="95.410156"/>
       <use xlink:href="#DejaVuSans-35" x="159.033203"/>
      </g>
     </g>
    </g>
    <g id="ytick_9">
     <g id="line2d_35">
      <path d="M 58.523438 33.987933 
L 415.643438 33.987933 
" clip-path="url(#pfdee63ad7d)" style="fill: none; stroke-dasharray: 2.96,1.28; stroke-dashoffset: 0; stroke: #808080; stroke-width: 0.8"/>
     </g>
     <g id="line2d_36">
      <g>
       <use xlink:href="#mced353133f" x="58.523438" y="33.987933" style="stroke: #000000; stroke-width: 0.8"/>
      </g>
     </g>
     <g id="text_19">
      <!-- 1.00 -->
      <g transform="translate(29.257813 37.787152) scale(0.1 -0.1)">
       <use xlink:href="#DejaVuSans-31"/>
       <use xlink:href="#DejaVuSans-2e" x="63.623047"/>
       <use xlink:href="#DejaVuSans-30" x="95.410156"/>
       <use xlink:href="#DejaVuSans-30" x="159.033203"/>
      </g>
     </g>
    </g>
    <g id="text_20">
     <!-- f(x) -->
     <g transform="translate(14.798438 171.877459) rotate(-90) scale(0.1 -0.1)">
      <defs>
       <path id="DejaVuSans-66" d="M 2375 4863 
L 2375 4384 
L 1825 4384 
Q 1516 4384 1395 4259 
Q 1275 4134 1275 3809 
L 1275 3500 
L 2222 3500 
L 2222 3053 
L 1275 3053 
L 1275 0 
L 697 0 
L 697 3053 
L 147 3053 
L 147 3500 
L 697 3500 
L 697 3744 
Q 697 4328 969 4595 
Q 1241 4863 1831 4863 
L 2375 4863 
z
" transform="scale(0.015625)"/>
       <path id="DejaVuSans-28" d="M 1984 4856 
Q 1566 4138 1362 3434 
Q 1159 2731 1159 2009 
Q 1159 1288 1364 580 
Q 1569 -128 1984 -844 
L 1484 -844 
Q 1016 -109 783 600 
Q 550 1309 550 2009 
Q 550 2706 781 3412 
Q 1013 4119 1484 4856 
L 1984 4856 
z
" transform="scale(0.015625)"/>
       <path id="DejaVuSans-29" d="M 513 4856 
L 1013 4856 
Q 1481 4119 1714 3412 
Q 1947 2706 1947 2009 
Q 1947 1309 1714 600 
Q 1481 -109 1013 -844 
L 513 -844 
Q 928 -128 1133 580 
Q 1338 1288 1338 2009 
Q 1338 2731 1133 3434 
Q 928 4138 513 4856 
z
" transform="scale(0.015625)"/>
      </defs>
      <use xlink:href="#DejaVuSans-66"/>
      <use xlink:href="#DejaVuSans-28" x="35.205078"/>
      <use xlink:href="#DejaVuSans-78" x="74.21875"/>
      <use xlink:href="#DejaVuSans-29" x="133.398438"/>
     </g>
    </g>
   </g>
   <g id="line2d_37">
    <path d="M 74.756165 153.241164 
L 81.249256 152.056316 
L 84.495801 151.795432 
L 86.119074 151.814354 
L 87.742347 151.948898 
L 89.365619 152.205308 
L 90.988892 152.584716 
L 94.235438 153.69035 
L 97.481983 155.168775 
L 105.598347 159.213361 
L 107.221619 159.829876 
L 108.844892 160.304791 
L 110.468165 160.607814 
L 112.091438 160.712155 
L 113.71471 160.595602 
L 115.337983 160.241514 
L 116.961256 159.639689 
L 118.584528 158.787089 
L 120.207801 157.688385 
L 121.831074 156.356301 
L 123.454347 154.811749 
L 126.700892 151.208977 
L 134.817256 141.369779 
L 136.440528 139.717991 
L 138.063801 138.316651 
L 139.687074 137.225667 
L 141.310347 136.500529 
L 142.933619 136.190447 
L 144.556892 136.336538 
L 146.180165 136.970109 
L 147.803438 138.111101 
L 149.42671 139.766717 
L 151.049983 141.930314 
L 152.673256 144.580575 
L 154.296528 147.681024 
L 155.919801 151.179901 
L 159.166347 159.091585 
L 165.659438 175.875111 
L 167.28271 179.595326 
L 168.905983 182.872081 
L 170.529256 185.57894 
L 172.152528 187.595179 
L 173.775801 188.80957 
L 175.399074 189.124226 
L 177.022347 188.45842 
L 178.645619 186.752261 
L 180.268892 183.970135 
L 181.892165 180.10377 
L 183.515438 175.174828 
L 185.13871 169.236889 
L 186.761983 162.376714 
L 188.385256 154.71467 
L 191.631801 137.630374 
L 196.501619 110.788516 
L 198.124892 102.525848 
L 199.748165 95.065626 
L 201.371438 88.686876 
L 202.99471 83.658434 
L 204.617983 80.229371 
L 206.241256 78.619101 
L 207.864528 79.007474 
L 209.487801 81.52526 
L 211.111074 86.24541 
L 212.734347 93.175592 
L 214.357619 102.25242 
L 215.980892 113.337859 
L 217.604165 126.218217 
L 219.227438 140.606047 
L 222.473983 172.419256 
L 225.720528 205.276424 
L 227.343801 220.842984 
L 228.967074 235.147144 
L 230.590347 247.695004 
L 232.213619 258.034261 
L 233.836892 265.773445 
L 235.460165 270.599254 
L 237.083438 272.291042 
L 238.70671 270.731609 
L 240.329983 265.913663 
L 241.953256 257.941555 
L 243.576528 247.028158 
L 245.199801 233.487073 
L 246.823074 217.720579 
L 248.446347 200.203995 
L 251.692892 162.074979 
L 254.939438 123.628415 
L 256.56271 105.68905 
L 258.185983 89.286416 
L 259.809256 74.860134 
L 261.432528 62.777697 
L 263.055801 53.3254 
L 264.679074 46.702592 
L 266.302347 43.019204 
L 267.925619 42.296365 
L 269.548892 44.469847 
L 271.172165 49.39596 
L 272.795437 56.859516 
L 274.41871 66.58341 
L 276.041983 78.239413 
L 277.665256 91.459728 
L 280.911801 120.9959 
L 285.781619 166.877087 
L 287.404892 181.023541 
L 289.028165 194.0187 
L 290.651437 205.573457 
L 292.27471 215.445158 
L 293.897983 223.441575 
L 295.521256 229.423481 
L 297.144528 233.305855 
L 298.767801 235.057783 
L 300.391074 234.701107 
L 302.014347 232.307946 
L 303.637619 227.997172 
L 305.260892 221.929985 
L 306.884165 214.304717 
L 308.507437 205.351001 
L 310.13071 195.323469 
L 313.377256 173.150461 
L 318.247074 138.894263 
L 319.870347 128.324099 
L 321.493619 118.6003 
L 323.116892 109.941168 
L 324.740165 102.535275 
L 326.363438 96.53784 
L 327.98671 92.067907 
L 329.609983 89.206377 
L 331.233256 87.994898 
L 332.856528 88.435643 
L 334.479801 90.491935 
L 336.103074 94.089719 
L 337.726347 99.119815 
L 339.349619 105.440909 
L 340.972892 112.883191 
L 342.596165 121.252585 
L 345.84271 139.903587 
L 350.712528 169.133739 
L 352.335801 178.260586 
L 353.959074 186.703993 
L 355.582347 194.262043 
L 357.205619 200.754787 
L 358.828892 206.028266 
L 360.452165 209.957938 
L 362.075438 212.451447 
L 363.69871 213.450673 
L 365.321983 212.933018 
L 366.945256 210.911907 
L 368.568528 207.436481 
L 370.191801 202.5905 
L 371.815074 196.490469 
L 373.438347 189.283025 
L 375.061619 181.141644 
L 378.308165 162.861174 
L 384.801256 124.691265 
L 386.424528 116.189222 
L 388.047801 108.551321 
L 389.671074 101.974255 
L 391.294347 96.631187 
L 392.917619 92.667448 
L 394.540892 90.196807 
L 396.164165 89.298418 
L 397.787438 90.014511 
L 399.41071 92.3489 
L 399.41071 92.3489 
" clip-path="url(#pfdee63ad7d)" style="fill: none; stroke: #1f77b4; stroke-width: 1.5; stroke-linecap: square"/>
   </g>
   <g id="line2d_38">
    <path d="M 74.756165 141.315841 
L 76.379438 158.230844 
L 78.00271 141.0935 
L 79.625983 146.804673 
L 81.249256 159.453097 
L 82.872528 163.731874 
L 84.495801 157.91869 
L 86.119074 148.19502 
L 87.742347 141.324044 
L 89.365619 140.721284 
L 90.988892 145.936999 
L 92.612165 154.063974 
L 94.235438 161.623324 
L 95.85871 166.025286 
L 97.481983 166.261817 
L 99.105256 162.879955 
L 102.351801 152.046282 
L 103.975074 148.297324 
L 105.598347 147.289772 
L 107.221619 149.24081 
L 108.844892 153.59863 
L 112.091438 164.953264 
L 113.71471 169.399039 
L 115.337983 171.698262 
L 116.961256 171.401518 
L 118.584528 168.557395 
L 120.207801 163.650295 
L 125.077619 144.965699 
L 126.700892 140.2662 
L 128.324165 137.299807 
L 129.947438 136.210613 
L 131.57071 136.840729 
L 133.193983 138.785621 
L 138.063801 146.671838 
L 139.687074 148.133776 
L 141.310347 148.423399 
L 142.933619 147.492331 
L 144.556892 145.506759 
L 146.180165 142.816205 
L 147.803438 139.900016 
L 149.42671 137.300064 
L 151.049983 135.548995 
L 152.673256 135.102954 
L 154.296528 136.286404 
L 155.919801 139.254578 
L 157.543074 143.976601 
L 159.166347 150.239806 
L 160.789619 157.673363 
L 165.659438 181.804146 
L 167.28271 188.594413 
L 168.905983 193.939224 
L 170.529256 197.503091 
L 172.152528 199.091026 
L 173.775801 198.655554 
L 175.399074 196.28935 
L 177.022347 192.20527 
L 178.645619 186.7067 
L 180.268892 180.151919 
L 183.515438 165.357702 
L 186.761983 150.435205 
L 190.008528 136.952163 
L 193.255074 125.22457 
L 196.501619 114.713619 
L 199.748165 104.804201 
L 202.99471 95.605889 
L 204.617983 91.632054 
L 206.241256 88.421304 
L 207.864528 86.308609 
L 209.487801 85.660508 
L 211.111074 86.843672 
L 212.734347 90.189971 
L 214.357619 95.961064 
L 215.980892 104.315653 
L 217.604165 115.282354 
L 219.227438 128.740781 
L 220.85071 144.412763 
L 222.473983 161.864871 
L 228.967074 236.45587 
L 230.590347 252.426192 
L 232.213619 265.768787 
L 233.836892 275.829898 
L 235.460165 282.094184 
L 237.083438 284.216365 
L 238.70671 282.042514 
L 240.329983 275.61949 
L 241.953256 265.191925 
L 243.576528 251.187044 
L 245.199801 234.18848 
L 246.823074 214.901055 
L 254.939438 111.854968 
L 256.56271 94.999861 
L 258.185983 80.637427 
L 259.809256 69.029537 
L 261.432528 60.294797 
L 263.055801 54.420783 
L 264.679074 51.284394 
L 266.302347 50.678089 
L 267.925619 52.339324 
L 269.548892 55.980337 
L 271.172165 61.315487 
L 272.795437 68.083669 
L 274.41871 76.063864 
L 276.041983 85.082603 
L 277.665256 95.012954 
L 279.288528 105.765509 
L 282.535074 129.468577 
L 285.781619 155.537067 
L 290.651437 195.939531 
L 292.27471 208.496907 
L 293.897983 219.891117 
L 295.521256 229.64597 
L 297.144528 237.294131 
L 298.767801 242.414935 
L 300.391074 244.673196 
L 302.014347 243.855083 
L 303.637619 239.897107 
L 305.260892 232.904613 
L 306.884165 223.157002 
L 308.507437 211.097995 
L 310.13071 197.310709 
L 316.623801 138.97511 
L 318.247074 126.968939 
L 319.870347 116.984142 
L 321.493619 109.222279 
L 323.116892 103.689803 
L 324.740165 100.211383 
L 326.363438 98.46402 
L 327.98671 98.028978 
L 329.609983 98.456034 
L 331.233256 99.332552 
L 336.103074 102.360927 
L 337.726347 103.602187 
L 339.349619 105.446015 
L 340.972892 108.365724 
L 342.596165 112.850994 
L 344.219438 119.310672 
L 345.84271 127.975213 
L 347.465983 138.81479 
L 349.089256 151.489124 
L 353.959074 192.730906 
L 355.582347 204.072815 
L 357.205619 212.526528 
L 358.828892 217.464326 
L 360.452165 218.716037 
L 362.075438 216.633348 
L 363.69871 212.057786 
L 366.945256 200.298505 
L 368.568528 195.515549 
L 370.191801 192.427133 
L 371.815074 190.89237 
L 373.438347 189.965655 
L 375.061619 188.060922 
L 376.684892 183.370322 
L 378.308165 174.484898 
L 379.931438 161.070292 
L 383.177983 127.167375 
L 384.801256 113.199411 
L 386.424528 105.577581 
L 388.047801 104.956934 
L 389.671074 108.117757 
L 391.294347 108.484087 
L 392.917619 100.049393 
L 394.540892 84.685118 
L 396.164165 77.798001 
L 397.787438 95.334884 
L 399.41071 80.423577 
L 399.41071 80.423577 
" clip-path="url(#pfdee63ad7d)" style="fill: none; stroke-dasharray: 1.5,2.475; stroke-dashoffset: 0; stroke: #ff7f0e; stroke-width: 1.5"/>
    <defs>
     <path id="m3deb3f96a9" d="M 0 1.5 
C 0.397805 1.5 0.77937 1.341951 1.06066 1.06066 
C 1.341951 0.77937 1.5 0.397805 1.5 0 
C 1.5 -0.397805 1.341951 -0.77937 1.06066 -1.06066 
C 0.77937 -1.341951 0.397805 -1.5 0 -1.5 
C -0.397805 -1.5 -0.77937 -1.341951 -1.06066 -1.06066 
C -1.341951 -0.77937 -1.5 -0.397805 -1.5 0 
C -1.5 0.397805 -1.341951 0.77937 -1.06066 1.06066 
C -0.77937 1.341951 -0.397805 1.5 0 1.5 
z
" style="stroke: #ff7f0e"/>
    </defs>
    <g clip-path="url(#pfdee63ad7d)">
     <use xlink:href="#m3deb3f96a9" x="74.756165" y="141.315841" style="fill: #ff7f0e; stroke: #ff7f0e"/>
     <use xlink:href="#m3deb3f96a9" x="82.872528" y="163.731874" style="fill: #ff7f0e; stroke: #ff7f0e"/>
     <use xlink:href="#m3deb3f96a9" x="90.988892" y="145.936999" style="fill: #ff7f0e; stroke: #ff7f0e"/>
     <use xlink:href="#m3deb3f96a9" x="99.105256" y="162.879955" style="fill: #ff7f0e; stroke: #ff7f0e"/>
     <use xlink:href="#m3deb3f96a9" x="107.221619" y="149.24081" style="fill: #ff7f0e; stroke: #ff7f0e"/>
     <use xlink:href="#m3deb3f96a9" x="115.337983" y="171.698262" style="fill: #ff7f0e; stroke: #ff7f0e"/>
     <use xlink:href="#m3deb3f96a9" x="123.454347" y="150.941926" style="fill: #ff7f0e; stroke: #ff7f0e"/>
     <use xlink:href="#m3deb3f96a9" x="131.57071" y="136.840729" style="fill: #ff7f0e; stroke: #ff7f0e"/>
     <use xlink:href="#m3deb3f96a9" x="139.687074" y="148.133776" style="fill: #ff7f0e; stroke: #ff7f0e"/>
     <use xlink:href="#m3deb3f96a9" x="147.803438" y="139.900016" style="fill: #ff7f0e; stroke: #ff7f0e"/>
     <use xlink:href="#m3deb3f96a9" x="155.919801" y="139.254578" style="fill: #ff7f0e; stroke: #ff7f0e"/>
     <use xlink:href="#m3deb3f96a9" x="164.036165" y="174.022624" style="fill: #ff7f0e; stroke: #ff7f0e"/>
     <use xlink:href="#m3deb3f96a9" x="172.152528" y="199.091026" style="fill: #ff7f0e; stroke: #ff7f0e"/>
     <use xlink:href="#m3deb3f96a9" x="180.268892" y="180.151919" style="fill: #ff7f0e; stroke: #ff7f0e"/>
     <use xlink:href="#m3deb3f96a9" x="188.385256" y="143.466695" style="fill: #ff7f0e; stroke: #ff7f0e"/>
     <use xlink:href="#m3deb3f96a9" x="196.501619" y="114.713619" style="fill: #ff7f0e; stroke: #ff7f0e"/>
     <use xlink:href="#m3deb3f96a9" x="204.617983" y="91.632054" style="fill: #ff7f0e; stroke: #ff7f0e"/>
     <use xlink:href="#m3deb3f96a9" x="212.734347" y="90.189971" style="fill: #ff7f0e; stroke: #ff7f0e"/>
     <use xlink:href="#m3deb3f96a9" x="220.85071" y="144.412763" style="fill: #ff7f0e; stroke: #ff7f0e"/>
     <use xlink:href="#m3deb3f96a9" x="228.967074" y="236.45587" style="fill: #ff7f0e; stroke: #ff7f0e"/>
     <use xlink:href="#m3deb3f96a9" x="237.083438" y="284.216365" style="fill: #ff7f0e; stroke: #ff7f0e"/>
     <use xlink:href="#m3deb3f96a9" x="245.199801" y="234.18848" style="fill: #ff7f0e; stroke: #ff7f0e"/>
     <use xlink:href="#m3deb3f96a9" x="253.316165" y="130.795149" style="fill: #ff7f0e; stroke: #ff7f0e"/>
     <use xlink:href="#m3deb3f96a9" x="261.432528" y="60.294797" style="fill: #ff7f0e; stroke: #ff7f0e"/>
     <use xlink:href="#m3deb3f96a9" x="269.548892" y="55.980337" style="fill: #ff7f0e; stroke: #ff7f0e"/>
     <use xlink:href="#m3deb3f96a9" x="277.665256" y="95.012954" style="fill: #ff7f0e; stroke: #ff7f0e"/>
     <use xlink:href="#m3deb3f96a9" x="285.781619" y="155.537067" style="fill: #ff7f0e; stroke: #ff7f0e"/>
     <use xlink:href="#m3deb3f96a9" x="293.897983" y="219.891117" style="fill: #ff7f0e; stroke: #ff7f0e"/>
     <use xlink:href="#m3deb3f96a9" x="302.014347" y="243.855083" style="fill: #ff7f0e; stroke: #ff7f0e"/>
     <use xlink:href="#m3deb3f96a9" x="310.13071" y="197.310709" style="fill: #ff7f0e; stroke: #ff7f0e"/>
     <use xlink:href="#m3deb3f96a9" x="318.247074" y="126.968939" style="fill: #ff7f0e; stroke: #ff7f0e"/>
     <use xlink:href="#m3deb3f96a9" x="326.363438" y="98.46402" style="fill: #ff7f0e; stroke: #ff7f0e"/>
     <use xlink:href="#m3deb3f96a9" x="334.479801" y="101.348312" style="fill: #ff7f0e; stroke: #ff7f0e"/>
     <use xlink:href="#m3deb3f96a9" x="342.596165" y="112.850994" style="fill: #ff7f0e; stroke: #ff7f0e"/>
     <use xlink:href="#m3deb3f96a9" x="350.712528" y="165.342518" style="fill: #ff7f0e; stroke: #ff7f0e"/>
     <use xlink:href="#m3deb3f96a9" x="358.828892" y="217.464326" style="fill: #ff7f0e; stroke: #ff7f0e"/>
     <use xlink:href="#m3deb3f96a9" x="366.945256" y="200.298505" style="fill: #ff7f0e; stroke: #ff7f0e"/>
     <use xlink:href="#m3deb3f96a9" x="375.061619" y="188.060922" style="fill: #ff7f0e; stroke: #ff7f0e"/>
     <use xlink:href="#m3deb3f96a9" x="383.177983" y="127.167375" style="fill: #ff7f0e; stroke: #ff7f0e"/>
     <use xlink:href="#m3deb3f96a9" x="391.294347" y="108.484087" style="fill: #ff7f0e; stroke: #ff7f0e"/>
     <use xlink:href="#m3deb3f96a9" x="399.41071" y="80.423577" style="fill: #ff7f0e; stroke: #ff7f0e"/>
    </g>
   </g>
   <g id="line2d_39">
    <defs>
     <path id="m78eb9fb7c8" d="M -3 0 
L 3 0 
M 0 3 
L 0 -3 
" style="stroke: #2ca02c"/>
    </defs>
    <g clip-path="url(#pfdee63ad7d)">
     <use xlink:href="#m78eb9fb7c8" x="399.41071" y="80.423577" style="fill: #2ca02c; stroke: #2ca02c"/>
     <use xlink:href="#m78eb9fb7c8" x="398.521464" y="102.796189" style="fill: #2ca02c; stroke: #2ca02c"/>
     <use xlink:href="#m78eb9fb7c8" x="395.86347" y="77.418424" style="fill: #2ca02c; stroke: #2ca02c"/>
     <use xlink:href="#m78eb9fb7c8" x="391.465848" y="108.070316" style="fill: #2ca02c; stroke: #2ca02c"/>
     <use xlink:href="#m78eb9fb7c8" x="385.37678" y="109.66588" style="fill: #2ca02c; stroke: #2ca02c"/>
     <use xlink:href="#m78eb9fb7c8" x="377.662979" y="178.571448" style="fill: #2ca02c; stroke: #2ca02c"/>
     <use xlink:href="#m78eb9fb7c8" x="368.40896" y="195.915154" style="fill: #2ca02c; stroke: #2ca02c"/>
     <use xlink:href="#m78eb9fb7c8" x="357.71611" y="214.47645" style="fill: #2ca02c; stroke: #2ca02c"/>
     <use xlink:href="#m78eb9fb7c8" x="345.701584" y="127.133119" style="fill: #2ca02c; stroke: #2ca02c"/>
     <use xlink:href="#m78eb9fb7c8" x="332.497014" y="100.122189" style="fill: #2ca02c; stroke: #2ca02c"/>
     <use xlink:href="#m78eb9fb7c8" x="318.247074" y="126.968939" style="fill: #2ca02c; stroke: #2ca02c"/>
     <use xlink:href="#m78eb9fb7c8" x="303.107887" y="241.530961" style="fill: #2ca02c; stroke: #2ca02c"/>
     <use xlink:href="#m78eb9fb7c8" x="287.245323" y="167.753577" style="fill: #2ca02c; stroke: #2ca02c"/>
     <use xlink:href="#m78eb9fb7c8" x="270.833175" y="60.074786" style="fill: #2ca02c; stroke: #2ca02c"/>
     <use xlink:href="#m78eb9fb7c8" x="254.051258" y="121.991652" style="fill: #2ca02c; stroke: #2ca02c"/>
     <use xlink:href="#m78eb9fb7c8" x="237.083438" y="284.216365" style="fill: #2ca02c; stroke: #2ca02c"/>
     <use xlink:href="#m78eb9fb7c8" x="220.115617" y="137.065731" style="fill: #2ca02c; stroke: #2ca02c"/>
     <use xlink:href="#m78eb9fb7c8" x="203.3337" y="94.727726" style="fill: #2ca02c; stroke: #2ca02c"/>
     <use xlink:href="#m78eb9fb7c8" x="186.921552" y="149.731508" style="fill: #2ca02c; stroke: #2ca02c"/>
     <use xlink:href="#m78eb9fb7c8" x="171.058988" y="198.243781" style="fill: #2ca02c; stroke: #2ca02c"/>
     <use xlink:href="#m78eb9fb7c8" x="155.919801" y="139.254578" style="fill: #2ca02c; stroke: #2ca02c"/>
     <use xlink:href="#m78eb9fb7c8" x="141.669861" y="148.319812" style="fill: #2ca02c; stroke: #2ca02c"/>
     <use xlink:href="#m78eb9fb7c8" x="128.465291" y="137.130904" style="fill: #2ca02c; stroke: #2ca02c"/>
     <use xlink:href="#m78eb9fb7c8" x="116.450765" y="171.781312" style="fill: #2ca02c; stroke: #2ca02c"/>
     <use xlink:href="#m78eb9fb7c8" x="105.757915" y="147.354013" style="fill: #2ca02c; stroke: #2ca02c"/>
     <use xlink:href="#m78eb9fb7c8" x="96.503896" y="166.618491" style="fill: #2ca02c; stroke: #2ca02c"/>
     <use xlink:href="#m78eb9fb7c8" x="88.790095" y="140.174949" style="fill: #2ca02c; stroke: #2ca02c"/>
     <use xlink:href="#m78eb9fb7c8" x="82.701027" y="163.82105" style="fill: #2ca02c; stroke: #2ca02c"/>
     <use xlink:href="#m78eb9fb7c8" x="78.303405" y="140.614717" style="fill: #2ca02c; stroke: #2ca02c"/>
     <use xlink:href="#m78eb9fb7c8" x="75.645411" y="164.990979" style="fill: #2ca02c; stroke: #2ca02c"/>
     <use xlink:href="#m78eb9fb7c8" x="74.756165" y="141.315841" style="fill: #2ca02c; stroke: #2ca02c"/>
    </g>
   </g>
   <g id="line2d_40">
    <path d="M 58.523438 153.241164 
L 415.643438 153.241164 
" clip-path="url(#pfdee63ad7d)" style="fill: none; stroke: #808080; stroke-width: 1.5; stroke-linecap: square"/>
   </g>
   <g id="line2d_41">
    <path d="M 237.083438 296.312365 
L 237.083438 30.200365 
" clip-path="url(#pfdee63ad7d)" style="fill: none; stroke: #808080; stroke-width: 1.5; stroke-linecap: square"/>
   </g>
   <g id="patch_3">
    <path d="M 58.523438 296.312365 
L 58.523438 30.200365 
" style="fill: none; stroke: #000000; stroke-width: 0.8; stroke-linejoin: miter; stroke-linecap: square"/>
   </g>
   <g id="patch_4">
    <path d="M 415.643438 296.312365 
L 415.643438 30.200365 
" style="fill: none; stroke: #000000; stroke-width: 0.8; stroke-linejoin: miter; stroke-linecap: square"/>
   </g>
   <g id="patch_5">
    <path d="M 58.523438 296.312365 
L 415.643438 296.312365 
" style="fill: none; stroke: #000000; stroke-width: 0.8; stroke-linejoin: miter; stroke-linecap: square"/>
   </g>
   <g id="patch_6">
    <path d="M 58.523438 30.200365 
L 415.643438 30.200365 
" style="fill: none; stroke: #000000; stroke-width: 0.8; stroke-linejoin: miter; stroke-linecap: square"/>
   </g>
   <g id="legend_1">
    <g id="patch_7">
     <path d="M 60.523438 24.878125 
L 413.643438 24.878125 
Q 415.643438 24.878125 415.643438 22.878125 
L 415.643438 9.2 
Q 415.643438 7.2 413.643438 7.2 
L 60.523438 7.2 
Q 58.523438 7.2 58.523438 9.2 
L 58.523438 22.878125 
Q 58.523438 24.878125 60.523438 24.878125 
z
" style="fill: #ffffff; opacity: 0.8; stroke: #cccccc; stroke-linejoin: miter"/>
    </g>
    <g id="line2d_42">
     <path d="M 62.523438 15.298437 
L 77.523438 15.298437 
L 92.523438 15.298437 
" style="fill: none; stroke: #1f77b4; stroke-width: 1.5; stroke-linecap: square"/>
    </g>
    <g id="text_21">
     <!-- generator -->
     <g transform="translate(93.023438 18.798437) scale(0.1 -0.1)">
      <defs>
       <path id="DejaVuSans-67" d="M 2906 1791 
Q 2906 2416 2648 2759 
Q 2391 3103 1925 3103 
Q 1463 3103 1205 2759 
Q 947 2416 947 1791 
Q 947 1169 1205 825 
Q 1463 481 1925 481 
Q 2391 481 2648 825 
Q 2906 1169 2906 1791 
z
M 3481 434 
Q 3481 -459 3084 -895 
Q 2688 -1331 1869 -1331 
Q 1566 -1331 1297 -1286 
Q 1028 -1241 775 -1147 
L 775 -588 
Q 1028 -725 1275 -790 
Q 1522 -856 1778 -856 
Q 2344 -856 2625 -561 
Q 2906 -266 2906 331 
L 2906 616 
Q 2728 306 2450 153 
Q 2172 0 1784 0 
Q 1141 0 747 490 
Q 353 981 353 1791 
Q 353 2603 747 3093 
Q 1141 3584 1784 3584 
Q 2172 3584 2450 3431 
Q 2728 3278 2906 2969 
L 2906 3500 
L 3481 3500 
L 3481 434 
z
" transform="scale(0.015625)"/>
       <path id="DejaVuSans-65" d="M 3597 1894 
L 3597 1613 
L 953 1613 
Q 991 1019 1311 708 
Q 1631 397 2203 397 
Q 2534 397 2845 478 
Q 3156 559 3463 722 
L 3463 178 
Q 3153 47 2828 -22 
Q 2503 -91 2169 -91 
Q 1331 -91 842 396 
Q 353 884 353 1716 
Q 353 2575 817 3079 
Q 1281 3584 2069 3584 
Q 2775 3584 3186 3129 
Q 3597 2675 3597 1894 
z
M 3022 2063 
Q 3016 2534 2758 2815 
Q 2500 3097 2075 3097 
Q 1594 3097 1305 2825 
Q 1016 2553 972 2059 
L 3022 2063 
z
" transform="scale(0.015625)"/>
       <path id="DejaVuSans-6e" d="M 3513 2113 
L 3513 0 
L 2938 0 
L 2938 2094 
Q 2938 2591 2744 2837 
Q 2550 3084 2163 3084 
Q 1697 3084 1428 2787 
Q 1159 2491 1159 1978 
L 1159 0 
L 581 0 
L 581 3500 
L 1159 3500 
L 1159 2956 
Q 1366 3272 1645 3428 
Q 1925 3584 2291 3584 
Q 2894 3584 3203 3211 
Q 3513 2838 3513 2113 
z
" transform="scale(0.015625)"/>
       <path id="DejaVuSans-72" d="M 2631 2963 
Q 2534 3019 2420 3045 
Q 2306 3072 2169 3072 
Q 1681 3072 1420 2755 
Q 1159 2438 1159 1844 
L 1159 0 
L 581 0 
L 581 3500 
L 1159 3500 
L 1159 2956 
Q 1341 3275 1631 3429 
Q 1922 3584 2338 3584 
Q 2397 3584 2469 3576 
Q 2541 3569 2628 3553 
L 2631 2963 
z
" transform="scale(0.015625)"/>
       <path id="DejaVuSans-61" d="M 2194 1759 
Q 1497 1759 1228 1600 
Q 959 1441 959 1056 
Q 959 750 1161 570 
Q 1363 391 1709 391 
Q 2188 391 2477 730 
Q 2766 1069 2766 1631 
L 2766 1759 
L 2194 1759 
z
M 3341 1997 
L 3341 0 
L 2766 0 
L 2766 531 
Q 2569 213 2275 61 
Q 1981 -91 1556 -91 
Q 1019 -91 701 211 
Q 384 513 384 1019 
Q 384 1609 779 1909 
Q 1175 2209 1959 2209 
L 2766 2209 
L 2766 2266 
Q 2766 2663 2505 2880 
Q 2244 3097 1772 3097 
Q 1472 3097 1187 3025 
Q 903 2953 641 2809 
L 641 3341 
Q 956 3463 1253 3523 
Q 1550 3584 1831 3584 
Q 2591 3584 2966 3190 
Q 3341 2797 3341 1997 
z
" transform="scale(0.015625)"/>
       <path id="DejaVuSans-74" d="M 1172 4494 
L 1172 3500 
L 2356 3500 
L 2356 3053 
L 1172 3053 
L 1172 1153 
Q 1172 725 1289 603 
Q 1406 481 1766 481 
L 2356 481 
L 2356 0 
L 1766 0 
Q 1100 0 847 248 
Q 594 497 594 1153 
L 594 3053 
L 172 3053 
L 172 3500 
L 594 3500 
L 594 4494 
L 1172 4494 
z
" transform="scale(0.015625)"/>
       <path id="DejaVuSans-6f" d="M 1959 3097 
Q 1497 3097 1228 2736 
Q 959 2375 959 1747 
Q 959 1119 1226 758 
Q 1494 397 1959 397 
Q 2419 397 2687 759 
Q 2956 1122 2956 1747 
Q 2956 2369 2687 2733 
Q 2419 3097 1959 3097 
z
M 1959 3584 
Q 2709 3584 3137 3096 
Q 3566 2609 3566 1747 
Q 3566 888 3137 398 
Q 2709 -91 1959 -91 
Q 1206 -91 779 398 
Q 353 888 353 1747 
Q 353 2609 779 3096 
Q 1206 3584 1959 3584 
z
" transform="scale(0.015625)"/>
      </defs>
      <use xlink:href="#DejaVuSans-67"/>
      <use xlink:href="#DejaVuSans-65" x="63.476562"/>
      <use xlink:href="#DejaVuSans-6e" x="125"/>
      <use xlink:href="#DejaVuSans-65" x="188.378906"/>
      <use xlink:href="#DejaVuSans-72" x="249.902344"/>
      <use xlink:href="#DejaVuSans-61" x="291.015625"/>
      <use xlink:href="#DejaVuSans-74" x="352.294922"/>
      <use xlink:href="#DejaVuSans-6f" x="391.503906"/>
      <use xlink:href="#DejaVuSans-72" x="452.685547"/>
     </g>
    </g>
    <g id="line2d_43">
     <path d="M 174.061563 15.298437 
L 189.061563 15.298437 
L 204.061563 15.298437 
" style="fill: none; stroke-dasharray: 1.5,2.475; stroke-dashoffset: 0; stroke: #ff7f0e; stroke-width: 1.5"/>
     <g>
      <use xlink:href="#m3deb3f96a9" x="189.061563" y="15.298437" style="fill: #ff7f0e; stroke: #ff7f0e"/>
     </g>
    </g>
    <g id="text_22">
     <!-- interpolated,N=30 -->
     <g transform="translate(204.561563 18.798437) scale(0.1 -0.1)">
      <defs>
       <path id="DejaVuSans-69" d="M 603 3500 
L 1178 3500 
L 1178 0 
L 603 0 
L 603 3500 
z
M 603 4863 
L 1178 4863 
L 1178 4134 
L 603 4134 
L 603 4863 
z
" transform="scale(0.015625)"/>
       <path id="DejaVuSans-70" d="M 1159 525 
L 1159 -1331 
L 581 -1331 
L 581 3500 
L 1159 3500 
L 1159 2969 
Q 1341 3281 1617 3432 
Q 1894 3584 2278 3584 
Q 2916 3584 3314 3078 
Q 3713 2572 3713 1747 
Q 3713 922 3314 415 
Q 2916 -91 2278 -91 
Q 1894 -91 1617 61 
Q 1341 213 1159 525 
z
M 3116 1747 
Q 3116 2381 2855 2742 
Q 2594 3103 2138 3103 
Q 1681 3103 1420 2742 
Q 1159 2381 1159 1747 
Q 1159 1113 1420 752 
Q 1681 391 2138 391 
Q 2594 391 2855 752 
Q 3116 1113 3116 1747 
z
" transform="scale(0.015625)"/>
       <path id="DejaVuSans-6c" d="M 603 4863 
L 1178 4863 
L 1178 0 
L 603 0 
L 603 4863 
z
" transform="scale(0.015625)"/>
       <path id="DejaVuSans-64" d="M 2906 2969 
L 2906 4863 
L 3481 4863 
L 3481 0 
L 2906 0 
L 2906 525 
Q 2725 213 2448 61 
Q 2172 -91 1784 -91 
Q 1150 -91 751 415 
Q 353 922 353 1747 
Q 353 2572 751 3078 
Q 1150 3584 1784 3584 
Q 2172 3584 2448 3432 
Q 2725 3281 2906 2969 
z
M 947 1747 
Q 947 1113 1208 752 
Q 1469 391 1925 391 
Q 2381 391 2643 752 
Q 2906 1113 2906 1747 
Q 2906 2381 2643 2742 
Q 2381 3103 1925 3103 
Q 1469 3103 1208 2742 
Q 947 2381 947 1747 
z
" transform="scale(0.015625)"/>
       <path id="DejaVuSans-2c" d="M 750 794 
L 1409 794 
L 1409 256 
L 897 -744 
L 494 -744 
L 750 256 
L 750 794 
z
" transform="scale(0.015625)"/>
       <path id="DejaVuSans-4e" d="M 628 4666 
L 1478 4666 
L 3547 763 
L 3547 4666 
L 4159 4666 
L 4159 0 
L 3309 0 
L 1241 3903 
L 1241 0 
L 628 0 
L 628 4666 
z
" transform="scale(0.015625)"/>
       <path id="DejaVuSans-3d" d="M 678 2906 
L 4684 2906 
L 4684 2381 
L 678 2381 
L 678 2906 
z
M 678 1631 
L 4684 1631 
L 4684 1100 
L 678 1100 
L 678 1631 
z
" transform="scale(0.015625)"/>
       <path id="DejaVuSans-33" d="M 2597 2516 
Q 3050 2419 3304 2112 
Q 3559 1806 3559 1356 
Q 3559 666 3084 287 
Q 2609 -91 1734 -91 
Q 1441 -91 1130 -33 
Q 819 25 488 141 
L 488 750 
Q 750 597 1062 519 
Q 1375 441 1716 441 
Q 2309 441 2620 675 
Q 2931 909 2931 1356 
Q 2931 1769 2642 2001 
Q 2353 2234 1838 2234 
L 1294 2234 
L 1294 2753 
L 1863 2753 
Q 2328 2753 2575 2939 
Q 2822 3125 2822 3475 
Q 2822 3834 2567 4026 
Q 2313 4219 1838 4219 
Q 1578 4219 1281 4162 
Q 984 4106 628 3988 
L 628 4550 
Q 988 4650 1302 4700 
Q 1616 4750 1894 4750 
Q 2613 4750 3031 4423 
Q 3450 4097 3450 3541 
Q 3450 3153 3228 2886 
Q 3006 2619 2597 2516 
z
" transform="scale(0.015625)"/>
      </defs>
      <use xlink:href="#DejaVuSans-69"/>
      <use xlink:href="#DejaVuSans-6e" x="27.783203"/>
      <use xlink:href="#DejaVuSans-74" x="91.162109"/>
      <use xlink:href="#DejaVuSans-65" x="130.371094"/>
      <use xlink:href="#DejaVuSans-72" x="191.894531"/>
      <use xlink:href="#DejaVuSans-70" x="233.007812"/>
      <use xlink:href="#DejaVuSans-6f" x="296.484375"/>
      <use xlink:href="#DejaVuSans-6c" x="357.666016"/>
      <use xlink:href="#DejaVuSans-61" x="385.449219"/>
      <use xlink:href="#DejaVuSans-74" x="446.728516"/>
      <use xlink:href="#DejaVuSans-65" x="485.9375"/>
      <use xlink:href="#DejaVuSans-64" x="547.460938"/>
      <use xlink:href="#DejaVuSans-2c" x="610.9375"/>
      <use xlink:href="#DejaVuSans-4e" x="642.724609"/>
      <use xlink:href="#DejaVuSans-3d" x="717.529297"/>
      <use xlink:href="#DejaVuSans-33" x="801.318359"/>
      <use xlink:href="#DejaVuSans-30" x="864.941406"/>
     </g>
    </g>
    <g id="line2d_44">
     <g>
      <use xlink:href="#m78eb9fb7c8" x="344.077813" y="15.298437" style="fill: #2ca02c; stroke: #2ca02c"/>
     </g>
    </g>
    <g id="text_23">
     <!-- noisy data -->
     <g transform="translate(359.577813 18.798437) scale(0.1 -0.1)">
      <defs>
       <path id="DejaVuSans-73" d="M 2834 3397 
L 2834 2853 
Q 2591 2978 2328 3040 
Q 2066 3103 1784 3103 
Q 1356 3103 1142 2972 
Q 928 2841 928 2578 
Q 928 2378 1081 2264 
Q 1234 2150 1697 2047 
L 1894 2003 
Q 2506 1872 2764 1633 
Q 3022 1394 3022 966 
Q 3022 478 2636 193 
Q 2250 -91 1575 -91 
Q 1294 -91 989 -36 
Q 684 19 347 128 
L 347 722 
Q 666 556 975 473 
Q 1284 391 1588 391 
Q 1994 391 2212 530 
Q 2431 669 2431 922 
Q 2431 1156 2273 1281 
Q 2116 1406 1581 1522 
L 1381 1569 
Q 847 1681 609 1914 
Q 372 2147 372 2553 
Q 372 3047 722 3315 
Q 1072 3584 1716 3584 
Q 2034 3584 2315 3537 
Q 2597 3491 2834 3397 
z
" transform="scale(0.015625)"/>
       <path id="DejaVuSans-79" d="M 2059 -325 
Q 1816 -950 1584 -1140 
Q 1353 -1331 966 -1331 
L 506 -1331 
L 506 -850 
L 844 -850 
Q 1081 -850 1212 -737 
Q 1344 -625 1503 -206 
L 1606 56 
L 191 3500 
L 800 3500 
L 1894 763 
L 2988 3500 
L 3597 3500 
L 2059 -325 
z
" transform="scale(0.015625)"/>
       <path id="DejaVuSans-20" transform="scale(0.015625)"/>
      </defs>
      <use xlink:href="#DejaVuSans-6e"/>
      <use xlink:href="#DejaVuSans-6f" x="63.378906"/>
      <use xlink:href="#DejaVuSans-69" x="124.560547"/>
      <use xlink:href="#DejaVuSans-73" x="152.34375"/>
      <use xlink:href="#DejaVuSans-79" x="204.443359"/>
      <use xlink:href="#DejaVuSans-20" x="263.623047"/>
      <use xlink:href="#DejaVuSans-64" x="295.410156"/>
      <use xlink:href="#DejaVuSans-61" x="358.886719"/>
      <use xlink:href="#DejaVuSans-74" x="420.166016"/>
      <use xlink:href="#DejaVuSans-61" x="459.375"/>
     </g>
    </g>
   </g>
  </g>
 </g>
 <defs>
  <clipPath id="pfdee63ad7d">
   <rect x="58.523438" y="30.200365" width="357.12" height="266.112"/>
  </clipPath>
 </defs>
</svg>
