<?xml version="1.0" encoding="utf-8" standalone="no"?>
<!DOCTYPE svg PUBLIC "-//W3C//DTD SVG 1.1//EN"
  "http://www.w3.org/Graphics/SVG/1.1/DTD/svg11.dtd">
<svg xmlns:xlink="http://www.w3.org/1999/xlink" width="408.10125pt" height="325.986375pt" viewBox="0 0 408.10125 325.986375" xmlns="http://www.w3.org/2000/svg" version="1.1">
 <metadata>
  <rdf:RDF xmlns:dc="http://purl.org/dc/elements/1.1/" xmlns:cc="http://creativecommons.org/ns#" xmlns:rdf="http://www.w3.org/1999/02/22-rdf-syntax-ns#">
   <cc:Work>
    <dc:type rdf:resource="http://purl.org/dc/dcmitype/StillImage"/>
    <dc:date>2024-06-24T11:40:10.533839</dc:date>
    <dc:format>image/svg+xml</dc:format>
    <dc:creator>
     <cc:Agent>
      <dc:title>Matplotlib v3.6.3, https://matplotlib.org/</dc:title>
     </cc:Agent>
    </dc:creator>
   </cc:Work>
  </rdf:RDF>
 </metadata>
 <defs>
  <style type="text/css">*{stroke-linejoin: round; stroke-linecap: butt}</style>
 </defs>
 <g id="figure_1">
  <g id="patch_1">
   <path d="M 0 325.986375 
L 408.10125 325.986375 
L 408.10125 0 
L 0 0 
z
" style="fill: #ffffff"/>
  </g>
  <g id="axes_1">
   <g id="patch_2">
    <path d="M 43.78125 288.430125 
L 400.90125 288.430125 
L 400.90125 22.318125 
L 43.78125 22.318125 
z
" style="fill: #ffffff"/>
   </g>
   <g id="matplotlib.axis_1">
    <g id="xtick_1">
     <g id="line2d_1">
      <path d="M 60.013977 288.430125 
L 60.013977 22.318125 
" clip-path="url(#pc459af4f27)" style="fill: none; stroke-dasharray: 2.96,1.28; stroke-dashoffset: 0; stroke: #808080; stroke-width: 0.8"/>
     </g>
     <g id="line2d_2">
      <defs>
       <path id="mdeac4f46f1" d="M 0 0 
L 0 3.5 
" style="stroke: #000000; stroke-width: 0.8"/>
      </defs>
      <g>
       <use xlink:href="#mdeac4f46f1" x="60.013977" y="288.430125" style="stroke: #000000; stroke-width: 0.8"/>
      </g>
     </g>
     <g id="text_1">
      <!-- −1.00 -->
      <g transform="translate(44.691321 303.028562) scale(0.1 -0.1)">
       <defs>
        <path id="DejaVuSans-2212" d="M 678 2272 
L 4684 2272 
L 4684 1741 
L 678 1741 
L 678 2272 
z
" transform="scale(0.015625)"/>
        <path id="DejaVuSans-31" d="M 794 531 
L 1825 531 
L 1825 4091 
L 703 3866 
L 703 4441 
L 1819 4666 
L 2450 4666 
L 2450 531 
L 3481 531 
L 3481 0 
L 794 0 
L 794 531 
z
" transform="scale(0.015625)"/>
        <path id="DejaVuSans-2e" d="M 684 794 
L 1344 794 
L 1344 0 
L 684 0 
L 684 794 
z
" transform="scale(0.015625)"/>
        <path id="DejaVuSans-30" d="M 2034 4250 
Q 1547 4250 1301 3770 
Q 1056 3291 1056 2328 
Q 1056 1369 1301 889 
Q 1547 409 2034 409 
Q 2525 409 2770 889 
Q 3016 1369 3016 2328 
Q 3016 3291 2770 3770 
Q 2525 4250 2034 4250 
z
M 2034 4750 
Q 2819 4750 3233 4129 
Q 3647 3509 3647 2328 
Q 3647 1150 3233 529 
Q 2819 -91 2034 -91 
Q 1250 -91 836 529 
Q 422 1150 422 2328 
Q 422 3509 836 4129 
Q 1250 4750 2034 4750 
z
" transform="scale(0.015625)"/>
       </defs>
       <use xlink:href="#DejaVuSans-2212"/>
       <use xlink:href="#DejaVuSans-31" x="83.789062"/>
       <use xlink:href="#DejaVuSans-2e" x="147.412109"/>
       <use xlink:href="#DejaVuSans-30" x="179.199219"/>
       <use xlink:href="#DejaVuSans-30" x="242.822266"/>
      </g>
     </g>
    </g>
    <g id="xtick_2">
     <g id="line2d_3">
      <path d="M 100.595795 288.430125 
L 100.595795 22.318125 
" clip-path="url(#pc459af4f27)" style="fill: none; stroke-dasharray: 2.96,1.28; stroke-dashoffset: 0; stroke: #808080; stroke-width: 0.8"/>
     </g>
     <g id="line2d_4">
      <g>
       <use xlink:href="#mdeac4f46f1" x="100.595795" y="288.430125" style="stroke: #000000; stroke-width: 0.8"/>
      </g>
     </g>
     <g id="text_2">
      <!-- −0.75 -->
      <g transform="translate(85.273139 303.028562) scale(0.1 -0.1)">
       <defs>
        <path id="DejaVuSans-37" d="M 525 4666 
L 3525 4666 
L 3525 4397 
L 1831 0 
L 1172 0 
L 2766 4134 
L 525 4134 
L 525 4666 
z
" transform="scale(0.015625)"/>
        <path id="DejaVuSans-35" d="M 691 4666 
L 3169 4666 
L 3169 4134 
L 1269 4134 
L 1269 2991 
Q 1406 3038 1543 3061 
Q 1681 3084 1819 3084 
Q 2600 3084 3056 2656 
Q 3513 2228 3513 1497 
Q 3513 744 3044 326 
Q 2575 -91 1722 -91 
Q 1428 -91 1123 -41 
Q 819 9 494 109 
L 494 744 
Q 775 591 1075 516 
Q 1375 441 1709 441 
Q 2250 441 2565 725 
Q 2881 1009 2881 1497 
Q 2881 1984 2565 2268 
Q 2250 2553 1709 2553 
Q 1456 2553 1204 2497 
Q 953 2441 691 2322 
L 691 4666 
z
" transform="scale(0.015625)"/>
       </defs>
       <use xlink:href="#DejaVuSans-2212"/>
       <use xlink:href="#DejaVuSans-30" x="83.789062"/>
       <use xlink:href="#DejaVuSans-2e" x="147.412109"/>
       <use xlink:href="#DejaVuSans-37" x="179.199219"/>
       <use xlink:href="#DejaVuSans-35" x="242.822266"/>
      </g>
     </g>
    </g>
    <g id="xtick_3">
     <g id="line2d_5">
      <path d="M 141.177614 288.430125 
L 141.177614 22.318125 
" clip-path="url(#pc459af4f27)" style="fill: none; stroke-dasharray: 2.96,1.28; stroke-dashoffset: 0; stroke: #808080; stroke-width: 0.8"/>
     </g>
     <g id="line2d_6">
      <g>
       <use xlink:href="#mdeac4f46f1" x="141.177614" y="288.430125" style="stroke: #000000; stroke-width: 0.8"/>
      </g>
     </g>
     <g id="text_3">
      <!-- −0.50 -->
      <g transform="translate(125.854957 303.028562) scale(0.1 -0.1)">
       <use xlink:href="#DejaVuSans-2212"/>
       <use xlink:href="#DejaVuSans-30" x="83.789062"/>
       <use xlink:href="#DejaVuSans-2e" x="147.412109"/>
       <use xlink:href="#DejaVuSans-35" x="179.199219"/>
       <use xlink:href="#DejaVuSans-30" x="242.822266"/>
      </g>
     </g>
    </g>
    <g id="xtick_4">
     <g id="line2d_7">
      <path d="M 181.759432 288.430125 
L 181.759432 22.318125 
" clip-path="url(#pc459af4f27)" style="fill: none; stroke-dasharray: 2.96,1.28; stroke-dashoffset: 0; stroke: #808080; stroke-width: 0.8"/>
     </g>
     <g id="line2d_8">
      <g>
       <use xlink:href="#mdeac4f46f1" x="181.759432" y="288.430125" style="stroke: #000000; stroke-width: 0.8"/>
      </g>
     </g>
     <g id="text_4">
      <!-- −0.25 -->
      <g transform="translate(166.436776 303.028562) scale(0.1 -0.1)">
       <defs>
        <path id="DejaVuSans-32" d="M 1228 531 
L 3431 531 
L 3431 0 
L 469 0 
L 469 531 
Q 828 903 1448 1529 
Q 2069 2156 2228 2338 
Q 2531 2678 2651 2914 
Q 2772 3150 2772 3378 
Q 2772 3750 2511 3984 
Q 2250 4219 1831 4219 
Q 1534 4219 1204 4116 
Q 875 4013 500 3803 
L 500 4441 
Q 881 4594 1212 4672 
Q 1544 4750 1819 4750 
Q 2544 4750 2975 4387 
Q 3406 4025 3406 3419 
Q 3406 3131 3298 2873 
Q 3191 2616 2906 2266 
Q 2828 2175 2409 1742 
Q 1991 1309 1228 531 
z
" transform="scale(0.015625)"/>
       </defs>
       <use xlink:href="#DejaVuSans-2212"/>
       <use xlink:href="#DejaVuSans-30" x="83.789062"/>
       <use xlink:href="#DejaVuSans-2e" x="147.412109"/>
       <use xlink:href="#DejaVuSans-32" x="179.199219"/>
       <use xlink:href="#DejaVuSans-35" x="242.822266"/>
      </g>
     </g>
    </g>
    <g id="xtick_5">
     <g id="line2d_9">
      <path d="M 222.34125 288.430125 
L 222.34125 22.318125 
" clip-path="url(#pc459af4f27)" style="fill: none; stroke-dasharray: 2.96,1.28; stroke-dashoffset: 0; stroke: #808080; stroke-width: 0.8"/>
     </g>
     <g id="line2d_10">
      <g>
       <use xlink:href="#mdeac4f46f1" x="222.34125" y="288.430125" style="stroke: #000000; stroke-width: 0.8"/>
      </g>
     </g>
     <g id="text_5">
      <!-- 0.00 -->
      <g transform="translate(211.208438 303.028562) scale(0.1 -0.1)">
       <use xlink:href="#DejaVuSans-30"/>
       <use xlink:href="#DejaVuSans-2e" x="63.623047"/>
       <use xlink:href="#DejaVuSans-30" x="95.410156"/>
       <use xlink:href="#DejaVuSans-30" x="159.033203"/>
      </g>
     </g>
    </g>
    <g id="xtick_6">
     <g id="line2d_11">
      <path d="M 262.923068 288.430125 
L 262.923068 22.318125 
" clip-path="url(#pc459af4f27)" style="fill: none; stroke-dasharray: 2.96,1.28; stroke-dashoffset: 0; stroke: #808080; stroke-width: 0.8"/>
     </g>
     <g id="line2d_12">
      <g>
       <use xlink:href="#mdeac4f46f1" x="262.923068" y="288.430125" style="stroke: #000000; stroke-width: 0.8"/>
      </g>
     </g>
     <g id="text_6">
      <!-- 0.25 -->
      <g transform="translate(251.790256 303.028562) scale(0.1 -0.1)">
       <use xlink:href="#DejaVuSans-30"/>
       <use xlink:href="#DejaVuSans-2e" x="63.623047"/>
       <use xlink:href="#DejaVuSans-32" x="95.410156"/>
       <use xlink:href="#DejaVuSans-35" x="159.033203"/>
      </g>
     </g>
    </g>
    <g id="xtick_7">
     <g id="line2d_13">
      <path d="M 303.504886 288.430125 
L 303.504886 22.318125 
" clip-path="url(#pc459af4f27)" style="fill: none; stroke-dasharray: 2.96,1.28; stroke-dashoffset: 0; stroke: #808080; stroke-width: 0.8"/>
     </g>
     <g id="line2d_14">
      <g>
       <use xlink:href="#mdeac4f46f1" x="303.504886" y="288.430125" style="stroke: #000000; stroke-width: 0.8"/>
      </g>
     </g>
     <g id="text_7">
      <!-- 0.50 -->
      <g transform="translate(292.372074 303.028562) scale(0.1 -0.1)">
       <use xlink:href="#DejaVuSans-30"/>
       <use xlink:href="#DejaVuSans-2e" x="63.623047"/>
       <use xlink:href="#DejaVuSans-35" x="95.410156"/>
       <use xlink:href="#DejaVuSans-30" x="159.033203"/>
      </g>
     </g>
    </g>
    <g id="xtick_8">
     <g id="line2d_15">
      <path d="M 344.086705 288.430125 
L 344.086705 22.318125 
" clip-path="url(#pc459af4f27)" style="fill: none; stroke-dasharray: 2.96,1.28; stroke-dashoffset: 0; stroke: #808080; stroke-width: 0.8"/>
     </g>
     <g id="line2d_16">
      <g>
       <use xlink:href="#mdeac4f46f1" x="344.086705" y="288.430125" style="stroke: #000000; stroke-width: 0.8"/>
      </g>
     </g>
     <g id="text_8">
      <!-- 0.75 -->
      <g transform="translate(332.953892 303.028562) scale(0.1 -0.1)">
       <use xlink:href="#DejaVuSans-30"/>
       <use xlink:href="#DejaVuSans-2e" x="63.623047"/>
       <use xlink:href="#DejaVuSans-37" x="95.410156"/>
       <use xlink:href="#DejaVuSans-35" x="159.033203"/>
      </g>
     </g>
    </g>
    <g id="xtick_9">
     <g id="line2d_17">
      <path d="M 384.668523 288.430125 
L 384.668523 22.318125 
" clip-path="url(#pc459af4f27)" style="fill: none; stroke-dasharray: 2.96,1.28; stroke-dashoffset: 0; stroke: #808080; stroke-width: 0.8"/>
     </g>
     <g id="line2d_18">
      <g>
       <use xlink:href="#mdeac4f46f1" x="384.668523" y="288.430125" style="stroke: #000000; stroke-width: 0.8"/>
      </g>
     </g>
     <g id="text_9">
      <!-- 1.00 -->
      <g transform="translate(373.53571 303.028562) scale(0.1 -0.1)">
       <use xlink:href="#DejaVuSans-31"/>
       <use xlink:href="#DejaVuSans-2e" x="63.623047"/>
       <use xlink:href="#DejaVuSans-30" x="95.410156"/>
       <use xlink:href="#DejaVuSans-30" x="159.033203"/>
      </g>
     </g>
    </g>
    <g id="text_10">
     <!-- $x$ -->
     <g transform="translate(219.34125 316.706687) scale(0.1 -0.1)">
      <defs>
       <path id="DejaVuSans-Oblique-78" d="M 3841 3500 
L 2234 1784 
L 3219 0 
L 2559 0 
L 1819 1388 
L 531 0 
L -166 0 
L 1556 1844 
L 641 3500 
L 1300 3500 
L 1972 2234 
L 3144 3500 
L 3841 3500 
z
" transform="scale(0.015625)"/>
      </defs>
      <use xlink:href="#DejaVuSans-Oblique-78" transform="translate(0 0.3125)"/>
     </g>
    </g>
   </g>
   <g id="matplotlib.axis_2">
    <g id="ytick_1">
     <g id="line2d_19">
      <path d="M 43.78125 238.893095 
L 400.90125 238.893095 
" clip-path="url(#pc459af4f27)" style="fill: none; stroke-dasharray: 2.96,1.28; stroke-dashoffset: 0; stroke: #808080; stroke-width: 0.8"/>
     </g>
     <g id="line2d_20">
      <defs>
       <path id="m71dc87418a" d="M 0 0 
L -3.5 0 
" style="stroke: #000000; stroke-width: 0.8"/>
      </defs>
      <g>
       <use xlink:href="#m71dc87418a" x="43.78125" y="238.893095" style="stroke: #000000; stroke-width: 0.8"/>
      </g>
     </g>
     <g id="text_11">
      <!-- 0.2 -->
      <g transform="translate(20.878125 242.692314) scale(0.1 -0.1)">
       <use xlink:href="#DejaVuSans-30"/>
       <use xlink:href="#DejaVuSans-2e" x="63.623047"/>
       <use xlink:href="#DejaVuSans-32" x="95.410156"/>
      </g>
     </g>
    </g>
    <g id="ytick_2">
     <g id="line2d_21">
      <path d="M 43.78125 187.773352 
L 400.90125 187.773352 
" clip-path="url(#pc459af4f27)" style="fill: none; stroke-dasharray: 2.96,1.28; stroke-dashoffset: 0; stroke: #808080; stroke-width: 0.8"/>
     </g>
     <g id="line2d_22">
      <g>
       <use xlink:href="#m71dc87418a" x="43.78125" y="187.773352" style="stroke: #000000; stroke-width: 0.8"/>
      </g>
     </g>
     <g id="text_12">
      <!-- 0.4 -->
      <g transform="translate(20.878125 191.572571) scale(0.1 -0.1)">
       <defs>
        <path id="DejaVuSans-34" d="M 2419 4116 
L 825 1625 
L 2419 1625 
L 2419 4116 
z
M 2253 4666 
L 3047 4666 
L 3047 1625 
L 3713 1625 
L 3713 1100 
L 3047 1100 
L 3047 0 
L 2419 0 
L 2419 1100 
L 313 1100 
L 313 1709 
L 2253 4666 
z
" transform="scale(0.015625)"/>
       </defs>
       <use xlink:href="#DejaVuSans-30"/>
       <use xlink:href="#DejaVuSans-2e" x="63.623047"/>
       <use xlink:href="#DejaVuSans-34" x="95.410156"/>
      </g>
     </g>
    </g>
    <g id="ytick_3">
     <g id="line2d_23">
      <path d="M 43.78125 136.65361 
L 400.90125 136.65361 
" clip-path="url(#pc459af4f27)" style="fill: none; stroke-dasharray: 2.96,1.28; stroke-dashoffset: 0; stroke: #808080; stroke-width: 0.8"/>
     </g>
     <g id="line2d_24">
      <g>
       <use xlink:href="#m71dc87418a" x="43.78125" y="136.65361" style="stroke: #000000; stroke-width: 0.8"/>
      </g>
     </g>
     <g id="text_13">
      <!-- 0.6 -->
      <g transform="translate(20.878125 140.452829) scale(0.1 -0.1)">
       <defs>
        <path id="DejaVuSans-36" d="M 2113 2584 
Q 1688 2584 1439 2293 
Q 1191 2003 1191 1497 
Q 1191 994 1439 701 
Q 1688 409 2113 409 
Q 2538 409 2786 701 
Q 3034 994 3034 1497 
Q 3034 2003 2786 2293 
Q 2538 2584 2113 2584 
z
M 3366 4563 
L 3366 3988 
Q 3128 4100 2886 4159 
Q 2644 4219 2406 4219 
Q 1781 4219 1451 3797 
Q 1122 3375 1075 2522 
Q 1259 2794 1537 2939 
Q 1816 3084 2150 3084 
Q 2853 3084 3261 2657 
Q 3669 2231 3669 1497 
Q 3669 778 3244 343 
Q 2819 -91 2113 -91 
Q 1303 -91 875 529 
Q 447 1150 447 2328 
Q 447 3434 972 4092 
Q 1497 4750 2381 4750 
Q 2619 4750 2861 4703 
Q 3103 4656 3366 4563 
z
" transform="scale(0.015625)"/>
       </defs>
       <use xlink:href="#DejaVuSans-30"/>
       <use xlink:href="#DejaVuSans-2e" x="63.623047"/>
       <use xlink:href="#DejaVuSans-36" x="95.410156"/>
      </g>
     </g>
    </g>
    <g id="ytick_4">
     <g id="line2d_25">
      <path d="M 43.78125 85.533867 
L 400.90125 85.533867 
" clip-path="url(#pc459af4f27)" style="fill: none; stroke-dasharray: 2.96,1.28; stroke-dashoffset: 0; stroke: #808080; stroke-width: 0.8"/>
     </g>
     <g id="line2d_26">
      <g>
       <use xlink:href="#m71dc87418a" x="43.78125" y="85.533867" style="stroke: #000000; stroke-width: 0.8"/>
      </g>
     </g>
     <g id="text_14">
      <!-- 0.8 -->
      <g transform="translate(20.878125 89.333086) scale(0.1 -0.1)">
       <defs>
        <path id="DejaVuSans-38" d="M 2034 2216 
Q 1584 2216 1326 1975 
Q 1069 1734 1069 1313 
Q 1069 891 1326 650 
Q 1584 409 2034 409 
Q 2484 409 2743 651 
Q 3003 894 3003 1313 
Q 3003 1734 2745 1975 
Q 2488 2216 2034 2216 
z
M 1403 2484 
Q 997 2584 770 2862 
Q 544 3141 544 3541 
Q 544 4100 942 4425 
Q 1341 4750 2034 4750 
Q 2731 4750 3128 4425 
Q 3525 4100 3525 3541 
Q 3525 3141 3298 2862 
Q 3072 2584 2669 2484 
Q 3125 2378 3379 2068 
Q 3634 1759 3634 1313 
Q 3634 634 3220 271 
Q 2806 -91 2034 -91 
Q 1263 -91 848 271 
Q 434 634 434 1313 
Q 434 1759 690 2068 
Q 947 2378 1403 2484 
z
M 1172 3481 
Q 1172 3119 1398 2916 
Q 1625 2713 2034 2713 
Q 2441 2713 2670 2916 
Q 2900 3119 2900 3481 
Q 2900 3844 2670 4047 
Q 2441 4250 2034 4250 
Q 1625 4250 1398 4047 
Q 1172 3844 1172 3481 
z
" transform="scale(0.015625)"/>
       </defs>
       <use xlink:href="#DejaVuSans-30"/>
       <use xlink:href="#DejaVuSans-2e" x="63.623047"/>
       <use xlink:href="#DejaVuSans-38" x="95.410156"/>
      </g>
     </g>
    </g>
    <g id="ytick_5">
     <g id="line2d_27">
      <path d="M 43.78125 34.414125 
L 400.90125 34.414125 
" clip-path="url(#pc459af4f27)" style="fill: none; stroke-dasharray: 2.96,1.28; stroke-dashoffset: 0; stroke: #808080; stroke-width: 0.8"/>
     </g>
     <g id="line2d_28">
      <g>
       <use xlink:href="#m71dc87418a" x="43.78125" y="34.414125" style="stroke: #000000; stroke-width: 0.8"/>
      </g>
     </g>
     <g id="text_15">
      <!-- 1.0 -->
      <g transform="translate(20.878125 38.213344) scale(0.1 -0.1)">
       <use xlink:href="#DejaVuSans-31"/>
       <use xlink:href="#DejaVuSans-2e" x="63.623047"/>
       <use xlink:href="#DejaVuSans-30" x="95.410156"/>
      </g>
     </g>
    </g>
    <g id="text_16">
     <!-- $f(x)$ -->
     <g transform="translate(14.798438 164.024125) rotate(-90) scale(0.1 -0.1)">
      <defs>
       <path id="DejaVuSans-Oblique-66" d="M 3059 4863 
L 2969 4384 
L 2419 4384 
Q 2106 4384 1964 4261 
Q 1822 4138 1753 3809 
L 1691 3500 
L 2638 3500 
L 2553 3053 
L 1606 3053 
L 1013 0 
L 434 0 
L 1031 3053 
L 481 3053 
L 563 3500 
L 1113 3500 
L 1159 3744 
Q 1278 4363 1576 4613 
Q 1875 4863 2516 4863 
L 3059 4863 
z
" transform="scale(0.015625)"/>
       <path id="DejaVuSans-28" d="M 1984 4856 
Q 1566 4138 1362 3434 
Q 1159 2731 1159 2009 
Q 1159 1288 1364 580 
Q 1569 -128 1984 -844 
L 1484 -844 
Q 1016 -109 783 600 
Q 550 1309 550 2009 
Q 550 2706 781 3412 
Q 1013 4119 1484 4856 
L 1984 4856 
z
" transform="scale(0.015625)"/>
       <path id="DejaVuSans-29" d="M 513 4856 
L 1013 4856 
Q 1481 4119 1714 3412 
Q 1947 2706 1947 2009 
Q 1947 1309 1714 600 
Q 1481 -109 1013 -844 
L 513 -844 
Q 928 -128 1133 580 
Q 1338 1288 1338 2009 
Q 1338 2731 1133 3434 
Q 928 4138 513 4856 
z
" transform="scale(0.015625)"/>
      </defs>
      <use xlink:href="#DejaVuSans-Oblique-66" transform="translate(0 0.015625)"/>
      <use xlink:href="#DejaVuSans-28" transform="translate(35.205078 0.015625)"/>
      <use xlink:href="#DejaVuSans-Oblique-78" transform="translate(74.21875 0.015625)"/>
      <use xlink:href="#DejaVuSans-29" transform="translate(133.398438 0.015625)"/>
     </g>
    </g>
   </g>
   <g id="line2d_29">
    <path d="M 60.013977 274.977619 
L 63.260523 274.395554 
L 66.507068 273.779813 
L 69.753614 273.127815 
L 73.000159 272.436735 
L 76.246705 271.703474 
L 79.49325 270.924631 
L 82.739795 270.096468 
L 85.986341 269.214869 
L 89.232886 268.275296 
L 92.479432 267.272738 
L 95.725977 266.201659 
L 98.972523 265.055925 
L 102.219068 263.828737 
L 105.465614 262.512546 
L 108.712159 261.098956 
L 111.958705 259.578622 
L 115.20525 257.941126 
L 118.451795 256.174838 
L 121.698341 254.266766 
L 124.944886 252.202377 
L 128.191432 249.965408 
L 131.437977 247.537646 
L 134.684523 244.89869 
L 137.931068 242.025696 
L 141.177614 238.893095 
L 144.424159 235.472313 
L 147.670705 231.731482 
L 150.91725 227.635174 
L 154.163795 223.144191 
L 157.410341 218.215446 
L 160.656886 212.802013 
L 163.903432 206.853444 
L 167.149977 200.31649 
L 170.396523 193.13643 
L 173.643068 185.259267 
L 176.889614 176.635126 
L 180.136159 167.223295 
L 183.382705 156.999353 
L 186.62925 145.964871 
L 189.875795 134.159964 
L 193.122341 121.678596 
L 196.368886 108.685715 
L 199.615432 95.434037 
L 202.861977 82.276563 
L 206.108523 69.66912 
L 209.355068 58.156241 
L 212.601614 48.334781 
L 215.848159 40.794124 
L 219.094705 36.039554 
L 222.34125 34.414125 
L 225.587795 36.039554 
L 228.834341 40.794124 
L 232.080886 48.334781 
L 235.327432 58.156241 
L 238.573977 69.66912 
L 241.820523 82.276563 
L 245.067068 95.434037 
L 248.313614 108.685715 
L 251.560159 121.678596 
L 254.806705 134.159964 
L 258.05325 145.964871 
L 261.299795 156.999353 
L 264.546341 167.223295 
L 267.792886 176.635126 
L 271.039432 185.259267 
L 274.285977 193.13643 
L 277.532523 200.31649 
L 280.779068 206.853444 
L 284.025614 212.802013 
L 287.272159 218.215446 
L 290.518705 223.144191 
L 293.76525 227.635174 
L 297.011795 231.731482 
L 300.258341 235.472313 
L 303.504886 238.893095 
L 306.751432 242.025696 
L 309.997977 244.89869 
L 313.244523 247.537646 
L 316.491068 249.965408 
L 319.737614 252.202377 
L 322.984159 254.266766 
L 326.230705 256.174838 
L 329.47725 257.941126 
L 332.723795 259.578622 
L 335.970341 261.098956 
L 339.216886 262.512546 
L 342.463432 263.828737 
L 345.709977 265.055925 
L 348.956523 266.201659 
L 352.203068 267.272738 
L 355.449614 268.275296 
L 358.696159 269.214869 
L 361.942705 270.096468 
L 365.18925 270.924631 
L 368.435795 271.703474 
L 371.682341 272.436735 
L 374.928886 273.127815 
L 378.175432 273.779813 
L 381.421977 274.395554 
L 384.668523 274.977619 
" clip-path="url(#pc459af4f27)" style="fill: none; stroke: #1f77b4; stroke-width: 2; stroke-linecap: square"/>
   </g>
   <g id="line2d_30">
    <path d="M 60.013977 274.977619 
L 63.260523 272.57586 
L 66.507068 272.921212 
L 69.753614 274.316453 
L 73.000159 275.665838 
L 76.246705 276.334125 
L 79.49325 276.028402 
L 82.739795 274.700133 
L 85.986341 272.465078 
L 89.232886 269.538881 
L 92.479432 266.186335 
L 95.725977 262.682485 
L 98.972523 259.283878 
L 102.219068 256.208445 
L 105.465614 253.622628 
L 108.712159 251.634497 
L 111.958705 250.291737 
L 115.20525 249.583507 
L 118.451795 249.445279 
L 121.698341 249.76587 
L 124.944886 250.395991 
L 128.191432 251.157701 
L 131.437977 251.854287 
L 134.684523 252.28011 
L 137.931068 252.230089 
L 141.177614 251.508511 
L 144.424159 249.936958 
L 147.670705 247.361175 
L 150.91725 243.656745 
L 154.163795 238.733524 
L 157.410341 232.538773 
L 160.656886 225.059006 
L 163.903432 216.320587 
L 167.149977 206.389124 
L 170.396523 195.367758 
L 173.643068 183.394442 
L 176.889614 170.638327 
L 180.136159 157.295392 
L 183.382705 143.583448 
L 186.62925 129.736665 
L 189.875795 115.999773 
L 193.122341 102.622069 
L 196.368886 89.8514 
L 199.615432 77.928228 
L 202.861977 67.079941 
L 206.108523 57.515516 
L 209.355068 49.420649 
L 212.601614 42.953455 
L 215.848159 38.240831 
L 219.094705 35.375548 
L 222.34125 34.414125 
L 225.587795 35.375548 
L 228.834341 38.240831 
L 232.080886 42.953455 
L 235.327432 49.420649 
L 238.573977 57.515516 
L 241.820523 67.079941 
L 245.067068 77.928228 
L 248.313614 89.8514 
L 251.560159 102.622069 
L 254.806705 115.999773 
L 258.05325 129.736665 
L 261.299795 143.583448 
L 264.546341 157.295392 
L 267.792886 170.638327 
L 271.039432 183.394442 
L 274.285977 195.367758 
L 277.532523 206.389124 
L 280.779068 216.320587 
L 284.025614 225.059006 
L 287.272159 232.538773 
L 290.518705 238.733524 
L 293.76525 243.656745 
L 297.011795 247.361175 
L 300.258341 249.936958 
L 303.504886 251.508511 
L 306.751432 252.230089 
L 309.997977 252.28011 
L 313.244523 251.854287 
L 316.491068 251.157701 
L 319.737614 250.395991 
L 322.984159 249.76587 
L 326.230705 249.445279 
L 329.47725 249.583507 
L 332.723795 250.291737 
L 335.970341 251.634497 
L 339.216886 253.622628 
L 342.463432 256.208445 
L 345.709977 259.283878 
L 348.956523 262.682485 
L 352.203068 266.186335 
L 355.449614 269.538881 
L 358.696159 272.465078 
L 361.942705 274.700133 
L 365.18925 276.028402 
L 368.435795 276.334125 
L 371.682341 275.665838 
L 374.928886 274.316453 
L 378.175432 272.921212 
L 381.421977 272.57586 
L 384.668523 274.977619 
" clip-path="url(#pc459af4f27)" style="fill: none; stroke-dasharray: 5.55,2.4; stroke-dashoffset: 0; stroke: #ff7f0e; stroke-width: 1.5"/>
    <defs>
     <path id="me0bbac46a2" d="M 0 1.5 
C 0.397805 1.5 0.77937 1.341951 1.06066 1.06066 
C 1.341951 0.77937 1.5 0.397805 1.5 0 
C 1.5 -0.397805 1.341951 -0.77937 1.06066 -1.06066 
C 0.77937 -1.341951 0.397805 -1.5 0 -1.5 
C -0.397805 -1.5 -0.77937 -1.341951 -1.06066 -1.06066 
C -1.341951 -0.77937 -1.5 -0.397805 -1.5 0 
C -1.5 0.397805 -1.341951 0.77937 -1.06066 1.06066 
C -0.77937 1.341951 -0.397805 1.5 0 1.5 
z
" style="stroke: #ff7f0e"/>
    </defs>
    <g clip-path="url(#pc459af4f27)">
     <use xlink:href="#me0bbac46a2" x="60.013977" y="274.977619" style="fill: #ff7f0e; stroke: #ff7f0e"/>
     <use xlink:href="#me0bbac46a2" x="66.507068" y="272.921212" style="fill: #ff7f0e; stroke: #ff7f0e"/>
     <use xlink:href="#me0bbac46a2" x="73.000159" y="275.665838" style="fill: #ff7f0e; stroke: #ff7f0e"/>
     <use xlink:href="#me0bbac46a2" x="79.49325" y="276.028402" style="fill: #ff7f0e; stroke: #ff7f0e"/>
     <use xlink:href="#me0bbac46a2" x="85.986341" y="272.465078" style="fill: #ff7f0e; stroke: #ff7f0e"/>
     <use xlink:href="#me0bbac46a2" x="92.479432" y="266.186335" style="fill: #ff7f0e; stroke: #ff7f0e"/>
     <use xlink:href="#me0bbac46a2" x="98.972523" y="259.283878" style="fill: #ff7f0e; stroke: #ff7f0e"/>
     <use xlink:href="#me0bbac46a2" x="105.465614" y="253.622628" style="fill: #ff7f0e; stroke: #ff7f0e"/>
     <use xlink:href="#me0bbac46a2" x="111.958705" y="250.291737" style="fill: #ff7f0e; stroke: #ff7f0e"/>
     <use xlink:href="#me0bbac46a2" x="118.451795" y="249.445279" style="fill: #ff7f0e; stroke: #ff7f0e"/>
     <use xlink:href="#me0bbac46a2" x="124.944886" y="250.395991" style="fill: #ff7f0e; stroke: #ff7f0e"/>
     <use xlink:href="#me0bbac46a2" x="131.437977" y="251.854287" style="fill: #ff7f0e; stroke: #ff7f0e"/>
     <use xlink:href="#me0bbac46a2" x="137.931068" y="252.230089" style="fill: #ff7f0e; stroke: #ff7f0e"/>
     <use xlink:href="#me0bbac46a2" x="144.424159" y="249.936958" style="fill: #ff7f0e; stroke: #ff7f0e"/>
     <use xlink:href="#me0bbac46a2" x="150.91725" y="243.656745" style="fill: #ff7f0e; stroke: #ff7f0e"/>
     <use xlink:href="#me0bbac46a2" x="157.410341" y="232.538773" style="fill: #ff7f0e; stroke: #ff7f0e"/>
     <use xlink:href="#me0bbac46a2" x="163.903432" y="216.320587" style="fill: #ff7f0e; stroke: #ff7f0e"/>
     <use xlink:href="#me0bbac46a2" x="170.396523" y="195.367758" style="fill: #ff7f0e; stroke: #ff7f0e"/>
     <use xlink:href="#me0bbac46a2" x="176.889614" y="170.638327" style="fill: #ff7f0e; stroke: #ff7f0e"/>
     <use xlink:href="#me0bbac46a2" x="183.382705" y="143.583448" style="fill: #ff7f0e; stroke: #ff7f0e"/>
     <use xlink:href="#me0bbac46a2" x="189.875795" y="115.999773" style="fill: #ff7f0e; stroke: #ff7f0e"/>
     <use xlink:href="#me0bbac46a2" x="196.368886" y="89.8514" style="fill: #ff7f0e; stroke: #ff7f0e"/>
     <use xlink:href="#me0bbac46a2" x="202.861977" y="67.079941" style="fill: #ff7f0e; stroke: #ff7f0e"/>
     <use xlink:href="#me0bbac46a2" x="209.355068" y="49.420649" style="fill: #ff7f0e; stroke: #ff7f0e"/>
     <use xlink:href="#me0bbac46a2" x="215.848159" y="38.240831" style="fill: #ff7f0e; stroke: #ff7f0e"/>
     <use xlink:href="#me0bbac46a2" x="222.34125" y="34.414125" style="fill: #ff7f0e; stroke: #ff7f0e"/>
     <use xlink:href="#me0bbac46a2" x="228.834341" y="38.240831" style="fill: #ff7f0e; stroke: #ff7f0e"/>
     <use xlink:href="#me0bbac46a2" x="235.327432" y="49.420649" style="fill: #ff7f0e; stroke: #ff7f0e"/>
     <use xlink:href="#me0bbac46a2" x="241.820523" y="67.079941" style="fill: #ff7f0e; stroke: #ff7f0e"/>
     <use xlink:href="#me0bbac46a2" x="248.313614" y="89.8514" style="fill: #ff7f0e; stroke: #ff7f0e"/>
     <use xlink:href="#me0bbac46a2" x="254.806705" y="115.999773" style="fill: #ff7f0e; stroke: #ff7f0e"/>
     <use xlink:href="#me0bbac46a2" x="261.299795" y="143.583448" style="fill: #ff7f0e; stroke: #ff7f0e"/>
     <use xlink:href="#me0bbac46a2" x="267.792886" y="170.638327" style="fill: #ff7f0e; stroke: #ff7f0e"/>
     <use xlink:href="#me0bbac46a2" x="274.285977" y="195.367758" style="fill: #ff7f0e; stroke: #ff7f0e"/>
     <use xlink:href="#me0bbac46a2" x="280.779068" y="216.320587" style="fill: #ff7f0e; stroke: #ff7f0e"/>
     <use xlink:href="#me0bbac46a2" x="287.272159" y="232.538773" style="fill: #ff7f0e; stroke: #ff7f0e"/>
     <use xlink:href="#me0bbac46a2" x="293.76525" y="243.656745" style="fill: #ff7f0e; stroke: #ff7f0e"/>
     <use xlink:href="#me0bbac46a2" x="300.258341" y="249.936958" style="fill: #ff7f0e; stroke: #ff7f0e"/>
     <use xlink:href="#me0bbac46a2" x="306.751432" y="252.230089" style="fill: #ff7f0e; stroke: #ff7f0e"/>
     <use xlink:href="#me0bbac46a2" x="313.244523" y="251.854287" style="fill: #ff7f0e; stroke: #ff7f0e"/>
     <use xlink:href="#me0bbac46a2" x="319.737614" y="250.395991" style="fill: #ff7f0e; stroke: #ff7f0e"/>
     <use xlink:href="#me0bbac46a2" x="326.230705" y="249.445279" style="fill: #ff7f0e; stroke: #ff7f0e"/>
     <use xlink:href="#me0bbac46a2" x="332.723795" y="250.291737" style="fill: #ff7f0e; stroke: #ff7f0e"/>
     <use xlink:href="#me0bbac46a2" x="339.216886" y="253.622628" style="fill: #ff7f0e; stroke: #ff7f0e"/>
     <use xlink:href="#me0bbac46a2" x="345.709977" y="259.283878" style="fill: #ff7f0e; stroke: #ff7f0e"/>
     <use xlink:href="#me0bbac46a2" x="352.203068" y="266.186335" style="fill: #ff7f0e; stroke: #ff7f0e"/>
     <use xlink:href="#me0bbac46a2" x="358.696159" y="272.465078" style="fill: #ff7f0e; stroke: #ff7f0e"/>
     <use xlink:href="#me0bbac46a2" x="365.18925" y="276.028402" style="fill: #ff7f0e; stroke: #ff7f0e"/>
     <use xlink:href="#me0bbac46a2" x="371.682341" y="275.665838" style="fill: #ff7f0e; stroke: #ff7f0e"/>
     <use xlink:href="#me0bbac46a2" x="378.175432" y="272.921212" style="fill: #ff7f0e; stroke: #ff7f0e"/>
     <use xlink:href="#me0bbac46a2" x="384.668523" y="274.977619" style="fill: #ff7f0e; stroke: #ff7f0e"/>
    </g>
   </g>
   <g id="patch_3">
    <path d="M 43.78125 288.430125 
L 43.78125 22.318125 
" style="fill: none; stroke: #000000; stroke-width: 0.8; stroke-linejoin: miter; stroke-linecap: square"/>
   </g>
   <g id="patch_4">
    <path d="M 400.90125 288.430125 
L 400.90125 22.318125 
" style="fill: none; stroke: #000000; stroke-width: 0.8; stroke-linejoin: miter; stroke-linecap: square"/>
   </g>
   <g id="patch_5">
    <path d="M 43.78125 288.430125 
L 400.90125 288.430125 
" style="fill: none; stroke: #000000; stroke-width: 0.8; stroke-linejoin: miter; stroke-linecap: square"/>
   </g>
   <g id="patch_6">
    <path d="M 43.78125 22.318125 
L 400.90125 22.318125 
" style="fill: none; stroke: #000000; stroke-width: 0.8; stroke-linejoin: miter; stroke-linecap: square"/>
   </g>
   <g id="text_17">
    <!-- N = 10 -->
    <g transform="translate(201.375937 16.318125) scale(0.12 -0.12)">
     <defs>
      <path id="DejaVuSans-4e" d="M 628 4666 
L 1478 4666 
L 3547 763 
L 3547 4666 
L 4159 4666 
L 4159 0 
L 3309 0 
L 1241 3903 
L 1241 0 
L 628 0 
L 628 4666 
z
" transform="scale(0.015625)"/>
      <path id="DejaVuSans-20" transform="scale(0.015625)"/>
      <path id="DejaVuSans-3d" d="M 678 2906 
L 4684 2906 
L 4684 2381 
L 678 2381 
L 678 2906 
z
M 678 1631 
L 4684 1631 
L 4684 1100 
L 678 1100 
L 678 1631 
z
" transform="scale(0.015625)"/>
     </defs>
     <use xlink:href="#DejaVuSans-4e"/>
     <use xlink:href="#DejaVuSans-20" x="74.804688"/>
     <use xlink:href="#DejaVuSans-3d" x="106.591797"/>
     <use xlink:href="#DejaVuSans-20" x="190.380859"/>
     <use xlink:href="#DejaVuSans-31" x="222.167969"/>
     <use xlink:href="#DejaVuSans-30" x="285.791016"/>
    </g>
   </g>
   <g id="legend_1">
    <g id="patch_7">
     <path d="M 290.805938 59.674375 
L 393.90125 59.674375 
Q 395.90125 59.674375 395.90125 57.674375 
L 395.90125 29.318125 
Q 395.90125 27.318125 393.90125 27.318125 
L 290.805938 27.318125 
Q 288.805938 27.318125 288.805938 29.318125 
L 288.805938 57.674375 
Q 288.805938 59.674375 290.805938 59.674375 
z
" style="fill: #ffffff; opacity: 0.8; stroke: #cccccc; stroke-linejoin: miter"/>
    </g>
    <g id="line2d_31">
     <path d="M 292.805938 35.416562 
L 307.805938 35.416562 
L 322.805938 35.416562 
" style="fill: none; stroke: #1f77b4; stroke-width: 2; stroke-linecap: square"/>
    </g>
    <g id="text_18">
     <!-- exact -->
     <g transform="translate(330.805938 38.916562) scale(0.1 -0.1)">
      <defs>
       <path id="DejaVuSans-65" d="M 3597 1894 
L 3597 1613 
L 953 1613 
Q 991 1019 1311 708 
Q 1631 397 2203 397 
Q 2534 397 2845 478 
Q 3156 559 3463 722 
L 3463 178 
Q 3153 47 2828 -22 
Q 2503 -91 2169 -91 
Q 1331 -91 842 396 
Q 353 884 353 1716 
Q 353 2575 817 3079 
Q 1281 3584 2069 3584 
Q 2775 3584 3186 3129 
Q 3597 2675 3597 1894 
z
M 3022 2063 
Q 3016 2534 2758 2815 
Q 2500 3097 2075 3097 
Q 1594 3097 1305 2825 
Q 1016 2553 972 2059 
L 3022 2063 
z
" transform="scale(0.015625)"/>
       <path id="DejaVuSans-78" d="M 3513 3500 
L 2247 1797 
L 3578 0 
L 2900 0 
L 1881 1375 
L 863 0 
L 184 0 
L 1544 1831 
L 300 3500 
L 978 3500 
L 1906 2253 
L 2834 3500 
L 3513 3500 
z
" transform="scale(0.015625)"/>
       <path id="DejaVuSans-61" d="M 2194 1759 
Q 1497 1759 1228 1600 
Q 959 1441 959 1056 
Q 959 750 1161 570 
Q 1363 391 1709 391 
Q 2188 391 2477 730 
Q 2766 1069 2766 1631 
L 2766 1759 
L 2194 1759 
z
M 3341 1997 
L 3341 0 
L 2766 0 
L 2766 531 
Q 2569 213 2275 61 
Q 1981 -91 1556 -91 
Q 1019 -91 701 211 
Q 384 513 384 1019 
Q 384 1609 779 1909 
Q 1175 2209 1959 2209 
L 2766 2209 
L 2766 2266 
Q 2766 2663 2505 2880 
Q 2244 3097 1772 3097 
Q 1472 3097 1187 3025 
Q 903 2953 641 2809 
L 641 3341 
Q 956 3463 1253 3523 
Q 1550 3584 1831 3584 
Q 2591 3584 2966 3190 
Q 3341 2797 3341 1997 
z
" transform="scale(0.015625)"/>
       <path id="DejaVuSans-63" d="M 3122 3366 
L 3122 2828 
Q 2878 2963 2633 3030 
Q 2388 3097 2138 3097 
Q 1578 3097 1268 2742 
Q 959 2388 959 1747 
Q 959 1106 1268 751 
Q 1578 397 2138 397 
Q 2388 397 2633 464 
Q 2878 531 3122 666 
L 3122 134 
Q 2881 22 2623 -34 
Q 2366 -91 2075 -91 
Q 1284 -91 818 406 
Q 353 903 353 1747 
Q 353 2603 823 3093 
Q 1294 3584 2113 3584 
Q 2378 3584 2631 3529 
Q 2884 3475 3122 3366 
z
" transform="scale(0.015625)"/>
       <path id="DejaVuSans-74" d="M 1172 4494 
L 1172 3500 
L 2356 3500 
L 2356 3053 
L 1172 3053 
L 1172 1153 
Q 1172 725 1289 603 
Q 1406 481 1766 481 
L 2356 481 
L 2356 0 
L 1766 0 
Q 1100 0 847 248 
Q 594 497 594 1153 
L 594 3053 
L 172 3053 
L 172 3500 
L 594 3500 
L 594 4494 
L 1172 4494 
z
" transform="scale(0.015625)"/>
      </defs>
      <use xlink:href="#DejaVuSans-65"/>
      <use xlink:href="#DejaVuSans-78" x="59.773438"/>
      <use xlink:href="#DejaVuSans-61" x="118.953125"/>
      <use xlink:href="#DejaVuSans-63" x="180.232422"/>
      <use xlink:href="#DejaVuSans-74" x="235.212891"/>
     </g>
    </g>
    <g id="line2d_32">
     <path d="M 292.805938 50.094687 
L 307.805938 50.094687 
L 322.805938 50.094687 
" style="fill: none; stroke-dasharray: 5.55,2.4; stroke-dashoffset: 0; stroke: #ff7f0e; stroke-width: 1.5"/>
     <g>
      <use xlink:href="#me0bbac46a2" x="307.805938" y="50.094687" style="fill: #ff7f0e; stroke: #ff7f0e"/>
     </g>
    </g>
    <g id="text_19">
     <!-- interpolated -->
     <g transform="translate(330.805938 53.594687) scale(0.1 -0.1)">
      <defs>
       <path id="DejaVuSans-69" d="M 603 3500 
L 1178 3500 
L 1178 0 
L 603 0 
L 603 3500 
z
M 603 4863 
L 1178 4863 
L 1178 4134 
L 603 4134 
L 603 4863 
z
" transform="scale(0.015625)"/>
       <path id="DejaVuSans-6e" d="M 3513 2113 
L 3513 0 
L 2938 0 
L 2938 2094 
Q 2938 2591 2744 2837 
Q 2550 3084 2163 3084 
Q 1697 3084 1428 2787 
Q 1159 2491 1159 1978 
L 1159 0 
L 581 0 
L 581 3500 
L 1159 3500 
L 1159 2956 
Q 1366 3272 1645 3428 
Q 1925 3584 2291 3584 
Q 2894 3584 3203 3211 
Q 3513 2838 3513 2113 
z
" transform="scale(0.015625)"/>
       <path id="DejaVuSans-72" d="M 2631 2963 
Q 2534 3019 2420 3045 
Q 2306 3072 2169 3072 
Q 1681 3072 1420 2755 
Q 1159 2438 1159 1844 
L 1159 0 
L 581 0 
L 581 3500 
L 1159 3500 
L 1159 2956 
Q 1341 3275 1631 3429 
Q 1922 3584 2338 3584 
Q 2397 3584 2469 3576 
Q 2541 3569 2628 3553 
L 2631 2963 
z
" transform="scale(0.015625)"/>
       <path id="DejaVuSans-70" d="M 1159 525 
L 1159 -1331 
L 581 -1331 
L 581 3500 
L 1159 3500 
L 1159 2969 
Q 1341 3281 1617 3432 
Q 1894 3584 2278 3584 
Q 2916 3584 3314 3078 
Q 3713 2572 3713 1747 
Q 3713 922 3314 415 
Q 2916 -91 2278 -91 
Q 1894 -91 1617 61 
Q 1341 213 1159 525 
z
M 3116 1747 
Q 3116 2381 2855 2742 
Q 2594 3103 2138 3103 
Q 1681 3103 1420 2742 
Q 1159 2381 1159 1747 
Q 1159 1113 1420 752 
Q 1681 391 2138 391 
Q 2594 391 2855 752 
Q 3116 1113 3116 1747 
z
" transform="scale(0.015625)"/>
       <path id="DejaVuSans-6f" d="M 1959 3097 
Q 1497 3097 1228 2736 
Q 959 2375 959 1747 
Q 959 1119 1226 758 
Q 1494 397 1959 397 
Q 2419 397 2687 759 
Q 2956 1122 2956 1747 
Q 2956 2369 2687 2733 
Q 2419 3097 1959 3097 
z
M 1959 3584 
Q 2709 3584 3137 3096 
Q 3566 2609 3566 1747 
Q 3566 888 3137 398 
Q 2709 -91 1959 -91 
Q 1206 -91 779 398 
Q 353 888 353 1747 
Q 353 2609 779 3096 
Q 1206 3584 1959 3584 
z
" transform="scale(0.015625)"/>
       <path id="DejaVuSans-6c" d="M 603 4863 
L 1178 4863 
L 1178 0 
L 603 0 
L 603 4863 
z
" transform="scale(0.015625)"/>
       <path id="DejaVuSans-64" d="M 2906 2969 
L 2906 4863 
L 3481 4863 
L 3481 0 
L 2906 0 
L 2906 525 
Q 2725 213 2448 61 
Q 2172 -91 1784 -91 
Q 1150 -91 751 415 
Q 353 922 353 1747 
Q 353 2572 751 3078 
Q 1150 3584 1784 3584 
Q 2172 3584 2448 3432 
Q 2725 3281 2906 2969 
z
M 947 1747 
Q 947 1113 1208 752 
Q 1469 391 1925 391 
Q 2381 391 2643 752 
Q 2906 1113 2906 1747 
Q 2906 2381 2643 2742 
Q 2381 3103 1925 3103 
Q 1469 3103 1208 2742 
Q 947 2381 947 1747 
z
" transform="scale(0.015625)"/>
      </defs>
      <use xlink:href="#DejaVuSans-69"/>
      <use xlink:href="#DejaVuSans-6e" x="27.783203"/>
      <use xlink:href="#DejaVuSans-74" x="91.162109"/>
      <use xlink:href="#DejaVuSans-65" x="130.371094"/>
      <use xlink:href="#DejaVuSans-72" x="191.894531"/>
      <use xlink:href="#DejaVuSans-70" x="233.007812"/>
      <use xlink:href="#DejaVuSans-6f" x="296.484375"/>
      <use xlink:href="#DejaVuSans-6c" x="357.666016"/>
      <use xlink:href="#DejaVuSans-61" x="385.449219"/>
      <use xlink:href="#DejaVuSans-74" x="446.728516"/>
      <use xlink:href="#DejaVuSans-65" x="485.9375"/>
      <use xlink:href="#DejaVuSans-64" x="547.460938"/>
     </g>
    </g>
   </g>
  </g>
 </g>
 <defs>
  <clipPath id="pc459af4f27">
   <rect x="43.78125" y="22.318125" width="357.12" height="266.112"/>
  </clipPath>
 </defs>
</svg>
