<?xml version="1.0" encoding="utf-8" standalone="no"?>
<!DOCTYPE svg PUBLIC "-//W3C//DTD SVG 1.1//EN"
  "http://www.w3.org/Graphics/SVG/1.1/DTD/svg11.dtd">
<svg xmlns:xlink="http://www.w3.org/1999/xlink" width="398.560625pt" height="333.868615pt" viewBox="0 0 398.560625 333.868615" xmlns="http://www.w3.org/2000/svg" version="1.1">
 <metadata>
  <rdf:RDF xmlns:dc="http://purl.org/dc/elements/1.1/" xmlns:cc="http://creativecommons.org/ns#" xmlns:rdf="http://www.w3.org/1999/02/22-rdf-syntax-ns#">
   <cc:Work>
    <dc:type rdf:resource="http://purl.org/dc/dcmitype/StillImage"/>
    <dc:date>2024-06-25T19:16:40.255565</dc:date>
    <dc:format>image/svg+xml</dc:format>
    <dc:creator>
     <cc:Agent>
      <dc:title>Matplotlib v3.6.3, https://matplotlib.org/</dc:title>
     </cc:Agent>
    </dc:creator>
   </cc:Work>
  </rdf:RDF>
 </metadata>
 <defs>
  <style type="text/css">*{stroke-linejoin: round; stroke-linecap: butt}</style>
 </defs>
 <g id="figure_1">
  <g id="patch_1">
   <path d="M 0 333.868615 
L 398.560625 333.868615 
L 398.560625 0 
L 0 0 
z
" style="fill: #ffffff"/>
  </g>
  <g id="axes_1">
   <g id="patch_2">
    <path d="M 34.240625 296.312365 
L 391.360625 296.312365 
L 391.360625 30.200365 
L 34.240625 30.200365 
z
" style="fill: #ffffff"/>
   </g>
   <g id="matplotlib.axis_1">
    <g id="xtick_1">
     <g id="line2d_1">
      <path d="M 50.473352 296.312365 
L 50.473352 30.200365 
" clip-path="url(#p2645fe6fe1)" style="fill: none; stroke-dasharray: 2.96,1.28; stroke-dashoffset: 0; stroke: #808080; stroke-width: 0.8"/>
     </g>
     <g id="line2d_2">
      <defs>
       <path id="mda7e562238" d="M 0 0 
L 0 3.5 
" style="stroke: #000000; stroke-width: 0.8"/>
      </defs>
      <g>
       <use xlink:href="#mda7e562238" x="50.473352" y="296.312365" style="stroke: #000000; stroke-width: 0.8"/>
      </g>
     </g>
     <g id="text_1">
      <!-- 0.0 -->
      <g transform="translate(42.52179 310.910802) scale(0.1 -0.1)">
       <defs>
        <path id="DejaVuSans-30" d="M 2034 4250 
Q 1547 4250 1301 3770 
Q 1056 3291 1056 2328 
Q 1056 1369 1301 889 
Q 1547 409 2034 409 
Q 2525 409 2770 889 
Q 3016 1369 3016 2328 
Q 3016 3291 2770 3770 
Q 2525 4250 2034 4250 
z
M 2034 4750 
Q 2819 4750 3233 4129 
Q 3647 3509 3647 2328 
Q 3647 1150 3233 529 
Q 2819 -91 2034 -91 
Q 1250 -91 836 529 
Q 422 1150 422 2328 
Q 422 3509 836 4129 
Q 1250 4750 2034 4750 
z
" transform="scale(0.015625)"/>
        <path id="DejaVuSans-2e" d="M 684 794 
L 1344 794 
L 1344 0 
L 684 0 
L 684 794 
z
" transform="scale(0.015625)"/>
       </defs>
       <use xlink:href="#DejaVuSans-30"/>
       <use xlink:href="#DejaVuSans-2e" x="63.623047"/>
       <use xlink:href="#DejaVuSans-30" x="95.410156"/>
      </g>
     </g>
    </g>
    <g id="xtick_2">
     <g id="line2d_3">
      <path d="M 115.404261 296.312365 
L 115.404261 30.200365 
" clip-path="url(#p2645fe6fe1)" style="fill: none; stroke-dasharray: 2.96,1.28; stroke-dashoffset: 0; stroke: #808080; stroke-width: 0.8"/>
     </g>
     <g id="line2d_4">
      <g>
       <use xlink:href="#mda7e562238" x="115.404261" y="296.312365" style="stroke: #000000; stroke-width: 0.8"/>
      </g>
     </g>
     <g id="text_2">
      <!-- 0.2 -->
      <g transform="translate(107.452699 310.910802) scale(0.1 -0.1)">
       <defs>
        <path id="DejaVuSans-32" d="M 1228 531 
L 3431 531 
L 3431 0 
L 469 0 
L 469 531 
Q 828 903 1448 1529 
Q 2069 2156 2228 2338 
Q 2531 2678 2651 2914 
Q 2772 3150 2772 3378 
Q 2772 3750 2511 3984 
Q 2250 4219 1831 4219 
Q 1534 4219 1204 4116 
Q 875 4013 500 3803 
L 500 4441 
Q 881 4594 1212 4672 
Q 1544 4750 1819 4750 
Q 2544 4750 2975 4387 
Q 3406 4025 3406 3419 
Q 3406 3131 3298 2873 
Q 3191 2616 2906 2266 
Q 2828 2175 2409 1742 
Q 1991 1309 1228 531 
z
" transform="scale(0.015625)"/>
       </defs>
       <use xlink:href="#DejaVuSans-30"/>
       <use xlink:href="#DejaVuSans-2e" x="63.623047"/>
       <use xlink:href="#DejaVuSans-32" x="95.410156"/>
      </g>
     </g>
    </g>
    <g id="xtick_3">
     <g id="line2d_5">
      <path d="M 180.33517 296.312365 
L 180.33517 30.200365 
" clip-path="url(#p2645fe6fe1)" style="fill: none; stroke-dasharray: 2.96,1.28; stroke-dashoffset: 0; stroke: #808080; stroke-width: 0.8"/>
     </g>
     <g id="line2d_6">
      <g>
       <use xlink:href="#mda7e562238" x="180.33517" y="296.312365" style="stroke: #000000; stroke-width: 0.8"/>
      </g>
     </g>
     <g id="text_3">
      <!-- 0.4 -->
      <g transform="translate(172.383608 310.910802) scale(0.1 -0.1)">
       <defs>
        <path id="DejaVuSans-34" d="M 2419 4116 
L 825 1625 
L 2419 1625 
L 2419 4116 
z
M 2253 4666 
L 3047 4666 
L 3047 1625 
L 3713 1625 
L 3713 1100 
L 3047 1100 
L 3047 0 
L 2419 0 
L 2419 1100 
L 313 1100 
L 313 1709 
L 2253 4666 
z
" transform="scale(0.015625)"/>
       </defs>
       <use xlink:href="#DejaVuSans-30"/>
       <use xlink:href="#DejaVuSans-2e" x="63.623047"/>
       <use xlink:href="#DejaVuSans-34" x="95.410156"/>
      </g>
     </g>
    </g>
    <g id="xtick_4">
     <g id="line2d_7">
      <path d="M 245.26608 296.312365 
L 245.26608 30.200365 
" clip-path="url(#p2645fe6fe1)" style="fill: none; stroke-dasharray: 2.96,1.28; stroke-dashoffset: 0; stroke: #808080; stroke-width: 0.8"/>
     </g>
     <g id="line2d_8">
      <g>
       <use xlink:href="#mda7e562238" x="245.26608" y="296.312365" style="stroke: #000000; stroke-width: 0.8"/>
      </g>
     </g>
     <g id="text_4">
      <!-- 0.6 -->
      <g transform="translate(237.314517 310.910802) scale(0.1 -0.1)">
       <defs>
        <path id="DejaVuSans-36" d="M 2113 2584 
Q 1688 2584 1439 2293 
Q 1191 2003 1191 1497 
Q 1191 994 1439 701 
Q 1688 409 2113 409 
Q 2538 409 2786 701 
Q 3034 994 3034 1497 
Q 3034 2003 2786 2293 
Q 2538 2584 2113 2584 
z
M 3366 4563 
L 3366 3988 
Q 3128 4100 2886 4159 
Q 2644 4219 2406 4219 
Q 1781 4219 1451 3797 
Q 1122 3375 1075 2522 
Q 1259 2794 1537 2939 
Q 1816 3084 2150 3084 
Q 2853 3084 3261 2657 
Q 3669 2231 3669 1497 
Q 3669 778 3244 343 
Q 2819 -91 2113 -91 
Q 1303 -91 875 529 
Q 447 1150 447 2328 
Q 447 3434 972 4092 
Q 1497 4750 2381 4750 
Q 2619 4750 2861 4703 
Q 3103 4656 3366 4563 
z
" transform="scale(0.015625)"/>
       </defs>
       <use xlink:href="#DejaVuSans-30"/>
       <use xlink:href="#DejaVuSans-2e" x="63.623047"/>
       <use xlink:href="#DejaVuSans-36" x="95.410156"/>
      </g>
     </g>
    </g>
    <g id="xtick_5">
     <g id="line2d_9">
      <path d="M 310.196989 296.312365 
L 310.196989 30.200365 
" clip-path="url(#p2645fe6fe1)" style="fill: none; stroke-dasharray: 2.96,1.28; stroke-dashoffset: 0; stroke: #808080; stroke-width: 0.8"/>
     </g>
     <g id="line2d_10">
      <g>
       <use xlink:href="#mda7e562238" x="310.196989" y="296.312365" style="stroke: #000000; stroke-width: 0.8"/>
      </g>
     </g>
     <g id="text_5">
      <!-- 0.8 -->
      <g transform="translate(302.245426 310.910802) scale(0.1 -0.1)">
       <defs>
        <path id="DejaVuSans-38" d="M 2034 2216 
Q 1584 2216 1326 1975 
Q 1069 1734 1069 1313 
Q 1069 891 1326 650 
Q 1584 409 2034 409 
Q 2484 409 2743 651 
Q 3003 894 3003 1313 
Q 3003 1734 2745 1975 
Q 2488 2216 2034 2216 
z
M 1403 2484 
Q 997 2584 770 2862 
Q 544 3141 544 3541 
Q 544 4100 942 4425 
Q 1341 4750 2034 4750 
Q 2731 4750 3128 4425 
Q 3525 4100 3525 3541 
Q 3525 3141 3298 2862 
Q 3072 2584 2669 2484 
Q 3125 2378 3379 2068 
Q 3634 1759 3634 1313 
Q 3634 634 3220 271 
Q 2806 -91 2034 -91 
Q 1263 -91 848 271 
Q 434 634 434 1313 
Q 434 1759 690 2068 
Q 947 2378 1403 2484 
z
M 1172 3481 
Q 1172 3119 1398 2916 
Q 1625 2713 2034 2713 
Q 2441 2713 2670 2916 
Q 2900 3119 2900 3481 
Q 2900 3844 2670 4047 
Q 2441 4250 2034 4250 
Q 1625 4250 1398 4047 
Q 1172 3844 1172 3481 
z
" transform="scale(0.015625)"/>
       </defs>
       <use xlink:href="#DejaVuSans-30"/>
       <use xlink:href="#DejaVuSans-2e" x="63.623047"/>
       <use xlink:href="#DejaVuSans-38" x="95.410156"/>
      </g>
     </g>
    </g>
    <g id="xtick_6">
     <g id="line2d_11">
      <path d="M 375.127898 296.312365 
L 375.127898 30.200365 
" clip-path="url(#p2645fe6fe1)" style="fill: none; stroke-dasharray: 2.96,1.28; stroke-dashoffset: 0; stroke: #808080; stroke-width: 0.8"/>
     </g>
     <g id="line2d_12">
      <g>
       <use xlink:href="#mda7e562238" x="375.127898" y="296.312365" style="stroke: #000000; stroke-width: 0.8"/>
      </g>
     </g>
     <g id="text_6">
      <!-- 1.0 -->
      <g transform="translate(367.176335 310.910802) scale(0.1 -0.1)">
       <defs>
        <path id="DejaVuSans-31" d="M 794 531 
L 1825 531 
L 1825 4091 
L 703 3866 
L 703 4441 
L 1819 4666 
L 2450 4666 
L 2450 531 
L 3481 531 
L 3481 0 
L 794 0 
L 794 531 
z
" transform="scale(0.015625)"/>
       </defs>
       <use xlink:href="#DejaVuSans-31"/>
       <use xlink:href="#DejaVuSans-2e" x="63.623047"/>
       <use xlink:href="#DejaVuSans-30" x="95.410156"/>
      </g>
     </g>
    </g>
    <g id="text_7">
     <!-- x -->
     <g transform="translate(209.84125 324.588927) scale(0.1 -0.1)">
      <defs>
       <path id="DejaVuSans-78" d="M 3513 3500 
L 2247 1797 
L 3578 0 
L 2900 0 
L 1881 1375 
L 863 0 
L 184 0 
L 1544 1831 
L 300 3500 
L 978 3500 
L 1906 2253 
L 2834 3500 
L 3513 3500 
z
" transform="scale(0.015625)"/>
      </defs>
      <use xlink:href="#DejaVuSans-78"/>
     </g>
    </g>
   </g>
   <g id="matplotlib.axis_2">
    <g id="ytick_1">
     <g id="line2d_13">
      <path d="M 34.240625 258.014063 
L 391.360625 258.014063 
" clip-path="url(#p2645fe6fe1)" style="fill: none; stroke-dasharray: 2.96,1.28; stroke-dashoffset: 0; stroke: #808080; stroke-width: 0.8"/>
     </g>
     <g id="line2d_14">
      <defs>
       <path id="m3a1c7eb99a" d="M 0 0 
L -3.5 0 
" style="stroke: #000000; stroke-width: 0.8"/>
      </defs>
      <g>
       <use xlink:href="#m3a1c7eb99a" x="34.240625" y="258.014063" style="stroke: #000000; stroke-width: 0.8"/>
      </g>
     </g>
     <g id="text_8">
      <!-- 0 -->
      <g transform="translate(20.878125 261.813282) scale(0.1 -0.1)">
       <use xlink:href="#DejaVuSans-30"/>
      </g>
     </g>
    </g>
    <g id="ytick_2">
     <g id="line2d_15">
      <path d="M 34.240625 205.609465 
L 391.360625 205.609465 
" clip-path="url(#p2645fe6fe1)" style="fill: none; stroke-dasharray: 2.96,1.28; stroke-dashoffset: 0; stroke: #808080; stroke-width: 0.8"/>
     </g>
     <g id="line2d_16">
      <g>
       <use xlink:href="#m3a1c7eb99a" x="34.240625" y="205.609465" style="stroke: #000000; stroke-width: 0.8"/>
      </g>
     </g>
     <g id="text_9">
      <!-- 1 -->
      <g transform="translate(20.878125 209.408684) scale(0.1 -0.1)">
       <use xlink:href="#DejaVuSans-31"/>
      </g>
     </g>
    </g>
    <g id="ytick_3">
     <g id="line2d_17">
      <path d="M 34.240625 153.204866 
L 391.360625 153.204866 
" clip-path="url(#p2645fe6fe1)" style="fill: none; stroke-dasharray: 2.96,1.28; stroke-dashoffset: 0; stroke: #808080; stroke-width: 0.8"/>
     </g>
     <g id="line2d_18">
      <g>
       <use xlink:href="#m3a1c7eb99a" x="34.240625" y="153.204866" style="stroke: #000000; stroke-width: 0.8"/>
      </g>
     </g>
     <g id="text_10">
      <!-- 2 -->
      <g transform="translate(20.878125 157.004085) scale(0.1 -0.1)">
       <use xlink:href="#DejaVuSans-32"/>
      </g>
     </g>
    </g>
    <g id="ytick_4">
     <g id="line2d_19">
      <path d="M 34.240625 100.800268 
L 391.360625 100.800268 
" clip-path="url(#p2645fe6fe1)" style="fill: none; stroke-dasharray: 2.96,1.28; stroke-dashoffset: 0; stroke: #808080; stroke-width: 0.8"/>
     </g>
     <g id="line2d_20">
      <g>
       <use xlink:href="#m3a1c7eb99a" x="34.240625" y="100.800268" style="stroke: #000000; stroke-width: 0.8"/>
      </g>
     </g>
     <g id="text_11">
      <!-- 3 -->
      <g transform="translate(20.878125 104.599487) scale(0.1 -0.1)">
       <defs>
        <path id="DejaVuSans-33" d="M 2597 2516 
Q 3050 2419 3304 2112 
Q 3559 1806 3559 1356 
Q 3559 666 3084 287 
Q 2609 -91 1734 -91 
Q 1441 -91 1130 -33 
Q 819 25 488 141 
L 488 750 
Q 750 597 1062 519 
Q 1375 441 1716 441 
Q 2309 441 2620 675 
Q 2931 909 2931 1356 
Q 2931 1769 2642 2001 
Q 2353 2234 1838 2234 
L 1294 2234 
L 1294 2753 
L 1863 2753 
Q 2328 2753 2575 2939 
Q 2822 3125 2822 3475 
Q 2822 3834 2567 4026 
Q 2313 4219 1838 4219 
Q 1578 4219 1281 4162 
Q 984 4106 628 3988 
L 628 4550 
Q 988 4650 1302 4700 
Q 1616 4750 1894 4750 
Q 2613 4750 3031 4423 
Q 3450 4097 3450 3541 
Q 3450 3153 3228 2886 
Q 3006 2619 2597 2516 
z
" transform="scale(0.015625)"/>
       </defs>
       <use xlink:href="#DejaVuSans-33"/>
      </g>
     </g>
    </g>
    <g id="ytick_5">
     <g id="line2d_21">
      <path d="M 34.240625 48.395669 
L 391.360625 48.395669 
" clip-path="url(#p2645fe6fe1)" style="fill: none; stroke-dasharray: 2.96,1.28; stroke-dashoffset: 0; stroke: #808080; stroke-width: 0.8"/>
     </g>
     <g id="line2d_22">
      <g>
       <use xlink:href="#m3a1c7eb99a" x="34.240625" y="48.395669" style="stroke: #000000; stroke-width: 0.8"/>
      </g>
     </g>
     <g id="text_12">
      <!-- 4 -->
      <g transform="translate(20.878125 52.194888) scale(0.1 -0.1)">
       <use xlink:href="#DejaVuSans-34"/>
      </g>
     </g>
    </g>
    <g id="text_13">
     <!-- f(x) -->
     <g transform="translate(14.798438 171.877459) rotate(-90) scale(0.1 -0.1)">
      <defs>
       <path id="DejaVuSans-66" d="M 2375 4863 
L 2375 4384 
L 1825 4384 
Q 1516 4384 1395 4259 
Q 1275 4134 1275 3809 
L 1275 3500 
L 2222 3500 
L 2222 3053 
L 1275 3053 
L 1275 0 
L 697 0 
L 697 3053 
L 147 3053 
L 147 3500 
L 697 3500 
L 697 3744 
Q 697 4328 969 4595 
Q 1241 4863 1831 4863 
L 2375 4863 
z
" transform="scale(0.015625)"/>
       <path id="DejaVuSans-28" d="M 1984 4856 
Q 1566 4138 1362 3434 
Q 1159 2731 1159 2009 
Q 1159 1288 1364 580 
Q 1569 -128 1984 -844 
L 1484 -844 
Q 1016 -109 783 600 
Q 550 1309 550 2009 
Q 550 2706 781 3412 
Q 1013 4119 1484 4856 
L 1984 4856 
z
" transform="scale(0.015625)"/>
       <path id="DejaVuSans-29" d="M 513 4856 
L 1013 4856 
Q 1481 4119 1714 3412 
Q 1947 2706 1947 2009 
Q 1947 1309 1714 600 
Q 1481 -109 1013 -844 
L 513 -844 
Q 928 -128 1133 580 
Q 1338 1288 1338 2009 
Q 1338 2731 1133 3434 
Q 928 4138 513 4856 
z
" transform="scale(0.015625)"/>
      </defs>
      <use xlink:href="#DejaVuSans-66"/>
      <use xlink:href="#DejaVuSans-28" x="35.205078"/>
      <use xlink:href="#DejaVuSans-78" x="74.21875"/>
      <use xlink:href="#DejaVuSans-29" x="133.398438"/>
     </g>
    </g>
   </g>
   <g id="line2d_23">
    <path d="M 50.473352 284.216363 
L 51.555534 284.073389 
L 52.637716 283.645206 
L 53.719898 282.928431 
L 54.80208 281.913748 
L 55.884261 280.585776 
L 56.966443 278.922708 
L 58.048625 276.895721 
L 59.130807 274.46815 
L 60.212989 271.594409 
L 61.29517 268.218654 
L 62.377352 264.273179 
L 63.459534 259.676579 
L 64.541716 254.331748 
L 65.623898 248.123904 
L 66.70608 240.919009 
L 67.788261 232.563264 
L 68.870443 222.884897 
L 69.952625 211.700296 
L 71.034807 198.827732 
L 72.116989 184.113549 
L 73.19917 167.477243 
L 75.363534 128.935762 
L 77.527898 87.338542 
L 78.61008 68.553974 
L 79.692261 53.613389 
L 80.774443 44.421713 
L 81.856625 42.296365 
L 82.938807 47.522841 
L 84.020989 59.255416 
L 85.10317 75.824151 
L 90.51408 172.318677 
L 91.596261 187.829991 
L 92.678443 201.511539 
L 93.760625 213.476472 
L 94.842807 223.886499 
L 95.924989 232.917886 
L 97.00717 240.742452 
L 98.089352 247.518098 
L 99.171534 253.385007 
L 100.253716 258.464996 
L 101.335898 262.862495 
L 102.41808 266.66624 
L 103.500261 269.951193 
L 104.582443 272.780427 
L 105.664625 275.206843 
L 106.746807 277.274681 
L 107.828989 279.020817 
L 108.91117 280.475854 
L 109.993352 281.665039 
L 111.075534 282.60901 
L 112.157716 283.32443 
L 113.239898 283.824488 
L 114.32208 284.119323 
L 115.404261 284.216363 
L 116.486443 284.12061 
L 117.568625 283.834875 
L 118.650807 283.359975 
L 119.732989 282.694914 
L 120.81517 281.837052 
L 121.897352 280.782284 
L 122.979534 279.525237 
L 124.061716 278.059518 
L 125.143898 276.37802 
L 126.22608 274.473339 
L 128.390443 269.966727 
L 130.554807 264.499716 
L 132.71917 258.084019 
L 134.883534 250.835715 
L 140.294443 231.563798 
L 141.376625 228.198375 
L 142.458807 225.262989 
L 143.540989 222.876272 
L 144.62317 221.142303 
L 145.705352 220.140099 
L 146.787534 219.914907 
L 147.869716 220.473022 
L 148.951898 221.781244 
L 150.03408 223.771047 
L 151.116261 226.346565 
L 152.198443 229.394733 
L 154.362807 236.432366 
L 159.773716 254.901975 
L 161.93808 261.333353 
L 164.102443 266.906865 
L 166.266807 271.597617 
L 168.43117 275.441606 
L 170.595534 278.501042 
L 171.677716 279.757917 
L 172.759898 280.843914 
L 173.84208 281.766671 
L 174.924261 282.533175 
L 176.006443 283.149708 
L 177.088625 283.621819 
L 178.170807 283.954328 
L 179.252989 284.151355 
L 180.33517 284.216363 
L 181.417352 284.152217 
L 182.499534 283.961256 
L 183.581716 283.645385 
L 184.663898 283.206174 
L 186.828261 281.96311 
L 188.992625 280.243199 
L 191.156989 278.062606 
L 193.321352 275.450375 
L 195.485716 272.458345 
L 198.732261 267.45843 
L 203.060989 260.659436 
L 205.225352 257.704185 
L 206.307534 256.451169 
L 207.389716 255.389866 
L 208.471898 254.547784 
L 209.55408 253.947359 
L 210.636261 253.604582 
L 211.718443 253.527984 
L 212.800625 253.718107 
L 213.882807 254.167512 
L 214.964989 254.861332 
L 216.04717 255.778292 
L 217.129352 256.892078 
L 219.293716 259.589047 
L 222.540261 264.333899 
L 226.868989 270.807708 
L 229.033352 273.752879 
L 231.197716 276.379866 
L 233.36208 278.642176 
L 235.526443 280.518236 
L 237.690807 282.002708 
L 239.85517 283.09991 
L 242.019534 283.819313 
L 244.183898 284.172804 
L 246.348261 284.173382 
L 248.512625 283.834995 
L 250.676989 283.173347 
L 252.841352 282.207529 
L 255.005716 280.962385 
L 257.17008 279.471448 
L 260.416625 276.877579 
L 267.991898 270.463784 
L 270.156261 268.985128 
L 272.320625 267.859656 
L 274.484989 267.17208 
L 275.56717 267.010233 
L 276.649352 266.974146 
L 277.731534 267.063771 
L 278.813716 267.276338 
L 280.97808 268.046609 
L 283.142443 269.216493 
L 285.306807 270.692645 
L 288.553352 273.252329 
L 293.964261 277.635663 
L 297.210807 279.932832 
L 299.37517 281.227687 
L 301.539534 282.302708 
L 303.703898 283.143268 
L 305.868261 283.742396 
L 308.032625 284.098946 
L 310.196989 284.216363 
L 312.361352 284.102043 
L 314.525716 283.767223 
L 316.69008 283.227329 
L 318.854443 282.502653 
L 322.100989 281.127942 
L 326.429716 278.948454 
L 331.840625 276.210751 
L 334.004989 275.292456 
L 336.169352 274.558439 
L 338.333716 274.053713 
L 340.49808 273.809262 
L 342.662443 273.83849 
L 344.826807 274.135796 
L 346.99117 274.677593 
L 349.155534 275.425535 
L 352.40208 276.826527 
L 363.223898 281.850308 
L 366.470443 282.948861 
L 369.716989 283.720525 
L 371.881352 284.038698 
L 374.045716 284.1968 
L 375.127898 284.216363 
L 375.127898 284.216363 
" clip-path="url(#p2645fe6fe1)" style="fill: none; stroke: #1f77b4; stroke-width: 1.5; stroke-linecap: square"/>
   </g>
   <g id="line2d_24">
    <path d="M 50.473352 284.216363 
L 51.555534 284.073388 
L 52.637716 283.645206 
L 53.719898 282.928432 
L 54.80208 281.91375 
L 55.884261 280.585777 
L 56.966443 278.922706 
L 58.048625 276.895721 
L 59.130807 274.468151 
L 60.212989 271.594406 
L 61.29517 268.218656 
L 62.377352 264.273176 
L 63.459534 259.676582 
L 64.541716 254.331744 
L 65.623898 248.123908 
L 66.70608 240.919005 
L 67.788261 232.563267 
L 68.870443 222.884895 
L 69.952625 211.700296 
L 71.034807 198.827736 
L 72.116989 184.113543 
L 73.19917 167.477249 
L 75.363534 128.935759 
L 77.527898 87.338536 
L 78.61008 68.553974 
L 79.692261 53.613395 
L 80.774443 44.421707 
L 81.856625 42.296366 
L 82.938807 47.522845 
L 84.020989 59.255413 
L 85.10317 75.824151 
L 90.51408 172.318677 
L 91.596261 187.829993 
L 92.678443 201.511538 
L 93.760625 213.476471 
L 94.842807 223.886502 
L 95.924989 232.917887 
L 97.00717 240.742449 
L 98.089352 247.518099 
L 99.171534 253.38501 
L 100.253716 258.464995 
L 101.335898 262.862492 
L 102.41808 266.666241 
L 103.500261 269.951195 
L 104.582443 272.780425 
L 105.664625 275.206841 
L 106.746807 277.274684 
L 107.828989 279.020819 
L 108.91117 280.475852 
L 109.993352 281.665037 
L 111.075534 282.609013 
L 112.157716 283.324432 
L 113.239898 283.824486 
L 114.32208 284.119321 
L 115.404261 284.216365 
L 116.486443 284.120612 
L 117.568625 283.834873 
L 118.650807 283.359973 
L 119.732989 282.694915 
L 120.81517 281.837054 
L 121.897352 280.782282 
L 122.979534 279.525235 
L 124.061716 278.059519 
L 125.143898 276.378023 
L 126.22608 274.473338 
L 128.390443 269.966727 
L 130.554807 264.499716 
L 132.71917 258.084017 
L 134.883534 250.835717 
L 140.294443 231.563798 
L 141.376625 228.198374 
L 142.458807 225.262988 
L 143.540989 222.876273 
L 144.62317 221.142305 
L 145.705352 220.140099 
L 146.787534 219.914905 
L 147.869716 220.473022 
L 148.951898 221.781246 
L 150.03408 223.771049 
L 151.116261 226.346564 
L 152.198443 229.394731 
L 154.362807 236.432368 
L 159.773716 254.901977 
L 161.93808 261.333352 
L 164.102443 266.906866 
L 166.266807 271.597618 
L 168.43117 275.441605 
L 170.595534 278.501043 
L 171.677716 279.757917 
L 172.759898 280.843913 
L 173.84208 281.76667 
L 174.924261 282.533176 
L 176.006443 283.14971 
L 177.088625 283.621819 
L 178.170807 283.954326 
L 179.252989 284.151354 
L 180.33517 284.216364 
L 181.417352 284.152218 
L 182.499534 283.961256 
L 183.581716 283.645384 
L 184.663898 283.206173 
L 186.828261 281.963111 
L 188.992625 280.243198 
L 191.156989 278.062607 
L 193.321352 275.450375 
L 195.485716 272.458344 
L 198.732261 267.45843 
L 203.060989 260.659437 
L 205.225352 257.704184 
L 206.307534 256.451168 
L 207.389716 255.389866 
L 208.471898 254.547785 
L 209.55408 253.94736 
L 210.636261 253.604581 
L 211.718443 253.527983 
L 212.800625 253.718107 
L 213.882807 254.167513 
L 214.964989 254.861333 
L 216.04717 255.778292 
L 217.129352 256.892077 
L 219.293716 259.589048 
L 222.540261 264.333898 
L 226.868989 270.807708 
L 229.033352 273.752879 
L 231.197716 276.379867 
L 233.36208 278.642175 
L 235.526443 280.518237 
L 237.690807 282.002708 
L 239.85517 283.09991 
L 242.019534 283.819314 
L 244.183898 284.172803 
L 246.348261 284.173382 
L 248.512625 283.834995 
L 250.676989 283.173346 
L 252.841352 282.20753 
L 255.005716 280.962384 
L 257.17008 279.471448 
L 260.416625 276.877579 
L 267.991898 270.463785 
L 270.156261 268.985127 
L 272.320625 267.859656 
L 274.484989 267.172081 
L 275.56717 267.010232 
L 276.649352 266.974146 
L 277.731534 267.063771 
L 278.813716 267.276339 
L 280.97808 268.046608 
L 283.142443 269.216494 
L 285.306807 270.692644 
L 288.553352 273.25233 
L 293.964261 277.635664 
L 297.210807 279.932832 
L 299.37517 281.227687 
L 301.539534 282.302708 
L 303.703898 283.143268 
L 305.868261 283.742396 
L 308.032625 284.098946 
L 310.196989 284.216362 
L 312.361352 284.102043 
L 314.525716 283.767223 
L 316.69008 283.227329 
L 318.854443 282.502653 
L 322.100989 281.127942 
L 326.429716 278.948454 
L 331.840625 276.210752 
L 334.004989 275.292456 
L 336.169352 274.558439 
L 338.333716 274.053713 
L 340.49808 273.809262 
L 342.662443 273.83849 
L 344.826807 274.135795 
L 346.99117 274.677593 
L 349.155534 275.425535 
L 352.40208 276.826527 
L 363.223898 281.850308 
L 366.470443 282.948861 
L 369.716989 283.720525 
L 371.881352 284.038698 
L 374.045716 284.1968 
L 375.127898 284.216363 
L 375.127898 284.216363 
" clip-path="url(#p2645fe6fe1)" style="fill: none; stroke-dasharray: 5.55,2.4; stroke-dashoffset: 0; stroke: #ff7f0e; stroke-width: 1.5"/>
    <defs>
     <path id="m64a27d3cf2" d="M 0 1.5 
C 0.397805 1.5 0.77937 1.341951 1.06066 1.06066 
C 1.341951 0.77937 1.5 0.397805 1.5 0 
C 1.5 -0.397805 1.341951 -0.77937 1.06066 -1.06066 
C 0.77937 -1.341951 0.397805 -1.5 0 -1.5 
C -0.397805 -1.5 -0.77937 -1.341951 -1.06066 -1.06066 
C -1.341951 -0.77937 -1.5 -0.397805 -1.5 0 
C -1.5 0.397805 -1.341951 0.77937 -1.06066 1.06066 
C -0.77937 1.341951 -0.397805 1.5 0 1.5 
z
" style="stroke: #ff7f0e"/>
    </defs>
    <g clip-path="url(#p2645fe6fe1)">
     <use xlink:href="#m64a27d3cf2" x="50.473352" y="284.216363" style="fill: #ff7f0e; stroke: #ff7f0e"/>
     <use xlink:href="#m64a27d3cf2" x="55.884261" y="280.585777" style="fill: #ff7f0e; stroke: #ff7f0e"/>
     <use xlink:href="#m64a27d3cf2" x="61.29517" y="268.218656" style="fill: #ff7f0e; stroke: #ff7f0e"/>
     <use xlink:href="#m64a27d3cf2" x="66.70608" y="240.919005" style="fill: #ff7f0e; stroke: #ff7f0e"/>
     <use xlink:href="#m64a27d3cf2" x="72.116989" y="184.113543" style="fill: #ff7f0e; stroke: #ff7f0e"/>
     <use xlink:href="#m64a27d3cf2" x="77.527898" y="87.338536" style="fill: #ff7f0e; stroke: #ff7f0e"/>
     <use xlink:href="#m64a27d3cf2" x="82.938807" y="47.522845" style="fill: #ff7f0e; stroke: #ff7f0e"/>
     <use xlink:href="#m64a27d3cf2" x="88.349716" y="135.957746" style="fill: #ff7f0e; stroke: #ff7f0e"/>
     <use xlink:href="#m64a27d3cf2" x="93.760625" y="213.476471" style="fill: #ff7f0e; stroke: #ff7f0e"/>
     <use xlink:href="#m64a27d3cf2" x="99.171534" y="253.38501" style="fill: #ff7f0e; stroke: #ff7f0e"/>
     <use xlink:href="#m64a27d3cf2" x="104.582443" y="272.780425" style="fill: #ff7f0e; stroke: #ff7f0e"/>
     <use xlink:href="#m64a27d3cf2" x="109.993352" y="281.665037" style="fill: #ff7f0e; stroke: #ff7f0e"/>
     <use xlink:href="#m64a27d3cf2" x="115.404261" y="284.216365" style="fill: #ff7f0e; stroke: #ff7f0e"/>
     <use xlink:href="#m64a27d3cf2" x="120.81517" y="281.837054" style="fill: #ff7f0e; stroke: #ff7f0e"/>
     <use xlink:href="#m64a27d3cf2" x="126.22608" y="274.473338" style="fill: #ff7f0e; stroke: #ff7f0e"/>
     <use xlink:href="#m64a27d3cf2" x="131.636989" y="261.40639" style="fill: #ff7f0e; stroke: #ff7f0e"/>
     <use xlink:href="#m64a27d3cf2" x="137.047898" y="243.043882" style="fill: #ff7f0e; stroke: #ff7f0e"/>
     <use xlink:href="#m64a27d3cf2" x="142.458807" y="225.262988" style="fill: #ff7f0e; stroke: #ff7f0e"/>
     <use xlink:href="#m64a27d3cf2" x="147.869716" y="220.473022" style="fill: #ff7f0e; stroke: #ff7f0e"/>
     <use xlink:href="#m64a27d3cf2" x="153.280625" y="232.795759" style="fill: #ff7f0e; stroke: #ff7f0e"/>
     <use xlink:href="#m64a27d3cf2" x="158.691534" y="251.401525" style="fill: #ff7f0e; stroke: #ff7f0e"/>
     <use xlink:href="#m64a27d3cf2" x="164.102443" y="266.906866" style="fill: #ff7f0e; stroke: #ff7f0e"/>
     <use xlink:href="#m64a27d3cf2" x="169.513352" y="277.065116" style="fill: #ff7f0e; stroke: #ff7f0e"/>
     <use xlink:href="#m64a27d3cf2" x="174.924261" y="282.533176" style="fill: #ff7f0e; stroke: #ff7f0e"/>
     <use xlink:href="#m64a27d3cf2" x="180.33517" y="284.216364" style="fill: #ff7f0e; stroke: #ff7f0e"/>
     <use xlink:href="#m64a27d3cf2" x="185.74608" y="282.644985" style="fill: #ff7f0e; stroke: #ff7f0e"/>
     <use xlink:href="#m64a27d3cf2" x="191.156989" y="278.062607" style="fill: #ff7f0e; stroke: #ff7f0e"/>
     <use xlink:href="#m64a27d3cf2" x="196.567898" y="270.845136" style="fill: #ff7f0e; stroke: #ff7f0e"/>
     <use xlink:href="#m64a27d3cf2" x="201.978807" y="262.295521" style="fill: #ff7f0e; stroke: #ff7f0e"/>
     <use xlink:href="#m64a27d3cf2" x="207.389716" y="255.389866" style="fill: #ff7f0e; stroke: #ff7f0e"/>
     <use xlink:href="#m64a27d3cf2" x="212.800625" y="253.718107" style="fill: #ff7f0e; stroke: #ff7f0e"/>
     <use xlink:href="#m64a27d3cf2" x="218.211534" y="258.172893" style="fill: #ff7f0e; stroke: #ff7f0e"/>
     <use xlink:href="#m64a27d3cf2" x="223.622443" y="265.983837" style="fill: #ff7f0e; stroke: #ff7f0e"/>
     <use xlink:href="#m64a27d3cf2" x="229.033352" y="273.752879" style="fill: #ff7f0e; stroke: #ff7f0e"/>
     <use xlink:href="#m64a27d3cf2" x="234.444261" y="279.629113" style="fill: #ff7f0e; stroke: #ff7f0e"/>
     <use xlink:href="#m64a27d3cf2" x="239.85517" y="283.09991" style="fill: #ff7f0e; stroke: #ff7f0e"/>
     <use xlink:href="#m64a27d3cf2" x="245.26608" y="284.216362" style="fill: #ff7f0e; stroke: #ff7f0e"/>
     <use xlink:href="#m64a27d3cf2" x="250.676989" y="283.173346" style="fill: #ff7f0e; stroke: #ff7f0e"/>
     <use xlink:href="#m64a27d3cf2" x="256.087898" y="280.245117" style="fill: #ff7f0e; stroke: #ff7f0e"/>
     <use xlink:href="#m64a27d3cf2" x="261.498807" y="275.948819" style="fill: #ff7f0e; stroke: #ff7f0e"/>
     <use xlink:href="#m64a27d3cf2" x="266.909716" y="271.303177" style="fill: #ff7f0e; stroke: #ff7f0e"/>
     <use xlink:href="#m64a27d3cf2" x="272.320625" y="267.859656" style="fill: #ff7f0e; stroke: #ff7f0e"/>
     <use xlink:href="#m64a27d3cf2" x="277.731534" y="267.063771" style="fill: #ff7f0e; stroke: #ff7f0e"/>
     <use xlink:href="#m64a27d3cf2" x="283.142443" y="269.216494" style="fill: #ff7f0e; stroke: #ff7f0e"/>
     <use xlink:href="#m64a27d3cf2" x="288.553352" y="273.25233" style="fill: #ff7f0e; stroke: #ff7f0e"/>
     <use xlink:href="#m64a27d3cf2" x="293.964261" y="277.635664" style="fill: #ff7f0e; stroke: #ff7f0e"/>
     <use xlink:href="#m64a27d3cf2" x="299.37517" y="281.227687" style="fill: #ff7f0e; stroke: #ff7f0e"/>
     <use xlink:href="#m64a27d3cf2" x="304.78608" y="283.473202" style="fill: #ff7f0e; stroke: #ff7f0e"/>
     <use xlink:href="#m64a27d3cf2" x="310.196989" y="284.216362" style="fill: #ff7f0e; stroke: #ff7f0e"/>
     <use xlink:href="#m64a27d3cf2" x="315.607898" y="283.521766" style="fill: #ff7f0e; stroke: #ff7f0e"/>
     <use xlink:href="#m64a27d3cf2" x="321.018807" y="281.619242" style="fill: #ff7f0e; stroke: #ff7f0e"/>
     <use xlink:href="#m64a27d3cf2" x="326.429716" y="278.948454" style="fill: #ff7f0e; stroke: #ff7f0e"/>
     <use xlink:href="#m64a27d3cf2" x="331.840625" y="276.210752" style="fill: #ff7f0e; stroke: #ff7f0e"/>
     <use xlink:href="#m64a27d3cf2" x="337.251534" y="274.275099" style="fill: #ff7f0e; stroke: #ff7f0e"/>
     <use xlink:href="#m64a27d3cf2" x="342.662443" y="273.83849" style="fill: #ff7f0e; stroke: #ff7f0e"/>
     <use xlink:href="#m64a27d3cf2" x="348.073352" y="275.028647" style="fill: #ff7f0e; stroke: #ff7f0e"/>
     <use xlink:href="#m64a27d3cf2" x="353.484261" y="277.341169" style="fill: #ff7f0e; stroke: #ff7f0e"/>
     <use xlink:href="#m64a27d3cf2" x="358.89517" y="279.980548" style="fill: #ff7f0e; stroke: #ff7f0e"/>
     <use xlink:href="#m64a27d3cf2" x="364.30608" y="282.249966" style="fill: #ff7f0e; stroke: #ff7f0e"/>
     <use xlink:href="#m64a27d3cf2" x="369.716989" y="283.720525" style="fill: #ff7f0e; stroke: #ff7f0e"/>
     <use xlink:href="#m64a27d3cf2" x="375.127898" y="284.216363" style="fill: #ff7f0e; stroke: #ff7f0e"/>
    </g>
   </g>
   <g id="line2d_25">
    <defs>
     <path id="m7f6ba22c5b" d="M 0 3 
C 0.795609 3 1.55874 2.683901 2.12132 2.12132 
C 2.683901 1.55874 3 0.795609 3 0 
C 3 -0.795609 2.683901 -1.55874 2.12132 -2.12132 
C 1.55874 -2.683901 0.795609 -3 0 -3 
C -0.795609 -3 -1.55874 -2.683901 -2.12132 -2.12132 
C -2.683901 -1.55874 -3 -0.795609 -3 0 
C -3 0.795609 -2.683901 1.55874 -2.12132 2.12132 
C -1.55874 2.683901 -0.795609 3 0 3 
z
" style="stroke: #00760f"/>
    </defs>
    <g clip-path="url(#p2645fe6fe1)">
     <use xlink:href="#m7f6ba22c5b" x="63.813885" y="258.014063" style="fill-opacity: 0; stroke: #00760f"/>
    </g>
   </g>
   <g id="line2d_26">
    <g clip-path="url(#p2645fe6fe1)">
     <use xlink:href="#m7f6ba22c5b" x="100.151092" y="258.014063" style="fill-opacity: 0; stroke: #00760f"/>
    </g>
   </g>
   <g id="line2d_27">
    <g clip-path="url(#p2645fe6fe1)">
     <use xlink:href="#m7f6ba22c5b" x="132.741217" y="258.014063" style="fill-opacity: 0; stroke: #00760f"/>
    </g>
   </g>
   <g id="line2d_28">
    <g clip-path="url(#p2645fe6fe1)">
     <use xlink:href="#m7f6ba22c5b" x="160.786907" y="258.014063" style="fill-opacity: 0; stroke: #00760f"/>
    </g>
   </g>
   <g id="line2d_29">
    <g clip-path="url(#p2645fe6fe1)">
     <use xlink:href="#m7f6ba22c5b" x="204.978199" y="258.014063" style="fill-opacity: 0; stroke: #00760f"/>
    </g>
   </g>
   <g id="line2d_30">
    <g clip-path="url(#p2645fe6fe1)">
     <use xlink:href="#m7f6ba22c5b" x="218.083815" y="258.014063" style="fill-opacity: 0; stroke: #00760f"/>
    </g>
   </g>
   <g id="line2d_31">
    <defs>
     <path id="m12babab911" d="M -5 5 
L 5 5 
L 5 -5 
L -5 -5 
z
" style="stroke: #00760f; stroke-linejoin: miter"/>
    </defs>
    <g clip-path="url(#p2645fe6fe1)">
     <use xlink:href="#m12babab911" x="63.813885" y="258.014063" style="fill-opacity: 0; stroke: #00760f; stroke-linejoin: miter"/>
    </g>
   </g>
   <g id="line2d_32">
    <g clip-path="url(#p2645fe6fe1)">
     <use xlink:href="#m12babab911" x="100.151092" y="258.014063" style="fill-opacity: 0; stroke: #00760f; stroke-linejoin: miter"/>
    </g>
   </g>
   <g id="line2d_33">
    <g clip-path="url(#p2645fe6fe1)">
     <use xlink:href="#m12babab911" x="132.741217" y="258.014063" style="fill-opacity: 0; stroke: #00760f; stroke-linejoin: miter"/>
    </g>
   </g>
   <g id="line2d_34">
    <g clip-path="url(#p2645fe6fe1)">
     <use xlink:href="#m12babab911" x="160.786907" y="258.014063" style="fill-opacity: 0; stroke: #00760f; stroke-linejoin: miter"/>
    </g>
   </g>
   <g id="line2d_35">
    <g clip-path="url(#p2645fe6fe1)">
     <use xlink:href="#m12babab911" x="204.978199" y="258.014063" style="fill-opacity: 0; stroke: #00760f; stroke-linejoin: miter"/>
    </g>
   </g>
   <g id="line2d_36">
    <g clip-path="url(#p2645fe6fe1)">
     <use xlink:href="#m12babab911" x="218.083815" y="258.014063" style="fill-opacity: 0; stroke: #00760f; stroke-linejoin: miter"/>
    </g>
   </g>
   <g id="line2d_37">
    <path d="M 34.240625 258.014063 
L 391.360625 258.014063 
" clip-path="url(#p2645fe6fe1)" style="fill: none; stroke: #808080; stroke-width: 1.5; stroke-linecap: square"/>
   </g>
   <g id="line2d_38">
    <path d="M 50.473352 296.312365 
L 50.473352 30.200365 
" clip-path="url(#p2645fe6fe1)" style="fill: none; stroke: #808080; stroke-width: 1.5; stroke-linecap: square"/>
   </g>
   <g id="patch_3">
    <path d="M 34.240625 296.312365 
L 34.240625 30.200365 
" style="fill: none; stroke: #000000; stroke-width: 0.8; stroke-linejoin: miter; stroke-linecap: square"/>
   </g>
   <g id="patch_4">
    <path d="M 391.360625 296.312365 
L 391.360625 30.200365 
" style="fill: none; stroke: #000000; stroke-width: 0.8; stroke-linejoin: miter; stroke-linecap: square"/>
   </g>
   <g id="patch_5">
    <path d="M 34.240625 296.312365 
L 391.360625 296.312365 
" style="fill: none; stroke: #000000; stroke-width: 0.8; stroke-linejoin: miter; stroke-linecap: square"/>
   </g>
   <g id="patch_6">
    <path d="M 34.240625 30.200365 
L 391.360625 30.200365 
" style="fill: none; stroke: #000000; stroke-width: 0.8; stroke-linejoin: miter; stroke-linecap: square"/>
   </g>
   <g id="legend_1">
    <g id="patch_7">
     <path d="M 36.240625 24.878125 
L 389.360625 24.878125 
Q 391.360625 24.878125 391.360625 22.878125 
L 391.360625 9.2 
Q 391.360625 7.2 389.360625 7.2 
L 36.240625 7.2 
Q 34.240625 7.2 34.240625 9.2 
L 34.240625 22.878125 
Q 34.240625 24.878125 36.240625 24.878125 
z
" style="fill: #ffffff; opacity: 0.8; stroke: #cccccc; stroke-linejoin: miter"/>
    </g>
    <g id="line2d_39">
     <path d="M 38.240625 15.298437 
L 53.240625 15.298437 
L 68.240625 15.298437 
" style="fill: none; stroke: #1f77b4; stroke-width: 1.5; stroke-linecap: square"/>
    </g>
    <g id="text_14">
     <!-- analytical -->
     <g transform="translate(68.740625 18.798437) scale(0.1 -0.1)">
      <defs>
       <path id="DejaVuSans-61" d="M 2194 1759 
Q 1497 1759 1228 1600 
Q 959 1441 959 1056 
Q 959 750 1161 570 
Q 1363 391 1709 391 
Q 2188 391 2477 730 
Q 2766 1069 2766 1631 
L 2766 1759 
L 2194 1759 
z
M 3341 1997 
L 3341 0 
L 2766 0 
L 2766 531 
Q 2569 213 2275 61 
Q 1981 -91 1556 -91 
Q 1019 -91 701 211 
Q 384 513 384 1019 
Q 384 1609 779 1909 
Q 1175 2209 1959 2209 
L 2766 2209 
L 2766 2266 
Q 2766 2663 2505 2880 
Q 2244 3097 1772 3097 
Q 1472 3097 1187 3025 
Q 903 2953 641 2809 
L 641 3341 
Q 956 3463 1253 3523 
Q 1550 3584 1831 3584 
Q 2591 3584 2966 3190 
Q 3341 2797 3341 1997 
z
" transform="scale(0.015625)"/>
       <path id="DejaVuSans-6e" d="M 3513 2113 
L 3513 0 
L 2938 0 
L 2938 2094 
Q 2938 2591 2744 2837 
Q 2550 3084 2163 3084 
Q 1697 3084 1428 2787 
Q 1159 2491 1159 1978 
L 1159 0 
L 581 0 
L 581 3500 
L 1159 3500 
L 1159 2956 
Q 1366 3272 1645 3428 
Q 1925 3584 2291 3584 
Q 2894 3584 3203 3211 
Q 3513 2838 3513 2113 
z
" transform="scale(0.015625)"/>
       <path id="DejaVuSans-6c" d="M 603 4863 
L 1178 4863 
L 1178 0 
L 603 0 
L 603 4863 
z
" transform="scale(0.015625)"/>
       <path id="DejaVuSans-79" d="M 2059 -325 
Q 1816 -950 1584 -1140 
Q 1353 -1331 966 -1331 
L 506 -1331 
L 506 -850 
L 844 -850 
Q 1081 -850 1212 -737 
Q 1344 -625 1503 -206 
L 1606 56 
L 191 3500 
L 800 3500 
L 1894 763 
L 2988 3500 
L 3597 3500 
L 2059 -325 
z
" transform="scale(0.015625)"/>
       <path id="DejaVuSans-74" d="M 1172 4494 
L 1172 3500 
L 2356 3500 
L 2356 3053 
L 1172 3053 
L 1172 1153 
Q 1172 725 1289 603 
Q 1406 481 1766 481 
L 2356 481 
L 2356 0 
L 1766 0 
Q 1100 0 847 248 
Q 594 497 594 1153 
L 594 3053 
L 172 3053 
L 172 3500 
L 594 3500 
L 594 4494 
L 1172 4494 
z
" transform="scale(0.015625)"/>
       <path id="DejaVuSans-69" d="M 603 3500 
L 1178 3500 
L 1178 0 
L 603 0 
L 603 3500 
z
M 603 4863 
L 1178 4863 
L 1178 4134 
L 603 4134 
L 603 4863 
z
" transform="scale(0.015625)"/>
       <path id="DejaVuSans-63" d="M 3122 3366 
L 3122 2828 
Q 2878 2963 2633 3030 
Q 2388 3097 2138 3097 
Q 1578 3097 1268 2742 
Q 959 2388 959 1747 
Q 959 1106 1268 751 
Q 1578 397 2138 397 
Q 2388 397 2633 464 
Q 2878 531 3122 666 
L 3122 134 
Q 2881 22 2623 -34 
Q 2366 -91 2075 -91 
Q 1284 -91 818 406 
Q 353 903 353 1747 
Q 353 2603 823 3093 
Q 1294 3584 2113 3584 
Q 2378 3584 2631 3529 
Q 2884 3475 3122 3366 
z
" transform="scale(0.015625)"/>
      </defs>
      <use xlink:href="#DejaVuSans-61"/>
      <use xlink:href="#DejaVuSans-6e" x="61.279297"/>
      <use xlink:href="#DejaVuSans-61" x="124.658203"/>
      <use xlink:href="#DejaVuSans-6c" x="185.9375"/>
      <use xlink:href="#DejaVuSans-79" x="213.720703"/>
      <use xlink:href="#DejaVuSans-74" x="272.900391"/>
      <use xlink:href="#DejaVuSans-69" x="312.109375"/>
      <use xlink:href="#DejaVuSans-63" x="339.892578"/>
      <use xlink:href="#DejaVuSans-61" x="394.873047"/>
      <use xlink:href="#DejaVuSans-6c" x="456.152344"/>
     </g>
    </g>
    <g id="line2d_40">
     <path d="M 295.765313 15.298437 
L 310.765313 15.298437 
L 325.765313 15.298437 
" style="fill: none; stroke-dasharray: 5.55,2.4; stroke-dashoffset: 0; stroke: #ff7f0e; stroke-width: 1.5"/>
     <g>
      <use xlink:href="#m64a27d3cf2" x="310.765313" y="15.298437" style="fill: #ff7f0e; stroke: #ff7f0e"/>
     </g>
    </g>
    <g id="text_15">
     <!-- interpolated -->
     <g transform="translate(326.265313 18.798437) scale(0.1 -0.1)">
      <defs>
       <path id="DejaVuSans-65" d="M 3597 1894 
L 3597 1613 
L 953 1613 
Q 991 1019 1311 708 
Q 1631 397 2203 397 
Q 2534 397 2845 478 
Q 3156 559 3463 722 
L 3463 178 
Q 3153 47 2828 -22 
Q 2503 -91 2169 -91 
Q 1331 -91 842 396 
Q 353 884 353 1716 
Q 353 2575 817 3079 
Q 1281 3584 2069 3584 
Q 2775 3584 3186 3129 
Q 3597 2675 3597 1894 
z
M 3022 2063 
Q 3016 2534 2758 2815 
Q 2500 3097 2075 3097 
Q 1594 3097 1305 2825 
Q 1016 2553 972 2059 
L 3022 2063 
z
" transform="scale(0.015625)"/>
       <path id="DejaVuSans-72" d="M 2631 2963 
Q 2534 3019 2420 3045 
Q 2306 3072 2169 3072 
Q 1681 3072 1420 2755 
Q 1159 2438 1159 1844 
L 1159 0 
L 581 0 
L 581 3500 
L 1159 3500 
L 1159 2956 
Q 1341 3275 1631 3429 
Q 1922 3584 2338 3584 
Q 2397 3584 2469 3576 
Q 2541 3569 2628 3553 
L 2631 2963 
z
" transform="scale(0.015625)"/>
       <path id="DejaVuSans-70" d="M 1159 525 
L 1159 -1331 
L 581 -1331 
L 581 3500 
L 1159 3500 
L 1159 2969 
Q 1341 3281 1617 3432 
Q 1894 3584 2278 3584 
Q 2916 3584 3314 3078 
Q 3713 2572 3713 1747 
Q 3713 922 3314 415 
Q 2916 -91 2278 -91 
Q 1894 -91 1617 61 
Q 1341 213 1159 525 
z
M 3116 1747 
Q 3116 2381 2855 2742 
Q 2594 3103 2138 3103 
Q 1681 3103 1420 2742 
Q 1159 2381 1159 1747 
Q 1159 1113 1420 752 
Q 1681 391 2138 391 
Q 2594 391 2855 752 
Q 3116 1113 3116 1747 
z
" transform="scale(0.015625)"/>
       <path id="DejaVuSans-6f" d="M 1959 3097 
Q 1497 3097 1228 2736 
Q 959 2375 959 1747 
Q 959 1119 1226 758 
Q 1494 397 1959 397 
Q 2419 397 2687 759 
Q 2956 1122 2956 1747 
Q 2956 2369 2687 2733 
Q 2419 3097 1959 3097 
z
M 1959 3584 
Q 2709 3584 3137 3096 
Q 3566 2609 3566 1747 
Q 3566 888 3137 398 
Q 2709 -91 1959 -91 
Q 1206 -91 779 398 
Q 353 888 353 1747 
Q 353 2609 779 3096 
Q 1206 3584 1959 3584 
z
" transform="scale(0.015625)"/>
       <path id="DejaVuSans-64" d="M 2906 2969 
L 2906 4863 
L 3481 4863 
L 3481 0 
L 2906 0 
L 2906 525 
Q 2725 213 2448 61 
Q 2172 -91 1784 -91 
Q 1150 -91 751 415 
Q 353 922 353 1747 
Q 353 2572 751 3078 
Q 1150 3584 1784 3584 
Q 2172 3584 2448 3432 
Q 2725 3281 2906 2969 
z
M 947 1747 
Q 947 1113 1208 752 
Q 1469 391 1925 391 
Q 2381 391 2643 752 
Q 2906 1113 2906 1747 
Q 2906 2381 2643 2742 
Q 2381 3103 1925 3103 
Q 1469 3103 1208 2742 
Q 947 2381 947 1747 
z
" transform="scale(0.015625)"/>
      </defs>
      <use xlink:href="#DejaVuSans-69"/>
      <use xlink:href="#DejaVuSans-6e" x="27.783203"/>
      <use xlink:href="#DejaVuSans-74" x="91.162109"/>
      <use xlink:href="#DejaVuSans-65" x="130.371094"/>
      <use xlink:href="#DejaVuSans-72" x="191.894531"/>
      <use xlink:href="#DejaVuSans-70" x="233.007812"/>
      <use xlink:href="#DejaVuSans-6f" x="296.484375"/>
      <use xlink:href="#DejaVuSans-6c" x="357.666016"/>
      <use xlink:href="#DejaVuSans-61" x="385.449219"/>
      <use xlink:href="#DejaVuSans-74" x="446.728516"/>
      <use xlink:href="#DejaVuSans-65" x="485.9375"/>
      <use xlink:href="#DejaVuSans-64" x="547.460938"/>
     </g>
    </g>
   </g>
  </g>
 </g>
 <defs>
  <clipPath id="p2645fe6fe1">
   <rect x="34.240625" y="30.200365" width="357.12" height="266.112"/>
  </clipPath>
 </defs>
</svg>
