<?xml version="1.0" encoding="utf-8" standalone="no"?>
<!DOCTYPE svg PUBLIC "-//W3C//DTD SVG 1.1//EN"
  "http://www.w3.org/Graphics/SVG/1.1/DTD/svg11.dtd">
<svg xmlns:xlink="http://www.w3.org/1999/xlink" width="409.184432pt" height="259.550771pt" viewBox="0 0 409.184432 259.550771" xmlns="http://www.w3.org/2000/svg" version="1.1">
 <metadata>
  <rdf:RDF xmlns:dc="http://purl.org/dc/elements/1.1/" xmlns:cc="http://creativecommons.org/ns#" xmlns:rdf="http://www.w3.org/1999/02/22-rdf-syntax-ns#">
   <cc:Work>
    <dc:type rdf:resource="http://purl.org/dc/dcmitype/StillImage"/>
    <dc:date>2024-04-21T12:25:53.638799</dc:date>
    <dc:format>image/svg+xml</dc:format>
    <dc:creator>
     <cc:Agent>
      <dc:title>Matplotlib v3.6.3, https://matplotlib.org/</dc:title>
     </cc:Agent>
    </dc:creator>
   </cc:Work>
  </rdf:RDF>
 </metadata>
 <defs>
  <style type="text/css">*{stroke-linejoin: round; stroke-linecap: butt}</style>
 </defs>
 <g id="figure_1">
  <g id="patch_1">
   <path d="M 0 259.550771 
L 409.184432 259.550771 
L 409.184432 0 
L 0 0 
z
" style="fill: #ffffff"/>
  </g>
  <g id="axes_1">
   <g id="patch_2">
    <path d="M 52.182813 221.994521 
L 401.984432 221.994521 
L 401.984432 7.2 
L 52.182813 7.2 
z
" style="fill: #ffffff"/>
   </g>
   <g id="matplotlib.axis_1">
    <g id="xtick_1">
     <g id="line2d_1">
      <path d="M 68.082886 221.994521 
L 68.082886 7.2 
" clip-path="url(#p5c8aa241fe)" style="fill: none; stroke-dasharray: 2.96,1.28; stroke-dashoffset: 0; stroke: #808080; stroke-width: 0.8"/>
     </g>
     <g id="line2d_2">
      <defs>
       <path id="m009c8db88d" d="M 0 0 
L 0 3.5 
" style="stroke: #000000; stroke-width: 0.8"/>
      </defs>
      <g>
       <use xlink:href="#m009c8db88d" x="68.082886" y="221.994521" style="stroke: #000000; stroke-width: 0.8"/>
      </g>
     </g>
     <g id="text_1">
      <!-- 0 -->
      <g transform="translate(64.901636 236.592958) scale(0.1 -0.1)">
       <defs>
        <path id="DejaVuSans-30" d="M 2034 4250 
Q 1547 4250 1301 3770 
Q 1056 3291 1056 2328 
Q 1056 1369 1301 889 
Q 1547 409 2034 409 
Q 2525 409 2770 889 
Q 3016 1369 3016 2328 
Q 3016 3291 2770 3770 
Q 2525 4250 2034 4250 
z
M 2034 4750 
Q 2819 4750 3233 4129 
Q 3647 3509 3647 2328 
Q 3647 1150 3233 529 
Q 2819 -91 2034 -91 
Q 1250 -91 836 529 
Q 422 1150 422 2328 
Q 422 3509 836 4129 
Q 1250 4750 2034 4750 
z
" transform="scale(0.015625)"/>
       </defs>
       <use xlink:href="#DejaVuSans-30"/>
      </g>
     </g>
    </g>
    <g id="xtick_2">
     <g id="line2d_3">
      <path d="M 110.483082 221.994521 
L 110.483082 7.2 
" clip-path="url(#p5c8aa241fe)" style="fill: none; stroke-dasharray: 2.96,1.28; stroke-dashoffset: 0; stroke: #808080; stroke-width: 0.8"/>
     </g>
     <g id="line2d_4">
      <g>
       <use xlink:href="#m009c8db88d" x="110.483082" y="221.994521" style="stroke: #000000; stroke-width: 0.8"/>
      </g>
     </g>
     <g id="text_2">
      <!-- 2 -->
      <g transform="translate(107.301832 236.592958) scale(0.1 -0.1)">
       <defs>
        <path id="DejaVuSans-32" d="M 1228 531 
L 3431 531 
L 3431 0 
L 469 0 
L 469 531 
Q 828 903 1448 1529 
Q 2069 2156 2228 2338 
Q 2531 2678 2651 2914 
Q 2772 3150 2772 3378 
Q 2772 3750 2511 3984 
Q 2250 4219 1831 4219 
Q 1534 4219 1204 4116 
Q 875 4013 500 3803 
L 500 4441 
Q 881 4594 1212 4672 
Q 1544 4750 1819 4750 
Q 2544 4750 2975 4387 
Q 3406 4025 3406 3419 
Q 3406 3131 3298 2873 
Q 3191 2616 2906 2266 
Q 2828 2175 2409 1742 
Q 1991 1309 1228 531 
z
" transform="scale(0.015625)"/>
       </defs>
       <use xlink:href="#DejaVuSans-32"/>
      </g>
     </g>
    </g>
    <g id="xtick_3">
     <g id="line2d_5">
      <path d="M 152.883279 221.994521 
L 152.883279 7.2 
" clip-path="url(#p5c8aa241fe)" style="fill: none; stroke-dasharray: 2.96,1.28; stroke-dashoffset: 0; stroke: #808080; stroke-width: 0.8"/>
     </g>
     <g id="line2d_6">
      <g>
       <use xlink:href="#m009c8db88d" x="152.883279" y="221.994521" style="stroke: #000000; stroke-width: 0.8"/>
      </g>
     </g>
     <g id="text_3">
      <!-- 4 -->
      <g transform="translate(149.702029 236.592958) scale(0.1 -0.1)">
       <defs>
        <path id="DejaVuSans-34" d="M 2419 4116 
L 825 1625 
L 2419 1625 
L 2419 4116 
z
M 2253 4666 
L 3047 4666 
L 3047 1625 
L 3713 1625 
L 3713 1100 
L 3047 1100 
L 3047 0 
L 2419 0 
L 2419 1100 
L 313 1100 
L 313 1709 
L 2253 4666 
z
" transform="scale(0.015625)"/>
       </defs>
       <use xlink:href="#DejaVuSans-34"/>
      </g>
     </g>
    </g>
    <g id="xtick_4">
     <g id="line2d_7">
      <path d="M 195.283475 221.994521 
L 195.283475 7.2 
" clip-path="url(#p5c8aa241fe)" style="fill: none; stroke-dasharray: 2.96,1.28; stroke-dashoffset: 0; stroke: #808080; stroke-width: 0.8"/>
     </g>
     <g id="line2d_8">
      <g>
       <use xlink:href="#m009c8db88d" x="195.283475" y="221.994521" style="stroke: #000000; stroke-width: 0.8"/>
      </g>
     </g>
     <g id="text_4">
      <!-- 6 -->
      <g transform="translate(192.102225 236.592958) scale(0.1 -0.1)">
       <defs>
        <path id="DejaVuSans-36" d="M 2113 2584 
Q 1688 2584 1439 2293 
Q 1191 2003 1191 1497 
Q 1191 994 1439 701 
Q 1688 409 2113 409 
Q 2538 409 2786 701 
Q 3034 994 3034 1497 
Q 3034 2003 2786 2293 
Q 2538 2584 2113 2584 
z
M 3366 4563 
L 3366 3988 
Q 3128 4100 2886 4159 
Q 2644 4219 2406 4219 
Q 1781 4219 1451 3797 
Q 1122 3375 1075 2522 
Q 1259 2794 1537 2939 
Q 1816 3084 2150 3084 
Q 2853 3084 3261 2657 
Q 3669 2231 3669 1497 
Q 3669 778 3244 343 
Q 2819 -91 2113 -91 
Q 1303 -91 875 529 
Q 447 1150 447 2328 
Q 447 3434 972 4092 
Q 1497 4750 2381 4750 
Q 2619 4750 2861 4703 
Q 3103 4656 3366 4563 
z
" transform="scale(0.015625)"/>
       </defs>
       <use xlink:href="#DejaVuSans-36"/>
      </g>
     </g>
    </g>
    <g id="xtick_5">
     <g id="line2d_9">
      <path d="M 237.683671 221.994521 
L 237.683671 7.2 
" clip-path="url(#p5c8aa241fe)" style="fill: none; stroke-dasharray: 2.96,1.28; stroke-dashoffset: 0; stroke: #808080; stroke-width: 0.8"/>
     </g>
     <g id="line2d_10">
      <g>
       <use xlink:href="#m009c8db88d" x="237.683671" y="221.994521" style="stroke: #000000; stroke-width: 0.8"/>
      </g>
     </g>
     <g id="text_5">
      <!-- 8 -->
      <g transform="translate(234.502421 236.592958) scale(0.1 -0.1)">
       <defs>
        <path id="DejaVuSans-38" d="M 2034 2216 
Q 1584 2216 1326 1975 
Q 1069 1734 1069 1313 
Q 1069 891 1326 650 
Q 1584 409 2034 409 
Q 2484 409 2743 651 
Q 3003 894 3003 1313 
Q 3003 1734 2745 1975 
Q 2488 2216 2034 2216 
z
M 1403 2484 
Q 997 2584 770 2862 
Q 544 3141 544 3541 
Q 544 4100 942 4425 
Q 1341 4750 2034 4750 
Q 2731 4750 3128 4425 
Q 3525 4100 3525 3541 
Q 3525 3141 3298 2862 
Q 3072 2584 2669 2484 
Q 3125 2378 3379 2068 
Q 3634 1759 3634 1313 
Q 3634 634 3220 271 
Q 2806 -91 2034 -91 
Q 1263 -91 848 271 
Q 434 634 434 1313 
Q 434 1759 690 2068 
Q 947 2378 1403 2484 
z
M 1172 3481 
Q 1172 3119 1398 2916 
Q 1625 2713 2034 2713 
Q 2441 2713 2670 2916 
Q 2900 3119 2900 3481 
Q 2900 3844 2670 4047 
Q 2441 4250 2034 4250 
Q 1625 4250 1398 4047 
Q 1172 3844 1172 3481 
z
" transform="scale(0.015625)"/>
       </defs>
       <use xlink:href="#DejaVuSans-38"/>
      </g>
     </g>
    </g>
    <g id="xtick_6">
     <g id="line2d_11">
      <path d="M 280.083868 221.994521 
L 280.083868 7.2 
" clip-path="url(#p5c8aa241fe)" style="fill: none; stroke-dasharray: 2.96,1.28; stroke-dashoffset: 0; stroke: #808080; stroke-width: 0.8"/>
     </g>
     <g id="line2d_12">
      <g>
       <use xlink:href="#m009c8db88d" x="280.083868" y="221.994521" style="stroke: #000000; stroke-width: 0.8"/>
      </g>
     </g>
     <g id="text_6">
      <!-- 10 -->
      <g transform="translate(273.721368 236.592958) scale(0.1 -0.1)">
       <defs>
        <path id="DejaVuSans-31" d="M 794 531 
L 1825 531 
L 1825 4091 
L 703 3866 
L 703 4441 
L 1819 4666 
L 2450 4666 
L 2450 531 
L 3481 531 
L 3481 0 
L 794 0 
L 794 531 
z
" transform="scale(0.015625)"/>
       </defs>
       <use xlink:href="#DejaVuSans-31"/>
       <use xlink:href="#DejaVuSans-30" x="63.623047"/>
      </g>
     </g>
    </g>
    <g id="xtick_7">
     <g id="line2d_13">
      <path d="M 322.484064 221.994521 
L 322.484064 7.2 
" clip-path="url(#p5c8aa241fe)" style="fill: none; stroke-dasharray: 2.96,1.28; stroke-dashoffset: 0; stroke: #808080; stroke-width: 0.8"/>
     </g>
     <g id="line2d_14">
      <g>
       <use xlink:href="#m009c8db88d" x="322.484064" y="221.994521" style="stroke: #000000; stroke-width: 0.8"/>
      </g>
     </g>
     <g id="text_7">
      <!-- 12 -->
      <g transform="translate(316.121564 236.592958) scale(0.1 -0.1)">
       <use xlink:href="#DejaVuSans-31"/>
       <use xlink:href="#DejaVuSans-32" x="63.623047"/>
      </g>
     </g>
    </g>
    <g id="xtick_8">
     <g id="line2d_15">
      <path d="M 364.88426 221.994521 
L 364.88426 7.2 
" clip-path="url(#p5c8aa241fe)" style="fill: none; stroke-dasharray: 2.96,1.28; stroke-dashoffset: 0; stroke: #808080; stroke-width: 0.8"/>
     </g>
     <g id="line2d_16">
      <g>
       <use xlink:href="#m009c8db88d" x="364.88426" y="221.994521" style="stroke: #000000; stroke-width: 0.8"/>
      </g>
     </g>
     <g id="text_8">
      <!-- 14 -->
      <g transform="translate(358.52176 236.592958) scale(0.1 -0.1)">
       <use xlink:href="#DejaVuSans-31"/>
       <use xlink:href="#DejaVuSans-34" x="63.623047"/>
      </g>
     </g>
    </g>
    <g id="text_9">
     <!-- $x$ -->
     <g transform="translate(224.083622 250.271083) scale(0.1 -0.1)">
      <defs>
       <path id="DejaVuSans-Oblique-78" d="M 3841 3500 
L 2234 1784 
L 3219 0 
L 2559 0 
L 1819 1388 
L 531 0 
L -166 0 
L 1556 1844 
L 641 3500 
L 1300 3500 
L 1972 2234 
L 3144 3500 
L 3841 3500 
z
" transform="scale(0.015625)"/>
      </defs>
      <use xlink:href="#DejaVuSans-Oblique-78" transform="translate(0 0.3125)"/>
     </g>
    </g>
   </g>
   <g id="matplotlib.axis_2">
    <g id="ytick_1">
     <g id="line2d_17">
      <path d="M 52.182813 211.976778 
L 401.984432 211.976778 
" clip-path="url(#p5c8aa241fe)" style="fill: none; stroke-dasharray: 2.96,1.28; stroke-dashoffset: 0; stroke: #808080; stroke-width: 0.8"/>
     </g>
     <g id="line2d_18">
      <defs>
       <path id="meb6fc54040" d="M 0 0 
L -3.5 0 
" style="stroke: #000000; stroke-width: 0.8"/>
      </defs>
      <g>
       <use xlink:href="#meb6fc54040" x="52.182813" y="211.976778" style="stroke: #000000; stroke-width: 0.8"/>
      </g>
     </g>
     <g id="text_10">
      <!-- −0.4 -->
      <g transform="translate(20.9 215.775997) scale(0.1 -0.1)">
       <defs>
        <path id="DejaVuSans-2212" d="M 678 2272 
L 4684 2272 
L 4684 1741 
L 678 1741 
L 678 2272 
z
" transform="scale(0.015625)"/>
        <path id="DejaVuSans-2e" d="M 684 794 
L 1344 794 
L 1344 0 
L 684 0 
L 684 794 
z
" transform="scale(0.015625)"/>
       </defs>
       <use xlink:href="#DejaVuSans-2212"/>
       <use xlink:href="#DejaVuSans-30" x="83.789062"/>
       <use xlink:href="#DejaVuSans-2e" x="147.412109"/>
       <use xlink:href="#DejaVuSans-34" x="179.199219"/>
      </g>
     </g>
    </g>
    <g id="ytick_2">
     <g id="line2d_19">
      <path d="M 52.182813 184.117722 
L 401.984432 184.117722 
" clip-path="url(#p5c8aa241fe)" style="fill: none; stroke-dasharray: 2.96,1.28; stroke-dashoffset: 0; stroke: #808080; stroke-width: 0.8"/>
     </g>
     <g id="line2d_20">
      <g>
       <use xlink:href="#meb6fc54040" x="52.182813" y="184.117722" style="stroke: #000000; stroke-width: 0.8"/>
      </g>
     </g>
     <g id="text_11">
      <!-- −0.2 -->
      <g transform="translate(20.9 187.916941) scale(0.1 -0.1)">
       <use xlink:href="#DejaVuSans-2212"/>
       <use xlink:href="#DejaVuSans-30" x="83.789062"/>
       <use xlink:href="#DejaVuSans-2e" x="147.412109"/>
       <use xlink:href="#DejaVuSans-32" x="179.199219"/>
      </g>
     </g>
    </g>
    <g id="ytick_3">
     <g id="line2d_21">
      <path d="M 52.182813 156.258666 
L 401.984432 156.258666 
" clip-path="url(#p5c8aa241fe)" style="fill: none; stroke-dasharray: 2.96,1.28; stroke-dashoffset: 0; stroke: #808080; stroke-width: 0.8"/>
     </g>
     <g id="line2d_22">
      <g>
       <use xlink:href="#meb6fc54040" x="52.182813" y="156.258666" style="stroke: #000000; stroke-width: 0.8"/>
      </g>
     </g>
     <g id="text_12">
      <!-- 0.0 -->
      <g transform="translate(29.279688 160.057885) scale(0.1 -0.1)">
       <use xlink:href="#DejaVuSans-30"/>
       <use xlink:href="#DejaVuSans-2e" x="63.623047"/>
       <use xlink:href="#DejaVuSans-30" x="95.410156"/>
      </g>
     </g>
    </g>
    <g id="ytick_4">
     <g id="line2d_23">
      <path d="M 52.182813 128.399611 
L 401.984432 128.399611 
" clip-path="url(#p5c8aa241fe)" style="fill: none; stroke-dasharray: 2.96,1.28; stroke-dashoffset: 0; stroke: #808080; stroke-width: 0.8"/>
     </g>
     <g id="line2d_24">
      <g>
       <use xlink:href="#meb6fc54040" x="52.182813" y="128.399611" style="stroke: #000000; stroke-width: 0.8"/>
      </g>
     </g>
     <g id="text_13">
      <!-- 0.2 -->
      <g transform="translate(29.279688 132.198829) scale(0.1 -0.1)">
       <use xlink:href="#DejaVuSans-30"/>
       <use xlink:href="#DejaVuSans-2e" x="63.623047"/>
       <use xlink:href="#DejaVuSans-32" x="95.410156"/>
      </g>
     </g>
    </g>
    <g id="ytick_5">
     <g id="line2d_25">
      <path d="M 52.182813 100.540555 
L 401.984432 100.540555 
" clip-path="url(#p5c8aa241fe)" style="fill: none; stroke-dasharray: 2.96,1.28; stroke-dashoffset: 0; stroke: #808080; stroke-width: 0.8"/>
     </g>
     <g id="line2d_26">
      <g>
       <use xlink:href="#meb6fc54040" x="52.182813" y="100.540555" style="stroke: #000000; stroke-width: 0.8"/>
      </g>
     </g>
     <g id="text_14">
      <!-- 0.4 -->
      <g transform="translate(29.279688 104.339773) scale(0.1 -0.1)">
       <use xlink:href="#DejaVuSans-30"/>
       <use xlink:href="#DejaVuSans-2e" x="63.623047"/>
       <use xlink:href="#DejaVuSans-34" x="95.410156"/>
      </g>
     </g>
    </g>
    <g id="ytick_6">
     <g id="line2d_27">
      <path d="M 52.182813 72.681499 
L 401.984432 72.681499 
" clip-path="url(#p5c8aa241fe)" style="fill: none; stroke-dasharray: 2.96,1.28; stroke-dashoffset: 0; stroke: #808080; stroke-width: 0.8"/>
     </g>
     <g id="line2d_28">
      <g>
       <use xlink:href="#meb6fc54040" x="52.182813" y="72.681499" style="stroke: #000000; stroke-width: 0.8"/>
      </g>
     </g>
     <g id="text_15">
      <!-- 0.6 -->
      <g transform="translate(29.279688 76.480718) scale(0.1 -0.1)">
       <use xlink:href="#DejaVuSans-30"/>
       <use xlink:href="#DejaVuSans-2e" x="63.623047"/>
       <use xlink:href="#DejaVuSans-36" x="95.410156"/>
      </g>
     </g>
    </g>
    <g id="ytick_7">
     <g id="line2d_29">
      <path d="M 52.182813 44.822443 
L 401.984432 44.822443 
" clip-path="url(#p5c8aa241fe)" style="fill: none; stroke-dasharray: 2.96,1.28; stroke-dashoffset: 0; stroke: #808080; stroke-width: 0.8"/>
     </g>
     <g id="line2d_30">
      <g>
       <use xlink:href="#meb6fc54040" x="52.182813" y="44.822443" style="stroke: #000000; stroke-width: 0.8"/>
      </g>
     </g>
     <g id="text_16">
      <!-- 0.8 -->
      <g transform="translate(29.279688 48.621662) scale(0.1 -0.1)">
       <use xlink:href="#DejaVuSans-30"/>
       <use xlink:href="#DejaVuSans-2e" x="63.623047"/>
       <use xlink:href="#DejaVuSans-38" x="95.410156"/>
      </g>
     </g>
    </g>
    <g id="ytick_8">
     <g id="line2d_31">
      <path d="M 52.182813 16.963387 
L 401.984432 16.963387 
" clip-path="url(#p5c8aa241fe)" style="fill: none; stroke-dasharray: 2.96,1.28; stroke-dashoffset: 0; stroke: #808080; stroke-width: 0.8"/>
     </g>
     <g id="line2d_32">
      <g>
       <use xlink:href="#meb6fc54040" x="52.182813" y="16.963387" style="stroke: #000000; stroke-width: 0.8"/>
      </g>
     </g>
     <g id="text_17">
      <!-- 1.0 -->
      <g transform="translate(29.279688 20.762606) scale(0.1 -0.1)">
       <use xlink:href="#DejaVuSans-31"/>
       <use xlink:href="#DejaVuSans-2e" x="63.623047"/>
       <use xlink:href="#DejaVuSans-30" x="95.410156"/>
      </g>
     </g>
    </g>
    <g id="text_18">
     <!-- $J_0(x),\,J_1(x),\,J_2(x)$ -->
     <g transform="translate(14.8 153.44726) rotate(-90) scale(0.1 -0.1)">
      <defs>
       <path id="DejaVuSans-Oblique-4a" d="M 1069 4666 
L 1703 4666 
L 856 325 
Q 691 -522 298 -901 
Q -94 -1281 -800 -1281 
L -1050 -1281 
L -947 -750 
L -750 -750 
Q -328 -750 -109 -509 
Q 109 -269 225 325 
L 1069 4666 
z
" transform="scale(0.015625)"/>
       <path id="DejaVuSans-28" d="M 1984 4856 
Q 1566 4138 1362 3434 
Q 1159 2731 1159 2009 
Q 1159 1288 1364 580 
Q 1569 -128 1984 -844 
L 1484 -844 
Q 1016 -109 783 600 
Q 550 1309 550 2009 
Q 550 2706 781 3412 
Q 1013 4119 1484 4856 
L 1984 4856 
z
" transform="scale(0.015625)"/>
       <path id="DejaVuSans-29" d="M 513 4856 
L 1013 4856 
Q 1481 4119 1714 3412 
Q 1947 2706 1947 2009 
Q 1947 1309 1714 600 
Q 1481 -109 1013 -844 
L 513 -844 
Q 928 -128 1133 580 
Q 1338 1288 1338 2009 
Q 1338 2731 1133 3434 
Q 928 4138 513 4856 
z
" transform="scale(0.015625)"/>
       <path id="DejaVuSans-2c" d="M 750 794 
L 1409 794 
L 1409 256 
L 897 -744 
L 494 -744 
L 750 256 
L 750 794 
z
" transform="scale(0.015625)"/>
      </defs>
      <use xlink:href="#DejaVuSans-Oblique-4a" transform="translate(0 0.125)"/>
      <use xlink:href="#DejaVuSans-30" transform="translate(29.492188 -16.28125) scale(0.7)"/>
      <use xlink:href="#DejaVuSans-28" transform="translate(76.762695 0.125)"/>
      <use xlink:href="#DejaVuSans-Oblique-78" transform="translate(115.776367 0.125)"/>
      <use xlink:href="#DejaVuSans-29" transform="translate(174.956055 0.125)"/>
      <use xlink:href="#DejaVuSans-2c" transform="translate(213.969727 0.125)"/>
      <use xlink:href="#DejaVuSans-Oblique-4a" transform="translate(281.474934 0.125)"/>
      <use xlink:href="#DejaVuSans-31" transform="translate(310.967122 -16.28125) scale(0.7)"/>
      <use xlink:href="#DejaVuSans-28" transform="translate(358.237629 0.125)"/>
      <use xlink:href="#DejaVuSans-Oblique-78" transform="translate(397.251301 0.125)"/>
      <use xlink:href="#DejaVuSans-29" transform="translate(456.430989 0.125)"/>
      <use xlink:href="#DejaVuSans-2c" transform="translate(495.444661 0.125)"/>
      <use xlink:href="#DejaVuSans-Oblique-4a" transform="translate(562.949868 0.125)"/>
      <use xlink:href="#DejaVuSans-32" transform="translate(592.442056 -16.28125) scale(0.7)"/>
      <use xlink:href="#DejaVuSans-28" transform="translate(639.712563 0.125)"/>
      <use xlink:href="#DejaVuSans-Oblique-78" transform="translate(678.726235 0.125)"/>
      <use xlink:href="#DejaVuSans-29" transform="translate(737.905923 0.125)"/>
     </g>
    </g>
   </g>
   <g id="line2d_33">
    <path d="M 68.082886 16.963387 
L 71.262901 17.745822 
L 74.442916 20.079946 
L 77.62293 23.926462 
L 80.802945 29.220694 
L 83.98296 35.873797 
L 87.162974 43.774414 
L 90.342989 52.790752 
L 93.523004 62.773043 
L 96.703019 73.556323 
L 99.883033 84.963488 
L 103.063048 96.808571 
L 106.243063 108.900164 
L 109.423078 121.044925 
L 112.603092 133.051101 
L 115.783107 144.732003 
L 118.963122 155.909358 
L 122.143136 166.416479 
L 125.323151 176.101191 
L 128.503166 184.828461 
L 131.683181 192.482676 
L 134.863195 198.969534 
L 138.04321 204.21751 
L 141.223225 208.178873 
L 144.403239 210.830236 
L 147.583254 212.172635 
L 150.763269 212.231133 
L 153.943284 211.053974 
L 157.123298 208.711286 
L 160.303313 205.29339 
L 163.483328 200.908725 
L 166.663343 195.681451 
L 169.843357 189.748779 
L 173.023372 183.258078 
L 176.203387 176.363815 
L 179.383401 169.224409 
L 182.563416 161.999039 
L 185.743431 154.844491 
L 188.923446 147.912092 
L 192.10346 141.344798 
L 195.283475 135.274493 
L 198.46349 129.819553 
L 201.643504 125.082711 
L 204.823519 121.149273 
L 208.003534 118.08572 
L 211.183549 115.938702 
L 214.363563 114.73446 
L 217.543578 114.47867 
L 220.723593 115.156712 
L 223.903608 116.73435 
L 227.083622 119.158809 
L 230.263637 122.360217 
L 233.443652 126.253376 
L 236.623666 130.739831 
L 239.803681 135.710181 
L 242.983696 141.046581 
L 246.163711 146.625386 
L 249.343725 152.31988 
L 252.52374 158.003024 
L 255.703755 163.550174 
L 258.883769 168.841712 
L 262.063784 173.765523 
L 265.243799 178.21929 
L 268.423814 182.112541 
L 271.603828 185.368415 
L 274.783843 187.925122 
L 277.963858 189.737048 
L 281.143873 190.775512 
L 284.323887 191.029146 
L 287.503902 190.503892 
L 290.683917 189.222643 
L 293.863931 187.224505 
L 297.043946 184.563741 
L 300.223961 181.308381 
L 303.403976 177.538569 
L 306.58399 173.344659 
L 309.764005 168.82512 
L 312.94402 164.084287 
L 316.124034 159.230013 
L 319.304049 154.371273 
L 322.484064 149.615771 
L 325.664079 145.067605 
L 328.844093 140.825035 
L 332.024108 136.978401 
L 335.204123 133.608241 
L 338.384138 130.783641 
L 341.564152 128.560854 
L 344.744167 126.982208 
L 347.924182 126.07534 
L 351.104196 125.85275 
L 354.284211 126.311691 
L 357.464226 127.434395 
L 360.644241 129.18863 
L 363.824255 131.528554 
L 367.00427 134.395872 
L 370.184285 137.721245 
L 373.364299 141.425931 
L 376.544314 145.423615 
L 379.724329 149.622382 
L 382.904344 153.926803 
L 386.084358 158.240068 
" clip-path="url(#p5c8aa241fe)" style="fill: none; stroke: #1f77b4; stroke-width: 1.5; stroke-linecap: square"/>
   </g>
   <g id="line2d_34">
    <path d="M 68.082886 156.258666 
L 71.262901 145.840876 
L 74.442916 135.598555 
L 77.62293 125.703893 
L 80.802945 116.322572 
L 83.98296 107.610681 
L 87.162974 99.711811 
L 90.342989 92.754396 
L 93.523004 86.849353 
L 96.703019 82.088065 
L 99.883033 78.540745 
L 103.063048 76.25521 
L 106.243063 75.2561 
L 109.423078 75.544539 
L 112.603092 77.098255 
L 115.783107 79.87215 
L 118.963122 83.799314 
L 122.143136 88.792448 
L 125.323151 94.745679 
L 128.503166 101.536723 
L 131.683181 109.029354 
L 134.863195 117.076125 
L 138.04321 125.521289 
L 141.223225 134.203863 
L 144.403239 142.960766 
L 147.583254 151.629975 
L 150.763269 160.053632 
L 153.943284 168.081049 
L 157.123298 175.571531 
L 160.303313 182.396994 
L 163.483328 188.444294 
L 166.663343 193.617246 
L 169.843357 197.838287 
L 173.023372 201.049747 
L 176.203387 203.214715 
L 179.383401 204.317485 
L 182.563416 204.363565 
L 185.743431 203.379273 
L 188.923446 201.410908 
L 192.10346 198.523538 
L 195.283475 194.799422 
L 198.46349 190.336098 
L 201.643504 185.244195 
L 204.823519 179.644994 
L 208.003534 173.667813 
L 211.183549 167.447251 
L 214.363563 161.120364 
L 217.543578 154.823822 
L 220.723593 148.691113 
L 223.903608 142.849845 
L 227.083622 137.419199 
L 230.263637 132.507595 
L 233.443652 128.210605 
L 236.623666 124.609157 
L 239.803681 121.768073 
L 242.983696 119.734949 
L 246.163711 118.539418 
L 249.343725 118.192788 
L 252.52374 118.68808 
L 255.703755 120.000433 
L 258.883769 122.087893 
L 262.063784 124.892541 
L 265.243799 128.341952 
L 268.423814 132.350934 
L 271.603828 136.823519 
L 274.783843 141.655158 
L 277.963858 146.735072 
L 281.143873 151.9487 
L 284.323887 157.180208 
L 287.503902 162.314988 
L 290.683917 167.242101 
L 293.863931 171.856618 
L 297.043946 176.061798 
L 300.223961 179.771075 
L 303.403976 182.909794 
L 306.58399 185.416676 
L 309.764005 187.244983 
L 312.94402 188.363352 
L 316.124034 188.756289 
L 319.304049 188.42432 
L 322.484064 187.383793 
L 325.664079 185.666338 
L 328.844093 183.318007 
L 332.024108 180.398109 
L 335.204123 176.977773 
L 338.384138 173.138266 
L 341.564152 168.969117 
L 344.744167 164.566069 
L 347.924182 160.02893 
L 351.104196 155.45935 
L 354.284211 150.95858 
L 357.464226 146.625269 
L 360.644241 142.553332 
L 363.824255 138.829945 
L 367.00427 135.533709 
L 370.184285 132.73301 
L 373.364299 130.484629 
L 376.544314 128.832613 
L 379.724329 127.807429 
L 382.904344 127.425432 
L 386.084358 127.688642 
" clip-path="url(#p5c8aa241fe)" style="fill: none; stroke: #ff7f0e; stroke-width: 1.5; stroke-linecap: square"/>
   </g>
   <g id="line2d_35">
    <path d="M 68.082886 156.258666 
L 71.262901 155.867632 
L 74.442916 154.703315 
L 77.62293 152.791879 
L 80.802945 150.176325 
L 83.98296 146.915575 
L 87.162974 143.083241 
L 90.342989 138.766065 
L 93.523004 134.0621 
L 96.703019 129.078638 
L 99.883033 123.929949 
L 103.063048 118.734875 
L 106.243063 113.614317 
L 109.423078 108.688688 
L 112.603092 104.075364 
L 115.783107 99.886204 
L 118.963122 96.225181 
L 122.143136 93.186173 
L 125.323151 90.850966 
L 128.503166 89.287508 
L 131.683181 88.548449 
L 134.863195 88.669995 
L 138.04321 89.671109 
L 141.223225 91.553067 
L 144.403239 94.299374 
L 147.583254 97.876062 
L 150.763269 102.232336 
L 153.943284 107.301572 
L 157.123298 113.002649 
L 160.303313 119.241564 
L 163.483328 125.913331 
L 166.663343 132.904089 
L 169.843357 140.093395 
L 173.023372 147.356661 
L 176.203387 154.567654 
L 179.383401 161.601045 
L 182.563416 168.334923 
L 185.743431 174.65324 
L 188.923446 180.448133 
L 192.10346 185.622064 
L 195.283475 190.089758 
L 198.46349 193.779871 
L 201.643504 196.636377 
L 204.823519 198.619634 
L 208.003534 199.707112 
L 211.183549 199.893767 
L 214.363563 199.19206 
L 217.543578 197.631614 
L 220.723593 195.258523 
L 223.903608 192.134324 
L 227.083622 188.334665 
L 230.263637 183.947685 
L 233.443652 179.072146 
L 236.623666 173.815361 
L 239.803681 168.290955 
L 242.983696 162.616517 
L 246.163711 156.911173 
L 249.343725 151.293154 
L 252.52374 145.877392 
L 255.703755 140.773207 
L 258.883769 136.082116 
L 262.063784 131.895826 
L 265.243799 128.294448 
L 268.423814 125.344955 
L 271.603828 123.099928 
L 274.783843 121.59662 
L 277.963858 120.856326 
L 281.143873 120.884116 
L 284.323887 121.668881 
L 287.503902 123.183744 
L 290.683917 125.386773 
L 293.863931 128.22202 
L 297.043946 131.620838 
L 300.223961 135.503456 
L 303.403976 139.780769 
L 306.58399 144.35632 
L 309.764005 149.128408 
L 312.94402 153.992298 
L 316.124034 158.842469 
L 319.304049 163.574863 
L 322.484064 168.089083 
L 325.664079 172.290497 
L 328.844093 176.092191 
L 332.024108 179.416754 
L 335.204123 182.197839 
L 338.384138 184.381472 
L 341.564152 185.927092 
L 344.744167 186.80829 
L 347.924182 187.013244 
L 351.104196 186.544835 
L 354.284211 185.420444 
L 357.464226 183.671451 
L 360.644241 181.342423 
L 363.824255 178.490038 
L 367.00427 175.181751 
L 370.184285 171.494241 
L 373.364299 167.511674 
L 376.544314 163.323814 
L 379.724329 159.024034 
L 382.904344 154.707266 
L 386.084358 150.467928 
" clip-path="url(#p5c8aa241fe)" style="fill: none; stroke: #2ca02c; stroke-width: 1.5; stroke-linecap: square"/>
   </g>
   <g id="patch_3">
    <path d="M 52.182813 221.994521 
L 52.182813 7.2 
" style="fill: none; stroke: #000000; stroke-width: 0.8; stroke-linejoin: miter; stroke-linecap: square"/>
   </g>
   <g id="patch_4">
    <path d="M 401.984432 221.994521 
L 401.984432 7.2 
" style="fill: none; stroke: #000000; stroke-width: 0.8; stroke-linejoin: miter; stroke-linecap: square"/>
   </g>
   <g id="patch_5">
    <path d="M 52.182813 221.994521 
L 401.984432 221.994521 
" style="fill: none; stroke: #000000; stroke-width: 0.8; stroke-linejoin: miter; stroke-linecap: square"/>
   </g>
   <g id="patch_6">
    <path d="M 52.182813 7.2 
L 401.984432 7.2 
" style="fill: none; stroke: #000000; stroke-width: 0.8; stroke-linejoin: miter; stroke-linecap: square"/>
   </g>
   <g id="legend_1">
    <g id="patch_7">
     <path d="M 343.671932 59.234375 
L 394.984432 59.234375 
Q 396.984432 59.234375 396.984432 57.234375 
L 396.984432 14.2 
Q 396.984432 12.2 394.984432 12.2 
L 343.671932 12.2 
Q 341.671932 12.2 341.671932 14.2 
L 341.671932 57.234375 
Q 341.671932 59.234375 343.671932 59.234375 
z
" style="fill: #ffffff; opacity: 0.8; stroke: #cccccc; stroke-linejoin: miter"/>
    </g>
    <g id="line2d_36">
     <path d="M 345.671932 20.298437 
L 360.671932 20.298437 
L 375.671932 20.298437 
" style="fill: none; stroke: #1f77b4; stroke-width: 1.5; stroke-linecap: square"/>
    </g>
    <g id="text_19">
     <!-- J0 -->
     <g transform="translate(383.671932 23.798437) scale(0.1 -0.1)">
      <defs>
       <path id="DejaVuSans-4a" d="M 628 4666 
L 1259 4666 
L 1259 325 
Q 1259 -519 939 -900 
Q 619 -1281 -91 -1281 
L -331 -1281 
L -331 -750 
L -134 -750 
Q 284 -750 456 -515 
Q 628 -281 628 325 
L 628 4666 
z
" transform="scale(0.015625)"/>
      </defs>
      <use xlink:href="#DejaVuSans-4a"/>
      <use xlink:href="#DejaVuSans-30" x="29.492188"/>
     </g>
    </g>
    <g id="line2d_37">
     <path d="M 345.671932 34.976562 
L 360.671932 34.976562 
L 375.671932 34.976562 
" style="fill: none; stroke: #ff7f0e; stroke-width: 1.5; stroke-linecap: square"/>
    </g>
    <g id="text_20">
     <!-- J1 -->
     <g transform="translate(383.671932 38.476562) scale(0.1 -0.1)">
      <use xlink:href="#DejaVuSans-4a"/>
      <use xlink:href="#DejaVuSans-31" x="29.492188"/>
     </g>
    </g>
    <g id="line2d_38">
     <path d="M 345.671932 49.654687 
L 360.671932 49.654687 
L 375.671932 49.654687 
" style="fill: none; stroke: #2ca02c; stroke-width: 1.5; stroke-linecap: square"/>
    </g>
    <g id="text_21">
     <!-- J2 -->
     <g transform="translate(383.671932 53.154687) scale(0.1 -0.1)">
      <use xlink:href="#DejaVuSans-4a"/>
      <use xlink:href="#DejaVuSans-32" x="29.492188"/>
     </g>
    </g>
   </g>
  </g>
 </g>
 <defs>
  <clipPath id="p5c8aa241fe">
   <rect x="52.182813" y="7.2" width="349.801619" height="214.794521"/>
  </clipPath>
 </defs>
</svg>
