<?xml version="1.0" encoding="utf-8" standalone="no"?>
<!DOCTYPE svg PUBLIC "-//W3C//DTD SVG 1.1//EN"
  "http://www.w3.org/Graphics/SVG/1.1/DTD/svg11.dtd">
<svg xmlns:xlink="http://www.w3.org/1999/xlink" width="401.304744pt" height="259.550771pt" viewBox="0 0 401.304744 259.550771" xmlns="http://www.w3.org/2000/svg" version="1.1">
 <metadata>
  <rdf:RDF xmlns:dc="http://purl.org/dc/elements/1.1/" xmlns:cc="http://creativecommons.org/ns#" xmlns:rdf="http://www.w3.org/1999/02/22-rdf-syntax-ns#">
   <cc:Work>
    <dc:type rdf:resource="http://purl.org/dc/dcmitype/StillImage"/>
    <dc:date>2024-04-26T18:24:32.630628</dc:date>
    <dc:format>image/svg+xml</dc:format>
    <dc:creator>
     <cc:Agent>
      <dc:title>Matplotlib v3.6.3, https://matplotlib.org/</dc:title>
     </cc:Agent>
    </dc:creator>
   </cc:Work>
  </rdf:RDF>
 </metadata>
 <defs>
  <style type="text/css">*{stroke-linejoin: round; stroke-linecap: butt}</style>
 </defs>
 <g id="figure_1">
  <g id="patch_1">
   <path d="M 0 259.550771 
L 401.304744 259.550771 
L 401.304744 0 
L 0 0 
z
" style="fill: #ffffff"/>
  </g>
  <g id="axes_1">
   <g id="patch_2">
    <path d="M 44.303125 221.994521 
L 394.104744 221.994521 
L 394.104744 7.2 
L 44.303125 7.2 
z
" style="fill: #ffffff"/>
   </g>
   <g id="matplotlib.axis_1">
    <g id="xtick_1">
     <g id="line2d_1">
      <path d="M 60.203199 221.994521 
L 60.203199 7.2 
" clip-path="url(#p18aaef6082)" style="fill: none; stroke-dasharray: 2.96,1.28; stroke-dashoffset: 0; stroke: #808080; stroke-width: 0.8"/>
     </g>
     <g id="line2d_2">
      <defs>
       <path id="m7e4ff9dd4d" d="M 0 0 
L 0 3.5 
" style="stroke: #000000; stroke-width: 0.8"/>
      </defs>
      <g>
       <use xlink:href="#m7e4ff9dd4d" x="60.203199" y="221.994521" style="stroke: #000000; stroke-width: 0.8"/>
      </g>
     </g>
     <g id="text_1">
      <!-- 0.0 -->
      <g transform="translate(52.251636 236.592958) scale(0.1 -0.1)">
       <defs>
        <path id="DejaVuSans-30" d="M 2034 4250 
Q 1547 4250 1301 3770 
Q 1056 3291 1056 2328 
Q 1056 1369 1301 889 
Q 1547 409 2034 409 
Q 2525 409 2770 889 
Q 3016 1369 3016 2328 
Q 3016 3291 2770 3770 
Q 2525 4250 2034 4250 
z
M 2034 4750 
Q 2819 4750 3233 4129 
Q 3647 3509 3647 2328 
Q 3647 1150 3233 529 
Q 2819 -91 2034 -91 
Q 1250 -91 836 529 
Q 422 1150 422 2328 
Q 422 3509 836 4129 
Q 1250 4750 2034 4750 
z
" transform="scale(0.015625)"/>
        <path id="DejaVuSans-2e" d="M 684 794 
L 1344 794 
L 1344 0 
L 684 0 
L 684 794 
z
" transform="scale(0.015625)"/>
       </defs>
       <use xlink:href="#DejaVuSans-30"/>
       <use xlink:href="#DejaVuSans-2e" x="63.623047"/>
       <use xlink:href="#DejaVuSans-30" x="95.410156"/>
      </g>
     </g>
    </g>
    <g id="xtick_2">
     <g id="line2d_3">
      <path d="M 113.203444 221.994521 
L 113.203444 7.2 
" clip-path="url(#p18aaef6082)" style="fill: none; stroke-dasharray: 2.96,1.28; stroke-dashoffset: 0; stroke: #808080; stroke-width: 0.8"/>
     </g>
     <g id="line2d_4">
      <g>
       <use xlink:href="#m7e4ff9dd4d" x="113.203444" y="221.994521" style="stroke: #000000; stroke-width: 0.8"/>
      </g>
     </g>
     <g id="text_2">
      <!-- 0.5 -->
      <g transform="translate(105.251881 236.592958) scale(0.1 -0.1)">
       <defs>
        <path id="DejaVuSans-35" d="M 691 4666 
L 3169 4666 
L 3169 4134 
L 1269 4134 
L 1269 2991 
Q 1406 3038 1543 3061 
Q 1681 3084 1819 3084 
Q 2600 3084 3056 2656 
Q 3513 2228 3513 1497 
Q 3513 744 3044 326 
Q 2575 -91 1722 -91 
Q 1428 -91 1123 -41 
Q 819 9 494 109 
L 494 744 
Q 775 591 1075 516 
Q 1375 441 1709 441 
Q 2250 441 2565 725 
Q 2881 1009 2881 1497 
Q 2881 1984 2565 2268 
Q 2250 2553 1709 2553 
Q 1456 2553 1204 2497 
Q 953 2441 691 2322 
L 691 4666 
z
" transform="scale(0.015625)"/>
       </defs>
       <use xlink:href="#DejaVuSans-30"/>
       <use xlink:href="#DejaVuSans-2e" x="63.623047"/>
       <use xlink:href="#DejaVuSans-35" x="95.410156"/>
      </g>
     </g>
    </g>
    <g id="xtick_3">
     <g id="line2d_5">
      <path d="M 166.203689 221.994521 
L 166.203689 7.2 
" clip-path="url(#p18aaef6082)" style="fill: none; stroke-dasharray: 2.96,1.28; stroke-dashoffset: 0; stroke: #808080; stroke-width: 0.8"/>
     </g>
     <g id="line2d_6">
      <g>
       <use xlink:href="#m7e4ff9dd4d" x="166.203689" y="221.994521" style="stroke: #000000; stroke-width: 0.8"/>
      </g>
     </g>
     <g id="text_3">
      <!-- 1.0 -->
      <g transform="translate(158.252127 236.592958) scale(0.1 -0.1)">
       <defs>
        <path id="DejaVuSans-31" d="M 794 531 
L 1825 531 
L 1825 4091 
L 703 3866 
L 703 4441 
L 1819 4666 
L 2450 4666 
L 2450 531 
L 3481 531 
L 3481 0 
L 794 0 
L 794 531 
z
" transform="scale(0.015625)"/>
       </defs>
       <use xlink:href="#DejaVuSans-31"/>
       <use xlink:href="#DejaVuSans-2e" x="63.623047"/>
       <use xlink:href="#DejaVuSans-30" x="95.410156"/>
      </g>
     </g>
    </g>
    <g id="xtick_4">
     <g id="line2d_7">
      <path d="M 219.203935 221.994521 
L 219.203935 7.2 
" clip-path="url(#p18aaef6082)" style="fill: none; stroke-dasharray: 2.96,1.28; stroke-dashoffset: 0; stroke: #808080; stroke-width: 0.8"/>
     </g>
     <g id="line2d_8">
      <g>
       <use xlink:href="#m7e4ff9dd4d" x="219.203935" y="221.994521" style="stroke: #000000; stroke-width: 0.8"/>
      </g>
     </g>
     <g id="text_4">
      <!-- 1.5 -->
      <g transform="translate(211.252372 236.592958) scale(0.1 -0.1)">
       <use xlink:href="#DejaVuSans-31"/>
       <use xlink:href="#DejaVuSans-2e" x="63.623047"/>
       <use xlink:href="#DejaVuSans-35" x="95.410156"/>
      </g>
     </g>
    </g>
    <g id="xtick_5">
     <g id="line2d_9">
      <path d="M 272.20418 221.994521 
L 272.20418 7.2 
" clip-path="url(#p18aaef6082)" style="fill: none; stroke-dasharray: 2.96,1.28; stroke-dashoffset: 0; stroke: #808080; stroke-width: 0.8"/>
     </g>
     <g id="line2d_10">
      <g>
       <use xlink:href="#m7e4ff9dd4d" x="272.20418" y="221.994521" style="stroke: #000000; stroke-width: 0.8"/>
      </g>
     </g>
     <g id="text_5">
      <!-- 2.0 -->
      <g transform="translate(264.252618 236.592958) scale(0.1 -0.1)">
       <defs>
        <path id="DejaVuSans-32" d="M 1228 531 
L 3431 531 
L 3431 0 
L 469 0 
L 469 531 
Q 828 903 1448 1529 
Q 2069 2156 2228 2338 
Q 2531 2678 2651 2914 
Q 2772 3150 2772 3378 
Q 2772 3750 2511 3984 
Q 2250 4219 1831 4219 
Q 1534 4219 1204 4116 
Q 875 4013 500 3803 
L 500 4441 
Q 881 4594 1212 4672 
Q 1544 4750 1819 4750 
Q 2544 4750 2975 4387 
Q 3406 4025 3406 3419 
Q 3406 3131 3298 2873 
Q 3191 2616 2906 2266 
Q 2828 2175 2409 1742 
Q 1991 1309 1228 531 
z
" transform="scale(0.015625)"/>
       </defs>
       <use xlink:href="#DejaVuSans-32"/>
       <use xlink:href="#DejaVuSans-2e" x="63.623047"/>
       <use xlink:href="#DejaVuSans-30" x="95.410156"/>
      </g>
     </g>
    </g>
    <g id="xtick_6">
     <g id="line2d_11">
      <path d="M 325.204425 221.994521 
L 325.204425 7.2 
" clip-path="url(#p18aaef6082)" style="fill: none; stroke-dasharray: 2.96,1.28; stroke-dashoffset: 0; stroke: #808080; stroke-width: 0.8"/>
     </g>
     <g id="line2d_12">
      <g>
       <use xlink:href="#m7e4ff9dd4d" x="325.204425" y="221.994521" style="stroke: #000000; stroke-width: 0.8"/>
      </g>
     </g>
     <g id="text_6">
      <!-- 2.5 -->
      <g transform="translate(317.252863 236.592958) scale(0.1 -0.1)">
       <use xlink:href="#DejaVuSans-32"/>
       <use xlink:href="#DejaVuSans-2e" x="63.623047"/>
       <use xlink:href="#DejaVuSans-35" x="95.410156"/>
      </g>
     </g>
    </g>
    <g id="xtick_7">
     <g id="line2d_13">
      <path d="M 378.204671 221.994521 
L 378.204671 7.2 
" clip-path="url(#p18aaef6082)" style="fill: none; stroke-dasharray: 2.96,1.28; stroke-dashoffset: 0; stroke: #808080; stroke-width: 0.8"/>
     </g>
     <g id="line2d_14">
      <g>
       <use xlink:href="#m7e4ff9dd4d" x="378.204671" y="221.994521" style="stroke: #000000; stroke-width: 0.8"/>
      </g>
     </g>
     <g id="text_7">
      <!-- 3.0 -->
      <g transform="translate(370.253108 236.592958) scale(0.1 -0.1)">
       <defs>
        <path id="DejaVuSans-33" d="M 2597 2516 
Q 3050 2419 3304 2112 
Q 3559 1806 3559 1356 
Q 3559 666 3084 287 
Q 2609 -91 1734 -91 
Q 1441 -91 1130 -33 
Q 819 25 488 141 
L 488 750 
Q 750 597 1062 519 
Q 1375 441 1716 441 
Q 2309 441 2620 675 
Q 2931 909 2931 1356 
Q 2931 1769 2642 2001 
Q 2353 2234 1838 2234 
L 1294 2234 
L 1294 2753 
L 1863 2753 
Q 2328 2753 2575 2939 
Q 2822 3125 2822 3475 
Q 2822 3834 2567 4026 
Q 2313 4219 1838 4219 
Q 1578 4219 1281 4162 
Q 984 4106 628 3988 
L 628 4550 
Q 988 4650 1302 4700 
Q 1616 4750 1894 4750 
Q 2613 4750 3031 4423 
Q 3450 4097 3450 3541 
Q 3450 3153 3228 2886 
Q 3006 2619 2597 2516 
z
" transform="scale(0.015625)"/>
       </defs>
       <use xlink:href="#DejaVuSans-33"/>
       <use xlink:href="#DejaVuSans-2e" x="63.623047"/>
       <use xlink:href="#DejaVuSans-30" x="95.410156"/>
      </g>
     </g>
    </g>
    <g id="text_8">
     <!-- $x$ -->
     <g transform="translate(216.203935 250.271083) scale(0.1 -0.1)">
      <defs>
       <path id="DejaVuSans-Oblique-78" d="M 3841 3500 
L 2234 1784 
L 3219 0 
L 2559 0 
L 1819 1388 
L 531 0 
L -166 0 
L 1556 1844 
L 641 3500 
L 1300 3500 
L 1972 2234 
L 3144 3500 
L 3841 3500 
z
" transform="scale(0.015625)"/>
      </defs>
      <use xlink:href="#DejaVuSans-Oblique-78" transform="translate(0 0.3125)"/>
     </g>
    </g>
   </g>
   <g id="matplotlib.axis_2">
    <g id="ytick_1">
     <g id="line2d_15">
      <path d="M 44.303125 212.231133 
L 394.104744 212.231133 
" clip-path="url(#p18aaef6082)" style="fill: none; stroke-dasharray: 2.96,1.28; stroke-dashoffset: 0; stroke: #808080; stroke-width: 0.8"/>
     </g>
     <g id="line2d_16">
      <defs>
       <path id="mbefc2f6a69" d="M 0 0 
L -3.5 0 
" style="stroke: #000000; stroke-width: 0.8"/>
      </defs>
      <g>
       <use xlink:href="#mbefc2f6a69" x="44.303125" y="212.231133" style="stroke: #000000; stroke-width: 0.8"/>
      </g>
     </g>
     <g id="text_9">
      <!-- 0.0 -->
      <g transform="translate(21.4 216.030352) scale(0.1 -0.1)">
       <use xlink:href="#DejaVuSans-30"/>
       <use xlink:href="#DejaVuSans-2e" x="63.623047"/>
       <use xlink:href="#DejaVuSans-30" x="95.410156"/>
      </g>
     </g>
    </g>
    <g id="ytick_2">
     <g id="line2d_17">
      <path d="M 44.303125 173.177584 
L 394.104744 173.177584 
" clip-path="url(#p18aaef6082)" style="fill: none; stroke-dasharray: 2.96,1.28; stroke-dashoffset: 0; stroke: #808080; stroke-width: 0.8"/>
     </g>
     <g id="line2d_18">
      <g>
       <use xlink:href="#mbefc2f6a69" x="44.303125" y="173.177584" style="stroke: #000000; stroke-width: 0.8"/>
      </g>
     </g>
     <g id="text_10">
      <!-- 0.2 -->
      <g transform="translate(21.4 176.976803) scale(0.1 -0.1)">
       <use xlink:href="#DejaVuSans-30"/>
       <use xlink:href="#DejaVuSans-2e" x="63.623047"/>
       <use xlink:href="#DejaVuSans-32" x="95.410156"/>
      </g>
     </g>
    </g>
    <g id="ytick_3">
     <g id="line2d_19">
      <path d="M 44.303125 134.124035 
L 394.104744 134.124035 
" clip-path="url(#p18aaef6082)" style="fill: none; stroke-dasharray: 2.96,1.28; stroke-dashoffset: 0; stroke: #808080; stroke-width: 0.8"/>
     </g>
     <g id="line2d_20">
      <g>
       <use xlink:href="#mbefc2f6a69" x="44.303125" y="134.124035" style="stroke: #000000; stroke-width: 0.8"/>
      </g>
     </g>
     <g id="text_11">
      <!-- 0.4 -->
      <g transform="translate(21.4 137.923254) scale(0.1 -0.1)">
       <defs>
        <path id="DejaVuSans-34" d="M 2419 4116 
L 825 1625 
L 2419 1625 
L 2419 4116 
z
M 2253 4666 
L 3047 4666 
L 3047 1625 
L 3713 1625 
L 3713 1100 
L 3047 1100 
L 3047 0 
L 2419 0 
L 2419 1100 
L 313 1100 
L 313 1709 
L 2253 4666 
z
" transform="scale(0.015625)"/>
       </defs>
       <use xlink:href="#DejaVuSans-30"/>
       <use xlink:href="#DejaVuSans-2e" x="63.623047"/>
       <use xlink:href="#DejaVuSans-34" x="95.410156"/>
      </g>
     </g>
    </g>
    <g id="ytick_4">
     <g id="line2d_21">
      <path d="M 44.303125 95.070486 
L 394.104744 95.070486 
" clip-path="url(#p18aaef6082)" style="fill: none; stroke-dasharray: 2.96,1.28; stroke-dashoffset: 0; stroke: #808080; stroke-width: 0.8"/>
     </g>
     <g id="line2d_22">
      <g>
       <use xlink:href="#mbefc2f6a69" x="44.303125" y="95.070486" style="stroke: #000000; stroke-width: 0.8"/>
      </g>
     </g>
     <g id="text_12">
      <!-- 0.6 -->
      <g transform="translate(21.4 98.869704) scale(0.1 -0.1)">
       <defs>
        <path id="DejaVuSans-36" d="M 2113 2584 
Q 1688 2584 1439 2293 
Q 1191 2003 1191 1497 
Q 1191 994 1439 701 
Q 1688 409 2113 409 
Q 2538 409 2786 701 
Q 3034 994 3034 1497 
Q 3034 2003 2786 2293 
Q 2538 2584 2113 2584 
z
M 3366 4563 
L 3366 3988 
Q 3128 4100 2886 4159 
Q 2644 4219 2406 4219 
Q 1781 4219 1451 3797 
Q 1122 3375 1075 2522 
Q 1259 2794 1537 2939 
Q 1816 3084 2150 3084 
Q 2853 3084 3261 2657 
Q 3669 2231 3669 1497 
Q 3669 778 3244 343 
Q 2819 -91 2113 -91 
Q 1303 -91 875 529 
Q 447 1150 447 2328 
Q 447 3434 972 4092 
Q 1497 4750 2381 4750 
Q 2619 4750 2861 4703 
Q 3103 4656 3366 4563 
z
" transform="scale(0.015625)"/>
       </defs>
       <use xlink:href="#DejaVuSans-30"/>
       <use xlink:href="#DejaVuSans-2e" x="63.623047"/>
       <use xlink:href="#DejaVuSans-36" x="95.410156"/>
      </g>
     </g>
    </g>
    <g id="ytick_5">
     <g id="line2d_23">
      <path d="M 44.303125 56.016936 
L 394.104744 56.016936 
" clip-path="url(#p18aaef6082)" style="fill: none; stroke-dasharray: 2.96,1.28; stroke-dashoffset: 0; stroke: #808080; stroke-width: 0.8"/>
     </g>
     <g id="line2d_24">
      <g>
       <use xlink:href="#mbefc2f6a69" x="44.303125" y="56.016936" style="stroke: #000000; stroke-width: 0.8"/>
      </g>
     </g>
     <g id="text_13">
      <!-- 0.8 -->
      <g transform="translate(21.4 59.816155) scale(0.1 -0.1)">
       <defs>
        <path id="DejaVuSans-38" d="M 2034 2216 
Q 1584 2216 1326 1975 
Q 1069 1734 1069 1313 
Q 1069 891 1326 650 
Q 1584 409 2034 409 
Q 2484 409 2743 651 
Q 3003 894 3003 1313 
Q 3003 1734 2745 1975 
Q 2488 2216 2034 2216 
z
M 1403 2484 
Q 997 2584 770 2862 
Q 544 3141 544 3541 
Q 544 4100 942 4425 
Q 1341 4750 2034 4750 
Q 2731 4750 3128 4425 
Q 3525 4100 3525 3541 
Q 3525 3141 3298 2862 
Q 3072 2584 2669 2484 
Q 3125 2378 3379 2068 
Q 3634 1759 3634 1313 
Q 3634 634 3220 271 
Q 2806 -91 2034 -91 
Q 1263 -91 848 271 
Q 434 634 434 1313 
Q 434 1759 690 2068 
Q 947 2378 1403 2484 
z
M 1172 3481 
Q 1172 3119 1398 2916 
Q 1625 2713 2034 2713 
Q 2441 2713 2670 2916 
Q 2900 3119 2900 3481 
Q 2900 3844 2670 4047 
Q 2441 4250 2034 4250 
Q 1625 4250 1398 4047 
Q 1172 3844 1172 3481 
z
" transform="scale(0.015625)"/>
       </defs>
       <use xlink:href="#DejaVuSans-30"/>
       <use xlink:href="#DejaVuSans-2e" x="63.623047"/>
       <use xlink:href="#DejaVuSans-38" x="95.410156"/>
      </g>
     </g>
    </g>
    <g id="ytick_6">
     <g id="line2d_25">
      <path d="M 44.303125 16.963387 
L 394.104744 16.963387 
" clip-path="url(#p18aaef6082)" style="fill: none; stroke-dasharray: 2.96,1.28; stroke-dashoffset: 0; stroke: #808080; stroke-width: 0.8"/>
     </g>
     <g id="line2d_26">
      <g>
       <use xlink:href="#mbefc2f6a69" x="44.303125" y="16.963387" style="stroke: #000000; stroke-width: 0.8"/>
      </g>
     </g>
     <g id="text_14">
      <!-- 1.0 -->
      <g transform="translate(21.4 20.762606) scale(0.1 -0.1)">
       <use xlink:href="#DejaVuSans-31"/>
       <use xlink:href="#DejaVuSans-2e" x="63.623047"/>
       <use xlink:href="#DejaVuSans-30" x="95.410156"/>
      </g>
     </g>
    </g>
    <g id="text_15">
     <!-- $\mathrm{boxcar}_{(1,2)}(x)$ -->
     <g transform="translate(14.8 147.69726) rotate(-90) scale(0.1 -0.1)">
      <defs>
       <path id="DejaVuSans-62" d="M 3116 1747 
Q 3116 2381 2855 2742 
Q 2594 3103 2138 3103 
Q 1681 3103 1420 2742 
Q 1159 2381 1159 1747 
Q 1159 1113 1420 752 
Q 1681 391 2138 391 
Q 2594 391 2855 752 
Q 3116 1113 3116 1747 
z
M 1159 2969 
Q 1341 3281 1617 3432 
Q 1894 3584 2278 3584 
Q 2916 3584 3314 3078 
Q 3713 2572 3713 1747 
Q 3713 922 3314 415 
Q 2916 -91 2278 -91 
Q 1894 -91 1617 61 
Q 1341 213 1159 525 
L 1159 0 
L 581 0 
L 581 4863 
L 1159 4863 
L 1159 2969 
z
" transform="scale(0.015625)"/>
       <path id="DejaVuSans-6f" d="M 1959 3097 
Q 1497 3097 1228 2736 
Q 959 2375 959 1747 
Q 959 1119 1226 758 
Q 1494 397 1959 397 
Q 2419 397 2687 759 
Q 2956 1122 2956 1747 
Q 2956 2369 2687 2733 
Q 2419 3097 1959 3097 
z
M 1959 3584 
Q 2709 3584 3137 3096 
Q 3566 2609 3566 1747 
Q 3566 888 3137 398 
Q 2709 -91 1959 -91 
Q 1206 -91 779 398 
Q 353 888 353 1747 
Q 353 2609 779 3096 
Q 1206 3584 1959 3584 
z
" transform="scale(0.015625)"/>
       <path id="DejaVuSans-78" d="M 3513 3500 
L 2247 1797 
L 3578 0 
L 2900 0 
L 1881 1375 
L 863 0 
L 184 0 
L 1544 1831 
L 300 3500 
L 978 3500 
L 1906 2253 
L 2834 3500 
L 3513 3500 
z
" transform="scale(0.015625)"/>
       <path id="DejaVuSans-63" d="M 3122 3366 
L 3122 2828 
Q 2878 2963 2633 3030 
Q 2388 3097 2138 3097 
Q 1578 3097 1268 2742 
Q 959 2388 959 1747 
Q 959 1106 1268 751 
Q 1578 397 2138 397 
Q 2388 397 2633 464 
Q 2878 531 3122 666 
L 3122 134 
Q 2881 22 2623 -34 
Q 2366 -91 2075 -91 
Q 1284 -91 818 406 
Q 353 903 353 1747 
Q 353 2603 823 3093 
Q 1294 3584 2113 3584 
Q 2378 3584 2631 3529 
Q 2884 3475 3122 3366 
z
" transform="scale(0.015625)"/>
       <path id="DejaVuSans-61" d="M 2194 1759 
Q 1497 1759 1228 1600 
Q 959 1441 959 1056 
Q 959 750 1161 570 
Q 1363 391 1709 391 
Q 2188 391 2477 730 
Q 2766 1069 2766 1631 
L 2766 1759 
L 2194 1759 
z
M 3341 1997 
L 3341 0 
L 2766 0 
L 2766 531 
Q 2569 213 2275 61 
Q 1981 -91 1556 -91 
Q 1019 -91 701 211 
Q 384 513 384 1019 
Q 384 1609 779 1909 
Q 1175 2209 1959 2209 
L 2766 2209 
L 2766 2266 
Q 2766 2663 2505 2880 
Q 2244 3097 1772 3097 
Q 1472 3097 1187 3025 
Q 903 2953 641 2809 
L 641 3341 
Q 956 3463 1253 3523 
Q 1550 3584 1831 3584 
Q 2591 3584 2966 3190 
Q 3341 2797 3341 1997 
z
" transform="scale(0.015625)"/>
       <path id="DejaVuSans-72" d="M 2631 2963 
Q 2534 3019 2420 3045 
Q 2306 3072 2169 3072 
Q 1681 3072 1420 2755 
Q 1159 2438 1159 1844 
L 1159 0 
L 581 0 
L 581 3500 
L 1159 3500 
L 1159 2956 
Q 1341 3275 1631 3429 
Q 1922 3584 2338 3584 
Q 2397 3584 2469 3576 
Q 2541 3569 2628 3553 
L 2631 2963 
z
" transform="scale(0.015625)"/>
       <path id="DejaVuSans-28" d="M 1984 4856 
Q 1566 4138 1362 3434 
Q 1159 2731 1159 2009 
Q 1159 1288 1364 580 
Q 1569 -128 1984 -844 
L 1484 -844 
Q 1016 -109 783 600 
Q 550 1309 550 2009 
Q 550 2706 781 3412 
Q 1013 4119 1484 4856 
L 1984 4856 
z
" transform="scale(0.015625)"/>
       <path id="DejaVuSans-2c" d="M 750 794 
L 1409 794 
L 1409 256 
L 897 -744 
L 494 -744 
L 750 256 
L 750 794 
z
" transform="scale(0.015625)"/>
       <path id="DejaVuSans-29" d="M 513 4856 
L 1013 4856 
Q 1481 4119 1714 3412 
Q 1947 2706 1947 2009 
Q 1947 1309 1714 600 
Q 1481 -109 1013 -844 
L 513 -844 
Q 928 -128 1133 580 
Q 1338 1288 1338 2009 
Q 1338 2731 1133 3434 
Q 928 4138 513 4856 
z
" transform="scale(0.015625)"/>
      </defs>
      <use xlink:href="#DejaVuSans-62" transform="translate(0 0.015625)"/>
      <use xlink:href="#DejaVuSans-6f" transform="translate(63.476562 0.015625)"/>
      <use xlink:href="#DejaVuSans-78" transform="translate(124.658203 0.015625)"/>
      <use xlink:href="#DejaVuSans-63" transform="translate(183.837891 0.015625)"/>
      <use xlink:href="#DejaVuSans-61" transform="translate(238.818359 0.015625)"/>
      <use xlink:href="#DejaVuSans-72" transform="translate(300.097656 0.015625)"/>
      <use xlink:href="#DejaVuSans-28" transform="translate(342.167969 -16.390625) scale(0.7)"/>
      <use xlink:href="#DejaVuSans-31" transform="translate(369.477539 -16.390625) scale(0.7)"/>
      <use xlink:href="#DejaVuSans-2c" transform="translate(414.013672 -16.390625) scale(0.7)"/>
      <use xlink:href="#DejaVuSans-32" transform="translate(449.902344 -16.390625) scale(0.7)"/>
      <use xlink:href="#DejaVuSans-29" transform="translate(494.438477 -16.390625) scale(0.7)"/>
      <use xlink:href="#DejaVuSans-28" transform="translate(524.482422 0.015625)"/>
      <use xlink:href="#DejaVuSans-Oblique-78" transform="translate(563.496094 0.015625)"/>
      <use xlink:href="#DejaVuSans-29" transform="translate(622.675781 0.015625)"/>
     </g>
    </g>
   </g>
   <g id="line2d_27">
    <path d="M 60.203199 212.231133 
L 62.853211 212.231133 
L 65.503223 212.231133 
L 68.153235 212.231133 
L 70.803248 212.231133 
L 73.45326 212.231133 
L 76.103272 212.231133 
L 78.753284 212.231133 
L 81.403297 212.231133 
L 84.053309 212.231133 
L 86.703321 212.231133 
L 89.353334 212.231133 
L 92.003346 212.231133 
L 94.653358 212.231133 
L 97.30337 212.231133 
L 99.953383 212.231133 
L 102.603395 212.231133 
L 105.253407 212.231133 
L 107.903419 212.231133 
L 110.553432 212.231133 
L 113.203444 212.231133 
L 115.853456 212.231133 
L 118.503469 212.231133 
L 121.153481 212.231133 
L 123.803493 212.231133 
L 126.453505 212.231133 
L 129.103518 212.231133 
L 131.75353 212.231133 
L 134.403542 212.231133 
L 137.053554 212.231133 
L 139.703567 212.231133 
L 142.353579 212.231133 
L 145.003591 212.231133 
L 147.653603 212.231133 
L 150.303616 212.231133 
L 152.953628 212.231133 
L 155.60364 212.231133 
L 158.253653 212.231133 
L 160.903665 212.231133 
L 163.553677 212.231133 
L 166.203689 114.59726 
L 168.853702 16.963387 
L 171.503714 16.963387 
L 174.153726 16.963387 
L 176.803738 16.963387 
L 179.453751 16.963387 
L 182.103763 16.963387 
L 184.753775 16.963387 
L 187.403788 16.963387 
L 190.0538 16.963387 
L 192.703812 16.963387 
L 195.353824 16.963387 
L 198.003837 16.963387 
L 200.653849 16.963387 
L 203.303861 16.963387 
L 205.953873 16.963387 
L 208.603886 16.963387 
L 211.253898 16.963387 
L 213.90391 16.963387 
L 216.553922 16.963387 
L 219.203935 16.963387 
L 221.853947 16.963387 
L 224.503959 16.963387 
L 227.153972 16.963387 
L 229.803984 16.963387 
L 232.453996 16.963387 
L 235.104008 16.963387 
L 237.754021 16.963387 
L 240.404033 16.963387 
L 243.054045 16.963387 
L 245.704057 16.963387 
L 248.35407 16.963387 
L 251.004082 16.963387 
L 253.654094 16.963387 
L 256.304107 16.963387 
L 258.954119 16.963387 
L 261.604131 16.963387 
L 264.254143 16.963387 
L 266.904156 16.963387 
L 269.554168 16.963387 
L 272.20418 114.59726 
L 274.854192 212.231133 
L 277.504205 212.231133 
L 280.154217 212.231133 
L 282.804229 212.231133 
L 285.454241 212.231133 
L 288.104254 212.231133 
L 290.754266 212.231133 
L 293.404278 212.231133 
L 296.054291 212.231133 
L 298.704303 212.231133 
L 301.354315 212.231133 
L 304.004327 212.231133 
L 306.65434 212.231133 
L 309.304352 212.231133 
L 311.954364 212.231133 
L 314.604376 212.231133 
L 317.254389 212.231133 
L 319.904401 212.231133 
L 322.554413 212.231133 
L 325.204425 212.231133 
L 327.854438 212.231133 
L 330.50445 212.231133 
L 333.154462 212.231133 
L 335.804475 212.231133 
L 338.454487 212.231133 
L 341.104499 212.231133 
L 343.754511 212.231133 
L 346.404524 212.231133 
L 349.054536 212.231133 
L 351.704548 212.231133 
L 354.35456 212.231133 
L 357.004573 212.231133 
L 359.654585 212.231133 
L 362.304597 212.231133 
L 364.95461 212.231133 
L 367.604622 212.231133 
L 370.254634 212.231133 
L 372.904646 212.231133 
L 375.554659 212.231133 
L 378.204671 212.231133 
" clip-path="url(#p18aaef6082)" style="fill: none; stroke: #1f77b4; stroke-width: 1.5; stroke-linecap: square"/>
    <defs>
     <path id="mb8f1fc466c" d="M 0 3 
C 0.795609 3 1.55874 2.683901 2.12132 2.12132 
C 2.683901 1.55874 3 0.795609 3 0 
C 3 -0.795609 2.683901 -1.55874 2.12132 -2.12132 
C 1.55874 -2.683901 0.795609 -3 0 -3 
C -0.795609 -3 -1.55874 -2.683901 -2.12132 -2.12132 
C -2.683901 -1.55874 -3 -0.795609 -3 0 
C -3 0.795609 -2.683901 1.55874 -2.12132 2.12132 
C -1.55874 2.683901 -0.795609 3 0 3 
z
" style="stroke: #1f77b4"/>
    </defs>
    <g clip-path="url(#p18aaef6082)">
     <use xlink:href="#mb8f1fc466c" x="60.203199" y="212.231133" style="fill: #1f77b4; stroke: #1f77b4"/>
     <use xlink:href="#mb8f1fc466c" x="62.853211" y="212.231133" style="fill: #1f77b4; stroke: #1f77b4"/>
     <use xlink:href="#mb8f1fc466c" x="65.503223" y="212.231133" style="fill: #1f77b4; stroke: #1f77b4"/>
     <use xlink:href="#mb8f1fc466c" x="68.153235" y="212.231133" style="fill: #1f77b4; stroke: #1f77b4"/>
     <use xlink:href="#mb8f1fc466c" x="70.803248" y="212.231133" style="fill: #1f77b4; stroke: #1f77b4"/>
     <use xlink:href="#mb8f1fc466c" x="73.45326" y="212.231133" style="fill: #1f77b4; stroke: #1f77b4"/>
     <use xlink:href="#mb8f1fc466c" x="76.103272" y="212.231133" style="fill: #1f77b4; stroke: #1f77b4"/>
     <use xlink:href="#mb8f1fc466c" x="78.753284" y="212.231133" style="fill: #1f77b4; stroke: #1f77b4"/>
     <use xlink:href="#mb8f1fc466c" x="81.403297" y="212.231133" style="fill: #1f77b4; stroke: #1f77b4"/>
     <use xlink:href="#mb8f1fc466c" x="84.053309" y="212.231133" style="fill: #1f77b4; stroke: #1f77b4"/>
     <use xlink:href="#mb8f1fc466c" x="86.703321" y="212.231133" style="fill: #1f77b4; stroke: #1f77b4"/>
     <use xlink:href="#mb8f1fc466c" x="89.353334" y="212.231133" style="fill: #1f77b4; stroke: #1f77b4"/>
     <use xlink:href="#mb8f1fc466c" x="92.003346" y="212.231133" style="fill: #1f77b4; stroke: #1f77b4"/>
     <use xlink:href="#mb8f1fc466c" x="94.653358" y="212.231133" style="fill: #1f77b4; stroke: #1f77b4"/>
     <use xlink:href="#mb8f1fc466c" x="97.30337" y="212.231133" style="fill: #1f77b4; stroke: #1f77b4"/>
     <use xlink:href="#mb8f1fc466c" x="99.953383" y="212.231133" style="fill: #1f77b4; stroke: #1f77b4"/>
     <use xlink:href="#mb8f1fc466c" x="102.603395" y="212.231133" style="fill: #1f77b4; stroke: #1f77b4"/>
     <use xlink:href="#mb8f1fc466c" x="105.253407" y="212.231133" style="fill: #1f77b4; stroke: #1f77b4"/>
     <use xlink:href="#mb8f1fc466c" x="107.903419" y="212.231133" style="fill: #1f77b4; stroke: #1f77b4"/>
     <use xlink:href="#mb8f1fc466c" x="110.553432" y="212.231133" style="fill: #1f77b4; stroke: #1f77b4"/>
     <use xlink:href="#mb8f1fc466c" x="113.203444" y="212.231133" style="fill: #1f77b4; stroke: #1f77b4"/>
     <use xlink:href="#mb8f1fc466c" x="115.853456" y="212.231133" style="fill: #1f77b4; stroke: #1f77b4"/>
     <use xlink:href="#mb8f1fc466c" x="118.503469" y="212.231133" style="fill: #1f77b4; stroke: #1f77b4"/>
     <use xlink:href="#mb8f1fc466c" x="121.153481" y="212.231133" style="fill: #1f77b4; stroke: #1f77b4"/>
     <use xlink:href="#mb8f1fc466c" x="123.803493" y="212.231133" style="fill: #1f77b4; stroke: #1f77b4"/>
     <use xlink:href="#mb8f1fc466c" x="126.453505" y="212.231133" style="fill: #1f77b4; stroke: #1f77b4"/>
     <use xlink:href="#mb8f1fc466c" x="129.103518" y="212.231133" style="fill: #1f77b4; stroke: #1f77b4"/>
     <use xlink:href="#mb8f1fc466c" x="131.75353" y="212.231133" style="fill: #1f77b4; stroke: #1f77b4"/>
     <use xlink:href="#mb8f1fc466c" x="134.403542" y="212.231133" style="fill: #1f77b4; stroke: #1f77b4"/>
     <use xlink:href="#mb8f1fc466c" x="137.053554" y="212.231133" style="fill: #1f77b4; stroke: #1f77b4"/>
     <use xlink:href="#mb8f1fc466c" x="139.703567" y="212.231133" style="fill: #1f77b4; stroke: #1f77b4"/>
     <use xlink:href="#mb8f1fc466c" x="142.353579" y="212.231133" style="fill: #1f77b4; stroke: #1f77b4"/>
     <use xlink:href="#mb8f1fc466c" x="145.003591" y="212.231133" style="fill: #1f77b4; stroke: #1f77b4"/>
     <use xlink:href="#mb8f1fc466c" x="147.653603" y="212.231133" style="fill: #1f77b4; stroke: #1f77b4"/>
     <use xlink:href="#mb8f1fc466c" x="150.303616" y="212.231133" style="fill: #1f77b4; stroke: #1f77b4"/>
     <use xlink:href="#mb8f1fc466c" x="152.953628" y="212.231133" style="fill: #1f77b4; stroke: #1f77b4"/>
     <use xlink:href="#mb8f1fc466c" x="155.60364" y="212.231133" style="fill: #1f77b4; stroke: #1f77b4"/>
     <use xlink:href="#mb8f1fc466c" x="158.253653" y="212.231133" style="fill: #1f77b4; stroke: #1f77b4"/>
     <use xlink:href="#mb8f1fc466c" x="160.903665" y="212.231133" style="fill: #1f77b4; stroke: #1f77b4"/>
     <use xlink:href="#mb8f1fc466c" x="163.553677" y="212.231133" style="fill: #1f77b4; stroke: #1f77b4"/>
     <use xlink:href="#mb8f1fc466c" x="166.203689" y="114.59726" style="fill: #1f77b4; stroke: #1f77b4"/>
     <use xlink:href="#mb8f1fc466c" x="168.853702" y="16.963387" style="fill: #1f77b4; stroke: #1f77b4"/>
     <use xlink:href="#mb8f1fc466c" x="171.503714" y="16.963387" style="fill: #1f77b4; stroke: #1f77b4"/>
     <use xlink:href="#mb8f1fc466c" x="174.153726" y="16.963387" style="fill: #1f77b4; stroke: #1f77b4"/>
     <use xlink:href="#mb8f1fc466c" x="176.803738" y="16.963387" style="fill: #1f77b4; stroke: #1f77b4"/>
     <use xlink:href="#mb8f1fc466c" x="179.453751" y="16.963387" style="fill: #1f77b4; stroke: #1f77b4"/>
     <use xlink:href="#mb8f1fc466c" x="182.103763" y="16.963387" style="fill: #1f77b4; stroke: #1f77b4"/>
     <use xlink:href="#mb8f1fc466c" x="184.753775" y="16.963387" style="fill: #1f77b4; stroke: #1f77b4"/>
     <use xlink:href="#mb8f1fc466c" x="187.403788" y="16.963387" style="fill: #1f77b4; stroke: #1f77b4"/>
     <use xlink:href="#mb8f1fc466c" x="190.0538" y="16.963387" style="fill: #1f77b4; stroke: #1f77b4"/>
     <use xlink:href="#mb8f1fc466c" x="192.703812" y="16.963387" style="fill: #1f77b4; stroke: #1f77b4"/>
     <use xlink:href="#mb8f1fc466c" x="195.353824" y="16.963387" style="fill: #1f77b4; stroke: #1f77b4"/>
     <use xlink:href="#mb8f1fc466c" x="198.003837" y="16.963387" style="fill: #1f77b4; stroke: #1f77b4"/>
     <use xlink:href="#mb8f1fc466c" x="200.653849" y="16.963387" style="fill: #1f77b4; stroke: #1f77b4"/>
     <use xlink:href="#mb8f1fc466c" x="203.303861" y="16.963387" style="fill: #1f77b4; stroke: #1f77b4"/>
     <use xlink:href="#mb8f1fc466c" x="205.953873" y="16.963387" style="fill: #1f77b4; stroke: #1f77b4"/>
     <use xlink:href="#mb8f1fc466c" x="208.603886" y="16.963387" style="fill: #1f77b4; stroke: #1f77b4"/>
     <use xlink:href="#mb8f1fc466c" x="211.253898" y="16.963387" style="fill: #1f77b4; stroke: #1f77b4"/>
     <use xlink:href="#mb8f1fc466c" x="213.90391" y="16.963387" style="fill: #1f77b4; stroke: #1f77b4"/>
     <use xlink:href="#mb8f1fc466c" x="216.553922" y="16.963387" style="fill: #1f77b4; stroke: #1f77b4"/>
     <use xlink:href="#mb8f1fc466c" x="219.203935" y="16.963387" style="fill: #1f77b4; stroke: #1f77b4"/>
     <use xlink:href="#mb8f1fc466c" x="221.853947" y="16.963387" style="fill: #1f77b4; stroke: #1f77b4"/>
     <use xlink:href="#mb8f1fc466c" x="224.503959" y="16.963387" style="fill: #1f77b4; stroke: #1f77b4"/>
     <use xlink:href="#mb8f1fc466c" x="227.153972" y="16.963387" style="fill: #1f77b4; stroke: #1f77b4"/>
     <use xlink:href="#mb8f1fc466c" x="229.803984" y="16.963387" style="fill: #1f77b4; stroke: #1f77b4"/>
     <use xlink:href="#mb8f1fc466c" x="232.453996" y="16.963387" style="fill: #1f77b4; stroke: #1f77b4"/>
     <use xlink:href="#mb8f1fc466c" x="235.104008" y="16.963387" style="fill: #1f77b4; stroke: #1f77b4"/>
     <use xlink:href="#mb8f1fc466c" x="237.754021" y="16.963387" style="fill: #1f77b4; stroke: #1f77b4"/>
     <use xlink:href="#mb8f1fc466c" x="240.404033" y="16.963387" style="fill: #1f77b4; stroke: #1f77b4"/>
     <use xlink:href="#mb8f1fc466c" x="243.054045" y="16.963387" style="fill: #1f77b4; stroke: #1f77b4"/>
     <use xlink:href="#mb8f1fc466c" x="245.704057" y="16.963387" style="fill: #1f77b4; stroke: #1f77b4"/>
     <use xlink:href="#mb8f1fc466c" x="248.35407" y="16.963387" style="fill: #1f77b4; stroke: #1f77b4"/>
     <use xlink:href="#mb8f1fc466c" x="251.004082" y="16.963387" style="fill: #1f77b4; stroke: #1f77b4"/>
     <use xlink:href="#mb8f1fc466c" x="253.654094" y="16.963387" style="fill: #1f77b4; stroke: #1f77b4"/>
     <use xlink:href="#mb8f1fc466c" x="256.304107" y="16.963387" style="fill: #1f77b4; stroke: #1f77b4"/>
     <use xlink:href="#mb8f1fc466c" x="258.954119" y="16.963387" style="fill: #1f77b4; stroke: #1f77b4"/>
     <use xlink:href="#mb8f1fc466c" x="261.604131" y="16.963387" style="fill: #1f77b4; stroke: #1f77b4"/>
     <use xlink:href="#mb8f1fc466c" x="264.254143" y="16.963387" style="fill: #1f77b4; stroke: #1f77b4"/>
     <use xlink:href="#mb8f1fc466c" x="266.904156" y="16.963387" style="fill: #1f77b4; stroke: #1f77b4"/>
     <use xlink:href="#mb8f1fc466c" x="269.554168" y="16.963387" style="fill: #1f77b4; stroke: #1f77b4"/>
     <use xlink:href="#mb8f1fc466c" x="272.20418" y="114.59726" style="fill: #1f77b4; stroke: #1f77b4"/>
     <use xlink:href="#mb8f1fc466c" x="274.854192" y="212.231133" style="fill: #1f77b4; stroke: #1f77b4"/>
     <use xlink:href="#mb8f1fc466c" x="277.504205" y="212.231133" style="fill: #1f77b4; stroke: #1f77b4"/>
     <use xlink:href="#mb8f1fc466c" x="280.154217" y="212.231133" style="fill: #1f77b4; stroke: #1f77b4"/>
     <use xlink:href="#mb8f1fc466c" x="282.804229" y="212.231133" style="fill: #1f77b4; stroke: #1f77b4"/>
     <use xlink:href="#mb8f1fc466c" x="285.454241" y="212.231133" style="fill: #1f77b4; stroke: #1f77b4"/>
     <use xlink:href="#mb8f1fc466c" x="288.104254" y="212.231133" style="fill: #1f77b4; stroke: #1f77b4"/>
     <use xlink:href="#mb8f1fc466c" x="290.754266" y="212.231133" style="fill: #1f77b4; stroke: #1f77b4"/>
     <use xlink:href="#mb8f1fc466c" x="293.404278" y="212.231133" style="fill: #1f77b4; stroke: #1f77b4"/>
     <use xlink:href="#mb8f1fc466c" x="296.054291" y="212.231133" style="fill: #1f77b4; stroke: #1f77b4"/>
     <use xlink:href="#mb8f1fc466c" x="298.704303" y="212.231133" style="fill: #1f77b4; stroke: #1f77b4"/>
     <use xlink:href="#mb8f1fc466c" x="301.354315" y="212.231133" style="fill: #1f77b4; stroke: #1f77b4"/>
     <use xlink:href="#mb8f1fc466c" x="304.004327" y="212.231133" style="fill: #1f77b4; stroke: #1f77b4"/>
     <use xlink:href="#mb8f1fc466c" x="306.65434" y="212.231133" style="fill: #1f77b4; stroke: #1f77b4"/>
     <use xlink:href="#mb8f1fc466c" x="309.304352" y="212.231133" style="fill: #1f77b4; stroke: #1f77b4"/>
     <use xlink:href="#mb8f1fc466c" x="311.954364" y="212.231133" style="fill: #1f77b4; stroke: #1f77b4"/>
     <use xlink:href="#mb8f1fc466c" x="314.604376" y="212.231133" style="fill: #1f77b4; stroke: #1f77b4"/>
     <use xlink:href="#mb8f1fc466c" x="317.254389" y="212.231133" style="fill: #1f77b4; stroke: #1f77b4"/>
     <use xlink:href="#mb8f1fc466c" x="319.904401" y="212.231133" style="fill: #1f77b4; stroke: #1f77b4"/>
     <use xlink:href="#mb8f1fc466c" x="322.554413" y="212.231133" style="fill: #1f77b4; stroke: #1f77b4"/>
     <use xlink:href="#mb8f1fc466c" x="325.204425" y="212.231133" style="fill: #1f77b4; stroke: #1f77b4"/>
     <use xlink:href="#mb8f1fc466c" x="327.854438" y="212.231133" style="fill: #1f77b4; stroke: #1f77b4"/>
     <use xlink:href="#mb8f1fc466c" x="330.50445" y="212.231133" style="fill: #1f77b4; stroke: #1f77b4"/>
     <use xlink:href="#mb8f1fc466c" x="333.154462" y="212.231133" style="fill: #1f77b4; stroke: #1f77b4"/>
     <use xlink:href="#mb8f1fc466c" x="335.804475" y="212.231133" style="fill: #1f77b4; stroke: #1f77b4"/>
     <use xlink:href="#mb8f1fc466c" x="338.454487" y="212.231133" style="fill: #1f77b4; stroke: #1f77b4"/>
     <use xlink:href="#mb8f1fc466c" x="341.104499" y="212.231133" style="fill: #1f77b4; stroke: #1f77b4"/>
     <use xlink:href="#mb8f1fc466c" x="343.754511" y="212.231133" style="fill: #1f77b4; stroke: #1f77b4"/>
     <use xlink:href="#mb8f1fc466c" x="346.404524" y="212.231133" style="fill: #1f77b4; stroke: #1f77b4"/>
     <use xlink:href="#mb8f1fc466c" x="349.054536" y="212.231133" style="fill: #1f77b4; stroke: #1f77b4"/>
     <use xlink:href="#mb8f1fc466c" x="351.704548" y="212.231133" style="fill: #1f77b4; stroke: #1f77b4"/>
     <use xlink:href="#mb8f1fc466c" x="354.35456" y="212.231133" style="fill: #1f77b4; stroke: #1f77b4"/>
     <use xlink:href="#mb8f1fc466c" x="357.004573" y="212.231133" style="fill: #1f77b4; stroke: #1f77b4"/>
     <use xlink:href="#mb8f1fc466c" x="359.654585" y="212.231133" style="fill: #1f77b4; stroke: #1f77b4"/>
     <use xlink:href="#mb8f1fc466c" x="362.304597" y="212.231133" style="fill: #1f77b4; stroke: #1f77b4"/>
     <use xlink:href="#mb8f1fc466c" x="364.95461" y="212.231133" style="fill: #1f77b4; stroke: #1f77b4"/>
     <use xlink:href="#mb8f1fc466c" x="367.604622" y="212.231133" style="fill: #1f77b4; stroke: #1f77b4"/>
     <use xlink:href="#mb8f1fc466c" x="370.254634" y="212.231133" style="fill: #1f77b4; stroke: #1f77b4"/>
     <use xlink:href="#mb8f1fc466c" x="372.904646" y="212.231133" style="fill: #1f77b4; stroke: #1f77b4"/>
     <use xlink:href="#mb8f1fc466c" x="375.554659" y="212.231133" style="fill: #1f77b4; stroke: #1f77b4"/>
     <use xlink:href="#mb8f1fc466c" x="378.204671" y="212.231133" style="fill: #1f77b4; stroke: #1f77b4"/>
    </g>
   </g>
   <g id="patch_3">
    <path d="M 44.303125 221.994521 
L 44.303125 7.2 
" style="fill: none; stroke: #000000; stroke-width: 0.8; stroke-linejoin: miter; stroke-linecap: square"/>
   </g>
   <g id="patch_4">
    <path d="M 394.104744 221.994521 
L 394.104744 7.2 
" style="fill: none; stroke: #000000; stroke-width: 0.8; stroke-linejoin: miter; stroke-linecap: square"/>
   </g>
   <g id="patch_5">
    <path d="M 44.303125 221.994521 
L 394.104744 221.994521 
" style="fill: none; stroke: #000000; stroke-width: 0.8; stroke-linejoin: miter; stroke-linecap: square"/>
   </g>
   <g id="patch_6">
    <path d="M 44.303125 7.2 
L 394.104744 7.2 
" style="fill: none; stroke: #000000; stroke-width: 0.8; stroke-linejoin: miter; stroke-linecap: square"/>
   </g>
  </g>
 </g>
 <defs>
  <clipPath id="p18aaef6082">
   <rect x="44.303125" y="7.2" width="349.801619" height="214.794521"/>
  </clipPath>
 </defs>
</svg>
