<?xml version="1.0" encoding="utf-8" standalone="no"?>
<!DOCTYPE svg PUBLIC "-//W3C//DTD SVG 1.1//EN"
  "http://www.w3.org/Graphics/SVG/1.1/DTD/svg11.dtd">
<svg xmlns:xlink="http://www.w3.org/1999/xlink" width="400.782869pt" height="259.550771pt" viewBox="0 0 400.782869 259.550771" xmlns="http://www.w3.org/2000/svg" version="1.1">
 <metadata>
  <rdf:RDF xmlns:dc="http://purl.org/dc/elements/1.1/" xmlns:cc="http://creativecommons.org/ns#" xmlns:rdf="http://www.w3.org/1999/02/22-rdf-syntax-ns#">
   <cc:Work>
    <dc:type rdf:resource="http://purl.org/dc/dcmitype/StillImage"/>
    <dc:date>2024-04-26T18:24:32.228676</dc:date>
    <dc:format>image/svg+xml</dc:format>
    <dc:creator>
     <cc:Agent>
      <dc:title>Matplotlib v3.6.3, https://matplotlib.org/</dc:title>
     </cc:Agent>
    </dc:creator>
   </cc:Work>
  </rdf:RDF>
 </metadata>
 <defs>
  <style type="text/css">*{stroke-linejoin: round; stroke-linecap: butt}</style>
 </defs>
 <g id="figure_1">
  <g id="patch_1">
   <path d="M 0 259.550771 
L 400.782869 259.550771 
L 400.782869 0 
L 0 0 
z
" style="fill: #ffffff"/>
  </g>
  <g id="axes_1">
   <g id="patch_2">
    <path d="M 43.78125 221.994521 
L 393.582869 221.994521 
L 393.582869 7.2 
L 43.78125 7.2 
z
" style="fill: #ffffff"/>
   </g>
   <g id="matplotlib.axis_1">
    <g id="xtick_1">
     <g id="line2d_1">
      <path d="M 59.681324 221.994521 
L 59.681324 7.2 
" clip-path="url(#p8f0e2fbdb1)" style="fill: none; stroke-dasharray: 2.96,1.28; stroke-dashoffset: 0; stroke: #808080; stroke-width: 0.8"/>
     </g>
     <g id="line2d_2">
      <defs>
       <path id="m222b02aea5" d="M 0 0 
L 0 3.5 
" style="stroke: #000000; stroke-width: 0.8"/>
      </defs>
      <g>
       <use xlink:href="#m222b02aea5" x="59.681324" y="221.994521" style="stroke: #000000; stroke-width: 0.8"/>
      </g>
     </g>
     <g id="text_1">
      <!-- −1.00 -->
      <g transform="translate(44.358667 236.592958) scale(0.1 -0.1)">
       <defs>
        <path id="DejaVuSans-2212" d="M 678 2272 
L 4684 2272 
L 4684 1741 
L 678 1741 
L 678 2272 
z
" transform="scale(0.015625)"/>
        <path id="DejaVuSans-31" d="M 794 531 
L 1825 531 
L 1825 4091 
L 703 3866 
L 703 4441 
L 1819 4666 
L 2450 4666 
L 2450 531 
L 3481 531 
L 3481 0 
L 794 0 
L 794 531 
z
" transform="scale(0.015625)"/>
        <path id="DejaVuSans-2e" d="M 684 794 
L 1344 794 
L 1344 0 
L 684 0 
L 684 794 
z
" transform="scale(0.015625)"/>
        <path id="DejaVuSans-30" d="M 2034 4250 
Q 1547 4250 1301 3770 
Q 1056 3291 1056 2328 
Q 1056 1369 1301 889 
Q 1547 409 2034 409 
Q 2525 409 2770 889 
Q 3016 1369 3016 2328 
Q 3016 3291 2770 3770 
Q 2525 4250 2034 4250 
z
M 2034 4750 
Q 2819 4750 3233 4129 
Q 3647 3509 3647 2328 
Q 3647 1150 3233 529 
Q 2819 -91 2034 -91 
Q 1250 -91 836 529 
Q 422 1150 422 2328 
Q 422 3509 836 4129 
Q 1250 4750 2034 4750 
z
" transform="scale(0.015625)"/>
       </defs>
       <use xlink:href="#DejaVuSans-2212"/>
       <use xlink:href="#DejaVuSans-31" x="83.789062"/>
       <use xlink:href="#DejaVuSans-2e" x="147.412109"/>
       <use xlink:href="#DejaVuSans-30" x="179.199219"/>
       <use xlink:href="#DejaVuSans-30" x="242.822266"/>
      </g>
     </g>
    </g>
    <g id="xtick_2">
     <g id="line2d_3">
      <path d="M 99.431508 221.994521 
L 99.431508 7.2 
" clip-path="url(#p8f0e2fbdb1)" style="fill: none; stroke-dasharray: 2.96,1.28; stroke-dashoffset: 0; stroke: #808080; stroke-width: 0.8"/>
     </g>
     <g id="line2d_4">
      <g>
       <use xlink:href="#m222b02aea5" x="99.431508" y="221.994521" style="stroke: #000000; stroke-width: 0.8"/>
      </g>
     </g>
     <g id="text_2">
      <!-- −0.75 -->
      <g transform="translate(84.108851 236.592958) scale(0.1 -0.1)">
       <defs>
        <path id="DejaVuSans-37" d="M 525 4666 
L 3525 4666 
L 3525 4397 
L 1831 0 
L 1172 0 
L 2766 4134 
L 525 4134 
L 525 4666 
z
" transform="scale(0.015625)"/>
        <path id="DejaVuSans-35" d="M 691 4666 
L 3169 4666 
L 3169 4134 
L 1269 4134 
L 1269 2991 
Q 1406 3038 1543 3061 
Q 1681 3084 1819 3084 
Q 2600 3084 3056 2656 
Q 3513 2228 3513 1497 
Q 3513 744 3044 326 
Q 2575 -91 1722 -91 
Q 1428 -91 1123 -41 
Q 819 9 494 109 
L 494 744 
Q 775 591 1075 516 
Q 1375 441 1709 441 
Q 2250 441 2565 725 
Q 2881 1009 2881 1497 
Q 2881 1984 2565 2268 
Q 2250 2553 1709 2553 
Q 1456 2553 1204 2497 
Q 953 2441 691 2322 
L 691 4666 
z
" transform="scale(0.015625)"/>
       </defs>
       <use xlink:href="#DejaVuSans-2212"/>
       <use xlink:href="#DejaVuSans-30" x="83.789062"/>
       <use xlink:href="#DejaVuSans-2e" x="147.412109"/>
       <use xlink:href="#DejaVuSans-37" x="179.199219"/>
       <use xlink:href="#DejaVuSans-35" x="242.822266"/>
      </g>
     </g>
    </g>
    <g id="xtick_3">
     <g id="line2d_5">
      <path d="M 139.181692 221.994521 
L 139.181692 7.2 
" clip-path="url(#p8f0e2fbdb1)" style="fill: none; stroke-dasharray: 2.96,1.28; stroke-dashoffset: 0; stroke: #808080; stroke-width: 0.8"/>
     </g>
     <g id="line2d_6">
      <g>
       <use xlink:href="#m222b02aea5" x="139.181692" y="221.994521" style="stroke: #000000; stroke-width: 0.8"/>
      </g>
     </g>
     <g id="text_3">
      <!-- −0.50 -->
      <g transform="translate(123.859035 236.592958) scale(0.1 -0.1)">
       <use xlink:href="#DejaVuSans-2212"/>
       <use xlink:href="#DejaVuSans-30" x="83.789062"/>
       <use xlink:href="#DejaVuSans-2e" x="147.412109"/>
       <use xlink:href="#DejaVuSans-35" x="179.199219"/>
       <use xlink:href="#DejaVuSans-30" x="242.822266"/>
      </g>
     </g>
    </g>
    <g id="xtick_4">
     <g id="line2d_7">
      <path d="M 178.931876 221.994521 
L 178.931876 7.2 
" clip-path="url(#p8f0e2fbdb1)" style="fill: none; stroke-dasharray: 2.96,1.28; stroke-dashoffset: 0; stroke: #808080; stroke-width: 0.8"/>
     </g>
     <g id="line2d_8">
      <g>
       <use xlink:href="#m222b02aea5" x="178.931876" y="221.994521" style="stroke: #000000; stroke-width: 0.8"/>
      </g>
     </g>
     <g id="text_4">
      <!-- −0.25 -->
      <g transform="translate(163.609219 236.592958) scale(0.1 -0.1)">
       <defs>
        <path id="DejaVuSans-32" d="M 1228 531 
L 3431 531 
L 3431 0 
L 469 0 
L 469 531 
Q 828 903 1448 1529 
Q 2069 2156 2228 2338 
Q 2531 2678 2651 2914 
Q 2772 3150 2772 3378 
Q 2772 3750 2511 3984 
Q 2250 4219 1831 4219 
Q 1534 4219 1204 4116 
Q 875 4013 500 3803 
L 500 4441 
Q 881 4594 1212 4672 
Q 1544 4750 1819 4750 
Q 2544 4750 2975 4387 
Q 3406 4025 3406 3419 
Q 3406 3131 3298 2873 
Q 3191 2616 2906 2266 
Q 2828 2175 2409 1742 
Q 1991 1309 1228 531 
z
" transform="scale(0.015625)"/>
       </defs>
       <use xlink:href="#DejaVuSans-2212"/>
       <use xlink:href="#DejaVuSans-30" x="83.789062"/>
       <use xlink:href="#DejaVuSans-2e" x="147.412109"/>
       <use xlink:href="#DejaVuSans-32" x="179.199219"/>
       <use xlink:href="#DejaVuSans-35" x="242.822266"/>
      </g>
     </g>
    </g>
    <g id="xtick_5">
     <g id="line2d_9">
      <path d="M 218.68206 221.994521 
L 218.68206 7.2 
" clip-path="url(#p8f0e2fbdb1)" style="fill: none; stroke-dasharray: 2.96,1.28; stroke-dashoffset: 0; stroke: #808080; stroke-width: 0.8"/>
     </g>
     <g id="line2d_10">
      <g>
       <use xlink:href="#m222b02aea5" x="218.68206" y="221.994521" style="stroke: #000000; stroke-width: 0.8"/>
      </g>
     </g>
     <g id="text_5">
      <!-- 0.00 -->
      <g transform="translate(207.549247 236.592958) scale(0.1 -0.1)">
       <use xlink:href="#DejaVuSans-30"/>
       <use xlink:href="#DejaVuSans-2e" x="63.623047"/>
       <use xlink:href="#DejaVuSans-30" x="95.410156"/>
       <use xlink:href="#DejaVuSans-30" x="159.033203"/>
      </g>
     </g>
    </g>
    <g id="xtick_6">
     <g id="line2d_11">
      <path d="M 258.432244 221.994521 
L 258.432244 7.2 
" clip-path="url(#p8f0e2fbdb1)" style="fill: none; stroke-dasharray: 2.96,1.28; stroke-dashoffset: 0; stroke: #808080; stroke-width: 0.8"/>
     </g>
     <g id="line2d_12">
      <g>
       <use xlink:href="#m222b02aea5" x="258.432244" y="221.994521" style="stroke: #000000; stroke-width: 0.8"/>
      </g>
     </g>
     <g id="text_6">
      <!-- 0.25 -->
      <g transform="translate(247.299431 236.592958) scale(0.1 -0.1)">
       <use xlink:href="#DejaVuSans-30"/>
       <use xlink:href="#DejaVuSans-2e" x="63.623047"/>
       <use xlink:href="#DejaVuSans-32" x="95.410156"/>
       <use xlink:href="#DejaVuSans-35" x="159.033203"/>
      </g>
     </g>
    </g>
    <g id="xtick_7">
     <g id="line2d_13">
      <path d="M 298.182428 221.994521 
L 298.182428 7.2 
" clip-path="url(#p8f0e2fbdb1)" style="fill: none; stroke-dasharray: 2.96,1.28; stroke-dashoffset: 0; stroke: #808080; stroke-width: 0.8"/>
     </g>
     <g id="line2d_14">
      <g>
       <use xlink:href="#m222b02aea5" x="298.182428" y="221.994521" style="stroke: #000000; stroke-width: 0.8"/>
      </g>
     </g>
     <g id="text_7">
      <!-- 0.50 -->
      <g transform="translate(287.049615 236.592958) scale(0.1 -0.1)">
       <use xlink:href="#DejaVuSans-30"/>
       <use xlink:href="#DejaVuSans-2e" x="63.623047"/>
       <use xlink:href="#DejaVuSans-35" x="95.410156"/>
       <use xlink:href="#DejaVuSans-30" x="159.033203"/>
      </g>
     </g>
    </g>
    <g id="xtick_8">
     <g id="line2d_15">
      <path d="M 337.932612 221.994521 
L 337.932612 7.2 
" clip-path="url(#p8f0e2fbdb1)" style="fill: none; stroke-dasharray: 2.96,1.28; stroke-dashoffset: 0; stroke: #808080; stroke-width: 0.8"/>
     </g>
     <g id="line2d_16">
      <g>
       <use xlink:href="#m222b02aea5" x="337.932612" y="221.994521" style="stroke: #000000; stroke-width: 0.8"/>
      </g>
     </g>
     <g id="text_8">
      <!-- 0.75 -->
      <g transform="translate(326.799799 236.592958) scale(0.1 -0.1)">
       <use xlink:href="#DejaVuSans-30"/>
       <use xlink:href="#DejaVuSans-2e" x="63.623047"/>
       <use xlink:href="#DejaVuSans-37" x="95.410156"/>
       <use xlink:href="#DejaVuSans-35" x="159.033203"/>
      </g>
     </g>
    </g>
    <g id="xtick_9">
     <g id="line2d_17">
      <path d="M 377.682796 221.994521 
L 377.682796 7.2 
" clip-path="url(#p8f0e2fbdb1)" style="fill: none; stroke-dasharray: 2.96,1.28; stroke-dashoffset: 0; stroke: #808080; stroke-width: 0.8"/>
     </g>
     <g id="line2d_18">
      <g>
       <use xlink:href="#m222b02aea5" x="377.682796" y="221.994521" style="stroke: #000000; stroke-width: 0.8"/>
      </g>
     </g>
     <g id="text_9">
      <!-- 1.00 -->
      <g transform="translate(366.549983 236.592958) scale(0.1 -0.1)">
       <use xlink:href="#DejaVuSans-31"/>
       <use xlink:href="#DejaVuSans-2e" x="63.623047"/>
       <use xlink:href="#DejaVuSans-30" x="95.410156"/>
       <use xlink:href="#DejaVuSans-30" x="159.033203"/>
      </g>
     </g>
    </g>
    <g id="text_10">
     <!-- $x$ -->
     <g transform="translate(215.68206 250.271083) scale(0.1 -0.1)">
      <defs>
       <path id="DejaVuSans-Oblique-78" d="M 3841 3500 
L 2234 1784 
L 3219 0 
L 2559 0 
L 1819 1388 
L 531 0 
L -166 0 
L 1556 1844 
L 641 3500 
L 1300 3500 
L 1972 2234 
L 3144 3500 
L 3841 3500 
z
" transform="scale(0.015625)"/>
      </defs>
      <use xlink:href="#DejaVuSans-Oblique-78" transform="translate(0 0.3125)"/>
     </g>
    </g>
   </g>
   <g id="matplotlib.axis_2">
    <g id="ytick_1">
     <g id="line2d_19">
      <path d="M 43.78125 212.231133 
L 393.582869 212.231133 
" clip-path="url(#p8f0e2fbdb1)" style="fill: none; stroke-dasharray: 2.96,1.28; stroke-dashoffset: 0; stroke: #808080; stroke-width: 0.8"/>
     </g>
     <g id="line2d_20">
      <defs>
       <path id="m8593f2fbf0" d="M 0 0 
L -3.5 0 
" style="stroke: #000000; stroke-width: 0.8"/>
      </defs>
      <g>
       <use xlink:href="#m8593f2fbf0" x="43.78125" y="212.231133" style="stroke: #000000; stroke-width: 0.8"/>
      </g>
     </g>
     <g id="text_11">
      <!-- 0.0 -->
      <g transform="translate(20.878125 216.030352) scale(0.1 -0.1)">
       <use xlink:href="#DejaVuSans-30"/>
       <use xlink:href="#DejaVuSans-2e" x="63.623047"/>
       <use xlink:href="#DejaVuSans-30" x="95.410156"/>
      </g>
     </g>
    </g>
    <g id="ytick_2">
     <g id="line2d_21">
      <path d="M 43.78125 173.177584 
L 393.582869 173.177584 
" clip-path="url(#p8f0e2fbdb1)" style="fill: none; stroke-dasharray: 2.96,1.28; stroke-dashoffset: 0; stroke: #808080; stroke-width: 0.8"/>
     </g>
     <g id="line2d_22">
      <g>
       <use xlink:href="#m8593f2fbf0" x="43.78125" y="173.177584" style="stroke: #000000; stroke-width: 0.8"/>
      </g>
     </g>
     <g id="text_12">
      <!-- 0.2 -->
      <g transform="translate(20.878125 176.976803) scale(0.1 -0.1)">
       <use xlink:href="#DejaVuSans-30"/>
       <use xlink:href="#DejaVuSans-2e" x="63.623047"/>
       <use xlink:href="#DejaVuSans-32" x="95.410156"/>
      </g>
     </g>
    </g>
    <g id="ytick_3">
     <g id="line2d_23">
      <path d="M 43.78125 134.124035 
L 393.582869 134.124035 
" clip-path="url(#p8f0e2fbdb1)" style="fill: none; stroke-dasharray: 2.96,1.28; stroke-dashoffset: 0; stroke: #808080; stroke-width: 0.8"/>
     </g>
     <g id="line2d_24">
      <g>
       <use xlink:href="#m8593f2fbf0" x="43.78125" y="134.124035" style="stroke: #000000; stroke-width: 0.8"/>
      </g>
     </g>
     <g id="text_13">
      <!-- 0.4 -->
      <g transform="translate(20.878125 137.923254) scale(0.1 -0.1)">
       <defs>
        <path id="DejaVuSans-34" d="M 2419 4116 
L 825 1625 
L 2419 1625 
L 2419 4116 
z
M 2253 4666 
L 3047 4666 
L 3047 1625 
L 3713 1625 
L 3713 1100 
L 3047 1100 
L 3047 0 
L 2419 0 
L 2419 1100 
L 313 1100 
L 313 1709 
L 2253 4666 
z
" transform="scale(0.015625)"/>
       </defs>
       <use xlink:href="#DejaVuSans-30"/>
       <use xlink:href="#DejaVuSans-2e" x="63.623047"/>
       <use xlink:href="#DejaVuSans-34" x="95.410156"/>
      </g>
     </g>
    </g>
    <g id="ytick_4">
     <g id="line2d_25">
      <path d="M 43.78125 95.070486 
L 393.582869 95.070486 
" clip-path="url(#p8f0e2fbdb1)" style="fill: none; stroke-dasharray: 2.96,1.28; stroke-dashoffset: 0; stroke: #808080; stroke-width: 0.8"/>
     </g>
     <g id="line2d_26">
      <g>
       <use xlink:href="#m8593f2fbf0" x="43.78125" y="95.070486" style="stroke: #000000; stroke-width: 0.8"/>
      </g>
     </g>
     <g id="text_14">
      <!-- 0.6 -->
      <g transform="translate(20.878125 98.869704) scale(0.1 -0.1)">
       <defs>
        <path id="DejaVuSans-36" d="M 2113 2584 
Q 1688 2584 1439 2293 
Q 1191 2003 1191 1497 
Q 1191 994 1439 701 
Q 1688 409 2113 409 
Q 2538 409 2786 701 
Q 3034 994 3034 1497 
Q 3034 2003 2786 2293 
Q 2538 2584 2113 2584 
z
M 3366 4563 
L 3366 3988 
Q 3128 4100 2886 4159 
Q 2644 4219 2406 4219 
Q 1781 4219 1451 3797 
Q 1122 3375 1075 2522 
Q 1259 2794 1537 2939 
Q 1816 3084 2150 3084 
Q 2853 3084 3261 2657 
Q 3669 2231 3669 1497 
Q 3669 778 3244 343 
Q 2819 -91 2113 -91 
Q 1303 -91 875 529 
Q 447 1150 447 2328 
Q 447 3434 972 4092 
Q 1497 4750 2381 4750 
Q 2619 4750 2861 4703 
Q 3103 4656 3366 4563 
z
" transform="scale(0.015625)"/>
       </defs>
       <use xlink:href="#DejaVuSans-30"/>
       <use xlink:href="#DejaVuSans-2e" x="63.623047"/>
       <use xlink:href="#DejaVuSans-36" x="95.410156"/>
      </g>
     </g>
    </g>
    <g id="ytick_5">
     <g id="line2d_27">
      <path d="M 43.78125 56.016936 
L 393.582869 56.016936 
" clip-path="url(#p8f0e2fbdb1)" style="fill: none; stroke-dasharray: 2.96,1.28; stroke-dashoffset: 0; stroke: #808080; stroke-width: 0.8"/>
     </g>
     <g id="line2d_28">
      <g>
       <use xlink:href="#m8593f2fbf0" x="43.78125" y="56.016936" style="stroke: #000000; stroke-width: 0.8"/>
      </g>
     </g>
     <g id="text_15">
      <!-- 0.8 -->
      <g transform="translate(20.878125 59.816155) scale(0.1 -0.1)">
       <defs>
        <path id="DejaVuSans-38" d="M 2034 2216 
Q 1584 2216 1326 1975 
Q 1069 1734 1069 1313 
Q 1069 891 1326 650 
Q 1584 409 2034 409 
Q 2484 409 2743 651 
Q 3003 894 3003 1313 
Q 3003 1734 2745 1975 
Q 2488 2216 2034 2216 
z
M 1403 2484 
Q 997 2584 770 2862 
Q 544 3141 544 3541 
Q 544 4100 942 4425 
Q 1341 4750 2034 4750 
Q 2731 4750 3128 4425 
Q 3525 4100 3525 3541 
Q 3525 3141 3298 2862 
Q 3072 2584 2669 2484 
Q 3125 2378 3379 2068 
Q 3634 1759 3634 1313 
Q 3634 634 3220 271 
Q 2806 -91 2034 -91 
Q 1263 -91 848 271 
Q 434 634 434 1313 
Q 434 1759 690 2068 
Q 947 2378 1403 2484 
z
M 1172 3481 
Q 1172 3119 1398 2916 
Q 1625 2713 2034 2713 
Q 2441 2713 2670 2916 
Q 2900 3119 2900 3481 
Q 2900 3844 2670 4047 
Q 2441 4250 2034 4250 
Q 1625 4250 1398 4047 
Q 1172 3844 1172 3481 
z
" transform="scale(0.015625)"/>
       </defs>
       <use xlink:href="#DejaVuSans-30"/>
       <use xlink:href="#DejaVuSans-2e" x="63.623047"/>
       <use xlink:href="#DejaVuSans-38" x="95.410156"/>
      </g>
     </g>
    </g>
    <g id="ytick_6">
     <g id="line2d_29">
      <path d="M 43.78125 16.963387 
L 393.582869 16.963387 
" clip-path="url(#p8f0e2fbdb1)" style="fill: none; stroke-dasharray: 2.96,1.28; stroke-dashoffset: 0; stroke: #808080; stroke-width: 0.8"/>
     </g>
     <g id="line2d_30">
      <g>
       <use xlink:href="#m8593f2fbf0" x="43.78125" y="16.963387" style="stroke: #000000; stroke-width: 0.8"/>
      </g>
     </g>
     <g id="text_16">
      <!-- 1.0 -->
      <g transform="translate(20.878125 20.762606) scale(0.1 -0.1)">
       <use xlink:href="#DejaVuSans-31"/>
       <use xlink:href="#DejaVuSans-2e" x="63.623047"/>
       <use xlink:href="#DejaVuSans-30" x="95.410156"/>
      </g>
     </g>
    </g>
    <g id="text_17">
     <!-- $\mathrm{heaviside}(x)$ -->
     <g transform="translate(14.798438 145.39726) rotate(-90) scale(0.1 -0.1)">
      <defs>
       <path id="DejaVuSans-68" d="M 3513 2113 
L 3513 0 
L 2938 0 
L 2938 2094 
Q 2938 2591 2744 2837 
Q 2550 3084 2163 3084 
Q 1697 3084 1428 2787 
Q 1159 2491 1159 1978 
L 1159 0 
L 581 0 
L 581 4863 
L 1159 4863 
L 1159 2956 
Q 1366 3272 1645 3428 
Q 1925 3584 2291 3584 
Q 2894 3584 3203 3211 
Q 3513 2838 3513 2113 
z
" transform="scale(0.015625)"/>
       <path id="DejaVuSans-65" d="M 3597 1894 
L 3597 1613 
L 953 1613 
Q 991 1019 1311 708 
Q 1631 397 2203 397 
Q 2534 397 2845 478 
Q 3156 559 3463 722 
L 3463 178 
Q 3153 47 2828 -22 
Q 2503 -91 2169 -91 
Q 1331 -91 842 396 
Q 353 884 353 1716 
Q 353 2575 817 3079 
Q 1281 3584 2069 3584 
Q 2775 3584 3186 3129 
Q 3597 2675 3597 1894 
z
M 3022 2063 
Q 3016 2534 2758 2815 
Q 2500 3097 2075 3097 
Q 1594 3097 1305 2825 
Q 1016 2553 972 2059 
L 3022 2063 
z
" transform="scale(0.015625)"/>
       <path id="DejaVuSans-61" d="M 2194 1759 
Q 1497 1759 1228 1600 
Q 959 1441 959 1056 
Q 959 750 1161 570 
Q 1363 391 1709 391 
Q 2188 391 2477 730 
Q 2766 1069 2766 1631 
L 2766 1759 
L 2194 1759 
z
M 3341 1997 
L 3341 0 
L 2766 0 
L 2766 531 
Q 2569 213 2275 61 
Q 1981 -91 1556 -91 
Q 1019 -91 701 211 
Q 384 513 384 1019 
Q 384 1609 779 1909 
Q 1175 2209 1959 2209 
L 2766 2209 
L 2766 2266 
Q 2766 2663 2505 2880 
Q 2244 3097 1772 3097 
Q 1472 3097 1187 3025 
Q 903 2953 641 2809 
L 641 3341 
Q 956 3463 1253 3523 
Q 1550 3584 1831 3584 
Q 2591 3584 2966 3190 
Q 3341 2797 3341 1997 
z
" transform="scale(0.015625)"/>
       <path id="DejaVuSans-76" d="M 191 3500 
L 800 3500 
L 1894 563 
L 2988 3500 
L 3597 3500 
L 2284 0 
L 1503 0 
L 191 3500 
z
" transform="scale(0.015625)"/>
       <path id="DejaVuSans-69" d="M 603 3500 
L 1178 3500 
L 1178 0 
L 603 0 
L 603 3500 
z
M 603 4863 
L 1178 4863 
L 1178 4134 
L 603 4134 
L 603 4863 
z
" transform="scale(0.015625)"/>
       <path id="DejaVuSans-73" d="M 2834 3397 
L 2834 2853 
Q 2591 2978 2328 3040 
Q 2066 3103 1784 3103 
Q 1356 3103 1142 2972 
Q 928 2841 928 2578 
Q 928 2378 1081 2264 
Q 1234 2150 1697 2047 
L 1894 2003 
Q 2506 1872 2764 1633 
Q 3022 1394 3022 966 
Q 3022 478 2636 193 
Q 2250 -91 1575 -91 
Q 1294 -91 989 -36 
Q 684 19 347 128 
L 347 722 
Q 666 556 975 473 
Q 1284 391 1588 391 
Q 1994 391 2212 530 
Q 2431 669 2431 922 
Q 2431 1156 2273 1281 
Q 2116 1406 1581 1522 
L 1381 1569 
Q 847 1681 609 1914 
Q 372 2147 372 2553 
Q 372 3047 722 3315 
Q 1072 3584 1716 3584 
Q 2034 3584 2315 3537 
Q 2597 3491 2834 3397 
z
" transform="scale(0.015625)"/>
       <path id="DejaVuSans-64" d="M 2906 2969 
L 2906 4863 
L 3481 4863 
L 3481 0 
L 2906 0 
L 2906 525 
Q 2725 213 2448 61 
Q 2172 -91 1784 -91 
Q 1150 -91 751 415 
Q 353 922 353 1747 
Q 353 2572 751 3078 
Q 1150 3584 1784 3584 
Q 2172 3584 2448 3432 
Q 2725 3281 2906 2969 
z
M 947 1747 
Q 947 1113 1208 752 
Q 1469 391 1925 391 
Q 2381 391 2643 752 
Q 2906 1113 2906 1747 
Q 2906 2381 2643 2742 
Q 2381 3103 1925 3103 
Q 1469 3103 1208 2742 
Q 947 2381 947 1747 
z
" transform="scale(0.015625)"/>
       <path id="DejaVuSans-28" d="M 1984 4856 
Q 1566 4138 1362 3434 
Q 1159 2731 1159 2009 
Q 1159 1288 1364 580 
Q 1569 -128 1984 -844 
L 1484 -844 
Q 1016 -109 783 600 
Q 550 1309 550 2009 
Q 550 2706 781 3412 
Q 1013 4119 1484 4856 
L 1984 4856 
z
" transform="scale(0.015625)"/>
       <path id="DejaVuSans-29" d="M 513 4856 
L 1013 4856 
Q 1481 4119 1714 3412 
Q 1947 2706 1947 2009 
Q 1947 1309 1714 600 
Q 1481 -109 1013 -844 
L 513 -844 
Q 928 -128 1133 580 
Q 1338 1288 1338 2009 
Q 1338 2731 1133 3434 
Q 928 4138 513 4856 
z
" transform="scale(0.015625)"/>
      </defs>
      <use xlink:href="#DejaVuSans-68" transform="translate(0 0.015625)"/>
      <use xlink:href="#DejaVuSans-65" transform="translate(63.378906 0.015625)"/>
      <use xlink:href="#DejaVuSans-61" transform="translate(124.902344 0.015625)"/>
      <use xlink:href="#DejaVuSans-76" transform="translate(186.181641 0.015625)"/>
      <use xlink:href="#DejaVuSans-69" transform="translate(245.361328 0.015625)"/>
      <use xlink:href="#DejaVuSans-73" transform="translate(273.144531 0.015625)"/>
      <use xlink:href="#DejaVuSans-69" transform="translate(325.244141 0.015625)"/>
      <use xlink:href="#DejaVuSans-64" transform="translate(353.027344 0.015625)"/>
      <use xlink:href="#DejaVuSans-65" transform="translate(416.503906 0.015625)"/>
      <use xlink:href="#DejaVuSans-28" transform="translate(478.027344 0.015625)"/>
      <use xlink:href="#DejaVuSans-Oblique-78" transform="translate(517.041016 0.015625)"/>
      <use xlink:href="#DejaVuSans-29" transform="translate(576.220703 0.015625)"/>
     </g>
    </g>
   </g>
   <g id="line2d_31">
    <path d="M 59.681324 212.231133 
L 62.861338 212.231133 
L 66.041353 212.231133 
L 69.221368 212.231133 
L 72.401383 212.231133 
L 75.581397 212.231133 
L 78.761412 212.231133 
L 81.941427 212.231133 
L 85.121441 212.231133 
L 88.301456 212.231133 
L 91.481471 212.231133 
L 94.661486 212.231133 
L 97.8415 212.231133 
L 101.021515 212.231133 
L 104.20153 212.231133 
L 107.381544 212.231133 
L 110.561559 212.231133 
L 113.741574 212.231133 
L 116.921589 212.231133 
L 120.101603 212.231133 
L 123.281618 212.231133 
L 126.461633 212.231133 
L 129.641648 212.231133 
L 132.821662 212.231133 
L 136.001677 212.231133 
L 139.181692 212.231133 
L 142.361706 212.231133 
L 145.541721 212.231133 
L 148.721736 212.231133 
L 151.901751 212.231133 
L 155.081765 212.231133 
L 158.26178 212.231133 
L 161.441795 212.231133 
L 164.621809 212.231133 
L 167.801824 212.231133 
L 170.981839 212.231133 
L 174.161854 212.231133 
L 177.341868 212.231133 
L 180.521883 212.231133 
L 183.701898 212.231133 
L 186.881913 212.231133 
L 190.061927 212.231133 
L 193.241942 212.231133 
L 196.421957 212.231133 
L 199.601971 212.231133 
L 202.781986 212.231133 
L 205.962001 212.231133 
L 209.142016 212.231133 
L 212.32203 212.231133 
L 215.502045 212.231133 
L 218.68206 114.59726 
L 221.862074 16.963387 
L 225.042089 16.963387 
L 228.222104 16.963387 
L 231.402119 16.963387 
L 234.582133 16.963387 
L 237.762148 16.963387 
L 240.942163 16.963387 
L 244.122178 16.963387 
L 247.302192 16.963387 
L 250.482207 16.963387 
L 253.662222 16.963387 
L 256.842236 16.963387 
L 260.022251 16.963387 
L 263.202266 16.963387 
L 266.382281 16.963387 
L 269.562295 16.963387 
L 272.74231 16.963387 
L 275.922325 16.963387 
L 279.102339 16.963387 
L 282.282354 16.963387 
L 285.462369 16.963387 
L 288.642384 16.963387 
L 291.822398 16.963387 
L 295.002413 16.963387 
L 298.182428 16.963387 
L 301.362443 16.963387 
L 304.542457 16.963387 
L 307.722472 16.963387 
L 310.902487 16.963387 
L 314.082501 16.963387 
L 317.262516 16.963387 
L 320.442531 16.963387 
L 323.622546 16.963387 
L 326.80256 16.963387 
L 329.982575 16.963387 
L 333.16259 16.963387 
L 336.342604 16.963387 
L 339.522619 16.963387 
L 342.702634 16.963387 
L 345.882649 16.963387 
L 349.062663 16.963387 
L 352.242678 16.963387 
L 355.422693 16.963387 
L 358.602708 16.963387 
L 361.782722 16.963387 
L 364.962737 16.963387 
L 368.142752 16.963387 
L 371.322766 16.963387 
L 374.502781 16.963387 
L 377.682796 16.963387 
" clip-path="url(#p8f0e2fbdb1)" style="fill: none; stroke: #1f77b4; stroke-width: 1.5; stroke-linecap: square"/>
    <defs>
     <path id="mb97aed3e8f" d="M 0 3 
C 0.795609 3 1.55874 2.683901 2.12132 2.12132 
C 2.683901 1.55874 3 0.795609 3 0 
C 3 -0.795609 2.683901 -1.55874 2.12132 -2.12132 
C 1.55874 -2.683901 0.795609 -3 0 -3 
C -0.795609 -3 -1.55874 -2.683901 -2.12132 -2.12132 
C -2.683901 -1.55874 -3 -0.795609 -3 0 
C -3 0.795609 -2.683901 1.55874 -2.12132 2.12132 
C -1.55874 2.683901 -0.795609 3 0 3 
z
" style="stroke: #1f77b4"/>
    </defs>
    <g clip-path="url(#p8f0e2fbdb1)">
     <use xlink:href="#mb97aed3e8f" x="59.681324" y="212.231133" style="fill: #1f77b4; stroke: #1f77b4"/>
     <use xlink:href="#mb97aed3e8f" x="62.861338" y="212.231133" style="fill: #1f77b4; stroke: #1f77b4"/>
     <use xlink:href="#mb97aed3e8f" x="66.041353" y="212.231133" style="fill: #1f77b4; stroke: #1f77b4"/>
     <use xlink:href="#mb97aed3e8f" x="69.221368" y="212.231133" style="fill: #1f77b4; stroke: #1f77b4"/>
     <use xlink:href="#mb97aed3e8f" x="72.401383" y="212.231133" style="fill: #1f77b4; stroke: #1f77b4"/>
     <use xlink:href="#mb97aed3e8f" x="75.581397" y="212.231133" style="fill: #1f77b4; stroke: #1f77b4"/>
     <use xlink:href="#mb97aed3e8f" x="78.761412" y="212.231133" style="fill: #1f77b4; stroke: #1f77b4"/>
     <use xlink:href="#mb97aed3e8f" x="81.941427" y="212.231133" style="fill: #1f77b4; stroke: #1f77b4"/>
     <use xlink:href="#mb97aed3e8f" x="85.121441" y="212.231133" style="fill: #1f77b4; stroke: #1f77b4"/>
     <use xlink:href="#mb97aed3e8f" x="88.301456" y="212.231133" style="fill: #1f77b4; stroke: #1f77b4"/>
     <use xlink:href="#mb97aed3e8f" x="91.481471" y="212.231133" style="fill: #1f77b4; stroke: #1f77b4"/>
     <use xlink:href="#mb97aed3e8f" x="94.661486" y="212.231133" style="fill: #1f77b4; stroke: #1f77b4"/>
     <use xlink:href="#mb97aed3e8f" x="97.8415" y="212.231133" style="fill: #1f77b4; stroke: #1f77b4"/>
     <use xlink:href="#mb97aed3e8f" x="101.021515" y="212.231133" style="fill: #1f77b4; stroke: #1f77b4"/>
     <use xlink:href="#mb97aed3e8f" x="104.20153" y="212.231133" style="fill: #1f77b4; stroke: #1f77b4"/>
     <use xlink:href="#mb97aed3e8f" x="107.381544" y="212.231133" style="fill: #1f77b4; stroke: #1f77b4"/>
     <use xlink:href="#mb97aed3e8f" x="110.561559" y="212.231133" style="fill: #1f77b4; stroke: #1f77b4"/>
     <use xlink:href="#mb97aed3e8f" x="113.741574" y="212.231133" style="fill: #1f77b4; stroke: #1f77b4"/>
     <use xlink:href="#mb97aed3e8f" x="116.921589" y="212.231133" style="fill: #1f77b4; stroke: #1f77b4"/>
     <use xlink:href="#mb97aed3e8f" x="120.101603" y="212.231133" style="fill: #1f77b4; stroke: #1f77b4"/>
     <use xlink:href="#mb97aed3e8f" x="123.281618" y="212.231133" style="fill: #1f77b4; stroke: #1f77b4"/>
     <use xlink:href="#mb97aed3e8f" x="126.461633" y="212.231133" style="fill: #1f77b4; stroke: #1f77b4"/>
     <use xlink:href="#mb97aed3e8f" x="129.641648" y="212.231133" style="fill: #1f77b4; stroke: #1f77b4"/>
     <use xlink:href="#mb97aed3e8f" x="132.821662" y="212.231133" style="fill: #1f77b4; stroke: #1f77b4"/>
     <use xlink:href="#mb97aed3e8f" x="136.001677" y="212.231133" style="fill: #1f77b4; stroke: #1f77b4"/>
     <use xlink:href="#mb97aed3e8f" x="139.181692" y="212.231133" style="fill: #1f77b4; stroke: #1f77b4"/>
     <use xlink:href="#mb97aed3e8f" x="142.361706" y="212.231133" style="fill: #1f77b4; stroke: #1f77b4"/>
     <use xlink:href="#mb97aed3e8f" x="145.541721" y="212.231133" style="fill: #1f77b4; stroke: #1f77b4"/>
     <use xlink:href="#mb97aed3e8f" x="148.721736" y="212.231133" style="fill: #1f77b4; stroke: #1f77b4"/>
     <use xlink:href="#mb97aed3e8f" x="151.901751" y="212.231133" style="fill: #1f77b4; stroke: #1f77b4"/>
     <use xlink:href="#mb97aed3e8f" x="155.081765" y="212.231133" style="fill: #1f77b4; stroke: #1f77b4"/>
     <use xlink:href="#mb97aed3e8f" x="158.26178" y="212.231133" style="fill: #1f77b4; stroke: #1f77b4"/>
     <use xlink:href="#mb97aed3e8f" x="161.441795" y="212.231133" style="fill: #1f77b4; stroke: #1f77b4"/>
     <use xlink:href="#mb97aed3e8f" x="164.621809" y="212.231133" style="fill: #1f77b4; stroke: #1f77b4"/>
     <use xlink:href="#mb97aed3e8f" x="167.801824" y="212.231133" style="fill: #1f77b4; stroke: #1f77b4"/>
     <use xlink:href="#mb97aed3e8f" x="170.981839" y="212.231133" style="fill: #1f77b4; stroke: #1f77b4"/>
     <use xlink:href="#mb97aed3e8f" x="174.161854" y="212.231133" style="fill: #1f77b4; stroke: #1f77b4"/>
     <use xlink:href="#mb97aed3e8f" x="177.341868" y="212.231133" style="fill: #1f77b4; stroke: #1f77b4"/>
     <use xlink:href="#mb97aed3e8f" x="180.521883" y="212.231133" style="fill: #1f77b4; stroke: #1f77b4"/>
     <use xlink:href="#mb97aed3e8f" x="183.701898" y="212.231133" style="fill: #1f77b4; stroke: #1f77b4"/>
     <use xlink:href="#mb97aed3e8f" x="186.881913" y="212.231133" style="fill: #1f77b4; stroke: #1f77b4"/>
     <use xlink:href="#mb97aed3e8f" x="190.061927" y="212.231133" style="fill: #1f77b4; stroke: #1f77b4"/>
     <use xlink:href="#mb97aed3e8f" x="193.241942" y="212.231133" style="fill: #1f77b4; stroke: #1f77b4"/>
     <use xlink:href="#mb97aed3e8f" x="196.421957" y="212.231133" style="fill: #1f77b4; stroke: #1f77b4"/>
     <use xlink:href="#mb97aed3e8f" x="199.601971" y="212.231133" style="fill: #1f77b4; stroke: #1f77b4"/>
     <use xlink:href="#mb97aed3e8f" x="202.781986" y="212.231133" style="fill: #1f77b4; stroke: #1f77b4"/>
     <use xlink:href="#mb97aed3e8f" x="205.962001" y="212.231133" style="fill: #1f77b4; stroke: #1f77b4"/>
     <use xlink:href="#mb97aed3e8f" x="209.142016" y="212.231133" style="fill: #1f77b4; stroke: #1f77b4"/>
     <use xlink:href="#mb97aed3e8f" x="212.32203" y="212.231133" style="fill: #1f77b4; stroke: #1f77b4"/>
     <use xlink:href="#mb97aed3e8f" x="215.502045" y="212.231133" style="fill: #1f77b4; stroke: #1f77b4"/>
     <use xlink:href="#mb97aed3e8f" x="218.68206" y="114.59726" style="fill: #1f77b4; stroke: #1f77b4"/>
     <use xlink:href="#mb97aed3e8f" x="221.862074" y="16.963387" style="fill: #1f77b4; stroke: #1f77b4"/>
     <use xlink:href="#mb97aed3e8f" x="225.042089" y="16.963387" style="fill: #1f77b4; stroke: #1f77b4"/>
     <use xlink:href="#mb97aed3e8f" x="228.222104" y="16.963387" style="fill: #1f77b4; stroke: #1f77b4"/>
     <use xlink:href="#mb97aed3e8f" x="231.402119" y="16.963387" style="fill: #1f77b4; stroke: #1f77b4"/>
     <use xlink:href="#mb97aed3e8f" x="234.582133" y="16.963387" style="fill: #1f77b4; stroke: #1f77b4"/>
     <use xlink:href="#mb97aed3e8f" x="237.762148" y="16.963387" style="fill: #1f77b4; stroke: #1f77b4"/>
     <use xlink:href="#mb97aed3e8f" x="240.942163" y="16.963387" style="fill: #1f77b4; stroke: #1f77b4"/>
     <use xlink:href="#mb97aed3e8f" x="244.122178" y="16.963387" style="fill: #1f77b4; stroke: #1f77b4"/>
     <use xlink:href="#mb97aed3e8f" x="247.302192" y="16.963387" style="fill: #1f77b4; stroke: #1f77b4"/>
     <use xlink:href="#mb97aed3e8f" x="250.482207" y="16.963387" style="fill: #1f77b4; stroke: #1f77b4"/>
     <use xlink:href="#mb97aed3e8f" x="253.662222" y="16.963387" style="fill: #1f77b4; stroke: #1f77b4"/>
     <use xlink:href="#mb97aed3e8f" x="256.842236" y="16.963387" style="fill: #1f77b4; stroke: #1f77b4"/>
     <use xlink:href="#mb97aed3e8f" x="260.022251" y="16.963387" style="fill: #1f77b4; stroke: #1f77b4"/>
     <use xlink:href="#mb97aed3e8f" x="263.202266" y="16.963387" style="fill: #1f77b4; stroke: #1f77b4"/>
     <use xlink:href="#mb97aed3e8f" x="266.382281" y="16.963387" style="fill: #1f77b4; stroke: #1f77b4"/>
     <use xlink:href="#mb97aed3e8f" x="269.562295" y="16.963387" style="fill: #1f77b4; stroke: #1f77b4"/>
     <use xlink:href="#mb97aed3e8f" x="272.74231" y="16.963387" style="fill: #1f77b4; stroke: #1f77b4"/>
     <use xlink:href="#mb97aed3e8f" x="275.922325" y="16.963387" style="fill: #1f77b4; stroke: #1f77b4"/>
     <use xlink:href="#mb97aed3e8f" x="279.102339" y="16.963387" style="fill: #1f77b4; stroke: #1f77b4"/>
     <use xlink:href="#mb97aed3e8f" x="282.282354" y="16.963387" style="fill: #1f77b4; stroke: #1f77b4"/>
     <use xlink:href="#mb97aed3e8f" x="285.462369" y="16.963387" style="fill: #1f77b4; stroke: #1f77b4"/>
     <use xlink:href="#mb97aed3e8f" x="288.642384" y="16.963387" style="fill: #1f77b4; stroke: #1f77b4"/>
     <use xlink:href="#mb97aed3e8f" x="291.822398" y="16.963387" style="fill: #1f77b4; stroke: #1f77b4"/>
     <use xlink:href="#mb97aed3e8f" x="295.002413" y="16.963387" style="fill: #1f77b4; stroke: #1f77b4"/>
     <use xlink:href="#mb97aed3e8f" x="298.182428" y="16.963387" style="fill: #1f77b4; stroke: #1f77b4"/>
     <use xlink:href="#mb97aed3e8f" x="301.362443" y="16.963387" style="fill: #1f77b4; stroke: #1f77b4"/>
     <use xlink:href="#mb97aed3e8f" x="304.542457" y="16.963387" style="fill: #1f77b4; stroke: #1f77b4"/>
     <use xlink:href="#mb97aed3e8f" x="307.722472" y="16.963387" style="fill: #1f77b4; stroke: #1f77b4"/>
     <use xlink:href="#mb97aed3e8f" x="310.902487" y="16.963387" style="fill: #1f77b4; stroke: #1f77b4"/>
     <use xlink:href="#mb97aed3e8f" x="314.082501" y="16.963387" style="fill: #1f77b4; stroke: #1f77b4"/>
     <use xlink:href="#mb97aed3e8f" x="317.262516" y="16.963387" style="fill: #1f77b4; stroke: #1f77b4"/>
     <use xlink:href="#mb97aed3e8f" x="320.442531" y="16.963387" style="fill: #1f77b4; stroke: #1f77b4"/>
     <use xlink:href="#mb97aed3e8f" x="323.622546" y="16.963387" style="fill: #1f77b4; stroke: #1f77b4"/>
     <use xlink:href="#mb97aed3e8f" x="326.80256" y="16.963387" style="fill: #1f77b4; stroke: #1f77b4"/>
     <use xlink:href="#mb97aed3e8f" x="329.982575" y="16.963387" style="fill: #1f77b4; stroke: #1f77b4"/>
     <use xlink:href="#mb97aed3e8f" x="333.16259" y="16.963387" style="fill: #1f77b4; stroke: #1f77b4"/>
     <use xlink:href="#mb97aed3e8f" x="336.342604" y="16.963387" style="fill: #1f77b4; stroke: #1f77b4"/>
     <use xlink:href="#mb97aed3e8f" x="339.522619" y="16.963387" style="fill: #1f77b4; stroke: #1f77b4"/>
     <use xlink:href="#mb97aed3e8f" x="342.702634" y="16.963387" style="fill: #1f77b4; stroke: #1f77b4"/>
     <use xlink:href="#mb97aed3e8f" x="345.882649" y="16.963387" style="fill: #1f77b4; stroke: #1f77b4"/>
     <use xlink:href="#mb97aed3e8f" x="349.062663" y="16.963387" style="fill: #1f77b4; stroke: #1f77b4"/>
     <use xlink:href="#mb97aed3e8f" x="352.242678" y="16.963387" style="fill: #1f77b4; stroke: #1f77b4"/>
     <use xlink:href="#mb97aed3e8f" x="355.422693" y="16.963387" style="fill: #1f77b4; stroke: #1f77b4"/>
     <use xlink:href="#mb97aed3e8f" x="358.602708" y="16.963387" style="fill: #1f77b4; stroke: #1f77b4"/>
     <use xlink:href="#mb97aed3e8f" x="361.782722" y="16.963387" style="fill: #1f77b4; stroke: #1f77b4"/>
     <use xlink:href="#mb97aed3e8f" x="364.962737" y="16.963387" style="fill: #1f77b4; stroke: #1f77b4"/>
     <use xlink:href="#mb97aed3e8f" x="368.142752" y="16.963387" style="fill: #1f77b4; stroke: #1f77b4"/>
     <use xlink:href="#mb97aed3e8f" x="371.322766" y="16.963387" style="fill: #1f77b4; stroke: #1f77b4"/>
     <use xlink:href="#mb97aed3e8f" x="374.502781" y="16.963387" style="fill: #1f77b4; stroke: #1f77b4"/>
     <use xlink:href="#mb97aed3e8f" x="377.682796" y="16.963387" style="fill: #1f77b4; stroke: #1f77b4"/>
    </g>
   </g>
   <g id="patch_3">
    <path d="M 43.78125 221.994521 
L 43.78125 7.2 
" style="fill: none; stroke: #000000; stroke-width: 0.8; stroke-linejoin: miter; stroke-linecap: square"/>
   </g>
   <g id="patch_4">
    <path d="M 393.582869 221.994521 
L 393.582869 7.2 
" style="fill: none; stroke: #000000; stroke-width: 0.8; stroke-linejoin: miter; stroke-linecap: square"/>
   </g>
   <g id="patch_5">
    <path d="M 43.78125 221.994521 
L 393.582869 221.994521 
" style="fill: none; stroke: #000000; stroke-width: 0.8; stroke-linejoin: miter; stroke-linecap: square"/>
   </g>
   <g id="patch_6">
    <path d="M 43.78125 7.2 
L 393.582869 7.2 
" style="fill: none; stroke: #000000; stroke-width: 0.8; stroke-linejoin: miter; stroke-linecap: square"/>
   </g>
  </g>
 </g>
 <defs>
  <clipPath id="p8f0e2fbdb1">
   <rect x="43.78125" y="7.2" width="349.801619" height="214.794521"/>
  </clipPath>
 </defs>
</svg>
