<?xml version="1.0" encoding="utf-8" standalone="no"?>
<!DOCTYPE svg PUBLIC "-//W3C//DTD SVG 1.1//EN"
  "http://www.w3.org/Graphics/SVG/1.1/DTD/svg11.dtd">
<svg xmlns:xlink="http://www.w3.org/1999/xlink" width="557.426542pt" height="422.218694pt" viewBox="0 0 557.426542 422.218694" xmlns="http://www.w3.org/2000/svg" version="1.1">
 <metadata>
  <rdf:RDF xmlns:dc="http://purl.org/dc/elements/1.1/" xmlns:cc="http://creativecommons.org/ns#" xmlns:rdf="http://www.w3.org/1999/02/22-rdf-syntax-ns#">
   <cc:Work>
    <dc:type rdf:resource="http://purl.org/dc/dcmitype/StillImage"/>
    <dc:date>2026-04-07T11:06:17.168009</dc:date>
    <dc:format>image/svg+xml</dc:format>
    <dc:creator>
     <cc:Agent>
      <dc:title>Matplotlib v3.10.8, https://matplotlib.org/</dc:title>
     </cc:Agent>
    </dc:creator>
   </cc:Work>
  </rdf:RDF>
 </metadata>
 <defs>
  <style type="text/css">*{stroke-linejoin: round; stroke-linecap: butt}</style>
 </defs>
 <g id="figure_1">
  <g id="patch_1">
   <path d="M 0 422.218694 
L 557.426542 422.218694 
L 557.426542 0 
L 0 0 
z
" style="fill: #ffffff"/>
  </g>
  <g id="axes_1">
   <g id="patch_2">
    <path d="M 67.184375 380.014944 
L 519.06871 380.014944 
L 519.06871 8.627744 
L 67.184375 8.627744 
z
" style="fill: #ffffff"/>
   </g>
   <g id="matplotlib.axis_1">
    <g id="xtick_1">
     <g id="line2d_1">
      <path d="M 87.724572 380.014944 
L 87.724572 8.627744 
" clip-path="url(#pa570300243)" style="fill: none; stroke-dasharray: 3.7,1.6; stroke-dashoffset: 0; stroke: #b0b0b0; stroke-opacity: 0.7"/>
     </g>
     <g id="line2d_2">
      <defs>
       <path id="mfc4eeb3476" d="M 0 0 
L 0 3.5 
" style="stroke: #000000; stroke-width: 0.8"/>
      </defs>
      <g>
       <use xlink:href="#mfc4eeb3476" x="87.724572" y="380.014944" style="stroke: #000000; stroke-width: 0.8"/>
      </g>
     </g>
     <g id="text_1">
      <!-- -1.00 -->
      <g transform="translate(74.271447 396.133069) scale(0.12 -0.12)">
       <defs>
        <path id="WenQuanYiMicroHei-2d" d="M 256 1453 
L 256 1978 
L 1806 1978 
L 1806 1453 
L 256 1453 
z
" transform="scale(0.015625)"/>
        <path id="WenQuanYiMicroHei-31" d="M 2222 0 
L 1672 0 
L 1672 2853 
Q 1672 2988 1673 3141 
Q 1675 3294 1679 3445 
Q 1684 3597 1689 3736 
Q 1694 3875 1697 3981 
Q 1644 3925 1603 3884 
Q 1563 3844 1520 3806 
Q 1478 3769 1431 3726 
Q 1384 3684 1319 3628 
L 856 3250 
L 556 3634 
L 1753 4569 
L 2222 4569 
L 2222 0 
z
" transform="scale(0.015625)"/>
        <path id="WenQuanYiMicroHei-2e" d="M 459 347 
Q 459 466 490 548 
Q 522 631 575 682 
Q 628 734 700 757 
Q 772 781 856 781 
Q 938 781 1011 757 
Q 1084 734 1137 682 
Q 1191 631 1222 548 
Q 1253 466 1253 347 
Q 1253 231 1222 148 
Q 1191 66 1137 12 
Q 1084 -41 1011 -66 
Q 938 -91 856 -91 
Q 772 -91 700 -66 
Q 628 -41 575 12 
Q 522 66 490 148 
Q 459 231 459 347 
z
" transform="scale(0.015625)"/>
        <path id="WenQuanYiMicroHei-30" d="M 3225 2291 
Q 3225 1738 3145 1300 
Q 3066 863 2889 559 
Q 2713 256 2434 96 
Q 2156 -63 1759 -63 
Q 1391 -63 1117 96 
Q 844 256 664 559 
Q 484 863 395 1300 
Q 306 1738 306 2291 
Q 306 2844 386 3281 
Q 466 3719 639 4020 
Q 813 4322 1089 4481 
Q 1366 4641 1759 4641 
Q 2131 4641 2406 4483 
Q 2681 4325 2862 4023 
Q 3044 3722 3134 3284 
Q 3225 2847 3225 2291 
z
M 884 2291 
Q 884 1822 931 1472 
Q 978 1122 1081 889 
Q 1184 656 1351 539 
Q 1519 422 1759 422 
Q 2000 422 2169 537 
Q 2338 653 2445 884 
Q 2553 1116 2601 1467 
Q 2650 1819 2650 2291 
Q 2650 2759 2601 3109 
Q 2553 3459 2445 3690 
Q 2338 3922 2169 4037 
Q 2000 4153 1759 4153 
Q 1519 4153 1351 4037 
Q 1184 3922 1081 3690 
Q 978 3459 931 3109 
Q 884 2759 884 2291 
z
" transform="scale(0.015625)"/>
       </defs>
       <use xlink:href="#WenQuanYiMicroHei-2d"/>
       <use xlink:href="#WenQuanYiMicroHei-31" transform="translate(32.177734 0)"/>
       <use xlink:href="#WenQuanYiMicroHei-2e" transform="translate(87.255859 0)"/>
       <use xlink:href="#WenQuanYiMicroHei-30" transform="translate(114.0625 0)"/>
       <use xlink:href="#WenQuanYiMicroHei-30" transform="translate(169.140625 0)"/>
      </g>
     </g>
    </g>
    <g id="xtick_2">
     <g id="line2d_3">
      <path d="M 139.075065 380.014944 
L 139.075065 8.627744 
" clip-path="url(#pa570300243)" style="fill: none; stroke-dasharray: 3.7,1.6; stroke-dashoffset: 0; stroke: #b0b0b0; stroke-opacity: 0.7"/>
     </g>
     <g id="line2d_4">
      <g>
       <use xlink:href="#mfc4eeb3476" x="139.075065" y="380.014944" style="stroke: #000000; stroke-width: 0.8"/>
      </g>
     </g>
     <g id="text_2">
      <!-- -0.75 -->
      <g transform="translate(125.62194 396.133069) scale(0.12 -0.12)">
       <defs>
        <path id="WenQuanYiMicroHei-37" d="M 878 0 
L 2638 4050 
L 281 4050 
L 281 4569 
L 3219 4569 
L 3219 4116 
L 1484 0 
L 878 0 
z
" transform="scale(0.015625)"/>
        <path id="WenQuanYiMicroHei-35" d="M 1703 2803 
Q 2013 2803 2280 2717 
Q 2547 2631 2745 2462 
Q 2944 2294 3056 2044 
Q 3169 1794 3169 1466 
Q 3169 1109 3062 825 
Q 2956 541 2747 344 
Q 2538 147 2230 42 
Q 1922 -63 1522 -63 
Q 1363 -63 1208 -47 
Q 1053 -31 911 -1 
Q 769 28 641 75 
Q 513 122 409 184 
L 409 722 
Q 513 650 652 594 
Q 791 538 944 500 
Q 1097 463 1251 442 
Q 1406 422 1538 422 
Q 1784 422 1978 480 
Q 2172 538 2306 659 
Q 2441 781 2512 965 
Q 2584 1150 2584 1403 
Q 2584 1850 2309 2086 
Q 2034 2322 1509 2322 
Q 1425 2322 1326 2314 
Q 1228 2306 1129 2293 
Q 1031 2281 942 2267 
Q 853 2253 788 2241 
L 506 2419 
L 678 4569 
L 2834 4569 
L 2834 4050 
L 1172 4050 
L 1050 2741 
Q 1150 2759 1314 2781 
Q 1478 2803 1703 2803 
z
" transform="scale(0.015625)"/>
       </defs>
       <use xlink:href="#WenQuanYiMicroHei-2d"/>
       <use xlink:href="#WenQuanYiMicroHei-30" transform="translate(32.177734 0)"/>
       <use xlink:href="#WenQuanYiMicroHei-2e" transform="translate(87.255859 0)"/>
       <use xlink:href="#WenQuanYiMicroHei-37" transform="translate(114.0625 0)"/>
       <use xlink:href="#WenQuanYiMicroHei-35" transform="translate(169.140625 0)"/>
      </g>
     </g>
    </g>
    <g id="xtick_3">
     <g id="line2d_5">
      <path d="M 190.425557 380.014944 
L 190.425557 8.627744 
" clip-path="url(#pa570300243)" style="fill: none; stroke-dasharray: 3.7,1.6; stroke-dashoffset: 0; stroke: #b0b0b0; stroke-opacity: 0.7"/>
     </g>
     <g id="line2d_6">
      <g>
       <use xlink:href="#mfc4eeb3476" x="190.425557" y="380.014944" style="stroke: #000000; stroke-width: 0.8"/>
      </g>
     </g>
     <g id="text_3">
      <!-- -0.50 -->
      <g transform="translate(176.972432 396.133069) scale(0.12 -0.12)">
       <use xlink:href="#WenQuanYiMicroHei-2d"/>
       <use xlink:href="#WenQuanYiMicroHei-30" transform="translate(32.177734 0)"/>
       <use xlink:href="#WenQuanYiMicroHei-2e" transform="translate(87.255859 0)"/>
       <use xlink:href="#WenQuanYiMicroHei-35" transform="translate(114.0625 0)"/>
       <use xlink:href="#WenQuanYiMicroHei-30" transform="translate(169.140625 0)"/>
      </g>
     </g>
    </g>
    <g id="xtick_4">
     <g id="line2d_7">
      <path d="M 241.77605 380.014944 
L 241.77605 8.627744 
" clip-path="url(#pa570300243)" style="fill: none; stroke-dasharray: 3.7,1.6; stroke-dashoffset: 0; stroke: #b0b0b0; stroke-opacity: 0.7"/>
     </g>
     <g id="line2d_8">
      <g>
       <use xlink:href="#mfc4eeb3476" x="241.77605" y="380.014944" style="stroke: #000000; stroke-width: 0.8"/>
      </g>
     </g>
     <g id="text_4">
      <!-- -0.25 -->
      <g transform="translate(228.322925 396.133069) scale(0.12 -0.12)">
       <defs>
        <path id="WenQuanYiMicroHei-32" d="M 3150 0 
L 300 0 
L 300 488 
L 1394 1678 
Q 1628 1931 1812 2140 
Q 1997 2350 2126 2550 
Q 2256 2750 2325 2951 
Q 2394 3153 2394 3391 
Q 2394 3575 2341 3715 
Q 2288 3856 2189 3954 
Q 2091 4053 1956 4103 
Q 1822 4153 1656 4153 
Q 1359 4153 1120 4033 
Q 881 3913 666 3725 
L 347 4097 
Q 472 4209 615 4307 
Q 759 4406 925 4478 
Q 1091 4550 1275 4592 
Q 1459 4634 1663 4634 
Q 1963 4634 2205 4550 
Q 2447 4466 2615 4308 
Q 2784 4150 2876 3923 
Q 2969 3697 2969 3413 
Q 2969 3147 2886 2906 
Q 2803 2666 2658 2433 
Q 2513 2200 2311 1965 
Q 2109 1731 1875 1478 
L 997 544 
L 997 519 
L 3150 519 
L 3150 0 
z
" transform="scale(0.015625)"/>
       </defs>
       <use xlink:href="#WenQuanYiMicroHei-2d"/>
       <use xlink:href="#WenQuanYiMicroHei-30" transform="translate(32.177734 0)"/>
       <use xlink:href="#WenQuanYiMicroHei-2e" transform="translate(87.255859 0)"/>
       <use xlink:href="#WenQuanYiMicroHei-32" transform="translate(114.0625 0)"/>
       <use xlink:href="#WenQuanYiMicroHei-35" transform="translate(169.140625 0)"/>
      </g>
     </g>
    </g>
    <g id="xtick_5">
     <g id="line2d_9">
      <path d="M 293.126542 380.014944 
L 293.126542 8.627744 
" clip-path="url(#pa570300243)" style="fill: none; stroke-dasharray: 3.7,1.6; stroke-dashoffset: 0; stroke: #b0b0b0; stroke-opacity: 0.7"/>
     </g>
     <g id="line2d_10">
      <g>
       <use xlink:href="#mfc4eeb3476" x="293.126542" y="380.014944" style="stroke: #000000; stroke-width: 0.8"/>
      </g>
     </g>
     <g id="text_5">
      <!-- 0.00 -->
      <g transform="translate(281.60373 396.133069) scale(0.12 -0.12)">
       <use xlink:href="#WenQuanYiMicroHei-30"/>
       <use xlink:href="#WenQuanYiMicroHei-2e" transform="translate(55.078125 0)"/>
       <use xlink:href="#WenQuanYiMicroHei-30" transform="translate(81.884766 0)"/>
       <use xlink:href="#WenQuanYiMicroHei-30" transform="translate(136.962891 0)"/>
      </g>
     </g>
    </g>
    <g id="xtick_6">
     <g id="line2d_11">
      <path d="M 344.477035 380.014944 
L 344.477035 8.627744 
" clip-path="url(#pa570300243)" style="fill: none; stroke-dasharray: 3.7,1.6; stroke-dashoffset: 0; stroke: #b0b0b0; stroke-opacity: 0.7"/>
     </g>
     <g id="line2d_12">
      <g>
       <use xlink:href="#mfc4eeb3476" x="344.477035" y="380.014944" style="stroke: #000000; stroke-width: 0.8"/>
      </g>
     </g>
     <g id="text_6">
      <!-- 0.25 -->
      <g transform="translate(332.954223 396.133069) scale(0.12 -0.12)">
       <use xlink:href="#WenQuanYiMicroHei-30"/>
       <use xlink:href="#WenQuanYiMicroHei-2e" transform="translate(55.078125 0)"/>
       <use xlink:href="#WenQuanYiMicroHei-32" transform="translate(81.884766 0)"/>
       <use xlink:href="#WenQuanYiMicroHei-35" transform="translate(136.962891 0)"/>
      </g>
     </g>
    </g>
    <g id="xtick_7">
     <g id="line2d_13">
      <path d="M 395.827528 380.014944 
L 395.827528 8.627744 
" clip-path="url(#pa570300243)" style="fill: none; stroke-dasharray: 3.7,1.6; stroke-dashoffset: 0; stroke: #b0b0b0; stroke-opacity: 0.7"/>
     </g>
     <g id="line2d_14">
      <g>
       <use xlink:href="#mfc4eeb3476" x="395.827528" y="380.014944" style="stroke: #000000; stroke-width: 0.8"/>
      </g>
     </g>
     <g id="text_7">
      <!-- 0.50 -->
      <g transform="translate(384.304715 396.133069) scale(0.12 -0.12)">
       <use xlink:href="#WenQuanYiMicroHei-30"/>
       <use xlink:href="#WenQuanYiMicroHei-2e" transform="translate(55.078125 0)"/>
       <use xlink:href="#WenQuanYiMicroHei-35" transform="translate(81.884766 0)"/>
       <use xlink:href="#WenQuanYiMicroHei-30" transform="translate(136.962891 0)"/>
      </g>
     </g>
    </g>
    <g id="xtick_8">
     <g id="line2d_15">
      <path d="M 447.17802 380.014944 
L 447.17802 8.627744 
" clip-path="url(#pa570300243)" style="fill: none; stroke-dasharray: 3.7,1.6; stroke-dashoffset: 0; stroke: #b0b0b0; stroke-opacity: 0.7"/>
     </g>
     <g id="line2d_16">
      <g>
       <use xlink:href="#mfc4eeb3476" x="447.17802" y="380.014944" style="stroke: #000000; stroke-width: 0.8"/>
      </g>
     </g>
     <g id="text_8">
      <!-- 0.75 -->
      <g transform="translate(435.655208 396.133069) scale(0.12 -0.12)">
       <use xlink:href="#WenQuanYiMicroHei-30"/>
       <use xlink:href="#WenQuanYiMicroHei-2e" transform="translate(55.078125 0)"/>
       <use xlink:href="#WenQuanYiMicroHei-37" transform="translate(81.884766 0)"/>
       <use xlink:href="#WenQuanYiMicroHei-35" transform="translate(136.962891 0)"/>
      </g>
     </g>
    </g>
    <g id="xtick_9">
     <g id="line2d_17">
      <path d="M 498.528513 380.014944 
L 498.528513 8.627744 
" clip-path="url(#pa570300243)" style="fill: none; stroke-dasharray: 3.7,1.6; stroke-dashoffset: 0; stroke: #b0b0b0; stroke-opacity: 0.7"/>
     </g>
     <g id="line2d_18">
      <g>
       <use xlink:href="#mfc4eeb3476" x="498.528513" y="380.014944" style="stroke: #000000; stroke-width: 0.8"/>
      </g>
     </g>
     <g id="text_9">
      <!-- 1.00 -->
      <g transform="translate(487.0057 396.133069) scale(0.12 -0.12)">
       <use xlink:href="#WenQuanYiMicroHei-31"/>
       <use xlink:href="#WenQuanYiMicroHei-2e" transform="translate(55.078125 0)"/>
       <use xlink:href="#WenQuanYiMicroHei-30" transform="translate(81.884766 0)"/>
       <use xlink:href="#WenQuanYiMicroHei-30" transform="translate(136.962891 0)"/>
      </g>
     </g>
    </g>
    <g id="text_10">
     <!-- x -->
     <g transform="translate(290.126542 412.134944) scale(0.12 -0.12)">
      <defs>
       <path id="WenQuanYiMicroHei-78" d="M 1275 1759 
L 172 3431 
L 819 3431 
L 1600 2150 
L 2381 3431 
L 3028 3431 
L 1919 1759 
L 3084 0 
L 2438 0 
L 1600 1363 
L 756 0 
L 109 0 
L 1275 1759 
z
" transform="scale(0.015625)"/>
      </defs>
      <use xlink:href="#WenQuanYiMicroHei-78"/>
     </g>
    </g>
   </g>
   <g id="matplotlib.axis_2">
    <g id="ytick_1">
     <g id="line2d_19">
      <path d="M 67.184375 366.259863 
L 519.06871 366.259863 
" clip-path="url(#pa570300243)" style="fill: none; stroke-dasharray: 3.7,1.6; stroke-dashoffset: 0; stroke: #b0b0b0; stroke-opacity: 0.7"/>
     </g>
     <g id="line2d_20">
      <defs>
       <path id="m5bd00b5d1c" d="M 0 0 
L -3.5 0 
" style="stroke: #000000; stroke-width: 0.8"/>
      </defs>
      <g>
       <use xlink:href="#m5bd00b5d1c" x="67.184375" y="366.259863" style="stroke: #000000; stroke-width: 0.8"/>
      </g>
     </g>
     <g id="text_11">
      <!-- -50.00 -->
      <g transform="translate(26.66875 370.818925) scale(0.12 -0.12)">
       <use xlink:href="#WenQuanYiMicroHei-2d"/>
       <use xlink:href="#WenQuanYiMicroHei-35" transform="translate(32.177734 0)"/>
       <use xlink:href="#WenQuanYiMicroHei-30" transform="translate(87.255859 0)"/>
       <use xlink:href="#WenQuanYiMicroHei-2e" transform="translate(142.333984 0)"/>
       <use xlink:href="#WenQuanYiMicroHei-30" transform="translate(169.140625 0)"/>
       <use xlink:href="#WenQuanYiMicroHei-30" transform="translate(224.21875 0)"/>
      </g>
     </g>
    </g>
    <g id="ytick_2">
     <g id="line2d_21">
      <path d="M 67.184375 288.10599 
L 519.06871 288.10599 
" clip-path="url(#pa570300243)" style="fill: none; stroke-dasharray: 3.7,1.6; stroke-dashoffset: 0; stroke: #b0b0b0; stroke-opacity: 0.7"/>
     </g>
     <g id="line2d_22">
      <g>
       <use xlink:href="#m5bd00b5d1c" x="67.184375" y="288.10599" style="stroke: #000000; stroke-width: 0.8"/>
      </g>
     </g>
     <g id="text_12">
      <!-- 0.00 -->
      <g transform="translate(37.13875 292.665053) scale(0.12 -0.12)">
       <use xlink:href="#WenQuanYiMicroHei-30"/>
       <use xlink:href="#WenQuanYiMicroHei-2e" transform="translate(55.078125 0)"/>
       <use xlink:href="#WenQuanYiMicroHei-30" transform="translate(81.884766 0)"/>
       <use xlink:href="#WenQuanYiMicroHei-30" transform="translate(136.962891 0)"/>
      </g>
     </g>
    </g>
    <g id="ytick_3">
     <g id="line2d_23">
      <path d="M 67.184375 209.952118 
L 519.06871 209.952118 
" clip-path="url(#pa570300243)" style="fill: none; stroke-dasharray: 3.7,1.6; stroke-dashoffset: 0; stroke: #b0b0b0; stroke-opacity: 0.7"/>
     </g>
     <g id="line2d_24">
      <g>
       <use xlink:href="#m5bd00b5d1c" x="67.184375" y="209.952118" style="stroke: #000000; stroke-width: 0.8"/>
      </g>
     </g>
     <g id="text_13">
      <!-- 50.00 -->
      <g transform="translate(30.529375 214.511181) scale(0.12 -0.12)">
       <use xlink:href="#WenQuanYiMicroHei-35"/>
       <use xlink:href="#WenQuanYiMicroHei-30" transform="translate(55.078125 0)"/>
       <use xlink:href="#WenQuanYiMicroHei-2e" transform="translate(110.15625 0)"/>
       <use xlink:href="#WenQuanYiMicroHei-30" transform="translate(136.962891 0)"/>
       <use xlink:href="#WenQuanYiMicroHei-30" transform="translate(192.041016 0)"/>
      </g>
     </g>
    </g>
    <g id="ytick_4">
     <g id="line2d_25">
      <path d="M 67.184375 131.798246 
L 519.06871 131.798246 
" clip-path="url(#pa570300243)" style="fill: none; stroke-dasharray: 3.7,1.6; stroke-dashoffset: 0; stroke: #b0b0b0; stroke-opacity: 0.7"/>
     </g>
     <g id="line2d_26">
      <g>
       <use xlink:href="#m5bd00b5d1c" x="67.184375" y="131.798246" style="stroke: #000000; stroke-width: 0.8"/>
      </g>
     </g>
     <g id="text_14">
      <!-- 100.00 -->
      <g transform="translate(23.92 136.357309) scale(0.12 -0.12)">
       <use xlink:href="#WenQuanYiMicroHei-31"/>
       <use xlink:href="#WenQuanYiMicroHei-30" transform="translate(55.078125 0)"/>
       <use xlink:href="#WenQuanYiMicroHei-30" transform="translate(110.15625 0)"/>
       <use xlink:href="#WenQuanYiMicroHei-2e" transform="translate(165.234375 0)"/>
       <use xlink:href="#WenQuanYiMicroHei-30" transform="translate(192.041016 0)"/>
       <use xlink:href="#WenQuanYiMicroHei-30" transform="translate(247.119141 0)"/>
      </g>
     </g>
    </g>
    <g id="ytick_5">
     <g id="line2d_27">
      <path d="M 67.184375 53.644374 
L 519.06871 53.644374 
" clip-path="url(#pa570300243)" style="fill: none; stroke-dasharray: 3.7,1.6; stroke-dashoffset: 0; stroke: #b0b0b0; stroke-opacity: 0.7"/>
     </g>
     <g id="line2d_28">
      <g>
       <use xlink:href="#m5bd00b5d1c" x="67.184375" y="53.644374" style="stroke: #000000; stroke-width: 0.8"/>
      </g>
     </g>
     <g id="text_15">
      <!-- 150.00 -->
      <g transform="translate(23.92 58.203437) scale(0.12 -0.12)">
       <use xlink:href="#WenQuanYiMicroHei-31"/>
       <use xlink:href="#WenQuanYiMicroHei-35" transform="translate(55.078125 0)"/>
       <use xlink:href="#WenQuanYiMicroHei-30" transform="translate(110.15625 0)"/>
       <use xlink:href="#WenQuanYiMicroHei-2e" transform="translate(165.234375 0)"/>
       <use xlink:href="#WenQuanYiMicroHei-30" transform="translate(192.041016 0)"/>
       <use xlink:href="#WenQuanYiMicroHei-30" transform="translate(247.119141 0)"/>
      </g>
     </g>
    </g>
    <g id="text_16">
     <!-- $\mathrm{d}^2 U_n(x)/\mathrm{d}x^2$ -->
     <g transform="translate(17.03625 225.161344) rotate(-90) scale(0.12 -0.12)">
      <defs>
       <path id="WenQuanYiMicroHei-64" d="M 2663 459 
L 2638 459 
Q 2569 353 2476 258 
Q 2384 163 2264 91 
Q 2144 19 1994 -22 
Q 1844 -63 1656 -63 
Q 1366 -63 1125 50 
Q 884 163 712 386 
Q 541 609 447 940 
Q 353 1272 353 1709 
Q 353 2150 447 2483 
Q 541 2816 712 3041 
Q 884 3266 1125 3380 
Q 1366 3494 1656 3494 
Q 1841 3494 1991 3453 
Q 2141 3413 2261 3344 
Q 2381 3275 2475 3184 
Q 2569 3094 2638 2994 
L 2675 2994 
Q 2666 3100 2656 3197 
Q 2650 3278 2644 3364 
Q 2638 3450 2638 3500 
L 2638 4863 
L 3206 4863 
L 3206 0 
L 2747 0 
L 2663 459 
z
M 1766 409 
Q 2003 409 2167 481 
Q 2331 553 2432 700 
Q 2534 847 2582 1067 
Q 2631 1288 2638 1581 
L 2638 1709 
Q 2638 2025 2595 2270 
Q 2553 2516 2451 2683 
Q 2350 2850 2181 2936 
Q 2013 3022 1759 3022 
Q 1338 3022 1139 2681 
Q 941 2341 941 1703 
Q 941 1050 1139 729 
Q 1338 409 1766 409 
z
" transform="scale(0.015625)"/>
       <path id="WenQuanYiMicroHei-55" d="M 3891 4575 
L 3891 1613 
Q 3891 1256 3787 950 
Q 3684 644 3476 419 
Q 3269 194 2955 65 
Q 2641 -63 2216 -63 
Q 1816 -63 1509 57 
Q 1203 178 995 400 
Q 788 622 681 933 
Q 575 1244 575 1625 
L 575 4569 
L 1159 4569 
L 1159 1594 
Q 1159 1047 1429 747 
Q 1700 447 2247 447 
Q 2525 447 2725 531 
Q 2925 616 3053 769 
Q 3181 922 3243 1134 
Q 3306 1347 3309 1600 
L 3309 4575 
L 3891 4575 
z
" transform="scale(0.015625)"/>
       <path id="WenQuanYiMicroHei-6e" d="M 2688 0 
L 2688 2209 
Q 2688 2616 2523 2819 
Q 2359 3022 2009 3022 
Q 1756 3022 1584 2940 
Q 1413 2859 1308 2700 
Q 1203 2541 1158 2309 
Q 1113 2078 1113 1778 
L 1113 0 
L 544 0 
L 544 3431 
L 1006 3431 
L 1088 2969 
L 1119 2969 
Q 1197 3103 1305 3201 
Q 1413 3300 1541 3365 
Q 1669 3431 1812 3462 
Q 1956 3494 2106 3494 
Q 2678 3494 2967 3195 
Q 3256 2897 3256 2241 
L 3256 0 
L 2688 0 
z
" transform="scale(0.015625)"/>
       <path id="WenQuanYiMicroHei-28" d="M 256 1753 
Q 256 2144 312 2523 
Q 369 2903 484 3261 
Q 600 3619 776 3948 
Q 953 4278 1197 4569 
L 1734 4569 
Q 1297 3966 1070 3244 
Q 844 2522 844 1759 
Q 844 1388 901 1019 
Q 959 650 1070 297 
Q 1181 -56 1347 -387 
Q 1513 -719 1728 -1013 
L 1197 -1013 
Q 953 -731 776 -409 
Q 600 -88 484 264 
Q 369 616 312 991 
Q 256 1366 256 1753 
z
" transform="scale(0.015625)"/>
       <path id="WenQuanYiMicroHei-29" d="M 1672 1753 
Q 1672 1366 1615 991 
Q 1559 616 1442 264 
Q 1325 -88 1148 -409 
Q 972 -731 728 -1013 
L 197 -1013 
Q 413 -719 578 -387 
Q 744 -56 856 297 
Q 969 650 1025 1019 
Q 1081 1388 1081 1759 
Q 1081 2522 856 3244 
Q 631 3966 191 4569 
L 728 4569 
Q 972 4278 1148 3948 
Q 1325 3619 1442 3261 
Q 1559 2903 1615 2523 
Q 1672 2144 1672 1753 
z
" transform="scale(0.015625)"/>
       <path id="WenQuanYiMicroHei-2f" d="M 2322 4569 
L 622 0 
L 63 0 
L 1766 4569 
L 2322 4569 
z
" transform="scale(0.015625)"/>
      </defs>
      <use xlink:href="#WenQuanYiMicroHei-64" transform="translate(0 0.789062)"/>
      <use xlink:href="#WenQuanYiMicroHei-32" transform="translate(59.531914 38.315625) scale(0.7)"/>
      <use xlink:href="#WenQuanYiMicroHei-55" transform="translate(100.76707 0.789062)"/>
      <use xlink:href="#WenQuanYiMicroHei-6e" transform="translate(171.529453 -15.29375) scale(0.7)"/>
      <use xlink:href="#WenQuanYiMicroHei-28" transform="translate(215.430625 0.789062)"/>
      <use xlink:href="#WenQuanYiMicroHei-78" transform="translate(245.50875 0.789062)"/>
      <use xlink:href="#WenQuanYiMicroHei-29" transform="translate(295.50875 0.789062)"/>
      <use xlink:href="#WenQuanYiMicroHei-2f" transform="translate(325.586875 0.789062)"/>
      <use xlink:href="#WenQuanYiMicroHei-64" transform="translate(362.891563 0.789062)"/>
      <use xlink:href="#WenQuanYiMicroHei-78" transform="translate(421.485313 0.789062)"/>
      <use xlink:href="#WenQuanYiMicroHei-32" transform="translate(472.423477 38.315625) scale(0.7)"/>
     </g>
    </g>
   </g>
   <g id="line2d_29">
    <path d="M 87.724572 288.10599 
L 498.528513 288.10599 
L 498.528513 288.10599 
" clip-path="url(#pa570300243)" style="fill: none; stroke: #1f77b4; stroke-width: 2; stroke-linecap: square"/>
   </g>
   <g id="line2d_30">
    <path d="M 87.724572 288.10599 
L 498.528513 288.10599 
L 498.528513 288.10599 
" clip-path="url(#pa570300243)" style="fill: none; stroke: #ff7f0e; stroke-width: 2; stroke-linecap: square"/>
   </g>
   <g id="line2d_31">
    <path d="M 87.724572 275.601371 
L 498.528513 275.601371 
L 498.528513 275.601371 
" clip-path="url(#pa570300243)" style="fill: none; stroke: #2ca02c; stroke-width: 2; stroke-linecap: square"/>
   </g>
   <g id="line2d_32">
    <path d="M 87.724572 363.133708 
L 498.528513 213.078273 
L 498.528513 213.078273 
" clip-path="url(#pa570300243)" style="fill: none; stroke: #d62728; stroke-width: 2; stroke-linecap: square"/>
   </g>
   <g id="line2d_33">
    <path d="M 87.724572 25.50898 
L 94.71523 45.589324 
L 101.705887 64.974422 
L 108.28533 82.584116 
L 114.864772 99.577953 
L 121.444215 115.95593 
L 128.023657 131.71805 
L 134.191885 145.935713 
L 140.360112 159.612095 
L 146.528339 172.747194 
L 152.696567 185.341013 
L 158.453579 196.606887 
L 164.210591 207.401244 
L 169.967603 217.724086 
L 175.724615 227.57541 
L 181.070412 236.30087 
L 186.416209 244.619766 
L 191.762007 252.5321 
L 197.107804 260.037871 
L 202.453601 267.13708 
L 207.388182 273.329341 
L 212.322764 279.175183 
L 217.257346 284.674604 
L 222.191928 289.827604 
L 226.715295 294.246868 
L 231.238661 298.375042 
L 235.762028 302.212127 
L 240.285395 305.758123 
L 244.808762 309.013029 
L 249.332128 311.976847 
L 253.44428 314.418628 
L 257.556431 316.61984 
L 261.668583 318.580482 
L 265.780735 320.300555 
L 269.892886 321.780058 
L 274.005038 323.018991 
L 278.117189 324.017355 
L 282.229341 324.775149 
L 286.341492 325.292374 
L 290.453644 325.569029 
L 294.565796 325.605114 
L 298.677947 325.40063 
L 302.790099 324.955576 
L 306.90225 324.269953 
L 311.014402 323.34376 
L 315.126553 322.176997 
L 319.238705 320.769665 
L 323.350856 319.121764 
L 327.463008 317.233292 
L 331.57516 315.104251 
L 335.687311 312.734641 
L 339.799463 310.124461 
L 344.322829 306.975405 
L 348.846196 303.53526 
L 353.369563 299.804025 
L 357.89293 295.781702 
L 362.416296 291.468289 
L 366.939663 286.863787 
L 371.874245 281.508708 
L 376.808827 275.807208 
L 381.743409 269.759289 
L 386.67799 263.364949 
L 391.612572 256.624189 
L 396.958369 248.930773 
L 402.304166 240.830795 
L 407.649963 232.324254 
L 412.99576 223.411151 
L 418.752773 213.357748 
L 424.509785 202.832828 
L 430.266797 191.836392 
L 436.023809 180.368439 
L 441.780821 168.42897 
L 447.949049 155.113443 
L 454.117276 141.256635 
L 460.285503 126.858544 
L 466.453731 111.919173 
L 473.033173 95.38723 
L 479.612616 78.23943 
L 486.192058 60.475771 
L 492.771501 42.096254 
L 498.528513 25.50898 
L 498.528513 25.50898 
" clip-path="url(#pa570300243)" style="fill: none; stroke: #9467bd; stroke-width: 2; stroke-linecap: square"/>
   </g>
   <g id="patch_3">
    <path d="M 67.184375 380.014944 
L 67.184375 8.627744 
" style="fill: none; stroke: #000000; stroke-width: 0.8; stroke-linejoin: miter; stroke-linecap: square"/>
   </g>
   <g id="patch_4">
    <path d="M 519.06871 380.014944 
L 519.06871 8.627744 
" style="fill: none; stroke: #000000; stroke-width: 0.8; stroke-linejoin: miter; stroke-linecap: square"/>
   </g>
   <g id="patch_5">
    <path d="M 67.184375 380.014944 
L 519.06871 380.014944 
" style="fill: none; stroke: #000000; stroke-width: 0.8; stroke-linejoin: miter; stroke-linecap: square"/>
   </g>
   <g id="patch_6">
    <path d="M 67.184375 8.627744 
L 519.06871 8.627744 
" style="fill: none; stroke: #000000; stroke-width: 0.8; stroke-linejoin: miter; stroke-linecap: square"/>
   </g>
   <g id="legend_1">
    <g id="patch_7">
     <path d="M 38.426542 29.52 
L 547.826542 29.52 
Q 550.226542 29.52 550.226542 27.12 
L 550.226542 9.6 
Q 550.226542 7.2 547.826542 7.2 
L 38.426542 7.2 
Q 36.026542 7.2 36.026542 9.6 
L 36.026542 27.12 
Q 36.026542 29.52 38.426542 29.52 
z
" style="fill: #ffffff; opacity: 0.8; stroke: #cccccc; stroke-linejoin: miter"/>
    </g>
    <g id="line2d_34">
     <path d="M 40.826542 17.63625 
L 52.826542 17.63625 
L 64.826542 17.63625 
" style="fill: none; stroke: #1f77b4; stroke-width: 2; stroke-linecap: square"/>
    </g>
    <g id="text_17">
     <!-- $\mathrm{d}^2 U_{0}/\mathrm{d}x^2$ -->
     <g transform="translate(74.426542 21.83625) scale(0.12 -0.12)">
      <use xlink:href="#WenQuanYiMicroHei-64" transform="translate(0 0.789062)"/>
      <use xlink:href="#WenQuanYiMicroHei-32" transform="translate(59.531914 38.315625) scale(0.7)"/>
      <use xlink:href="#WenQuanYiMicroHei-55" transform="translate(100.76707 0.789062)"/>
      <use xlink:href="#WenQuanYiMicroHei-30" transform="translate(171.529453 -15.29375) scale(0.7)"/>
      <use xlink:href="#WenQuanYiMicroHei-2f" transform="translate(212.764609 0.789062)"/>
      <use xlink:href="#WenQuanYiMicroHei-64" transform="translate(250.069297 0.789062)"/>
      <use xlink:href="#WenQuanYiMicroHei-78" transform="translate(308.663047 0.789062)"/>
      <use xlink:href="#WenQuanYiMicroHei-32" transform="translate(359.601211 38.315625) scale(0.7)"/>
     </g>
    </g>
    <g id="line2d_35">
     <path d="M 146.546542 17.63625 
L 158.546542 17.63625 
L 170.546542 17.63625 
" style="fill: none; stroke: #ff7f0e; stroke-width: 2; stroke-linecap: square"/>
    </g>
    <g id="text_18">
     <!-- $\mathrm{d}^2 U_{1}/\mathrm{d}x^2$ -->
     <g transform="translate(180.146542 21.83625) scale(0.12 -0.12)">
      <use xlink:href="#WenQuanYiMicroHei-64" transform="translate(0 0.789062)"/>
      <use xlink:href="#WenQuanYiMicroHei-32" transform="translate(59.531914 38.315625) scale(0.7)"/>
      <use xlink:href="#WenQuanYiMicroHei-55" transform="translate(100.76707 0.789062)"/>
      <use xlink:href="#WenQuanYiMicroHei-31" transform="translate(171.529453 -15.29375) scale(0.7)"/>
      <use xlink:href="#WenQuanYiMicroHei-2f" transform="translate(212.764609 0.789062)"/>
      <use xlink:href="#WenQuanYiMicroHei-64" transform="translate(250.069297 0.789062)"/>
      <use xlink:href="#WenQuanYiMicroHei-78" transform="translate(308.663047 0.789062)"/>
      <use xlink:href="#WenQuanYiMicroHei-32" transform="translate(359.601211 38.315625) scale(0.7)"/>
     </g>
    </g>
    <g id="line2d_36">
     <path d="M 252.266542 17.63625 
L 264.266542 17.63625 
L 276.266542 17.63625 
" style="fill: none; stroke: #2ca02c; stroke-width: 2; stroke-linecap: square"/>
    </g>
    <g id="text_19">
     <!-- $\mathrm{d}^2 U_{2}/\mathrm{d}x^2$ -->
     <g transform="translate(285.866542 21.83625) scale(0.12 -0.12)">
      <use xlink:href="#WenQuanYiMicroHei-64" transform="translate(0 0.789062)"/>
      <use xlink:href="#WenQuanYiMicroHei-32" transform="translate(59.531914 38.315625) scale(0.7)"/>
      <use xlink:href="#WenQuanYiMicroHei-55" transform="translate(100.76707 0.789062)"/>
      <use xlink:href="#WenQuanYiMicroHei-32" transform="translate(171.529453 -15.29375) scale(0.7)"/>
      <use xlink:href="#WenQuanYiMicroHei-2f" transform="translate(212.764609 0.789062)"/>
      <use xlink:href="#WenQuanYiMicroHei-64" transform="translate(250.069297 0.789062)"/>
      <use xlink:href="#WenQuanYiMicroHei-78" transform="translate(308.663047 0.789062)"/>
      <use xlink:href="#WenQuanYiMicroHei-32" transform="translate(359.601211 38.315625) scale(0.7)"/>
     </g>
    </g>
    <g id="line2d_37">
     <path d="M 357.986542 17.63625 
L 369.986542 17.63625 
L 381.986542 17.63625 
" style="fill: none; stroke: #d62728; stroke-width: 2; stroke-linecap: square"/>
    </g>
    <g id="text_20">
     <!-- $\mathrm{d}^2 U_{3}/\mathrm{d}x^2$ -->
     <g transform="translate(391.586542 21.83625) scale(0.12 -0.12)">
      <defs>
       <path id="WenQuanYiMicroHei-33" d="M 3003 3500 
Q 3003 3272 2931 3084 
Q 2859 2897 2729 2759 
Q 2600 2622 2419 2533 
Q 2238 2444 2016 2406 
L 2016 2388 
Q 2569 2319 2856 2036 
Q 3144 1753 3144 1300 
Q 3144 1000 3042 750 
Q 2941 500 2734 319 
Q 2528 138 2212 37 
Q 1897 -63 1466 -63 
Q 1125 -63 823 -9 
Q 522 44 256 184 
L 256 716 
Q 528 572 845 494 
Q 1163 416 1453 416 
Q 1741 416 1950 478 
Q 2159 541 2295 656 
Q 2431 772 2495 940 
Q 2559 1109 2559 1319 
Q 2559 1531 2476 1682 
Q 2394 1834 2241 1932 
Q 2088 2031 1867 2078 
Q 1647 2125 1369 2125 
L 953 2125 
L 953 2597 
L 1369 2597 
Q 1622 2597 1819 2659 
Q 2016 2722 2148 2837 
Q 2281 2953 2350 3112 
Q 2419 3272 2419 3463 
Q 2419 3625 2362 3753 
Q 2306 3881 2203 3970 
Q 2100 4059 1956 4106 
Q 1813 4153 1638 4153 
Q 1303 4153 1048 4048 
Q 794 3944 563 3775 
L 275 4166 
Q 394 4263 539 4347 
Q 684 4431 856 4495 
Q 1028 4559 1223 4596 
Q 1419 4634 1638 4634 
Q 1975 4634 2229 4550 
Q 2484 4466 2656 4314 
Q 2828 4163 2915 3955 
Q 3003 3747 3003 3500 
z
" transform="scale(0.015625)"/>
      </defs>
      <use xlink:href="#WenQuanYiMicroHei-64" transform="translate(0 0.789062)"/>
      <use xlink:href="#WenQuanYiMicroHei-32" transform="translate(59.531914 38.315625) scale(0.7)"/>
      <use xlink:href="#WenQuanYiMicroHei-55" transform="translate(100.76707 0.789062)"/>
      <use xlink:href="#WenQuanYiMicroHei-33" transform="translate(171.529453 -15.29375) scale(0.7)"/>
      <use xlink:href="#WenQuanYiMicroHei-2f" transform="translate(212.764609 0.789062)"/>
      <use xlink:href="#WenQuanYiMicroHei-64" transform="translate(250.069297 0.789062)"/>
      <use xlink:href="#WenQuanYiMicroHei-78" transform="translate(308.663047 0.789062)"/>
      <use xlink:href="#WenQuanYiMicroHei-32" transform="translate(359.601211 38.315625) scale(0.7)"/>
     </g>
    </g>
    <g id="line2d_38">
     <path d="M 463.706542 17.63625 
L 475.706542 17.63625 
L 487.706542 17.63625 
" style="fill: none; stroke: #9467bd; stroke-width: 2; stroke-linecap: square"/>
    </g>
    <g id="text_21">
     <!-- $\mathrm{d}^2 U_{4}/\mathrm{d}x^2$ -->
     <g transform="translate(497.306542 21.83625) scale(0.12 -0.12)">
      <defs>
       <path id="WenQuanYiMicroHei-34" d="M 3397 1025 
L 2731 1025 
L 2731 0 
L 2181 0 
L 2181 1025 
L 72 1025 
L 72 1522 
L 2144 4594 
L 2731 4594 
L 2731 1544 
L 3397 1544 
L 3397 1025 
z
M 2181 1544 
L 2181 2656 
Q 2181 2831 2186 3023 
Q 2191 3216 2197 3398 
Q 2203 3581 2211 3740 
Q 2219 3900 2222 4006 
L 2194 4006 
Q 2172 3944 2139 3867 
Q 2106 3791 2067 3714 
Q 2028 3638 1987 3566 
Q 1947 3494 1913 3444 
L 628 1544 
L 2181 1544 
z
" transform="scale(0.015625)"/>
      </defs>
      <use xlink:href="#WenQuanYiMicroHei-64" transform="translate(0 0.789062)"/>
      <use xlink:href="#WenQuanYiMicroHei-32" transform="translate(59.531914 38.315625) scale(0.7)"/>
      <use xlink:href="#WenQuanYiMicroHei-55" transform="translate(100.76707 0.789062)"/>
      <use xlink:href="#WenQuanYiMicroHei-34" transform="translate(171.529453 -15.29375) scale(0.7)"/>
      <use xlink:href="#WenQuanYiMicroHei-2f" transform="translate(212.764609 0.789062)"/>
      <use xlink:href="#WenQuanYiMicroHei-64" transform="translate(250.069297 0.789062)"/>
      <use xlink:href="#WenQuanYiMicroHei-78" transform="translate(308.663047 0.789062)"/>
      <use xlink:href="#WenQuanYiMicroHei-32" transform="translate(359.601211 38.315625) scale(0.7)"/>
     </g>
    </g>
   </g>
  </g>
 </g>
 <defs>
  <clipPath id="pa570300243">
   <rect x="67.184375" y="8.627744" width="451.884335" height="371.3872"/>
  </clipPath>
 </defs>
</svg>
