<?xml version="1.0" encoding="utf-8" standalone="no"?>
<!DOCTYPE svg PUBLIC "-//W3C//DTD SVG 1.1//EN"
  "http://www.w3.org/Graphics/SVG/1.1/DTD/svg11.dtd">
<svg xmlns:xlink="http://www.w3.org/1999/xlink" width="415.546932pt" height="259.550771pt" viewBox="0 0 415.546932 259.550771" xmlns="http://www.w3.org/2000/svg" version="1.1">
 <metadata>
  <rdf:RDF xmlns:dc="http://purl.org/dc/elements/1.1/" xmlns:cc="http://creativecommons.org/ns#" xmlns:rdf="http://www.w3.org/1999/02/22-rdf-syntax-ns#">
   <cc:Work>
    <dc:type rdf:resource="http://purl.org/dc/dcmitype/StillImage"/>
    <dc:date>2024-04-26T18:24:31.347097</dc:date>
    <dc:format>image/svg+xml</dc:format>
    <dc:creator>
     <cc:Agent>
      <dc:title>Matplotlib v3.6.3, https://matplotlib.org/</dc:title>
     </cc:Agent>
    </dc:creator>
   </cc:Work>
  </rdf:RDF>
 </metadata>
 <defs>
  <style type="text/css">*{stroke-linejoin: round; stroke-linecap: butt}</style>
 </defs>
 <g id="figure_1">
  <g id="patch_1">
   <path d="M 0 259.550771 
L 415.546932 259.550771 
L 415.546932 0 
L 0 0 
z
" style="fill: #ffffff"/>
  </g>
  <g id="axes_1">
   <g id="patch_2">
    <path d="M 58.545313 221.994521 
L 408.346932 221.994521 
L 408.346932 7.2 
L 58.545313 7.2 
z
" style="fill: #ffffff"/>
   </g>
   <g id="matplotlib.axis_1">
    <g id="xtick_1">
     <g id="line2d_1">
      <path d="M 74.445386 221.994521 
L 74.445386 7.2 
" clip-path="url(#p3b889cc581)" style="fill: none; stroke-dasharray: 2.96,1.28; stroke-dashoffset: 0; stroke: #808080; stroke-width: 0.8"/>
     </g>
     <g id="line2d_2">
      <defs>
       <path id="mca4ec3feb4" d="M 0 0 
L 0 3.5 
" style="stroke: #000000; stroke-width: 0.8"/>
      </defs>
      <g>
       <use xlink:href="#mca4ec3feb4" x="74.445386" y="221.994521" style="stroke: #000000; stroke-width: 0.8"/>
      </g>
     </g>
     <g id="text_1">
      <!-- −1.00 -->
      <g transform="translate(59.12273 236.592958) scale(0.1 -0.1)">
       <defs>
        <path id="DejaVuSans-2212" d="M 678 2272 
L 4684 2272 
L 4684 1741 
L 678 1741 
L 678 2272 
z
" transform="scale(0.015625)"/>
        <path id="DejaVuSans-31" d="M 794 531 
L 1825 531 
L 1825 4091 
L 703 3866 
L 703 4441 
L 1819 4666 
L 2450 4666 
L 2450 531 
L 3481 531 
L 3481 0 
L 794 0 
L 794 531 
z
" transform="scale(0.015625)"/>
        <path id="DejaVuSans-2e" d="M 684 794 
L 1344 794 
L 1344 0 
L 684 0 
L 684 794 
z
" transform="scale(0.015625)"/>
        <path id="DejaVuSans-30" d="M 2034 4250 
Q 1547 4250 1301 3770 
Q 1056 3291 1056 2328 
Q 1056 1369 1301 889 
Q 1547 409 2034 409 
Q 2525 409 2770 889 
Q 3016 1369 3016 2328 
Q 3016 3291 2770 3770 
Q 2525 4250 2034 4250 
z
M 2034 4750 
Q 2819 4750 3233 4129 
Q 3647 3509 3647 2328 
Q 3647 1150 3233 529 
Q 2819 -91 2034 -91 
Q 1250 -91 836 529 
Q 422 1150 422 2328 
Q 422 3509 836 4129 
Q 1250 4750 2034 4750 
z
" transform="scale(0.015625)"/>
       </defs>
       <use xlink:href="#DejaVuSans-2212"/>
       <use xlink:href="#DejaVuSans-31" x="83.789062"/>
       <use xlink:href="#DejaVuSans-2e" x="147.412109"/>
       <use xlink:href="#DejaVuSans-30" x="179.199219"/>
       <use xlink:href="#DejaVuSans-30" x="242.822266"/>
      </g>
     </g>
    </g>
    <g id="xtick_2">
     <g id="line2d_3">
      <path d="M 114.19557 221.994521 
L 114.19557 7.2 
" clip-path="url(#p3b889cc581)" style="fill: none; stroke-dasharray: 2.96,1.28; stroke-dashoffset: 0; stroke: #808080; stroke-width: 0.8"/>
     </g>
     <g id="line2d_4">
      <g>
       <use xlink:href="#mca4ec3feb4" x="114.19557" y="221.994521" style="stroke: #000000; stroke-width: 0.8"/>
      </g>
     </g>
     <g id="text_2">
      <!-- −0.75 -->
      <g transform="translate(98.872914 236.592958) scale(0.1 -0.1)">
       <defs>
        <path id="DejaVuSans-37" d="M 525 4666 
L 3525 4666 
L 3525 4397 
L 1831 0 
L 1172 0 
L 2766 4134 
L 525 4134 
L 525 4666 
z
" transform="scale(0.015625)"/>
        <path id="DejaVuSans-35" d="M 691 4666 
L 3169 4666 
L 3169 4134 
L 1269 4134 
L 1269 2991 
Q 1406 3038 1543 3061 
Q 1681 3084 1819 3084 
Q 2600 3084 3056 2656 
Q 3513 2228 3513 1497 
Q 3513 744 3044 326 
Q 2575 -91 1722 -91 
Q 1428 -91 1123 -41 
Q 819 9 494 109 
L 494 744 
Q 775 591 1075 516 
Q 1375 441 1709 441 
Q 2250 441 2565 725 
Q 2881 1009 2881 1497 
Q 2881 1984 2565 2268 
Q 2250 2553 1709 2553 
Q 1456 2553 1204 2497 
Q 953 2441 691 2322 
L 691 4666 
z
" transform="scale(0.015625)"/>
       </defs>
       <use xlink:href="#DejaVuSans-2212"/>
       <use xlink:href="#DejaVuSans-30" x="83.789062"/>
       <use xlink:href="#DejaVuSans-2e" x="147.412109"/>
       <use xlink:href="#DejaVuSans-37" x="179.199219"/>
       <use xlink:href="#DejaVuSans-35" x="242.822266"/>
      </g>
     </g>
    </g>
    <g id="xtick_3">
     <g id="line2d_5">
      <path d="M 153.945754 221.994521 
L 153.945754 7.2 
" clip-path="url(#p3b889cc581)" style="fill: none; stroke-dasharray: 2.96,1.28; stroke-dashoffset: 0; stroke: #808080; stroke-width: 0.8"/>
     </g>
     <g id="line2d_6">
      <g>
       <use xlink:href="#mca4ec3feb4" x="153.945754" y="221.994521" style="stroke: #000000; stroke-width: 0.8"/>
      </g>
     </g>
     <g id="text_3">
      <!-- −0.50 -->
      <g transform="translate(138.623098 236.592958) scale(0.1 -0.1)">
       <use xlink:href="#DejaVuSans-2212"/>
       <use xlink:href="#DejaVuSans-30" x="83.789062"/>
       <use xlink:href="#DejaVuSans-2e" x="147.412109"/>
       <use xlink:href="#DejaVuSans-35" x="179.199219"/>
       <use xlink:href="#DejaVuSans-30" x="242.822266"/>
      </g>
     </g>
    </g>
    <g id="xtick_4">
     <g id="line2d_7">
      <path d="M 193.695938 221.994521 
L 193.695938 7.2 
" clip-path="url(#p3b889cc581)" style="fill: none; stroke-dasharray: 2.96,1.28; stroke-dashoffset: 0; stroke: #808080; stroke-width: 0.8"/>
     </g>
     <g id="line2d_8">
      <g>
       <use xlink:href="#mca4ec3feb4" x="193.695938" y="221.994521" style="stroke: #000000; stroke-width: 0.8"/>
      </g>
     </g>
     <g id="text_4">
      <!-- −0.25 -->
      <g transform="translate(178.373282 236.592958) scale(0.1 -0.1)">
       <defs>
        <path id="DejaVuSans-32" d="M 1228 531 
L 3431 531 
L 3431 0 
L 469 0 
L 469 531 
Q 828 903 1448 1529 
Q 2069 2156 2228 2338 
Q 2531 2678 2651 2914 
Q 2772 3150 2772 3378 
Q 2772 3750 2511 3984 
Q 2250 4219 1831 4219 
Q 1534 4219 1204 4116 
Q 875 4013 500 3803 
L 500 4441 
Q 881 4594 1212 4672 
Q 1544 4750 1819 4750 
Q 2544 4750 2975 4387 
Q 3406 4025 3406 3419 
Q 3406 3131 3298 2873 
Q 3191 2616 2906 2266 
Q 2828 2175 2409 1742 
Q 1991 1309 1228 531 
z
" transform="scale(0.015625)"/>
       </defs>
       <use xlink:href="#DejaVuSans-2212"/>
       <use xlink:href="#DejaVuSans-30" x="83.789062"/>
       <use xlink:href="#DejaVuSans-2e" x="147.412109"/>
       <use xlink:href="#DejaVuSans-32" x="179.199219"/>
       <use xlink:href="#DejaVuSans-35" x="242.822266"/>
      </g>
     </g>
    </g>
    <g id="xtick_5">
     <g id="line2d_9">
      <path d="M 233.446122 221.994521 
L 233.446122 7.2 
" clip-path="url(#p3b889cc581)" style="fill: none; stroke-dasharray: 2.96,1.28; stroke-dashoffset: 0; stroke: #808080; stroke-width: 0.8"/>
     </g>
     <g id="line2d_10">
      <g>
       <use xlink:href="#mca4ec3feb4" x="233.446122" y="221.994521" style="stroke: #000000; stroke-width: 0.8"/>
      </g>
     </g>
     <g id="text_5">
      <!-- 0.00 -->
      <g transform="translate(222.31331 236.592958) scale(0.1 -0.1)">
       <use xlink:href="#DejaVuSans-30"/>
       <use xlink:href="#DejaVuSans-2e" x="63.623047"/>
       <use xlink:href="#DejaVuSans-30" x="95.410156"/>
       <use xlink:href="#DejaVuSans-30" x="159.033203"/>
      </g>
     </g>
    </g>
    <g id="xtick_6">
     <g id="line2d_11">
      <path d="M 273.196306 221.994521 
L 273.196306 7.2 
" clip-path="url(#p3b889cc581)" style="fill: none; stroke-dasharray: 2.96,1.28; stroke-dashoffset: 0; stroke: #808080; stroke-width: 0.8"/>
     </g>
     <g id="line2d_12">
      <g>
       <use xlink:href="#mca4ec3feb4" x="273.196306" y="221.994521" style="stroke: #000000; stroke-width: 0.8"/>
      </g>
     </g>
     <g id="text_6">
      <!-- 0.25 -->
      <g transform="translate(262.063494 236.592958) scale(0.1 -0.1)">
       <use xlink:href="#DejaVuSans-30"/>
       <use xlink:href="#DejaVuSans-2e" x="63.623047"/>
       <use xlink:href="#DejaVuSans-32" x="95.410156"/>
       <use xlink:href="#DejaVuSans-35" x="159.033203"/>
      </g>
     </g>
    </g>
    <g id="xtick_7">
     <g id="line2d_13">
      <path d="M 312.94649 221.994521 
L 312.94649 7.2 
" clip-path="url(#p3b889cc581)" style="fill: none; stroke-dasharray: 2.96,1.28; stroke-dashoffset: 0; stroke: #808080; stroke-width: 0.8"/>
     </g>
     <g id="line2d_14">
      <g>
       <use xlink:href="#mca4ec3feb4" x="312.94649" y="221.994521" style="stroke: #000000; stroke-width: 0.8"/>
      </g>
     </g>
     <g id="text_7">
      <!-- 0.50 -->
      <g transform="translate(301.813678 236.592958) scale(0.1 -0.1)">
       <use xlink:href="#DejaVuSans-30"/>
       <use xlink:href="#DejaVuSans-2e" x="63.623047"/>
       <use xlink:href="#DejaVuSans-35" x="95.410156"/>
       <use xlink:href="#DejaVuSans-30" x="159.033203"/>
      </g>
     </g>
    </g>
    <g id="xtick_8">
     <g id="line2d_15">
      <path d="M 352.696674 221.994521 
L 352.696674 7.2 
" clip-path="url(#p3b889cc581)" style="fill: none; stroke-dasharray: 2.96,1.28; stroke-dashoffset: 0; stroke: #808080; stroke-width: 0.8"/>
     </g>
     <g id="line2d_16">
      <g>
       <use xlink:href="#mca4ec3feb4" x="352.696674" y="221.994521" style="stroke: #000000; stroke-width: 0.8"/>
      </g>
     </g>
     <g id="text_8">
      <!-- 0.75 -->
      <g transform="translate(341.563862 236.592958) scale(0.1 -0.1)">
       <use xlink:href="#DejaVuSans-30"/>
       <use xlink:href="#DejaVuSans-2e" x="63.623047"/>
       <use xlink:href="#DejaVuSans-37" x="95.410156"/>
       <use xlink:href="#DejaVuSans-35" x="159.033203"/>
      </g>
     </g>
    </g>
    <g id="xtick_9">
     <g id="line2d_17">
      <path d="M 392.446858 221.994521 
L 392.446858 7.2 
" clip-path="url(#p3b889cc581)" style="fill: none; stroke-dasharray: 2.96,1.28; stroke-dashoffset: 0; stroke: #808080; stroke-width: 0.8"/>
     </g>
     <g id="line2d_18">
      <g>
       <use xlink:href="#mca4ec3feb4" x="392.446858" y="221.994521" style="stroke: #000000; stroke-width: 0.8"/>
      </g>
     </g>
     <g id="text_9">
      <!-- 1.00 -->
      <g transform="translate(381.314046 236.592958) scale(0.1 -0.1)">
       <use xlink:href="#DejaVuSans-31"/>
       <use xlink:href="#DejaVuSans-2e" x="63.623047"/>
       <use xlink:href="#DejaVuSans-30" x="95.410156"/>
       <use xlink:href="#DejaVuSans-30" x="159.033203"/>
      </g>
     </g>
    </g>
    <g id="text_10">
     <!-- $x$ -->
     <g transform="translate(230.446122 250.271083) scale(0.1 -0.1)">
      <defs>
       <path id="DejaVuSans-Oblique-78" d="M 3841 3500 
L 2234 1784 
L 3219 0 
L 2559 0 
L 1819 1388 
L 531 0 
L -166 0 
L 1556 1844 
L 641 3500 
L 1300 3500 
L 1972 2234 
L 3144 3500 
L 3841 3500 
z
" transform="scale(0.015625)"/>
      </defs>
      <use xlink:href="#DejaVuSans-Oblique-78" transform="translate(0 0.3125)"/>
     </g>
    </g>
   </g>
   <g id="matplotlib.axis_2">
    <g id="ytick_1">
     <g id="line2d_19">
      <path d="M 58.545313 212.231133 
L 408.346932 212.231133 
" clip-path="url(#p3b889cc581)" style="fill: none; stroke-dasharray: 2.96,1.28; stroke-dashoffset: 0; stroke: #808080; stroke-width: 0.8"/>
     </g>
     <g id="line2d_20">
      <defs>
       <path id="m53c196ef2a" d="M 0 0 
L -3.5 0 
" style="stroke: #000000; stroke-width: 0.8"/>
      </defs>
      <g>
       <use xlink:href="#m53c196ef2a" x="58.545313" y="212.231133" style="stroke: #000000; stroke-width: 0.8"/>
      </g>
     </g>
     <g id="text_11">
      <!-- −1.00 -->
      <g transform="translate(20.9 216.030352) scale(0.1 -0.1)">
       <use xlink:href="#DejaVuSans-2212"/>
       <use xlink:href="#DejaVuSans-31" x="83.789062"/>
       <use xlink:href="#DejaVuSans-2e" x="147.412109"/>
       <use xlink:href="#DejaVuSans-30" x="179.199219"/>
       <use xlink:href="#DejaVuSans-30" x="242.822266"/>
      </g>
     </g>
    </g>
    <g id="ytick_2">
     <g id="line2d_21">
      <path d="M 58.545313 187.822665 
L 408.346932 187.822665 
" clip-path="url(#p3b889cc581)" style="fill: none; stroke-dasharray: 2.96,1.28; stroke-dashoffset: 0; stroke: #808080; stroke-width: 0.8"/>
     </g>
     <g id="line2d_22">
      <g>
       <use xlink:href="#m53c196ef2a" x="58.545313" y="187.822665" style="stroke: #000000; stroke-width: 0.8"/>
      </g>
     </g>
     <g id="text_12">
      <!-- −0.75 -->
      <g transform="translate(20.9 191.621884) scale(0.1 -0.1)">
       <use xlink:href="#DejaVuSans-2212"/>
       <use xlink:href="#DejaVuSans-30" x="83.789062"/>
       <use xlink:href="#DejaVuSans-2e" x="147.412109"/>
       <use xlink:href="#DejaVuSans-37" x="179.199219"/>
       <use xlink:href="#DejaVuSans-35" x="242.822266"/>
      </g>
     </g>
    </g>
    <g id="ytick_3">
     <g id="line2d_23">
      <path d="M 58.545313 163.414197 
L 408.346932 163.414197 
" clip-path="url(#p3b889cc581)" style="fill: none; stroke-dasharray: 2.96,1.28; stroke-dashoffset: 0; stroke: #808080; stroke-width: 0.8"/>
     </g>
     <g id="line2d_24">
      <g>
       <use xlink:href="#m53c196ef2a" x="58.545313" y="163.414197" style="stroke: #000000; stroke-width: 0.8"/>
      </g>
     </g>
     <g id="text_13">
      <!-- −0.50 -->
      <g transform="translate(20.9 167.213416) scale(0.1 -0.1)">
       <use xlink:href="#DejaVuSans-2212"/>
       <use xlink:href="#DejaVuSans-30" x="83.789062"/>
       <use xlink:href="#DejaVuSans-2e" x="147.412109"/>
       <use xlink:href="#DejaVuSans-35" x="179.199219"/>
       <use xlink:href="#DejaVuSans-30" x="242.822266"/>
      </g>
     </g>
    </g>
    <g id="ytick_4">
     <g id="line2d_25">
      <path d="M 58.545313 139.005729 
L 408.346932 139.005729 
" clip-path="url(#p3b889cc581)" style="fill: none; stroke-dasharray: 2.96,1.28; stroke-dashoffset: 0; stroke: #808080; stroke-width: 0.8"/>
     </g>
     <g id="line2d_26">
      <g>
       <use xlink:href="#m53c196ef2a" x="58.545313" y="139.005729" style="stroke: #000000; stroke-width: 0.8"/>
      </g>
     </g>
     <g id="text_14">
      <!-- −0.25 -->
      <g transform="translate(20.9 142.804947) scale(0.1 -0.1)">
       <use xlink:href="#DejaVuSans-2212"/>
       <use xlink:href="#DejaVuSans-30" x="83.789062"/>
       <use xlink:href="#DejaVuSans-2e" x="147.412109"/>
       <use xlink:href="#DejaVuSans-32" x="179.199219"/>
       <use xlink:href="#DejaVuSans-35" x="242.822266"/>
      </g>
     </g>
    </g>
    <g id="ytick_5">
     <g id="line2d_27">
      <path d="M 58.545313 114.59726 
L 408.346932 114.59726 
" clip-path="url(#p3b889cc581)" style="fill: none; stroke-dasharray: 2.96,1.28; stroke-dashoffset: 0; stroke: #808080; stroke-width: 0.8"/>
     </g>
     <g id="line2d_28">
      <g>
       <use xlink:href="#m53c196ef2a" x="58.545313" y="114.59726" style="stroke: #000000; stroke-width: 0.8"/>
      </g>
     </g>
     <g id="text_15">
      <!-- 0.00 -->
      <g transform="translate(29.279688 118.396479) scale(0.1 -0.1)">
       <use xlink:href="#DejaVuSans-30"/>
       <use xlink:href="#DejaVuSans-2e" x="63.623047"/>
       <use xlink:href="#DejaVuSans-30" x="95.410156"/>
       <use xlink:href="#DejaVuSans-30" x="159.033203"/>
      </g>
     </g>
    </g>
    <g id="ytick_6">
     <g id="line2d_29">
      <path d="M 58.545313 90.188792 
L 408.346932 90.188792 
" clip-path="url(#p3b889cc581)" style="fill: none; stroke-dasharray: 2.96,1.28; stroke-dashoffset: 0; stroke: #808080; stroke-width: 0.8"/>
     </g>
     <g id="line2d_30">
      <g>
       <use xlink:href="#m53c196ef2a" x="58.545313" y="90.188792" style="stroke: #000000; stroke-width: 0.8"/>
      </g>
     </g>
     <g id="text_16">
      <!-- 0.25 -->
      <g transform="translate(29.279688 93.988011) scale(0.1 -0.1)">
       <use xlink:href="#DejaVuSans-30"/>
       <use xlink:href="#DejaVuSans-2e" x="63.623047"/>
       <use xlink:href="#DejaVuSans-32" x="95.410156"/>
       <use xlink:href="#DejaVuSans-35" x="159.033203"/>
      </g>
     </g>
    </g>
    <g id="ytick_7">
     <g id="line2d_31">
      <path d="M 58.545313 65.780324 
L 408.346932 65.780324 
" clip-path="url(#p3b889cc581)" style="fill: none; stroke-dasharray: 2.96,1.28; stroke-dashoffset: 0; stroke: #808080; stroke-width: 0.8"/>
     </g>
     <g id="line2d_32">
      <g>
       <use xlink:href="#m53c196ef2a" x="58.545313" y="65.780324" style="stroke: #000000; stroke-width: 0.8"/>
      </g>
     </g>
     <g id="text_17">
      <!-- 0.50 -->
      <g transform="translate(29.279688 69.579543) scale(0.1 -0.1)">
       <use xlink:href="#DejaVuSans-30"/>
       <use xlink:href="#DejaVuSans-2e" x="63.623047"/>
       <use xlink:href="#DejaVuSans-35" x="95.410156"/>
       <use xlink:href="#DejaVuSans-30" x="159.033203"/>
      </g>
     </g>
    </g>
    <g id="ytick_8">
     <g id="line2d_33">
      <path d="M 58.545313 41.371856 
L 408.346932 41.371856 
" clip-path="url(#p3b889cc581)" style="fill: none; stroke-dasharray: 2.96,1.28; stroke-dashoffset: 0; stroke: #808080; stroke-width: 0.8"/>
     </g>
     <g id="line2d_34">
      <g>
       <use xlink:href="#m53c196ef2a" x="58.545313" y="41.371856" style="stroke: #000000; stroke-width: 0.8"/>
      </g>
     </g>
     <g id="text_18">
      <!-- 0.75 -->
      <g transform="translate(29.279688 45.171074) scale(0.1 -0.1)">
       <use xlink:href="#DejaVuSans-30"/>
       <use xlink:href="#DejaVuSans-2e" x="63.623047"/>
       <use xlink:href="#DejaVuSans-37" x="95.410156"/>
       <use xlink:href="#DejaVuSans-35" x="159.033203"/>
      </g>
     </g>
    </g>
    <g id="ytick_9">
     <g id="line2d_35">
      <path d="M 58.545313 16.963387 
L 408.346932 16.963387 
" clip-path="url(#p3b889cc581)" style="fill: none; stroke-dasharray: 2.96,1.28; stroke-dashoffset: 0; stroke: #808080; stroke-width: 0.8"/>
     </g>
     <g id="line2d_36">
      <g>
       <use xlink:href="#m53c196ef2a" x="58.545313" y="16.963387" style="stroke: #000000; stroke-width: 0.8"/>
      </g>
     </g>
     <g id="text_19">
      <!-- 1.00 -->
      <g transform="translate(29.279688 20.762606) scale(0.1 -0.1)">
       <use xlink:href="#DejaVuSans-31"/>
       <use xlink:href="#DejaVuSans-2e" x="63.623047"/>
       <use xlink:href="#DejaVuSans-30" x="95.410156"/>
       <use xlink:href="#DejaVuSans-30" x="159.033203"/>
      </g>
     </g>
    </g>
    <g id="text_20">
     <!-- $\mathrm{sign}(x)$ -->
     <g transform="translate(14.8 131.79726) rotate(-90) scale(0.1 -0.1)">
      <defs>
       <path id="DejaVuSans-73" d="M 2834 3397 
L 2834 2853 
Q 2591 2978 2328 3040 
Q 2066 3103 1784 3103 
Q 1356 3103 1142 2972 
Q 928 2841 928 2578 
Q 928 2378 1081 2264 
Q 1234 2150 1697 2047 
L 1894 2003 
Q 2506 1872 2764 1633 
Q 3022 1394 3022 966 
Q 3022 478 2636 193 
Q 2250 -91 1575 -91 
Q 1294 -91 989 -36 
Q 684 19 347 128 
L 347 722 
Q 666 556 975 473 
Q 1284 391 1588 391 
Q 1994 391 2212 530 
Q 2431 669 2431 922 
Q 2431 1156 2273 1281 
Q 2116 1406 1581 1522 
L 1381 1569 
Q 847 1681 609 1914 
Q 372 2147 372 2553 
Q 372 3047 722 3315 
Q 1072 3584 1716 3584 
Q 2034 3584 2315 3537 
Q 2597 3491 2834 3397 
z
" transform="scale(0.015625)"/>
       <path id="DejaVuSans-69" d="M 603 3500 
L 1178 3500 
L 1178 0 
L 603 0 
L 603 3500 
z
M 603 4863 
L 1178 4863 
L 1178 4134 
L 603 4134 
L 603 4863 
z
" transform="scale(0.015625)"/>
       <path id="DejaVuSans-67" d="M 2906 1791 
Q 2906 2416 2648 2759 
Q 2391 3103 1925 3103 
Q 1463 3103 1205 2759 
Q 947 2416 947 1791 
Q 947 1169 1205 825 
Q 1463 481 1925 481 
Q 2391 481 2648 825 
Q 2906 1169 2906 1791 
z
M 3481 434 
Q 3481 -459 3084 -895 
Q 2688 -1331 1869 -1331 
Q 1566 -1331 1297 -1286 
Q 1028 -1241 775 -1147 
L 775 -588 
Q 1028 -725 1275 -790 
Q 1522 -856 1778 -856 
Q 2344 -856 2625 -561 
Q 2906 -266 2906 331 
L 2906 616 
Q 2728 306 2450 153 
Q 2172 0 1784 0 
Q 1141 0 747 490 
Q 353 981 353 1791 
Q 353 2603 747 3093 
Q 1141 3584 1784 3584 
Q 2172 3584 2450 3431 
Q 2728 3278 2906 2969 
L 2906 3500 
L 3481 3500 
L 3481 434 
z
" transform="scale(0.015625)"/>
       <path id="DejaVuSans-6e" d="M 3513 2113 
L 3513 0 
L 2938 0 
L 2938 2094 
Q 2938 2591 2744 2837 
Q 2550 3084 2163 3084 
Q 1697 3084 1428 2787 
Q 1159 2491 1159 1978 
L 1159 0 
L 581 0 
L 581 3500 
L 1159 3500 
L 1159 2956 
Q 1366 3272 1645 3428 
Q 1925 3584 2291 3584 
Q 2894 3584 3203 3211 
Q 3513 2838 3513 2113 
z
" transform="scale(0.015625)"/>
       <path id="DejaVuSans-28" d="M 1984 4856 
Q 1566 4138 1362 3434 
Q 1159 2731 1159 2009 
Q 1159 1288 1364 580 
Q 1569 -128 1984 -844 
L 1484 -844 
Q 1016 -109 783 600 
Q 550 1309 550 2009 
Q 550 2706 781 3412 
Q 1013 4119 1484 4856 
L 1984 4856 
z
" transform="scale(0.015625)"/>
       <path id="DejaVuSans-29" d="M 513 4856 
L 1013 4856 
Q 1481 4119 1714 3412 
Q 1947 2706 1947 2009 
Q 1947 1309 1714 600 
Q 1481 -109 1013 -844 
L 513 -844 
Q 928 -128 1133 580 
Q 1338 1288 1338 2009 
Q 1338 2731 1133 3434 
Q 928 4138 513 4856 
z
" transform="scale(0.015625)"/>
      </defs>
      <use xlink:href="#DejaVuSans-73" transform="translate(0 0.015625)"/>
      <use xlink:href="#DejaVuSans-69" transform="translate(52.099609 0.015625)"/>
      <use xlink:href="#DejaVuSans-67" transform="translate(79.882812 0.015625)"/>
      <use xlink:href="#DejaVuSans-6e" transform="translate(143.359375 0.015625)"/>
      <use xlink:href="#DejaVuSans-28" transform="translate(206.738281 0.015625)"/>
      <use xlink:href="#DejaVuSans-Oblique-78" transform="translate(245.751953 0.015625)"/>
      <use xlink:href="#DejaVuSans-29" transform="translate(304.931641 0.015625)"/>
     </g>
    </g>
   </g>
   <g id="line2d_37">
    <path d="M 74.445386 212.231133 
L 77.625401 212.231133 
L 80.805416 212.231133 
L 83.98543 212.231133 
L 87.165445 212.231133 
L 90.34546 212.231133 
L 93.525474 212.231133 
L 96.705489 212.231133 
L 99.885504 212.231133 
L 103.065519 212.231133 
L 106.245533 212.231133 
L 109.425548 212.231133 
L 112.605563 212.231133 
L 115.785578 212.231133 
L 118.965592 212.231133 
L 122.145607 212.231133 
L 125.325622 212.231133 
L 128.505636 212.231133 
L 131.685651 212.231133 
L 134.865666 212.231133 
L 138.045681 212.231133 
L 141.225695 212.231133 
L 144.40571 212.231133 
L 147.585725 212.231133 
L 150.765739 212.231133 
L 153.945754 212.231133 
L 157.125769 212.231133 
L 160.305784 212.231133 
L 163.485798 212.231133 
L 166.665813 212.231133 
L 169.845828 212.231133 
L 173.025843 212.231133 
L 176.205857 212.231133 
L 179.385872 212.231133 
L 182.565887 212.231133 
L 185.745901 212.231133 
L 188.925916 212.231133 
L 192.105931 212.231133 
L 195.285946 212.231133 
L 198.46596 212.231133 
L 201.645975 212.231133 
L 204.82599 212.231133 
L 208.006004 212.231133 
L 211.186019 212.231133 
L 214.366034 212.231133 
L 217.546049 212.231133 
L 220.726063 212.231133 
L 223.906078 212.231133 
L 227.086093 212.231133 
L 230.266108 212.231133 
L 233.446122 114.59726 
L 236.626137 16.963387 
L 239.806152 16.963387 
L 242.986166 16.963387 
L 246.166181 16.963387 
L 249.346196 16.963387 
L 252.526211 16.963387 
L 255.706225 16.963387 
L 258.88624 16.963387 
L 262.066255 16.963387 
L 265.246269 16.963387 
L 268.426284 16.963387 
L 271.606299 16.963387 
L 274.786314 16.963387 
L 277.966328 16.963387 
L 281.146343 16.963387 
L 284.326358 16.963387 
L 287.506373 16.963387 
L 290.686387 16.963387 
L 293.866402 16.963387 
L 297.046417 16.963387 
L 300.226431 16.963387 
L 303.406446 16.963387 
L 306.586461 16.963387 
L 309.766476 16.963387 
L 312.94649 16.963387 
L 316.126505 16.963387 
L 319.30652 16.963387 
L 322.486534 16.963387 
L 325.666549 16.963387 
L 328.846564 16.963387 
L 332.026579 16.963387 
L 335.206593 16.963387 
L 338.386608 16.963387 
L 341.566623 16.963387 
L 344.746638 16.963387 
L 347.926652 16.963387 
L 351.106667 16.963387 
L 354.286682 16.963387 
L 357.466696 16.963387 
L 360.646711 16.963387 
L 363.826726 16.963387 
L 367.006741 16.963387 
L 370.186755 16.963387 
L 373.36677 16.963387 
L 376.546785 16.963387 
L 379.726799 16.963387 
L 382.906814 16.963387 
L 386.086829 16.963387 
L 389.266844 16.963387 
L 392.446858 16.963387 
" clip-path="url(#p3b889cc581)" style="fill: none; stroke: #1f77b4; stroke-width: 1.5; stroke-linecap: square"/>
    <defs>
     <path id="mecc9604d7f" d="M 0 3 
C 0.795609 3 1.55874 2.683901 2.12132 2.12132 
C 2.683901 1.55874 3 0.795609 3 0 
C 3 -0.795609 2.683901 -1.55874 2.12132 -2.12132 
C 1.55874 -2.683901 0.795609 -3 0 -3 
C -0.795609 -3 -1.55874 -2.683901 -2.12132 -2.12132 
C -2.683901 -1.55874 -3 -0.795609 -3 0 
C -3 0.795609 -2.683901 1.55874 -2.12132 2.12132 
C -1.55874 2.683901 -0.795609 3 0 3 
z
" style="stroke: #1f77b4"/>
    </defs>
    <g clip-path="url(#p3b889cc581)">
     <use xlink:href="#mecc9604d7f" x="74.445386" y="212.231133" style="fill: #1f77b4; stroke: #1f77b4"/>
     <use xlink:href="#mecc9604d7f" x="77.625401" y="212.231133" style="fill: #1f77b4; stroke: #1f77b4"/>
     <use xlink:href="#mecc9604d7f" x="80.805416" y="212.231133" style="fill: #1f77b4; stroke: #1f77b4"/>
     <use xlink:href="#mecc9604d7f" x="83.98543" y="212.231133" style="fill: #1f77b4; stroke: #1f77b4"/>
     <use xlink:href="#mecc9604d7f" x="87.165445" y="212.231133" style="fill: #1f77b4; stroke: #1f77b4"/>
     <use xlink:href="#mecc9604d7f" x="90.34546" y="212.231133" style="fill: #1f77b4; stroke: #1f77b4"/>
     <use xlink:href="#mecc9604d7f" x="93.525474" y="212.231133" style="fill: #1f77b4; stroke: #1f77b4"/>
     <use xlink:href="#mecc9604d7f" x="96.705489" y="212.231133" style="fill: #1f77b4; stroke: #1f77b4"/>
     <use xlink:href="#mecc9604d7f" x="99.885504" y="212.231133" style="fill: #1f77b4; stroke: #1f77b4"/>
     <use xlink:href="#mecc9604d7f" x="103.065519" y="212.231133" style="fill: #1f77b4; stroke: #1f77b4"/>
     <use xlink:href="#mecc9604d7f" x="106.245533" y="212.231133" style="fill: #1f77b4; stroke: #1f77b4"/>
     <use xlink:href="#mecc9604d7f" x="109.425548" y="212.231133" style="fill: #1f77b4; stroke: #1f77b4"/>
     <use xlink:href="#mecc9604d7f" x="112.605563" y="212.231133" style="fill: #1f77b4; stroke: #1f77b4"/>
     <use xlink:href="#mecc9604d7f" x="115.785578" y="212.231133" style="fill: #1f77b4; stroke: #1f77b4"/>
     <use xlink:href="#mecc9604d7f" x="118.965592" y="212.231133" style="fill: #1f77b4; stroke: #1f77b4"/>
     <use xlink:href="#mecc9604d7f" x="122.145607" y="212.231133" style="fill: #1f77b4; stroke: #1f77b4"/>
     <use xlink:href="#mecc9604d7f" x="125.325622" y="212.231133" style="fill: #1f77b4; stroke: #1f77b4"/>
     <use xlink:href="#mecc9604d7f" x="128.505636" y="212.231133" style="fill: #1f77b4; stroke: #1f77b4"/>
     <use xlink:href="#mecc9604d7f" x="131.685651" y="212.231133" style="fill: #1f77b4; stroke: #1f77b4"/>
     <use xlink:href="#mecc9604d7f" x="134.865666" y="212.231133" style="fill: #1f77b4; stroke: #1f77b4"/>
     <use xlink:href="#mecc9604d7f" x="138.045681" y="212.231133" style="fill: #1f77b4; stroke: #1f77b4"/>
     <use xlink:href="#mecc9604d7f" x="141.225695" y="212.231133" style="fill: #1f77b4; stroke: #1f77b4"/>
     <use xlink:href="#mecc9604d7f" x="144.40571" y="212.231133" style="fill: #1f77b4; stroke: #1f77b4"/>
     <use xlink:href="#mecc9604d7f" x="147.585725" y="212.231133" style="fill: #1f77b4; stroke: #1f77b4"/>
     <use xlink:href="#mecc9604d7f" x="150.765739" y="212.231133" style="fill: #1f77b4; stroke: #1f77b4"/>
     <use xlink:href="#mecc9604d7f" x="153.945754" y="212.231133" style="fill: #1f77b4; stroke: #1f77b4"/>
     <use xlink:href="#mecc9604d7f" x="157.125769" y="212.231133" style="fill: #1f77b4; stroke: #1f77b4"/>
     <use xlink:href="#mecc9604d7f" x="160.305784" y="212.231133" style="fill: #1f77b4; stroke: #1f77b4"/>
     <use xlink:href="#mecc9604d7f" x="163.485798" y="212.231133" style="fill: #1f77b4; stroke: #1f77b4"/>
     <use xlink:href="#mecc9604d7f" x="166.665813" y="212.231133" style="fill: #1f77b4; stroke: #1f77b4"/>
     <use xlink:href="#mecc9604d7f" x="169.845828" y="212.231133" style="fill: #1f77b4; stroke: #1f77b4"/>
     <use xlink:href="#mecc9604d7f" x="173.025843" y="212.231133" style="fill: #1f77b4; stroke: #1f77b4"/>
     <use xlink:href="#mecc9604d7f" x="176.205857" y="212.231133" style="fill: #1f77b4; stroke: #1f77b4"/>
     <use xlink:href="#mecc9604d7f" x="179.385872" y="212.231133" style="fill: #1f77b4; stroke: #1f77b4"/>
     <use xlink:href="#mecc9604d7f" x="182.565887" y="212.231133" style="fill: #1f77b4; stroke: #1f77b4"/>
     <use xlink:href="#mecc9604d7f" x="185.745901" y="212.231133" style="fill: #1f77b4; stroke: #1f77b4"/>
     <use xlink:href="#mecc9604d7f" x="188.925916" y="212.231133" style="fill: #1f77b4; stroke: #1f77b4"/>
     <use xlink:href="#mecc9604d7f" x="192.105931" y="212.231133" style="fill: #1f77b4; stroke: #1f77b4"/>
     <use xlink:href="#mecc9604d7f" x="195.285946" y="212.231133" style="fill: #1f77b4; stroke: #1f77b4"/>
     <use xlink:href="#mecc9604d7f" x="198.46596" y="212.231133" style="fill: #1f77b4; stroke: #1f77b4"/>
     <use xlink:href="#mecc9604d7f" x="201.645975" y="212.231133" style="fill: #1f77b4; stroke: #1f77b4"/>
     <use xlink:href="#mecc9604d7f" x="204.82599" y="212.231133" style="fill: #1f77b4; stroke: #1f77b4"/>
     <use xlink:href="#mecc9604d7f" x="208.006004" y="212.231133" style="fill: #1f77b4; stroke: #1f77b4"/>
     <use xlink:href="#mecc9604d7f" x="211.186019" y="212.231133" style="fill: #1f77b4; stroke: #1f77b4"/>
     <use xlink:href="#mecc9604d7f" x="214.366034" y="212.231133" style="fill: #1f77b4; stroke: #1f77b4"/>
     <use xlink:href="#mecc9604d7f" x="217.546049" y="212.231133" style="fill: #1f77b4; stroke: #1f77b4"/>
     <use xlink:href="#mecc9604d7f" x="220.726063" y="212.231133" style="fill: #1f77b4; stroke: #1f77b4"/>
     <use xlink:href="#mecc9604d7f" x="223.906078" y="212.231133" style="fill: #1f77b4; stroke: #1f77b4"/>
     <use xlink:href="#mecc9604d7f" x="227.086093" y="212.231133" style="fill: #1f77b4; stroke: #1f77b4"/>
     <use xlink:href="#mecc9604d7f" x="230.266108" y="212.231133" style="fill: #1f77b4; stroke: #1f77b4"/>
     <use xlink:href="#mecc9604d7f" x="233.446122" y="114.59726" style="fill: #1f77b4; stroke: #1f77b4"/>
     <use xlink:href="#mecc9604d7f" x="236.626137" y="16.963387" style="fill: #1f77b4; stroke: #1f77b4"/>
     <use xlink:href="#mecc9604d7f" x="239.806152" y="16.963387" style="fill: #1f77b4; stroke: #1f77b4"/>
     <use xlink:href="#mecc9604d7f" x="242.986166" y="16.963387" style="fill: #1f77b4; stroke: #1f77b4"/>
     <use xlink:href="#mecc9604d7f" x="246.166181" y="16.963387" style="fill: #1f77b4; stroke: #1f77b4"/>
     <use xlink:href="#mecc9604d7f" x="249.346196" y="16.963387" style="fill: #1f77b4; stroke: #1f77b4"/>
     <use xlink:href="#mecc9604d7f" x="252.526211" y="16.963387" style="fill: #1f77b4; stroke: #1f77b4"/>
     <use xlink:href="#mecc9604d7f" x="255.706225" y="16.963387" style="fill: #1f77b4; stroke: #1f77b4"/>
     <use xlink:href="#mecc9604d7f" x="258.88624" y="16.963387" style="fill: #1f77b4; stroke: #1f77b4"/>
     <use xlink:href="#mecc9604d7f" x="262.066255" y="16.963387" style="fill: #1f77b4; stroke: #1f77b4"/>
     <use xlink:href="#mecc9604d7f" x="265.246269" y="16.963387" style="fill: #1f77b4; stroke: #1f77b4"/>
     <use xlink:href="#mecc9604d7f" x="268.426284" y="16.963387" style="fill: #1f77b4; stroke: #1f77b4"/>
     <use xlink:href="#mecc9604d7f" x="271.606299" y="16.963387" style="fill: #1f77b4; stroke: #1f77b4"/>
     <use xlink:href="#mecc9604d7f" x="274.786314" y="16.963387" style="fill: #1f77b4; stroke: #1f77b4"/>
     <use xlink:href="#mecc9604d7f" x="277.966328" y="16.963387" style="fill: #1f77b4; stroke: #1f77b4"/>
     <use xlink:href="#mecc9604d7f" x="281.146343" y="16.963387" style="fill: #1f77b4; stroke: #1f77b4"/>
     <use xlink:href="#mecc9604d7f" x="284.326358" y="16.963387" style="fill: #1f77b4; stroke: #1f77b4"/>
     <use xlink:href="#mecc9604d7f" x="287.506373" y="16.963387" style="fill: #1f77b4; stroke: #1f77b4"/>
     <use xlink:href="#mecc9604d7f" x="290.686387" y="16.963387" style="fill: #1f77b4; stroke: #1f77b4"/>
     <use xlink:href="#mecc9604d7f" x="293.866402" y="16.963387" style="fill: #1f77b4; stroke: #1f77b4"/>
     <use xlink:href="#mecc9604d7f" x="297.046417" y="16.963387" style="fill: #1f77b4; stroke: #1f77b4"/>
     <use xlink:href="#mecc9604d7f" x="300.226431" y="16.963387" style="fill: #1f77b4; stroke: #1f77b4"/>
     <use xlink:href="#mecc9604d7f" x="303.406446" y="16.963387" style="fill: #1f77b4; stroke: #1f77b4"/>
     <use xlink:href="#mecc9604d7f" x="306.586461" y="16.963387" style="fill: #1f77b4; stroke: #1f77b4"/>
     <use xlink:href="#mecc9604d7f" x="309.766476" y="16.963387" style="fill: #1f77b4; stroke: #1f77b4"/>
     <use xlink:href="#mecc9604d7f" x="312.94649" y="16.963387" style="fill: #1f77b4; stroke: #1f77b4"/>
     <use xlink:href="#mecc9604d7f" x="316.126505" y="16.963387" style="fill: #1f77b4; stroke: #1f77b4"/>
     <use xlink:href="#mecc9604d7f" x="319.30652" y="16.963387" style="fill: #1f77b4; stroke: #1f77b4"/>
     <use xlink:href="#mecc9604d7f" x="322.486534" y="16.963387" style="fill: #1f77b4; stroke: #1f77b4"/>
     <use xlink:href="#mecc9604d7f" x="325.666549" y="16.963387" style="fill: #1f77b4; stroke: #1f77b4"/>
     <use xlink:href="#mecc9604d7f" x="328.846564" y="16.963387" style="fill: #1f77b4; stroke: #1f77b4"/>
     <use xlink:href="#mecc9604d7f" x="332.026579" y="16.963387" style="fill: #1f77b4; stroke: #1f77b4"/>
     <use xlink:href="#mecc9604d7f" x="335.206593" y="16.963387" style="fill: #1f77b4; stroke: #1f77b4"/>
     <use xlink:href="#mecc9604d7f" x="338.386608" y="16.963387" style="fill: #1f77b4; stroke: #1f77b4"/>
     <use xlink:href="#mecc9604d7f" x="341.566623" y="16.963387" style="fill: #1f77b4; stroke: #1f77b4"/>
     <use xlink:href="#mecc9604d7f" x="344.746638" y="16.963387" style="fill: #1f77b4; stroke: #1f77b4"/>
     <use xlink:href="#mecc9604d7f" x="347.926652" y="16.963387" style="fill: #1f77b4; stroke: #1f77b4"/>
     <use xlink:href="#mecc9604d7f" x="351.106667" y="16.963387" style="fill: #1f77b4; stroke: #1f77b4"/>
     <use xlink:href="#mecc9604d7f" x="354.286682" y="16.963387" style="fill: #1f77b4; stroke: #1f77b4"/>
     <use xlink:href="#mecc9604d7f" x="357.466696" y="16.963387" style="fill: #1f77b4; stroke: #1f77b4"/>
     <use xlink:href="#mecc9604d7f" x="360.646711" y="16.963387" style="fill: #1f77b4; stroke: #1f77b4"/>
     <use xlink:href="#mecc9604d7f" x="363.826726" y="16.963387" style="fill: #1f77b4; stroke: #1f77b4"/>
     <use xlink:href="#mecc9604d7f" x="367.006741" y="16.963387" style="fill: #1f77b4; stroke: #1f77b4"/>
     <use xlink:href="#mecc9604d7f" x="370.186755" y="16.963387" style="fill: #1f77b4; stroke: #1f77b4"/>
     <use xlink:href="#mecc9604d7f" x="373.36677" y="16.963387" style="fill: #1f77b4; stroke: #1f77b4"/>
     <use xlink:href="#mecc9604d7f" x="376.546785" y="16.963387" style="fill: #1f77b4; stroke: #1f77b4"/>
     <use xlink:href="#mecc9604d7f" x="379.726799" y="16.963387" style="fill: #1f77b4; stroke: #1f77b4"/>
     <use xlink:href="#mecc9604d7f" x="382.906814" y="16.963387" style="fill: #1f77b4; stroke: #1f77b4"/>
     <use xlink:href="#mecc9604d7f" x="386.086829" y="16.963387" style="fill: #1f77b4; stroke: #1f77b4"/>
     <use xlink:href="#mecc9604d7f" x="389.266844" y="16.963387" style="fill: #1f77b4; stroke: #1f77b4"/>
     <use xlink:href="#mecc9604d7f" x="392.446858" y="16.963387" style="fill: #1f77b4; stroke: #1f77b4"/>
    </g>
   </g>
   <g id="patch_3">
    <path d="M 58.545313 221.994521 
L 58.545313 7.2 
" style="fill: none; stroke: #000000; stroke-width: 0.8; stroke-linejoin: miter; stroke-linecap: square"/>
   </g>
   <g id="patch_4">
    <path d="M 408.346932 221.994521 
L 408.346932 7.2 
" style="fill: none; stroke: #000000; stroke-width: 0.8; stroke-linejoin: miter; stroke-linecap: square"/>
   </g>
   <g id="patch_5">
    <path d="M 58.545312 221.994521 
L 408.346932 221.994521 
" style="fill: none; stroke: #000000; stroke-width: 0.8; stroke-linejoin: miter; stroke-linecap: square"/>
   </g>
   <g id="patch_6">
    <path d="M 58.545312 7.2 
L 408.346932 7.2 
" style="fill: none; stroke: #000000; stroke-width: 0.8; stroke-linejoin: miter; stroke-linecap: square"/>
   </g>
  </g>
 </g>
 <defs>
  <clipPath id="p3b889cc581">
   <rect x="58.545313" y="7.2" width="349.801619" height="214.794521"/>
  </clipPath>
 </defs>
</svg>
