<?xml version="1.0" encoding="utf-8" standalone="no"?>
<!DOCTYPE svg PUBLIC "-//W3C//DTD SVG 1.1//EN"
  "http://www.w3.org/Graphics/SVG/1.1/DTD/svg11.dtd">
<svg xmlns:xlink="http://www.w3.org/1999/xlink" width="477.662765pt" height="375.587918pt" viewBox="0 0 477.662765 375.587918" xmlns="http://www.w3.org/2000/svg" version="1.1">
 <metadata>
  <rdf:RDF xmlns:dc="http://purl.org/dc/elements/1.1/" xmlns:cc="http://creativecommons.org/ns#" xmlns:rdf="http://www.w3.org/1999/02/22-rdf-syntax-ns#">
   <cc:Work>
    <dc:type rdf:resource="http://purl.org/dc/dcmitype/StillImage"/>
    <dc:date>2025-05-11T15:02:11.970143</dc:date>
    <dc:format>image/svg+xml</dc:format>
    <dc:creator>
     <cc:Agent>
      <dc:title>Matplotlib v3.6.3, https://matplotlib.org/</dc:title>
     </cc:Agent>
    </dc:creator>
   </cc:Work>
  </rdf:RDF>
 </metadata>
 <defs>
  <style type="text/css">*{stroke-linejoin: round; stroke-linecap: butt}</style>
 </defs>
 <g id="figure_1">
  <g id="patch_1">
   <path d="M 0 375.587918 
L 477.662765 375.587918 
L 477.662765 0 
L 0 0 
z
" style="fill: #ffffff"/>
  </g>
  <g id="axes_1">
   <g id="line2d_1">
    <path d="M 83.934587 179.228238 
L 28.257398 59.308138 
L 328.057647 23.617633 
L 245.969483 187.793959 
L 163.88132 351.970286 
L 449.405366 351.970286 
L 410.85962 209.208263 
" clip-path="url(#p6eb55bfacf)" style="fill: none; stroke: #1f77b4; stroke-width: 1.5; stroke-linecap: square"/>
   </g>
   <g id="line2d_2">
    <path d="M 83.934587 179.228238 
L 81.279214 173.29603 
L 78.880812 167.491415 
L 76.739381 161.814394 
L 74.854923 156.264966 
L 73.227436 150.843132 
L 71.85692 145.548892 
L 70.743376 140.382245 
L 69.886804 135.343192 
L 69.287204 130.431732 
L 68.944575 125.647866 
L 68.858918 120.991593 
L 69.030232 116.462914 
L 69.458518 112.061829 
L 70.143776 107.788337 
L 71.086005 103.642439 
L 72.285206 99.624134 
L 73.741379 95.733422 
L 75.454523 91.970305 
L 77.424639 88.334781 
L 79.651727 84.82685 
L 82.135786 81.446513 
L 84.876817 78.19377 
L 87.874819 75.06862 
L 91.129793 72.071063 
L 94.641739 69.2011 
L 98.410656 66.458731 
L 102.436546 63.843956 
L 106.719406 61.356773 
L 111.259239 58.997185 
L 116.056043 56.76519 
L 121.109818 54.660788 
L 126.420565 52.683981 
L 131.988284 50.834766 
L 137.812975 49.113145 
L 143.894637 47.519118 
L 150.233271 46.052685 
L 156.828876 44.713844 
L 163.681453 43.502598 
L 170.791002 42.418945 
L 178.157523 41.462886 
L 192.670174 39.928194 
L 206.228105 38.893169 
L 212.64905 38.563032 
L 218.831315 38.357812 
L 224.7749 38.277508 
L 230.479804 38.322121 
L 235.946028 38.491651 
L 241.173572 38.786098 
L 246.162435 39.205461 
L 250.912619 39.749741 
L 255.424122 40.418938 
L 259.696944 41.213052 
L 263.731087 42.132083 
L 267.526549 43.17603 
L 271.083331 44.344894 
L 274.401433 45.638675 
L 277.480854 47.057372 
L 280.321595 48.600987 
L 282.923656 50.269518 
L 285.287037 52.062966 
L 287.411737 53.98133 
L 289.297757 56.024612 
L 290.945097 58.19281 
L 292.353757 60.485925 
L 293.523736 62.903957 
L 294.455036 65.446905 
L 295.147654 68.114771 
L 295.601593 70.907553 
L 295.816851 73.825252 
L 295.793429 76.867867 
L 295.531327 80.0354 
L 295.030545 83.327849 
L 294.291082 86.745215 
L 293.312939 90.287497 
L 292.096116 93.954697 
L 290.640613 97.746813 
L 288.946429 101.663846 
L 284.961361 109.810204 
L 202.988077 273.935225 
L 201.280509 277.885718 
L 199.802699 281.733601 
L 198.554647 285.478873 
L 197.536352 289.121536 
L 196.747815 292.661588 
L 196.189035 296.099029 
L 195.860013 299.433861 
L 195.760749 302.666083 
L 195.891243 305.795694 
L 196.251494 308.822695 
L 196.841502 311.747086 
L 197.661269 314.568866 
L 198.710793 317.288037 
L 199.990074 319.904597 
L 201.499113 322.418547 
L 203.23791 324.829887 
L 205.206465 327.138616 
L 207.404777 329.344736 
L 209.832846 331.448245 
L 212.490674 333.449144 
L 215.378259 335.347432 
L 218.495601 337.143111 
L 221.842702 338.836179 
L 225.419559 340.426638 
L 229.226175 341.914486 
L 233.262548 343.299723 
L 237.528679 344.582351 
L 242.024567 345.762368 
L 246.750213 346.839775 
L 251.705617 347.814572 
L 256.890778 348.686759 
L 262.305697 349.456336 
L 267.950374 350.123302 
L 273.824808 350.687658 
L 279.929 351.149404 
L 286.262949 351.50854 
L 292.826656 351.765065 
L 306.643343 351.970286 
L 313.668127 351.881059 
L 320.466276 351.61338 
L 327.03779 351.167249 
L 333.38267 350.542665 
L 339.500915 349.739629 
L 345.392525 348.75814 
L 351.057501 347.598199 
L 356.495842 346.259805 
L 361.707548 344.742958 
L 366.692619 343.047659 
L 371.451056 341.173908 
L 375.982858 339.121703 
L 380.288025 336.891047 
L 384.366558 334.481938 
L 388.218455 331.894376 
L 391.843719 329.128362 
L 395.242347 326.183895 
L 398.414341 323.060976 
L 401.3597 319.759604 
L 404.078424 316.27978 
L 406.570514 312.621503 
L 408.835968 308.784774 
L 410.874788 304.769592 
L 412.686974 300.575957 
L 414.272525 296.20387 
L 415.631441 291.653331 
L 416.763722 286.924339 
L 417.669369 282.016894 
L 418.34838 276.930997 
L 418.800758 271.666648 
L 419.0265 266.223845 
L 419.025608 260.602591 
L 418.798081 254.802884 
L 418.343919 248.824724 
L 417.663123 242.668112 
L 416.755692 236.333047 
L 415.621626 229.81953 
L 414.260925 223.12756 
L 412.67359 216.257137 
L 410.85962 209.208263 
L 410.85962 209.208263 
" clip-path="url(#p6eb55bfacf)" style="fill: none; stroke: #ff7f0e; stroke-width: 1.5; stroke-linecap: square"/>
   </g>
   <g id="line2d_3">
    <defs>
     <path id="mc38ccc5e65" d="M 0 3 
C 0.795609 3 1.55874 2.683901 2.12132 2.12132 
C 2.683901 1.55874 3 0.795609 3 0 
C 3 -0.795609 2.683901 -1.55874 2.12132 -2.12132 
C 1.55874 -2.683901 0.795609 -3 0 -3 
C -0.795609 -3 -1.55874 -2.683901 -2.12132 -2.12132 
C -2.683901 -1.55874 -3 -0.795609 -3 0 
C -3 0.795609 -2.683901 1.55874 -2.12132 2.12132 
C -1.55874 2.683901 -0.795609 3 0 3 
z
" style="stroke: #2ca02c"/>
    </defs>
    <g clip-path="url(#p6eb55bfacf)">
     <use xlink:href="#mc38ccc5e65" x="83.934587" y="179.228238" style="stroke: #2ca02c"/>
    </g>
   </g>
   <g id="line2d_4">
    <defs>
     <path id="m5d4993e14a" d="M 0 3 
C 0.795609 3 1.55874 2.683901 2.12132 2.12132 
C 2.683901 1.55874 3 0.795609 3 0 
C 3 -0.795609 2.683901 -1.55874 2.12132 -2.12132 
C 1.55874 -2.683901 0.795609 -3 0 -3 
C -0.795609 -3 -1.55874 -2.683901 -2.12132 -2.12132 
C -2.683901 -1.55874 -3 -0.795609 -3 0 
C -3 0.795609 -2.683901 1.55874 -2.12132 2.12132 
C -1.55874 2.683901 -0.795609 3 0 3 
z
" style="stroke: #d62728"/>
    </defs>
    <g clip-path="url(#p6eb55bfacf)">
     <use xlink:href="#m5d4993e14a" x="178.157523" y="41.462886" style="stroke: #d62728"/>
    </g>
   </g>
   <g id="line2d_5">
    <defs>
     <path id="md33a08f652" d="M 0 3 
C 0.795609 3 1.55874 2.683901 2.12132 2.12132 
C 2.683901 1.55874 3 0.795609 3 0 
C 3 -0.795609 2.683901 -1.55874 2.12132 -2.12132 
C 1.55874 -2.683901 0.795609 -3 0 -3 
C -0.795609 -3 -1.55874 -2.683901 -2.12132 -2.12132 
C -2.683901 -1.55874 -3 -0.795609 -3 0 
C -3 0.795609 -2.683901 1.55874 -2.12132 2.12132 
C -1.55874 2.683901 -0.795609 3 0 3 
z
" style="stroke: #9467bd"/>
    </defs>
    <g clip-path="url(#p6eb55bfacf)">
     <use xlink:href="#md33a08f652" x="287.013565" y="105.705796" style="stroke: #9467bd"/>
    </g>
   </g>
   <g id="line2d_6">
    <defs>
     <path id="m379222575c" d="M 0 3 
C 0.795609 3 1.55874 2.683901 2.12132 2.12132 
C 2.683901 1.55874 3 0.795609 3 0 
C 3 -0.795609 2.683901 -1.55874 2.12132 -2.12132 
C 1.55874 -2.683901 0.795609 -3 0 -3 
C -0.795609 -3 -1.55874 -2.683901 -2.12132 -2.12132 
C -2.683901 -1.55874 -3 -0.795609 -3 0 
C -3 0.795609 -2.683901 1.55874 -2.12132 2.12132 
C -1.55874 2.683901 -0.795609 3 0 3 
z
" style="stroke: #8c564b"/>
    </defs>
    <g clip-path="url(#p6eb55bfacf)">
     <use xlink:href="#m379222575c" x="204.925402" y="269.882122" style="stroke: #8c564b"/>
    </g>
   </g>
   <g id="line2d_7">
    <defs>
     <path id="ma7c1ce534e" d="M 0 3 
C 0.795609 3 1.55874 2.683901 2.12132 2.12132 
C 2.683901 1.55874 3 0.795609 3 0 
C 3 -0.795609 2.683901 -1.55874 2.12132 -2.12132 
C 1.55874 -2.683901 0.795609 -3 0 -3 
C -0.795609 -3 -1.55874 -2.683901 -2.12132 -2.12132 
C -2.683901 -1.55874 -3 -0.795609 -3 0 
C -3 0.795609 -2.683901 1.55874 -2.12132 2.12132 
C -1.55874 2.683901 -0.795609 3 0 3 
z
" style="stroke: #e377c2"/>
    </defs>
    <g clip-path="url(#p6eb55bfacf)">
     <use xlink:href="#ma7c1ce534e" x="306.643343" y="351.970286" style="stroke: #e377c2"/>
    </g>
   </g>
   <g id="text_1">
    <g id="patch_2">
     <path d="M 83.934587 188.948238 
C 86.512361 188.948238 88.984904 187.924077 90.807665 186.101316 
C 92.630427 184.278554 93.654587 181.806012 93.654587 179.228238 
C 93.654587 176.650464 92.630427 174.177921 90.807665 172.35516 
C 88.984904 170.532398 86.512361 169.508238 83.934587 169.508238 
C 81.356813 169.508238 78.884271 170.532398 77.061509 172.35516 
C 75.238748 174.177921 74.214587 176.650464 74.214587 179.228238 
C 74.214587 181.806012 75.238748 184.278554 77.061509 186.101316 
C 78.884271 187.924077 81.356813 188.948238 83.934587 188.948238 
z
" style="fill: #ffffff; stroke: #000000; stroke-linejoin: miter"/>
    </g>
    <!-- ${\bf P}_{0}$ -->
    <g transform="translate(76.614587 182.539488) scale(0.12 -0.12)">
     <defs>
      <path id="DejaVuSans-Bold-50" d="M 588 4666 
L 2584 4666 
Q 3475 4666 3951 4270 
Q 4428 3875 4428 3144 
Q 4428 2409 3951 2014 
Q 3475 1619 2584 1619 
L 1791 1619 
L 1791 0 
L 588 0 
L 588 4666 
z
M 1791 3794 
L 1791 2491 
L 2456 2491 
Q 2806 2491 2997 2661 
Q 3188 2831 3188 3144 
Q 3188 3456 2997 3625 
Q 2806 3794 2456 3794 
L 1791 3794 
z
" transform="scale(0.015625)"/>
      <path id="DejaVuSans-30" d="M 2034 4250 
Q 1547 4250 1301 3770 
Q 1056 3291 1056 2328 
Q 1056 1369 1301 889 
Q 1547 409 2034 409 
Q 2525 409 2770 889 
Q 3016 1369 3016 2328 
Q 3016 3291 2770 3770 
Q 2525 4250 2034 4250 
z
M 2034 4750 
Q 2819 4750 3233 4129 
Q 3647 3509 3647 2328 
Q 3647 1150 3233 529 
Q 2819 -91 2034 -91 
Q 1250 -91 836 529 
Q 422 1150 422 2328 
Q 422 3509 836 4129 
Q 1250 4750 2034 4750 
z
" transform="scale(0.015625)"/>
     </defs>
     <use xlink:href="#DejaVuSans-Bold-50" transform="translate(0 0.09375)"/>
     <use xlink:href="#DejaVuSans-30" transform="translate(74.248047 -16.3125) scale(0.7)"/>
    </g>
   </g>
   <g id="text_2">
    <g id="patch_3">
     <path d="M 28.257398 69.028138 
C 30.835173 69.028138 33.307715 68.003978 35.130476 66.181216 
C 36.953238 64.358455 37.977398 61.885913 37.977398 59.308138 
C 37.977398 56.730364 36.953238 54.257822 35.130476 52.43506 
C 33.307715 50.612299 30.835173 49.588138 28.257398 49.588138 
C 25.679624 49.588138 23.207082 50.612299 21.38432 52.43506 
C 19.561559 54.257822 18.537398 56.730364 18.537398 59.308138 
C 18.537398 61.885913 19.561559 64.358455 21.38432 66.181216 
C 23.207082 68.003978 25.679624 69.028138 28.257398 69.028138 
z
" style="fill: #ffffff; stroke: #000000; stroke-linejoin: miter"/>
    </g>
    <!-- ${\bf P}_{1}$ -->
    <g transform="translate(20.937398 62.619388) scale(0.12 -0.12)">
     <defs>
      <path id="DejaVuSans-31" d="M 794 531 
L 1825 531 
L 1825 4091 
L 703 3866 
L 703 4441 
L 1819 4666 
L 2450 4666 
L 2450 531 
L 3481 531 
L 3481 0 
L 794 0 
L 794 531 
z
" transform="scale(0.015625)"/>
     </defs>
     <use xlink:href="#DejaVuSans-Bold-50" transform="translate(0 0.09375)"/>
     <use xlink:href="#DejaVuSans-31" transform="translate(74.248047 -16.3125) scale(0.7)"/>
    </g>
   </g>
   <g id="text_3">
    <g id="patch_4">
     <path d="M 328.057647 33.337633 
C 330.635421 33.337633 333.107963 32.313472 334.930725 30.490711 
C 336.753486 28.667949 337.777647 26.195407 337.777647 23.617633 
C 337.777647 21.039859 336.753486 18.567316 334.930725 16.744555 
C 333.107963 14.921793 330.635421 13.897633 328.057647 13.897633 
C 325.479873 13.897633 323.00733 14.921793 321.184569 16.744555 
C 319.361807 18.567316 318.337647 21.039859 318.337647 23.617633 
C 318.337647 26.195407 319.361807 28.667949 321.184569 30.490711 
C 323.00733 32.313472 325.479873 33.337633 328.057647 33.337633 
z
" style="fill: #ffffff; stroke: #000000; stroke-linejoin: miter"/>
    </g>
    <!-- ${\bf P}_{2}$ -->
    <g transform="translate(320.737647 26.928883) scale(0.12 -0.12)">
     <defs>
      <path id="DejaVuSans-32" d="M 1228 531 
L 3431 531 
L 3431 0 
L 469 0 
L 469 531 
Q 828 903 1448 1529 
Q 2069 2156 2228 2338 
Q 2531 2678 2651 2914 
Q 2772 3150 2772 3378 
Q 2772 3750 2511 3984 
Q 2250 4219 1831 4219 
Q 1534 4219 1204 4116 
Q 875 4013 500 3803 
L 500 4441 
Q 881 4594 1212 4672 
Q 1544 4750 1819 4750 
Q 2544 4750 2975 4387 
Q 3406 4025 3406 3419 
Q 3406 3131 3298 2873 
Q 3191 2616 2906 2266 
Q 2828 2175 2409 1742 
Q 1991 1309 1228 531 
z
" transform="scale(0.015625)"/>
     </defs>
     <use xlink:href="#DejaVuSans-Bold-50" transform="translate(0 0.09375)"/>
     <use xlink:href="#DejaVuSans-32" transform="translate(74.248047 -16.3125) scale(0.7)"/>
    </g>
   </g>
   <g id="text_4">
    <g id="patch_5">
     <path d="M 245.969483 197.513959 
C 248.547258 197.513959 251.0198 196.489799 252.842561 194.667037 
C 254.665323 192.844275 255.689483 190.371733 255.689483 187.793959 
C 255.689483 185.216185 254.665323 182.743643 252.842561 180.920881 
C 251.0198 179.09812 248.547258 178.073959 245.969483 178.073959 
C 243.391709 178.073959 240.919167 179.09812 239.096406 180.920881 
C 237.273644 182.743643 236.249483 185.216185 236.249483 187.793959 
C 236.249483 190.371733 237.273644 192.844275 239.096406 194.667037 
C 240.919167 196.489799 243.391709 197.513959 245.969483 197.513959 
z
" style="fill: #ffffff; stroke: #000000; stroke-linejoin: miter"/>
    </g>
    <!-- ${\bf P}_{3}$ -->
    <g transform="translate(238.649483 191.105209) scale(0.12 -0.12)">
     <defs>
      <path id="DejaVuSans-33" d="M 2597 2516 
Q 3050 2419 3304 2112 
Q 3559 1806 3559 1356 
Q 3559 666 3084 287 
Q 2609 -91 1734 -91 
Q 1441 -91 1130 -33 
Q 819 25 488 141 
L 488 750 
Q 750 597 1062 519 
Q 1375 441 1716 441 
Q 2309 441 2620 675 
Q 2931 909 2931 1356 
Q 2931 1769 2642 2001 
Q 2353 2234 1838 2234 
L 1294 2234 
L 1294 2753 
L 1863 2753 
Q 2328 2753 2575 2939 
Q 2822 3125 2822 3475 
Q 2822 3834 2567 4026 
Q 2313 4219 1838 4219 
Q 1578 4219 1281 4162 
Q 984 4106 628 3988 
L 628 4550 
Q 988 4650 1302 4700 
Q 1616 4750 1894 4750 
Q 2613 4750 3031 4423 
Q 3450 4097 3450 3541 
Q 3450 3153 3228 2886 
Q 3006 2619 2597 2516 
z
" transform="scale(0.015625)"/>
     </defs>
     <use xlink:href="#DejaVuSans-Bold-50" transform="translate(0 0.09375)"/>
     <use xlink:href="#DejaVuSans-33" transform="translate(74.248047 -16.3125) scale(0.7)"/>
    </g>
   </g>
   <g id="text_5">
    <g id="patch_6">
     <path d="M 163.88132 361.690286 
C 166.459094 361.690286 168.931637 360.666125 170.754398 358.843363 
C 172.57716 357.020602 173.60132 354.54806 173.60132 351.970286 
C 173.60132 349.392511 172.57716 346.919969 170.754398 345.097208 
C 168.931637 343.274446 166.459094 342.250286 163.88132 342.250286 
C 161.303546 342.250286 158.831004 343.274446 157.008242 345.097208 
C 155.185481 346.919969 154.16132 349.392511 154.16132 351.970286 
C 154.16132 354.54806 155.185481 357.020602 157.008242 358.843363 
C 158.831004 360.666125 161.303546 361.690286 163.88132 361.690286 
z
" style="fill: #ffffff; stroke: #000000; stroke-linejoin: miter"/>
    </g>
    <!-- ${\bf P}_{4}$ -->
    <g transform="translate(156.56132 355.281536) scale(0.12 -0.12)">
     <defs>
      <path id="DejaVuSans-34" d="M 2419 4116 
L 825 1625 
L 2419 1625 
L 2419 4116 
z
M 2253 4666 
L 3047 4666 
L 3047 1625 
L 3713 1625 
L 3713 1100 
L 3047 1100 
L 3047 0 
L 2419 0 
L 2419 1100 
L 313 1100 
L 313 1709 
L 2253 4666 
z
" transform="scale(0.015625)"/>
     </defs>
     <use xlink:href="#DejaVuSans-Bold-50" transform="translate(0 0.09375)"/>
     <use xlink:href="#DejaVuSans-34" transform="translate(74.248047 -16.3125) scale(0.7)"/>
    </g>
   </g>
   <g id="text_6">
    <g id="patch_7">
     <path d="M 449.405366 361.690286 
C 451.98314 361.690286 454.455683 360.666125 456.278444 358.843363 
C 458.101206 357.020602 459.125366 354.54806 459.125366 351.970286 
C 459.125366 349.392511 458.101206 346.919969 456.278444 345.097208 
C 454.455683 343.274446 451.98314 342.250286 449.405366 342.250286 
C 446.827592 342.250286 444.35505 343.274446 442.532288 345.097208 
C 440.709527 346.919969 439.685366 349.392511 439.685366 351.970286 
C 439.685366 354.54806 440.709527 357.020602 442.532288 358.843363 
C 444.35505 360.666125 446.827592 361.690286 449.405366 361.690286 
z
" style="fill: #ffffff; stroke: #000000; stroke-linejoin: miter"/>
    </g>
    <!-- ${\bf P}_{5}$ -->
    <g transform="translate(442.085366 355.281536) scale(0.12 -0.12)">
     <defs>
      <path id="DejaVuSans-35" d="M 691 4666 
L 3169 4666 
L 3169 4134 
L 1269 4134 
L 1269 2991 
Q 1406 3038 1543 3061 
Q 1681 3084 1819 3084 
Q 2600 3084 3056 2656 
Q 3513 2228 3513 1497 
Q 3513 744 3044 326 
Q 2575 -91 1722 -91 
Q 1428 -91 1123 -41 
Q 819 9 494 109 
L 494 744 
Q 775 591 1075 516 
Q 1375 441 1709 441 
Q 2250 441 2565 725 
Q 2881 1009 2881 1497 
Q 2881 1984 2565 2268 
Q 2250 2553 1709 2553 
Q 1456 2553 1204 2497 
Q 953 2441 691 2322 
L 691 4666 
z
" transform="scale(0.015625)"/>
     </defs>
     <use xlink:href="#DejaVuSans-Bold-50" transform="translate(0 0.09375)"/>
     <use xlink:href="#DejaVuSans-35" transform="translate(74.248047 -16.3125) scale(0.7)"/>
    </g>
   </g>
   <g id="text_7">
    <g id="patch_8">
     <path d="M 410.85962 218.928263 
C 413.437394 218.928263 415.909936 217.904102 417.732698 216.08134 
C 419.55546 214.258579 420.57962 211.786037 420.57962 209.208263 
C 420.57962 206.630488 419.55546 204.157946 417.732698 202.335185 
C 415.909936 200.512423 413.437394 199.488263 410.85962 199.488263 
C 408.281846 199.488263 405.809304 200.512423 403.986542 202.335185 
C 402.163781 204.157946 401.13962 206.630488 401.13962 209.208263 
C 401.13962 211.786037 402.163781 214.258579 403.986542 216.08134 
C 405.809304 217.904102 408.281846 218.928263 410.85962 218.928263 
z
" style="fill: #ffffff; stroke: #000000; stroke-linejoin: miter"/>
    </g>
    <!-- ${\bf P}_{6}$ -->
    <g transform="translate(403.53962 212.519513) scale(0.12 -0.12)">
     <defs>
      <path id="DejaVuSans-36" d="M 2113 2584 
Q 1688 2584 1439 2293 
Q 1191 2003 1191 1497 
Q 1191 994 1439 701 
Q 1688 409 2113 409 
Q 2538 409 2786 701 
Q 3034 994 3034 1497 
Q 3034 2003 2786 2293 
Q 2538 2584 2113 2584 
z
M 3366 4563 
L 3366 3988 
Q 3128 4100 2886 4159 
Q 2644 4219 2406 4219 
Q 1781 4219 1451 3797 
Q 1122 3375 1075 2522 
Q 1259 2794 1537 2939 
Q 1816 3084 2150 3084 
Q 2853 3084 3261 2657 
Q 3669 2231 3669 1497 
Q 3669 778 3244 343 
Q 2819 -91 2113 -91 
Q 1303 -91 875 529 
Q 447 1150 447 2328 
Q 447 3434 972 4092 
Q 1497 4750 2381 4750 
Q 2619 4750 2861 4703 
Q 3103 4656 3366 4563 
z
" transform="scale(0.015625)"/>
     </defs>
     <use xlink:href="#DejaVuSans-Bold-50" transform="translate(0 0.09375)"/>
     <use xlink:href="#DejaVuSans-36" transform="translate(74.248047 -16.3125) scale(0.7)"/>
    </g>
   </g>
  </g>
 </g>
 <defs>
  <clipPath id="p6eb55bfacf">
   <rect x="7.2" y="7.2" width="463.262765" height="361.187918"/>
  </clipPath>
 </defs>
</svg>
