<?xml version="1.0" encoding="utf-8" standalone="no"?>
<!DOCTYPE svg PUBLIC "-//W3C//DTD SVG 1.1//EN"
  "http://www.w3.org/Graphics/SVG/1.1/DTD/svg11.dtd">
<svg xmlns:xlink="http://www.w3.org/1999/xlink" width="510.534729pt" height="520.148348pt" viewBox="0 0 510.534729 520.148348" xmlns="http://www.w3.org/2000/svg" version="1.1">
 <metadata>
  <rdf:RDF xmlns:dc="http://purl.org/dc/elements/1.1/" xmlns:cc="http://creativecommons.org/ns#" xmlns:rdf="http://www.w3.org/1999/02/22-rdf-syntax-ns#">
   <cc:Work>
    <dc:type rdf:resource="http://purl.org/dc/dcmitype/StillImage"/>
    <dc:date>2024-03-27T12:14:58.828311</dc:date>
    <dc:format>image/svg+xml</dc:format>
    <dc:creator>
     <cc:Agent>
      <dc:title>Matplotlib v3.6.3, https://matplotlib.org/</dc:title>
     </cc:Agent>
    </dc:creator>
   </cc:Work>
  </rdf:RDF>
 </metadata>
 <defs>
  <style type="text/css">*{stroke-linejoin: round; stroke-linecap: butt}</style>
 </defs>
 <g id="figure_1">
  <g id="patch_1">
   <path d="M 0 520.148348 
L 510.534729 520.148348 
L 510.534729 0 
L 0 0 
z
" style="fill: #ffffff"/>
  </g>
  <g id="axes_1">
   <g id="patch_2">
    <path d="M 52.160938 482.592098 
L 503.334729 482.592098 
L 503.334729 22.318125 
L 52.160938 22.318125 
z
" style="fill: #ffffff"/>
   </g>
   <g id="matplotlib.axis_1">
    <g id="xtick_1">
     <g id="line2d_1">
      <path d="M 117.501734 482.592098 
L 117.501734 22.318125 
" clip-path="url(#pa4ced2f5fc)" style="fill: none; stroke-dasharray: 2.96,1.28; stroke-dashoffset: 0; stroke: #808080; stroke-width: 0.8"/>
     </g>
     <g id="line2d_2">
      <defs>
       <path id="m48c4bc8dff" d="M 0 0 
L 0 3.5 
" style="stroke: #000000; stroke-width: 0.8"/>
      </defs>
      <g>
       <use xlink:href="#m48c4bc8dff" x="117.501734" y="482.592098" style="stroke: #000000; stroke-width: 0.8"/>
      </g>
     </g>
     <g id="text_1">
      <!-- −1.0 -->
      <g transform="translate(105.360327 497.190535) scale(0.1 -0.1)">
       <defs>
        <path id="DejaVuSans-2212" d="M 678 2272 
L 4684 2272 
L 4684 1741 
L 678 1741 
L 678 2272 
z
" transform="scale(0.015625)"/>
        <path id="DejaVuSans-31" d="M 794 531 
L 1825 531 
L 1825 4091 
L 703 3866 
L 703 4441 
L 1819 4666 
L 2450 4666 
L 2450 531 
L 3481 531 
L 3481 0 
L 794 0 
L 794 531 
z
" transform="scale(0.015625)"/>
        <path id="DejaVuSans-2e" d="M 684 794 
L 1344 794 
L 1344 0 
L 684 0 
L 684 794 
z
" transform="scale(0.015625)"/>
        <path id="DejaVuSans-30" d="M 2034 4250 
Q 1547 4250 1301 3770 
Q 1056 3291 1056 2328 
Q 1056 1369 1301 889 
Q 1547 409 2034 409 
Q 2525 409 2770 889 
Q 3016 1369 3016 2328 
Q 3016 3291 2770 3770 
Q 2525 4250 2034 4250 
z
M 2034 4750 
Q 2819 4750 3233 4129 
Q 3647 3509 3647 2328 
Q 3647 1150 3233 529 
Q 2819 -91 2034 -91 
Q 1250 -91 836 529 
Q 422 1150 422 2328 
Q 422 3509 836 4129 
Q 1250 4750 2034 4750 
z
" transform="scale(0.015625)"/>
       </defs>
       <use xlink:href="#DejaVuSans-2212"/>
       <use xlink:href="#DejaVuSans-31" x="83.789062"/>
       <use xlink:href="#DejaVuSans-2e" x="147.412109"/>
       <use xlink:href="#DejaVuSans-30" x="179.199219"/>
      </g>
     </g>
    </g>
    <g id="xtick_2">
     <g id="line2d_3">
      <path d="M 209.091318 482.592098 
L 209.091318 22.318125 
" clip-path="url(#pa4ced2f5fc)" style="fill: none; stroke-dasharray: 2.96,1.28; stroke-dashoffset: 0; stroke: #808080; stroke-width: 0.8"/>
     </g>
     <g id="line2d_4">
      <g>
       <use xlink:href="#m48c4bc8dff" x="209.091318" y="482.592098" style="stroke: #000000; stroke-width: 0.8"/>
      </g>
     </g>
     <g id="text_2">
      <!-- −0.5 -->
      <g transform="translate(196.949911 497.190535) scale(0.1 -0.1)">
       <defs>
        <path id="DejaVuSans-35" d="M 691 4666 
L 3169 4666 
L 3169 4134 
L 1269 4134 
L 1269 2991 
Q 1406 3038 1543 3061 
Q 1681 3084 1819 3084 
Q 2600 3084 3056 2656 
Q 3513 2228 3513 1497 
Q 3513 744 3044 326 
Q 2575 -91 1722 -91 
Q 1428 -91 1123 -41 
Q 819 9 494 109 
L 494 744 
Q 775 591 1075 516 
Q 1375 441 1709 441 
Q 2250 441 2565 725 
Q 2881 1009 2881 1497 
Q 2881 1984 2565 2268 
Q 2250 2553 1709 2553 
Q 1456 2553 1204 2497 
Q 953 2441 691 2322 
L 691 4666 
z
" transform="scale(0.015625)"/>
       </defs>
       <use xlink:href="#DejaVuSans-2212"/>
       <use xlink:href="#DejaVuSans-30" x="83.789062"/>
       <use xlink:href="#DejaVuSans-2e" x="147.412109"/>
       <use xlink:href="#DejaVuSans-35" x="179.199219"/>
      </g>
     </g>
    </g>
    <g id="xtick_3">
     <g id="line2d_5">
      <path d="M 300.680902 482.592098 
L 300.680902 22.318125 
" clip-path="url(#pa4ced2f5fc)" style="fill: none; stroke-dasharray: 2.96,1.28; stroke-dashoffset: 0; stroke: #808080; stroke-width: 0.8"/>
     </g>
     <g id="line2d_6">
      <g>
       <use xlink:href="#m48c4bc8dff" x="300.680902" y="482.592098" style="stroke: #000000; stroke-width: 0.8"/>
      </g>
     </g>
     <g id="text_3">
      <!-- 0.0 -->
      <g transform="translate(292.729339 497.190535) scale(0.1 -0.1)">
       <use xlink:href="#DejaVuSans-30"/>
       <use xlink:href="#DejaVuSans-2e" x="63.623047"/>
       <use xlink:href="#DejaVuSans-30" x="95.410156"/>
      </g>
     </g>
    </g>
    <g id="xtick_4">
     <g id="line2d_7">
      <path d="M 392.270486 482.592098 
L 392.270486 22.318125 
" clip-path="url(#pa4ced2f5fc)" style="fill: none; stroke-dasharray: 2.96,1.28; stroke-dashoffset: 0; stroke: #808080; stroke-width: 0.8"/>
     </g>
     <g id="line2d_8">
      <g>
       <use xlink:href="#m48c4bc8dff" x="392.270486" y="482.592098" style="stroke: #000000; stroke-width: 0.8"/>
      </g>
     </g>
     <g id="text_4">
      <!-- 0.5 -->
      <g transform="translate(384.318924 497.190535) scale(0.1 -0.1)">
       <use xlink:href="#DejaVuSans-30"/>
       <use xlink:href="#DejaVuSans-2e" x="63.623047"/>
       <use xlink:href="#DejaVuSans-35" x="95.410156"/>
      </g>
     </g>
    </g>
    <g id="xtick_5">
     <g id="line2d_9">
      <path d="M 483.86007 482.592098 
L 483.86007 22.318125 
" clip-path="url(#pa4ced2f5fc)" style="fill: none; stroke-dasharray: 2.96,1.28; stroke-dashoffset: 0; stroke: #808080; stroke-width: 0.8"/>
     </g>
     <g id="line2d_10">
      <g>
       <use xlink:href="#m48c4bc8dff" x="483.86007" y="482.592098" style="stroke: #000000; stroke-width: 0.8"/>
      </g>
     </g>
     <g id="text_5">
      <!-- 1.0 -->
      <g transform="translate(475.908508 497.190535) scale(0.1 -0.1)">
       <use xlink:href="#DejaVuSans-31"/>
       <use xlink:href="#DejaVuSans-2e" x="63.623047"/>
       <use xlink:href="#DejaVuSans-30" x="95.410156"/>
      </g>
     </g>
    </g>
    <g id="text_6">
     <!-- $y_0$ -->
     <g transform="translate(272.397833 510.848348) scale(0.1 -0.1)">
      <defs>
       <path id="DejaVuSans-Oblique-79" d="M 1588 -325 
Q 1188 -997 936 -1164 
Q 684 -1331 294 -1331 
L -159 -1331 
L -63 -850 
L 269 -850 
Q 509 -850 678 -719 
Q 847 -588 1056 -206 
L 1234 128 
L 459 3500 
L 1069 3500 
L 1650 819 
L 3256 3500 
L 3859 3500 
L 1588 -325 
z
" transform="scale(0.015625)"/>
      </defs>
      <use xlink:href="#DejaVuSans-Oblique-79" transform="translate(0 0.3125)"/>
      <use xlink:href="#DejaVuSans-30" transform="translate(59.179688 -16.09375) scale(0.7)"/>
     </g>
    </g>
   </g>
   <g id="matplotlib.axis_2">
    <g id="ytick_1">
     <g id="line2d_11">
      <path d="M 52.160938 435.61507 
L 503.334729 435.61507 
" clip-path="url(#pa4ced2f5fc)" style="fill: none; stroke-dasharray: 2.96,1.28; stroke-dashoffset: 0; stroke: #808080; stroke-width: 0.8"/>
     </g>
     <g id="line2d_12">
      <defs>
       <path id="m7808caff29" d="M 0 0 
L -3.5 0 
" style="stroke: #000000; stroke-width: 0.8"/>
      </defs>
      <g>
       <use xlink:href="#m7808caff29" x="52.160938" y="435.61507" style="stroke: #000000; stroke-width: 0.8"/>
      </g>
     </g>
     <g id="text_7">
      <!-- −1.0 -->
      <g transform="translate(20.878125 439.414289) scale(0.1 -0.1)">
       <use xlink:href="#DejaVuSans-2212"/>
       <use xlink:href="#DejaVuSans-31" x="83.789062"/>
       <use xlink:href="#DejaVuSans-2e" x="147.412109"/>
       <use xlink:href="#DejaVuSans-30" x="179.199219"/>
      </g>
     </g>
    </g>
    <g id="ytick_2">
     <g id="line2d_13">
      <path d="M 52.160938 344.025486 
L 503.334729 344.025486 
" clip-path="url(#pa4ced2f5fc)" style="fill: none; stroke-dasharray: 2.96,1.28; stroke-dashoffset: 0; stroke: #808080; stroke-width: 0.8"/>
     </g>
     <g id="line2d_14">
      <g>
       <use xlink:href="#m7808caff29" x="52.160938" y="344.025486" style="stroke: #000000; stroke-width: 0.8"/>
      </g>
     </g>
     <g id="text_8">
      <!-- −0.5 -->
      <g transform="translate(20.878125 347.824705) scale(0.1 -0.1)">
       <use xlink:href="#DejaVuSans-2212"/>
       <use xlink:href="#DejaVuSans-30" x="83.789062"/>
       <use xlink:href="#DejaVuSans-2e" x="147.412109"/>
       <use xlink:href="#DejaVuSans-35" x="179.199219"/>
      </g>
     </g>
    </g>
    <g id="ytick_3">
     <g id="line2d_15">
      <path d="M 52.160938 252.435902 
L 503.334729 252.435902 
" clip-path="url(#pa4ced2f5fc)" style="fill: none; stroke-dasharray: 2.96,1.28; stroke-dashoffset: 0; stroke: #808080; stroke-width: 0.8"/>
     </g>
     <g id="line2d_16">
      <g>
       <use xlink:href="#m7808caff29" x="52.160938" y="252.435902" style="stroke: #000000; stroke-width: 0.8"/>
      </g>
     </g>
     <g id="text_9">
      <!-- 0.0 -->
      <g transform="translate(29.257813 256.23512) scale(0.1 -0.1)">
       <use xlink:href="#DejaVuSans-30"/>
       <use xlink:href="#DejaVuSans-2e" x="63.623047"/>
       <use xlink:href="#DejaVuSans-30" x="95.410156"/>
      </g>
     </g>
    </g>
    <g id="ytick_4">
     <g id="line2d_17">
      <path d="M 52.160938 160.846317 
L 503.334729 160.846317 
" clip-path="url(#pa4ced2f5fc)" style="fill: none; stroke-dasharray: 2.96,1.28; stroke-dashoffset: 0; stroke: #808080; stroke-width: 0.8"/>
     </g>
     <g id="line2d_18">
      <g>
       <use xlink:href="#m7808caff29" x="52.160938" y="160.846317" style="stroke: #000000; stroke-width: 0.8"/>
      </g>
     </g>
     <g id="text_10">
      <!-- 0.5 -->
      <g transform="translate(29.257813 164.645536) scale(0.1 -0.1)">
       <use xlink:href="#DejaVuSans-30"/>
       <use xlink:href="#DejaVuSans-2e" x="63.623047"/>
       <use xlink:href="#DejaVuSans-35" x="95.410156"/>
      </g>
     </g>
    </g>
    <g id="ytick_5">
     <g id="line2d_19">
      <path d="M 52.160938 69.256733 
L 503.334729 69.256733 
" clip-path="url(#pa4ced2f5fc)" style="fill: none; stroke-dasharray: 2.96,1.28; stroke-dashoffset: 0; stroke: #808080; stroke-width: 0.8"/>
     </g>
     <g id="line2d_20">
      <g>
       <use xlink:href="#m7808caff29" x="52.160938" y="69.256733" style="stroke: #000000; stroke-width: 0.8"/>
      </g>
     </g>
     <g id="text_11">
      <!-- 1.0 -->
      <g transform="translate(29.257813 73.055952) scale(0.1 -0.1)">
       <use xlink:href="#DejaVuSans-31"/>
       <use xlink:href="#DejaVuSans-2e" x="63.623047"/>
       <use xlink:href="#DejaVuSans-30" x="95.410156"/>
      </g>
     </g>
    </g>
    <g id="text_12">
     <!-- $y_1$ -->
     <g transform="translate(14.778125 257.805111) rotate(-90) scale(0.1 -0.1)">
      <use xlink:href="#DejaVuSans-Oblique-79" transform="translate(0 0.3125)"/>
      <use xlink:href="#DejaVuSans-31" transform="translate(59.179688 -16.09375) scale(0.7)"/>
     </g>
    </g>
   </g>
   <g id="line2d_21">
    <path d="M 482.760995 252.435902 
L 481.317941 255.036869 
L 479.568017 256.305429 
L 477.977145 257.153381 
L 475.110192 258.303138 
L 472.500129 259.059572 
L 470.049945 259.56923 
L 466.570812 259.99957 
L 463.249859 260.11322 
L 460.035946 259.960971 
L 456.896996 259.57171 
L 453.810791 258.963664 
L 450.760836 258.148711 
L 447.734065 257.134929 
L 444.718863 255.928831 
L 441.705721 254.533993 
L 437.675084 252.386627 
L 433.609929 249.915896 
L 429.488715 247.126639 
L 425.288928 244.02345 
L 419.891323 239.71239 
L 414.280001 234.937076 
L 405.953498 227.515945 
L 389.911923 213.120261 
L 382.377478 206.698114 
L 375.926536 201.490897 
L 369.079326 196.294578 
L 363.681174 192.448826 
L 358.061655 188.687076 
L 352.228223 185.054108 
L 346.199339 181.580949 
L 339.998728 178.297607 
L 333.657834 175.231839 
L 327.212569 172.40436 
L 320.699777 169.826542 
L 314.156941 167.501159 
L 307.623062 165.424632 
L 301.138671 163.589063 
L 294.742935 161.982353 
L 286.401941 160.159652 
L 278.307701 158.637503 
L 268.614548 157.076667 
L 257.664868 155.552302 
L 232.283792 152.132317 
L 224.161637 150.745512 
L 217.942052 149.454124 
L 212.201427 148.009088 
L 207.941524 146.729667 
L 203.967765 145.333812 
L 200.27209 143.817891 
L 196.847132 142.180231 
L 193.686112 140.420984 
L 190.782551 138.542467 
L 188.131015 136.547275 
L 185.726445 134.439919 
L 183.564166 132.225741 
L 181.639629 129.910451 
L 179.94853 127.500267 
L 178.486868 125.001984 
L 177.250936 122.422979 
L 176.237274 119.771153 
L 175.442591 117.054844 
L 174.863654 114.282706 
L 174.497181 111.463575 
L 174.339731 108.606334 
L 174.387605 105.71979 
L 174.636777 102.812572 
L 175.082866 99.893067 
L 175.721152 96.969407 
L 176.546657 94.049514 
L 177.834082 90.416895 
L 179.396576 86.818082 
L 181.226036 83.270063 
L 183.3173 79.792591 
L 185.667886 76.40865 
L 188.243626 73.118758 
L 191.042544 69.942199 
L 194.051908 66.892555 
L 197.258372 63.982779 
L 200.648039 61.225096 
L 204.206506 58.630934 
L 207.918888 56.210885 
L 211.769837 53.974695 
L 215.743554 51.931254 
L 219.823798 50.088603 
L 223.993909 48.453935 
L 228.236838 47.033585 
L 232.535202 45.833007 
L 236.871349 44.856717 
L 241.227474 44.108216 
L 245.585748 43.58986 
L 249.928507 43.302688 
L 254.237742 43.247222 
L 258.494696 43.423955 
L 262.68126 43.831041 
L 266.779319 44.466305 
L 270.770931 45.326878 
L 274.638283 46.409091 
L 278.36367 47.708427 
L 281.929512 49.219523 
L 285.318378 50.936217 
L 288.513043 52.851626 
L 291.49654 54.958262 
L 293.720099 56.775911 
L 295.789502 58.70661 
L 297.696578 60.746027 
L 299.433345 62.889794 
L 300.992022 65.133547 
L 302.365037 67.472976 
L 303.545025 69.90386 
L 304.524817 72.422103 
L 305.297425 75.023757 
L 305.856014 77.705038 
L 306.193863 80.46233 
L 306.304312 83.29218 
L 306.180697 86.191272 
L 305.816274 89.156388 
L 305.204118 92.184358 
L 304.33887 95.273816 
L 303.218297 98.427784 
L 301.835691 101.645882 
L 300.187072 104.929863 
L 298.269069 108.28279 
L 296.078709 111.709478 
L 293.613628 115.216653 
L 290.144184 119.727119 
L 286.245191 124.397712 
L 281.010714 130.249155 
L 274.173704 137.482374 
L 251.075536 161.513012 
L 244.78563 168.510291 
L 239.725662 174.427699 
L 234.700755 180.62728 
L 229.765173 187.099525 
L 224.969135 193.825808 
L 220.360283 200.771891 
L 215.989338 207.879001 
L 211.882985 215.103542 
L 208.057854 222.384234 
L 204.517994 229.65991 
L 201.255764 236.872631 
L 197.540114 245.721317 
L 194.176049 254.302705 
L 189.360711 267.299527 
L 181.945564 287.444203 
L 178.906898 294.984058 
L 176.362003 300.757968 
L 173.772957 306.072191 
L 171.117147 310.932482 
L 168.933797 314.498781 
L 166.692385 317.783574 
L 164.388841 320.791684 
L 162.019848 323.527755 
L 159.586656 325.994895 
L 157.089853 328.198047 
L 154.531525 330.141497 
L 151.914751 331.829453 
L 149.243557 333.266018 
L 146.522797 334.455209 
L 143.757995 335.400994 
L 140.95517 336.107353 
L 138.120682 336.578329 
L 135.26112 336.818071 
L 132.383255 336.830847 
L 129.494102 336.621013 
L 126.601101 336.192928 
L 123.712459 335.550801 
L 120.836861 334.698816 
L 117.980215 333.642623 
L 115.150847 332.386804 
L 112.356436 330.936494 
L 109.604619 329.297097 
L 106.902943 327.474235 
L 103.607638 324.946523 
L 100.41637 322.15295 
L 97.342784 319.105663 
L 94.400003 315.817278 
L 91.600583 312.300937 
L 88.956482 308.570369 
L 86.479021 304.639924 
L 84.178853 300.524577 
L 82.065903 296.239866 
L 80.149303 291.80177 
L 78.437298 287.226481 
L 76.937116 282.530074 
L 75.654807 277.728042 
L 74.595484 272.836325 
L 73.764437 267.874856 
L 73.164806 262.859842 
L 72.799076 257.808694 
L 72.668837 252.739001 
L 72.774723 247.668435 
L 73.116364 242.614673 
L 73.692365 237.59533 
L 74.500296 232.627904 
L 75.536696 227.729729 
L 76.797095 222.917931 
L 78.276039 218.209403 
L 79.967132 213.620766 
L 81.863075 209.168353 
L 83.955716 204.868179 
L 86.236098 200.735917 
L 88.694509 196.786879 
L 91.320529 193.03598 
L 94.103072 189.497714 
L 97.030422 186.186111 
L 100.09026 183.114694 
L 103.269683 180.296428 
L 106.555207 177.743654 
L 109.250579 175.900439 
L 111.997367 174.240209 
L 114.787812 172.768214 
L 117.613867 171.489313 
L 120.467171 170.407929 
L 123.340641 169.530654 
L 126.227461 168.863209 
L 129.119417 168.409291 
L 132.008975 168.173357 
L 134.888744 168.159715 
L 137.751459 168.372604 
L 140.590014 168.816227 
L 143.397541 169.494758 
L 146.167517 170.412334 
L 148.89389 171.573041 
L 151.571209 172.980901 
L 154.194743 174.63988 
L 156.760587 176.553918 
L 159.265729 178.726992 
L 161.708068 181.16323 
L 164.086384 183.867081 
L 166.400227 186.843551 
L 168.650654 190.097265 
L 170.842268 193.631443 
L 172.980808 197.451229 
L 175.59031 202.632547 
L 178.147943 208.270968 
L 180.68252 214.371769 
L 183.747094 222.306265 
L 189.119428 236.984192 
L 194.546205 251.606029 
L 197.950192 260.213823 
L 201.719782 269.086394 
L 205.0263 276.310446 
L 208.61316 283.587911 
L 212.486926 290.859366 
L 216.638983 298.067073 
L 221.047876 305.155563 
L 225.683443 312.071035 
L 230.508977 318.763091 
L 235.477686 325.192269 
L 240.519716 331.346881 
L 245.581539 337.221819 
L 251.865689 344.162108 
L 259.214551 351.930111 
L 283.439913 377.173917 
L 287.632047 381.962469 
L 291.400178 386.576166 
L 294.738933 391.03813 
L 297.100172 394.511362 
L 299.187366 397.907195 
L 301.002937 401.231309 
L 302.550146 404.487799 
L 303.832843 407.679404 
L 304.855337 410.807699 
L 305.622413 413.873209 
L 306.139577 416.87541 
L 306.413421 419.812588 
L 306.448773 422.682934 
L 306.252184 425.483615 
L 305.830096 428.211383 
L 305.189229 430.862783 
L 304.336512 433.434097 
L 303.279038 435.921323 
L 302.02404 438.320198 
L 300.578886 440.62625 
L 298.951077 442.834866 
L 297.148266 444.941386 
L 295.178268 446.941184 
L 293.049083 448.829769 
L 290.768906 450.602862 
L 288.346137 452.256464 
L 285.130275 454.149857 
L 281.722251 455.844347 
L 278.13957 457.334145 
L 274.399847 458.613843 
L 270.520492 459.677895 
L 266.518263 460.51983 
L 262.408687 461.131169 
L 258.212596 461.513473 
L 253.949452 461.66753 
L 249.635999 461.589843 
L 245.290455 461.28014 
L 240.931045 460.739064 
L 236.575887 459.96821 
L 232.242908 458.970146 
L 227.949794 457.748409 
L 223.713963 456.307505 
L 219.552548 454.65289 
L 215.482396 452.790947 
L 211.52006 450.728963 
L 207.681793 448.475095 
L 203.983523 446.038349 
L 200.440815 443.428553 
L 197.0688 440.656336 
L 193.882078 437.733121 
L 190.894571 434.671121 
L 188.119342 431.483354 
L 185.568345 428.183664 
L 183.252158 424.786761 
L 181.184964 421.306664 
L 179.376815 417.759139 
L 177.838014 414.160085 
L 176.578339 410.525526 
L 175.777801 407.603287 
L 175.166324 404.677335 
L 174.748195 401.756374 
L 174.527515 398.84923 
L 174.508213 395.964791 
L 174.694073 393.111946 
L 175.088762 390.299506 
L 175.695867 387.536133 
L 176.518922 384.830262 
L 177.561457 382.190039 
L 178.827036 379.623265 
L 180.319304 377.137369 
L 182.042035 374.739391 
L 183.999184 372.436009 
L 186.194939 370.233589 
L 188.633775 368.138283 
L 191.320511 366.156165 
L 194.260365 364.293418 
L 197.458168 362.548755 
L 200.92119 360.925337 
L 204.656077 359.423156 
L 208.66981 358.040307 
L 212.970618 356.772828 
L 217.567995 355.614296 
L 223.747296 354.3046 
L 230.425229 353.12336 
L 239.119969 351.821419 
L 257.058155 349.455305 
L 269.846013 347.653631 
L 279.59711 346.04217 
L 287.731486 344.470273 
L 296.112596 342.582042 
L 302.523814 340.924624 
L 309.010452 339.038177 
L 315.54147 336.90785 
L 322.082122 334.525115 
L 328.589 331.889039 
L 335.012618 329.005608 
L 341.325211 325.887291 
L 347.490363 322.556758 
L 353.478258 319.042741 
L 359.266019 315.377414 
L 364.83864 311.594646 
L 370.188369 307.729541 
L 376.971811 302.510661 
L 383.361954 297.295687 
L 390.820558 290.892951 
L 400.39552 282.305044 
L 414.982014 269.208856 
L 420.560054 264.481842 
L 425.931866 260.223072 
L 430.11479 257.162464 
L 434.222775 254.415737 
L 438.279697 251.989378 
L 442.304876 249.887573 
L 445.316195 248.527887 
L 448.33136 247.357656 
L 451.360481 246.381502 
L 454.41491 245.605738 
L 457.508272 245.039342 
L 460.657651 244.695256 
L 463.885782 244.592674 
L 467.227706 244.764885 
L 469.544162 245.058364 
L 471.960448 245.527332 
L 474.518814 246.224944 
L 477.296913 247.266569 
L 478.814315 248.004449 
L 480.460989 249.021986 
L 482.225815 250.714549 
L 482.82683 252.29353 
L 482.82683 252.29353 
" clip-path="url(#pa4ced2f5fc)" style="fill: none; stroke: #1f77b4; stroke-width: 1.5; stroke-linecap: square"/>
   </g>
   <g id="line2d_22">
    <defs>
     <path id="m8e8710c5f8" d="M 0 1.5 
C 0.397805 1.5 0.77937 1.341951 1.06066 1.06066 
C 1.341951 0.77937 1.5 0.397805 1.5 0 
C 1.5 -0.397805 1.341951 -0.77937 1.06066 -1.06066 
C 0.77937 -1.341951 0.397805 -1.5 0 -1.5 
C -0.397805 -1.5 -0.77937 -1.341951 -1.06066 -1.06066 
C -1.341951 -0.77937 -1.5 -0.397805 -1.5 0 
C -1.5 0.397805 -1.341951 0.77937 -1.06066 1.06066 
C -0.77937 1.341951 -0.397805 1.5 0 1.5 
z
" style="stroke: #ff7f0e"/>
    </defs>
    <g clip-path="url(#pa4ced2f5fc)">
     <use xlink:href="#m8e8710c5f8" x="482.760995" y="252.435902" style="fill: #ff7f0e; stroke: #ff7f0e"/>
     <use xlink:href="#m8e8710c5f8" x="468.868263" y="259.752423" style="fill: #ff7f0e; stroke: #ff7f0e"/>
     <use xlink:href="#m8e8710c5f8" x="457.936787" y="259.726147" style="fill: #ff7f0e; stroke: #ff7f0e"/>
     <use xlink:href="#m8e8710c5f8" x="447.73453" y="257.134589" style="fill: #ff7f0e; stroke: #ff7f0e"/>
     <use xlink:href="#m8e8710c5f8" x="437.675998" y="252.386095" style="fill: #ff7f0e; stroke: #ff7f0e"/>
     <use xlink:href="#m8e8710c5f8" x="427.401496" y="245.613331" style="fill: #ff7f0e; stroke: #ff7f0e"/>
     <use xlink:href="#m8e8710c5f8" x="416.555587" y="236.901355" style="fill: #ff7f0e; stroke: #ff7f0e"/>
     <use xlink:href="#m8e8710c5f8" x="404.712409" y="226.391016" style="fill: #ff7f0e; stroke: #ff7f0e"/>
     <use xlink:href="#m8e8710c5f8" x="391.354644" y="214.386948" style="fill: #ff7f0e; stroke: #ff7f0e"/>
     <use xlink:href="#m8e8710c5f8" x="375.932369" y="201.488925" style="fill: #ff7f0e; stroke: #ff7f0e"/>
     <use xlink:href="#m8e8710c5f8" x="358.068114" y="188.687907" style="fill: #ff7f0e; stroke: #ff7f0e"/>
     <use xlink:href="#m8e8710c5f8" x="337.906267" y="177.250888" style="fill: #ff7f0e; stroke: #ff7f0e"/>
     <use xlink:href="#m8e8710c5f8" x="316.343667" y="168.245519" style="fill: #ff7f0e; stroke: #ff7f0e"/>
     <use xlink:href="#m8e8710c5f8" x="294.757396" y="161.986006" style="fill: #ff7f0e; stroke: #ff7f0e"/>
     <use xlink:href="#m8e8710c5f8" x="274.380199" y="157.971563" style="fill: #ff7f0e; stroke: #ff7f0e"/>
     <use xlink:href="#m8e8710c5f8" x="255.924839" y="155.319598" style="fill: #ff7f0e; stroke: #ff7f0e"/>
     <use xlink:href="#m8e8710c5f8" x="239.631278" y="153.193759" style="fill: #ff7f0e; stroke: #ff7f0e"/>
     <use xlink:href="#m8e8710c5f8" x="225.472891" y="150.982817" style="fill: #ff7f0e; stroke: #ff7f0e"/>
     <use xlink:href="#m8e8710c5f8" x="213.320085" y="148.305955" style="fill: #ff7f0e; stroke: #ff7f0e"/>
     <use xlink:href="#m8e8710c5f8" x="203.025887" y="144.960109" style="fill: #ff7f0e; stroke: #ff7f0e"/>
     <use xlink:href="#m8e8710c5f8" x="194.459566" y="140.865435" style="fill: #ff7f0e; stroke: #ff7f0e"/>
     <use xlink:href="#m8e8710c5f8" x="187.51458" y="136.023939" style="fill: #ff7f0e; stroke: #ff7f0e"/>
     <use xlink:href="#m8e8710c5f8" x="182.106012" y="130.49113" style="fill: #ff7f0e; stroke: #ff7f0e"/>
     <use xlink:href="#m8e8710c5f8" x="178.164683" y="124.357181" style="fill: #ff7f0e; stroke: #ff7f0e"/>
     <use xlink:href="#m8e8710c5f8" x="175.63091" y="117.734367" style="fill: #ff7f0e; stroke: #ff7f0e"/>
     <use xlink:href="#m8e8710c5f8" x="174.449044" y="110.748481" style="fill: #ff7f0e; stroke: #ff7f0e"/>
     <use xlink:href="#m8e8710c5f8" x="174.56306" y="103.532756" style="fill: #ff7f0e; stroke: #ff7f0e"/>
     <use xlink:href="#m8e8710c5f8" x="175.913188" y="96.223349" style="fill: #ff7f0e; stroke: #ff7f0e"/>
     <use xlink:href="#m8e8710c5f8" x="178.43346" y="88.955841" style="fill: #ff7f0e; stroke: #ff7f0e"/>
     <use xlink:href="#m8e8710c5f8" x="182.050053" y="81.862401" style="fill: #ff7f0e; stroke: #ff7f0e"/>
     <use xlink:href="#m8e8710c5f8" x="186.680266" y="75.069417" style="fill: #ff7f0e; stroke: #ff7f0e"/>
     <use xlink:href="#m8e8710c5f8" x="192.232054" y="68.695467" style="fill: #ff7f0e; stroke: #ff7f0e"/>
     <use xlink:href="#m8e8710c5f8" x="198.603998" y="62.849579" style="fill: #ff7f0e; stroke: #ff7f0e"/>
     <use xlink:href="#m8e8710c5f8" x="205.685651" y="57.629721" style="fill: #ff7f0e; stroke: #ff7f0e"/>
     <use xlink:href="#m8e8710c5f8" x="213.358182" y="53.121528" style="fill: #ff7f0e; stroke: #ff7f0e"/>
     <use xlink:href="#m8e8710c5f8" x="221.495271" y="49.397255" style="fill: #ff7f0e; stroke: #ff7f0e"/>
     <use xlink:href="#m8e8710c5f8" x="229.964192" y="46.514959" style="fill: #ff7f0e; stroke: #ff7f0e"/>
     <use xlink:href="#m8e8710c5f8" x="238.627033" y="44.517915" style="fill: #ff7f0e; stroke: #ff7f0e"/>
     <use xlink:href="#m8e8710c5f8" x="247.34203" y="43.434291" style="fill: #ff7f0e; stroke: #ff7f0e"/>
     <use xlink:href="#m8e8710c5f8" x="255.964943" y="43.277086" style="fill: #ff7f0e; stroke: #ff7f0e"/>
     <use xlink:href="#m8e8710c5f8" x="264.350449" y="44.044351" style="fill: #ff7f0e; stroke: #ff7f0e"/>
     <use xlink:href="#m8e8710c5f8" x="272.35351" y="45.719722" style="fill: #ff7f0e; stroke: #ff7f0e"/>
     <use xlink:href="#m8e8710c5f8" x="279.830668" y="48.273279" style="fill: #ff7f0e; stroke: #ff7f0e"/>
     <use xlink:href="#m8e8710c5f8" x="286.641246" y="51.662787" style="fill: #ff7f0e; stroke: #ff7f0e"/>
     <use xlink:href="#m8e8710c5f8" x="292.648399" y="55.835359" style="fill: #ff7f0e; stroke: #ff7f0e"/>
     <use xlink:href="#m8e8710c5f8" x="297.720018" y="60.729616" style="fill: #ff7f0e; stroke: #ff7f0e"/>
     <use xlink:href="#m8e8710c5f8" x="301.729461" y="66.278456" style="fill: #ff7f0e; stroke: #ff7f0e"/>
     <use xlink:href="#m8e8710c5f8" x="304.556144" y="72.412569" style="fill: #ff7f0e; stroke: #ff7f0e"/>
     <use xlink:href="#m8e8710c5f8" x="306.08607" y="79.064929" style="fill: #ff7f0e; stroke: #ff7f0e"/>
     <use xlink:href="#m8e8710c5f8" x="306.212481" y="86.176535" style="fill: #ff7f0e; stroke: #ff7f0e"/>
     <use xlink:href="#m8e8710c5f8" x="304.837014" y="93.703799" style="fill: #ff7f0e; stroke: #ff7f0e"/>
     <use xlink:href="#m8e8710c5f8" x="301.872071" y="101.628051" style="fill: #ff7f0e; stroke: #ff7f0e"/>
     <use xlink:href="#m8e8710c5f8" x="297.245701" y="109.967573" style="fill: #ff7f0e; stroke: #ff7f0e"/>
     <use xlink:href="#m8e8710c5f8" x="290.911284" y="118.792231" style="fill: #ff7f0e; stroke: #ff7f0e"/>
     <use xlink:href="#m8e8710c5f8" x="282.86567" y="128.239414" style="fill: #ff7f0e; stroke: #ff7f0e"/>
     <use xlink:href="#m8e8710c5f8" x="273.180877" y="138.526581" style="fill: #ff7f0e; stroke: #ff7f0e"/>
     <use xlink:href="#m8e8710c5f8" x="262.053785" y="149.948444" style="fill: #ff7f0e; stroke: #ff7f0e"/>
     <use xlink:href="#m8e8710c5f8" x="249.869549" y="162.835354" style="fill: #ff7f0e; stroke: #ff7f0e"/>
     <use xlink:href="#m8e8710c5f8" x="237.247982" y="177.443145" style="fill: #ff7f0e; stroke: #ff7f0e"/>
     <use xlink:href="#m8e8710c5f8" x="225.000988" y="193.774015" style="fill: #ff7f0e; stroke: #ff7f0e"/>
     <use xlink:href="#m8e8710c5f8" x="213.931954" y="211.420658" style="fill: #ff7f0e; stroke: #ff7f0e"/>
     <use xlink:href="#m8e8710c5f8" x="204.54061" y="229.59806" style="fill: #ff7f0e; stroke: #ff7f0e"/>
     <use xlink:href="#m8e8710c5f8" x="196.855165" y="247.399581" style="fill: #ff7f0e; stroke: #ff7f0e"/>
     <use xlink:href="#m8e8710c5f8" x="190.522605" y="264.081188" style="fill: #ff7f0e; stroke: #ff7f0e"/>
     <use xlink:href="#m8e8710c5f8" x="185.036215" y="279.182417" style="fill: #ff7f0e; stroke: #ff7f0e"/>
     <use xlink:href="#m8e8710c5f8" x="179.920509" y="292.490433" style="fill: #ff7f0e; stroke: #ff7f0e"/>
     <use xlink:href="#m8e8710c5f8" x="174.814443" y="303.949807" style="fill: #ff7f0e; stroke: #ff7f0e"/>
     <use xlink:href="#m8e8710c5f8" x="169.483068" y="313.585584" style="fill: #ff7f0e; stroke: #ff7f0e"/>
     <use xlink:href="#m8e8710c5f8" x="163.79871" y="321.455994" style="fill: #ff7f0e; stroke: #ff7f0e"/>
     <use xlink:href="#m8e8710c5f8" x="157.71556" y="327.628683" style="fill: #ff7f0e; stroke: #ff7f0e"/>
     <use xlink:href="#m8e8710c5f8" x="151.247031" y="332.171069" style="fill: #ff7f0e; stroke: #ff7f0e"/>
     <use xlink:href="#m8e8710c5f8" x="144.448044" y="335.147981" style="fill: #ff7f0e; stroke: #ff7f0e"/>
     <use xlink:href="#m8e8710c5f8" x="137.401813" y="336.622603" style="fill: #ff7f0e; stroke: #ff7f0e"/>
     <use xlink:href="#m8e8710c5f8" x="130.210096" y="336.658604" style="fill: #ff7f0e; stroke: #ff7f0e"/>
     <use xlink:href="#m8e8710c5f8" x="122.985917" y="335.322458" style="fill: #ff7f0e; stroke: #ff7f0e"/>
     <use xlink:href="#m8e8710c5f8" x="115.84803" y="332.685482" style="fill: #ff7f0e; stroke: #ff7f0e"/>
     <use xlink:href="#m8e8710c5f8" x="108.916571" y="328.825426" style="fill: #ff7f0e; stroke: #ff7f0e"/>
     <use xlink:href="#m8e8710c5f8" x="102.309579" y="323.827575" style="fill: #ff7f0e; stroke: #ff7f0e"/>
     <use xlink:href="#m8e8710c5f8" x="96.140118" y="317.785374" style="fill: #ff7f0e; stroke: #ff7f0e"/>
     <use xlink:href="#m8e8710c5f8" x="90.513883" y="310.800622" style="fill: #ff7f0e; stroke: #ff7f0e"/>
     <use xlink:href="#m8e8710c5f8" x="85.527167" y="302.983291" style="fill: #ff7f0e; stroke: #ff7f0e"/>
     <use xlink:href="#m8e8710c5f8" x="81.265151" y="294.451024" style="fill: #ff7f0e; stroke: #ff7f0e"/>
     <use xlink:href="#m8e8710c5f8" x="77.800467" y="285.328349" style="fill: #ff7f0e; stroke: #ff7f0e"/>
     <use xlink:href="#m8e8710c5f8" x="75.192031" y="275.74568" style="fill: #ff7f0e; stroke: #ff7f0e"/>
     <use xlink:href="#m8e8710c5f8" x="73.484112" y="265.838122" style="fill: #ff7f0e; stroke: #ff7f0e"/>
     <use xlink:href="#m8e8710c5f8" x="72.705658" y="255.744158" style="fill: #ff7f0e; stroke: #ff7f0e"/>
     <use xlink:href="#m8e8710c5f8" x="72.86985" y="245.604222" style="fill: #ff7f0e; stroke: #ff7f0e"/>
     <use xlink:href="#m8e8710c5f8" x="73.973909" y="235.559237" style="fill: #ff7f0e; stroke: #ff7f0e"/>
     <use xlink:href="#m8e8710c5f8" x="75.999135" y="225.749122" style="fill: #ff7f0e; stroke: #ff7f0e"/>
     <use xlink:href="#m8e8710c5f8" x="78.911187" y="216.311343" style="fill: #ff7f0e; stroke: #ff7f0e"/>
     <use xlink:href="#m8e8710c5f8" x="82.660614" y="207.379517" style="fill: #ff7f0e; stroke: #ff7f0e"/>
     <use xlink:href="#m8e8710c5f8" x="87.183611" y="199.082137" style="fill: #ff7f0e; stroke: #ff7f0e"/>
     <use xlink:href="#m8e8710c5f8" x="92.403034" y="191.541439" style="fill: #ff7f0e; stroke: #ff7f0e"/>
     <use xlink:href="#m8e8710c5f8" x="98.229661" y="184.872474" style="fill: #ff7f0e; stroke: #ff7f0e"/>
     <use xlink:href="#m8e8710c5f8" x="104.56372" y="179.182413" style="fill: #ff7f0e; stroke: #ff7f0e"/>
     <use xlink:href="#m8e8710c5f8" x="111.296706" y="174.570152" style="fill: #ff7f0e; stroke: #ff7f0e"/>
     <use xlink:href="#m8e8710c5f8" x="118.313528" y="171.126253" style="fill: #ff7f0e; stroke: #ff7f0e"/>
     <use xlink:href="#m8e8710c5f8" x="125.495067" y="168.933287" style="fill: #ff7f0e; stroke: #ff7f0e"/>
     <use xlink:href="#m8e8710c5f8" x="132.721233" y="168.066618" style="fill: #ff7f0e; stroke: #ff7f0e"/>
     <use xlink:href="#m8e8710c5f8" x="139.874722" y="168.595671" style="fill: #ff7f0e; stroke: #ff7f0e"/>
     <use xlink:href="#m8e8710c5f8" x="146.845724" y="170.585694" style="fill: #ff7f0e; stroke: #ff7f0e"/>
     <use xlink:href="#m8e8710c5f8" x="153.537997" y="174.099921" style="fill: #ff7f0e; stroke: #ff7f0e"/>
     <use xlink:href="#m8e8710c5f8" x="159.87691" y="179.201896" style="fill: #ff7f0e; stroke: #ff7f0e"/>
     <use xlink:href="#m8e8710c5f8" x="165.820273" y="185.957354" style="fill: #ff7f0e; stroke: #ff7f0e"/>
     <use xlink:href="#m8e8710c5f8" x="171.373006" y="194.434321" style="fill: #ff7f0e; stroke: #ff7f0e"/>
     <use xlink:href="#m8e8710c5f8" x="176.606596" y="204.698805" style="fill: #ff7f0e; stroke: #ff7f0e"/>
     <use xlink:href="#m8e8710c5f8" x="181.68318" y="216.801178" style="fill: #ff7f0e; stroke: #ff7f0e"/>
     <use xlink:href="#m8e8710c5f8" x="186.880295" y="230.74534" style="fill: #ff7f0e; stroke: #ff7f0e"/>
     <use xlink:href="#m8e8710c5f8" x="192.602772" y="246.431247" style="fill: #ff7f0e; stroke: #ff7f0e"/>
     <use xlink:href="#m8e8710c5f8" x="199.351404" y="263.569442" style="fill: #ff7f0e; stroke: #ff7f0e"/>
     <use xlink:href="#m8e8710c5f8" x="207.605226" y="281.598934" style="fill: #ff7f0e; stroke: #ff7f0e"/>
     <use xlink:href="#m8e8710c5f8" x="217.607947" y="299.695243" style="fill: #ff7f0e; stroke: #ff7f0e"/>
     <use xlink:href="#m8e8710c5f8" x="229.164755" y="316.95764" style="fill: #ff7f0e; stroke: #ff7f0e"/>
     <use xlink:href="#m8e8710c5f8" x="241.639635" y="332.712627" style="fill: #ff7f0e; stroke: #ff7f0e"/>
     <use xlink:href="#m8e8710c5f8" x="254.193898" y="346.70447" style="fill: #ff7f0e; stroke: #ff7f0e"/>
     <use xlink:href="#m8e8710c5f8" x="266.068382" y="359.045732" style="fill: #ff7f0e; stroke: #ff7f0e"/>
     <use xlink:href="#m8e8710c5f8" x="276.726513" y="370.035734" style="fill: #ff7f0e; stroke: #ff7f0e"/>
     <use xlink:href="#m8e8710c5f8" x="285.855855" y="380.000874" style="fill: #ff7f0e; stroke: #ff7f0e"/>
     <use xlink:href="#m8e8710c5f8" x="293.309738" y="389.211105" style="fill: #ff7f0e; stroke: #ff7f0e"/>
     <use xlink:href="#m8e8710c5f8" x="299.046956" y="397.855204" style="fill: #ff7f0e; stroke: #ff7f0e"/>
     <use xlink:href="#m8e8710c5f8" x="303.088567" y="406.045318" style="fill: #ff7f0e; stroke: #ff7f0e"/>
     <use xlink:href="#m8e8710c5f8" x="305.491534" y="413.831577" style="fill: #ff7f0e; stroke: #ff7f0e"/>
     <use xlink:href="#m8e8710c5f8" x="306.334041" y="421.217876" style="fill: #ff7f0e; stroke: #ff7f0e"/>
     <use xlink:href="#m8e8710c5f8" x="305.707822" y="428.175646" style="fill: #ff7f0e; stroke: #ff7f0e"/>
     <use xlink:href="#m8e8710c5f8" x="303.714344" y="434.65498" style="fill: #ff7f0e; stroke: #ff7f0e"/>
     <use xlink:href="#m8e8710c5f8" x="300.462979" y="440.593341" style="fill: #ff7f0e; stroke: #ff7f0e"/>
     <use xlink:href="#m8e8710c5f8" x="296.070078" y="445.922327" style="fill: #ff7f0e; stroke: #ff7f0e"/>
     <use xlink:href="#m8e8710c5f8" x="290.658392" y="450.572943" style="fill: #ff7f0e; stroke: #ff7f0e"/>
     <use xlink:href="#m8e8710c5f8" x="284.356537" y="454.479719" style="fill: #ff7f0e; stroke: #ff7f0e"/>
     <use xlink:href="#m8e8710c5f8" x="277.298363" y="457.58395" style="fill: #ff7f0e; stroke: #ff7f0e"/>
     <use xlink:href="#m8e8710c5f8" x="269.622156" y="459.836237" style="fill: #ff7f0e; stroke: #ff7f0e"/>
     <use xlink:href="#m8e8710c5f8" x="261.46969" y="461.198463" style="fill: #ff7f0e; stroke: #ff7f0e"/>
     <use xlink:href="#m8e8710c5f8" x="252.985112" y="461.645302" style="fill: #ff7f0e; stroke: #ff7f0e"/>
     <use xlink:href="#m8e8710c5f8" x="244.313712" y="461.165324" style="fill: #ff7f0e; stroke: #ff7f0e"/>
     <use xlink:href="#m8e8710c5f8" x="235.600593" y="459.761735" style="fill: #ff7f0e; stroke: #ff7f0e"/>
     <use xlink:href="#m8e8710c5f8" x="226.989293" y="457.452801" style="fill: #ff7f0e; stroke: #ff7f0e"/>
     <use xlink:href="#m8e8710c5f8" x="218.620389" y="454.271965" style="fill: #ff7f0e; stroke: #ff7f0e"/>
     <use xlink:href="#m8e8710c5f8" x="210.630137" y="450.267695" style="fill: #ff7f0e; stroke: #ff7f0e"/>
     <use xlink:href="#m8e8710c5f8" x="203.149166" y="445.503064" style="fill: #ff7f0e; stroke: #ff7f0e"/>
     <use xlink:href="#m8e8710c5f8" x="196.301308" y="440.055084" style="fill: #ff7f0e; stroke: #ff7f0e"/>
     <use xlink:href="#m8e8710c5f8" x="190.202564" y="434.013814" style="fill: #ff7f0e; stroke: #ff7f0e"/>
     <use xlink:href="#m8e8710c5f8" x="184.960302" y="427.481223" style="fill: #ff7f0e; stroke: #ff7f0e"/>
     <use xlink:href="#m8e8710c5f8" x="180.672701" y="420.569843" style="fill: #ff7f0e; stroke: #ff7f0e"/>
     <use xlink:href="#m8e8710c5f8" x="177.428533" y="413.401181" style="fill: #ff7f0e; stroke: #ff7f0e"/>
     <use xlink:href="#m8e8710c5f8" x="175.307332" y="406.10388" style="fill: #ff7f0e; stroke: #ff7f0e"/>
     <use xlink:href="#m8e8710c5f8" x="174.380043" y="398.811587" style="fill: #ff7f0e; stroke: #ff7f0e"/>
     <use xlink:href="#m8e8710c5f8" x="174.71025" y="391.660432" style="fill: #ff7f0e; stroke: #ff7f0e"/>
     <use xlink:href="#m8e8710c5f8" x="176.356101" y="384.785995" style="fill: #ff7f0e; stroke: #ff7f0e"/>
     <use xlink:href="#m8e8710c5f8" x="179.373057" y="378.319497" style="fill: #ff7f0e; stroke: #ff7f0e"/>
     <use xlink:href="#m8e8710c5f8" x="183.817614" y="372.382826" style="fill: #ff7f0e; stroke: #ff7f0e"/>
     <use xlink:href="#m8e8710c5f8" x="189.752087" y="367.081703" style="fill: #ff7f0e; stroke: #ff7f0e"/>
     <use xlink:href="#m8e8710c5f8" x="197.250406" y="362.495934" style="fill: #ff7f0e; stroke: #ff7f0e"/>
     <use xlink:href="#m8e8710c5f8" x="206.404419" y="358.66496" style="fill: #ff7f0e; stroke: #ff7f0e"/>
     <use xlink:href="#m8e8710c5f8" x="217.329117" y="355.56613" style="fill: #ff7f0e; stroke: #ff7f0e"/>
     <use xlink:href="#m8e8710c5f8" x="230.162665" y="353.082172" style="fill: #ff7f0e; stroke: #ff7f0e"/>
     <use xlink:href="#m8e8710c5f8" x="245.051793" y="350.954861" style="fill: #ff7f0e; stroke: #ff7f0e"/>
     <use xlink:href="#m8e8710c5f8" x="262.103597" y="348.728029" style="fill: #ff7f0e; stroke: #ff7f0e"/>
     <use xlink:href="#m8e8710c5f8" x="281.274659" y="345.705617" style="fill: #ff7f0e; stroke: #ff7f0e"/>
     <use xlink:href="#m8e8710c5f8" x="302.182119" y="341.002038" style="fill: #ff7f0e; stroke: #ff7f0e"/>
     <use xlink:href="#m8e8710c5f8" x="323.919986" y="333.808914" style="fill: #ff7f0e; stroke: #ff7f0e"/>
     <use xlink:href="#m8e8710c5f8" x="345.139299" y="323.875616" style="fill: #ff7f0e; stroke: #ff7f0e"/>
     <use xlink:href="#m8e8710c5f8" x="364.564997" y="311.819368" style="fill: #ff7f0e; stroke: #ff7f0e"/>
     <use xlink:href="#m8e8710c5f8" x="381.561674" y="298.848592" style="fill: #ff7f0e; stroke: #ff7f0e"/>
     <use xlink:href="#m8e8710c5f8" x="396.207884" y="286.169746" style="fill: #ff7f0e; stroke: #ff7f0e"/>
     <use xlink:href="#m8e8710c5f8" x="408.975546" y="274.635138" style="fill: #ff7f0e; stroke: #ff7f0e"/>
     <use xlink:href="#m8e8710c5f8" x="420.417627" y="264.726706" style="fill: #ff7f0e; stroke: #ff7f0e"/>
     <use xlink:href="#m8e8710c5f8" x="431.021021" y="256.678153" style="fill: #ff7f0e; stroke: #ff7f0e"/>
     <use xlink:href="#m8e8710c5f8" x="441.182063" y="250.599856" style="fill: #ff7f0e; stroke: #ff7f0e"/>
     <use xlink:href="#m8e8710c5f8" x="451.24579" y="246.580159" style="fill: #ff7f0e; stroke: #ff7f0e"/>
     <use xlink:href="#m8e8710c5f8" x="461.608864" y="244.805068" style="fill: #ff7f0e; stroke: #ff7f0e"/>
     <use xlink:href="#m8e8710c5f8" x="473.107324" y="245.967415" style="fill: #ff7f0e; stroke: #ff7f0e"/>
    </g>
   </g>
   <g id="patch_3">
    <path d="M 52.160938 482.592098 
L 52.160938 22.318125 
" style="fill: none; stroke: #000000; stroke-width: 0.8; stroke-linejoin: miter; stroke-linecap: square"/>
   </g>
   <g id="patch_4">
    <path d="M 503.334729 482.592098 
L 503.334729 22.318125 
" style="fill: none; stroke: #000000; stroke-width: 0.8; stroke-linejoin: miter; stroke-linecap: square"/>
   </g>
   <g id="patch_5">
    <path d="M 52.160938 482.592098 
L 503.334729 482.592098 
" style="fill: none; stroke: #000000; stroke-width: 0.8; stroke-linejoin: miter; stroke-linecap: square"/>
   </g>
   <g id="patch_6">
    <path d="M 52.160938 22.318125 
L 503.334729 22.318125 
" style="fill: none; stroke: #000000; stroke-width: 0.8; stroke-linejoin: miter; stroke-linecap: square"/>
   </g>
   <g id="text_13">
    <!-- Arenstorf Orbit - DoPri8 -->
    <g transform="translate(207.431583 16.318125) scale(0.12 -0.12)">
     <defs>
      <path id="DejaVuSans-41" d="M 2188 4044 
L 1331 1722 
L 3047 1722 
L 2188 4044 
z
M 1831 4666 
L 2547 4666 
L 4325 0 
L 3669 0 
L 3244 1197 
L 1141 1197 
L 716 0 
L 50 0 
L 1831 4666 
z
" transform="scale(0.015625)"/>
      <path id="DejaVuSans-72" d="M 2631 2963 
Q 2534 3019 2420 3045 
Q 2306 3072 2169 3072 
Q 1681 3072 1420 2755 
Q 1159 2438 1159 1844 
L 1159 0 
L 581 0 
L 581 3500 
L 1159 3500 
L 1159 2956 
Q 1341 3275 1631 3429 
Q 1922 3584 2338 3584 
Q 2397 3584 2469 3576 
Q 2541 3569 2628 3553 
L 2631 2963 
z
" transform="scale(0.015625)"/>
      <path id="DejaVuSans-65" d="M 3597 1894 
L 3597 1613 
L 953 1613 
Q 991 1019 1311 708 
Q 1631 397 2203 397 
Q 2534 397 2845 478 
Q 3156 559 3463 722 
L 3463 178 
Q 3153 47 2828 -22 
Q 2503 -91 2169 -91 
Q 1331 -91 842 396 
Q 353 884 353 1716 
Q 353 2575 817 3079 
Q 1281 3584 2069 3584 
Q 2775 3584 3186 3129 
Q 3597 2675 3597 1894 
z
M 3022 2063 
Q 3016 2534 2758 2815 
Q 2500 3097 2075 3097 
Q 1594 3097 1305 2825 
Q 1016 2553 972 2059 
L 3022 2063 
z
" transform="scale(0.015625)"/>
      <path id="DejaVuSans-6e" d="M 3513 2113 
L 3513 0 
L 2938 0 
L 2938 2094 
Q 2938 2591 2744 2837 
Q 2550 3084 2163 3084 
Q 1697 3084 1428 2787 
Q 1159 2491 1159 1978 
L 1159 0 
L 581 0 
L 581 3500 
L 1159 3500 
L 1159 2956 
Q 1366 3272 1645 3428 
Q 1925 3584 2291 3584 
Q 2894 3584 3203 3211 
Q 3513 2838 3513 2113 
z
" transform="scale(0.015625)"/>
      <path id="DejaVuSans-73" d="M 2834 3397 
L 2834 2853 
Q 2591 2978 2328 3040 
Q 2066 3103 1784 3103 
Q 1356 3103 1142 2972 
Q 928 2841 928 2578 
Q 928 2378 1081 2264 
Q 1234 2150 1697 2047 
L 1894 2003 
Q 2506 1872 2764 1633 
Q 3022 1394 3022 966 
Q 3022 478 2636 193 
Q 2250 -91 1575 -91 
Q 1294 -91 989 -36 
Q 684 19 347 128 
L 347 722 
Q 666 556 975 473 
Q 1284 391 1588 391 
Q 1994 391 2212 530 
Q 2431 669 2431 922 
Q 2431 1156 2273 1281 
Q 2116 1406 1581 1522 
L 1381 1569 
Q 847 1681 609 1914 
Q 372 2147 372 2553 
Q 372 3047 722 3315 
Q 1072 3584 1716 3584 
Q 2034 3584 2315 3537 
Q 2597 3491 2834 3397 
z
" transform="scale(0.015625)"/>
      <path id="DejaVuSans-74" d="M 1172 4494 
L 1172 3500 
L 2356 3500 
L 2356 3053 
L 1172 3053 
L 1172 1153 
Q 1172 725 1289 603 
Q 1406 481 1766 481 
L 2356 481 
L 2356 0 
L 1766 0 
Q 1100 0 847 248 
Q 594 497 594 1153 
L 594 3053 
L 172 3053 
L 172 3500 
L 594 3500 
L 594 4494 
L 1172 4494 
z
" transform="scale(0.015625)"/>
      <path id="DejaVuSans-6f" d="M 1959 3097 
Q 1497 3097 1228 2736 
Q 959 2375 959 1747 
Q 959 1119 1226 758 
Q 1494 397 1959 397 
Q 2419 397 2687 759 
Q 2956 1122 2956 1747 
Q 2956 2369 2687 2733 
Q 2419 3097 1959 3097 
z
M 1959 3584 
Q 2709 3584 3137 3096 
Q 3566 2609 3566 1747 
Q 3566 888 3137 398 
Q 2709 -91 1959 -91 
Q 1206 -91 779 398 
Q 353 888 353 1747 
Q 353 2609 779 3096 
Q 1206 3584 1959 3584 
z
" transform="scale(0.015625)"/>
      <path id="DejaVuSans-66" d="M 2375 4863 
L 2375 4384 
L 1825 4384 
Q 1516 4384 1395 4259 
Q 1275 4134 1275 3809 
L 1275 3500 
L 2222 3500 
L 2222 3053 
L 1275 3053 
L 1275 0 
L 697 0 
L 697 3053 
L 147 3053 
L 147 3500 
L 697 3500 
L 697 3744 
Q 697 4328 969 4595 
Q 1241 4863 1831 4863 
L 2375 4863 
z
" transform="scale(0.015625)"/>
      <path id="DejaVuSans-20" transform="scale(0.015625)"/>
      <path id="DejaVuSans-4f" d="M 2522 4238 
Q 1834 4238 1429 3725 
Q 1025 3213 1025 2328 
Q 1025 1447 1429 934 
Q 1834 422 2522 422 
Q 3209 422 3611 934 
Q 4013 1447 4013 2328 
Q 4013 3213 3611 3725 
Q 3209 4238 2522 4238 
z
M 2522 4750 
Q 3503 4750 4090 4092 
Q 4678 3434 4678 2328 
Q 4678 1225 4090 567 
Q 3503 -91 2522 -91 
Q 1538 -91 948 565 
Q 359 1222 359 2328 
Q 359 3434 948 4092 
Q 1538 4750 2522 4750 
z
" transform="scale(0.015625)"/>
      <path id="DejaVuSans-62" d="M 3116 1747 
Q 3116 2381 2855 2742 
Q 2594 3103 2138 3103 
Q 1681 3103 1420 2742 
Q 1159 2381 1159 1747 
Q 1159 1113 1420 752 
Q 1681 391 2138 391 
Q 2594 391 2855 752 
Q 3116 1113 3116 1747 
z
M 1159 2969 
Q 1341 3281 1617 3432 
Q 1894 3584 2278 3584 
Q 2916 3584 3314 3078 
Q 3713 2572 3713 1747 
Q 3713 922 3314 415 
Q 2916 -91 2278 -91 
Q 1894 -91 1617 61 
Q 1341 213 1159 525 
L 1159 0 
L 581 0 
L 581 4863 
L 1159 4863 
L 1159 2969 
z
" transform="scale(0.015625)"/>
      <path id="DejaVuSans-69" d="M 603 3500 
L 1178 3500 
L 1178 0 
L 603 0 
L 603 3500 
z
M 603 4863 
L 1178 4863 
L 1178 4134 
L 603 4134 
L 603 4863 
z
" transform="scale(0.015625)"/>
      <path id="DejaVuSans-2d" d="M 313 2009 
L 1997 2009 
L 1997 1497 
L 313 1497 
L 313 2009 
z
" transform="scale(0.015625)"/>
      <path id="DejaVuSans-44" d="M 1259 4147 
L 1259 519 
L 2022 519 
Q 2988 519 3436 956 
Q 3884 1394 3884 2338 
Q 3884 3275 3436 3711 
Q 2988 4147 2022 4147 
L 1259 4147 
z
M 628 4666 
L 1925 4666 
Q 3281 4666 3915 4102 
Q 4550 3538 4550 2338 
Q 4550 1131 3912 565 
Q 3275 0 1925 0 
L 628 0 
L 628 4666 
z
" transform="scale(0.015625)"/>
      <path id="DejaVuSans-50" d="M 1259 4147 
L 1259 2394 
L 2053 2394 
Q 2494 2394 2734 2622 
Q 2975 2850 2975 3272 
Q 2975 3691 2734 3919 
Q 2494 4147 2053 4147 
L 1259 4147 
z
M 628 4666 
L 2053 4666 
Q 2838 4666 3239 4311 
Q 3641 3956 3641 3272 
Q 3641 2581 3239 2228 
Q 2838 1875 2053 1875 
L 1259 1875 
L 1259 0 
L 628 0 
L 628 4666 
z
" transform="scale(0.015625)"/>
      <path id="DejaVuSans-38" d="M 2034 2216 
Q 1584 2216 1326 1975 
Q 1069 1734 1069 1313 
Q 1069 891 1326 650 
Q 1584 409 2034 409 
Q 2484 409 2743 651 
Q 3003 894 3003 1313 
Q 3003 1734 2745 1975 
Q 2488 2216 2034 2216 
z
M 1403 2484 
Q 997 2584 770 2862 
Q 544 3141 544 3541 
Q 544 4100 942 4425 
Q 1341 4750 2034 4750 
Q 2731 4750 3128 4425 
Q 3525 4100 3525 3541 
Q 3525 3141 3298 2862 
Q 3072 2584 2669 2484 
Q 3125 2378 3379 2068 
Q 3634 1759 3634 1313 
Q 3634 634 3220 271 
Q 2806 -91 2034 -91 
Q 1263 -91 848 271 
Q 434 634 434 1313 
Q 434 1759 690 2068 
Q 947 2378 1403 2484 
z
M 1172 3481 
Q 1172 3119 1398 2916 
Q 1625 2713 2034 2713 
Q 2441 2713 2670 2916 
Q 2900 3119 2900 3481 
Q 2900 3844 2670 4047 
Q 2441 4250 2034 4250 
Q 1625 4250 1398 4047 
Q 1172 3844 1172 3481 
z
" transform="scale(0.015625)"/>
     </defs>
     <use xlink:href="#DejaVuSans-41"/>
     <use xlink:href="#DejaVuSans-72" x="68.408203"/>
     <use xlink:href="#DejaVuSans-65" x="107.271484"/>
     <use xlink:href="#DejaVuSans-6e" x="168.794922"/>
     <use xlink:href="#DejaVuSans-73" x="232.173828"/>
     <use xlink:href="#DejaVuSans-74" x="284.273438"/>
     <use xlink:href="#DejaVuSans-6f" x="323.482422"/>
     <use xlink:href="#DejaVuSans-72" x="384.664062"/>
     <use xlink:href="#DejaVuSans-66" x="425.777344"/>
     <use xlink:href="#DejaVuSans-20" x="460.982422"/>
     <use xlink:href="#DejaVuSans-4f" x="492.769531"/>
     <use xlink:href="#DejaVuSans-72" x="571.480469"/>
     <use xlink:href="#DejaVuSans-62" x="612.59375"/>
     <use xlink:href="#DejaVuSans-69" x="676.070312"/>
     <use xlink:href="#DejaVuSans-74" x="703.853516"/>
     <use xlink:href="#DejaVuSans-20" x="743.0625"/>
     <use xlink:href="#DejaVuSans-2d" x="774.849609"/>
     <use xlink:href="#DejaVuSans-20" x="810.933594"/>
     <use xlink:href="#DejaVuSans-44" x="842.720703"/>
     <use xlink:href="#DejaVuSans-6f" x="919.722656"/>
     <use xlink:href="#DejaVuSans-50" x="980.904297"/>
     <use xlink:href="#DejaVuSans-72" x="1039.457031"/>
     <use xlink:href="#DejaVuSans-69" x="1080.570312"/>
     <use xlink:href="#DejaVuSans-38" x="1108.353516"/>
    </g>
   </g>
   <g id="legend_1">
    <g id="patch_7">
     <path d="M 387.861292 59.674375 
L 496.334729 59.674375 
Q 498.334729 59.674375 498.334729 57.674375 
L 498.334729 29.318125 
Q 498.334729 27.318125 496.334729 27.318125 
L 387.861292 27.318125 
Q 385.861292 27.318125 385.861292 29.318125 
L 385.861292 57.674375 
Q 385.861292 59.674375 387.861292 59.674375 
z
" style="fill: #ffffff; opacity: 0.8; stroke: #cccccc; stroke-linejoin: miter"/>
    </g>
    <g id="line2d_23">
     <path d="M 389.861292 35.416562 
L 404.861292 35.416562 
L 419.861292 35.416562 
" style="fill: none; stroke: #1f77b4; stroke-width: 1.5; stroke-linecap: square"/>
    </g>
    <g id="text_14">
     <!-- russell -->
     <g transform="translate(427.861292 38.916562) scale(0.1 -0.1)">
      <defs>
       <path id="DejaVuSans-75" d="M 544 1381 
L 544 3500 
L 1119 3500 
L 1119 1403 
Q 1119 906 1312 657 
Q 1506 409 1894 409 
Q 2359 409 2629 706 
Q 2900 1003 2900 1516 
L 2900 3500 
L 3475 3500 
L 3475 0 
L 2900 0 
L 2900 538 
Q 2691 219 2414 64 
Q 2138 -91 1772 -91 
Q 1169 -91 856 284 
Q 544 659 544 1381 
z
M 1991 3584 
L 1991 3584 
z
" transform="scale(0.015625)"/>
       <path id="DejaVuSans-6c" d="M 603 4863 
L 1178 4863 
L 1178 0 
L 603 0 
L 603 4863 
z
" transform="scale(0.015625)"/>
      </defs>
      <use xlink:href="#DejaVuSans-72"/>
      <use xlink:href="#DejaVuSans-75" x="41.113281"/>
      <use xlink:href="#DejaVuSans-73" x="104.492188"/>
      <use xlink:href="#DejaVuSans-73" x="156.591797"/>
      <use xlink:href="#DejaVuSans-65" x="208.691406"/>
      <use xlink:href="#DejaVuSans-6c" x="270.214844"/>
      <use xlink:href="#DejaVuSans-6c" x="297.998047"/>
     </g>
    </g>
    <g id="line2d_24">
     <g>
      <use xlink:href="#m8e8710c5f8" x="404.861292" y="50.094687" style="fill: #ff7f0e; stroke: #ff7f0e"/>
     </g>
    </g>
    <g id="text_15">
     <!-- mathematica -->
     <g transform="translate(427.861292 53.594687) scale(0.1 -0.1)">
      <defs>
       <path id="DejaVuSans-6d" d="M 3328 2828 
Q 3544 3216 3844 3400 
Q 4144 3584 4550 3584 
Q 5097 3584 5394 3201 
Q 5691 2819 5691 2113 
L 5691 0 
L 5113 0 
L 5113 2094 
Q 5113 2597 4934 2840 
Q 4756 3084 4391 3084 
Q 3944 3084 3684 2787 
Q 3425 2491 3425 1978 
L 3425 0 
L 2847 0 
L 2847 2094 
Q 2847 2600 2669 2842 
Q 2491 3084 2119 3084 
Q 1678 3084 1418 2786 
Q 1159 2488 1159 1978 
L 1159 0 
L 581 0 
L 581 3500 
L 1159 3500 
L 1159 2956 
Q 1356 3278 1631 3431 
Q 1906 3584 2284 3584 
Q 2666 3584 2933 3390 
Q 3200 3197 3328 2828 
z
" transform="scale(0.015625)"/>
       <path id="DejaVuSans-61" d="M 2194 1759 
Q 1497 1759 1228 1600 
Q 959 1441 959 1056 
Q 959 750 1161 570 
Q 1363 391 1709 391 
Q 2188 391 2477 730 
Q 2766 1069 2766 1631 
L 2766 1759 
L 2194 1759 
z
M 3341 1997 
L 3341 0 
L 2766 0 
L 2766 531 
Q 2569 213 2275 61 
Q 1981 -91 1556 -91 
Q 1019 -91 701 211 
Q 384 513 384 1019 
Q 384 1609 779 1909 
Q 1175 2209 1959 2209 
L 2766 2209 
L 2766 2266 
Q 2766 2663 2505 2880 
Q 2244 3097 1772 3097 
Q 1472 3097 1187 3025 
Q 903 2953 641 2809 
L 641 3341 
Q 956 3463 1253 3523 
Q 1550 3584 1831 3584 
Q 2591 3584 2966 3190 
Q 3341 2797 3341 1997 
z
" transform="scale(0.015625)"/>
       <path id="DejaVuSans-68" d="M 3513 2113 
L 3513 0 
L 2938 0 
L 2938 2094 
Q 2938 2591 2744 2837 
Q 2550 3084 2163 3084 
Q 1697 3084 1428 2787 
Q 1159 2491 1159 1978 
L 1159 0 
L 581 0 
L 581 4863 
L 1159 4863 
L 1159 2956 
Q 1366 3272 1645 3428 
Q 1925 3584 2291 3584 
Q 2894 3584 3203 3211 
Q 3513 2838 3513 2113 
z
" transform="scale(0.015625)"/>
       <path id="DejaVuSans-63" d="M 3122 3366 
L 3122 2828 
Q 2878 2963 2633 3030 
Q 2388 3097 2138 3097 
Q 1578 3097 1268 2742 
Q 959 2388 959 1747 
Q 959 1106 1268 751 
Q 1578 397 2138 397 
Q 2388 397 2633 464 
Q 2878 531 3122 666 
L 3122 134 
Q 2881 22 2623 -34 
Q 2366 -91 2075 -91 
Q 1284 -91 818 406 
Q 353 903 353 1747 
Q 353 2603 823 3093 
Q 1294 3584 2113 3584 
Q 2378 3584 2631 3529 
Q 2884 3475 3122 3366 
z
" transform="scale(0.015625)"/>
      </defs>
      <use xlink:href="#DejaVuSans-6d"/>
      <use xlink:href="#DejaVuSans-61" x="97.412109"/>
      <use xlink:href="#DejaVuSans-74" x="158.691406"/>
      <use xlink:href="#DejaVuSans-68" x="197.900391"/>
      <use xlink:href="#DejaVuSans-65" x="261.279297"/>
      <use xlink:href="#DejaVuSans-6d" x="322.802734"/>
      <use xlink:href="#DejaVuSans-61" x="420.214844"/>
      <use xlink:href="#DejaVuSans-74" x="481.494141"/>
      <use xlink:href="#DejaVuSans-69" x="520.703125"/>
      <use xlink:href="#DejaVuSans-63" x="548.486328"/>
      <use xlink:href="#DejaVuSans-61" x="603.466797"/>
     </g>
    </g>
   </g>
  </g>
 </g>
 <defs>
  <clipPath id="pa4ced2f5fc">
   <rect x="52.160938" y="22.318125" width="451.173792" height="460.273973"/>
  </clipPath>
 </defs>
</svg>
