<?xml version="1.0" encoding="utf-8" standalone="no"?>
<!DOCTYPE svg PUBLIC "-//W3C//DTD SVG 1.1//EN"
  "http://www.w3.org/Graphics/SVG/1.1/DTD/svg11.dtd">
<svg xmlns:xlink="http://www.w3.org/1999/xlink" width="473.815174pt" height="484.352098pt" viewBox="0 0 473.815174 484.352098" xmlns="http://www.w3.org/2000/svg" version="1.1">
 <metadata>
  <rdf:RDF xmlns:dc="http://purl.org/dc/elements/1.1/" xmlns:cc="http://creativecommons.org/ns#" xmlns:rdf="http://www.w3.org/1999/02/22-rdf-syntax-ns#">
   <cc:Work>
    <dc:type rdf:resource="http://purl.org/dc/dcmitype/StillImage"/>
    <dc:date>2024-03-17T14:41:36.085505</dc:date>
    <dc:format>image/svg+xml</dc:format>
    <dc:creator>
     <cc:Agent>
      <dc:title>Matplotlib v3.6.3, https://matplotlib.org/</dc:title>
     </cc:Agent>
    </dc:creator>
   </cc:Work>
  </rdf:RDF>
 </metadata>
 <defs>
  <style type="text/css">*{stroke-linejoin: round; stroke-linecap: butt}</style>
 </defs>
 <g id="figure_1">
  <g id="patch_1">
   <path d="M 0 484.352098 
L 473.815174 484.352098 
L 473.815174 -0 
L 0 -0 
z
" style="fill: #ffffff"/>
  </g>
  <g id="axes_1">
   <g id="patch_2">
    <path d="M 30.103125 426.441311 
L 400.713337 426.441311 
L 400.713337 55.831099 
L 30.103125 55.831099 
z
" style="fill: #ffffff"/>
   </g>
   <g id="PathCollection_1">
    <path d="M 42.456799 426.441311 
L 54.810472 426.441311 
L 67.164146 426.441311 
L 79.51782 426.441311 
L 91.871494 426.441311 
L 104.225167 426.441311 
L 116.578841 426.441311 
L 128.932515 426.441311 
L 141.286189 426.441311 
L 153.639862 426.441311 
L 165.993536 426.441311 
L 178.34721 426.441311 
L 190.700883 426.441311 
L 203.054557 426.441311 
L 215.408231 426.441311 
L 227.761905 426.441311 
L 240.115578 426.441311 
L 252.469252 426.441311 
L 264.822926 426.441311 
L 277.176599 426.441311 
L 289.530273 426.441311 
L 301.883947 426.441311 
L 314.237621 426.441311 
L 326.591294 426.441311 
L 338.944968 426.441311 
L 351.298642 426.441311 
L 363.652316 426.441311 
L 376.005989 426.441311 
L 388.359663 426.441311 
L 400.713337 426.441311 
L 400.713337 414.087637 
L 400.713337 401.733963 
L 400.713337 389.38029 
L 400.713337 377.026616 
L 400.713337 364.672942 
L 400.713337 352.319269 
L 400.713337 339.965595 
L 400.713337 327.611921 
L 400.713337 315.258247 
L 400.713337 302.904574 
L 400.713337 290.5509 
L 400.713337 278.197226 
L 400.713337 265.843552 
L 400.713337 253.489879 
L 400.713337 241.136205 
L 400.713337 228.782531 
L 400.713337 216.428858 
L 400.713337 204.075184 
L 400.713337 191.72151 
L 400.713337 179.367836 
L 400.713337 167.014163 
L 400.713337 154.660489 
L 400.713337 142.306815 
L 400.713337 129.953142 
L 400.713337 117.599468 
L 400.713337 105.245794 
L 400.713337 92.89212 
L 400.713337 80.538447 
L 400.713337 68.184773 
L 400.713337 66.949406 
L 398.242602 68.184773 
L 396.62734 80.538447 
L 394.812845 92.89212 
L 392.916253 105.245794 
L 390.987157 117.599468 
L 389.040774 129.953142 
L 388.359663 134.685335 
L 387.023307 142.306815 
L 384.989108 154.660489 
L 382.947948 167.014163 
L 380.87678 179.367836 
L 378.753691 191.72151 
L 376.554573 204.075184 
L 376.005989 207.222125 
L 374.212869 216.428858 
L 371.731626 228.782531 
L 369.077348 241.136205 
L 366.191427 253.489879 
L 363.652316 263.484686 
L 362.989449 265.843552 
L 359.350395 278.197226 
L 355.187704 290.5509 
L 351.298642 300.606623 
L 350.308524 302.904574 
L 344.428482 315.258247 
L 338.944968 324.893744 
L 337.197583 327.611921 
L 327.999525 339.965595 
L 326.591294 341.601618 
L 315.873643 352.319269 
L 314.237621 353.727499 
L 301.883947 362.925557 
L 299.16577 364.672942 
L 289.530273 370.156456 
L 277.176599 376.036498 
L 274.878649 377.026616 
L 264.822926 380.915678 
L 252.469252 385.078369 
L 240.115578 388.717424 
L 237.756712 389.38029 
L 227.761905 391.919401 
L 215.408231 394.805323 
L 203.054557 397.4596 
L 190.700883 399.940843 
L 181.494151 401.733963 
L 178.34721 402.282548 
L 165.993536 404.481665 
L 153.639862 406.604754 
L 141.286189 408.675922 
L 128.932515 410.717083 
L 116.578841 412.751282 
L 108.957361 414.087637 
L 104.225167 414.768749 
L 91.871494 416.715132 
L 79.51782 418.644227 
L 67.164146 420.540819 
L 54.810472 422.355314 
L 42.456799 423.970576 
L 30.103125 425.205944 
L 30.103125 426.441311 
z
" clip-path="url(#pd58f6eff78)" style="fill: #1818ff"/>
   </g>
   <g id="PathCollection_2">
    <path d="M 42.456799 423.970576 
L 54.810472 422.355314 
L 67.164146 420.540819 
L 79.51782 418.644227 
L 91.871494 416.715132 
L 104.225167 414.768749 
L 108.957361 414.087637 
L 116.578841 412.751282 
L 128.932515 410.717083 
L 141.286189 408.675922 
L 153.639862 406.604754 
L 165.993536 404.481665 
L 178.34721 402.282548 
L 181.494151 401.733963 
L 190.700883 399.940843 
L 203.054557 397.4596 
L 215.408231 394.805323 
L 227.761905 391.919401 
L 237.756712 389.38029 
L 240.115578 388.717424 
L 252.469252 385.078369 
L 264.822926 380.915678 
L 274.878649 377.026616 
L 277.176599 376.036498 
L 289.530273 370.156456 
L 299.16577 364.672942 
L 301.883947 362.925557 
L 314.237621 353.727499 
L 315.873643 352.319269 
L 326.591294 341.601618 
L 327.999525 339.965595 
L 337.197583 327.611921 
L 338.944968 324.893744 
L 344.428482 315.258247 
L 350.308524 302.904574 
L 351.298642 300.606623 
L 355.187704 290.5509 
L 359.350395 278.197226 
L 362.989449 265.843552 
L 363.652316 263.484686 
L 366.191427 253.489879 
L 369.077348 241.136205 
L 371.731626 228.782531 
L 374.212869 216.428858 
L 376.005989 207.222125 
L 376.554573 204.075184 
L 378.753691 191.72151 
L 380.87678 179.367836 
L 382.947948 167.014163 
L 384.989108 154.660489 
L 387.023307 142.306815 
L 388.359663 134.685335 
L 389.040774 129.953142 
L 390.987157 117.599468 
L 392.916253 105.245794 
L 394.812845 92.89212 
L 396.62734 80.538447 
L 398.242602 68.184773 
L 400.713337 66.949406 
L 400.713337 65.714038 
L 395.771867 68.184773 
L 392.541342 80.538447 
L 388.912353 92.89212 
L 388.359663 95.164286 
L 384.664313 105.245794 
L 380.638129 117.599468 
L 376.713875 129.953142 
L 376.005989 132.456581 
L 372.545279 142.306815 
L 368.425733 154.660489 
L 364.33319 167.014163 
L 363.652316 169.219244 
L 360.011765 179.367836 
L 355.631931 191.72151 
L 351.298642 203.719834 
L 351.153021 204.075184 
L 346.329506 216.428858 
L 341.305522 228.782531 
L 338.944968 234.47678 
L 335.877163 241.136205 
L 329.972006 253.489879 
L 326.591294 260.189095 
L 323.444451 265.843552 
L 316.113926 278.197226 
L 314.237621 281.165575 
L 307.714124 290.5509 
L 301.883947 298.206616 
L 297.960189 302.904574 
L 289.530273 312.131776 
L 286.403802 315.258247 
L 277.176599 323.688164 
L 272.478642 327.611921 
L 264.822926 333.442098 
L 255.437601 339.965595 
L 252.469252 341.8419 
L 240.115578 349.172425 
L 234.461121 352.319269 
L 227.761905 355.699981 
L 215.408231 361.605137 
L 208.748806 364.672942 
L 203.054557 367.033497 
L 190.700883 372.05748 
L 178.34721 376.880995 
L 177.99186 377.026616 
L 165.993536 381.359905 
L 153.639862 385.739739 
L 143.49127 389.38029 
L 141.286189 390.061164 
L 128.932515 394.153707 
L 116.578841 398.273253 
L 106.728607 401.733963 
L 104.225167 402.441849 
L 91.871494 406.366104 
L 79.51782 410.392287 
L 69.436312 414.087637 
L 67.164146 414.640327 
L 54.810472 418.269317 
L 42.456799 421.499841 
L 30.103125 423.970576 
L 30.103125 425.205944 
z
" clip-path="url(#pd58f6eff78)" style="fill: #4c4cff"/>
   </g>
   <g id="PathCollection_3">
    <path d="M 42.456799 421.499841 
L 54.810472 418.269317 
L 67.164146 414.640327 
L 69.436312 414.087637 
L 79.51782 410.392287 
L 91.871494 406.366104 
L 104.225167 402.441849 
L 106.728607 401.733963 
L 116.578841 398.273253 
L 128.932515 394.153707 
L 141.286189 390.061164 
L 143.49127 389.38029 
L 153.639862 385.739739 
L 165.993536 381.359905 
L 177.99186 377.026616 
L 178.34721 376.880995 
L 190.700883 372.05748 
L 203.054557 367.033497 
L 208.748806 364.672942 
L 215.408231 361.605137 
L 227.761905 355.699981 
L 234.461121 352.319269 
L 240.115578 349.172425 
L 252.469252 341.8419 
L 255.437601 339.965595 
L 264.822926 333.442098 
L 272.478642 327.611921 
L 277.176599 323.688164 
L 286.403802 315.258247 
L 289.530273 312.131776 
L 297.960189 302.904574 
L 301.883947 298.206616 
L 307.714124 290.5509 
L 314.237621 281.165575 
L 316.113926 278.197226 
L 323.444451 265.843552 
L 326.591294 260.189095 
L 329.972006 253.489879 
L 335.877163 241.136205 
L 338.944968 234.47678 
L 341.305522 228.782531 
L 346.329506 216.428858 
L 351.153021 204.075184 
L 351.298642 203.719834 
L 355.631931 191.72151 
L 360.011765 179.367836 
L 363.652316 169.219244 
L 364.33319 167.014163 
L 368.425733 154.660489 
L 372.545279 142.306815 
L 376.005989 132.456581 
L 376.713875 129.953142 
L 380.638129 117.599468 
L 384.664313 105.245794 
L 388.359663 95.164286 
L 388.912353 92.89212 
L 392.541342 80.538447 
L 395.771867 68.184773 
L 400.713337 65.714038 
L 400.713337 64.478671 
L 393.301132 68.184773 
L 388.455345 80.538447 
L 388.359663 80.849593 
L 381.667946 92.89212 
L 376.005989 104.837246 
L 375.719813 105.245794 
L 369.146007 117.599468 
L 363.652316 128.898389 
L 362.993266 129.953142 
L 356.469642 142.306815 
L 351.298642 152.72426 
L 350.143012 154.660489 
L 343.536133 167.014163 
L 338.944968 175.978683 
L 336.937959 179.367836 
L 330.083545 191.72151 
L 326.591294 198.198764 
L 323.021427 204.075184 
L 315.678645 216.428858 
L 314.237621 218.896754 
L 307.851868 228.782531 
L 301.883947 237.906811 
L 299.572968 241.136205 
L 290.619973 253.489879 
L 289.530273 254.961071 
L 280.813402 265.843552 
L 277.176599 270.194838 
L 270.011005 278.197226 
L 264.822926 283.704371 
L 257.976397 290.5509 
L 252.469252 295.73898 
L 244.466864 302.904574 
L 240.115578 306.541377 
L 229.233097 315.258247 
L 227.761905 316.347947 
L 215.408231 325.300942 
L 212.178837 327.611921 
L 203.054557 333.579842 
L 193.168779 339.965595 
L 190.700883 341.406619 
L 178.34721 348.749401 
L 172.47079 352.319269 
L 165.993536 355.81152 
L 153.639862 362.665933 
L 150.250708 364.672942 
L 141.286189 369.264107 
L 128.932515 375.870986 
L 126.996286 377.026616 
L 116.578841 382.197616 
L 104.225167 388.72124 
L 103.170415 389.38029 
L 91.871494 394.873981 
L 79.51782 401.447787 
L 79.109272 401.733963 
L 67.164146 407.395921 
L 55.121618 414.087637 
L 54.810472 414.183319 
L 42.456799 419.029107 
L 30.103125 422.735209 
L 30.103125 423.970576 
z
" clip-path="url(#pd58f6eff78)" style="fill: #8080ff"/>
   </g>
   <g id="PathCollection_4">
    <path d="M 42.456799 419.029107 
L 54.810472 414.183319 
L 55.121618 414.087637 
L 67.164146 407.395921 
L 79.109272 401.733963 
L 79.51782 401.447787 
L 91.871494 394.873981 
L 103.170415 389.38029 
L 104.225167 388.72124 
L 116.578841 382.197616 
L 126.996286 377.026616 
L 128.932515 375.870986 
L 141.286189 369.264107 
L 150.250708 364.672942 
L 153.639862 362.665933 
L 165.993536 355.81152 
L 172.47079 352.319269 
L 178.34721 348.749401 
L 190.700883 341.406619 
L 193.168779 339.965595 
L 203.054557 333.579842 
L 212.178837 327.611921 
L 215.408231 325.300942 
L 227.761905 316.347947 
L 229.233097 315.258247 
L 240.115578 306.541377 
L 244.466864 302.904574 
L 252.469252 295.73898 
L 257.976397 290.5509 
L 264.822926 283.704371 
L 270.011005 278.197226 
L 277.176599 270.194838 
L 280.813402 265.843552 
L 289.530273 254.961071 
L 290.619973 253.489879 
L 299.572968 241.136205 
L 301.883947 237.906811 
L 307.851868 228.782531 
L 314.237621 218.896754 
L 315.678645 216.428858 
L 323.021427 204.075184 
L 326.591294 198.198764 
L 330.083545 191.72151 
L 336.937959 179.367836 
L 338.944968 175.978683 
L 343.536133 167.014163 
L 350.143012 154.660489 
L 351.298642 152.72426 
L 356.469642 142.306815 
L 362.993266 129.953142 
L 363.652316 128.898389 
L 369.146007 117.599468 
L 375.719813 105.245794 
L 376.005989 104.837246 
L 381.667946 92.89212 
L 388.359663 80.849593 
L 388.455345 80.538447 
L 393.301132 68.184773 
L 400.713337 64.478671 
L 400.713337 63.243303 
L 390.830398 68.184773 
L 388.359663 74.434788 
L 382.256005 80.538447 
L 376.005989 90.55651 
L 373.670379 92.89212 
L 364.808798 105.245794 
L 363.652316 107.242443 
L 355.650195 117.599468 
L 351.298642 124.275562 
L 346.658628 129.953142 
L 338.944968 140.88561 
L 337.739107 142.306815 
L 328.577389 154.660489 
L 326.591294 157.618608 
L 319.296426 167.014163 
L 314.237621 174.086313 
L 309.960692 179.367836 
L 301.883947 190.054303 
L 300.483297 191.72151 
L 290.699935 204.075184 
L 289.530273 205.613419 
L 280.565598 216.428858 
L 277.176599 220.616798 
L 270.076242 228.782531 
L 264.822926 234.890561 
L 259.131294 241.136205 
L 252.469252 248.428165 
L 247.636928 253.489879 
L 240.115578 261.241113 
L 235.513139 265.843552 
L 227.761905 273.364902 
L 222.70019 278.197226 
L 215.408231 284.859269 
L 209.162587 290.5509 
L 203.054557 295.804217 
L 194.888823 302.904574 
L 190.700883 306.293572 
L 179.885445 315.258247 
L 178.34721 316.42791 
L 165.993536 326.211271 
L 164.326329 327.611921 
L 153.639862 335.688666 
L 148.358339 339.965595 
L 141.286189 345.0244 
L 131.890634 352.319269 
L 128.932515 354.305363 
L 116.578841 363.467081 
L 115.157636 364.672942 
L 104.225167 372.386603 
L 98.547588 377.026616 
L 91.871494 381.378169 
L 81.514469 389.38029 
L 79.51782 390.536772 
L 67.164146 399.398353 
L 64.828536 401.733963 
L 54.810472 407.983979 
L 48.706814 414.087637 
L 42.456799 416.558372 
L 30.103125 421.499841 
L 30.103125 422.735209 
z
" clip-path="url(#pd58f6eff78)" style="fill: #b2b2ff"/>
   </g>
   <g id="PathCollection_5">
    <path d="M 42.456799 416.558372 
L 48.706814 414.087637 
L 54.810472 407.983979 
L 64.828536 401.733963 
L 67.164146 399.398353 
L 79.51782 390.536772 
L 81.514469 389.38029 
L 91.871494 381.378169 
L 98.547588 377.026616 
L 104.225167 372.386603 
L 115.157636 364.672942 
L 116.578841 363.467081 
L 128.932515 354.305363 
L 131.890634 352.319269 
L 141.286189 345.0244 
L 148.358339 339.965595 
L 153.639862 335.688666 
L 164.326329 327.611921 
L 165.993536 326.211271 
L 178.34721 316.42791 
L 179.885445 315.258247 
L 190.700883 306.293572 
L 194.888823 302.904574 
L 203.054557 295.804217 
L 209.162587 290.5509 
L 215.408231 284.859269 
L 222.70019 278.197226 
L 227.761905 273.364902 
L 235.513139 265.843552 
L 240.115578 261.241113 
L 247.636928 253.489879 
L 252.469252 248.428165 
L 259.131294 241.136205 
L 264.822926 234.890561 
L 270.076242 228.782531 
L 277.176599 220.616798 
L 280.565598 216.428858 
L 289.530273 205.613419 
L 290.699935 204.075184 
L 300.483297 191.72151 
L 301.883947 190.054303 
L 309.960692 179.367836 
L 314.237621 174.086313 
L 319.296426 167.014163 
L 326.591294 157.618608 
L 328.577389 154.660489 
L 337.739107 142.306815 
L 338.944968 140.88561 
L 346.658628 129.953142 
L 351.298642 124.275562 
L 355.650195 117.599468 
L 363.652316 107.242443 
L 364.808798 105.245794 
L 373.670379 92.89212 
L 376.005989 90.55651 
L 382.256005 80.538447 
L 388.359663 74.434788 
L 390.830398 68.184773 
L 400.713337 63.243303 
L 400.713337 62.007936 
L 388.359663 68.184773 
L 388.359663 68.184773 
L 376.005989 80.538447 
L 376.005989 80.538447 
L 363.652316 92.89212 
L 363.652316 92.89212 
L 351.298642 105.245794 
L 351.298642 105.245794 
L 338.944968 117.599468 
L 338.944968 117.599468 
L 326.591294 129.953142 
L 326.591294 129.953142 
L 314.237621 142.306815 
L 314.237621 142.306815 
L 301.883947 154.660489 
L 301.883947 154.660489 
L 289.530273 167.014163 
L 289.530273 167.014163 
L 277.176599 179.367836 
L 277.176599 179.367836 
L 264.822926 191.72151 
L 264.822926 191.72151 
L 252.469252 204.075184 
L 252.469252 204.075184 
L 240.115578 216.428858 
L 240.115578 216.428858 
L 227.761905 228.782531 
L 227.761905 228.782531 
L 215.408231 241.136205 
L 215.408231 241.136205 
L 203.054557 253.489879 
L 203.054557 253.489879 
L 190.700883 265.843552 
L 190.700883 265.843552 
L 178.34721 278.197226 
L 178.34721 278.197226 
L 165.993536 290.5509 
L 165.993536 290.5509 
L 153.639862 302.904574 
L 153.639862 302.904574 
L 141.286189 315.258247 
L 141.286189 315.258247 
L 128.932515 327.611921 
L 128.932515 327.611921 
L 116.578841 339.965595 
L 116.578841 339.965595 
L 104.225167 352.319269 
L 104.225167 352.319269 
L 91.871494 364.672942 
L 91.871494 364.672942 
L 79.51782 377.026616 
L 79.51782 377.026616 
L 67.164146 389.38029 
L 67.164146 389.38029 
L 54.810472 401.733963 
L 54.810472 401.733963 
L 42.456799 414.087637 
L 42.456799 414.087637 
L 30.103125 420.264474 
L 30.103125 421.499841 
z
" clip-path="url(#pd58f6eff78)" style="fill: #e6e6ff"/>
   </g>
   <g id="PathCollection_6">
    <path d="M 42.456799 414.087637 
L 42.456799 414.087637 
L 54.810472 401.733963 
L 54.810472 401.733963 
L 67.164146 389.38029 
L 67.164146 389.38029 
L 79.51782 377.026616 
L 79.51782 377.026616 
L 91.871494 364.672942 
L 91.871494 364.672942 
L 104.225167 352.319269 
L 104.225167 352.319269 
L 116.578841 339.965595 
L 116.578841 339.965595 
L 128.932515 327.611921 
L 128.932515 327.611921 
L 141.286189 315.258247 
L 141.286189 315.258247 
L 153.639862 302.904574 
L 153.639862 302.904574 
L 165.993536 290.5509 
L 165.993536 290.5509 
L 178.34721 278.197226 
L 178.34721 278.197226 
L 190.700883 265.843552 
L 190.700883 265.843552 
L 203.054557 253.489879 
L 203.054557 253.489879 
L 215.408231 241.136205 
L 215.408231 241.136205 
L 227.761905 228.782531 
L 227.761905 228.782531 
L 240.115578 216.428858 
L 240.115578 216.428858 
L 252.469252 204.075184 
L 252.469252 204.075184 
L 264.822926 191.72151 
L 264.822926 191.72151 
L 277.176599 179.367836 
L 277.176599 179.367836 
L 289.530273 167.014163 
L 289.530273 167.014163 
L 301.883947 154.660489 
L 301.883947 154.660489 
L 314.237621 142.306815 
L 314.237621 142.306815 
L 326.591294 129.953142 
L 326.591294 129.953142 
L 338.944968 117.599468 
L 338.944968 117.599468 
L 351.298642 105.245794 
L 351.298642 105.245794 
L 363.652316 92.89212 
L 363.652316 92.89212 
L 376.005989 80.538447 
L 376.005989 80.538447 
L 388.359663 68.184773 
L 388.359663 68.184773 
L 400.713337 62.007936 
L 400.713337 60.772569 
L 388.359663 65.714038 
L 382.109647 68.184773 
L 376.005989 74.288431 
L 365.987926 80.538447 
L 363.652316 82.874057 
L 351.298642 91.735638 
L 349.301993 92.89212 
L 338.944968 100.894241 
L 332.268874 105.245794 
L 326.591294 109.885807 
L 315.658826 117.599468 
L 314.237621 118.805329 
L 301.883947 127.967047 
L 298.925828 129.953142 
L 289.530273 137.24801 
L 282.458123 142.306815 
L 277.176599 146.583744 
L 266.490133 154.660489 
L 264.822926 156.061139 
L 252.469252 165.844501 
L 250.931016 167.014163 
L 240.115578 175.978838 
L 235.927638 179.367836 
L 227.761905 186.468194 
L 221.653875 191.72151 
L 215.408231 197.413141 
L 208.116271 204.075184 
L 203.054557 208.907508 
L 195.303323 216.428858 
L 190.700883 221.031297 
L 183.179534 228.782531 
L 178.34721 233.844245 
L 171.685167 241.136205 
L 165.993536 247.381849 
L 160.740219 253.489879 
L 153.639862 261.655613 
L 150.250864 265.843552 
L 141.286189 276.658991 
L 140.116526 278.197226 
L 130.333165 290.5509 
L 128.932515 292.218107 
L 120.85577 302.904574 
L 116.578841 308.186097 
L 111.520036 315.258247 
L 104.225167 324.653802 
L 102.239073 327.611921 
L 93.077355 339.965595 
L 91.871494 341.3868 
L 84.157833 352.319269 
L 79.51782 357.996848 
L 75.166267 364.672942 
L 67.164146 375.029967 
L 66.007664 377.026616 
L 57.146083 389.38029 
L 54.810472 391.7159 
L 48.560457 401.733963 
L 42.456799 407.837622 
L 39.986064 414.087637 
L 30.103125 419.029107 
L 30.103125 420.264474 
z
" clip-path="url(#pd58f6eff78)" style="fill: #ffe6e6"/>
   </g>
   <g id="PathCollection_7">
    <path d="M 39.986064 414.087637 
L 42.456799 407.837622 
L 48.560457 401.733963 
L 54.810472 391.7159 
L 57.146083 389.38029 
L 66.007664 377.026616 
L 67.164146 375.029967 
L 75.166267 364.672942 
L 79.51782 357.996848 
L 84.157833 352.319269 
L 91.871494 341.3868 
L 93.077355 339.965595 
L 102.239073 327.611921 
L 104.225167 324.653802 
L 111.520036 315.258247 
L 116.578841 308.186097 
L 120.85577 302.904574 
L 128.932515 292.218107 
L 130.333165 290.5509 
L 140.116526 278.197226 
L 141.286189 276.658991 
L 150.250864 265.843552 
L 153.639862 261.655613 
L 160.740219 253.489879 
L 165.993536 247.381849 
L 171.685167 241.136205 
L 178.34721 233.844245 
L 183.179534 228.782531 
L 190.700883 221.031297 
L 195.303323 216.428858 
L 203.054557 208.907508 
L 208.116271 204.075184 
L 215.408231 197.413141 
L 221.653875 191.72151 
L 227.761905 186.468194 
L 235.927638 179.367836 
L 240.115578 175.978838 
L 250.931016 167.014163 
L 252.469252 165.844501 
L 264.822926 156.061139 
L 266.490133 154.660489 
L 277.176599 146.583744 
L 282.458123 142.306815 
L 289.530273 137.24801 
L 298.925828 129.953142 
L 301.883947 127.967047 
L 314.237621 118.805329 
L 315.658826 117.599468 
L 326.591294 109.885807 
L 332.268874 105.245794 
L 338.944968 100.894241 
L 349.301993 92.89212 
L 351.298642 91.735638 
L 363.652316 82.874057 
L 365.987926 80.538447 
L 376.005989 74.288431 
L 382.109647 68.184773 
L 388.359663 65.714038 
L 400.713337 60.772569 
L 400.713337 59.537201 
L 388.359663 63.243303 
L 376.005989 68.089091 
L 375.694843 68.184773 
L 363.652316 74.876489 
L 351.70719 80.538447 
L 351.298642 80.824623 
L 338.944968 87.398429 
L 327.646047 92.89212 
L 326.591294 93.55117 
L 314.237621 100.074794 
L 303.820176 105.245794 
L 301.883947 106.401424 
L 289.530273 113.008303 
L 280.565753 117.599468 
L 277.176599 119.606477 
L 264.822926 126.460891 
L 258.345672 129.953142 
L 252.469252 133.523009 
L 240.115578 140.865791 
L 237.647682 142.306815 
L 227.761905 148.692568 
L 218.637625 154.660489 
L 215.408231 156.971468 
L 203.054557 165.924463 
L 201.583365 167.014163 
L 190.700883 175.731034 
L 186.349598 179.367836 
L 178.34721 186.533431 
L 172.840065 191.72151 
L 165.993536 198.568039 
L 160.805456 204.075184 
L 153.639862 212.077572 
L 150.003059 216.428858 
L 141.286189 227.311339 
L 140.196489 228.782531 
L 131.243494 241.136205 
L 128.932515 244.365599 
L 122.964594 253.489879 
L 116.578841 263.375656 
L 115.137817 265.843552 
L 107.795035 278.197226 
L 104.225167 284.073646 
L 100.732916 290.5509 
L 93.878503 302.904574 
L 91.871494 306.293728 
L 87.280329 315.258247 
L 80.673449 327.611921 
L 79.51782 329.54815 
L 74.34682 339.965595 
L 67.823196 352.319269 
L 67.164146 353.374021 
L 61.670455 364.672942 
L 55.096649 377.026616 
L 54.810472 377.435164 
L 49.148515 389.38029 
L 42.456799 401.422818 
L 42.361116 401.733963 
L 37.515329 414.087637 
L 30.103125 417.793739 
L 30.103125 419.029107 
z
" clip-path="url(#pd58f6eff78)" style="fill: #ffb2b2"/>
   </g>
   <g id="PathCollection_8">
    <path d="M 37.515329 414.087637 
L 42.361116 401.733963 
L 42.456799 401.422818 
L 49.148515 389.38029 
L 54.810472 377.435164 
L 55.096649 377.026616 
L 61.670455 364.672942 
L 67.164146 353.374021 
L 67.823196 352.319269 
L 74.34682 339.965595 
L 79.51782 329.54815 
L 80.673449 327.611921 
L 87.280329 315.258247 
L 91.871494 306.293728 
L 93.878503 302.904574 
L 100.732916 290.5509 
L 104.225167 284.073646 
L 107.795035 278.197226 
L 115.137817 265.843552 
L 116.578841 263.375656 
L 122.964594 253.489879 
L 128.932515 244.365599 
L 131.243494 241.136205 
L 140.196489 228.782531 
L 141.286189 227.311339 
L 150.003059 216.428858 
L 153.639862 212.077572 
L 160.805456 204.075184 
L 165.993536 198.568039 
L 172.840065 191.72151 
L 178.34721 186.533431 
L 186.349598 179.367836 
L 190.700883 175.731034 
L 201.583365 167.014163 
L 203.054557 165.924463 
L 215.408231 156.971468 
L 218.637625 154.660489 
L 227.761905 148.692568 
L 237.647682 142.306815 
L 240.115578 140.865791 
L 252.469252 133.523009 
L 258.345672 129.953142 
L 264.822926 126.460891 
L 277.176599 119.606477 
L 280.565753 117.599468 
L 289.530273 113.008303 
L 301.883947 106.401424 
L 303.820176 105.245794 
L 314.237621 100.074794 
L 326.591294 93.55117 
L 327.646047 92.89212 
L 338.944968 87.398429 
L 351.298642 80.824623 
L 351.70719 80.538447 
L 363.652316 74.876489 
L 375.694843 68.184773 
L 376.005989 68.089091 
L 388.359663 63.243303 
L 400.713337 59.537201 
L 400.713337 58.301834 
L 388.359663 60.772569 
L 376.005989 64.003093 
L 363.652316 67.632083 
L 361.38015 68.184773 
L 351.298642 71.880123 
L 338.944968 75.906307 
L 326.591294 79.830561 
L 324.087855 80.538447 
L 314.237621 83.999157 
L 301.883947 88.118703 
L 289.530273 92.211246 
L 287.325192 92.89212 
L 277.176599 96.532671 
L 264.822926 100.912505 
L 252.824602 105.245794 
L 252.469252 105.391415 
L 240.115578 110.21493 
L 227.761905 115.238914 
L 222.067655 117.599468 
L 215.408231 120.667273 
L 203.054557 126.57243 
L 196.355341 129.953142 
L 190.700883 133.099985 
L 178.34721 140.43051 
L 175.378861 142.306815 
L 165.993536 148.830312 
L 158.33782 154.660489 
L 153.639862 158.584247 
L 144.41266 167.014163 
L 141.286189 170.140634 
L 132.856272 179.367836 
L 128.932515 184.065794 
L 123.102338 191.72151 
L 116.578841 201.106835 
L 114.702536 204.075184 
L 107.37201 216.428858 
L 104.225167 222.083315 
L 100.844455 228.782531 
L 94.939299 241.136205 
L 91.871494 247.79563 
L 89.510939 253.489879 
L 84.486956 265.843552 
L 79.66344 278.197226 
L 79.51782 278.552576 
L 75.184531 290.5509 
L 70.804697 302.904574 
L 67.164146 313.053166 
L 66.483272 315.258247 
L 62.390729 327.611921 
L 58.271183 339.965595 
L 54.810472 349.815829 
L 54.102587 352.319269 
L 50.178332 364.672942 
L 46.152149 377.026616 
L 42.456799 387.108124 
L 41.904109 389.38029 
L 38.275119 401.733963 
L 35.044594 414.087637 
L 30.103125 416.558372 
L 30.103125 417.793739 
z
" clip-path="url(#pd58f6eff78)" style="fill: #ff7e7e"/>
   </g>
   <g id="PathCollection_9">
    <path d="M 35.044594 414.087637 
L 38.275119 401.733963 
L 41.904109 389.38029 
L 42.456799 387.108124 
L 46.152149 377.026616 
L 50.178332 364.672942 
L 54.102587 352.319269 
L 54.810472 349.815829 
L 58.271183 339.965595 
L 62.390729 327.611921 
L 66.483272 315.258247 
L 67.164146 313.053166 
L 70.804697 302.904574 
L 75.184531 290.5509 
L 79.51782 278.552576 
L 79.66344 278.197226 
L 84.486956 265.843552 
L 89.510939 253.489879 
L 91.871494 247.79563 
L 94.939299 241.136205 
L 100.844455 228.782531 
L 104.225167 222.083315 
L 107.37201 216.428858 
L 114.702536 204.075184 
L 116.578841 201.106835 
L 123.102338 191.72151 
L 128.932515 184.065794 
L 132.856272 179.367836 
L 141.286189 170.140634 
L 144.41266 167.014163 
L 153.639862 158.584247 
L 158.33782 154.660489 
L 165.993536 148.830312 
L 175.378861 142.306815 
L 178.34721 140.43051 
L 190.700883 133.099985 
L 196.355341 129.953142 
L 203.054557 126.57243 
L 215.408231 120.667273 
L 222.067655 117.599468 
L 227.761905 115.238914 
L 240.115578 110.21493 
L 252.469252 105.391415 
L 252.824602 105.245794 
L 264.822926 100.912505 
L 277.176599 96.532671 
L 287.325192 92.89212 
L 289.530273 92.211246 
L 301.883947 88.118703 
L 314.237621 83.999157 
L 324.087855 80.538447 
L 326.591294 79.830561 
L 338.944968 75.906307 
L 351.298642 71.880123 
L 361.38015 68.184773 
L 363.652316 67.632083 
L 376.005989 64.003093 
L 388.359663 60.772569 
L 400.713337 58.301834 
L 400.713337 57.066467 
L 388.359663 58.301834 
L 376.005989 59.917096 
L 363.652316 61.731591 
L 351.298642 63.628183 
L 338.944968 65.557278 
L 326.591294 67.503662 
L 321.8591 68.184773 
L 314.237621 69.521128 
L 301.883947 71.555328 
L 289.530273 73.596488 
L 277.176599 75.667656 
L 264.822926 77.790745 
L 252.469252 79.989863 
L 249.322311 80.538447 
L 240.115578 82.331567 
L 227.761905 84.81281 
L 215.408231 87.467088 
L 203.054557 90.353009 
L 193.05975 92.89212 
L 190.700883 93.554986 
L 178.34721 97.194041 
L 165.993536 101.356732 
L 155.937813 105.245794 
L 153.639862 106.235912 
L 141.286189 112.115954 
L 131.650692 117.599468 
L 128.932515 119.346853 
L 116.578841 128.544911 
L 114.942818 129.953142 
L 104.225167 140.670792 
L 102.816937 142.306815 
L 93.618879 154.660489 
L 91.871494 157.378666 
L 86.38798 167.014163 
L 80.507938 179.367836 
L 79.51782 181.665787 
L 75.628758 191.72151 
L 71.466067 204.075184 
L 67.827012 216.428858 
L 67.164146 218.787724 
L 64.625035 228.782531 
L 61.739113 241.136205 
L 59.084836 253.489879 
L 56.603593 265.843552 
L 54.810472 275.050285 
L 54.261888 278.197226 
L 52.062771 290.5509 
L 49.939682 302.904574 
L 47.868514 315.258247 
L 45.827353 327.611921 
L 43.793154 339.965595 
L 42.456799 347.587075 
L 41.775687 352.319269 
L 39.829304 364.672942 
L 37.900209 377.026616 
L 36.003617 389.38029 
L 34.189122 401.733963 
L 32.57386 414.087637 
L 30.103125 415.323005 
L 30.103125 416.558372 
z
" clip-path="url(#pd58f6eff78)" style="fill: #ff4c4c"/>
   </g>
   <g id="PathCollection_10">
    <path d="M 32.57386 414.087637 
L 34.189122 401.733963 
L 36.003617 389.38029 
L 37.900209 377.026616 
L 39.829304 364.672942 
L 41.775687 352.319269 
L 42.456799 347.587075 
L 43.793154 339.965595 
L 45.827353 327.611921 
L 47.868514 315.258247 
L 49.939682 302.904574 
L 52.062771 290.5509 
L 54.261888 278.197226 
L 54.810472 275.050285 
L 56.603593 265.843552 
L 59.084836 253.489879 
L 61.739113 241.136205 
L 64.625035 228.782531 
L 67.164146 218.787724 
L 67.827012 216.428858 
L 71.466067 204.075184 
L 75.628758 191.72151 
L 79.51782 181.665787 
L 80.507938 179.367836 
L 86.38798 167.014163 
L 91.871494 157.378666 
L 93.618879 154.660489 
L 102.816937 142.306815 
L 104.225167 140.670792 
L 114.942818 129.953142 
L 116.578841 128.544911 
L 128.932515 119.346853 
L 131.650692 117.599468 
L 141.286189 112.115954 
L 153.639862 106.235912 
L 155.937813 105.245794 
L 165.993536 101.356732 
L 178.34721 97.194041 
L 190.700883 93.554986 
L 193.05975 92.89212 
L 203.054557 90.353009 
L 215.408231 87.467088 
L 227.761905 84.81281 
L 240.115578 82.331567 
L 249.322311 80.538447 
L 252.469252 79.989863 
L 264.822926 77.790745 
L 277.176599 75.667656 
L 289.530273 73.596488 
L 301.883947 71.555328 
L 314.237621 69.521128 
L 321.8591 68.184773 
L 326.591294 67.503662 
L 338.944968 65.557278 
L 351.298642 63.628183 
L 363.652316 61.731591 
L 376.005989 59.917096 
L 388.359663 58.301834 
L 400.713337 57.066467 
L 400.713337 55.831099 
L 388.359663 55.831099 
L 376.005989 55.831099 
L 363.652316 55.831099 
L 351.298642 55.831099 
L 338.944968 55.831099 
L 326.591294 55.831099 
L 314.237621 55.831099 
L 301.883947 55.831099 
L 289.530273 55.831099 
L 277.176599 55.831099 
L 264.822926 55.831099 
L 252.469252 55.831099 
L 240.115578 55.831099 
L 227.761905 55.831099 
L 215.408231 55.831099 
L 203.054557 55.831099 
L 190.700883 55.831099 
L 178.34721 55.831099 
L 165.993536 55.831099 
L 153.639862 55.831099 
L 141.286189 55.831099 
L 128.932515 55.831099 
L 116.578841 55.831099 
L 104.225167 55.831099 
L 91.871494 55.831099 
L 79.51782 55.831099 
L 67.164146 55.831099 
L 54.810472 55.831099 
L 42.456799 55.831099 
L 30.103125 55.831099 
L 30.103125 68.184773 
L 30.103125 80.538447 
L 30.103125 92.89212 
L 30.103125 105.245794 
L 30.103125 117.599468 
L 30.103125 129.953142 
L 30.103125 142.306815 
L 30.103125 154.660489 
L 30.103125 167.014163 
L 30.103125 179.367836 
L 30.103125 191.72151 
L 30.103125 204.075184 
L 30.103125 216.428858 
L 30.103125 228.782531 
L 30.103125 241.136205 
L 30.103125 253.489879 
L 30.103125 265.843552 
L 30.103125 278.197226 
L 30.103125 290.5509 
L 30.103125 302.904574 
L 30.103125 315.258247 
L 30.103125 327.611921 
L 30.103125 339.965595 
L 30.103125 352.319269 
L 30.103125 364.672942 
L 30.103125 377.026616 
L 30.103125 389.38029 
L 30.103125 401.733963 
L 30.103125 414.087637 
L 30.103125 415.323005 
z
" clip-path="url(#pd58f6eff78)" style="fill: #ff1818"/>
   </g>
   <g id="matplotlib.axis_1">
    <g id="xtick_1">
     <g id="line2d_1">
      <defs>
       <path id="m358a7de06e" d="M 0 0 
L 0 3.5 
" style="stroke: #000000; stroke-width: 0.8"/>
      </defs>
      <g>
       <use xlink:href="#m358a7de06e" x="30.103125" y="426.441311" style="stroke: #000000; stroke-width: 0.8"/>
      </g>
     </g>
     <g id="text_1">
      <!-- 0.0 -->
      <g transform="translate(22.151563 441.039748) scale(0.1 -0.1)">
       <defs>
        <path id="DejaVuSans-30" d="M 2034 4250 
Q 1547 4250 1301 3770 
Q 1056 3291 1056 2328 
Q 1056 1369 1301 889 
Q 1547 409 2034 409 
Q 2525 409 2770 889 
Q 3016 1369 3016 2328 
Q 3016 3291 2770 3770 
Q 2525 4250 2034 4250 
z
M 2034 4750 
Q 2819 4750 3233 4129 
Q 3647 3509 3647 2328 
Q 3647 1150 3233 529 
Q 2819 -91 2034 -91 
Q 1250 -91 836 529 
Q 422 1150 422 2328 
Q 422 3509 836 4129 
Q 1250 4750 2034 4750 
z
" transform="scale(0.015625)"/>
        <path id="DejaVuSans-2e" d="M 684 794 
L 1344 794 
L 1344 0 
L 684 0 
L 684 794 
z
" transform="scale(0.015625)"/>
       </defs>
       <use xlink:href="#DejaVuSans-30"/>
       <use xlink:href="#DejaVuSans-2e" x="63.623047"/>
       <use xlink:href="#DejaVuSans-30" x="95.410156"/>
      </g>
     </g>
    </g>
    <g id="xtick_2">
     <g id="line2d_2">
      <g>
       <use xlink:href="#m358a7de06e" x="104.225167" y="426.441311" style="stroke: #000000; stroke-width: 0.8"/>
      </g>
     </g>
     <g id="text_2">
      <!-- 0.2 -->
      <g transform="translate(96.273605 441.039748) scale(0.1 -0.1)">
       <defs>
        <path id="DejaVuSans-32" d="M 1228 531 
L 3431 531 
L 3431 0 
L 469 0 
L 469 531 
Q 828 903 1448 1529 
Q 2069 2156 2228 2338 
Q 2531 2678 2651 2914 
Q 2772 3150 2772 3378 
Q 2772 3750 2511 3984 
Q 2250 4219 1831 4219 
Q 1534 4219 1204 4116 
Q 875 4013 500 3803 
L 500 4441 
Q 881 4594 1212 4672 
Q 1544 4750 1819 4750 
Q 2544 4750 2975 4387 
Q 3406 4025 3406 3419 
Q 3406 3131 3298 2873 
Q 3191 2616 2906 2266 
Q 2828 2175 2409 1742 
Q 1991 1309 1228 531 
z
" transform="scale(0.015625)"/>
       </defs>
       <use xlink:href="#DejaVuSans-30"/>
       <use xlink:href="#DejaVuSans-2e" x="63.623047"/>
       <use xlink:href="#DejaVuSans-32" x="95.410156"/>
      </g>
     </g>
    </g>
    <g id="xtick_3">
     <g id="line2d_3">
      <g>
       <use xlink:href="#m358a7de06e" x="178.34721" y="426.441311" style="stroke: #000000; stroke-width: 0.8"/>
      </g>
     </g>
     <g id="text_3">
      <!-- 0.4 -->
      <g transform="translate(170.395647 441.039748) scale(0.1 -0.1)">
       <defs>
        <path id="DejaVuSans-34" d="M 2419 4116 
L 825 1625 
L 2419 1625 
L 2419 4116 
z
M 2253 4666 
L 3047 4666 
L 3047 1625 
L 3713 1625 
L 3713 1100 
L 3047 1100 
L 3047 0 
L 2419 0 
L 2419 1100 
L 313 1100 
L 313 1709 
L 2253 4666 
z
" transform="scale(0.015625)"/>
       </defs>
       <use xlink:href="#DejaVuSans-30"/>
       <use xlink:href="#DejaVuSans-2e" x="63.623047"/>
       <use xlink:href="#DejaVuSans-34" x="95.410156"/>
      </g>
     </g>
    </g>
    <g id="xtick_4">
     <g id="line2d_4">
      <g>
       <use xlink:href="#m358a7de06e" x="252.469252" y="426.441311" style="stroke: #000000; stroke-width: 0.8"/>
      </g>
     </g>
     <g id="text_4">
      <!-- 0.6 -->
      <g transform="translate(244.51769 441.039748) scale(0.1 -0.1)">
       <defs>
        <path id="DejaVuSans-36" d="M 2113 2584 
Q 1688 2584 1439 2293 
Q 1191 2003 1191 1497 
Q 1191 994 1439 701 
Q 1688 409 2113 409 
Q 2538 409 2786 701 
Q 3034 994 3034 1497 
Q 3034 2003 2786 2293 
Q 2538 2584 2113 2584 
z
M 3366 4563 
L 3366 3988 
Q 3128 4100 2886 4159 
Q 2644 4219 2406 4219 
Q 1781 4219 1451 3797 
Q 1122 3375 1075 2522 
Q 1259 2794 1537 2939 
Q 1816 3084 2150 3084 
Q 2853 3084 3261 2657 
Q 3669 2231 3669 1497 
Q 3669 778 3244 343 
Q 2819 -91 2113 -91 
Q 1303 -91 875 529 
Q 447 1150 447 2328 
Q 447 3434 972 4092 
Q 1497 4750 2381 4750 
Q 2619 4750 2861 4703 
Q 3103 4656 3366 4563 
z
" transform="scale(0.015625)"/>
       </defs>
       <use xlink:href="#DejaVuSans-30"/>
       <use xlink:href="#DejaVuSans-2e" x="63.623047"/>
       <use xlink:href="#DejaVuSans-36" x="95.410156"/>
      </g>
     </g>
    </g>
    <g id="xtick_5">
     <g id="line2d_5">
      <g>
       <use xlink:href="#m358a7de06e" x="326.591294" y="426.441311" style="stroke: #000000; stroke-width: 0.8"/>
      </g>
     </g>
     <g id="text_5">
      <!-- 0.8 -->
      <g transform="translate(318.639732 441.039748) scale(0.1 -0.1)">
       <defs>
        <path id="DejaVuSans-38" d="M 2034 2216 
Q 1584 2216 1326 1975 
Q 1069 1734 1069 1313 
Q 1069 891 1326 650 
Q 1584 409 2034 409 
Q 2484 409 2743 651 
Q 3003 894 3003 1313 
Q 3003 1734 2745 1975 
Q 2488 2216 2034 2216 
z
M 1403 2484 
Q 997 2584 770 2862 
Q 544 3141 544 3541 
Q 544 4100 942 4425 
Q 1341 4750 2034 4750 
Q 2731 4750 3128 4425 
Q 3525 4100 3525 3541 
Q 3525 3141 3298 2862 
Q 3072 2584 2669 2484 
Q 3125 2378 3379 2068 
Q 3634 1759 3634 1313 
Q 3634 634 3220 271 
Q 2806 -91 2034 -91 
Q 1263 -91 848 271 
Q 434 634 434 1313 
Q 434 1759 690 2068 
Q 947 2378 1403 2484 
z
M 1172 3481 
Q 1172 3119 1398 2916 
Q 1625 2713 2034 2713 
Q 2441 2713 2670 2916 
Q 2900 3119 2900 3481 
Q 2900 3844 2670 4047 
Q 2441 4250 2034 4250 
Q 1625 4250 1398 4047 
Q 1172 3844 1172 3481 
z
" transform="scale(0.015625)"/>
       </defs>
       <use xlink:href="#DejaVuSans-30"/>
       <use xlink:href="#DejaVuSans-2e" x="63.623047"/>
       <use xlink:href="#DejaVuSans-38" x="95.410156"/>
      </g>
     </g>
    </g>
    <g id="xtick_6">
     <g id="line2d_6">
      <g>
       <use xlink:href="#m358a7de06e" x="400.713337" y="426.441311" style="stroke: #000000; stroke-width: 0.8"/>
      </g>
     </g>
     <g id="text_6">
      <!-- 1.0 -->
      <g transform="translate(392.761774 441.039748) scale(0.1 -0.1)">
       <defs>
        <path id="DejaVuSans-31" d="M 794 531 
L 1825 531 
L 1825 4091 
L 703 3866 
L 703 4441 
L 1819 4666 
L 2450 4666 
L 2450 531 
L 3481 531 
L 3481 0 
L 794 0 
L 794 531 
z
" transform="scale(0.015625)"/>
       </defs>
       <use xlink:href="#DejaVuSans-31"/>
       <use xlink:href="#DejaVuSans-2e" x="63.623047"/>
       <use xlink:href="#DejaVuSans-30" x="95.410156"/>
      </g>
     </g>
    </g>
   </g>
   <g id="matplotlib.axis_2">
    <g id="ytick_1">
     <g id="line2d_7">
      <defs>
       <path id="m989bd2ec5b" d="M 0 0 
L -3.5 0 
" style="stroke: #000000; stroke-width: 0.8"/>
      </defs>
      <g>
       <use xlink:href="#m989bd2ec5b" x="30.103125" y="426.441311" style="stroke: #000000; stroke-width: 0.8"/>
      </g>
     </g>
     <g id="text_7">
      <!-- 0.0 -->
      <g transform="translate(7.2 430.24053) scale(0.1 -0.1)">
       <use xlink:href="#DejaVuSans-30"/>
       <use xlink:href="#DejaVuSans-2e" x="63.623047"/>
       <use xlink:href="#DejaVuSans-30" x="95.410156"/>
      </g>
     </g>
    </g>
    <g id="ytick_2">
     <g id="line2d_8">
      <g>
       <use xlink:href="#m989bd2ec5b" x="30.103125" y="352.319269" style="stroke: #000000; stroke-width: 0.8"/>
      </g>
     </g>
     <g id="text_8">
      <!-- 0.2 -->
      <g transform="translate(7.2 356.118487) scale(0.1 -0.1)">
       <use xlink:href="#DejaVuSans-30"/>
       <use xlink:href="#DejaVuSans-2e" x="63.623047"/>
       <use xlink:href="#DejaVuSans-32" x="95.410156"/>
      </g>
     </g>
    </g>
    <g id="ytick_3">
     <g id="line2d_9">
      <g>
       <use xlink:href="#m989bd2ec5b" x="30.103125" y="278.197226" style="stroke: #000000; stroke-width: 0.8"/>
      </g>
     </g>
     <g id="text_9">
      <!-- 0.4 -->
      <g transform="translate(7.2 281.996445) scale(0.1 -0.1)">
       <use xlink:href="#DejaVuSans-30"/>
       <use xlink:href="#DejaVuSans-2e" x="63.623047"/>
       <use xlink:href="#DejaVuSans-34" x="95.410156"/>
      </g>
     </g>
    </g>
    <g id="ytick_4">
     <g id="line2d_10">
      <g>
       <use xlink:href="#m989bd2ec5b" x="30.103125" y="204.075184" style="stroke: #000000; stroke-width: 0.8"/>
      </g>
     </g>
     <g id="text_10">
      <!-- 0.6 -->
      <g transform="translate(7.2 207.874403) scale(0.1 -0.1)">
       <use xlink:href="#DejaVuSans-30"/>
       <use xlink:href="#DejaVuSans-2e" x="63.623047"/>
       <use xlink:href="#DejaVuSans-36" x="95.410156"/>
      </g>
     </g>
    </g>
    <g id="ytick_5">
     <g id="line2d_11">
      <g>
       <use xlink:href="#m989bd2ec5b" x="30.103125" y="129.953142" style="stroke: #000000; stroke-width: 0.8"/>
      </g>
     </g>
     <g id="text_11">
      <!-- 0.8 -->
      <g transform="translate(7.2 133.75236) scale(0.1 -0.1)">
       <use xlink:href="#DejaVuSans-30"/>
       <use xlink:href="#DejaVuSans-2e" x="63.623047"/>
       <use xlink:href="#DejaVuSans-38" x="95.410156"/>
      </g>
     </g>
    </g>
    <g id="ytick_6">
     <g id="line2d_12">
      <g>
       <use xlink:href="#m989bd2ec5b" x="30.103125" y="55.831099" style="stroke: #000000; stroke-width: 0.8"/>
      </g>
     </g>
     <g id="text_12">
      <!-- 1.0 -->
      <g transform="translate(7.2 59.630318) scale(0.1 -0.1)">
       <use xlink:href="#DejaVuSans-31"/>
       <use xlink:href="#DejaVuSans-2e" x="63.623047"/>
       <use xlink:href="#DejaVuSans-30" x="95.410156"/>
      </g>
     </g>
    </g>
   </g>
   <g id="PathCollection_11">
    <path d="M 30.103125 426.441311 
L 42.456799 426.441311 
L 54.810472 426.441311 
L 67.164146 426.441311 
L 72.466139 426.441311 
" clip-path="url(#pd58f6eff78)" style="fill: none; stroke: #000000; stroke-width: 1.5"/>
    <path d="M 86.569501 426.441311 
L 91.871494 426.441311 
L 104.225167 426.441311 
L 116.578841 426.441311 
L 128.932515 426.441311 
L 141.286189 426.441311 
L 153.639862 426.441311 
L 165.993536 426.441311 
L 178.34721 426.441311 
L 190.700883 426.441311 
L 203.054557 426.441311 
L 215.408231 426.441311 
L 227.761905 426.441311 
L 240.115578 426.441311 
L 252.469252 426.441311 
L 264.822926 426.441311 
L 277.176599 426.441311 
L 289.530273 426.441311 
L 301.883947 426.441311 
L 314.237621 426.441311 
L 326.591294 426.441311 
L 338.944968 426.441311 
L 351.298642 426.441311 
L 363.652316 426.441311 
L 376.005989 426.441311 
L 388.359663 426.441311 
L 400.713337 414.087637 
L 400.713337 401.733963 
L 400.713337 389.38029 
L 400.713337 377.026616 
L 400.713337 364.672942 
L 400.713337 352.319269 
L 400.713337 339.965595 
L 400.713337 327.611921 
L 400.713337 315.258247 
L 400.713337 302.904574 
L 400.713337 290.5509 
L 400.713337 278.197226 
L 400.713337 265.843552 
L 400.713337 253.489879 
L 400.713337 241.136205 
L 400.713337 228.782531 
L 400.713337 216.428858 
L 400.713337 204.075184 
L 400.713337 191.72151 
L 400.713337 179.367836 
L 400.713337 167.014163 
L 400.713337 154.660489 
L 400.713337 142.306815 
L 400.713337 129.953142 
L 400.713337 117.599468 
L 400.713337 105.245794 
L 400.713337 92.89212 
L 400.713337 80.538447 
L 400.713337 68.184773 
L 400.713337 68.184773 
" clip-path="url(#pd58f6eff78)" style="fill: none; stroke: #000000; stroke-width: 1.5"/>
   </g>
   <g id="PathCollection_12">
    <path d="M 30.103125 425.205944 
L 42.456799 423.970576 
L 54.810472 422.355314 
L 67.164146 420.540819 
L 79.51782 418.644227 
L 91.871494 416.715132 
L 104.225167 414.768749 
L 108.957361 414.087637 
L 116.578841 412.751282 
L 128.932515 410.717083 
L 141.286189 408.675922 
L 153.639862 406.604754 
L 165.993536 404.481665 
L 178.34721 402.282548 
L 181.494151 401.733963 
L 190.700883 399.940843 
L 203.054557 397.4596 
L 215.408231 394.805323 
L 227.761905 391.919401 
L 237.756712 389.38029 
L 240.115578 388.717424 
L 252.469252 385.078369 
L 264.822926 380.915678 
L 274.878649 377.026616 
L 277.176599 376.036498 
L 289.530273 370.156456 
L 299.16577 364.672942 
L 301.883947 362.925557 
L 314.237621 353.727499 
L 315.873643 352.319269 
L 326.591294 341.601618 
L 327.999525 339.965595 
L 337.197583 327.611921 
L 338.944968 324.893744 
L 344.428482 315.258247 
L 350.308524 302.904574 
L 351.298642 300.606623 
L 355.187704 290.5509 
L 359.350395 278.197226 
L 362.989449 265.843552 
L 363.652316 263.484686 
L 366.191427 253.489879 
L 369.077348 241.136205 
L 371.731626 228.782531 
L 374.212869 216.428858 
L 376.005989 207.222125 
L 376.554573 204.075184 
L 378.753691 191.72151 
L 380.87678 179.367836 
L 382.947948 167.014163 
L 384.989108 154.660489 
L 386.76064 143.901994 
" clip-path="url(#pd58f6eff78)" style="fill: none; stroke: #000000; stroke-width: 1.5"/>
    <path d="M 389.756577 125.409951 
L 390.987157 117.599468 
L 392.916253 105.245794 
L 394.812845 92.89212 
L 396.62734 80.538447 
L 398.242602 68.184773 
L 400.713337 66.949406 
" clip-path="url(#pd58f6eff78)" style="fill: none; stroke: #000000; stroke-width: 1.5"/>
   </g>
   <g id="PathCollection_13">
    <path d="M 30.103125 423.970576 
L 42.456799 421.499841 
L 54.810472 418.269317 
L 67.164146 414.640327 
L 69.436312 414.087637 
L 79.51782 410.392287 
L 91.871494 406.366104 
L 96.626189 404.855733 
" clip-path="url(#pd58f6eff78)" style="fill: none; stroke: #000000; stroke-width: 1.5"/>
    <path d="M 116.758545 398.213328 
L 128.932515 394.153707 
L 141.286189 390.061164 
L 143.49127 389.38029 
L 153.639862 385.739739 
L 165.993536 381.359905 
L 177.99186 377.026616 
L 178.34721 376.880995 
L 190.700883 372.05748 
L 203.054557 367.033497 
L 208.748806 364.672942 
L 215.408231 361.605137 
L 227.761905 355.699981 
L 234.461121 352.319269 
L 240.115578 349.172425 
L 252.469252 341.8419 
L 255.437601 339.965595 
L 264.822926 333.442098 
L 272.478642 327.611921 
L 277.176599 323.688164 
L 286.403802 315.258247 
L 289.530273 312.131776 
L 297.960189 302.904574 
L 301.883947 298.206616 
L 307.714124 290.5509 
L 314.237621 281.165575 
L 316.113926 278.197226 
L 323.444451 265.843552 
L 326.591294 260.189095 
L 329.972006 253.489879 
L 335.877163 241.136205 
L 338.944968 234.47678 
L 341.305522 228.782531 
L 346.329506 216.428858 
L 351.153021 204.075184 
L 351.298642 203.719834 
L 355.631931 191.72151 
L 360.011765 179.367836 
L 363.652316 169.219244 
L 364.33319 167.014163 
L 368.425733 154.660489 
L 372.545279 142.306815 
L 376.005989 132.456581 
L 376.713875 129.953142 
L 380.638129 117.599468 
L 384.664313 105.245794 
L 388.359663 95.164286 
L 388.912353 92.89212 
L 392.541342 80.538447 
L 395.771867 68.184773 
L 400.713337 65.714038 
" clip-path="url(#pd58f6eff78)" style="fill: none; stroke: #000000; stroke-width: 1.5"/>
   </g>
   <g id="PathCollection_14">
    <path d="M 30.103125 422.735209 
L 42.456799 419.029107 
L 54.810472 414.183319 
L 55.121618 414.087637 
L 67.164146 407.395921 
L 79.109272 401.733963 
L 79.51782 401.447787 
L 91.871494 394.873981 
L 103.170415 389.38029 
L 104.225167 388.72124 
L 116.578841 382.197616 
L 126.996286 377.026616 
L 128.932515 375.870986 
L 141.286189 369.264107 
L 150.250708 364.672942 
L 153.639862 362.665933 
L 165.993536 355.81152 
L 172.47079 352.319269 
L 178.34721 348.749401 
L 190.700883 341.406619 
L 193.168779 339.965595 
L 203.054557 333.579842 
L 212.178837 327.611921 
L 215.408231 325.300942 
L 227.761905 316.347947 
L 229.233097 315.258247 
L 240.115578 306.541377 
L 244.466864 302.904574 
L 252.469252 295.73898 
L 257.976397 290.5509 
L 264.822926 283.704371 
L 270.011005 278.197226 
L 277.176599 270.194838 
L 280.813402 265.843552 
L 289.530273 254.961071 
L 290.619973 253.489879 
L 299.572968 241.136205 
L 301.883947 237.906811 
L 307.851868 228.782531 
L 314.237621 218.896754 
L 315.678645 216.428858 
L 320.07957 209.024636 
" clip-path="url(#pd58f6eff78)" style="fill: none; stroke: #000000; stroke-width: 1.5"/>
    <path d="M 332.717229 186.974836 
L 336.937959 179.367836 
L 338.944968 175.978683 
L 343.536133 167.014163 
L 350.143012 154.660489 
L 351.298642 152.72426 
L 356.469642 142.306815 
L 362.993266 129.953142 
L 363.652316 128.898389 
L 369.146007 117.599468 
L 375.719813 105.245794 
L 376.005989 104.837246 
L 381.667946 92.89212 
L 388.359663 80.849593 
L 388.455345 80.538447 
L 393.301132 68.184773 
L 400.713337 64.478671 
" clip-path="url(#pd58f6eff78)" style="fill: none; stroke: #000000; stroke-width: 1.5"/>
   </g>
   <g id="PathCollection_15">
    <path d="M 30.103125 421.499841 
L 42.456799 416.558372 
L 48.706814 414.087637 
L 54.810472 407.983979 
L 64.828536 401.733963 
L 67.164146 399.398353 
L 79.51782 390.536772 
L 81.514469 389.38029 
L 91.871494 381.378169 
L 98.547588 377.026616 
L 104.225167 372.386603 
L 115.157636 364.672942 
L 116.578841 363.467081 
L 128.932515 354.305363 
L 131.890634 352.319269 
L 141.286189 345.0244 
L 148.358339 339.965595 
L 153.639862 335.688666 
L 164.326329 327.611921 
L 165.993536 326.211271 
L 178.34721 316.42791 
L 179.885445 315.258247 
L 190.700883 306.293572 
L 194.888823 302.904574 
L 203.054557 295.804217 
L 209.162587 290.5509 
L 215.408231 284.859269 
L 222.70019 278.197226 
L 227.761905 273.364902 
L 235.513139 265.843552 
L 240.115578 261.241113 
L 247.636928 253.489879 
L 252.469252 248.428165 
L 259.131294 241.136205 
L 264.822926 234.890561 
L 270.076242 228.782531 
L 277.176599 220.616798 
L 280.565598 216.428858 
L 289.530273 205.613419 
L 290.699935 204.075184 
L 300.483297 191.72151 
L 301.883947 190.054303 
L 302.578116 189.135837 
" clip-path="url(#pd58f6eff78)" style="fill: none; stroke: #000000; stroke-width: 1.5"/>
    <path d="M 317.39217 169.67629 
L 319.296426 167.014163 
L 326.591294 157.618608 
L 328.577389 154.660489 
L 337.739107 142.306815 
L 338.944968 140.88561 
L 346.658628 129.953142 
L 351.298642 124.275562 
L 355.650195 117.599468 
L 363.652316 107.242443 
L 364.808798 105.245794 
L 373.670379 92.89212 
L 376.005989 90.55651 
L 382.256005 80.538447 
L 388.359663 74.434788 
L 390.830398 68.184773 
L 400.713337 63.243303 
" clip-path="url(#pd58f6eff78)" style="fill: none; stroke: #000000; stroke-width: 1.5"/>
   </g>
   <g id="PathCollection_16">
    <path d="M 30.103125 420.264474 
L 42.456799 414.087637 
L 42.456799 414.087637 
L 54.810472 401.733963 
L 54.810472 401.733963 
L 67.164146 389.38029 
L 67.164146 389.38029 
L 79.51782 377.026616 
L 79.51782 377.026616 
L 91.871494 364.672942 
L 91.871494 364.672942 
L 104.225167 352.319269 
L 104.225167 352.319269 
L 116.578841 339.965595 
L 116.578841 339.965595 
L 128.932515 327.611921 
L 128.932515 327.611921 
L 141.286189 315.258247 
L 141.286189 315.258247 
L 153.639862 302.904574 
L 153.639862 302.904574 
L 165.993536 290.5509 
L 165.993536 290.5509 
L 178.34721 278.197226 
L 178.34721 278.197226 
L 182.387717 274.156718 
" clip-path="url(#pd58f6eff78)" style="fill: none; stroke: #000000; stroke-width: 1.5"/>
    <path d="M 199.014049 257.530387 
L 203.054557 253.489879 
L 203.054557 253.489879 
L 215.408231 241.136205 
L 215.408231 241.136205 
L 227.761905 228.782531 
L 227.761905 228.782531 
L 240.115578 216.428858 
L 240.115578 216.428858 
L 252.469252 204.075184 
L 252.469252 204.075184 
L 264.822926 191.72151 
L 264.822926 191.72151 
L 277.176599 179.367836 
L 277.176599 179.367836 
L 289.530273 167.014163 
L 289.530273 167.014163 
L 301.883947 154.660489 
L 301.883947 154.660489 
L 314.237621 142.306815 
L 314.237621 142.306815 
L 326.591294 129.953142 
L 326.591294 129.953142 
L 338.944968 117.599468 
L 338.944968 117.599468 
L 351.298642 105.245794 
L 351.298642 105.245794 
L 363.652316 92.89212 
L 363.652316 92.89212 
L 376.005989 80.538447 
L 376.005989 80.538447 
L 388.359663 68.184773 
L 388.359663 68.184773 
L 400.713337 62.007936 
" clip-path="url(#pd58f6eff78)" style="fill: none; stroke: #000000; stroke-width: 1.5"/>
   </g>
   <g id="PathCollection_17">
    <path d="M 30.103125 419.029107 
L 39.986064 414.087637 
L 42.456799 407.837622 
L 48.560457 401.733963 
L 54.810472 391.7159 
L 57.146083 389.38029 
L 66.007664 377.026616 
L 67.164146 375.029967 
L 75.166267 364.672942 
L 79.51782 357.996848 
L 84.157833 352.319269 
L 91.871494 341.3868 
L 93.077355 339.965595 
L 102.239073 327.611921 
L 104.225167 324.653802 
L 111.520036 315.258247 
L 116.578841 308.186097 
L 120.85577 302.904574 
L 128.932515 292.218107 
L 130.333165 290.5509 
L 140.116526 278.197226 
L 141.286189 276.658991 
L 150.250864 265.843552 
L 153.639862 261.655613 
L 160.740219 253.489879 
L 165.993536 247.381849 
L 171.685167 241.136205 
L 178.34721 233.844245 
L 183.179534 228.782531 
L 190.700883 221.031297 
L 195.303323 216.428858 
L 203.054557 208.907508 
L 208.116271 204.075184 
L 215.408231 197.413141 
L 221.653875 191.72151 
L 227.761905 186.468194 
L 235.927638 179.367836 
L 240.115578 175.978838 
L 250.931016 167.014163 
L 252.469252 165.844501 
L 264.822926 156.061139 
L 266.490133 154.660489 
L 268.143304 153.411036 
" clip-path="url(#pd58f6eff78)" style="fill: none; stroke: #000000; stroke-width: 1.5"/>
    <path d="M 286.163409 139.656374 
L 289.530273 137.24801 
L 298.925828 129.953142 
L 301.883947 127.967047 
L 314.237621 118.805329 
L 315.658826 117.599468 
L 326.591294 109.885807 
L 332.268874 105.245794 
L 338.944968 100.894241 
L 349.301993 92.89212 
L 351.298642 91.735638 
L 363.652316 82.874057 
L 365.987926 80.538447 
L 376.005989 74.288431 
L 382.109647 68.184773 
L 388.359663 65.714038 
L 400.713337 60.772569 
" clip-path="url(#pd58f6eff78)" style="fill: none; stroke: #000000; stroke-width: 1.5"/>
   </g>
   <g id="PathCollection_18">
    <path d="M 30.103125 417.793739 
L 37.515329 414.087637 
L 42.361116 401.733963 
L 42.456799 401.422818 
L 49.148515 389.38029 
L 54.810472 377.435164 
L 55.096649 377.026616 
L 61.487935 365.015938 
" clip-path="url(#pd58f6eff78)" style="fill: none; stroke: #000000; stroke-width: 1.5"/>
    <path d="M 73.224534 342.090847 
L 74.34682 339.965595 
L 79.51782 329.54815 
L 80.673449 327.611921 
L 87.280329 315.258247 
L 91.871494 306.293728 
L 93.878503 302.904574 
L 100.732916 290.5509 
L 104.225167 284.073646 
L 107.795035 278.197226 
L 115.137817 265.843552 
L 116.578841 263.375656 
L 122.964594 253.489879 
L 128.932515 244.365599 
L 131.243494 241.136205 
L 140.196489 228.782531 
L 141.286189 227.311339 
L 150.003059 216.428858 
L 153.639862 212.077572 
L 160.805456 204.075184 
L 165.993536 198.568039 
L 172.840065 191.72151 
L 178.34721 186.533431 
L 186.349598 179.367836 
L 190.700883 175.731034 
L 201.583365 167.014163 
L 203.054557 165.924463 
L 215.408231 156.971468 
L 218.637625 154.660489 
L 227.761905 148.692568 
L 237.647682 142.306815 
L 240.115578 140.865791 
L 252.469252 133.523009 
L 258.345672 129.953142 
L 264.822926 126.460891 
L 277.176599 119.606477 
L 280.565753 117.599468 
L 289.530273 113.008303 
L 301.883947 106.401424 
L 303.820176 105.245794 
L 314.237621 100.074794 
L 326.591294 93.55117 
L 327.646047 92.89212 
L 338.944968 87.398429 
L 351.298642 80.824623 
L 351.70719 80.538447 
L 363.652316 74.876489 
L 375.694843 68.184773 
L 376.005989 68.089091 
L 388.359663 63.243303 
L 400.713337 59.537201 
" clip-path="url(#pd58f6eff78)" style="fill: none; stroke: #000000; stroke-width: 1.5"/>
   </g>
   <g id="PathCollection_19">
    <path d="M 30.103125 416.558372 
L 35.044594 414.087637 
L 38.275119 401.733963 
L 41.904109 389.38029 
L 42.456799 387.108124 
L 46.152149 377.026616 
L 50.178332 364.672942 
L 54.102587 352.319269 
L 54.810472 349.815829 
L 58.271183 339.965595 
L 62.390729 327.611921 
L 66.483272 315.258247 
L 67.164146 313.053166 
L 70.804697 302.904574 
L 75.184531 290.5509 
L 79.51782 278.552576 
L 79.66344 278.197226 
L 84.486956 265.843552 
L 89.510939 253.489879 
L 91.871494 247.79563 
L 94.939299 241.136205 
L 100.844455 228.782531 
L 104.225167 222.083315 
L 107.37201 216.428858 
L 114.702536 204.075184 
L 116.578841 201.106835 
L 123.102338 191.72151 
L 128.932515 184.065794 
L 132.856272 179.367836 
L 141.286189 170.140634 
L 144.41266 167.014163 
L 153.639862 158.584247 
L 158.33782 154.660489 
L 165.993536 148.830312 
L 175.378861 142.306815 
L 178.34721 140.43051 
L 190.700883 133.099985 
L 196.355341 129.953142 
L 203.054557 126.57243 
L 215.408231 120.667273 
L 222.067655 117.599468 
L 227.761905 115.238914 
L 230.193781 114.24992 
" clip-path="url(#pd58f6eff78)" style="fill: none; stroke: #000000; stroke-width: 1.5"/>
    <path d="M 250.070172 106.32814 
L 252.469252 105.391415 
L 252.824602 105.245794 
L 264.822926 100.912505 
L 277.176599 96.532671 
L 287.325192 92.89212 
L 289.530273 92.211246 
L 301.883947 88.118703 
L 314.237621 83.999157 
L 324.087855 80.538447 
L 326.591294 79.830561 
L 338.944968 75.906307 
L 351.298642 71.880123 
L 361.38015 68.184773 
L 363.652316 67.632083 
L 376.005989 64.003093 
L 388.359663 60.772569 
L 400.713337 58.301834 
" clip-path="url(#pd58f6eff78)" style="fill: none; stroke: #000000; stroke-width: 1.5"/>
   </g>
   <g id="PathCollection_20">
    <path d="M 30.103125 415.323005 
L 32.57386 414.087637 
L 34.189122 401.733963 
L 36.003617 389.38029 
L 37.900209 377.026616 
L 39.829304 364.672942 
L 41.580903 353.555565 
" clip-path="url(#pd58f6eff78)" style="fill: none; stroke: #000000; stroke-width: 1.5"/>
    <path d="M 46.0308 326.380602 
L 47.868514 315.258247 
L 49.939682 302.904574 
L 52.062771 290.5509 
L 54.261888 278.197226 
L 54.810472 275.050285 
L 56.603593 265.843552 
L 59.084836 253.489879 
L 61.739113 241.136205 
L 64.625035 228.782531 
L 67.164146 218.787724 
L 67.827012 216.428858 
L 71.466067 204.075184 
L 75.628758 191.72151 
L 79.51782 181.665787 
L 80.507938 179.367836 
L 86.38798 167.014163 
L 91.871494 157.378666 
L 93.618879 154.660489 
L 102.816937 142.306815 
L 104.225167 140.670792 
L 114.942818 129.953142 
L 116.578841 128.544911 
L 128.932515 119.346853 
L 131.650692 117.599468 
L 141.286189 112.115954 
L 153.639862 106.235912 
L 155.937813 105.245794 
L 165.993536 101.356732 
L 178.34721 97.194041 
L 190.700883 93.554986 
L 193.05975 92.89212 
L 203.054557 90.353009 
L 215.408231 87.467088 
L 227.761905 84.81281 
L 240.115578 82.331567 
L 249.322311 80.538447 
L 252.469252 79.989863 
L 264.822926 77.790745 
L 277.176599 75.667656 
L 289.530273 73.596488 
L 301.883947 71.555328 
L 314.237621 69.521128 
L 321.8591 68.184773 
L 326.591294 67.503662 
L 338.944968 65.557278 
L 351.298642 63.628183 
L 363.652316 61.731591 
L 376.005989 59.917096 
L 388.359663 58.301834 
L 400.713337 57.066467 
" clip-path="url(#pd58f6eff78)" style="fill: none; stroke: #000000; stroke-width: 1.5"/>
   </g>
   <g id="PathCollection_21"/>
   <g id="patch_3">
    <path d="M 30.103125 426.441311 
L 30.103125 55.831099 
" style="fill: none; stroke: #000000; stroke-width: 0.8; stroke-linejoin: miter; stroke-linecap: square"/>
   </g>
   <g id="patch_4">
    <path d="M 400.713337 426.441311 
L 400.713337 55.831099 
" style="fill: none; stroke: #000000; stroke-width: 0.8; stroke-linejoin: miter; stroke-linecap: square"/>
   </g>
   <g id="patch_5">
    <path d="M 30.103125 426.441311 
L 400.713337 426.441311 
" style="fill: none; stroke: #000000; stroke-width: 0.8; stroke-linejoin: miter; stroke-linecap: square"/>
   </g>
   <g id="patch_6">
    <path d="M 30.103125 55.831099 
L 400.713337 55.831099 
" style="fill: none; stroke: #000000; stroke-width: 0.8; stroke-linejoin: miter; stroke-linecap: square"/>
   </g>
   <g id="text_13">
    <g clip-path="url(#pd58f6eff78)">
     <!-- 0 -->
     <g transform="translate(76.33657 429.200686) scale(0.1 -0.1)">
      <use xlink:href="#DejaVuSans-30"/>
     </g>
    </g>
   </g>
   <g id="text_14">
    <g clip-path="url(#pd58f6eff78)">
     <!-- 5 -->
     <g transform="translate(390.391739 138.373854) rotate(-77.913266) scale(0.1 -0.1)">
      <defs>
       <path id="DejaVuSans-35" d="M 691 4666 
L 3169 4666 
L 3169 4134 
L 1269 4134 
L 1269 2991 
Q 1406 3038 1543 3061 
Q 1681 3084 1819 3084 
Q 2600 3084 3056 2656 
Q 3513 2228 3513 1497 
Q 3513 744 3044 326 
Q 2575 -91 1722 -91 
Q 1428 -91 1123 -41 
Q 819 9 494 109 
L 494 744 
Q 775 591 1075 516 
Q 1375 441 1709 441 
Q 2250 441 2565 725 
Q 2881 1009 2881 1497 
Q 2881 1984 2565 2268 
Q 2250 2553 1709 2553 
Q 1456 2553 1204 2497 
Q 953 2441 691 2322 
L 691 4666 
z
" transform="scale(0.015625)"/>
      </defs>
      <use xlink:href="#DejaVuSans-35"/>
     </g>
    </g>
   </g>
   <g id="text_15">
    <g clip-path="url(#pd58f6eff78)">
     <!-- 10 -->
     <g transform="translate(101.202138 405.923678) rotate(-13.720349) scale(0.1 -0.1)">
      <use xlink:href="#DejaVuSans-31"/>
      <use xlink:href="#DejaVuSans-30" x="63.623047"/>
     </g>
    </g>
   </g>
   <g id="text_16">
    <g clip-path="url(#pd58f6eff78)">
     <!-- 15 -->
     <g transform="translate(324.903386 204.925317) rotate(-52.467437) scale(0.1 -0.1)">
      <use xlink:href="#DejaVuSans-31"/>
      <use xlink:href="#DejaVuSans-35" x="63.623047"/>
     </g>
    </g>
   </g>
   <g id="text_17">
    <g clip-path="url(#pd58f6eff78)">
     <!-- 20 -->
     <g transform="translate(307.281322 185.76444) rotate(-43.826401) scale(0.1 -0.1)">
      <use xlink:href="#DejaVuSans-32"/>
      <use xlink:href="#DejaVuSans-30" x="63.623047"/>
     </g>
    </g>
   </g>
   <g id="text_18">
    <g clip-path="url(#pd58f6eff78)">
     <!-- 25 -->
     <g transform="translate(187.247824 271.857863) rotate(-36.692053) scale(0.1 -0.1)">
      <use xlink:href="#DejaVuSans-32"/>
      <use xlink:href="#DejaVuSans-35" x="63.623047"/>
     </g>
    </g>
   </g>
   <g id="text_19">
    <g clip-path="url(#pd58f6eff78)">
     <!-- 30 -->
     <g transform="translate(273.059955 152.164855) rotate(-30.141338) scale(0.1 -0.1)">
      <defs>
       <path id="DejaVuSans-33" d="M 2597 2516 
Q 3050 2419 3304 2112 
Q 3559 1806 3559 1356 
Q 3559 666 3084 287 
Q 2609 -91 1734 -91 
Q 1441 -91 1130 -33 
Q 819 25 488 141 
L 488 750 
Q 750 597 1062 519 
Q 1375 441 1716 441 
Q 2309 441 2620 675 
Q 2931 909 2931 1356 
Q 2931 1769 2642 2001 
Q 2353 2234 1838 2234 
L 1294 2234 
L 1294 2753 
L 1863 2753 
Q 2328 2753 2575 2939 
Q 2822 3125 2822 3475 
Q 2822 3834 2567 4026 
Q 2313 4219 1838 4219 
Q 1578 4219 1281 4162 
Q 984 4106 628 3988 
L 628 4550 
Q 988 4650 1302 4700 
Q 1616 4750 1894 4750 
Q 2613 4750 3031 4423 
Q 3450 4097 3450 3541 
Q 3450 3153 3228 2886 
Q 3006 2619 2597 2516 
z
" transform="scale(0.015625)"/>
      </defs>
      <use xlink:href="#DejaVuSans-33"/>
      <use xlink:href="#DejaVuSans-30" x="63.623047"/>
     </g>
    </g>
   </g>
   <g id="text_20">
    <g clip-path="url(#pd58f6eff78)">
     <!-- 35 -->
     <g transform="translate(65.824519 360.178502) rotate(-55.416305) scale(0.1 -0.1)">
      <use xlink:href="#DejaVuSans-33"/>
      <use xlink:href="#DejaVuSans-35" x="63.623047"/>
     </g>
    </g>
   </g>
   <g id="text_21">
    <g clip-path="url(#pd58f6eff78)">
     <!-- 40 -->
     <g transform="translate(234.801954 114.671493) rotate(-16.540666) scale(0.1 -0.1)">
      <use xlink:href="#DejaVuSans-34"/>
      <use xlink:href="#DejaVuSans-30" x="63.623047"/>
     </g>
    </g>
   </g>
   <g id="text_22">
    <g clip-path="url(#pd58f6eff78)">
     <!-- 45 -->
     <g transform="translate(45.084793 346.779348) rotate(-77.287764) scale(0.1 -0.1)">
      <use xlink:href="#DejaVuSans-34"/>
      <use xlink:href="#DejaVuSans-35" x="63.623047"/>
     </g>
    </g>
   </g>
  </g>
  <g id="axes_2">
   <g id="patch_7">
    <path d="M 423.876475 471.273191 
L 446.890174 471.273191 
L 446.890174 10.999219 
L 423.876475 10.999219 
z
" style="fill: #ffffff"/>
   </g>
   <g id="patch_8">
    <path clip-path="url(#peeb4a8ce24)" style="fill: #ffffff; stroke: #ffffff; stroke-width: 0.01; stroke-linejoin: miter"/>
   </g>
   <g id="QuadMesh_1">
    <path d="M 423.876475 471.273191 
L 446.890174 471.273191 
L 446.890174 425.245794 
L 423.876475 425.245794 
L 423.876475 471.273191 
" clip-path="url(#peeb4a8ce24)" style="fill: #1818ff"/>
    <path d="M 423.876475 425.245794 
L 446.890174 425.245794 
L 446.890174 379.218397 
L 423.876475 379.218397 
L 423.876475 425.245794 
" clip-path="url(#peeb4a8ce24)" style="fill: #4c4cff"/>
    <path d="M 423.876475 379.218397 
L 446.890174 379.218397 
L 446.890174 333.191 
L 423.876475 333.191 
L 423.876475 379.218397 
" clip-path="url(#peeb4a8ce24)" style="fill: #8080ff"/>
    <path d="M 423.876475 333.191 
L 446.890174 333.191 
L 446.890174 287.163602 
L 423.876475 287.163602 
L 423.876475 333.191 
" clip-path="url(#peeb4a8ce24)" style="fill: #b2b2ff"/>
    <path d="M 423.876475 287.163602 
L 446.890174 287.163602 
L 446.890174 241.136205 
L 423.876475 241.136205 
L 423.876475 287.163602 
" clip-path="url(#peeb4a8ce24)" style="fill: #e6e6ff"/>
    <path d="M 423.876475 241.136205 
L 446.890174 241.136205 
L 446.890174 195.108808 
L 423.876475 195.108808 
L 423.876475 241.136205 
" clip-path="url(#peeb4a8ce24)" style="fill: #ffe6e6"/>
    <path d="M 423.876475 195.108808 
L 446.890174 195.108808 
L 446.890174 149.081411 
L 423.876475 149.081411 
L 423.876475 195.108808 
" clip-path="url(#peeb4a8ce24)" style="fill: #ffb2b2"/>
    <path d="M 423.876475 149.081411 
L 446.890174 149.081411 
L 446.890174 103.054013 
L 423.876475 103.054013 
L 423.876475 149.081411 
" clip-path="url(#peeb4a8ce24)" style="fill: #ff7e7e"/>
    <path d="M 423.876475 103.054013 
L 446.890174 103.054013 
L 446.890174 57.026616 
L 423.876475 57.026616 
L 423.876475 103.054013 
" clip-path="url(#peeb4a8ce24)" style="fill: #ff4c4c"/>
    <path d="M 423.876475 57.026616 
L 446.890174 57.026616 
L 446.890174 10.999219 
L 423.876475 10.999219 
L 423.876475 57.026616 
" clip-path="url(#peeb4a8ce24)" style="fill: #ff1818"/>
   </g>
   <g id="matplotlib.axis_3"/>
   <g id="matplotlib.axis_4">
    <g id="ytick_7">
     <g id="line2d_13">
      <defs>
       <path id="m934620ea7f" d="M 0 0 
L 3.5 0 
" style="stroke: #000000; stroke-width: 0.8"/>
      </defs>
      <g>
       <use xlink:href="#m934620ea7f" x="446.890174" y="471.273191" style="stroke: #000000; stroke-width: 0.8"/>
      </g>
     </g>
     <g id="text_23">
      <!-- 0 -->
      <g transform="translate(453.890174 475.07241) scale(0.1 -0.1)">
       <use xlink:href="#DejaVuSans-30"/>
      </g>
     </g>
    </g>
    <g id="ytick_8">
     <g id="line2d_14">
      <g>
       <use xlink:href="#m934620ea7f" x="446.890174" y="379.218397" style="stroke: #000000; stroke-width: 0.8"/>
      </g>
     </g>
     <g id="text_24">
      <!-- 10 -->
      <g transform="translate(453.890174 383.017616) scale(0.1 -0.1)">
       <use xlink:href="#DejaVuSans-31"/>
       <use xlink:href="#DejaVuSans-30" x="63.623047"/>
      </g>
     </g>
    </g>
    <g id="ytick_9">
     <g id="line2d_15">
      <g>
       <use xlink:href="#m934620ea7f" x="446.890174" y="287.163602" style="stroke: #000000; stroke-width: 0.8"/>
      </g>
     </g>
     <g id="text_25">
      <!-- 20 -->
      <g transform="translate(453.890174 290.962821) scale(0.1 -0.1)">
       <use xlink:href="#DejaVuSans-32"/>
       <use xlink:href="#DejaVuSans-30" x="63.623047"/>
      </g>
     </g>
    </g>
    <g id="ytick_10">
     <g id="line2d_16">
      <g>
       <use xlink:href="#m934620ea7f" x="446.890174" y="195.108808" style="stroke: #000000; stroke-width: 0.8"/>
      </g>
     </g>
     <g id="text_26">
      <!-- 30 -->
      <g transform="translate(453.890174 198.908027) scale(0.1 -0.1)">
       <use xlink:href="#DejaVuSans-33"/>
       <use xlink:href="#DejaVuSans-30" x="63.623047"/>
      </g>
     </g>
    </g>
    <g id="ytick_11">
     <g id="line2d_17">
      <g>
       <use xlink:href="#m934620ea7f" x="446.890174" y="103.054013" style="stroke: #000000; stroke-width: 0.8"/>
      </g>
     </g>
     <g id="text_27">
      <!-- 40 -->
      <g transform="translate(453.890174 106.853232) scale(0.1 -0.1)">
       <use xlink:href="#DejaVuSans-34"/>
       <use xlink:href="#DejaVuSans-30" x="63.623047"/>
      </g>
     </g>
    </g>
    <g id="ytick_12">
     <g id="line2d_18">
      <g>
       <use xlink:href="#m934620ea7f" x="446.890174" y="10.999219" style="stroke: #000000; stroke-width: 0.8"/>
      </g>
     </g>
     <g id="text_28">
      <!-- 50 -->
      <g transform="translate(453.890174 14.798438) scale(0.1 -0.1)">
       <use xlink:href="#DejaVuSans-35"/>
       <use xlink:href="#DejaVuSans-30" x="63.623047"/>
      </g>
     </g>
    </g>
   </g>
   <g id="LineCollection_1"/>
   <g id="patch_9">
    <path d="M 423.876475 471.273191 
L 435.383324 471.273191 
L 446.890174 471.273191 
L 446.890174 10.999219 
L 435.383324 10.999219 
L 423.876475 10.999219 
L 423.876475 471.273191 
z
" style="fill: none; stroke: #000000; stroke-width: 0.8; stroke-linejoin: miter; stroke-linecap: square"/>
   </g>
  </g>
 </g>
 <defs>
  <clipPath id="pd58f6eff78">
   <rect x="30.103125" y="55.831099" width="370.610212" height="370.610212"/>
  </clipPath>
  <clipPath id="peeb4a8ce24">
   <rect x="423.876475" y="10.999219" width="23.013699" height="460.273973"/>
  </clipPath>
 </defs>
</svg>
