<?xml version="1.0" encoding="utf-8" standalone="no"?>
<!DOCTYPE svg PUBLIC "-//W3C//DTD SVG 1.1//EN"
  "http://www.w3.org/Graphics/SVG/1.1/DTD/svg11.dtd">
<svg xmlns:xlink="http://www.w3.org/1999/xlink" width="514.244015pt" height="366.72369pt" viewBox="0 0 514.244015 366.72369" xmlns="http://www.w3.org/2000/svg" version="1.1">
 <metadata>
  <rdf:RDF xmlns:dc="http://purl.org/dc/elements/1.1/" xmlns:cc="http://creativecommons.org/ns#" xmlns:rdf="http://www.w3.org/1999/02/22-rdf-syntax-ns#">
   <cc:Work>
    <dc:type rdf:resource="http://purl.org/dc/dcmitype/StillImage"/>
    <dc:date>2024-03-27T12:23:59.038093</dc:date>
    <dc:format>image/svg+xml</dc:format>
    <dc:creator>
     <cc:Agent>
      <dc:title>Matplotlib v3.6.3, https://matplotlib.org/</dc:title>
     </cc:Agent>
    </dc:creator>
   </cc:Work>
  </rdf:RDF>
 </metadata>
 <defs>
  <style type="text/css">*{stroke-linejoin: round; stroke-linecap: butt}</style>
 </defs>
 <g id="figure_1">
  <g id="patch_1">
   <path d="M 0 366.72369 
L 514.244015 366.72369 
L 514.244015 0 
L 0 0 
z
" style="fill: #ffffff"/>
  </g>
  <g id="axes_1">
   <g id="patch_2">
    <path d="M 43.78125 329.16744 
L 507.044015 329.16744 
L 507.044015 22.318125 
L 43.78125 22.318125 
z
" style="fill: #ffffff"/>
   </g>
   <g id="matplotlib.axis_1">
    <g id="xtick_1">
     <g id="line2d_1">
      <path d="M 64.838648 329.16744 
L 64.838648 22.318125 
" clip-path="url(#pfcfc2bbef6)" style="fill: none; stroke-dasharray: 2.96,1.28; stroke-dashoffset: 0; stroke: #808080; stroke-width: 0.8"/>
     </g>
     <g id="line2d_2">
      <defs>
       <path id="m480748cd5a" d="M 0 0 
L 0 3.5 
" style="stroke: #000000; stroke-width: 0.8"/>
      </defs>
      <g>
       <use xlink:href="#m480748cd5a" x="64.838648" y="329.16744" style="stroke: #000000; stroke-width: 0.8"/>
      </g>
     </g>
     <g id="text_1">
      <!-- 0.00 -->
      <g transform="translate(53.705836 343.765878) scale(0.1 -0.1)">
       <defs>
        <path id="DejaVuSans-30" d="M 2034 4250 
Q 1547 4250 1301 3770 
Q 1056 3291 1056 2328 
Q 1056 1369 1301 889 
Q 1547 409 2034 409 
Q 2525 409 2770 889 
Q 3016 1369 3016 2328 
Q 3016 3291 2770 3770 
Q 2525 4250 2034 4250 
z
M 2034 4750 
Q 2819 4750 3233 4129 
Q 3647 3509 3647 2328 
Q 3647 1150 3233 529 
Q 2819 -91 2034 -91 
Q 1250 -91 836 529 
Q 422 1150 422 2328 
Q 422 3509 836 4129 
Q 1250 4750 2034 4750 
z
" transform="scale(0.015625)"/>
        <path id="DejaVuSans-2e" d="M 684 794 
L 1344 794 
L 1344 0 
L 684 0 
L 684 794 
z
" transform="scale(0.015625)"/>
       </defs>
       <use xlink:href="#DejaVuSans-30"/>
       <use xlink:href="#DejaVuSans-2e" x="63.623047"/>
       <use xlink:href="#DejaVuSans-30" x="95.410156"/>
       <use xlink:href="#DejaVuSans-30" x="159.033203"/>
      </g>
     </g>
    </g>
    <g id="xtick_2">
     <g id="line2d_3">
      <path d="M 135.029976 329.16744 
L 135.029976 22.318125 
" clip-path="url(#pfcfc2bbef6)" style="fill: none; stroke-dasharray: 2.96,1.28; stroke-dashoffset: 0; stroke: #808080; stroke-width: 0.8"/>
     </g>
     <g id="line2d_4">
      <g>
       <use xlink:href="#m480748cd5a" x="135.029976" y="329.16744" style="stroke: #000000; stroke-width: 0.8"/>
      </g>
     </g>
     <g id="text_2">
      <!-- 0.05 -->
      <g transform="translate(123.897164 343.765878) scale(0.1 -0.1)">
       <defs>
        <path id="DejaVuSans-35" d="M 691 4666 
L 3169 4666 
L 3169 4134 
L 1269 4134 
L 1269 2991 
Q 1406 3038 1543 3061 
Q 1681 3084 1819 3084 
Q 2600 3084 3056 2656 
Q 3513 2228 3513 1497 
Q 3513 744 3044 326 
Q 2575 -91 1722 -91 
Q 1428 -91 1123 -41 
Q 819 9 494 109 
L 494 744 
Q 775 591 1075 516 
Q 1375 441 1709 441 
Q 2250 441 2565 725 
Q 2881 1009 2881 1497 
Q 2881 1984 2565 2268 
Q 2250 2553 1709 2553 
Q 1456 2553 1204 2497 
Q 953 2441 691 2322 
L 691 4666 
z
" transform="scale(0.015625)"/>
       </defs>
       <use xlink:href="#DejaVuSans-30"/>
       <use xlink:href="#DejaVuSans-2e" x="63.623047"/>
       <use xlink:href="#DejaVuSans-30" x="95.410156"/>
       <use xlink:href="#DejaVuSans-35" x="159.033203"/>
      </g>
     </g>
    </g>
    <g id="xtick_3">
     <g id="line2d_5">
      <path d="M 205.221304 329.16744 
L 205.221304 22.318125 
" clip-path="url(#pfcfc2bbef6)" style="fill: none; stroke-dasharray: 2.96,1.28; stroke-dashoffset: 0; stroke: #808080; stroke-width: 0.8"/>
     </g>
     <g id="line2d_6">
      <g>
       <use xlink:href="#m480748cd5a" x="205.221304" y="329.16744" style="stroke: #000000; stroke-width: 0.8"/>
      </g>
     </g>
     <g id="text_3">
      <!-- 0.10 -->
      <g transform="translate(194.088492 343.765878) scale(0.1 -0.1)">
       <defs>
        <path id="DejaVuSans-31" d="M 794 531 
L 1825 531 
L 1825 4091 
L 703 3866 
L 703 4441 
L 1819 4666 
L 2450 4666 
L 2450 531 
L 3481 531 
L 3481 0 
L 794 0 
L 794 531 
z
" transform="scale(0.015625)"/>
       </defs>
       <use xlink:href="#DejaVuSans-30"/>
       <use xlink:href="#DejaVuSans-2e" x="63.623047"/>
       <use xlink:href="#DejaVuSans-31" x="95.410156"/>
       <use xlink:href="#DejaVuSans-30" x="159.033203"/>
      </g>
     </g>
    </g>
    <g id="xtick_4">
     <g id="line2d_7">
      <path d="M 275.412632 329.16744 
L 275.412632 22.318125 
" clip-path="url(#pfcfc2bbef6)" style="fill: none; stroke-dasharray: 2.96,1.28; stroke-dashoffset: 0; stroke: #808080; stroke-width: 0.8"/>
     </g>
     <g id="line2d_8">
      <g>
       <use xlink:href="#m480748cd5a" x="275.412632" y="329.16744" style="stroke: #000000; stroke-width: 0.8"/>
      </g>
     </g>
     <g id="text_4">
      <!-- 0.15 -->
      <g transform="translate(264.27982 343.765878) scale(0.1 -0.1)">
       <use xlink:href="#DejaVuSans-30"/>
       <use xlink:href="#DejaVuSans-2e" x="63.623047"/>
       <use xlink:href="#DejaVuSans-31" x="95.410156"/>
       <use xlink:href="#DejaVuSans-35" x="159.033203"/>
      </g>
     </g>
    </g>
    <g id="xtick_5">
     <g id="line2d_9">
      <path d="M 345.60396 329.16744 
L 345.60396 22.318125 
" clip-path="url(#pfcfc2bbef6)" style="fill: none; stroke-dasharray: 2.96,1.28; stroke-dashoffset: 0; stroke: #808080; stroke-width: 0.8"/>
     </g>
     <g id="line2d_10">
      <g>
       <use xlink:href="#m480748cd5a" x="345.60396" y="329.16744" style="stroke: #000000; stroke-width: 0.8"/>
      </g>
     </g>
     <g id="text_5">
      <!-- 0.20 -->
      <g transform="translate(334.471148 343.765878) scale(0.1 -0.1)">
       <defs>
        <path id="DejaVuSans-32" d="M 1228 531 
L 3431 531 
L 3431 0 
L 469 0 
L 469 531 
Q 828 903 1448 1529 
Q 2069 2156 2228 2338 
Q 2531 2678 2651 2914 
Q 2772 3150 2772 3378 
Q 2772 3750 2511 3984 
Q 2250 4219 1831 4219 
Q 1534 4219 1204 4116 
Q 875 4013 500 3803 
L 500 4441 
Q 881 4594 1212 4672 
Q 1544 4750 1819 4750 
Q 2544 4750 2975 4387 
Q 3406 4025 3406 3419 
Q 3406 3131 3298 2873 
Q 3191 2616 2906 2266 
Q 2828 2175 2409 1742 
Q 1991 1309 1228 531 
z
" transform="scale(0.015625)"/>
       </defs>
       <use xlink:href="#DejaVuSans-30"/>
       <use xlink:href="#DejaVuSans-2e" x="63.623047"/>
       <use xlink:href="#DejaVuSans-32" x="95.410156"/>
       <use xlink:href="#DejaVuSans-30" x="159.033203"/>
      </g>
     </g>
    </g>
    <g id="xtick_6">
     <g id="line2d_11">
      <path d="M 415.795288 329.16744 
L 415.795288 22.318125 
" clip-path="url(#pfcfc2bbef6)" style="fill: none; stroke-dasharray: 2.96,1.28; stroke-dashoffset: 0; stroke: #808080; stroke-width: 0.8"/>
     </g>
     <g id="line2d_12">
      <g>
       <use xlink:href="#m480748cd5a" x="415.795288" y="329.16744" style="stroke: #000000; stroke-width: 0.8"/>
      </g>
     </g>
     <g id="text_6">
      <!-- 0.25 -->
      <g transform="translate(404.662476 343.765878) scale(0.1 -0.1)">
       <use xlink:href="#DejaVuSans-30"/>
       <use xlink:href="#DejaVuSans-2e" x="63.623047"/>
       <use xlink:href="#DejaVuSans-32" x="95.410156"/>
       <use xlink:href="#DejaVuSans-35" x="159.033203"/>
      </g>
     </g>
    </g>
    <g id="xtick_7">
     <g id="line2d_13">
      <path d="M 485.986616 329.16744 
L 485.986616 22.318125 
" clip-path="url(#pfcfc2bbef6)" style="fill: none; stroke-dasharray: 2.96,1.28; stroke-dashoffset: 0; stroke: #808080; stroke-width: 0.8"/>
     </g>
     <g id="line2d_14">
      <g>
       <use xlink:href="#m480748cd5a" x="485.986616" y="329.16744" style="stroke: #000000; stroke-width: 0.8"/>
      </g>
     </g>
     <g id="text_7">
      <!-- 0.30 -->
      <g transform="translate(474.853804 343.765878) scale(0.1 -0.1)">
       <defs>
        <path id="DejaVuSans-33" d="M 2597 2516 
Q 3050 2419 3304 2112 
Q 3559 1806 3559 1356 
Q 3559 666 3084 287 
Q 2609 -91 1734 -91 
Q 1441 -91 1130 -33 
Q 819 25 488 141 
L 488 750 
Q 750 597 1062 519 
Q 1375 441 1716 441 
Q 2309 441 2620 675 
Q 2931 909 2931 1356 
Q 2931 1769 2642 2001 
Q 2353 2234 1838 2234 
L 1294 2234 
L 1294 2753 
L 1863 2753 
Q 2328 2753 2575 2939 
Q 2822 3125 2822 3475 
Q 2822 3834 2567 4026 
Q 2313 4219 1838 4219 
Q 1578 4219 1281 4162 
Q 984 4106 628 3988 
L 628 4550 
Q 988 4650 1302 4700 
Q 1616 4750 1894 4750 
Q 2613 4750 3031 4423 
Q 3450 4097 3450 3541 
Q 3450 3153 3228 2886 
Q 3006 2619 2597 2516 
z
" transform="scale(0.015625)"/>
       </defs>
       <use xlink:href="#DejaVuSans-30"/>
       <use xlink:href="#DejaVuSans-2e" x="63.623047"/>
       <use xlink:href="#DejaVuSans-33" x="95.410156"/>
       <use xlink:href="#DejaVuSans-30" x="159.033203"/>
      </g>
     </g>
    </g>
    <g id="text_8">
     <!-- $x$ -->
     <g transform="translate(272.412632 357.444003) scale(0.1 -0.1)">
      <defs>
       <path id="DejaVuSans-Oblique-78" d="M 3841 3500 
L 2234 1784 
L 3219 0 
L 2559 0 
L 1819 1388 
L 531 0 
L -166 0 
L 1556 1844 
L 641 3500 
L 1300 3500 
L 1972 2234 
L 3144 3500 
L 3841 3500 
z
" transform="scale(0.015625)"/>
      </defs>
      <use xlink:href="#DejaVuSans-Oblique-78" transform="translate(0 0.3125)"/>
     </g>
    </g>
   </g>
   <g id="matplotlib.axis_2">
    <g id="ytick_1">
     <g id="line2d_15">
      <path d="M 43.78125 329.16744 
L 507.044015 329.16744 
" clip-path="url(#pfcfc2bbef6)" style="fill: none; stroke-dasharray: 2.96,1.28; stroke-dashoffset: 0; stroke: #808080; stroke-width: 0.8"/>
     </g>
     <g id="line2d_16">
      <defs>
       <path id="m939d35926d" d="M 0 0 
L -3.5 0 
" style="stroke: #000000; stroke-width: 0.8"/>
      </defs>
      <g>
       <use xlink:href="#m939d35926d" x="43.78125" y="329.16744" style="stroke: #000000; stroke-width: 0.8"/>
      </g>
     </g>
     <g id="text_9">
      <!-- 3.2 -->
      <g transform="translate(20.878125 332.966659) scale(0.1 -0.1)">
       <use xlink:href="#DejaVuSans-33"/>
       <use xlink:href="#DejaVuSans-2e" x="63.623047"/>
       <use xlink:href="#DejaVuSans-32" x="95.410156"/>
      </g>
     </g>
    </g>
    <g id="ytick_2">
     <g id="line2d_17">
      <path d="M 43.78125 280.494151 
L 507.044015 280.494151 
" clip-path="url(#pfcfc2bbef6)" style="fill: none; stroke-dasharray: 2.96,1.28; stroke-dashoffset: 0; stroke: #808080; stroke-width: 0.8"/>
     </g>
     <g id="line2d_18">
      <g>
       <use xlink:href="#m939d35926d" x="43.78125" y="280.494151" style="stroke: #000000; stroke-width: 0.8"/>
      </g>
     </g>
     <g id="text_10">
      <!-- 3.3 -->
      <g transform="translate(20.878125 284.293369) scale(0.1 -0.1)">
       <use xlink:href="#DejaVuSans-33"/>
       <use xlink:href="#DejaVuSans-2e" x="63.623047"/>
       <use xlink:href="#DejaVuSans-33" x="95.410156"/>
      </g>
     </g>
    </g>
    <g id="ytick_3">
     <g id="line2d_19">
      <path d="M 43.78125 231.820861 
L 507.044015 231.820861 
" clip-path="url(#pfcfc2bbef6)" style="fill: none; stroke-dasharray: 2.96,1.28; stroke-dashoffset: 0; stroke: #808080; stroke-width: 0.8"/>
     </g>
     <g id="line2d_20">
      <g>
       <use xlink:href="#m939d35926d" x="43.78125" y="231.820861" style="stroke: #000000; stroke-width: 0.8"/>
      </g>
     </g>
     <g id="text_11">
      <!-- 3.4 -->
      <g transform="translate(20.878125 235.62008) scale(0.1 -0.1)">
       <defs>
        <path id="DejaVuSans-34" d="M 2419 4116 
L 825 1625 
L 2419 1625 
L 2419 4116 
z
M 2253 4666 
L 3047 4666 
L 3047 1625 
L 3713 1625 
L 3713 1100 
L 3047 1100 
L 3047 0 
L 2419 0 
L 2419 1100 
L 313 1100 
L 313 1709 
L 2253 4666 
z
" transform="scale(0.015625)"/>
       </defs>
       <use xlink:href="#DejaVuSans-33"/>
       <use xlink:href="#DejaVuSans-2e" x="63.623047"/>
       <use xlink:href="#DejaVuSans-34" x="95.410156"/>
      </g>
     </g>
    </g>
    <g id="ytick_4">
     <g id="line2d_21">
      <path d="M 43.78125 183.147571 
L 507.044015 183.147571 
" clip-path="url(#pfcfc2bbef6)" style="fill: none; stroke-dasharray: 2.96,1.28; stroke-dashoffset: 0; stroke: #808080; stroke-width: 0.8"/>
     </g>
     <g id="line2d_22">
      <g>
       <use xlink:href="#m939d35926d" x="43.78125" y="183.147571" style="stroke: #000000; stroke-width: 0.8"/>
      </g>
     </g>
     <g id="text_12">
      <!-- 3.5 -->
      <g transform="translate(20.878125 186.94679) scale(0.1 -0.1)">
       <use xlink:href="#DejaVuSans-33"/>
       <use xlink:href="#DejaVuSans-2e" x="63.623047"/>
       <use xlink:href="#DejaVuSans-35" x="95.410156"/>
      </g>
     </g>
    </g>
    <g id="ytick_5">
     <g id="line2d_23">
      <path d="M 43.78125 134.474282 
L 507.044015 134.474282 
" clip-path="url(#pfcfc2bbef6)" style="fill: none; stroke-dasharray: 2.96,1.28; stroke-dashoffset: 0; stroke: #808080; stroke-width: 0.8"/>
     </g>
     <g id="line2d_24">
      <g>
       <use xlink:href="#m939d35926d" x="43.78125" y="134.474282" style="stroke: #000000; stroke-width: 0.8"/>
      </g>
     </g>
     <g id="text_13">
      <!-- 3.6 -->
      <g transform="translate(20.878125 138.273501) scale(0.1 -0.1)">
       <defs>
        <path id="DejaVuSans-36" d="M 2113 2584 
Q 1688 2584 1439 2293 
Q 1191 2003 1191 1497 
Q 1191 994 1439 701 
Q 1688 409 2113 409 
Q 2538 409 2786 701 
Q 3034 994 3034 1497 
Q 3034 2003 2786 2293 
Q 2538 2584 2113 2584 
z
M 3366 4563 
L 3366 3988 
Q 3128 4100 2886 4159 
Q 2644 4219 2406 4219 
Q 1781 4219 1451 3797 
Q 1122 3375 1075 2522 
Q 1259 2794 1537 2939 
Q 1816 3084 2150 3084 
Q 2853 3084 3261 2657 
Q 3669 2231 3669 1497 
Q 3669 778 3244 343 
Q 2819 -91 2113 -91 
Q 1303 -91 875 529 
Q 447 1150 447 2328 
Q 447 3434 972 4092 
Q 1497 4750 2381 4750 
Q 2619 4750 2861 4703 
Q 3103 4656 3366 4563 
z
" transform="scale(0.015625)"/>
       </defs>
       <use xlink:href="#DejaVuSans-33"/>
       <use xlink:href="#DejaVuSans-2e" x="63.623047"/>
       <use xlink:href="#DejaVuSans-36" x="95.410156"/>
      </g>
     </g>
    </g>
    <g id="ytick_6">
     <g id="line2d_25">
      <path d="M 43.78125 85.800992 
L 507.044015 85.800992 
" clip-path="url(#pfcfc2bbef6)" style="fill: none; stroke-dasharray: 2.96,1.28; stroke-dashoffset: 0; stroke: #808080; stroke-width: 0.8"/>
     </g>
     <g id="line2d_26">
      <g>
       <use xlink:href="#m939d35926d" x="43.78125" y="85.800992" style="stroke: #000000; stroke-width: 0.8"/>
      </g>
     </g>
     <g id="text_14">
      <!-- 3.7 -->
      <g transform="translate(20.878125 89.600211) scale(0.1 -0.1)">
       <defs>
        <path id="DejaVuSans-37" d="M 525 4666 
L 3525 4666 
L 3525 4397 
L 1831 0 
L 1172 0 
L 2766 4134 
L 525 4134 
L 525 4666 
z
" transform="scale(0.015625)"/>
       </defs>
       <use xlink:href="#DejaVuSans-33"/>
       <use xlink:href="#DejaVuSans-2e" x="63.623047"/>
       <use xlink:href="#DejaVuSans-37" x="95.410156"/>
      </g>
     </g>
    </g>
    <g id="ytick_7">
     <g id="line2d_27">
      <path d="M 43.78125 37.127703 
L 507.044015 37.127703 
" clip-path="url(#pfcfc2bbef6)" style="fill: none; stroke-dasharray: 2.96,1.28; stroke-dashoffset: 0; stroke: #808080; stroke-width: 0.8"/>
     </g>
     <g id="line2d_28">
      <g>
       <use xlink:href="#m939d35926d" x="43.78125" y="37.127703" style="stroke: #000000; stroke-width: 0.8"/>
      </g>
     </g>
     <g id="text_15">
      <!-- 3.8 -->
      <g transform="translate(20.878125 40.926922) scale(0.1 -0.1)">
       <defs>
        <path id="DejaVuSans-38" d="M 2034 2216 
Q 1584 2216 1326 1975 
Q 1069 1734 1069 1313 
Q 1069 891 1326 650 
Q 1584 409 2034 409 
Q 2484 409 2743 651 
Q 3003 894 3003 1313 
Q 3003 1734 2745 1975 
Q 2488 2216 2034 2216 
z
M 1403 2484 
Q 997 2584 770 2862 
Q 544 3141 544 3541 
Q 544 4100 942 4425 
Q 1341 4750 2034 4750 
Q 2731 4750 3128 4425 
Q 3525 4100 3525 3541 
Q 3525 3141 3298 2862 
Q 3072 2584 2669 2484 
Q 3125 2378 3379 2068 
Q 3634 1759 3634 1313 
Q 3634 634 3220 271 
Q 2806 -91 2034 -91 
Q 1263 -91 848 271 
Q 434 634 434 1313 
Q 434 1759 690 2068 
Q 947 2378 1403 2484 
z
M 1172 3481 
Q 1172 3119 1398 2916 
Q 1625 2713 2034 2713 
Q 2441 2713 2670 2916 
Q 2900 3119 2900 3481 
Q 2900 3844 2670 4047 
Q 2441 4250 2034 4250 
Q 1625 4250 1398 4047 
Q 1172 3844 1172 3481 
z
" transform="scale(0.015625)"/>
       </defs>
       <use xlink:href="#DejaVuSans-33"/>
       <use xlink:href="#DejaVuSans-2e" x="63.623047"/>
       <use xlink:href="#DejaVuSans-38" x="95.410156"/>
      </g>
     </g>
    </g>
    <g id="text_16">
     <!-- $y_1$ -->
     <g transform="translate(14.778125 181.092783) rotate(-90) scale(0.1 -0.1)">
      <defs>
       <path id="DejaVuSans-Oblique-79" d="M 1588 -325 
Q 1188 -997 936 -1164 
Q 684 -1331 294 -1331 
L -159 -1331 
L -63 -850 
L 269 -850 
Q 509 -850 678 -719 
Q 847 -588 1056 -206 
L 1234 128 
L 459 3500 
L 1069 3500 
L 1650 819 
L 3256 3500 
L 3859 3500 
L 1588 -325 
z
" transform="scale(0.015625)"/>
      </defs>
      <use xlink:href="#DejaVuSans-Oblique-79" transform="translate(0 0.3125)"/>
      <use xlink:href="#DejaVuSans-31" transform="translate(59.179688 -16.09375) scale(0.7)"/>
     </g>
    </g>
    <g id="text_17">
     <!-- 1e−5 -->
     <g transform="translate(43.78125 19.318125) scale(0.1 -0.1)">
      <defs>
       <path id="DejaVuSans-65" d="M 3597 1894 
L 3597 1613 
L 953 1613 
Q 991 1019 1311 708 
Q 1631 397 2203 397 
Q 2534 397 2845 478 
Q 3156 559 3463 722 
L 3463 178 
Q 3153 47 2828 -22 
Q 2503 -91 2169 -91 
Q 1331 -91 842 396 
Q 353 884 353 1716 
Q 353 2575 817 3079 
Q 1281 3584 2069 3584 
Q 2775 3584 3186 3129 
Q 3597 2675 3597 1894 
z
M 3022 2063 
Q 3016 2534 2758 2815 
Q 2500 3097 2075 3097 
Q 1594 3097 1305 2825 
Q 1016 2553 972 2059 
L 3022 2063 
z
" transform="scale(0.015625)"/>
       <path id="DejaVuSans-2212" d="M 678 2272 
L 4684 2272 
L 4684 1741 
L 678 1741 
L 678 2272 
z
" transform="scale(0.015625)"/>
      </defs>
      <use xlink:href="#DejaVuSans-31"/>
      <use xlink:href="#DejaVuSans-65" x="63.623047"/>
      <use xlink:href="#DejaVuSans-2212" x="125.146484"/>
      <use xlink:href="#DejaVuSans-35" x="208.935547"/>
     </g>
    </g>
   </g>
   <g id="line2d_29">
    <path d="M 66.518221 367.72369 
L 66.669175 302.161454 
L 67.458656 168.106315 
L 68.248138 127.193345 
L 70.137498 111.283414 
L 73.382199 111.168633 
L 82.343816 113.433929 
L 128.243898 125.133009 
L 317.588019 170.685085 
L 485.986616 208.593738 
" clip-path="url(#pfcfc2bbef6)" style="fill: none; stroke: #1f77b4; stroke-width: 1.5; stroke-linecap: square"/>
    <defs>
     <path id="m1d00ffd03c" d="M 0 3 
C 0.795609 3 1.55874 2.683901 2.12132 2.12132 
C 2.683901 1.55874 3 0.795609 3 0 
C 3 -0.795609 2.683901 -1.55874 2.12132 -2.12132 
C 1.55874 -2.683901 0.795609 -3 0 -3 
C -0.795609 -3 -1.55874 -2.683901 -2.12132 -2.12132 
C -2.683901 -1.55874 -3 -0.795609 -3 0 
C -3 0.795609 -2.683901 1.55874 -2.12132 2.12132 
C -1.55874 2.683901 -0.795609 3 0 3 
z
" style="stroke: #1f77b4"/>
    </defs>
    <g clip-path="url(#pfcfc2bbef6)">
     <use xlink:href="#m1d00ffd03c" x="64.838648" y="1886.712705" style="fill: #1f77b4; stroke: #1f77b4"/>
     <use xlink:href="#m1d00ffd03c" x="64.840052" y="1884.765775" style="fill: #1f77b4; stroke: #1f77b4"/>
     <use xlink:href="#m1d00ffd03c" x="64.851283" y="1869.190892" style="fill: #1f77b4; stroke: #1f77b4"/>
     <use xlink:href="#m1d00ffd03c" x="64.941128" y="1744.889088" style="fill: #1f77b4; stroke: #1f77b4"/>
     <use xlink:href="#m1d00ffd03c" x="65.31894" y="1250.10525" style="fill: #1f77b4; stroke: #1f77b4"/>
     <use xlink:href="#m1d00ffd03c" x="65.696752" y="847.105006" style="fill: #1f77b4; stroke: #1f77b4"/>
     <use xlink:href="#m1d00ffd03c" x="66.074564" y="560.41365" style="fill: #1f77b4; stroke: #1f77b4"/>
     <use xlink:href="#m1d00ffd03c" x="66.669175" y="302.161454" style="fill: #1f77b4; stroke: #1f77b4"/>
     <use xlink:href="#m1d00ffd03c" x="67.458656" y="168.106315" style="fill: #1f77b4; stroke: #1f77b4"/>
     <use xlink:href="#m1d00ffd03c" x="68.248138" y="127.193345" style="fill: #1f77b4; stroke: #1f77b4"/>
     <use xlink:href="#m1d00ffd03c" x="70.137498" y="111.283414" style="fill: #1f77b4; stroke: #1f77b4"/>
     <use xlink:href="#m1d00ffd03c" x="73.382199" y="111.168633" style="fill: #1f77b4; stroke: #1f77b4"/>
     <use xlink:href="#m1d00ffd03c" x="82.343816" y="113.433929" style="fill: #1f77b4; stroke: #1f77b4"/>
     <use xlink:href="#m1d00ffd03c" x="128.243898" y="125.133009" style="fill: #1f77b4; stroke: #1f77b4"/>
     <use xlink:href="#m1d00ffd03c" x="317.588019" y="170.685085" style="fill: #1f77b4; stroke: #1f77b4"/>
     <use xlink:href="#m1d00ffd03c" x="485.986616" y="208.593738" style="fill: #1f77b4; stroke: #1f77b4"/>
    </g>
   </g>
   <g id="line2d_30">
    <path d="M 66.547931 367.72369 
L 67.371202 176.091901 
L 68.384212 124.075432 
L 70.189398 116.401135 
L 72.444317 121.076138 
L 74.61982 125.852956 
L 76.795323 134.150312 
L 78.932125 146.838045 
L 80.857371 139.985724 
L 82.652517 125.449543 
L 84.617236 122.526986 
L 86.92988 132.720234 
L 88.862549 127.406223 
L 90.795218 123.491137 
L 93.102662 132.45129 
L 95.076456 129.229563 
L 97.050249 126.460162 
L 99.333407 136.065413 
L 101.276569 131.17923 
L 103.219732 127.383202 
L 105.4977 135.810884 
L 107.48096 132.994574 
L 109.464221 130.442868 
L 111.718349 139.400282 
L 113.67138 134.943838 
L 115.624412 131.298069 
L 117.87369 139.122576 
L 121.859256 134.472691 
L 124.085163 142.729517 
L 126.047237 138.692002 
L 128.009311 135.221707 
L 130.231172 142.386139 
L 134.235485 138.534966 
L 136.434503 146.05109 
L 138.40463 142.40969 
L 140.374757 139.132006 
L 142.570982 145.598114 
L 146.593454 142.610006 
L 148.767381 149.362956 
L 150.960645 165.252622 
L 152.728178 145.522255 
L 154.495711 136.993141 
L 158.962143 146.492943 
L 161.148291 154.85214 
L 163.077778 148.657199 
L 165.007264 143.851298 
L 167.212763 149.574376 
L 171.324943 150.84079 
L 173.484501 158.34382 
L 175.60147 168.133557 
L 177.535644 161.761406 
L 179.369659 149.906511 
L 181.363661 147.752746 
L 183.65267 157.966749 
L 185.576679 151.909194 
L 187.500688 147.566503 
L 189.792921 155.573173 
L 193.801044 151.765967 
L 196.057082 161.208722 
L 197.992722 155.648214 
L 199.928362 151.420524 
L 202.187963 158.810075 
L 206.216978 155.855967 
L 208.441184 164.4783 
L 210.386874 159.369532 
L 212.332564 155.270944 
L 214.561508 161.975189 
L 218.611644 160.001992 
L 220.805857 167.768794 
L 222.759874 163.053545 
L 224.713891 159.086608 
L 226.914762 165.064075 
L 228.950336 164.683832 
L 230.985909 164.180142 
L 233.152493 171.077378 
L 235.308274 183.491233 
L 237.268779 179.947274 
L 239.076649 165.207196 
L 241.012016 161.036828 
L 243.284756 168.674466 
L 247.303722 165.19078 
L 249.541321 173.981726 
L 251.487924 168.920008 
L 253.434527 164.891063 
L 255.674089 171.830843 
L 259.71489 169.304146 
L 261.92028 177.216891 
L 263.876333 172.596905 
L 265.832387 168.72103 
L 268.041554 174.911675 
L 270.072693 174.245938 
L 272.103833 173.450166 
L 274.279636 180.464466 
L 276.451796 194.26848 
L 278.415402 191.229889 
L 280.206188 174.925002 
L 282.122763 170.221936 
L 284.402821 177.458254 
L 288.462572 175.596918 
L 290.696197 184.832917 
L 292.62488 178.635714 
L 294.553564 174.02228 
L 296.798503 180.570477 
L 300.881222 179.810016 
L 303.080846 188.071443 
L 305.01914 182.306195 
L 306.957433 177.780098 
L 309.170622 183.584507 
L 313.27669 184.080238 
L 315.445298 191.360614 
L 317.58145 202.121123 
L 319.526701 196.574396 
L 321.351657 183.780312 
L 323.32776 180.941056 
L 325.618293 190.078571 
L 327.575089 185.673478 
L 329.531885 182.158657 
L 331.809736 190.302832 
L 333.798254 187.469095 
L 335.786773 184.905624 
L 338.039013 193.215165 
L 340.008244 189.353853 
L 341.977475 186.062258 
L 344.218333 193.413715 
L 348.218773 188.90998 
L 350.435547 196.332731 
L 352.415681 192.989829 
L 354.395816 189.960537 
L 356.60307 196.467496 
L 360.62503 192.915232 
L 362.809859 199.424866 
L 366.78863 193.810864 
L 368.966204 199.459989 
L 371.204669 216.667422 
L 372.96163 196.636391 
L 374.718591 188.565443 
L 377.038654 193.511007 
L 379.224167 197.676204 
L 381.40968 204.662923 
L 383.379555 200.67687 
L 385.349429 197.148391 
L 387.536977 202.650727 
L 389.57588 202.271829 
L 391.614784 201.769904 
L 393.770687 207.791325 
L 395.919337 218.203575 
L 397.896176 215.554462 
L 399.735202 202.918152 
L 401.684283 198.942514 
L 403.931655 205.80868 
L 407.979846 203.288834 
L 410.190409 211.055531 
L 412.150759 206.538941 
L 414.111109 202.746834 
L 416.323092 208.776444 
L 418.358943 208.156369 
L 420.394794 207.412157 
L 422.571613 214.162738 
L 424.743994 227.150596 
L 426.713151 224.168296 
L 428.515128 208.775362 
L 430.440537 204.263222 
L 432.718229 211.313901 
L 436.783867 209.423221 
L 439.014453 218.160557 
L 440.953409 212.429882 
L 442.892366 208.041249 
L 445.130331 214.299728 
L 449.221128 213.625749 
L 451.413937 221.267627 
L 453.363351 216.017644 
L 455.312764 211.755391 
L 457.516014 217.177418 
L 461.631351 217.851391 
L 463.790969 224.41292 
L 465.918551 233.371965 
L 467.875249 228.490946 
L 469.727943 217.474659 
L 471.719981 215.007066 
L 473.99072 223.642247 
L 475.953485 219.364425 
L 477.916249 215.874258 
L 480.175068 223.262507 
L 484.186097 219.017234 
L 485.986616 212.972209 
L 485.986616 212.972209 
" clip-path="url(#pfcfc2bbef6)" style="fill: none; stroke: #ff7f0e; stroke-width: 1.5; stroke-linecap: square"/>
   </g>
   <g id="line2d_31">
    <path d="M 66.538339 367.72369 
L 66.665463 303.413363 
L 67.476004 166.639674 
L 68.426145 123.17644 
L 69.611068 112.557699 
L 71.166304 111.098819 
L 73.298809 111.669239 
L 76.059115 114.803853 
L 77.904063 113.659605 
L 79.749011 113.387591 
L 84.344911 115.684815 
L 86.603726 117.194412 
L 88.744321 118.026075 
L 90.72358 117.590253 
L 92.692146 117.393381 
L 94.82382 118.008031 
L 99.346644 121.116248 
L 101.36594 120.867402 
L 103.275558 120.182532 
L 105.311205 120.403544 
L 107.5839 121.634091 
L 109.915963 123.821803 
L 111.803433 122.660263 
L 113.690902 122.277721 
L 115.900245 123.113114 
L 118.359663 125.653893 
L 120.25125 124.648865 
L 122.142836 124.340806 
L 124.387466 125.278238 
L 126.874188 128.120636 
L 128.728592 126.759709 
L 130.582996 126.360315 
L 132.838954 127.288996 
L 135.12813 128.578615 
L 137.417306 130.379882 
L 139.528957 130.958627 
L 141.457854 130.145903 
L 143.415133 129.959593 
L 145.594627 130.736035 
L 147.942243 132.626385 
L 149.901867 132.142118 
L 151.861492 131.998532 
L 154.066128 132.863324 
L 156.433473 134.933714 
L 158.365449 134.221552 
L 160.297425 133.989527 
L 162.511859 134.859825 
L 164.922219 137.168569 
L 166.830728 136.27121 
L 168.739237 135.982365 
L 170.968962 136.87575 
L 173.422585 139.449325 
L 175.303511 138.319538 
L 177.184437 137.969016 
L 179.42957 138.877464 
L 181.932204 141.747139 
L 183.783861 140.361159 
L 185.635517 139.954891 
L 187.897178 140.8756 
L 190.189912 142.152448 
L 192.482645 143.946264 
L 194.596532 144.520996 
L 196.52555 143.694446 
L 198.482396 143.495487 
L 200.663088 144.256643 
L 203.014197 146.132584 
L 204.974818 145.643283 
L 206.935439 145.493614 
L 209.142048 146.346019 
L 211.511819 148.398621 
L 213.444539 147.680531 
L 215.377259 147.442197 
L 217.593366 148.298856 
L 220.006178 150.586843 
L 221.915647 149.68711 
L 223.825117 149.39336 
L 226.056444 150.272912 
L 228.512165 152.821727 
L 230.39422 151.692878 
L 232.276275 151.33846 
L 234.522845 152.232693 
L 237.027186 155.072633 
L 238.880225 153.692063 
L 240.733265 153.282937 
L 242.996183 154.189196 
L 245.29034 155.449133 
L 247.584498 157.221723 
L 249.699705 157.784517 
L 251.630053 156.958702 
L 253.58829 156.755459 
L 255.770362 157.504057 
L 258.12276 159.357424 
L 260.084809 158.86658 
L 262.046858 158.712192 
L 264.254655 159.550753 
L 266.625477 161.577573 
L 268.559841 160.861812 
L 270.494205 160.620147 
L 272.711377 161.462869 
L 275.124825 163.720805 
L 277.036163 162.826914 
L 278.947501 162.53075 
L 281.179715 163.396031 
L 283.635594 165.909661 
L 285.519801 164.791297 
L 287.404008 164.435418 
L 289.651272 165.315209 
L 292.155197 168.113962 
L 294.010707 166.749246 
L 295.866217 166.339465 
L 298.129623 167.231197 
L 300.424259 168.47232 
L 302.718896 170.217551 
L 304.835303 170.768338 
L 306.767661 169.950255 
L 308.727854 169.745127 
L 310.910925 170.481014 
L 313.263438 172.3067 
L 315.227425 171.818851 
L 317.191412 171.661692 
L 319.399893 172.485998 
L 321.770547 174.481053 
L 323.707174 173.773242 
L 325.643801 173.530286 
L 327.861515 174.358799 
L 330.274219 176.579974 
L 332.188109 175.698135 
L 334.101999 175.401495 
L 336.334536 176.2523 
L 338.789061 178.723246 
L 340.676172 177.622326 
L 342.563282 177.266819 
L 344.810652 178.132075 
L 347.312523 180.881445 
L 349.171307 179.540194 
L 351.030091 179.131435 
L 353.293378 180.008667 
L 355.587749 181.22966 
L 357.882119 182.943151 
L 359.999614 183.481983 
L 361.934478 182.676776 
L 363.897036 182.471578 
L 366.080788 183.19471 
L 368.432496 184.989071 
L 370.398789 184.507589 
L 372.365082 184.349156 
L 374.573841 185.158983 
L 376.943373 187.118036 
L 378.88271 186.422289 
L 380.822047 186.179597 
L 383.039887 186.993778 
L 385.450776 189.173464 
L 387.367712 188.308183 
L 389.284647 188.012551 
L 391.517059 188.848803 
L 393.969066 191.271814 
L 395.859624 190.193343 
L 397.750183 189.839613 
L 399.997189 190.690338 
L 402.495751 193.384617 
L 404.358392 192.072264 
L 406.221033 191.665818 
L 408.48372 192.528639 
L 410.777236 193.728617 
L 413.070751 195.407342 
L 415.189226 195.934355 
L 417.126952 195.145741 
L 419.092161 194.941848 
L 421.276328 195.652259 
L 423.626512 197.412767 
L 425.595369 196.940128 
L 427.564226 196.781582 
L 429.772932 197.576843 
L 432.140599 199.496979 
L 434.082961 198.81626 
L 436.025324 198.575031 
L 438.242949 199.374859 
L 440.651194 201.509826 
L 442.571526 200.664316 
L 444.491858 200.37084 
L 446.723784 201.192552 
L 449.172373 203.564066 
L 451.066768 202.511574 
L 452.961162 202.160713 
L 455.207428 202.996973 
L 457.701716 205.632317 
L 459.568631 204.352658 
L 461.435546 203.949538 
L 463.697245 204.798074 
L 466.24062 207.721899 
L 468.078494 206.190594 
L 469.916367 205.739401 
L 472.193833 206.596146 
L 474.506338 207.827528 
L 476.818844 209.627313 
L 478.938374 210.15046 
L 480.860088 209.214601 
L 482.811843 208.960368 
L 485.002811 209.668228 
L 485.986616 208.883777 
L 485.986616 208.883777 
" clip-path="url(#pfcfc2bbef6)" style="fill: none; stroke: #2ca02c; stroke-width: 1.5; stroke-linecap: square"/>
   </g>
   <g id="patch_3">
    <path d="M 43.78125 329.16744 
L 43.78125 22.318125 
" style="fill: none; stroke: #000000; stroke-width: 0.8; stroke-linejoin: miter; stroke-linecap: square"/>
   </g>
   <g id="patch_4">
    <path d="M 507.044015 329.16744 
L 507.044015 22.318125 
" style="fill: none; stroke: #000000; stroke-width: 0.8; stroke-linejoin: miter; stroke-linecap: square"/>
   </g>
   <g id="patch_5">
    <path d="M 43.78125 329.16744 
L 507.044015 329.16744 
" style="fill: none; stroke: #000000; stroke-width: 0.8; stroke-linejoin: miter; stroke-linecap: square"/>
   </g>
   <g id="patch_6">
    <path d="M 43.78125 22.318125 
L 507.044015 22.318125 
" style="fill: none; stroke: #000000; stroke-width: 0.8; stroke-linejoin: miter; stroke-linecap: square"/>
   </g>
   <g id="text_18">
    <!-- Robertson - second element of the solution -->
    <g transform="translate(145.78732 16.318125) scale(0.12 -0.12)">
     <defs>
      <path id="DejaVuSans-52" d="M 2841 2188 
Q 3044 2119 3236 1894 
Q 3428 1669 3622 1275 
L 4263 0 
L 3584 0 
L 2988 1197 
Q 2756 1666 2539 1819 
Q 2322 1972 1947 1972 
L 1259 1972 
L 1259 0 
L 628 0 
L 628 4666 
L 2053 4666 
Q 2853 4666 3247 4331 
Q 3641 3997 3641 3322 
Q 3641 2881 3436 2590 
Q 3231 2300 2841 2188 
z
M 1259 4147 
L 1259 2491 
L 2053 2491 
Q 2509 2491 2742 2702 
Q 2975 2913 2975 3322 
Q 2975 3731 2742 3939 
Q 2509 4147 2053 4147 
L 1259 4147 
z
" transform="scale(0.015625)"/>
      <path id="DejaVuSans-6f" d="M 1959 3097 
Q 1497 3097 1228 2736 
Q 959 2375 959 1747 
Q 959 1119 1226 758 
Q 1494 397 1959 397 
Q 2419 397 2687 759 
Q 2956 1122 2956 1747 
Q 2956 2369 2687 2733 
Q 2419 3097 1959 3097 
z
M 1959 3584 
Q 2709 3584 3137 3096 
Q 3566 2609 3566 1747 
Q 3566 888 3137 398 
Q 2709 -91 1959 -91 
Q 1206 -91 779 398 
Q 353 888 353 1747 
Q 353 2609 779 3096 
Q 1206 3584 1959 3584 
z
" transform="scale(0.015625)"/>
      <path id="DejaVuSans-62" d="M 3116 1747 
Q 3116 2381 2855 2742 
Q 2594 3103 2138 3103 
Q 1681 3103 1420 2742 
Q 1159 2381 1159 1747 
Q 1159 1113 1420 752 
Q 1681 391 2138 391 
Q 2594 391 2855 752 
Q 3116 1113 3116 1747 
z
M 1159 2969 
Q 1341 3281 1617 3432 
Q 1894 3584 2278 3584 
Q 2916 3584 3314 3078 
Q 3713 2572 3713 1747 
Q 3713 922 3314 415 
Q 2916 -91 2278 -91 
Q 1894 -91 1617 61 
Q 1341 213 1159 525 
L 1159 0 
L 581 0 
L 581 4863 
L 1159 4863 
L 1159 2969 
z
" transform="scale(0.015625)"/>
      <path id="DejaVuSans-72" d="M 2631 2963 
Q 2534 3019 2420 3045 
Q 2306 3072 2169 3072 
Q 1681 3072 1420 2755 
Q 1159 2438 1159 1844 
L 1159 0 
L 581 0 
L 581 3500 
L 1159 3500 
L 1159 2956 
Q 1341 3275 1631 3429 
Q 1922 3584 2338 3584 
Q 2397 3584 2469 3576 
Q 2541 3569 2628 3553 
L 2631 2963 
z
" transform="scale(0.015625)"/>
      <path id="DejaVuSans-74" d="M 1172 4494 
L 1172 3500 
L 2356 3500 
L 2356 3053 
L 1172 3053 
L 1172 1153 
Q 1172 725 1289 603 
Q 1406 481 1766 481 
L 2356 481 
L 2356 0 
L 1766 0 
Q 1100 0 847 248 
Q 594 497 594 1153 
L 594 3053 
L 172 3053 
L 172 3500 
L 594 3500 
L 594 4494 
L 1172 4494 
z
" transform="scale(0.015625)"/>
      <path id="DejaVuSans-73" d="M 2834 3397 
L 2834 2853 
Q 2591 2978 2328 3040 
Q 2066 3103 1784 3103 
Q 1356 3103 1142 2972 
Q 928 2841 928 2578 
Q 928 2378 1081 2264 
Q 1234 2150 1697 2047 
L 1894 2003 
Q 2506 1872 2764 1633 
Q 3022 1394 3022 966 
Q 3022 478 2636 193 
Q 2250 -91 1575 -91 
Q 1294 -91 989 -36 
Q 684 19 347 128 
L 347 722 
Q 666 556 975 473 
Q 1284 391 1588 391 
Q 1994 391 2212 530 
Q 2431 669 2431 922 
Q 2431 1156 2273 1281 
Q 2116 1406 1581 1522 
L 1381 1569 
Q 847 1681 609 1914 
Q 372 2147 372 2553 
Q 372 3047 722 3315 
Q 1072 3584 1716 3584 
Q 2034 3584 2315 3537 
Q 2597 3491 2834 3397 
z
" transform="scale(0.015625)"/>
      <path id="DejaVuSans-6e" d="M 3513 2113 
L 3513 0 
L 2938 0 
L 2938 2094 
Q 2938 2591 2744 2837 
Q 2550 3084 2163 3084 
Q 1697 3084 1428 2787 
Q 1159 2491 1159 1978 
L 1159 0 
L 581 0 
L 581 3500 
L 1159 3500 
L 1159 2956 
Q 1366 3272 1645 3428 
Q 1925 3584 2291 3584 
Q 2894 3584 3203 3211 
Q 3513 2838 3513 2113 
z
" transform="scale(0.015625)"/>
      <path id="DejaVuSans-20" transform="scale(0.015625)"/>
      <path id="DejaVuSans-2d" d="M 313 2009 
L 1997 2009 
L 1997 1497 
L 313 1497 
L 313 2009 
z
" transform="scale(0.015625)"/>
      <path id="DejaVuSans-63" d="M 3122 3366 
L 3122 2828 
Q 2878 2963 2633 3030 
Q 2388 3097 2138 3097 
Q 1578 3097 1268 2742 
Q 959 2388 959 1747 
Q 959 1106 1268 751 
Q 1578 397 2138 397 
Q 2388 397 2633 464 
Q 2878 531 3122 666 
L 3122 134 
Q 2881 22 2623 -34 
Q 2366 -91 2075 -91 
Q 1284 -91 818 406 
Q 353 903 353 1747 
Q 353 2603 823 3093 
Q 1294 3584 2113 3584 
Q 2378 3584 2631 3529 
Q 2884 3475 3122 3366 
z
" transform="scale(0.015625)"/>
      <path id="DejaVuSans-64" d="M 2906 2969 
L 2906 4863 
L 3481 4863 
L 3481 0 
L 2906 0 
L 2906 525 
Q 2725 213 2448 61 
Q 2172 -91 1784 -91 
Q 1150 -91 751 415 
Q 353 922 353 1747 
Q 353 2572 751 3078 
Q 1150 3584 1784 3584 
Q 2172 3584 2448 3432 
Q 2725 3281 2906 2969 
z
M 947 1747 
Q 947 1113 1208 752 
Q 1469 391 1925 391 
Q 2381 391 2643 752 
Q 2906 1113 2906 1747 
Q 2906 2381 2643 2742 
Q 2381 3103 1925 3103 
Q 1469 3103 1208 2742 
Q 947 2381 947 1747 
z
" transform="scale(0.015625)"/>
      <path id="DejaVuSans-6c" d="M 603 4863 
L 1178 4863 
L 1178 0 
L 603 0 
L 603 4863 
z
" transform="scale(0.015625)"/>
      <path id="DejaVuSans-6d" d="M 3328 2828 
Q 3544 3216 3844 3400 
Q 4144 3584 4550 3584 
Q 5097 3584 5394 3201 
Q 5691 2819 5691 2113 
L 5691 0 
L 5113 0 
L 5113 2094 
Q 5113 2597 4934 2840 
Q 4756 3084 4391 3084 
Q 3944 3084 3684 2787 
Q 3425 2491 3425 1978 
L 3425 0 
L 2847 0 
L 2847 2094 
Q 2847 2600 2669 2842 
Q 2491 3084 2119 3084 
Q 1678 3084 1418 2786 
Q 1159 2488 1159 1978 
L 1159 0 
L 581 0 
L 581 3500 
L 1159 3500 
L 1159 2956 
Q 1356 3278 1631 3431 
Q 1906 3584 2284 3584 
Q 2666 3584 2933 3390 
Q 3200 3197 3328 2828 
z
" transform="scale(0.015625)"/>
      <path id="DejaVuSans-66" d="M 2375 4863 
L 2375 4384 
L 1825 4384 
Q 1516 4384 1395 4259 
Q 1275 4134 1275 3809 
L 1275 3500 
L 2222 3500 
L 2222 3053 
L 1275 3053 
L 1275 0 
L 697 0 
L 697 3053 
L 147 3053 
L 147 3500 
L 697 3500 
L 697 3744 
Q 697 4328 969 4595 
Q 1241 4863 1831 4863 
L 2375 4863 
z
" transform="scale(0.015625)"/>
      <path id="DejaVuSans-68" d="M 3513 2113 
L 3513 0 
L 2938 0 
L 2938 2094 
Q 2938 2591 2744 2837 
Q 2550 3084 2163 3084 
Q 1697 3084 1428 2787 
Q 1159 2491 1159 1978 
L 1159 0 
L 581 0 
L 581 4863 
L 1159 4863 
L 1159 2956 
Q 1366 3272 1645 3428 
Q 1925 3584 2291 3584 
Q 2894 3584 3203 3211 
Q 3513 2838 3513 2113 
z
" transform="scale(0.015625)"/>
      <path id="DejaVuSans-75" d="M 544 1381 
L 544 3500 
L 1119 3500 
L 1119 1403 
Q 1119 906 1312 657 
Q 1506 409 1894 409 
Q 2359 409 2629 706 
Q 2900 1003 2900 1516 
L 2900 3500 
L 3475 3500 
L 3475 0 
L 2900 0 
L 2900 538 
Q 2691 219 2414 64 
Q 2138 -91 1772 -91 
Q 1169 -91 856 284 
Q 544 659 544 1381 
z
M 1991 3584 
L 1991 3584 
z
" transform="scale(0.015625)"/>
      <path id="DejaVuSans-69" d="M 603 3500 
L 1178 3500 
L 1178 0 
L 603 0 
L 603 3500 
z
M 603 4863 
L 1178 4863 
L 1178 4134 
L 603 4134 
L 603 4863 
z
" transform="scale(0.015625)"/>
     </defs>
     <use xlink:href="#DejaVuSans-52"/>
     <use xlink:href="#DejaVuSans-6f" x="64.982422"/>
     <use xlink:href="#DejaVuSans-62" x="126.164062"/>
     <use xlink:href="#DejaVuSans-65" x="189.640625"/>
     <use xlink:href="#DejaVuSans-72" x="251.164062"/>
     <use xlink:href="#DejaVuSans-74" x="292.277344"/>
     <use xlink:href="#DejaVuSans-73" x="331.486328"/>
     <use xlink:href="#DejaVuSans-6f" x="383.585938"/>
     <use xlink:href="#DejaVuSans-6e" x="444.767578"/>
     <use xlink:href="#DejaVuSans-20" x="508.146484"/>
     <use xlink:href="#DejaVuSans-2d" x="539.933594"/>
     <use xlink:href="#DejaVuSans-20" x="576.017578"/>
     <use xlink:href="#DejaVuSans-73" x="607.804688"/>
     <use xlink:href="#DejaVuSans-65" x="659.904297"/>
     <use xlink:href="#DejaVuSans-63" x="721.427734"/>
     <use xlink:href="#DejaVuSans-6f" x="776.408203"/>
     <use xlink:href="#DejaVuSans-6e" x="837.589844"/>
     <use xlink:href="#DejaVuSans-64" x="900.96875"/>
     <use xlink:href="#DejaVuSans-20" x="964.445312"/>
     <use xlink:href="#DejaVuSans-65" x="996.232422"/>
     <use xlink:href="#DejaVuSans-6c" x="1057.755859"/>
     <use xlink:href="#DejaVuSans-65" x="1085.539062"/>
     <use xlink:href="#DejaVuSans-6d" x="1147.0625"/>
     <use xlink:href="#DejaVuSans-65" x="1244.474609"/>
     <use xlink:href="#DejaVuSans-6e" x="1305.998047"/>
     <use xlink:href="#DejaVuSans-74" x="1369.376953"/>
     <use xlink:href="#DejaVuSans-20" x="1408.585938"/>
     <use xlink:href="#DejaVuSans-6f" x="1440.373047"/>
     <use xlink:href="#DejaVuSans-66" x="1501.554688"/>
     <use xlink:href="#DejaVuSans-20" x="1536.759766"/>
     <use xlink:href="#DejaVuSans-74" x="1568.546875"/>
     <use xlink:href="#DejaVuSans-68" x="1607.755859"/>
     <use xlink:href="#DejaVuSans-65" x="1671.134766"/>
     <use xlink:href="#DejaVuSans-20" x="1732.658203"/>
     <use xlink:href="#DejaVuSans-73" x="1764.445312"/>
     <use xlink:href="#DejaVuSans-6f" x="1816.544922"/>
     <use xlink:href="#DejaVuSans-6c" x="1877.726562"/>
     <use xlink:href="#DejaVuSans-75" x="1905.509766"/>
     <use xlink:href="#DejaVuSans-74" x="1968.888672"/>
     <use xlink:href="#DejaVuSans-69" x="2008.097656"/>
     <use xlink:href="#DejaVuSans-6f" x="2035.880859"/>
     <use xlink:href="#DejaVuSans-6e" x="2097.0625"/>
    </g>
   </g>
   <g id="legend_1">
    <g id="patch_7">
     <path d="M 270.670577 75.186875 
L 500.044015 75.186875 
Q 502.044015 75.186875 502.044015 73.186875 
L 502.044015 29.318125 
Q 502.044015 27.318125 500.044015 27.318125 
L 270.670577 27.318125 
Q 268.670577 27.318125 268.670577 29.318125 
L 268.670577 73.186875 
Q 268.670577 75.186875 270.670577 75.186875 
z
" style="fill: #ffffff; opacity: 0.8; stroke: #cccccc; stroke-linejoin: miter"/>
    </g>
    <g id="line2d_32">
     <path d="M 272.670577 35.416562 
L 287.670577 35.416562 
L 302.670577 35.416562 
" style="fill: none; stroke: #1f77b4; stroke-width: 1.5; stroke-linecap: square"/>
     <g>
      <use xlink:href="#m1d00ffd03c" x="287.670577" y="35.416562" style="fill: #1f77b4; stroke: #1f77b4"/>
     </g>
    </g>
    <g id="text_19">
     <!-- Radau5, n_accepted = 15 -->
     <g transform="translate(310.670577 38.916562) scale(0.1 -0.1)">
      <defs>
       <path id="DejaVuSans-61" d="M 2194 1759 
Q 1497 1759 1228 1600 
Q 959 1441 959 1056 
Q 959 750 1161 570 
Q 1363 391 1709 391 
Q 2188 391 2477 730 
Q 2766 1069 2766 1631 
L 2766 1759 
L 2194 1759 
z
M 3341 1997 
L 3341 0 
L 2766 0 
L 2766 531 
Q 2569 213 2275 61 
Q 1981 -91 1556 -91 
Q 1019 -91 701 211 
Q 384 513 384 1019 
Q 384 1609 779 1909 
Q 1175 2209 1959 2209 
L 2766 2209 
L 2766 2266 
Q 2766 2663 2505 2880 
Q 2244 3097 1772 3097 
Q 1472 3097 1187 3025 
Q 903 2953 641 2809 
L 641 3341 
Q 956 3463 1253 3523 
Q 1550 3584 1831 3584 
Q 2591 3584 2966 3190 
Q 3341 2797 3341 1997 
z
" transform="scale(0.015625)"/>
       <path id="DejaVuSans-2c" d="M 750 794 
L 1409 794 
L 1409 256 
L 897 -744 
L 494 -744 
L 750 256 
L 750 794 
z
" transform="scale(0.015625)"/>
       <path id="DejaVuSans-5f" d="M 3263 -1063 
L 3263 -1509 
L -63 -1509 
L -63 -1063 
L 3263 -1063 
z
" transform="scale(0.015625)"/>
       <path id="DejaVuSans-70" d="M 1159 525 
L 1159 -1331 
L 581 -1331 
L 581 3500 
L 1159 3500 
L 1159 2969 
Q 1341 3281 1617 3432 
Q 1894 3584 2278 3584 
Q 2916 3584 3314 3078 
Q 3713 2572 3713 1747 
Q 3713 922 3314 415 
Q 2916 -91 2278 -91 
Q 1894 -91 1617 61 
Q 1341 213 1159 525 
z
M 3116 1747 
Q 3116 2381 2855 2742 
Q 2594 3103 2138 3103 
Q 1681 3103 1420 2742 
Q 1159 2381 1159 1747 
Q 1159 1113 1420 752 
Q 1681 391 2138 391 
Q 2594 391 2855 752 
Q 3116 1113 3116 1747 
z
" transform="scale(0.015625)"/>
       <path id="DejaVuSans-3d" d="M 678 2906 
L 4684 2906 
L 4684 2381 
L 678 2381 
L 678 2906 
z
M 678 1631 
L 4684 1631 
L 4684 1100 
L 678 1100 
L 678 1631 
z
" transform="scale(0.015625)"/>
      </defs>
      <use xlink:href="#DejaVuSans-52"/>
      <use xlink:href="#DejaVuSans-61" x="67.232422"/>
      <use xlink:href="#DejaVuSans-64" x="128.511719"/>
      <use xlink:href="#DejaVuSans-61" x="191.988281"/>
      <use xlink:href="#DejaVuSans-75" x="253.267578"/>
      <use xlink:href="#DejaVuSans-35" x="316.646484"/>
      <use xlink:href="#DejaVuSans-2c" x="380.269531"/>
      <use xlink:href="#DejaVuSans-20" x="412.056641"/>
      <use xlink:href="#DejaVuSans-6e" x="443.84375"/>
      <use xlink:href="#DejaVuSans-5f" x="507.222656"/>
      <use xlink:href="#DejaVuSans-61" x="557.222656"/>
      <use xlink:href="#DejaVuSans-63" x="618.501953"/>
      <use xlink:href="#DejaVuSans-63" x="673.482422"/>
      <use xlink:href="#DejaVuSans-65" x="728.462891"/>
      <use xlink:href="#DejaVuSans-70" x="789.986328"/>
      <use xlink:href="#DejaVuSans-74" x="853.462891"/>
      <use xlink:href="#DejaVuSans-65" x="892.671875"/>
      <use xlink:href="#DejaVuSans-64" x="954.195312"/>
      <use xlink:href="#DejaVuSans-20" x="1017.671875"/>
      <use xlink:href="#DejaVuSans-3d" x="1049.458984"/>
      <use xlink:href="#DejaVuSans-20" x="1133.248047"/>
      <use xlink:href="#DejaVuSans-31" x="1165.035156"/>
      <use xlink:href="#DejaVuSans-35" x="1228.658203"/>
     </g>
    </g>
    <g id="line2d_33">
     <path d="M 272.670577 50.372812 
L 287.670577 50.372812 
L 302.670577 50.372812 
" style="fill: none; stroke: #ff7f0e; stroke-width: 1.5; stroke-linecap: square"/>
    </g>
    <g id="text_20">
     <!-- DoPri5, Tol = 1e-2, n_accepted = 209 -->
     <g transform="translate(310.670577 53.872812) scale(0.1 -0.1)">
      <defs>
       <path id="DejaVuSans-44" d="M 1259 4147 
L 1259 519 
L 2022 519 
Q 2988 519 3436 956 
Q 3884 1394 3884 2338 
Q 3884 3275 3436 3711 
Q 2988 4147 2022 4147 
L 1259 4147 
z
M 628 4666 
L 1925 4666 
Q 3281 4666 3915 4102 
Q 4550 3538 4550 2338 
Q 4550 1131 3912 565 
Q 3275 0 1925 0 
L 628 0 
L 628 4666 
z
" transform="scale(0.015625)"/>
       <path id="DejaVuSans-50" d="M 1259 4147 
L 1259 2394 
L 2053 2394 
Q 2494 2394 2734 2622 
Q 2975 2850 2975 3272 
Q 2975 3691 2734 3919 
Q 2494 4147 2053 4147 
L 1259 4147 
z
M 628 4666 
L 2053 4666 
Q 2838 4666 3239 4311 
Q 3641 3956 3641 3272 
Q 3641 2581 3239 2228 
Q 2838 1875 2053 1875 
L 1259 1875 
L 1259 0 
L 628 0 
L 628 4666 
z
" transform="scale(0.015625)"/>
       <path id="DejaVuSans-54" d="M -19 4666 
L 3928 4666 
L 3928 4134 
L 2272 4134 
L 2272 0 
L 1638 0 
L 1638 4134 
L -19 4134 
L -19 4666 
z
" transform="scale(0.015625)"/>
       <path id="DejaVuSans-39" d="M 703 97 
L 703 672 
Q 941 559 1184 500 
Q 1428 441 1663 441 
Q 2288 441 2617 861 
Q 2947 1281 2994 2138 
Q 2813 1869 2534 1725 
Q 2256 1581 1919 1581 
Q 1219 1581 811 2004 
Q 403 2428 403 3163 
Q 403 3881 828 4315 
Q 1253 4750 1959 4750 
Q 2769 4750 3195 4129 
Q 3622 3509 3622 2328 
Q 3622 1225 3098 567 
Q 2575 -91 1691 -91 
Q 1453 -91 1209 -44 
Q 966 3 703 97 
z
M 1959 2075 
Q 2384 2075 2632 2365 
Q 2881 2656 2881 3163 
Q 2881 3666 2632 3958 
Q 2384 4250 1959 4250 
Q 1534 4250 1286 3958 
Q 1038 3666 1038 3163 
Q 1038 2656 1286 2365 
Q 1534 2075 1959 2075 
z
" transform="scale(0.015625)"/>
      </defs>
      <use xlink:href="#DejaVuSans-44"/>
      <use xlink:href="#DejaVuSans-6f" x="77.001953"/>
      <use xlink:href="#DejaVuSans-50" x="138.183594"/>
      <use xlink:href="#DejaVuSans-72" x="196.736328"/>
      <use xlink:href="#DejaVuSans-69" x="237.849609"/>
      <use xlink:href="#DejaVuSans-35" x="265.632812"/>
      <use xlink:href="#DejaVuSans-2c" x="329.255859"/>
      <use xlink:href="#DejaVuSans-20" x="361.042969"/>
      <use xlink:href="#DejaVuSans-54" x="392.830078"/>
      <use xlink:href="#DejaVuSans-6f" x="436.914062"/>
      <use xlink:href="#DejaVuSans-6c" x="498.095703"/>
      <use xlink:href="#DejaVuSans-20" x="525.878906"/>
      <use xlink:href="#DejaVuSans-3d" x="557.666016"/>
      <use xlink:href="#DejaVuSans-20" x="641.455078"/>
      <use xlink:href="#DejaVuSans-31" x="673.242188"/>
      <use xlink:href="#DejaVuSans-65" x="736.865234"/>
      <use xlink:href="#DejaVuSans-2d" x="798.388672"/>
      <use xlink:href="#DejaVuSans-32" x="834.472656"/>
      <use xlink:href="#DejaVuSans-2c" x="898.095703"/>
      <use xlink:href="#DejaVuSans-20" x="929.882812"/>
      <use xlink:href="#DejaVuSans-6e" x="961.669922"/>
      <use xlink:href="#DejaVuSans-5f" x="1025.048828"/>
      <use xlink:href="#DejaVuSans-61" x="1075.048828"/>
      <use xlink:href="#DejaVuSans-63" x="1136.328125"/>
      <use xlink:href="#DejaVuSans-63" x="1191.308594"/>
      <use xlink:href="#DejaVuSans-65" x="1246.289062"/>
      <use xlink:href="#DejaVuSans-70" x="1307.8125"/>
      <use xlink:href="#DejaVuSans-74" x="1371.289062"/>
      <use xlink:href="#DejaVuSans-65" x="1410.498047"/>
      <use xlink:href="#DejaVuSans-64" x="1472.021484"/>
      <use xlink:href="#DejaVuSans-20" x="1535.498047"/>
      <use xlink:href="#DejaVuSans-3d" x="1567.285156"/>
      <use xlink:href="#DejaVuSans-20" x="1651.074219"/>
      <use xlink:href="#DejaVuSans-32" x="1682.861328"/>
      <use xlink:href="#DejaVuSans-30" x="1746.484375"/>
      <use xlink:href="#DejaVuSans-39" x="1810.107422"/>
     </g>
    </g>
    <g id="line2d_34">
     <path d="M 272.670577 65.329062 
L 287.670577 65.329062 
L 302.670577 65.329062 
" style="fill: none; stroke: #2ca02c; stroke-width: 1.5; stroke-linecap: square"/>
    </g>
    <g id="text_21">
     <!-- DoPri5, Tol = 1e-3, n_accepted = 205 -->
     <g transform="translate(310.670577 68.829062) scale(0.1 -0.1)">
      <use xlink:href="#DejaVuSans-44"/>
      <use xlink:href="#DejaVuSans-6f" x="77.001953"/>
      <use xlink:href="#DejaVuSans-50" x="138.183594"/>
      <use xlink:href="#DejaVuSans-72" x="196.736328"/>
      <use xlink:href="#DejaVuSans-69" x="237.849609"/>
      <use xlink:href="#DejaVuSans-35" x="265.632812"/>
      <use xlink:href="#DejaVuSans-2c" x="329.255859"/>
      <use xlink:href="#DejaVuSans-20" x="361.042969"/>
      <use xlink:href="#DejaVuSans-54" x="392.830078"/>
      <use xlink:href="#DejaVuSans-6f" x="436.914062"/>
      <use xlink:href="#DejaVuSans-6c" x="498.095703"/>
      <use xlink:href="#DejaVuSans-20" x="525.878906"/>
      <use xlink:href="#DejaVuSans-3d" x="557.666016"/>
      <use xlink:href="#DejaVuSans-20" x="641.455078"/>
      <use xlink:href="#DejaVuSans-31" x="673.242188"/>
      <use xlink:href="#DejaVuSans-65" x="736.865234"/>
      <use xlink:href="#DejaVuSans-2d" x="798.388672"/>
      <use xlink:href="#DejaVuSans-33" x="834.472656"/>
      <use xlink:href="#DejaVuSans-2c" x="898.095703"/>
      <use xlink:href="#DejaVuSans-20" x="929.882812"/>
      <use xlink:href="#DejaVuSans-6e" x="961.669922"/>
      <use xlink:href="#DejaVuSans-5f" x="1025.048828"/>
      <use xlink:href="#DejaVuSans-61" x="1075.048828"/>
      <use xlink:href="#DejaVuSans-63" x="1136.328125"/>
      <use xlink:href="#DejaVuSans-63" x="1191.308594"/>
      <use xlink:href="#DejaVuSans-65" x="1246.289062"/>
      <use xlink:href="#DejaVuSans-70" x="1307.8125"/>
      <use xlink:href="#DejaVuSans-74" x="1371.289062"/>
      <use xlink:href="#DejaVuSans-65" x="1410.498047"/>
      <use xlink:href="#DejaVuSans-64" x="1472.021484"/>
      <use xlink:href="#DejaVuSans-20" x="1535.498047"/>
      <use xlink:href="#DejaVuSans-3d" x="1567.285156"/>
      <use xlink:href="#DejaVuSans-20" x="1651.074219"/>
      <use xlink:href="#DejaVuSans-32" x="1682.861328"/>
      <use xlink:href="#DejaVuSans-30" x="1746.484375"/>
      <use xlink:href="#DejaVuSans-35" x="1810.107422"/>
     </g>
    </g>
   </g>
  </g>
 </g>
 <defs>
  <clipPath id="pfcfc2bbef6">
   <rect x="43.78125" y="22.318125" width="463.262765" height="306.849315"/>
  </clipPath>
 </defs>
</svg>
