<?xml version="1.0" encoding="utf-8" standalone="no"?>
<!DOCTYPE svg PUBLIC "-//W3C//DTD SVG 1.1//EN"
  "http://www.w3.org/Graphics/SVG/1.1/DTD/svg11.dtd">
<svg xmlns:xlink="http://www.w3.org/1999/xlink" width="411.3075pt" height="310.86825pt" viewBox="0 0 411.3075 310.86825" xmlns="http://www.w3.org/2000/svg" version="1.1">
 <metadata>
  <rdf:RDF xmlns:dc="http://purl.org/dc/elements/1.1/" xmlns:cc="http://creativecommons.org/ns#" xmlns:rdf="http://www.w3.org/1999/02/22-rdf-syntax-ns#">
   <cc:Work>
    <dc:type rdf:resource="http://purl.org/dc/dcmitype/StillImage"/>
    <dc:date>2025-04-14T18:17:36.241436</dc:date>
    <dc:format>image/svg+xml</dc:format>
    <dc:creator>
     <cc:Agent>
      <dc:title>Matplotlib v3.6.3, https://matplotlib.org/</dc:title>
     </cc:Agent>
    </dc:creator>
   </cc:Work>
  </rdf:RDF>
 </metadata>
 <defs>
  <style type="text/css">*{stroke-linejoin: round; stroke-linecap: butt}</style>
 </defs>
 <g id="figure_1">
  <g id="patch_1">
   <path d="M 0 310.86825 
L 411.3075 310.86825 
L 411.3075 0 
L 0 0 
z
" style="fill: #ffffff"/>
  </g>
  <g id="axes_1">
   <g id="patch_2">
    <path d="M 46.9875 273.312 
L 404.1075 273.312 
L 404.1075 7.2 
L 46.9875 7.2 
z
" style="fill: #ffffff"/>
   </g>
   <g id="matplotlib.axis_1">
    <g id="xtick_1">
     <g id="line2d_1">
      <path d="M 63.220227 273.312 
L 63.220227 7.2 
" clip-path="url(#p07e9065497)" style="fill: none; stroke-dasharray: 2.96,1.28; stroke-dashoffset: 0; stroke: #808080; stroke-width: 0.8"/>
     </g>
     <g id="line2d_2">
      <defs>
       <path id="m7a23d32729" d="M 0 0 
L 0 3.5 
" style="stroke: #000000; stroke-width: 0.8"/>
      </defs>
      <g>
       <use xlink:href="#m7a23d32729" x="63.220227" y="273.312" style="stroke: #000000; stroke-width: 0.8"/>
      </g>
     </g>
     <g id="text_1">
      <!-- 0.00 -->
      <g transform="translate(52.087415 287.910437) scale(0.1 -0.1)">
       <defs>
        <path id="DejaVuSans-30" d="M 2034 4250 
Q 1547 4250 1301 3770 
Q 1056 3291 1056 2328 
Q 1056 1369 1301 889 
Q 1547 409 2034 409 
Q 2525 409 2770 889 
Q 3016 1369 3016 2328 
Q 3016 3291 2770 3770 
Q 2525 4250 2034 4250 
z
M 2034 4750 
Q 2819 4750 3233 4129 
Q 3647 3509 3647 2328 
Q 3647 1150 3233 529 
Q 2819 -91 2034 -91 
Q 1250 -91 836 529 
Q 422 1150 422 2328 
Q 422 3509 836 4129 
Q 1250 4750 2034 4750 
z
" transform="scale(0.015625)"/>
        <path id="DejaVuSans-2e" d="M 684 794 
L 1344 794 
L 1344 0 
L 684 0 
L 684 794 
z
" transform="scale(0.015625)"/>
       </defs>
       <use xlink:href="#DejaVuSans-30"/>
       <use xlink:href="#DejaVuSans-2e" x="63.623047"/>
       <use xlink:href="#DejaVuSans-30" x="95.410156"/>
       <use xlink:href="#DejaVuSans-30" x="159.033203"/>
      </g>
     </g>
    </g>
    <g id="xtick_2">
     <g id="line2d_3">
      <path d="M 128.151136 273.312 
L 128.151136 7.2 
" clip-path="url(#p07e9065497)" style="fill: none; stroke-dasharray: 2.96,1.28; stroke-dashoffset: 0; stroke: #808080; stroke-width: 0.8"/>
     </g>
     <g id="line2d_4">
      <g>
       <use xlink:href="#m7a23d32729" x="128.151136" y="273.312" style="stroke: #000000; stroke-width: 0.8"/>
      </g>
     </g>
     <g id="text_2">
      <!-- 0.01 -->
      <g transform="translate(117.018324 287.910437) scale(0.1 -0.1)">
       <defs>
        <path id="DejaVuSans-31" d="M 794 531 
L 1825 531 
L 1825 4091 
L 703 3866 
L 703 4441 
L 1819 4666 
L 2450 4666 
L 2450 531 
L 3481 531 
L 3481 0 
L 794 0 
L 794 531 
z
" transform="scale(0.015625)"/>
       </defs>
       <use xlink:href="#DejaVuSans-30"/>
       <use xlink:href="#DejaVuSans-2e" x="63.623047"/>
       <use xlink:href="#DejaVuSans-30" x="95.410156"/>
       <use xlink:href="#DejaVuSans-31" x="159.033203"/>
      </g>
     </g>
    </g>
    <g id="xtick_3">
     <g id="line2d_5">
      <path d="M 193.082045 273.312 
L 193.082045 7.2 
" clip-path="url(#p07e9065497)" style="fill: none; stroke-dasharray: 2.96,1.28; stroke-dashoffset: 0; stroke: #808080; stroke-width: 0.8"/>
     </g>
     <g id="line2d_6">
      <g>
       <use xlink:href="#m7a23d32729" x="193.082045" y="273.312" style="stroke: #000000; stroke-width: 0.8"/>
      </g>
     </g>
     <g id="text_3">
      <!-- 0.02 -->
      <g transform="translate(181.949233 287.910437) scale(0.1 -0.1)">
       <defs>
        <path id="DejaVuSans-32" d="M 1228 531 
L 3431 531 
L 3431 0 
L 469 0 
L 469 531 
Q 828 903 1448 1529 
Q 2069 2156 2228 2338 
Q 2531 2678 2651 2914 
Q 2772 3150 2772 3378 
Q 2772 3750 2511 3984 
Q 2250 4219 1831 4219 
Q 1534 4219 1204 4116 
Q 875 4013 500 3803 
L 500 4441 
Q 881 4594 1212 4672 
Q 1544 4750 1819 4750 
Q 2544 4750 2975 4387 
Q 3406 4025 3406 3419 
Q 3406 3131 3298 2873 
Q 3191 2616 2906 2266 
Q 2828 2175 2409 1742 
Q 1991 1309 1228 531 
z
" transform="scale(0.015625)"/>
       </defs>
       <use xlink:href="#DejaVuSans-30"/>
       <use xlink:href="#DejaVuSans-2e" x="63.623047"/>
       <use xlink:href="#DejaVuSans-30" x="95.410156"/>
       <use xlink:href="#DejaVuSans-32" x="159.033203"/>
      </g>
     </g>
    </g>
    <g id="xtick_4">
     <g id="line2d_7">
      <path d="M 258.012955 273.312 
L 258.012955 7.2 
" clip-path="url(#p07e9065497)" style="fill: none; stroke-dasharray: 2.96,1.28; stroke-dashoffset: 0; stroke: #808080; stroke-width: 0.8"/>
     </g>
     <g id="line2d_8">
      <g>
       <use xlink:href="#m7a23d32729" x="258.012955" y="273.312" style="stroke: #000000; stroke-width: 0.8"/>
      </g>
     </g>
     <g id="text_4">
      <!-- 0.03 -->
      <g transform="translate(246.880142 287.910437) scale(0.1 -0.1)">
       <defs>
        <path id="DejaVuSans-33" d="M 2597 2516 
Q 3050 2419 3304 2112 
Q 3559 1806 3559 1356 
Q 3559 666 3084 287 
Q 2609 -91 1734 -91 
Q 1441 -91 1130 -33 
Q 819 25 488 141 
L 488 750 
Q 750 597 1062 519 
Q 1375 441 1716 441 
Q 2309 441 2620 675 
Q 2931 909 2931 1356 
Q 2931 1769 2642 2001 
Q 2353 2234 1838 2234 
L 1294 2234 
L 1294 2753 
L 1863 2753 
Q 2328 2753 2575 2939 
Q 2822 3125 2822 3475 
Q 2822 3834 2567 4026 
Q 2313 4219 1838 4219 
Q 1578 4219 1281 4162 
Q 984 4106 628 3988 
L 628 4550 
Q 988 4650 1302 4700 
Q 1616 4750 1894 4750 
Q 2613 4750 3031 4423 
Q 3450 4097 3450 3541 
Q 3450 3153 3228 2886 
Q 3006 2619 2597 2516 
z
" transform="scale(0.015625)"/>
       </defs>
       <use xlink:href="#DejaVuSans-30"/>
       <use xlink:href="#DejaVuSans-2e" x="63.623047"/>
       <use xlink:href="#DejaVuSans-30" x="95.410156"/>
       <use xlink:href="#DejaVuSans-33" x="159.033203"/>
      </g>
     </g>
    </g>
    <g id="xtick_5">
     <g id="line2d_9">
      <path d="M 322.943864 273.312 
L 322.943864 7.2 
" clip-path="url(#p07e9065497)" style="fill: none; stroke-dasharray: 2.96,1.28; stroke-dashoffset: 0; stroke: #808080; stroke-width: 0.8"/>
     </g>
     <g id="line2d_10">
      <g>
       <use xlink:href="#m7a23d32729" x="322.943864" y="273.312" style="stroke: #000000; stroke-width: 0.8"/>
      </g>
     </g>
     <g id="text_5">
      <!-- 0.04 -->
      <g transform="translate(311.811051 287.910437) scale(0.1 -0.1)">
       <defs>
        <path id="DejaVuSans-34" d="M 2419 4116 
L 825 1625 
L 2419 1625 
L 2419 4116 
z
M 2253 4666 
L 3047 4666 
L 3047 1625 
L 3713 1625 
L 3713 1100 
L 3047 1100 
L 3047 0 
L 2419 0 
L 2419 1100 
L 313 1100 
L 313 1709 
L 2253 4666 
z
" transform="scale(0.015625)"/>
       </defs>
       <use xlink:href="#DejaVuSans-30"/>
       <use xlink:href="#DejaVuSans-2e" x="63.623047"/>
       <use xlink:href="#DejaVuSans-30" x="95.410156"/>
       <use xlink:href="#DejaVuSans-34" x="159.033203"/>
      </g>
     </g>
    </g>
    <g id="xtick_6">
     <g id="line2d_11">
      <path d="M 387.874773 273.312 
L 387.874773 7.2 
" clip-path="url(#p07e9065497)" style="fill: none; stroke-dasharray: 2.96,1.28; stroke-dashoffset: 0; stroke: #808080; stroke-width: 0.8"/>
     </g>
     <g id="line2d_12">
      <g>
       <use xlink:href="#m7a23d32729" x="387.874773" y="273.312" style="stroke: #000000; stroke-width: 0.8"/>
      </g>
     </g>
     <g id="text_6">
      <!-- 0.05 -->
      <g transform="translate(376.74196 287.910437) scale(0.1 -0.1)">
       <defs>
        <path id="DejaVuSans-35" d="M 691 4666 
L 3169 4666 
L 3169 4134 
L 1269 4134 
L 1269 2991 
Q 1406 3038 1543 3061 
Q 1681 3084 1819 3084 
Q 2600 3084 3056 2656 
Q 3513 2228 3513 1497 
Q 3513 744 3044 326 
Q 2575 -91 1722 -91 
Q 1428 -91 1123 -41 
Q 819 9 494 109 
L 494 744 
Q 775 591 1075 516 
Q 1375 441 1709 441 
Q 2250 441 2565 725 
Q 2881 1009 2881 1497 
Q 2881 1984 2565 2268 
Q 2250 2553 1709 2553 
Q 1456 2553 1204 2497 
Q 953 2441 691 2322 
L 691 4666 
z
" transform="scale(0.015625)"/>
       </defs>
       <use xlink:href="#DejaVuSans-30"/>
       <use xlink:href="#DejaVuSans-2e" x="63.623047"/>
       <use xlink:href="#DejaVuSans-30" x="95.410156"/>
       <use xlink:href="#DejaVuSans-35" x="159.033203"/>
      </g>
     </g>
    </g>
    <g id="text_7">
     <!-- $x$ -->
     <g transform="translate(222.5475 301.588562) scale(0.1 -0.1)">
      <defs>
       <path id="DejaVuSans-Oblique-78" d="M 3841 3500 
L 2234 1784 
L 3219 0 
L 2559 0 
L 1819 1388 
L 531 0 
L -166 0 
L 1556 1844 
L 641 3500 
L 1300 3500 
L 1972 2234 
L 3144 3500 
L 3841 3500 
z
" transform="scale(0.015625)"/>
      </defs>
      <use xlink:href="#DejaVuSans-Oblique-78" transform="translate(0 0.3125)"/>
     </g>
    </g>
   </g>
   <g id="matplotlib.axis_2">
    <g id="ytick_1">
     <g id="line2d_13">
      <path d="M 46.9875 248.443069 
L 404.1075 248.443069 
" clip-path="url(#p07e9065497)" style="fill: none; stroke-dasharray: 2.96,1.28; stroke-dashoffset: 0; stroke: #808080; stroke-width: 0.8"/>
     </g>
     <g id="line2d_14">
      <defs>
       <path id="m83db7350f8" d="M 0 0 
L -3.5 0 
" style="stroke: #000000; stroke-width: 0.8"/>
      </defs>
      <g>
       <use xlink:href="#m83db7350f8" x="46.9875" y="248.443069" style="stroke: #000000; stroke-width: 0.8"/>
      </g>
     </g>
     <g id="text_8">
      <!-- 220 -->
      <g transform="translate(20.9 252.242287) scale(0.1 -0.1)">
       <use xlink:href="#DejaVuSans-32"/>
       <use xlink:href="#DejaVuSans-32" x="63.623047"/>
       <use xlink:href="#DejaVuSans-30" x="127.246094"/>
      </g>
     </g>
    </g>
    <g id="ytick_2">
     <g id="line2d_15">
      <path d="M 46.9875 202.613655 
L 404.1075 202.613655 
" clip-path="url(#p07e9065497)" style="fill: none; stroke-dasharray: 2.96,1.28; stroke-dashoffset: 0; stroke: #808080; stroke-width: 0.8"/>
     </g>
     <g id="line2d_16">
      <g>
       <use xlink:href="#m83db7350f8" x="46.9875" y="202.613655" style="stroke: #000000; stroke-width: 0.8"/>
      </g>
     </g>
     <g id="text_9">
      <!-- 240 -->
      <g transform="translate(20.9 206.412874) scale(0.1 -0.1)">
       <use xlink:href="#DejaVuSans-32"/>
       <use xlink:href="#DejaVuSans-34" x="63.623047"/>
       <use xlink:href="#DejaVuSans-30" x="127.246094"/>
      </g>
     </g>
    </g>
    <g id="ytick_3">
     <g id="line2d_17">
      <path d="M 46.9875 156.784241 
L 404.1075 156.784241 
" clip-path="url(#p07e9065497)" style="fill: none; stroke-dasharray: 2.96,1.28; stroke-dashoffset: 0; stroke: #808080; stroke-width: 0.8"/>
     </g>
     <g id="line2d_18">
      <g>
       <use xlink:href="#m83db7350f8" x="46.9875" y="156.784241" style="stroke: #000000; stroke-width: 0.8"/>
      </g>
     </g>
     <g id="text_10">
      <!-- 260 -->
      <g transform="translate(20.9 160.58346) scale(0.1 -0.1)">
       <defs>
        <path id="DejaVuSans-36" d="M 2113 2584 
Q 1688 2584 1439 2293 
Q 1191 2003 1191 1497 
Q 1191 994 1439 701 
Q 1688 409 2113 409 
Q 2538 409 2786 701 
Q 3034 994 3034 1497 
Q 3034 2003 2786 2293 
Q 2538 2584 2113 2584 
z
M 3366 4563 
L 3366 3988 
Q 3128 4100 2886 4159 
Q 2644 4219 2406 4219 
Q 1781 4219 1451 3797 
Q 1122 3375 1075 2522 
Q 1259 2794 1537 2939 
Q 1816 3084 2150 3084 
Q 2853 3084 3261 2657 
Q 3669 2231 3669 1497 
Q 3669 778 3244 343 
Q 2819 -91 2113 -91 
Q 1303 -91 875 529 
Q 447 1150 447 2328 
Q 447 3434 972 4092 
Q 1497 4750 2381 4750 
Q 2619 4750 2861 4703 
Q 3103 4656 3366 4563 
z
" transform="scale(0.015625)"/>
       </defs>
       <use xlink:href="#DejaVuSans-32"/>
       <use xlink:href="#DejaVuSans-36" x="63.623047"/>
       <use xlink:href="#DejaVuSans-30" x="127.246094"/>
      </g>
     </g>
    </g>
    <g id="ytick_4">
     <g id="line2d_19">
      <path d="M 46.9875 110.954827 
L 404.1075 110.954827 
" clip-path="url(#p07e9065497)" style="fill: none; stroke-dasharray: 2.96,1.28; stroke-dashoffset: 0; stroke: #808080; stroke-width: 0.8"/>
     </g>
     <g id="line2d_20">
      <g>
       <use xlink:href="#m83db7350f8" x="46.9875" y="110.954827" style="stroke: #000000; stroke-width: 0.8"/>
      </g>
     </g>
     <g id="text_11">
      <!-- 280 -->
      <g transform="translate(20.9 114.754046) scale(0.1 -0.1)">
       <defs>
        <path id="DejaVuSans-38" d="M 2034 2216 
Q 1584 2216 1326 1975 
Q 1069 1734 1069 1313 
Q 1069 891 1326 650 
Q 1584 409 2034 409 
Q 2484 409 2743 651 
Q 3003 894 3003 1313 
Q 3003 1734 2745 1975 
Q 2488 2216 2034 2216 
z
M 1403 2484 
Q 997 2584 770 2862 
Q 544 3141 544 3541 
Q 544 4100 942 4425 
Q 1341 4750 2034 4750 
Q 2731 4750 3128 4425 
Q 3525 4100 3525 3541 
Q 3525 3141 3298 2862 
Q 3072 2584 2669 2484 
Q 3125 2378 3379 2068 
Q 3634 1759 3634 1313 
Q 3634 634 3220 271 
Q 2806 -91 2034 -91 
Q 1263 -91 848 271 
Q 434 634 434 1313 
Q 434 1759 690 2068 
Q 947 2378 1403 2484 
z
M 1172 3481 
Q 1172 3119 1398 2916 
Q 1625 2713 2034 2713 
Q 2441 2713 2670 2916 
Q 2900 3119 2900 3481 
Q 2900 3844 2670 4047 
Q 2441 4250 2034 4250 
Q 1625 4250 1398 4047 
Q 1172 3844 1172 3481 
z
" transform="scale(0.015625)"/>
       </defs>
       <use xlink:href="#DejaVuSans-32"/>
       <use xlink:href="#DejaVuSans-38" x="63.623047"/>
       <use xlink:href="#DejaVuSans-30" x="127.246094"/>
      </g>
     </g>
    </g>
    <g id="ytick_5">
     <g id="line2d_21">
      <path d="M 46.9875 65.125414 
L 404.1075 65.125414 
" clip-path="url(#p07e9065497)" style="fill: none; stroke-dasharray: 2.96,1.28; stroke-dashoffset: 0; stroke: #808080; stroke-width: 0.8"/>
     </g>
     <g id="line2d_22">
      <g>
       <use xlink:href="#m83db7350f8" x="46.9875" y="65.125414" style="stroke: #000000; stroke-width: 0.8"/>
      </g>
     </g>
     <g id="text_12">
      <!-- 300 -->
      <g transform="translate(20.9 68.924632) scale(0.1 -0.1)">
       <use xlink:href="#DejaVuSans-33"/>
       <use xlink:href="#DejaVuSans-30" x="63.623047"/>
       <use xlink:href="#DejaVuSans-30" x="127.246094"/>
      </g>
     </g>
    </g>
    <g id="ytick_6">
     <g id="line2d_23">
      <path d="M 46.9875 19.296 
L 404.1075 19.296 
" clip-path="url(#p07e9065497)" style="fill: none; stroke-dasharray: 2.96,1.28; stroke-dashoffset: 0; stroke: #808080; stroke-width: 0.8"/>
     </g>
     <g id="line2d_24">
      <g>
       <use xlink:href="#m83db7350f8" x="46.9875" y="19.296" style="stroke: #000000; stroke-width: 0.8"/>
      </g>
     </g>
     <g id="text_13">
      <!-- 320 -->
      <g transform="translate(20.9 23.095219) scale(0.1 -0.1)">
       <use xlink:href="#DejaVuSans-33"/>
       <use xlink:href="#DejaVuSans-32" x="63.623047"/>
       <use xlink:href="#DejaVuSans-30" x="127.246094"/>
      </g>
     </g>
    </g>
    <g id="text_14">
     <!-- $\phi$ -->
     <g transform="translate(14.8 143.556) rotate(-90) scale(0.1 -0.1)">
      <defs>
       <path id="DejaVuSans-Oblique-3d5" d="M 2991 4863 
L 2738 3572 
Q 3363 3572 3684 3094 
Q 4016 2606 3850 1747 
Q 3681 888 3159 400 
Q 2653 -78 2028 -78 
L 1784 -1331 
L 1213 -1331 
L 1456 -78 
Q 834 -78 509 400 
Q 178 888 347 1747 
Q 513 2606 1034 3094 
Q 1544 3572 2166 3572 
L 2419 4863 
L 2991 4863 
z
M 2128 434 
Q 2481 434 2784 756 
Q 3116 1116 3244 1747 
Q 3369 2372 3169 2738 
Q 2991 3059 2638 3059 
L 2128 434 
z
M 1556 434 
L 2066 3059 
Q 1716 3059 1413 2738 
Q 1072 2372 953 1747 
Q 834 1116 1028 756 
Q 1203 434 1556 434 
z
" transform="scale(0.015625)"/>
      </defs>
      <use xlink:href="#DejaVuSans-Oblique-3d5" transform="translate(0 0.015625)"/>
     </g>
    </g>
   </g>
   <g id="line2d_25">
    <path d="M 63.220227 19.296 
L 66.466773 24.496705 
L 69.713318 29.629194 
L 72.959864 34.69398 
L 76.206409 39.691571 
L 79.452955 44.622465 
L 82.6995 49.487155 
L 85.946045 54.286128 
L 89.192591 59.019865 
L 92.439136 63.688837 
L 95.685682 68.293512 
L 98.932227 72.834351 
L 102.178773 77.311807 
L 105.425318 81.726328 
L 108.671864 86.078356 
L 111.918409 90.368325 
L 115.164955 94.596665 
L 118.4115 98.763798 
L 121.658045 102.870141 
L 124.904591 106.916105 
L 128.151136 110.902094 
L 131.397682 114.828507 
L 134.644227 118.695736 
L 137.890773 122.504168 
L 141.137318 126.254184 
L 144.383864 129.946159 
L 147.630409 133.580461 
L 150.876955 137.157455 
L 154.1235 140.677498 
L 157.370045 144.140941 
L 160.616591 147.548132 
L 163.863136 150.899411 
L 167.109682 154.195113 
L 170.356227 157.435567 
L 173.602773 160.621097 
L 176.849318 163.752023 
L 180.095864 166.828657 
L 183.342409 169.851306 
L 186.588955 172.820274 
L 189.8355 175.735856 
L 193.082045 178.598344 
L 196.328591 181.408025 
L 199.575136 184.16518 
L 202.821682 186.870083 
L 206.068227 189.523006 
L 209.314773 192.124214 
L 212.561318 194.673967 
L 215.807864 197.17252 
L 219.054409 199.620123 
L 222.300955 202.01702 
L 225.5475 204.363451 
L 228.794045 206.65965 
L 232.040591 208.905849 
L 235.287136 211.10227 
L 238.533682 213.249133 
L 241.780227 215.346654 
L 245.026773 217.395042 
L 248.273318 219.394501 
L 251.519864 221.345232 
L 254.766409 223.24743 
L 258.012955 225.101284 
L 261.2595 226.906981 
L 264.506045 228.664701 
L 267.752591 230.374619 
L 270.999136 232.036906 
L 274.245682 233.65173 
L 277.492227 235.21925 
L 280.738773 236.739625 
L 283.985318 238.213005 
L 287.231864 239.639539 
L 290.478409 241.019369 
L 293.724955 242.352632 
L 296.9715 243.639463 
L 300.218045 244.87999 
L 303.464591 246.074336 
L 306.711136 247.222622 
L 309.957682 248.324962 
L 313.204227 249.381466 
L 316.450773 250.39224 
L 319.697318 251.357385 
L 322.943864 252.276998 
L 326.190409 253.15117 
L 329.436955 253.979989 
L 332.6835 254.763538 
L 335.930045 255.501895 
L 339.176591 256.195134 
L 342.423136 256.843324 
L 345.669682 257.44653 
L 348.916227 258.004813 
L 352.162773 258.518228 
L 355.409318 258.986826 
L 358.655864 259.410655 
L 361.902409 259.789757 
L 365.148955 260.124169 
L 368.3955 260.413925 
L 371.642045 260.659055 
L 374.888591 260.859582 
L 378.135136 261.015526 
L 381.381682 261.126904 
L 384.628227 261.193727 
L 387.874773 261.216 
" clip-path="url(#p07e9065497)" style="fill: none; stroke: #1f77b4; stroke-width: 1.5; stroke-linecap: square"/>
   </g>
   <g id="line2d_26">
    <defs>
     <path id="mac37b76c98" d="M 0 3 
C 0.795609 3 1.55874 2.683901 2.12132 2.12132 
C 2.683901 1.55874 3 0.795609 3 0 
C 3 -0.795609 2.683901 -1.55874 2.12132 -2.12132 
C 1.55874 -2.683901 0.795609 -3 0 -3 
C -0.795609 -3 -1.55874 -2.683901 -2.12132 -2.12132 
C -2.683901 -1.55874 -3 -0.795609 -3 0 
C -3 0.795609 -2.683901 1.55874 -2.12132 2.12132 
C -1.55874 2.683901 -0.795609 3 0 3 
z
" style="stroke: #ff7f0e"/>
    </defs>
    <g clip-path="url(#p07e9065497)">
     <use xlink:href="#mac37b76c98" x="63.220227" y="19.296" style="fill: #ff7f0e; stroke: #ff7f0e"/>
     <use xlink:href="#mac37b76c98" x="79.452955" y="44.618411" style="fill: #ff7f0e; stroke: #ff7f0e"/>
     <use xlink:href="#mac37b76c98" x="95.685682" y="68.28574" style="fill: #ff7f0e; stroke: #ff7f0e"/>
     <use xlink:href="#mac37b76c98" x="111.918409" y="90.357147" style="fill: #ff7f0e; stroke: #ff7f0e"/>
     <use xlink:href="#mac37b76c98" x="128.151136" y="110.887804" style="fill: #ff7f0e; stroke: #ff7f0e"/>
     <use xlink:href="#mac37b76c98" x="144.383864" y="129.92903" style="fill: #ff7f0e; stroke: #ff7f0e"/>
     <use xlink:href="#mac37b76c98" x="160.616591" y="147.528423" style="fill: #ff7f0e; stroke: #ff7f0e"/>
     <use xlink:href="#mac37b76c98" x="176.849318" y="163.729975" style="fill: #ff7f0e; stroke: #ff7f0e"/>
     <use xlink:href="#mac37b76c98" x="193.082045" y="178.574185" style="fill: #ff7f0e; stroke: #ff7f0e"/>
     <use xlink:href="#mac37b76c98" x="209.314773" y="192.098158" style="fill: #ff7f0e; stroke: #ff7f0e"/>
     <use xlink:href="#mac37b76c98" x="225.5475" y="204.335701" style="fill: #ff7f0e; stroke: #ff7f0e"/>
     <use xlink:href="#mac37b76c98" x="241.780227" y="215.317403" style="fill: #ff7f0e; stroke: #ff7f0e"/>
     <use xlink:href="#mac37b76c98" x="258.012955" y="225.070715" style="fill: #ff7f0e; stroke: #ff7f0e"/>
     <use xlink:href="#mac37b76c98" x="274.245682" y="233.620016" style="fill: #ff7f0e; stroke: #ff7f0e"/>
     <use xlink:href="#mac37b76c98" x="290.478409" y="240.986678" style="fill: #ff7f0e; stroke: #ff7f0e"/>
     <use xlink:href="#mac37b76c98" x="306.711136" y="247.189115" style="fill: #ff7f0e; stroke: #ff7f0e"/>
     <use xlink:href="#mac37b76c98" x="322.943864" y="252.24283" style="fill: #ff7f0e; stroke: #ff7f0e"/>
     <use xlink:href="#mac37b76c98" x="339.176591" y="256.160457" style="fill: #ff7f0e; stroke: #ff7f0e"/>
     <use xlink:href="#mac37b76c98" x="355.409318" y="258.951787" style="fill: #ff7f0e; stroke: #ff7f0e"/>
     <use xlink:href="#mac37b76c98" x="371.642045" y="260.6238" style="fill: #ff7f0e; stroke: #ff7f0e"/>
     <use xlink:href="#mac37b76c98" x="387.874773" y="261.180673" style="fill: #ff7f0e; stroke: #ff7f0e"/>
    </g>
   </g>
   <g id="patch_3">
    <path d="M 46.9875 273.312 
L 46.9875 7.2 
" style="fill: none; stroke: #000000; stroke-width: 0.8; stroke-linejoin: miter; stroke-linecap: square"/>
   </g>
   <g id="patch_4">
    <path d="M 404.1075 273.312 
L 404.1075 7.2 
" style="fill: none; stroke: #000000; stroke-width: 0.8; stroke-linejoin: miter; stroke-linecap: square"/>
   </g>
   <g id="patch_5">
    <path d="M 46.9875 273.312 
L 404.1075 273.312 
" style="fill: none; stroke: #000000; stroke-width: 0.8; stroke-linejoin: miter; stroke-linecap: square"/>
   </g>
   <g id="patch_6">
    <path d="M 46.9875 7.2 
L 404.1075 7.2 
" style="fill: none; stroke: #000000; stroke-width: 0.8; stroke-linejoin: miter; stroke-linecap: square"/>
   </g>
   <g id="legend_1">
    <g id="patch_7">
     <path d="M 304.10125 44.55625 
L 397.1075 44.55625 
Q 399.1075 44.55625 399.1075 42.55625 
L 399.1075 14.2 
Q 399.1075 12.2 397.1075 12.2 
L 304.10125 12.2 
Q 302.10125 12.2 302.10125 14.2 
L 302.10125 42.55625 
Q 302.10125 44.55625 304.10125 44.55625 
z
" style="fill: #ffffff; opacity: 0.8; stroke: #cccccc; stroke-linejoin: miter"/>
    </g>
    <g id="line2d_27">
     <path d="M 306.10125 20.298437 
L 321.10125 20.298437 
L 336.10125 20.298437 
" style="fill: none; stroke: #1f77b4; stroke-width: 1.5; stroke-linecap: square"/>
    </g>
    <g id="text_15">
     <!-- Analytical -->
     <g transform="translate(344.10125 23.798437) scale(0.1 -0.1)">
      <defs>
       <path id="DejaVuSans-41" d="M 2188 4044 
L 1331 1722 
L 3047 1722 
L 2188 4044 
z
M 1831 4666 
L 2547 4666 
L 4325 0 
L 3669 0 
L 3244 1197 
L 1141 1197 
L 716 0 
L 50 0 
L 1831 4666 
z
" transform="scale(0.015625)"/>
       <path id="DejaVuSans-6e" d="M 3513 2113 
L 3513 0 
L 2938 0 
L 2938 2094 
Q 2938 2591 2744 2837 
Q 2550 3084 2163 3084 
Q 1697 3084 1428 2787 
Q 1159 2491 1159 1978 
L 1159 0 
L 581 0 
L 581 3500 
L 1159 3500 
L 1159 2956 
Q 1366 3272 1645 3428 
Q 1925 3584 2291 3584 
Q 2894 3584 3203 3211 
Q 3513 2838 3513 2113 
z
" transform="scale(0.015625)"/>
       <path id="DejaVuSans-61" d="M 2194 1759 
Q 1497 1759 1228 1600 
Q 959 1441 959 1056 
Q 959 750 1161 570 
Q 1363 391 1709 391 
Q 2188 391 2477 730 
Q 2766 1069 2766 1631 
L 2766 1759 
L 2194 1759 
z
M 3341 1997 
L 3341 0 
L 2766 0 
L 2766 531 
Q 2569 213 2275 61 
Q 1981 -91 1556 -91 
Q 1019 -91 701 211 
Q 384 513 384 1019 
Q 384 1609 779 1909 
Q 1175 2209 1959 2209 
L 2766 2209 
L 2766 2266 
Q 2766 2663 2505 2880 
Q 2244 3097 1772 3097 
Q 1472 3097 1187 3025 
Q 903 2953 641 2809 
L 641 3341 
Q 956 3463 1253 3523 
Q 1550 3584 1831 3584 
Q 2591 3584 2966 3190 
Q 3341 2797 3341 1997 
z
" transform="scale(0.015625)"/>
       <path id="DejaVuSans-6c" d="M 603 4863 
L 1178 4863 
L 1178 0 
L 603 0 
L 603 4863 
z
" transform="scale(0.015625)"/>
       <path id="DejaVuSans-79" d="M 2059 -325 
Q 1816 -950 1584 -1140 
Q 1353 -1331 966 -1331 
L 506 -1331 
L 506 -850 
L 844 -850 
Q 1081 -850 1212 -737 
Q 1344 -625 1503 -206 
L 1606 56 
L 191 3500 
L 800 3500 
L 1894 763 
L 2988 3500 
L 3597 3500 
L 2059 -325 
z
" transform="scale(0.015625)"/>
       <path id="DejaVuSans-74" d="M 1172 4494 
L 1172 3500 
L 2356 3500 
L 2356 3053 
L 1172 3053 
L 1172 1153 
Q 1172 725 1289 603 
Q 1406 481 1766 481 
L 2356 481 
L 2356 0 
L 1766 0 
Q 1100 0 847 248 
Q 594 497 594 1153 
L 594 3053 
L 172 3053 
L 172 3500 
L 594 3500 
L 594 4494 
L 1172 4494 
z
" transform="scale(0.015625)"/>
       <path id="DejaVuSans-69" d="M 603 3500 
L 1178 3500 
L 1178 0 
L 603 0 
L 603 3500 
z
M 603 4863 
L 1178 4863 
L 1178 4134 
L 603 4134 
L 603 4863 
z
" transform="scale(0.015625)"/>
       <path id="DejaVuSans-63" d="M 3122 3366 
L 3122 2828 
Q 2878 2963 2633 3030 
Q 2388 3097 2138 3097 
Q 1578 3097 1268 2742 
Q 959 2388 959 1747 
Q 959 1106 1268 751 
Q 1578 397 2138 397 
Q 2388 397 2633 464 
Q 2878 531 3122 666 
L 3122 134 
Q 2881 22 2623 -34 
Q 2366 -91 2075 -91 
Q 1284 -91 818 406 
Q 353 903 353 1747 
Q 353 2603 823 3093 
Q 1294 3584 2113 3584 
Q 2378 3584 2631 3529 
Q 2884 3475 3122 3366 
z
" transform="scale(0.015625)"/>
      </defs>
      <use xlink:href="#DejaVuSans-41"/>
      <use xlink:href="#DejaVuSans-6e" x="68.408203"/>
      <use xlink:href="#DejaVuSans-61" x="131.787109"/>
      <use xlink:href="#DejaVuSans-6c" x="193.066406"/>
      <use xlink:href="#DejaVuSans-79" x="220.849609"/>
      <use xlink:href="#DejaVuSans-74" x="280.029297"/>
      <use xlink:href="#DejaVuSans-69" x="319.238281"/>
      <use xlink:href="#DejaVuSans-63" x="347.021484"/>
      <use xlink:href="#DejaVuSans-61" x="402.001953"/>
      <use xlink:href="#DejaVuSans-6c" x="463.28125"/>
     </g>
    </g>
    <g id="line2d_28">
     <g>
      <use xlink:href="#mac37b76c98" x="321.10125" y="34.976562" style="fill: #ff7f0e; stroke: #ff7f0e"/>
     </g>
    </g>
    <g id="text_16">
     <!-- Numerical -->
     <g transform="translate(344.10125 38.476562) scale(0.1 -0.1)">
      <defs>
       <path id="DejaVuSans-4e" d="M 628 4666 
L 1478 4666 
L 3547 763 
L 3547 4666 
L 4159 4666 
L 4159 0 
L 3309 0 
L 1241 3903 
L 1241 0 
L 628 0 
L 628 4666 
z
" transform="scale(0.015625)"/>
       <path id="DejaVuSans-75" d="M 544 1381 
L 544 3500 
L 1119 3500 
L 1119 1403 
Q 1119 906 1312 657 
Q 1506 409 1894 409 
Q 2359 409 2629 706 
Q 2900 1003 2900 1516 
L 2900 3500 
L 3475 3500 
L 3475 0 
L 2900 0 
L 2900 538 
Q 2691 219 2414 64 
Q 2138 -91 1772 -91 
Q 1169 -91 856 284 
Q 544 659 544 1381 
z
M 1991 3584 
L 1991 3584 
z
" transform="scale(0.015625)"/>
       <path id="DejaVuSans-6d" d="M 3328 2828 
Q 3544 3216 3844 3400 
Q 4144 3584 4550 3584 
Q 5097 3584 5394 3201 
Q 5691 2819 5691 2113 
L 5691 0 
L 5113 0 
L 5113 2094 
Q 5113 2597 4934 2840 
Q 4756 3084 4391 3084 
Q 3944 3084 3684 2787 
Q 3425 2491 3425 1978 
L 3425 0 
L 2847 0 
L 2847 2094 
Q 2847 2600 2669 2842 
Q 2491 3084 2119 3084 
Q 1678 3084 1418 2786 
Q 1159 2488 1159 1978 
L 1159 0 
L 581 0 
L 581 3500 
L 1159 3500 
L 1159 2956 
Q 1356 3278 1631 3431 
Q 1906 3584 2284 3584 
Q 2666 3584 2933 3390 
Q 3200 3197 3328 2828 
z
" transform="scale(0.015625)"/>
       <path id="DejaVuSans-65" d="M 3597 1894 
L 3597 1613 
L 953 1613 
Q 991 1019 1311 708 
Q 1631 397 2203 397 
Q 2534 397 2845 478 
Q 3156 559 3463 722 
L 3463 178 
Q 3153 47 2828 -22 
Q 2503 -91 2169 -91 
Q 1331 -91 842 396 
Q 353 884 353 1716 
Q 353 2575 817 3079 
Q 1281 3584 2069 3584 
Q 2775 3584 3186 3129 
Q 3597 2675 3597 1894 
z
M 3022 2063 
Q 3016 2534 2758 2815 
Q 2500 3097 2075 3097 
Q 1594 3097 1305 2825 
Q 1016 2553 972 2059 
L 3022 2063 
z
" transform="scale(0.015625)"/>
       <path id="DejaVuSans-72" d="M 2631 2963 
Q 2534 3019 2420 3045 
Q 2306 3072 2169 3072 
Q 1681 3072 1420 2755 
Q 1159 2438 1159 1844 
L 1159 0 
L 581 0 
L 581 3500 
L 1159 3500 
L 1159 2956 
Q 1341 3275 1631 3429 
Q 1922 3584 2338 3584 
Q 2397 3584 2469 3576 
Q 2541 3569 2628 3553 
L 2631 2963 
z
" transform="scale(0.015625)"/>
      </defs>
      <use xlink:href="#DejaVuSans-4e"/>
      <use xlink:href="#DejaVuSans-75" x="74.804688"/>
      <use xlink:href="#DejaVuSans-6d" x="138.183594"/>
      <use xlink:href="#DejaVuSans-65" x="235.595703"/>
      <use xlink:href="#DejaVuSans-72" x="297.119141"/>
      <use xlink:href="#DejaVuSans-69" x="338.232422"/>
      <use xlink:href="#DejaVuSans-63" x="366.015625"/>
      <use xlink:href="#DejaVuSans-61" x="420.996094"/>
      <use xlink:href="#DejaVuSans-6c" x="482.275391"/>
     </g>
    </g>
   </g>
  </g>
 </g>
 <defs>
  <clipPath id="p07e9065497">
   <rect x="46.9875" y="7.2" width="357.12" height="266.112"/>
  </clipPath>
 </defs>
</svg>
