<?xml version="1.0" encoding="utf-8" standalone="no"?>
<!DOCTYPE svg PUBLIC "-//W3C//DTD SVG 1.1//EN"
  "http://www.w3.org/Graphics/SVG/1.1/DTD/svg11.dtd">
<svg xmlns:xlink="http://www.w3.org/1999/xlink" width="505.52866pt" height="495.151316pt" viewBox="0 0 505.52866 495.151316" xmlns="http://www.w3.org/2000/svg" version="1.1">
 <metadata>
  <rdf:RDF xmlns:dc="http://purl.org/dc/elements/1.1/" xmlns:cc="http://creativecommons.org/ns#" xmlns:rdf="http://www.w3.org/1999/02/22-rdf-syntax-ns#">
   <cc:Work>
    <dc:type rdf:resource="http://purl.org/dc/dcmitype/StillImage"/>
    <dc:date>2026-06-05T15:58:26.440366</dc:date>
    <dc:format>image/svg+xml</dc:format>
    <dc:creator>
     <cc:Agent>
      <dc:title>Matplotlib v3.10.9, https://matplotlib.org/</dc:title>
     </cc:Agent>
    </dc:creator>
   </cc:Work>
  </rdf:RDF>
 </metadata>
 <defs>
  <style type="text/css">*{stroke-linejoin: round; stroke-linecap: butt}</style>
 </defs>
 <g id="figure_1">
  <g id="patch_1">
   <path d="M 0 495.151316 
L 505.52866 495.151316 
L 505.52866 0 
L 0 0 
z
" style="fill: #ffffff"/>
  </g>
  <g id="axes_1">
   <g id="patch_2">
    <path d="M 30.103125 471.273191 
L 490.377098 471.273191 
L 490.377098 10.999219 
L 30.103125 10.999219 
z
" style="fill: #ffffff"/>
   </g>
   <g id="QuadContourSet_1">
    <path d="M 348.309723 471.273191 
L 422.971535 471.273191 
L 427.050648 471.273191 
L 425.08843 453.755056 
L 422.971535 449.806066 
L 348.309723 430.912381 
L 333.124917 453.755056 
L 331.047246 471.273191 
L 348.309723 471.273191 
z
M 97.508688 249.135069 
L 172.170499 268.140482 
L 189.444973 241.136205 
L 172.170499 214.146035 
L 97.508688 233.144197 
L 93.376834 241.136205 
L 97.508688 249.135069 
z
M 348.309723 51.392123 
L 422.971535 32.521365 
L 425.118259 28.517354 
L 427.088412 10.999219 
L 422.971535 10.999219 
L 348.309723 10.999219 
L 331.019625 10.999219 
L 333.103564 28.517354 
L 348.309723 51.392123 
z
" clip-path="url(#pf30194efc3)" style="fill: none"/>
    <path d="M 333.124917 453.755056 
L 348.309723 430.912381 
L 422.971535 449.806066 
L 425.08843 453.755056 
L 427.050648 471.273191 
L 449.368589 471.273191 
L 448.056922 453.755056 
L 422.971535 406.959192 
L 406.753396 403.867629 
L 348.309723 398.481128 
L 338.17673 403.867629 
L 308.829668 453.755056 
L 307.444868 471.273191 
L 331.047246 471.273191 
L 333.124917 453.755056 
z
M 97.508688 292.368881 
L 172.170499 305.032382 
L 213.044499 241.136205 
L 172.170499 177.273407 
L 97.508688 189.947439 
L 71.044191 241.136205 
L 97.508688 292.368881 
z
M 93.376834 241.136205 
L 97.508688 233.144197 
L 172.170499 214.146035 
L 189.444973 241.136205 
L 172.170499 268.140482 
L 97.508688 249.135069 
L 93.376834 241.136205 
z
M 348.309723 83.800192 
L 406.877194 78.404781 
L 422.971535 75.339905 
L 448.075137 28.517354 
L 449.388529 10.999219 
L 427.088412 10.999219 
L 425.118259 28.517354 
L 422.971535 32.521365 
L 348.309723 51.392123 
L 333.103564 28.517354 
L 331.019625 10.999219 
L 307.432607 10.999219 
L 308.821999 28.517354 
L 338.164355 78.404781 
L 348.309723 83.800192 
z
" clip-path="url(#pf30194efc3)" style="fill: none"/>
    <path d="M 308.829668 453.755056 
L 338.17673 403.867629 
L 348.309723 398.481128 
L 406.753396 403.867629 
L 422.971535 406.959192 
L 448.056922 453.755056 
L 449.368589 471.273191 
L 471.68653 471.273191 
L 471.025414 453.755056 
L 457.15118 403.867629 
L 422.971535 381.334847 
L 348.309723 377.764879 
L 299.205674 403.867629 
L 284.534419 453.755056 
L 283.84249 471.273191 
L 307.444868 471.273191 
L 308.829668 453.755056 
z
M 97.508688 332.797533 
L 172.170499 336.3469 
L 194.752784 329.205817 
L 236.644026 241.136205 
L 194.683469 153.066593 
L 172.170499 145.953723 
L 97.508688 149.519419 
L 88.444998 153.066593 
L 48.711549 241.136205 
L 88.334879 329.205817 
L 97.508688 332.797533 
z
M 71.044191 241.136205 
L 97.508688 189.947439 
L 172.170499 177.273407 
L 213.044499 241.136205 
L 172.170499 305.032382 
L 97.508688 292.368881 
L 71.044191 241.136205 
z
M 348.309723 104.514011 
L 422.971535 100.948346 
L 457.162265 78.404781 
L 471.032014 28.517354 
L 471.688646 10.999219 
L 449.388529 10.999219 
L 448.075137 28.517354 
L 422.971535 75.339905 
L 406.877194 78.404781 
L 348.309723 83.800192 
L 338.164355 78.404781 
L 308.821999 28.517354 
L 307.432607 10.999219 
L 283.84559 10.999219 
L 284.540435 28.517354 
L 299.214709 78.404781 
L 348.309723 104.514011 
z
" clip-path="url(#pf30194efc3)" style="fill: none"/>
    <path d="M 30.103125 471.273191 
L 30.103125 471.273191 
L 30.103125 471.273191 
L 30.103125 471.273191 
z
M 260.240111 471.273191 
L 260.240111 471.273191 
L 283.84249 471.273191 
L 284.534419 453.755056 
L 299.205674 403.867629 
L 348.309723 377.764879 
L 422.971535 381.334847 
L 457.15118 403.867629 
L 471.025414 453.755056 
L 471.68653 471.273191 
L 472.858963 471.273191 
L 490.377098 471.273191 
L 490.377098 453.755056 
L 490.377098 403.867629 
L 490.377098 329.205817 
L 490.377098 241.136205 
L 490.377098 153.066593 
L 490.377098 78.404781 
L 490.377098 28.517354 
L 490.377098 10.999219 
L 472.858963 10.999219 
L 471.688646 10.999219 
L 471.032014 28.517354 
L 457.162265 78.404781 
L 422.971535 100.948346 
L 348.309723 104.514011 
L 299.214709 78.404781 
L 284.540435 28.517354 
L 283.84559 10.999219 
L 260.258572 10.999219 
L 260.258871 28.517354 
L 260.265064 78.404781 
L 348.309723 125.227829 
L 422.971535 125.229945 
L 472.858963 125.230276 
L 490.377098 153.066593 
L 490.377098 241.136205 
L 490.377098 329.205817 
L 472.858963 357.049811 
L 422.971535 357.049808 
L 348.309723 357.048629 
L 260.256241 329.205817 
L 260.243552 241.136205 
L 260.240111 209.497859 
L 260.223067 153.066593 
L 172.170499 125.246783 
L 97.508688 125.259038 
L 47.62126 125.351391 
L 30.103125 144.75657 
L 30.103125 153.066593 
L 30.103125 241.136205 
L 30.103125 329.205817 
L 30.103125 377.020471 
L 47.62126 357.138724 
L 97.508688 357.072437 
L 172.170499 357.060729 
L 260.234618 403.867629 
L 260.23917 453.755056 
L 260.240111 471.273191 
z
M 88.334879 329.205817 
L 48.711549 241.136205 
L 88.444998 153.066593 
L 97.508688 149.519419 
L 172.170499 145.953723 
L 194.683469 153.066593 
L 236.644026 241.136205 
L 194.752784 329.205817 
L 172.170499 336.3469 
L 97.508688 332.797533 
L 88.334879 329.205817 
z
" clip-path="url(#pf30194efc3)" style="fill: none"/>
    <path d="M 47.62126 471.273191 
L 48.793693 471.273191 
L 49.434928 453.755056 
L 63.310461 403.867629 
L 97.508688 381.347341 
L 172.170499 377.774559 
L 221.262903 403.867629 
L 235.943965 453.755056 
L 236.637733 471.273191 
L 260.240111 471.273191 
L 260.240111 471.273191 
L 260.240111 471.273191 
L 260.23917 453.755056 
L 260.234618 403.867629 
L 172.170499 357.060729 
L 97.508688 357.072437 
L 47.62126 357.138724 
L 30.103125 377.020471 
L 30.103125 403.867629 
L 30.103125 453.755056 
L 30.103125 471.273191 
L 30.103125 471.273191 
L 47.62126 471.273191 
z
M 348.309723 357.048629 
L 422.971535 357.049808 
L 472.858963 357.049811 
L 490.377098 329.205817 
L 490.377098 241.136205 
L 490.377098 153.066593 
L 472.858963 125.230276 
L 422.971535 125.229945 
L 348.309723 125.227829 
L 260.265064 78.404781 
L 260.258871 28.517354 
L 260.258572 10.999219 
L 260.240111 10.999219 
L 236.675111 10.999219 
L 235.980985 28.517354 
L 221.322046 78.404781 
L 172.170499 104.539844 
L 97.508688 100.998658 
L 63.168197 78.404781 
L 49.298905 28.517354 
L 48.641665 10.999219 
L 47.62126 10.999219 
L 30.103125 10.999219 
L 30.103125 28.517354 
L 30.103125 78.404781 
L 30.103125 144.75657 
L 47.62126 125.351391 
L 97.508688 125.259038 
L 172.170499 125.246783 
L 260.223067 153.066593 
L 260.240111 209.497859 
L 260.243552 241.136205 
L 260.256241 329.205817 
L 348.309723 357.048629 
z
M 325.771818 329.205817 
L 283.845507 241.136205 
L 325.765166 153.066593 
L 348.309723 145.941648 
L 422.971535 149.511544 
L 432.04118 153.066593 
L 471.677326 241.136205 
L 432.048792 329.205817 
L 422.971535 332.764769 
L 348.309723 336.332379 
L 325.771818 329.205817 
z
" clip-path="url(#pf30194efc3)" style="fill: none"/>
    <path d="M 72.41224 453.755056 
L 97.508688 406.964143 
L 113.764877 403.867629 
L 172.170499 398.488389 
L 182.291188 403.867629 
L 211.648761 453.755056 
L 213.035355 471.273191 
L 236.637733 471.273191 
L 235.943965 453.755056 
L 221.262903 403.867629 
L 172.170499 377.774559 
L 97.508688 381.347341 
L 63.310461 403.867629 
L 49.434928 453.755056 
L 48.793693 471.273191 
L 71.111634 471.273191 
L 72.41224 453.755056 
z
M 348.309723 336.332379 
L 422.971535 332.764769 
L 432.048792 329.205817 
L 471.677326 241.136205 
L 432.04118 153.066593 
L 422.971535 149.511544 
L 348.309723 145.941648 
L 325.765166 153.066593 
L 283.845507 241.136205 
L 325.771818 329.205817 
L 348.309723 336.332379 
z
M 307.447461 241.136205 
L 348.309723 177.267715 
L 422.971535 189.978981 
L 449.365918 241.136205 
L 422.971535 292.296946 
L 348.309723 305.005704 
L 307.447461 241.136205 
z
M 97.508688 100.998658 
L 172.170499 104.539844 
L 221.322046 78.404781 
L 235.980985 28.517354 
L 236.675111 10.999219 
L 213.091652 10.999219 
L 211.703103 28.517354 
L 182.379033 78.404781 
L 172.170499 83.832905 
L 113.011088 78.404781 
L 97.508688 75.466027 
L 72.284294 28.517354 
L 70.969726 10.999219 
L 48.641665 10.999219 
L 49.298905 28.517354 
L 63.168197 78.404781 
L 97.508688 100.998658 
z
" clip-path="url(#pf30194efc3)" style="fill: none"/>
    <path d="M 95.389551 453.755056 
L 97.508688 449.804045 
L 172.170499 430.919139 
L 187.353557 453.755056 
L 189.432976 471.273191 
L 213.035355 471.273191 
L 211.648761 453.755056 
L 182.291188 403.867629 
L 172.170499 398.488389 
L 113.764877 403.867629 
L 97.508688 406.964143 
L 72.41224 453.755056 
L 71.111634 471.273191 
L 93.429575 471.273191 
L 95.389551 453.755056 
z
M 348.309723 305.005704 
L 422.971535 292.296946 
L 449.365918 241.136205 
L 422.971535 189.978981 
L 348.309723 177.267715 
L 307.447461 241.136205 
L 348.309723 305.005704 
z
M 331.049416 241.136205 
L 348.309723 214.158017 
L 422.971535 233.222637 
L 427.054511 241.136205 
L 422.971535 249.050317 
L 348.309723 268.114819 
L 331.049416 241.136205 
z
M 172.170499 83.832905 
L 182.379033 78.404781 
L 211.703103 28.517354 
L 213.091652 10.999219 
L 189.508194 10.999219 
L 187.42522 28.517354 
L 172.170499 51.46145 
L 97.508688 32.684681 
L 95.269683 28.517354 
L 93.297786 10.999219 
L 70.969726 10.999219 
L 72.284294 28.517354 
L 97.508688 75.466027 
L 113.011088 78.404781 
L 172.170499 83.832905 
z
" clip-path="url(#pf30194efc3)" style="fill: none"/>
    <path d="M 97.508688 471.273191 
L 172.170499 471.273191 
L 189.432976 471.273191 
L 187.353557 453.755056 
L 172.170499 430.919139 
L 97.508688 449.804045 
L 95.389551 453.755056 
L 93.429575 471.273191 
L 97.508688 471.273191 
z
M 348.309723 268.114819 
L 422.971535 249.050317 
L 427.054511 241.136205 
L 422.971535 233.222637 
L 348.309723 214.158017 
L 331.049416 241.136205 
L 348.309723 268.114819 
z
M 97.508688 32.684681 
L 172.170499 51.46145 
L 187.42522 28.517354 
L 189.508194 10.999219 
L 172.170499 10.999219 
L 97.508688 10.999219 
L 93.297786 10.999219 
L 95.269683 28.517354 
L 97.508688 32.684681 
z
" clip-path="url(#pf30194efc3)" style="fill: none"/>
   </g>
   <g id="QuadContourSet_2">
    <path d="M 348.309723 471.273191 
L 422.971535 471.273191 
L 427.050648 471.273191 
L 425.089476 453.755056 
L 422.971535 449.804913 
L 348.309723 430.907181 
L 333.121287 453.755056 
L 331.047246 471.273191 
L 348.309723 471.273191 
z
M 97.508688 249.041855 
L 172.170499 268.120349 
L 189.432976 241.136205 
L 172.170499 214.152061 
L 97.508688 233.230556 
L 93.429575 241.136205 
L 97.508688 249.041855 
z
M 348.309723 51.365229 
L 422.971535 32.467497 
L 425.089476 28.517354 
L 427.050648 10.999219 
L 422.971535 10.999219 
L 348.309723 10.999219 
L 331.047246 10.999219 
L 333.121287 28.517354 
L 348.309723 51.365229 
z
" clip-path="url(#pf30194efc3)" style="fill: none"/>
    <path d="M 333.121287 453.755056 
L 348.309723 430.907181 
L 422.971535 449.804913 
L 425.089476 453.755056 
L 427.050648 471.273191 
L 449.368589 471.273191 
L 448.061141 453.755056 
L 422.971535 406.96076 
L 406.750424 403.867629 
L 348.309723 398.479913 
L 338.174348 403.867629 
L 308.827562 453.755056 
L 307.444868 471.273191 
L 331.047246 471.273191 
L 333.121287 453.755056 
z
M 97.508688 292.295825 
L 172.170499 305.014821 
L 213.035355 241.136205 
L 172.170499 177.257589 
L 97.508688 189.976585 
L 71.111634 241.136205 
L 97.508688 292.295825 
z
M 93.429575 241.136205 
L 97.508688 233.230556 
L 172.170499 214.152061 
L 189.432976 241.136205 
L 172.170499 268.120349 
L 97.508688 249.041855 
L 93.429575 241.136205 
z
M 348.309723 83.792497 
L 406.750424 78.404781 
L 422.971535 75.311651 
L 448.061141 28.517354 
L 449.368589 10.999219 
L 427.050648 10.999219 
L 425.089476 28.517354 
L 422.971535 32.467497 
L 348.309723 51.365229 
L 333.121287 28.517354 
L 331.047246 10.999219 
L 307.444868 10.999219 
L 308.827562 28.517354 
L 338.174348 78.404781 
L 348.309723 83.792497 
z
" clip-path="url(#pf30194efc3)" style="fill: none"/>
    <path d="M 308.827562 453.755056 
L 338.174348 403.867629 
L 348.309723 398.479913 
L 406.750424 403.867629 
L 422.971535 406.96076 
L 448.061141 453.755056 
L 449.368589 471.273191 
L 471.68653 471.273191 
L 471.032806 453.755056 
L 457.157937 403.867629 
L 422.971535 381.336417 
L 348.309723 377.765952 
L 299.20723 403.867629 
L 284.533837 453.755056 
L 283.84249 471.273191 
L 307.444868 471.273191 
L 308.827562 453.755056 
z
M 97.508688 332.767568 
L 172.170499 336.338032 
L 194.727687 329.205817 
L 236.637733 241.136205 
L 194.727687 153.066593 
L 172.170499 145.934378 
L 97.508688 149.504843 
L 88.423002 153.066593 
L 48.793693 241.136205 
L 88.423002 329.205817 
L 97.508688 332.767568 
z
M 71.111634 241.136205 
L 97.508688 189.976585 
L 172.170499 177.257589 
L 213.035355 241.136205 
L 172.170499 305.014821 
L 97.508688 292.295825 
L 71.111634 241.136205 
z
M 348.309723 104.506458 
L 422.971535 100.935994 
L 457.157937 78.404781 
L 471.032806 28.517354 
L 471.68653 10.999219 
L 449.368589 10.999219 
L 448.061141 28.517354 
L 422.971535 75.311651 
L 406.750424 78.404781 
L 348.309723 83.792497 
L 338.174348 78.404781 
L 308.827562 28.517354 
L 307.444868 10.999219 
L 283.84249 10.999219 
L 284.533837 28.517354 
L 299.20723 78.404781 
L 348.309723 104.506458 
z
" clip-path="url(#pf30194efc3)" style="fill: none"/>
    <path d="M 30.103125 453.755056 
L 30.103125 403.867629 
L 47.62126 357.051992 
L 97.508688 357.051992 
L 172.170499 357.051992 
L 260.240111 357.051992 
L 260.240111 403.867629 
L 260.240111 453.755056 
L 260.240111 471.273191 
L 283.84249 471.273191 
L 284.533837 453.755056 
L 299.20723 403.867629 
L 348.309723 377.765952 
L 422.971535 381.336417 
L 457.157937 403.867629 
L 471.032806 453.755056 
L 471.68653 471.273191 
L 472.858963 471.273191 
L 490.377098 471.273191 
L 490.377098 453.755056 
L 490.377098 403.867629 
L 490.377098 357.051992 
L 472.858963 357.051992 
L 422.971535 357.051992 
L 348.309723 357.051992 
L 260.240111 329.205817 
L 260.240111 241.136205 
L 260.240111 153.066593 
L 348.309723 125.220418 
L 422.971535 125.220418 
L 472.858963 125.220418 
L 490.377098 125.220418 
L 490.377098 78.404781 
L 490.377098 28.517354 
L 490.377098 10.999219 
L 472.858963 10.999219 
L 471.68653 10.999219 
L 471.032806 28.517354 
L 457.157937 78.404781 
L 422.971535 100.935994 
L 348.309723 104.506458 
L 299.20723 78.404781 
L 284.533837 28.517354 
L 283.84249 10.999219 
L 260.240111 10.999219 
L 260.240111 28.517354 
L 260.240111 78.404781 
L 260.240111 125.220418 
L 172.170499 125.220418 
L 97.508688 125.220418 
L 47.62126 125.220418 
L 30.103125 78.404781 
L 30.103125 28.517354 
L 30.103125 10.999219 
L 30.103125 10.999219 
L 30.103125 28.517354 
L 30.103125 78.404781 
L 30.103125 153.066593 
L 30.103125 241.136205 
L 30.103125 329.205817 
L 30.103125 403.867629 
L 30.103125 453.755056 
L 30.103125 471.273191 
L 30.103125 471.273191 
L 30.103125 453.755056 
z
M 88.423002 329.205817 
L 48.793693 241.136205 
L 88.423002 153.066593 
L 97.508688 149.504843 
L 172.170499 145.934378 
L 194.727687 153.066593 
L 236.637733 241.136205 
L 194.727687 329.205817 
L 172.170499 336.338032 
L 97.508688 332.767568 
L 88.423002 329.205817 
z
" clip-path="url(#pf30194efc3)" style="fill: none"/>
    <path d="M 47.62126 471.273191 
L 48.793693 471.273191 
L 49.447417 453.755056 
L 63.322286 403.867629 
L 97.508688 381.336417 
L 172.170499 377.765952 
L 221.272993 403.867629 
L 235.946386 453.755056 
L 236.637733 471.273191 
L 260.240111 471.273191 
L 260.240111 471.273191 
L 260.240111 453.755056 
L 260.240111 403.867629 
L 260.240111 357.051992 
L 172.170499 357.051992 
L 97.508688 357.051992 
L 47.62126 357.051992 
L 30.103125 403.867629 
L 30.103125 453.755056 
L 30.103125 471.273191 
L 47.62126 471.273191 
z
M 348.309723 357.051992 
L 422.971535 357.051992 
L 472.858963 357.051992 
L 490.377098 357.051992 
L 490.377098 329.205817 
L 490.377098 241.136205 
L 490.377098 153.066593 
L 490.377098 125.220418 
L 472.858963 125.220418 
L 422.971535 125.220418 
L 348.309723 125.220418 
L 260.240111 153.066593 
L 260.240111 241.136205 
L 260.240111 329.205817 
L 348.309723 357.051992 
z
M 325.752536 329.205817 
L 283.84249 241.136205 
L 325.752536 153.066593 
L 348.309723 145.934378 
L 422.971535 149.504843 
L 432.057221 153.066593 
L 471.68653 241.136205 
L 432.057221 329.205817 
L 422.971535 332.767568 
L 348.309723 336.338032 
L 325.752536 329.205817 
z
M 47.62126 125.220418 
L 97.508688 125.220418 
L 172.170499 125.220418 
L 260.240111 125.220418 
L 260.240111 78.404781 
L 260.240111 28.517354 
L 260.240111 10.999219 
L 260.240111 10.999219 
L 236.637733 10.999219 
L 235.946386 28.517354 
L 221.272993 78.404781 
L 172.170499 104.506458 
L 97.508688 100.935994 
L 63.322286 78.404781 
L 49.447417 28.517354 
L 48.793693 10.999219 
L 47.62126 10.999219 
L 30.103125 10.999219 
L 30.103125 28.517354 
L 30.103125 78.404781 
L 47.62126 125.220418 
z
" clip-path="url(#pf30194efc3)" style="fill: none"/>
    <path d="M 72.419082 453.755056 
L 97.508688 406.96076 
L 113.729799 403.867629 
L 172.170499 398.479913 
L 182.305875 403.867629 
L 211.652661 453.755056 
L 213.035355 471.273191 
L 236.637733 471.273191 
L 235.946386 453.755056 
L 221.272993 403.867629 
L 172.170499 377.765952 
L 97.508688 381.336417 
L 63.322286 403.867629 
L 49.447417 453.755056 
L 48.793693 471.273191 
L 71.111634 471.273191 
L 72.419082 453.755056 
z
M 348.309723 336.338032 
L 422.971535 332.767568 
L 432.057221 329.205817 
L 471.68653 241.136205 
L 432.057221 153.066593 
L 422.971535 149.504843 
L 348.309723 145.934378 
L 325.752536 153.066593 
L 283.84249 241.136205 
L 325.752536 329.205817 
L 348.309723 336.338032 
z
M 307.444868 241.136205 
L 348.309723 177.257589 
L 422.971535 189.976585 
L 449.368589 241.136205 
L 422.971535 292.295825 
L 348.309723 305.014821 
L 307.444868 241.136205 
z
M 97.508688 100.935994 
L 172.170499 104.506458 
L 221.272993 78.404781 
L 235.946386 28.517354 
L 236.637733 10.999219 
L 213.035355 10.999219 
L 211.652661 28.517354 
L 182.305875 78.404781 
L 172.170499 83.792497 
L 113.729799 78.404781 
L 97.508688 75.311651 
L 72.419082 28.517354 
L 71.111634 10.999219 
L 48.793693 10.999219 
L 49.447417 28.517354 
L 63.322286 78.404781 
L 97.508688 100.935994 
z
" clip-path="url(#pf30194efc3)" style="fill: none"/>
    <path d="M 95.390747 453.755056 
L 97.508688 449.804913 
L 172.170499 430.907181 
L 187.358935 453.755056 
L 189.432976 471.273191 
L 213.035355 471.273191 
L 211.652661 453.755056 
L 182.305875 403.867629 
L 172.170499 398.479913 
L 113.729799 403.867629 
L 97.508688 406.96076 
L 72.419082 453.755056 
L 71.111634 471.273191 
L 93.429575 471.273191 
L 95.390747 453.755056 
z
M 348.309723 305.014821 
L 422.971535 292.295825 
L 449.368589 241.136205 
L 422.971535 189.976585 
L 348.309723 177.257589 
L 307.444868 241.136205 
L 348.309723 305.014821 
z
M 331.047246 241.136205 
L 348.309723 214.152061 
L 422.971535 233.230556 
L 427.050648 241.136205 
L 422.971535 249.041855 
L 348.309723 268.120349 
L 331.047246 241.136205 
z
M 172.170499 83.792497 
L 182.305875 78.404781 
L 211.652661 28.517354 
L 213.035355 10.999219 
L 189.432976 10.999219 
L 187.358935 28.517354 
L 172.170499 51.365229 
L 97.508688 32.467497 
L 95.390747 28.517354 
L 93.429575 10.999219 
L 71.111634 10.999219 
L 72.419082 28.517354 
L 97.508688 75.311651 
L 113.729799 78.404781 
L 172.170499 83.792497 
z
" clip-path="url(#pf30194efc3)" style="fill: none"/>
    <path d="M 97.508688 471.273191 
L 172.170499 471.273191 
L 189.432976 471.273191 
L 187.358935 453.755056 
L 172.170499 430.907181 
L 97.508688 449.804913 
L 95.390747 453.755056 
L 93.429575 471.273191 
L 97.508688 471.273191 
z
M 348.309723 268.120349 
L 422.971535 249.041855 
L 427.050648 241.136205 
L 422.971535 233.230556 
L 348.309723 214.152061 
L 331.047246 241.136205 
L 348.309723 268.120349 
z
M 97.508688 32.467497 
L 172.170499 51.365229 
L 187.358935 28.517354 
L 189.432976 10.999219 
L 172.170499 10.999219 
L 97.508688 10.999219 
L 93.429575 10.999219 
L 95.390747 28.517354 
L 97.508688 32.467497 
z
" clip-path="url(#pf30194efc3)" style="fill: none"/>
   </g>
   <g id="Quiver_1">
    <path d="M 30.108245 472.807429 
L 5.26508 472.890338 
L 6.809558 475.953694 
L -8.548182 471.402181 
L 6.778837 466.748265 
L 5.25484 469.821862 
L 30.098005 469.738953 
L 30.108245 472.807429 
" clip-path="url(#pf30194efc3)" style="fill: #4c6ae0"/>
    <path d="M 47.62284 472.807437 
L 24.014928 472.831753 
L 25.552334 475.898665 
L 10.205136 471.31173 
L 25.542852 466.69319 
L 24.011767 469.763262 
L 47.61968 469.738946 
L 47.62284 472.807437 
" clip-path="url(#pf30194efc3)" style="fill: #4c6ae0"/>
    <path d="M 97.510417 472.807437 
L 87.915019 472.818253 
L 89.452723 475.885015 
L 74.105079 471.299573 
L 89.442346 466.679541 
L 87.91156 469.749762 
L 97.506958 469.738946 
L 97.510417 472.807437 
" clip-path="url(#pf30194efc3)" style="fill: #4c6ae0"/>
    <path d="M 172.172085 469.879027 
L 173.566249 469.880613 
L 172.175256 467.090699 
L 186.11214 471.289046 
L 172.165743 475.455683 
L 173.563078 472.668941 
L 172.168914 472.667355 
L 172.172085 469.879027 
" clip-path="url(#pf30194efc3)" style="fill: #4c6ae0"/>
    <path d="M 260.240047 469.738945 
L 284.941385 469.737912 
L 283.40701 466.669483 
L 298.749668 471.271582 
L 283.407395 475.874963 
L 284.941513 472.806406 
L 260.240175 472.807438 
L 260.240047 469.738945 
" clip-path="url(#pf30194efc3)" style="fill: #4c6ae0"/>
    <path d="M 348.307866 469.879027 
L 349.70203 469.87717 
L 348.304152 467.090699 
L 362.251363 471.25462 
L 348.315294 475.455683 
L 349.705744 472.665498 
L 348.31158 472.667355 
L 348.307866 469.879027 
" clip-path="url(#pf30194efc3)" style="fill: #4c6ae0"/>
    <path d="M 422.969992 472.807437 
L 413.374595 472.797788 
L 414.905755 475.867822 
L 399.567926 471.249656 
L 414.915013 466.662347 
L 413.377681 469.729296 
L 422.973078 469.738946 
L 422.969992 472.807437 
" clip-path="url(#pf30194efc3)" style="fill: #4c6ae0"/>
    <path d="M 472.859493 472.807438 
L 449.251588 472.815606 
L 450.786896 475.883568 
L 435.442838 471.286137 
L 450.783711 466.678089 
L 449.250526 469.747113 
L 472.858432 469.738945 
L 472.859493 472.807438 
" clip-path="url(#pf30194efc3)" style="fill: #4c6ae0"/>
    <path d="M 490.377098 472.807438 
L 465.534009 472.807438 
L 467.068256 475.875931 
L 451.72579 471.273191 
L 467.068256 466.670452 
L 465.534009 469.738945 
L 490.377098 469.738945 
L 490.377098 472.807438 
" clip-path="url(#pf30194efc3)" style="fill: #4c6ae0"/>
    <path d="M 30.104865 455.289302 
L 6.450582 455.316125 
L 7.988307 458.382877 
L -7.359368 453.797538 
L 7.977869 449.177403 
L 6.447103 452.247634 
L 30.101385 452.220811 
L 30.104865 455.289302 
" clip-path="url(#pf30194efc3)" style="fill: #4c6ae0"/>
    <path d="M 47.530513 455.286617 
L 24.997605 453.951517 
L 26.347672 457.105385 
L 11.304307 451.603237 
L 26.892152 447.916022 
L 25.179099 450.888396 
L 47.712007 452.223496 
L 47.530513 455.286617 
" clip-path="url(#pf30194efc3)" style="fill: #4c6ae0"/>
    <path d="M 97.04098 455.216276 
L 87.452898 452.147316 
L 87.978701 455.537463 
L 74.769632 446.476725 
L 90.784949 446.770147 
L 88.388314 449.224878 
L 97.976396 452.293837 
L 97.04098 455.216276 
" clip-path="url(#pf30194efc3)" style="fill: #4c6ae0"/>
    <path d="M 171.352297 452.45719 
L 173.220426 451.279482 
L 170.286154 449.501952 
L 185.719425 445.213525 
L 175.19537 457.28915 
L 174.856831 453.875214 
L 172.988702 455.052923 
L 171.352297 452.45719 
" clip-path="url(#pf30194efc3)" style="fill: #4c6ae0"/>
    <path d="M 260.240049 452.22081 
L 283.839579 452.219849 
L 282.305208 449.151418 
L 297.647861 453.753533 
L 282.305582 458.356898 
L 283.839704 455.288342 
L 260.240174 455.289303 
L 260.240049 452.22081 
" clip-path="url(#pf30194efc3)" style="fill: #4c6ae0"/>
    <path d="M 349.127746 452.457076 
L 350.994253 453.6334 
L 351.332318 450.219418 
L 361.85805 462.293582 
L 346.424183 458.007298 
L 349.358208 456.22936 
L 347.491701 455.053036 
L 349.127746 452.457076 
" clip-path="url(#pf30194efc3)" style="fill: #4c6ae0"/>
    <path d="M 423.439295 455.216259 
L 413.84829 458.286528 
L 416.245012 460.741174 
L 400.229706 461.035163 
L 413.438454 451.973958 
L 412.912771 455.364123 
L 422.503775 452.293854 
L 423.439295 455.216259 
" clip-path="url(#pf30194efc3)" style="fill: #4c6ae0"/>
    <path d="M 472.950585 455.286565 
L 450.386644 456.636453 
L 452.101397 459.607847 
L 436.511446 455.929547 
L 451.551662 450.418797 
L 450.203399 453.573436 
L 472.76734 452.223548 
L 472.950585 455.286565 
" clip-path="url(#pf30194efc3)" style="fill: #4c6ae0"/>
    <path d="M 490.377098 455.289303 
L 466.659645 455.289303 
L 468.193892 458.357796 
L 452.851426 453.755056 
L 468.193892 449.152317 
L 466.659645 452.22081 
L 490.377098 452.22081 
L 490.377098 455.289303 
" clip-path="url(#pf30194efc3)" style="fill: #4c6ae0"/>
    <path d="M 30.100953 405.401874 
L 20.55348 405.388359 
L 22.083381 408.459021 
L 6.747446 403.834569 
L 22.096411 399.253551 
L 20.557823 402.319869 
L 30.105297 402.333384 
L 30.100953 405.401874 
" clip-path="url(#pf30194efc3)" style="fill: #4c6ae0"/>
    <path d="M 47.151657 405.32824 
L 37.658895 402.276211 
L 38.180301 405.667037 
L 24.982995 396.589173 
L 40.997918 396.903368 
L 38.598101 399.354988 
L 48.090863 402.407017 
L 47.151657 405.32824 
" clip-path="url(#pf30194efc3)" style="fill: #4c6ae0"/>
    <path d="M 96.181897 404.638043 
L 88.942151 392.169912 
L 87.058984 395.037531 
L 83.335212 379.458379 
L 95.019729 390.415045 
L 91.595733 390.629083 
L 98.835479 403.097214 
L 96.181897 404.638043 
" clip-path="url(#pf30194efc3)" style="fill: #4c6ae0"/>
    <path d="M 170.699049 403.433181 
L 175.235955 388.066934 
L 171.858605 388.669489 
L 180.617438 375.258325 
L 180.68731 391.276177 
L 178.178857 388.93583 
L 173.64195 404.302077 
L 170.699049 403.433181 
" clip-path="url(#pf30194efc3)" style="fill: #4c6ae0"/>
    <path d="M 260.240022 402.333382 
L 269.751755 402.332827 
L 268.217329 399.264423 
L 283.560064 403.866268 
L 268.217867 408.469903 
L 269.751934 405.40132 
L 260.240201 405.401875 
L 260.240022 402.333382 
" clip-path="url(#pf30194efc3)" style="fill: #4c6ae0"/>
    <path d="M 349.781153 403.433111 
L 354.317711 418.795504 
L 356.826054 416.455039 
L 356.756937 432.472895 
L 347.997472 419.062144 
L 351.37485 419.664539 
L 346.838293 404.302146 
L 349.781153 403.433111 
" clip-path="url(#pf30194efc3)" style="fill: #4c6ae0"/>
    <path d="M 424.298076 404.638474 
L 417.056091 417.101147 
L 420.480018 417.316296 
L 408.791946 428.26917 
L 412.520773 412.691226 
L 414.403009 415.559457 
L 421.644994 403.096784 
L 424.298076 404.638474 
" clip-path="url(#pf30194efc3)" style="fill: #4c6ae0"/>
    <path d="M 473.327058 405.328724 
L 463.816318 408.375707 
L 466.213604 410.829802 
L 450.198366 411.127469 
L 463.405033 402.06323 
L 462.880128 405.453516 
L 472.390867 402.406533 
L 473.327058 405.328724 
" clip-path="url(#pf30194efc3)" style="fill: #4c6ae0"/>
    <path d="M 490.377098 405.401875 
L 480.797803 405.401875 
L 482.332049 408.470368 
L 466.989584 403.867629 
L 482.332049 399.264889 
L 480.797803 402.333382 
L 490.377098 402.333382 
L 490.377098 405.401875 
" clip-path="url(#pf30194efc3)" style="fill: #4c6ae0"/>
    <path d="M 30.099289 327.816609 
L 31.488496 327.812773 
L 30.091617 325.038194 
L 43.9952 329.167456 
L 30.114633 333.373439 
L 31.496169 330.591188 
L 30.106961 330.595024 
L 30.099289 327.816609 
" clip-path="url(#pf30194efc3)" style="fill: #4c6ae0"/>
    <path d="M 46.798801 327.910643 
L 48.604996 326.763677 
L 45.664905 324.995789 
L 61.084016 320.656724 
L 50.599657 332.76683 
L 50.249913 329.354024 
L 48.443719 330.50099 
L 46.798801 327.910643 
" clip-path="url(#pf30194efc3)" style="fill: #4c6ae0"/>
    <path d="M 96.03678 328.772918 
L 100.564504 313.378112 
L 97.18779 313.984222 
L 105.932498 300.563844 
L 106.019235 316.581613 
L 103.508319 314.243909 
L 98.980595 329.638715 
L 96.03678 328.772918 
" clip-path="url(#pf30194efc3)" style="fill: #4c6ae0"/>
    <path d="M 170.653192 329.433172 
L 167.670108 309.524859 
L 164.862848 311.496877 
L 167.141221 295.641736 
L 173.966694 310.132747 
L 170.704724 309.070149 
L 173.687807 328.978462 
L 170.653192 329.433172 
" clip-path="url(#pf30194efc3)" style="fill: #4c6ae0"/>
    <path d="M 260.24007 330.592995 
L 258.852892 330.592954 
L 260.239988 333.367351 
L 246.368329 329.205407 
L 260.240234 325.044282 
L 258.852974 327.818598 
L 260.240152 327.818639 
L 260.24007 330.592995 
" clip-path="url(#pf30194efc3)" style="fill: #4c6ae0"/>
    <path d="M 349.827055 329.43301 
L 346.846626 349.338059 
L 350.108484 348.275115 
L 343.284553 362.766852 
L 341.004493 346.911953 
L 343.811963 348.883672 
L 346.792391 328.978623 
L 349.827055 329.43301 
" clip-path="url(#pf30194efc3)" style="fill: #4c6ae0"/>
    <path d="M 424.443265 328.772315 
L 428.974494 344.155749 
L 431.484452 341.817016 
L 431.40428 357.83482 
L 422.654073 344.418027 
L 426.031035 345.022753 
L 421.499805 329.639319 
L 424.443265 328.772315 
" clip-path="url(#pf30194efc3)" style="fill: #4c6ae0"/>
    <path d="M 473.678688 327.908912 
L 475.483605 329.049733 
L 475.826152 325.636198 
L 486.336022 337.724171 
L 470.907797 333.417627 
L 473.844153 331.643543 
L 472.039237 330.502722 
L 473.678688 327.908912 
" clip-path="url(#pf30194efc3)" style="fill: #4c6ae0"/>
    <path d="M 490.377098 327.814906 
L 491.768009 327.814906 
L 490.377098 325.033084 
L 504.286208 329.205817 
L 490.377098 333.37855 
L 491.768009 330.596728 
L 490.377098 330.596728 
L 490.377098 327.814906 
" clip-path="url(#pf30194efc3)" style="fill: #4c6ae0"/>
    <path d="M 30.103331 239.601958 
L 54.854934 239.605282 
L 53.3211 236.536583 
L 68.662947 241.141383 
L 53.319863 245.742063 
L 54.854522 242.673775 
L 30.102919 242.670452 
L 30.103331 239.601958 
" clip-path="url(#pf30194efc3)" style="fill: #4c6ae0"/>
    <path d="M 47.621558 239.601959 
L 71.18554 239.606537 
L 69.651889 236.537746 
L 84.993461 241.143466 
L 69.650101 245.743225 
L 71.184944 242.67503 
L 47.620962 242.670452 
L 47.621558 239.601959 
" clip-path="url(#pf30194efc3)" style="fill: #4c6ae0"/>
    <path d="M 97.509129 239.601959 
L 107.09126 239.604713 
L 105.557895 236.535779 
L 120.899037 241.142928 
L 105.555249 245.741258 
L 107.090378 242.673206 
L 97.508247 242.670452 
L 97.509129 239.601959 
" clip-path="url(#pf30194efc3)" style="fill: #4c6ae0"/>
    <path d="M 172.170987 242.531746 
L 170.775446 242.532233 
L 172.171962 245.322827 
L 158.215093 241.141082 
L 172.169037 236.949583 
L 170.774471 239.741152 
L 172.170012 239.740664 
L 172.170987 242.531746 
" clip-path="url(#pf30194efc3)" style="fill: #4c6ae0"/>
    <path d="M 260.240197 242.670452 
L 235.542679 242.671838 
L 237.077098 245.740245 
L 221.734374 241.138367 
L 237.076581 236.534766 
L 235.542507 239.603345 
L 260.240025 239.601958 
L 260.240197 242.670452 
" clip-path="url(#pf30194efc3)" style="fill: #4c6ae0"/>
    <path d="M 348.309736 242.531059 
L 346.914882 242.531073 
L 348.309763 245.320768 
L 334.36118 241.136338 
L 348.309683 236.951642 
L 346.914855 239.741364 
L 348.30971 239.741351 
L 348.309736 242.531059 
" clip-path="url(#pf30194efc3)" style="fill: #4c6ae0"/>
    <path d="M 422.971517 239.601958 
L 432.574329 239.601847 
L 431.040047 236.533371 
L 446.382566 241.135932 
L 431.040154 245.738851 
L 432.574365 242.67034 
L 422.971553 242.670452 
L 422.971517 239.601958 
" clip-path="url(#pf30194efc3)" style="fill: #4c6ae0"/>
    <path d="M 472.858948 239.601958 
L 496.464985 239.601738 
L 494.93071 236.533259 
L 510.273219 241.135855 
L 494.930796 245.738738 
L 496.465014 242.670231 
L 472.858977 242.670452 
L 472.858948 239.601958 
" clip-path="url(#pf30194efc3)" style="fill: #4c6ae0"/>
    <path d="M 490.377098 239.601958 
L 515.182785 239.601958 
L 513.648538 236.533465 
L 528.991004 241.136205 
L 513.648538 245.738945 
L 515.182785 242.670452 
L 490.377098 242.670452 
L 490.377098 239.601958 
" clip-path="url(#pf30194efc3)" style="fill: #4c6ae0"/>
    <path d="M 30.109152 151.677386 
L 31.498359 151.683413 
L 30.121206 148.898971 
L 43.9952 153.126862 
L 30.085044 157.234216 
L 31.486306 154.461828 
L 30.097098 154.455801 
L 30.109152 151.677386 
" clip-path="url(#pf30194efc3)" style="fill: #4c6ae0"/>
    <path d="M 48.444829 151.772125 
L 50.258328 152.925913 
L 50.610998 149.513409 
L 61.08497 161.6325 
L 45.669585 157.280216 
L 48.611191 155.514849 
L 46.797691 154.361061 
L 48.444829 151.772125 
" clip-path="url(#pf30194efc3)" style="fill: #4c6ae0"/>
    <path d="M 98.98061 152.633744 
L 103.5122 168.043624 
L 106.023195 165.706004 
L 105.935917 181.723771 
L 97.191663 168.303097 
L 100.568356 168.909321 
L 96.036766 153.499442 
L 98.98061 152.633744 
" clip-path="url(#pf30194efc3)" style="fill: #4c6ae0"/>
    <path d="M 173.687855 153.293626 
L 170.707582 173.212012 
L 173.969327 172.148723 
L 167.146928 186.641181 
L 164.865193 170.786524 
L 167.672871 172.757946 
L 170.653144 152.83956 
L 173.687855 153.293626 
" clip-path="url(#pf30194efc3)" style="fill: #4c6ae0"/>
    <path d="M 260.240505 154.453206 
L 258.853892 154.453599 
L 260.241291 157.226431 
L 246.373985 153.070526 
L 260.238931 148.906755 
L 258.853105 151.680374 
L 260.239718 151.679981 
L 260.240505 154.453206 
" clip-path="url(#pf30194efc3)" style="fill: #4c6ae0"/>
    <path d="M 346.792372 153.293659 
L 343.813459 133.387259 
L 341.005822 135.358741 
L 343.28722 119.504035 
L 350.109928 133.996348 
L 346.848161 132.933128 
L 349.827074 152.839528 
L 346.792372 153.293659 
" clip-path="url(#pf30194efc3)" style="fill: #4c6ae0"/>
    <path d="M 421.499787 152.633152 
L 426.030938 137.247651 
L 422.654002 137.852516 
L 431.403658 124.435363 
L 431.484488 140.453164 
L 428.974434 138.114533 
L 424.443283 153.500034 
L 421.499787 152.633152 
" clip-path="url(#pf30194efc3)" style="fill: #4c6ae0"/>
    <path d="M 472.039149 151.769744 
L 473.842757 150.629578 
L 470.90628 148.855694 
L 486.334213 144.5481 
L 475.825164 156.636788 
L 475.482385 153.223276 
L 473.678777 154.363442 
L 472.039149 151.769744 
" clip-path="url(#pf30194efc3)" style="fill: #4c6ae0"/>
    <path d="M 490.377098 151.675869 
L 491.767822 151.675869 
L 490.377098 148.89442 
L 504.284342 153.066593 
L 490.377098 157.238767 
L 491.767822 154.457318 
L 490.377098 154.457318 
L 490.377098 151.675869 
" clip-path="url(#pf30194efc3)" style="fill: #4c6ae0"/>
    <path d="M 30.106306 79.939025 
L 20.558816 79.958817 
L 22.09942 83.024123 
L 6.747446 78.453199 
L 22.080337 73.818664 
L 20.552455 76.890331 
L 30.099944 76.870538 
L 30.106306 79.939025 
" clip-path="url(#pf30194efc3)" style="fill: #4c6ae0"/>
    <path d="M 48.092284 79.864935 
L 38.597963 82.92766 
L 41.000164 85.376944 
L 24.985555 85.706718 
L 38.174023 76.616021 
L 37.655916 80.007352 
L 47.150236 76.944628 
L 48.092284 79.864935 
" clip-path="url(#pf30194efc3)" style="fill: #4c6ae0"/>
    <path d="M 98.835948 79.174387 
L 91.597093 91.658509 
L 95.021219 91.870459 
L 83.343385 102.834248 
L 87.057656 87.252827 
L 88.942572 90.119298 
L 96.181427 77.635176 
L 98.835948 79.174387 
" clip-path="url(#pf30194efc3)" style="fill: #4c6ae0"/>
    <path d="M 173.641823 77.969904 
L 178.187616 93.349699 
L 180.695386 91.008619 
L 180.630193 107.026491 
L 171.867443 93.617886 
L 175.244968 94.219454 
L 170.699176 78.839659 
L 173.641823 77.969904 
" clip-path="url(#pf30194efc3)" style="fill: #4c6ae0"/>
    <path d="M 260.240296 76.870535 
L 269.764922 76.871684 
L 268.231045 73.803006 
L 283.572956 78.407596 
L 268.229935 83.008485 
L 269.764552 79.940177 
L 260.239926 79.939028 
L 260.240296 76.870535 
" clip-path="url(#pf30194efc3)" style="fill: #4c6ae0"/>
    <path d="M 346.838343 77.970093 
L 351.37916 62.599853 
L 348.001712 63.201856 
L 356.762736 49.792123 
L 356.829991 65.809986 
L 354.32192 63.46923 
L 349.781103 78.83947 
L 346.838343 77.970093 
" clip-path="url(#pf30194efc3)" style="fill: #4c6ae0"/>
    <path d="M 421.644983 79.175608 
L 414.399297 66.706163 
L 412.51702 69.574368 
L 408.788411 53.996372 
L 420.47633 64.949409 
L 417.0524 65.16451 
L 424.298087 77.633955 
L 421.644983 79.175608 
" clip-path="url(#pf30194efc3)" style="fill: #4c6ae0"/>
    <path d="M 472.390849 79.865871 
L 462.873017 76.816482 
L 463.397879 80.206774 
L 450.191327 71.142367 
L 466.206562 71.440239 
L 463.809245 73.894303 
L 473.327077 76.943692 
L 472.390849 79.865871 
" clip-path="url(#pf30194efc3)" style="fill: #4c6ae0"/>
    <path d="M 490.377098 79.939028 
L 480.790892 79.939028 
L 482.325138 83.007521 
L 466.982672 78.404781 
L 482.325138 73.802042 
L 480.790892 76.870535 
L 490.377098 76.870535 
L 490.377098 79.939028 
" clip-path="url(#pf30194efc3)" style="fill: #4c6ae0"/>
    <path d="M 30.103994 30.0516 
L 6.449718 30.064998 
L 7.985703 33.132622 
L -7.359368 28.538573 
L 7.980488 23.927144 
L 6.44798 26.996506 
L 30.102256 26.983107 
L 30.103994 30.0516 
" clip-path="url(#pf30194efc3)" style="fill: #4c6ae0"/>
    <path d="M 47.713418 30.04883 
L 25.186277 31.404424 
L 26.90207 34.375218 
L 11.310833 30.702371 
L 26.349121 25.186361 
L 25.001961 28.341472 
L 47.529102 26.985878 
L 47.713418 30.04883 
" clip-path="url(#pf30194efc3)" style="fill: #4c6ae0"/>
    <path d="M 97.978104 29.978025 
L 88.398792 33.056533 
L 90.798297 35.508459 
L 74.783334 35.820611 
L 87.981797 26.744431 
L 87.459959 30.13519 
L 97.039271 27.056682 
L 97.978104 29.978025 
" clip-path="url(#pf30194efc3)" style="fill: #4c6ae0"/>
    <path d="M 172.988857 27.219585 
L 174.877599 28.410603 
L 175.216545 24.996708 
L 185.739161 37.073588 
L 170.306401 32.783321 
L 173.240884 31.00614 
L 171.352142 29.815123 
L 172.988857 27.219585 
" clip-path="url(#pf30194efc3)" style="fill: #4c6ae0"/>
    <path d="M 260.240145 26.983107 
L 283.859773 26.983618 
L 282.325593 23.915092 
L 297.667959 28.518164 
L 282.325393 33.120572 
L 283.859706 30.052112 
L 260.240078 30.0516 
L 260.240145 26.983107 
" clip-path="url(#pf30194efc3)" style="fill: #4c6ae0"/>
    <path d="M 347.491133 27.219732 
L 349.371551 26.033492 
L 346.43675 24.256837 
L 361.868741 19.963806 
L 351.348288 32.04257 
L 351.008731 28.628736 
L 349.128313 29.814976 
L 347.491133 27.219732 
" clip-path="url(#pf30194efc3)" style="fill: #4c6ae0"/>
    <path d="M 422.503 29.978308 
L 412.89925 26.898337 
L 413.423133 30.288781 
L 400.219197 21.220565 
L 416.234345 21.523056 
L 413.83632 23.976429 
L 423.44007 27.0564 
L 422.503 29.978308 
" clip-path="url(#pf30194efc3)" style="fill: #4c6ae0"/>
    <path d="M 472.767533 30.048874 
L 450.188639 28.70094 
L 451.537299 31.85541 
L 436.49639 26.346551 
L 452.085878 22.666291 
L 450.371498 25.6379 
L 472.950393 26.985834 
L 472.767533 30.048874 
" clip-path="url(#pf30194efc3)" style="fill: #4c6ae0"/>
    <path d="M 490.377098 30.0516 
L 466.656856 30.0516 
L 468.191102 33.120093 
L 452.848636 28.517354 
L 468.191102 23.914614 
L 466.656856 26.983107 
L 490.377098 26.983107 
L 490.377098 30.0516 
" clip-path="url(#pf30194efc3)" style="fill: #4c6ae0"/>
    <path d="M 30.103171 12.533465 
L 5.350413 12.534207 
L 6.884751 15.602654 
L -8.457852 11.000374 
L 6.884475 6.397175 
L 5.350321 9.465714 
L 30.103079 9.464972 
L 30.103171 12.533465 
" clip-path="url(#pf30194efc3)" style="fill: #4c6ae0"/>
    <path d="M 47.62126 12.533465 
L 24.051534 12.533465 
L 25.585781 15.601958 
L 10.243315 10.999219 
L 25.585781 6.396479 
L 24.051534 9.464972 
L 47.62126 9.464972 
L 47.62126 12.533465 
" clip-path="url(#pf30194efc3)" style="fill: #4c6ae0"/>
    <path d="M 97.508688 12.533465 
L 87.922056 12.533465 
L 89.456303 15.601958 
L 74.113837 10.999219 
L 89.456303 6.396479 
L 87.922056 9.464972 
L 97.508688 9.464972 
L 97.508688 12.533465 
" clip-path="url(#pf30194efc3)" style="fill: #4c6ae0"/>
    <path d="M 172.170499 9.60239 
L 173.567328 9.60239 
L 172.170499 6.808734 
L 186.138782 10.999219 
L 172.170499 15.189704 
L 173.567328 12.396047 
L 172.170499 12.396047 
L 172.170499 9.60239 
" clip-path="url(#pf30194efc3)" style="fill: #4c6ae0"/>
    <path d="M 260.240111 9.464972 
L 284.961752 9.464972 
L 283.427506 6.396479 
L 298.769972 10.999219 
L 283.427506 15.601958 
L 284.961752 12.533465 
L 260.240111 12.533465 
L 260.240111 9.464972 
" clip-path="url(#pf30194efc3)" style="fill: #4c6ae0"/>
    <path d="M 348.309723 9.603384 
L 349.705558 9.603384 
L 348.309723 6.811713 
L 362.268074 10.999219 
L 348.309723 15.186724 
L 349.705558 12.395054 
L 348.309723 12.395054 
L 348.309723 9.603384 
" clip-path="url(#pf30194efc3)" style="fill: #4c6ae0"/>
    <path d="M 422.971535 12.533465 
L 413.357277 12.533465 
L 414.891524 15.601958 
L 399.549058 10.999219 
L 414.891524 6.396479 
L 413.357277 9.464972 
L 422.971535 9.464972 
L 422.971535 12.533465 
" clip-path="url(#pf30194efc3)" style="fill: #4c6ae0"/>
    <path d="M 472.858963 12.533465 
L 449.233842 12.533465 
L 450.768088 15.601958 
L 435.425623 10.999219 
L 450.768088 6.396479 
L 449.233842 9.464972 
L 472.858963 9.464972 
L 472.858963 12.533465 
" clip-path="url(#pf30194efc3)" style="fill: #4c6ae0"/>
    <path d="M 490.377098 12.533465 
L 465.551927 12.533465 
L 467.086174 15.601958 
L 451.743708 10.999219 
L 467.086174 6.396479 
L 465.551927 9.464972 
L 490.377098 9.464972 
L 490.377098 12.533465 
" clip-path="url(#pf30194efc3)" style="fill: #4c6ae0"/>
   </g>
   <g id="matplotlib.axis_1">
    <g id="xtick_1">
     <g id="line2d_1">
      <defs>
       <path id="madfb182cf5" d="M 0 0 
L 0 3.5 
" style="stroke: #000000; stroke-width: 0.8"/>
      </defs>
      <g>
       <use xlink:href="#madfb182cf5" x="30.103125" y="471.273191" style="stroke: #000000; stroke-width: 0.8"/>
      </g>
     </g>
     <g id="text_1">
      <!-- 0.0 -->
      <g transform="translate(22.151563 485.871629) scale(0.1 -0.1)">
       <defs>
        <path id="DejaVuSans-30" d="M 2034 4250 
Q 1547 4250 1301 3770 
Q 1056 3291 1056 2328 
Q 1056 1369 1301 889 
Q 1547 409 2034 409 
Q 2525 409 2770 889 
Q 3016 1369 3016 2328 
Q 3016 3291 2770 3770 
Q 2525 4250 2034 4250 
z
M 2034 4750 
Q 2819 4750 3233 4129 
Q 3647 3509 3647 2328 
Q 3647 1150 3233 529 
Q 2819 -91 2034 -91 
Q 1250 -91 836 529 
Q 422 1150 422 2328 
Q 422 3509 836 4129 
Q 1250 4750 2034 4750 
z
" transform="scale(0.015625)"/>
        <path id="DejaVuSans-2e" d="M 684 794 
L 1344 794 
L 1344 0 
L 684 0 
L 684 794 
z
" transform="scale(0.015625)"/>
       </defs>
       <use xlink:href="#DejaVuSans-30"/>
       <use xlink:href="#DejaVuSans-2e" transform="translate(63.623047 0)"/>
       <use xlink:href="#DejaVuSans-30" transform="translate(95.410156 0)"/>
      </g>
     </g>
    </g>
    <g id="xtick_2">
     <g id="line2d_2">
      <g>
       <use xlink:href="#madfb182cf5" x="122.15792" y="471.273191" style="stroke: #000000; stroke-width: 0.8"/>
      </g>
     </g>
     <g id="text_2">
      <!-- 0.2 -->
      <g transform="translate(114.206357 485.871629) scale(0.1 -0.1)">
       <defs>
        <path id="DejaVuSans-32" d="M 1228 531 
L 3431 531 
L 3431 0 
L 469 0 
L 469 531 
Q 828 903 1448 1529 
Q 2069 2156 2228 2338 
Q 2531 2678 2651 2914 
Q 2772 3150 2772 3378 
Q 2772 3750 2511 3984 
Q 2250 4219 1831 4219 
Q 1534 4219 1204 4116 
Q 875 4013 500 3803 
L 500 4441 
Q 881 4594 1212 4672 
Q 1544 4750 1819 4750 
Q 2544 4750 2975 4387 
Q 3406 4025 3406 3419 
Q 3406 3131 3298 2873 
Q 3191 2616 2906 2266 
Q 2828 2175 2409 1742 
Q 1991 1309 1228 531 
z
" transform="scale(0.015625)"/>
       </defs>
       <use xlink:href="#DejaVuSans-30"/>
       <use xlink:href="#DejaVuSans-2e" transform="translate(63.623047 0)"/>
       <use xlink:href="#DejaVuSans-32" transform="translate(95.410156 0)"/>
      </g>
     </g>
    </g>
    <g id="xtick_3">
     <g id="line2d_3">
      <g>
       <use xlink:href="#madfb182cf5" x="214.212714" y="471.273191" style="stroke: #000000; stroke-width: 0.8"/>
      </g>
     </g>
     <g id="text_3">
      <!-- 0.4 -->
      <g transform="translate(206.261152 485.871629) scale(0.1 -0.1)">
       <defs>
        <path id="DejaVuSans-34" d="M 2419 4116 
L 825 1625 
L 2419 1625 
L 2419 4116 
z
M 2253 4666 
L 3047 4666 
L 3047 1625 
L 3713 1625 
L 3713 1100 
L 3047 1100 
L 3047 0 
L 2419 0 
L 2419 1100 
L 313 1100 
L 313 1709 
L 2253 4666 
z
" transform="scale(0.015625)"/>
       </defs>
       <use xlink:href="#DejaVuSans-30"/>
       <use xlink:href="#DejaVuSans-2e" transform="translate(63.623047 0)"/>
       <use xlink:href="#DejaVuSans-34" transform="translate(95.410156 0)"/>
      </g>
     </g>
    </g>
    <g id="xtick_4">
     <g id="line2d_4">
      <g>
       <use xlink:href="#madfb182cf5" x="306.267509" y="471.273191" style="stroke: #000000; stroke-width: 0.8"/>
      </g>
     </g>
     <g id="text_4">
      <!-- 0.6 -->
      <g transform="translate(298.315946 485.871629) scale(0.1 -0.1)">
       <defs>
        <path id="DejaVuSans-36" d="M 2113 2584 
Q 1688 2584 1439 2293 
Q 1191 2003 1191 1497 
Q 1191 994 1439 701 
Q 1688 409 2113 409 
Q 2538 409 2786 701 
Q 3034 994 3034 1497 
Q 3034 2003 2786 2293 
Q 2538 2584 2113 2584 
z
M 3366 4563 
L 3366 3988 
Q 3128 4100 2886 4159 
Q 2644 4219 2406 4219 
Q 1781 4219 1451 3797 
Q 1122 3375 1075 2522 
Q 1259 2794 1537 2939 
Q 1816 3084 2150 3084 
Q 2853 3084 3261 2657 
Q 3669 2231 3669 1497 
Q 3669 778 3244 343 
Q 2819 -91 2113 -91 
Q 1303 -91 875 529 
Q 447 1150 447 2328 
Q 447 3434 972 4092 
Q 1497 4750 2381 4750 
Q 2619 4750 2861 4703 
Q 3103 4656 3366 4563 
z
" transform="scale(0.015625)"/>
       </defs>
       <use xlink:href="#DejaVuSans-30"/>
       <use xlink:href="#DejaVuSans-2e" transform="translate(63.623047 0)"/>
       <use xlink:href="#DejaVuSans-36" transform="translate(95.410156 0)"/>
      </g>
     </g>
    </g>
    <g id="xtick_5">
     <g id="line2d_5">
      <g>
       <use xlink:href="#madfb182cf5" x="398.322303" y="471.273191" style="stroke: #000000; stroke-width: 0.8"/>
      </g>
     </g>
     <g id="text_5">
      <!-- 0.8 -->
      <g transform="translate(390.370741 485.871629) scale(0.1 -0.1)">
       <defs>
        <path id="DejaVuSans-38" d="M 2034 2216 
Q 1584 2216 1326 1975 
Q 1069 1734 1069 1313 
Q 1069 891 1326 650 
Q 1584 409 2034 409 
Q 2484 409 2743 651 
Q 3003 894 3003 1313 
Q 3003 1734 2745 1975 
Q 2488 2216 2034 2216 
z
M 1403 2484 
Q 997 2584 770 2862 
Q 544 3141 544 3541 
Q 544 4100 942 4425 
Q 1341 4750 2034 4750 
Q 2731 4750 3128 4425 
Q 3525 4100 3525 3541 
Q 3525 3141 3298 2862 
Q 3072 2584 2669 2484 
Q 3125 2378 3379 2068 
Q 3634 1759 3634 1313 
Q 3634 634 3220 271 
Q 2806 -91 2034 -91 
Q 1263 -91 848 271 
Q 434 634 434 1313 
Q 434 1759 690 2068 
Q 947 2378 1403 2484 
z
M 1172 3481 
Q 1172 3119 1398 2916 
Q 1625 2713 2034 2713 
Q 2441 2713 2670 2916 
Q 2900 3119 2900 3481 
Q 2900 3844 2670 4047 
Q 2441 4250 2034 4250 
Q 1625 4250 1398 4047 
Q 1172 3844 1172 3481 
z
" transform="scale(0.015625)"/>
       </defs>
       <use xlink:href="#DejaVuSans-30"/>
       <use xlink:href="#DejaVuSans-2e" transform="translate(63.623047 0)"/>
       <use xlink:href="#DejaVuSans-38" transform="translate(95.410156 0)"/>
      </g>
     </g>
    </g>
    <g id="xtick_6">
     <g id="line2d_6">
      <g>
       <use xlink:href="#madfb182cf5" x="490.377098" y="471.273191" style="stroke: #000000; stroke-width: 0.8"/>
      </g>
     </g>
     <g id="text_6">
      <!-- 1.0 -->
      <g transform="translate(482.425535 485.871629) scale(0.1 -0.1)">
       <defs>
        <path id="DejaVuSans-31" d="M 794 531 
L 1825 531 
L 1825 4091 
L 703 3866 
L 703 4441 
L 1819 4666 
L 2450 4666 
L 2450 531 
L 3481 531 
L 3481 0 
L 794 0 
L 794 531 
z
" transform="scale(0.015625)"/>
       </defs>
       <use xlink:href="#DejaVuSans-31"/>
       <use xlink:href="#DejaVuSans-2e" transform="translate(63.623047 0)"/>
       <use xlink:href="#DejaVuSans-30" transform="translate(95.410156 0)"/>
      </g>
     </g>
    </g>
   </g>
   <g id="matplotlib.axis_2">
    <g id="ytick_1">
     <g id="line2d_7">
      <defs>
       <path id="m5a1f3ec44c" d="M 0 0 
L -3.5 0 
" style="stroke: #000000; stroke-width: 0.8"/>
      </defs>
      <g>
       <use xlink:href="#m5a1f3ec44c" x="30.103125" y="471.273191" style="stroke: #000000; stroke-width: 0.8"/>
      </g>
     </g>
     <g id="text_7">
      <!-- 0.0 -->
      <g transform="translate(7.2 475.07241) scale(0.1 -0.1)">
       <use xlink:href="#DejaVuSans-30"/>
       <use xlink:href="#DejaVuSans-2e" transform="translate(63.623047 0)"/>
       <use xlink:href="#DejaVuSans-30" transform="translate(95.410156 0)"/>
      </g>
     </g>
    </g>
    <g id="ytick_2">
     <g id="line2d_8">
      <g>
       <use xlink:href="#m5a1f3ec44c" x="30.103125" y="379.218397" style="stroke: #000000; stroke-width: 0.8"/>
      </g>
     </g>
     <g id="text_8">
      <!-- 0.2 -->
      <g transform="translate(7.2 383.017616) scale(0.1 -0.1)">
       <use xlink:href="#DejaVuSans-30"/>
       <use xlink:href="#DejaVuSans-2e" transform="translate(63.623047 0)"/>
       <use xlink:href="#DejaVuSans-32" transform="translate(95.410156 0)"/>
      </g>
     </g>
    </g>
    <g id="ytick_3">
     <g id="line2d_9">
      <g>
       <use xlink:href="#m5a1f3ec44c" x="30.103125" y="287.163602" style="stroke: #000000; stroke-width: 0.8"/>
      </g>
     </g>
     <g id="text_9">
      <!-- 0.4 -->
      <g transform="translate(7.2 290.962821) scale(0.1 -0.1)">
       <use xlink:href="#DejaVuSans-30"/>
       <use xlink:href="#DejaVuSans-2e" transform="translate(63.623047 0)"/>
       <use xlink:href="#DejaVuSans-34" transform="translate(95.410156 0)"/>
      </g>
     </g>
    </g>
    <g id="ytick_4">
     <g id="line2d_10">
      <g>
       <use xlink:href="#m5a1f3ec44c" x="30.103125" y="195.108808" style="stroke: #000000; stroke-width: 0.8"/>
      </g>
     </g>
     <g id="text_10">
      <!-- 0.6 -->
      <g transform="translate(7.2 198.908027) scale(0.1 -0.1)">
       <use xlink:href="#DejaVuSans-30"/>
       <use xlink:href="#DejaVuSans-2e" transform="translate(63.623047 0)"/>
       <use xlink:href="#DejaVuSans-36" transform="translate(95.410156 0)"/>
      </g>
     </g>
    </g>
    <g id="ytick_5">
     <g id="line2d_11">
      <g>
       <use xlink:href="#m5a1f3ec44c" x="30.103125" y="103.054013" style="stroke: #000000; stroke-width: 0.8"/>
      </g>
     </g>
     <g id="text_11">
      <!-- 0.8 -->
      <g transform="translate(7.2 106.853232) scale(0.1 -0.1)">
       <use xlink:href="#DejaVuSans-30"/>
       <use xlink:href="#DejaVuSans-2e" transform="translate(63.623047 0)"/>
       <use xlink:href="#DejaVuSans-38" transform="translate(95.410156 0)"/>
      </g>
     </g>
    </g>
    <g id="ytick_6">
     <g id="line2d_12">
      <g>
       <use xlink:href="#m5a1f3ec44c" x="30.103125" y="10.999219" style="stroke: #000000; stroke-width: 0.8"/>
      </g>
     </g>
     <g id="text_12">
      <!-- 1.0 -->
      <g transform="translate(7.2 14.798437) scale(0.1 -0.1)">
       <use xlink:href="#DejaVuSans-31"/>
       <use xlink:href="#DejaVuSans-2e" transform="translate(63.623047 0)"/>
       <use xlink:href="#DejaVuSans-30" transform="translate(95.410156 0)"/>
      </g>
     </g>
    </g>
   </g>
   <g id="QuadContourSet_3">
    <path clip-path="url(#pf30194efc3)" style="fill: none; stroke: #000000; stroke-width: 5"/>
    <path d="M 331.047246 471.273191 
L 333.124917 453.755056 
L 348.309723 430.912381 
L 398.977149 443.734122 
M 427.088412 10.999219 
L 425.118259 28.517354 
L 422.971535 32.521365 
L 372.305109 45.327294 
M 332.855286 26.430264 
L 331.019625 10.999219 
M 97.508688 249.135069 
L 93.376834 241.136205 
L 97.508688 233.144197 
L 148.18068 220.250394 
M 188.079926 239.003414 
L 189.444973 241.136205 
L 172.170499 268.140482 
L 97.508688 249.135069 
" clip-path="url(#pf30194efc3)" style="fill: none; stroke: #000000; stroke-width: 5"/>
    <path d="M 307.444868 471.273191 
L 308.829668 453.755056 
L 338.17673 403.867629 
L 348.309723 398.481128 
L 382.393522 401.622484 
M 427.664563 415.713863 
L 448.056922 453.755056 
L 449.368589 471.273191 
M 449.388529 10.999219 
L 448.075137 28.517354 
L 422.971535 75.339905 
L 406.877194 78.404781 
L 372.66965 81.556083 
M 329.797488 64.179562 
L 308.821999 28.517354 
L 307.432607 10.999219 
M 188.079926 202.130787 
L 213.044499 241.136205 
L 172.170499 305.032382 
L 97.508688 292.368881 
L 71.044191 241.136205 
L 97.508688 189.947439 
L 147.946274 181.385531 
" clip-path="url(#pf30194efc3)" style="fill: none; stroke: #000000; stroke-width: 5"/>
    <path d="M 283.84249 471.273191 
L 284.534419 453.755056 
L 299.205674 403.867629 
L 348.309723 377.764879 
L 398.569763 380.168072 
M 444.887208 395.782659 
L 457.15118 403.867629 
L 471.025414 453.755056 
L 471.68653 471.273191 
M 471.688646 10.999219 
L 471.032014 28.517354 
L 457.162265 78.404781 
L 422.971535 100.948346 
L 372.711532 103.34864 
M 325.609903 92.442015 
L 299.214709 78.404781 
L 284.540435 28.517354 
L 283.84559 10.999219 
M 97.508688 332.797533 
L 88.334879 329.205817 
L 48.711549 241.136205 
L 88.444998 153.066593 
L 97.508688 149.519419 
L 147.768691 147.119103 
M 195.377721 154.523735 
L 236.644026 241.136205 
L 194.752784 329.205817 
L 172.170499 336.3469 
L 97.508688 332.797533 
" clip-path="url(#pf30194efc3)" style="fill: none; stroke: #000000; stroke-width: 5"/>
    <path d="M 30.103125 471.273191 
L 30.103125 471.273191 
z
M 260.240111 471.273191 
L 260.240111 471.273191 
L 260.23917 453.755056 
L 260.234618 403.867629 
L 189.857228 366.46139 
M 153.147079 357.063712 
L 97.508688 357.072437 
L 47.62126 357.138724 
L 30.103125 377.020471 
M 30.103125 144.75657 
L 47.62126 125.351391 
L 97.508688 125.259038 
L 172.170499 125.246783 
L 260.223067 153.066593 
L 260.240111 209.497859 
L 260.243552 241.136205 
L 260.256241 329.205817 
L 348.309723 357.048629 
L 422.971535 357.049808 
L 453.835542 357.04981 
M 485.131436 337.543473 
L 490.377098 329.205817 
L 490.377098 241.136205 
L 490.377098 153.066593 
L 472.858963 125.230276 
L 422.971535 125.229945 
L 348.309723 125.227829 
L 260.265064 78.404781 
L 260.258871 28.517354 
L 260.258572 10.999219 
" clip-path="url(#pf30194efc3)" style="fill: none; stroke: #000000; stroke-width: 5"/>
    <path d="M 236.637733 471.273191 
L 235.943965 453.755056 
L 221.262903 403.867629 
L 172.170499 377.774559 
L 116.520025 380.437594 
M 80.430602 392.593637 
L 63.310461 403.867629 
L 49.434928 453.755056 
L 48.793693 471.273191 
M 48.641665 10.999219 
L 49.298905 28.517354 
L 63.168197 78.404781 
L 97.508688 100.998658 
L 153.158949 103.638132 
M 189.856259 95.135899 
L 221.322046 78.404781 
L 235.980985 28.517354 
L 236.675111 10.999219 
M 403.960178 148.602531 
L 348.309723 145.941648 
L 325.765166 153.066593 
L 283.845507 241.136205 
L 325.771818 329.205817 
L 348.309723 336.332379 
L 422.971535 332.764769 
L 432.048792 329.205817 
L 471.677326 241.136205 
L 436.991284 164.065486 
" clip-path="url(#pf30194efc3)" style="fill: none; stroke: #000000; stroke-width: 5"/>
    <path d="M 213.035355 471.273191 
L 211.648761 453.755056 
L 182.291188 403.867629 
L 172.170499 398.488389 
L 132.743654 402.119657 
M 95.987293 409.800698 
L 72.41224 453.755056 
L 71.111634 471.273191 
M 70.969726 10.999219 
L 72.284294 28.517354 
L 97.508688 75.466027 
L 113.011088 78.404781 
L 153.191388 82.091492 
M 187.360178 69.930633 
L 211.703103 28.517354 
L 213.091652 10.999219 
M 404.099379 186.765973 
L 348.309723 177.267715 
L 307.447461 241.136205 
L 348.309723 305.005704 
L 422.971535 292.296946 
L 449.365918 241.136205 
L 433.800784 210.96808 
" clip-path="url(#pf30194efc3)" style="fill: none; stroke: #000000; stroke-width: 5"/>
    <path d="M 189.432976 471.273191 
L 187.353557 453.755056 
L 172.170499 430.919139 
L 116.20295 445.075532 
M 93.297786 10.999219 
L 95.269683 28.517354 
L 97.508688 32.684681 
L 153.472575 46.759091 
M 184.835544 32.412396 
L 187.42522 28.517354 
L 189.508194 10.999219 
M 404.283402 228.450691 
L 348.309723 214.158017 
L 331.049416 241.136205 
L 348.309723 268.114819 
L 418.375787 250.223817 
" clip-path="url(#pf30194efc3)" style="fill: none; stroke: #000000; stroke-width: 5"/>
    <path clip-path="url(#pf30194efc3)" style="fill: none; stroke: #000000; stroke-width: 5"/>
   </g>
   <g id="QuadContourSet_4">
    <path clip-path="url(#pf30194efc3)" style="fill: none; stroke: #ffa500; stroke-width: 1.5"/>
    <path d="M 331.047246 471.273191 
L 333.121287 453.755056 
L 348.309723 430.907181 
L 422.971535 449.804913 
L 425.089476 453.755056 
L 427.050648 471.273191 
M 427.050648 10.999219 
L 425.089476 28.517354 
L 422.971535 32.467497 
L 348.309723 51.365229 
L 333.121287 28.517354 
L 331.047246 10.999219 
M 97.508688 249.041855 
L 93.429575 241.136205 
L 97.508688 233.230556 
L 172.170499 214.152061 
L 189.432976 241.136205 
L 172.170499 268.120349 
L 97.508688 249.041855 
" clip-path="url(#pf30194efc3)" style="fill: none; stroke: #ffa500; stroke-width: 1.5"/>
    <path d="M 307.444868 471.273191 
L 308.827562 453.755056 
L 338.174348 403.867629 
L 348.309723 398.479913 
L 406.750424 403.867629 
L 422.971535 406.96076 
L 448.061141 453.755056 
L 449.368589 471.273191 
M 449.368589 10.999219 
L 448.061141 28.517354 
L 422.971535 75.311651 
L 406.750424 78.404781 
L 348.309723 83.792497 
L 338.174348 78.404781 
L 308.827562 28.517354 
L 307.444868 10.999219 
M 97.508688 292.295825 
L 71.111634 241.136205 
L 97.508688 189.976585 
L 172.170499 177.257589 
L 213.035355 241.136205 
L 172.170499 305.014821 
L 97.508688 292.295825 
z
" clip-path="url(#pf30194efc3)" style="fill: none; stroke: #ffa500; stroke-width: 1.5"/>
    <path d="M 283.84249 471.273191 
L 284.533837 453.755056 
L 299.20723 403.867629 
L 348.309723 377.765952 
L 422.971535 381.336417 
L 457.157937 403.867629 
L 471.032806 453.755056 
L 471.68653 471.273191 
M 471.68653 10.999219 
L 471.032806 28.517354 
L 457.157937 78.404781 
L 422.971535 100.935994 
L 348.309723 104.506458 
L 299.20723 78.404781 
L 284.533837 28.517354 
L 283.84249 10.999219 
M 97.508688 332.767568 
L 88.423002 329.205817 
L 48.793693 241.136205 
L 88.423002 153.066593 
L 97.508688 149.504843 
L 172.170499 145.934378 
L 194.727687 153.066593 
L 236.637733 241.136205 
L 194.727687 329.205817 
L 172.170499 336.338032 
L 97.508688 332.767568 
" clip-path="url(#pf30194efc3)" style="fill: none; stroke: #ffa500; stroke-width: 1.5"/>
    <path d="M 260.240111 471.273191 
L 260.240111 453.755056 
L 260.240111 403.867629 
L 260.240111 357.051992 
L 172.170499 357.051992 
L 97.508688 357.051992 
L 47.62126 357.051992 
L 30.103125 403.867629 
L 30.103125 453.755056 
L 30.103125 471.273191 
M 490.377098 125.220418 
L 472.858963 125.220418 
L 422.971535 125.220418 
L 348.309723 125.220418 
L 260.240111 153.066593 
L 260.240111 241.136205 
L 260.240111 329.205817 
L 348.309723 357.051992 
L 422.971535 357.051992 
L 472.858963 357.051992 
L 490.377098 357.051992 
M 30.103125 10.999219 
L 30.103125 28.517354 
L 30.103125 78.404781 
L 47.62126 125.220418 
L 97.508688 125.220418 
L 172.170499 125.220418 
L 260.240111 125.220418 
L 260.240111 78.404781 
L 260.240111 28.517354 
L 260.240111 10.999219 
" clip-path="url(#pf30194efc3)" style="fill: none; stroke: #ffa500; stroke-width: 1.5"/>
    <path d="M 236.637733 471.273191 
L 235.946386 453.755056 
L 221.272993 403.867629 
L 172.170499 377.765952 
L 97.508688 381.336417 
L 63.322286 403.867629 
L 49.447417 453.755056 
L 48.793693 471.273191 
M 48.793693 10.999219 
L 49.447417 28.517354 
L 63.322286 78.404781 
L 97.508688 100.935994 
L 172.170499 104.506458 
L 221.272993 78.404781 
L 235.946386 28.517354 
L 236.637733 10.999219 
M 348.309723 336.338032 
L 422.971535 332.767568 
L 432.057221 329.205817 
L 471.68653 241.136205 
L 432.057221 153.066593 
L 422.971535 149.504843 
L 348.309723 145.934378 
L 325.752536 153.066593 
L 283.84249 241.136205 
L 325.752536 329.205817 
L 348.309723 336.338032 
z
" clip-path="url(#pf30194efc3)" style="fill: none; stroke: #ffa500; stroke-width: 1.5"/>
    <path d="M 213.035355 471.273191 
L 211.652661 453.755056 
L 182.305875 403.867629 
L 172.170499 398.479913 
L 113.729799 403.867629 
L 97.508688 406.96076 
L 72.419082 453.755056 
L 71.111634 471.273191 
M 71.111634 10.999219 
L 72.419082 28.517354 
L 97.508688 75.311651 
L 113.729799 78.404781 
L 172.170499 83.792497 
L 182.305875 78.404781 
L 211.652661 28.517354 
L 213.035355 10.999219 
M 348.309723 305.014821 
L 422.971535 292.295825 
L 449.368589 241.136205 
L 422.971535 189.976585 
L 348.309723 177.257589 
L 307.444868 241.136205 
L 348.309723 305.014821 
z
" clip-path="url(#pf30194efc3)" style="fill: none; stroke: #ffa500; stroke-width: 1.5"/>
    <path d="M 189.432976 471.273191 
L 187.358935 453.755056 
L 172.170499 430.907181 
L 97.508688 449.804913 
L 95.390747 453.755056 
L 93.429575 471.273191 
M 93.429575 10.999219 
L 95.390747 28.517354 
L 97.508688 32.467497 
L 172.170499 51.365229 
L 187.358935 28.517354 
L 189.432976 10.999219 
M 348.309723 268.120349 
L 422.971535 249.041855 
L 427.050648 241.136205 
L 422.971535 233.230556 
L 348.309723 214.152061 
L 331.047246 241.136205 
L 348.309723 268.120349 
z
" clip-path="url(#pf30194efc3)" style="fill: none; stroke: #ffa500; stroke-width: 1.5"/>
    <path clip-path="url(#pf30194efc3)" style="fill: none; stroke: #ffa500; stroke-width: 1.5"/>
   </g>
   <g id="line2d_13">
    <defs>
     <path id="m9dc5a0d13c" d="M 0 0.5 
C 0.132602 0.5 0.25979 0.447317 0.353553 0.353553 
C 0.447317 0.25979 0.5 0.132602 0.5 0 
C 0.5 -0.132602 0.447317 -0.25979 0.353553 -0.353553 
C 0.25979 -0.447317 0.132602 -0.5 0 -0.5 
C -0.132602 -0.5 -0.25979 -0.447317 -0.353553 -0.353553 
C -0.447317 -0.25979 -0.5 -0.132602 -0.5 0 
C -0.5 0.132602 -0.447317 0.25979 -0.353553 0.353553 
C -0.25979 0.447317 -0.132602 0.5 0 0.5 
z
" style="stroke: #ff0000"/>
    </defs>
    <g clip-path="url(#pf30194efc3)">
     <use xlink:href="#m9dc5a0d13c" x="30.103125" y="471.273191" style="fill: #ff0000; stroke: #ff0000"/>
     <use xlink:href="#m9dc5a0d13c" x="47.62126" y="471.273191" style="fill: #ff0000; stroke: #ff0000"/>
     <use xlink:href="#m9dc5a0d13c" x="97.508688" y="471.273191" style="fill: #ff0000; stroke: #ff0000"/>
     <use xlink:href="#m9dc5a0d13c" x="172.170499" y="471.273191" style="fill: #ff0000; stroke: #ff0000"/>
     <use xlink:href="#m9dc5a0d13c" x="260.240111" y="471.273191" style="fill: #ff0000; stroke: #ff0000"/>
     <use xlink:href="#m9dc5a0d13c" x="348.309723" y="471.273191" style="fill: #ff0000; stroke: #ff0000"/>
     <use xlink:href="#m9dc5a0d13c" x="422.971535" y="471.273191" style="fill: #ff0000; stroke: #ff0000"/>
     <use xlink:href="#m9dc5a0d13c" x="472.858963" y="471.273191" style="fill: #ff0000; stroke: #ff0000"/>
     <use xlink:href="#m9dc5a0d13c" x="490.377098" y="471.273191" style="fill: #ff0000; stroke: #ff0000"/>
     <use xlink:href="#m9dc5a0d13c" x="30.103125" y="453.755056" style="fill: #ff0000; stroke: #ff0000"/>
     <use xlink:href="#m9dc5a0d13c" x="47.62126" y="453.755056" style="fill: #ff0000; stroke: #ff0000"/>
     <use xlink:href="#m9dc5a0d13c" x="97.508688" y="453.755056" style="fill: #ff0000; stroke: #ff0000"/>
     <use xlink:href="#m9dc5a0d13c" x="172.170499" y="453.755056" style="fill: #ff0000; stroke: #ff0000"/>
     <use xlink:href="#m9dc5a0d13c" x="260.240111" y="453.755056" style="fill: #ff0000; stroke: #ff0000"/>
     <use xlink:href="#m9dc5a0d13c" x="348.309723" y="453.755056" style="fill: #ff0000; stroke: #ff0000"/>
     <use xlink:href="#m9dc5a0d13c" x="422.971535" y="453.755056" style="fill: #ff0000; stroke: #ff0000"/>
     <use xlink:href="#m9dc5a0d13c" x="472.858963" y="453.755056" style="fill: #ff0000; stroke: #ff0000"/>
     <use xlink:href="#m9dc5a0d13c" x="490.377098" y="453.755056" style="fill: #ff0000; stroke: #ff0000"/>
     <use xlink:href="#m9dc5a0d13c" x="30.103125" y="403.867629" style="fill: #ff0000; stroke: #ff0000"/>
     <use xlink:href="#m9dc5a0d13c" x="47.62126" y="403.867629" style="fill: #ff0000; stroke: #ff0000"/>
     <use xlink:href="#m9dc5a0d13c" x="97.508688" y="403.867629" style="fill: #ff0000; stroke: #ff0000"/>
     <use xlink:href="#m9dc5a0d13c" x="172.170499" y="403.867629" style="fill: #ff0000; stroke: #ff0000"/>
     <use xlink:href="#m9dc5a0d13c" x="260.240111" y="403.867629" style="fill: #ff0000; stroke: #ff0000"/>
     <use xlink:href="#m9dc5a0d13c" x="348.309723" y="403.867629" style="fill: #ff0000; stroke: #ff0000"/>
     <use xlink:href="#m9dc5a0d13c" x="422.971535" y="403.867629" style="fill: #ff0000; stroke: #ff0000"/>
     <use xlink:href="#m9dc5a0d13c" x="472.858963" y="403.867629" style="fill: #ff0000; stroke: #ff0000"/>
     <use xlink:href="#m9dc5a0d13c" x="490.377098" y="403.867629" style="fill: #ff0000; stroke: #ff0000"/>
     <use xlink:href="#m9dc5a0d13c" x="30.103125" y="329.205817" style="fill: #ff0000; stroke: #ff0000"/>
     <use xlink:href="#m9dc5a0d13c" x="47.62126" y="329.205817" style="fill: #ff0000; stroke: #ff0000"/>
     <use xlink:href="#m9dc5a0d13c" x="97.508688" y="329.205817" style="fill: #ff0000; stroke: #ff0000"/>
     <use xlink:href="#m9dc5a0d13c" x="172.170499" y="329.205817" style="fill: #ff0000; stroke: #ff0000"/>
     <use xlink:href="#m9dc5a0d13c" x="260.240111" y="329.205817" style="fill: #ff0000; stroke: #ff0000"/>
     <use xlink:href="#m9dc5a0d13c" x="348.309723" y="329.205817" style="fill: #ff0000; stroke: #ff0000"/>
     <use xlink:href="#m9dc5a0d13c" x="422.971535" y="329.205817" style="fill: #ff0000; stroke: #ff0000"/>
     <use xlink:href="#m9dc5a0d13c" x="472.858963" y="329.205817" style="fill: #ff0000; stroke: #ff0000"/>
     <use xlink:href="#m9dc5a0d13c" x="490.377098" y="329.205817" style="fill: #ff0000; stroke: #ff0000"/>
     <use xlink:href="#m9dc5a0d13c" x="30.103125" y="241.136205" style="fill: #ff0000; stroke: #ff0000"/>
     <use xlink:href="#m9dc5a0d13c" x="47.62126" y="241.136205" style="fill: #ff0000; stroke: #ff0000"/>
     <use xlink:href="#m9dc5a0d13c" x="97.508688" y="241.136205" style="fill: #ff0000; stroke: #ff0000"/>
     <use xlink:href="#m9dc5a0d13c" x="172.170499" y="241.136205" style="fill: #ff0000; stroke: #ff0000"/>
     <use xlink:href="#m9dc5a0d13c" x="260.240111" y="241.136205" style="fill: #ff0000; stroke: #ff0000"/>
     <use xlink:href="#m9dc5a0d13c" x="348.309723" y="241.136205" style="fill: #ff0000; stroke: #ff0000"/>
     <use xlink:href="#m9dc5a0d13c" x="422.971535" y="241.136205" style="fill: #ff0000; stroke: #ff0000"/>
     <use xlink:href="#m9dc5a0d13c" x="472.858963" y="241.136205" style="fill: #ff0000; stroke: #ff0000"/>
     <use xlink:href="#m9dc5a0d13c" x="490.377098" y="241.136205" style="fill: #ff0000; stroke: #ff0000"/>
     <use xlink:href="#m9dc5a0d13c" x="30.103125" y="153.066593" style="fill: #ff0000; stroke: #ff0000"/>
     <use xlink:href="#m9dc5a0d13c" x="47.62126" y="153.066593" style="fill: #ff0000; stroke: #ff0000"/>
     <use xlink:href="#m9dc5a0d13c" x="97.508688" y="153.066593" style="fill: #ff0000; stroke: #ff0000"/>
     <use xlink:href="#m9dc5a0d13c" x="172.170499" y="153.066593" style="fill: #ff0000; stroke: #ff0000"/>
     <use xlink:href="#m9dc5a0d13c" x="260.240111" y="153.066593" style="fill: #ff0000; stroke: #ff0000"/>
     <use xlink:href="#m9dc5a0d13c" x="348.309723" y="153.066593" style="fill: #ff0000; stroke: #ff0000"/>
     <use xlink:href="#m9dc5a0d13c" x="422.971535" y="153.066593" style="fill: #ff0000; stroke: #ff0000"/>
     <use xlink:href="#m9dc5a0d13c" x="472.858963" y="153.066593" style="fill: #ff0000; stroke: #ff0000"/>
     <use xlink:href="#m9dc5a0d13c" x="490.377098" y="153.066593" style="fill: #ff0000; stroke: #ff0000"/>
     <use xlink:href="#m9dc5a0d13c" x="30.103125" y="78.404781" style="fill: #ff0000; stroke: #ff0000"/>
     <use xlink:href="#m9dc5a0d13c" x="47.62126" y="78.404781" style="fill: #ff0000; stroke: #ff0000"/>
     <use xlink:href="#m9dc5a0d13c" x="97.508688" y="78.404781" style="fill: #ff0000; stroke: #ff0000"/>
     <use xlink:href="#m9dc5a0d13c" x="172.170499" y="78.404781" style="fill: #ff0000; stroke: #ff0000"/>
     <use xlink:href="#m9dc5a0d13c" x="260.240111" y="78.404781" style="fill: #ff0000; stroke: #ff0000"/>
     <use xlink:href="#m9dc5a0d13c" x="348.309723" y="78.404781" style="fill: #ff0000; stroke: #ff0000"/>
     <use xlink:href="#m9dc5a0d13c" x="422.971535" y="78.404781" style="fill: #ff0000; stroke: #ff0000"/>
     <use xlink:href="#m9dc5a0d13c" x="472.858963" y="78.404781" style="fill: #ff0000; stroke: #ff0000"/>
     <use xlink:href="#m9dc5a0d13c" x="490.377098" y="78.404781" style="fill: #ff0000; stroke: #ff0000"/>
     <use xlink:href="#m9dc5a0d13c" x="30.103125" y="28.517354" style="fill: #ff0000; stroke: #ff0000"/>
     <use xlink:href="#m9dc5a0d13c" x="47.62126" y="28.517354" style="fill: #ff0000; stroke: #ff0000"/>
     <use xlink:href="#m9dc5a0d13c" x="97.508688" y="28.517354" style="fill: #ff0000; stroke: #ff0000"/>
     <use xlink:href="#m9dc5a0d13c" x="172.170499" y="28.517354" style="fill: #ff0000; stroke: #ff0000"/>
     <use xlink:href="#m9dc5a0d13c" x="260.240111" y="28.517354" style="fill: #ff0000; stroke: #ff0000"/>
     <use xlink:href="#m9dc5a0d13c" x="348.309723" y="28.517354" style="fill: #ff0000; stroke: #ff0000"/>
     <use xlink:href="#m9dc5a0d13c" x="422.971535" y="28.517354" style="fill: #ff0000; stroke: #ff0000"/>
     <use xlink:href="#m9dc5a0d13c" x="472.858963" y="28.517354" style="fill: #ff0000; stroke: #ff0000"/>
     <use xlink:href="#m9dc5a0d13c" x="490.377098" y="28.517354" style="fill: #ff0000; stroke: #ff0000"/>
     <use xlink:href="#m9dc5a0d13c" x="30.103125" y="10.999219" style="fill: #ff0000; stroke: #ff0000"/>
     <use xlink:href="#m9dc5a0d13c" x="47.62126" y="10.999219" style="fill: #ff0000; stroke: #ff0000"/>
     <use xlink:href="#m9dc5a0d13c" x="97.508688" y="10.999219" style="fill: #ff0000; stroke: #ff0000"/>
     <use xlink:href="#m9dc5a0d13c" x="172.170499" y="10.999219" style="fill: #ff0000; stroke: #ff0000"/>
     <use xlink:href="#m9dc5a0d13c" x="260.240111" y="10.999219" style="fill: #ff0000; stroke: #ff0000"/>
     <use xlink:href="#m9dc5a0d13c" x="348.309723" y="10.999219" style="fill: #ff0000; stroke: #ff0000"/>
     <use xlink:href="#m9dc5a0d13c" x="422.971535" y="10.999219" style="fill: #ff0000; stroke: #ff0000"/>
     <use xlink:href="#m9dc5a0d13c" x="472.858963" y="10.999219" style="fill: #ff0000; stroke: #ff0000"/>
     <use xlink:href="#m9dc5a0d13c" x="490.377098" y="10.999219" style="fill: #ff0000; stroke: #ff0000"/>
    </g>
   </g>
   <g id="patch_3">
    <path d="M 30.103125 471.273191 
L 30.103125 10.999219 
" style="fill: none; stroke: #000000; stroke-width: 0.8; stroke-linejoin: miter; stroke-linecap: square"/>
   </g>
   <g id="patch_4">
    <path d="M 490.377098 471.273191 
L 490.377098 10.999219 
" style="fill: none; stroke: #000000; stroke-width: 0.8; stroke-linejoin: miter; stroke-linecap: square"/>
   </g>
   <g id="patch_5">
    <path d="M 30.103125 471.273191 
L 490.377098 471.273191 
" style="fill: none; stroke: #000000; stroke-width: 0.8; stroke-linejoin: miter; stroke-linecap: square"/>
   </g>
   <g id="patch_6">
    <path d="M 30.103125 10.999219 
L 490.377098 10.999219 
" style="fill: none; stroke: #000000; stroke-width: 0.8; stroke-linejoin: miter; stroke-linecap: square"/>
   </g>
   <g id="text_13">
    <g clip-path="url(#pf30194efc3)">
     <!-- −0.75 -->
     <g transform="translate(409.446627 442.094075) rotate(-320.099255) scale(0.1 -0.1)">
      <defs>
       <path id="DejaVuSans-2212" d="M 678 2272 
L 4684 2272 
L 4684 1741 
L 678 1741 
L 678 2272 
z
" transform="scale(0.015625)"/>
       <path id="DejaVuSans-37" d="M 525 4666 
L 3525 4666 
L 3525 4397 
L 1831 0 
L 1172 0 
L 2766 4134 
L 525 4134 
L 525 4666 
z
" transform="scale(0.015625)"/>
       <path id="DejaVuSans-35" d="M 691 4666 
L 3169 4666 
L 3169 4134 
L 1269 4134 
L 1269 2991 
Q 1406 3038 1543 3061 
Q 1681 3084 1819 3084 
Q 2600 3084 3056 2656 
Q 3513 2228 3513 1497 
Q 3513 744 3044 326 
Q 2575 -91 1722 -91 
Q 1428 -91 1123 -41 
Q 819 9 494 109 
L 494 744 
Q 775 591 1075 516 
Q 1375 441 1709 441 
Q 2250 441 2565 725 
Q 2881 1009 2881 1497 
Q 2881 1984 2565 2268 
Q 2250 2553 1709 2553 
Q 1456 2553 1204 2497 
Q 953 2441 691 2322 
L 691 4666 
z
" transform="scale(0.015625)"/>
      </defs>
      <use xlink:href="#DejaVuSans-2212"/>
      <use xlink:href="#DejaVuSans-30" transform="translate(83.789062 0)"/>
      <use xlink:href="#DejaVuSans-2e" transform="translate(147.412109 0)"/>
      <use xlink:href="#DejaVuSans-37" transform="translate(179.199219 0)"/>
      <use xlink:href="#DejaVuSans-35" transform="translate(242.822266 0)"/>
     </g>
    </g>
   </g>
   <g id="text_14">
    <g clip-path="url(#pf30194efc3)">
     <!-- −0.75 -->
     <g transform="translate(332.915246 49.066612) rotate(-341.201097) scale(0.1 -0.1)">
      <use xlink:href="#DejaVuSans-2212"/>
      <use xlink:href="#DejaVuSans-30" transform="translate(83.789062 0)"/>
      <use xlink:href="#DejaVuSans-2e" transform="translate(147.412109 0)"/>
      <use xlink:href="#DejaVuSans-37" transform="translate(179.199219 0)"/>
      <use xlink:href="#DejaVuSans-35" transform="translate(242.822266 0)"/>
     </g>
    </g>
   </g>
   <g id="text_15">
    <g clip-path="url(#pf30194efc3)">
     <!-- −0.75 -->
     <g transform="translate(156.797032 211.68546) rotate(-340.698071) scale(0.1 -0.1)">
      <use xlink:href="#DejaVuSans-2212"/>
      <use xlink:href="#DejaVuSans-30" transform="translate(83.789062 0)"/>
      <use xlink:href="#DejaVuSans-2e" transform="translate(147.412109 0)"/>
      <use xlink:href="#DejaVuSans-37" transform="translate(179.199219 0)"/>
      <use xlink:href="#DejaVuSans-35" transform="translate(242.822266 0)"/>
     </g>
    </g>
   </g>
   <g id="text_16">
    <g clip-path="url(#pf30194efc3)">
     <!-- −0.50 -->
     <g transform="translate(391.18514 404.032966) rotate(-350.399796) scale(0.1 -0.1)">
      <use xlink:href="#DejaVuSans-2212"/>
      <use xlink:href="#DejaVuSans-30" transform="translate(83.789062 0)"/>
      <use xlink:href="#DejaVuSans-2e" transform="translate(147.412109 0)"/>
      <use xlink:href="#DejaVuSans-35" transform="translate(179.199219 0)"/>
      <use xlink:href="#DejaVuSans-30" transform="translate(242.822266 0)"/>
     </g>
    </g>
   </g>
   <g id="text_17">
    <g clip-path="url(#pf30194efc3)">
     <!-- −0.50 -->
     <g transform="translate(332.800153 82.439616) rotate(-344.777895) scale(0.1 -0.1)">
      <use xlink:href="#DejaVuSans-2212"/>
      <use xlink:href="#DejaVuSans-30" transform="translate(83.789062 0)"/>
      <use xlink:href="#DejaVuSans-2e" transform="translate(147.412109 0)"/>
      <use xlink:href="#DejaVuSans-35" transform="translate(179.199219 0)"/>
      <use xlink:href="#DejaVuSans-30" transform="translate(242.822266 0)"/>
     </g>
    </g>
   </g>
   <g id="text_18">
    <g clip-path="url(#pf30194efc3)">
     <!-- −0.50 -->
     <g transform="translate(156.88004 174.340865) rotate(-338.934461) scale(0.1 -0.1)">
      <use xlink:href="#DejaVuSans-2212"/>
      <use xlink:href="#DejaVuSans-30" transform="translate(83.789062 0)"/>
      <use xlink:href="#DejaVuSans-2e" transform="translate(147.412109 0)"/>
      <use xlink:href="#DejaVuSans-35" transform="translate(179.199219 0)"/>
      <use xlink:href="#DejaVuSans-30" transform="translate(242.822266 0)"/>
     </g>
    </g>
   </g>
   <g id="text_19">
    <g clip-path="url(#pf30194efc3)">
     <!-- −0.25 -->
     <g transform="translate(407.438321 380.277865) rotate(-345.898548) scale(0.1 -0.1)">
      <use xlink:href="#DejaVuSans-2212"/>
      <use xlink:href="#DejaVuSans-30" transform="translate(83.789062 0)"/>
      <use xlink:href="#DejaVuSans-2e" transform="translate(147.412109 0)"/>
      <use xlink:href="#DejaVuSans-32" transform="translate(179.199219 0)"/>
      <use xlink:href="#DejaVuSans-35" transform="translate(242.822266 0)"/>
     </g>
    </g>
   </g>
   <g id="text_20">
    <g clip-path="url(#pf30194efc3)">
     <!-- −0.25 -->
     <g transform="translate(332.741005 104.627841) rotate(-350.21024) scale(0.1 -0.1)">
      <use xlink:href="#DejaVuSans-2212"/>
      <use xlink:href="#DejaVuSans-30" transform="translate(83.789062 0)"/>
      <use xlink:href="#DejaVuSans-2e" transform="translate(147.412109 0)"/>
      <use xlink:href="#DejaVuSans-32" transform="translate(179.199219 0)"/>
      <use xlink:href="#DejaVuSans-35" transform="translate(242.822266 0)"/>
     </g>
    </g>
   </g>
   <g id="text_21">
    <g clip-path="url(#pf30194efc3)">
     <!-- −0.25 -->
     <g transform="translate(156.651598 147.203376) rotate(-354.395116) scale(0.1 -0.1)">
      <use xlink:href="#DejaVuSans-2212"/>
      <use xlink:href="#DejaVuSans-30" transform="translate(83.789062 0)"/>
      <use xlink:href="#DejaVuSans-2e" transform="translate(147.412109 0)"/>
      <use xlink:href="#DejaVuSans-32" transform="translate(179.199219 0)"/>
      <use xlink:href="#DejaVuSans-35" transform="translate(242.822266 0)"/>
     </g>
    </g>
   </g>
   <g id="text_22">
    <g clip-path="url(#pf30194efc3)">
     <!-- 0.00 -->
     <g transform="translate(160.717825 357.685162) rotate(-349.200075) scale(0.1 -0.1)">
      <use xlink:href="#DejaVuSans-30"/>
      <use xlink:href="#DejaVuSans-2e" transform="translate(63.623047 0)"/>
      <use xlink:href="#DejaVuSans-30" transform="translate(95.410156 0)"/>
      <use xlink:href="#DejaVuSans-30" transform="translate(159.033203 0)"/>
     </g>
    </g>
   </g>
   <g id="text_23">
    <g clip-path="url(#pf30194efc3)">
     <!-- 0.00 -->
     <g transform="translate(463.924376 364.241947) rotate(-24.912496) scale(0.1 -0.1)">
      <use xlink:href="#DejaVuSans-30"/>
      <use xlink:href="#DejaVuSans-2e" transform="translate(63.623047 0)"/>
      <use xlink:href="#DejaVuSans-30" transform="translate(95.410156 0)"/>
      <use xlink:href="#DejaVuSans-30" transform="translate(159.033203 0)"/>
     </g>
    </g>
   </g>
   <g id="text_24">
    <g clip-path="url(#pf30194efc3)">
     <!-- 0.25 -->
     <g transform="translate(87.382551 386.733901) rotate(-14.08981) scale(0.1 -0.1)">
      <use xlink:href="#DejaVuSans-30"/>
      <use xlink:href="#DejaVuSans-2e" transform="translate(63.623047 0)"/>
      <use xlink:href="#DejaVuSans-32" transform="translate(95.410156 0)"/>
      <use xlink:href="#DejaVuSans-35" transform="translate(159.033203 0)"/>
     </g>
    </g>
   </g>
   <g id="text_25">
    <g clip-path="url(#pf30194efc3)">
     <!-- 0.25 -->
     <g transform="translate(161.66942 109.152978) rotate(-9.795162) scale(0.1 -0.1)">
      <use xlink:href="#DejaVuSans-30"/>
      <use xlink:href="#DejaVuSans-2e" transform="translate(63.623047 0)"/>
      <use xlink:href="#DejaVuSans-32" transform="translate(95.410156 0)"/>
      <use xlink:href="#DejaVuSans-35" transform="translate(159.033203 0)"/>
     </g>
    </g>
   </g>
   <g id="text_26">
    <g clip-path="url(#pf30194efc3)">
     <!-- 0.25 -->
     <g transform="translate(411.508421 149.123358) rotate(-344.139717) scale(0.1 -0.1)">
      <use xlink:href="#DejaVuSans-30"/>
      <use xlink:href="#DejaVuSans-2e" transform="translate(63.623047 0)"/>
      <use xlink:href="#DejaVuSans-32" transform="translate(95.410156 0)"/>
      <use xlink:href="#DejaVuSans-35" transform="translate(159.033203 0)"/>
     </g>
    </g>
   </g>
   <g id="text_27">
    <g clip-path="url(#pf30194efc3)">
     <!-- 0.50 -->
     <g transform="translate(102.981644 407.776023) rotate(-6.002336) scale(0.1 -0.1)">
      <use xlink:href="#DejaVuSans-30"/>
      <use xlink:href="#DejaVuSans-2e" transform="translate(63.623047 0)"/>
      <use xlink:href="#DejaVuSans-35" transform="translate(95.410156 0)"/>
      <use xlink:href="#DejaVuSans-30" transform="translate(159.033203 0)"/>
     </g>
    </g>
   </g>
   <g id="text_28">
    <g clip-path="url(#pf30194efc3)">
     <!-- 0.50 -->
     <g transform="translate(161.866812 88.871524) rotate(-12.138386) scale(0.1 -0.1)">
      <use xlink:href="#DejaVuSans-30"/>
      <use xlink:href="#DejaVuSans-2e" transform="translate(63.623047 0)"/>
      <use xlink:href="#DejaVuSans-35" transform="translate(95.410156 0)"/>
      <use xlink:href="#DejaVuSans-30" transform="translate(159.033203 0)"/>
     </g>
    </g>
   </g>
   <g id="text_29">
    <g clip-path="url(#pf30194efc3)">
     <!-- 0.50 -->
     <g transform="translate(412.023415 186.559576) rotate(-328.734186) scale(0.1 -0.1)">
      <use xlink:href="#DejaVuSans-30"/>
      <use xlink:href="#DejaVuSans-2e" transform="translate(63.623047 0)"/>
      <use xlink:href="#DejaVuSans-35" transform="translate(95.410156 0)"/>
      <use xlink:href="#DejaVuSans-30" transform="translate(159.033203 0)"/>
     </g>
    </g>
   </g>
   <g id="text_30">
    <g clip-path="url(#pf30194efc3)">
     <!-- 0.75 -->
     <g transform="translate(91.1322 459.337883) rotate(-42.30356) scale(0.1 -0.1)">
      <use xlink:href="#DejaVuSans-30"/>
      <use xlink:href="#DejaVuSans-2e" transform="translate(63.623047 0)"/>
      <use xlink:href="#DejaVuSans-37" transform="translate(95.410156 0)"/>
      <use xlink:href="#DejaVuSans-35" transform="translate(159.033203 0)"/>
     </g>
    </g>
   </g>
   <g id="text_31">
    <g clip-path="url(#pf30194efc3)">
     <!-- 0.75 -->
     <g transform="translate(162.523324 57.665131) rotate(-18.822551) scale(0.1 -0.1)">
      <use xlink:href="#DejaVuSans-30"/>
      <use xlink:href="#DejaVuSans-2e" transform="translate(63.623047 0)"/>
      <use xlink:href="#DejaVuSans-37" transform="translate(95.410156 0)"/>
      <use xlink:href="#DejaVuSans-35" transform="translate(159.033203 0)"/>
     </g>
    </g>
   </g>
   <g id="text_32">
    <g clip-path="url(#pf30194efc3)">
     <!-- 0.75 -->
     <g transform="translate(413.231569 227.165681) rotate(-314.203148) scale(0.1 -0.1)">
      <use xlink:href="#DejaVuSans-30"/>
      <use xlink:href="#DejaVuSans-2e" transform="translate(63.623047 0)"/>
      <use xlink:href="#DejaVuSans-37" transform="translate(95.410156 0)"/>
      <use xlink:href="#DejaVuSans-35" transform="translate(159.033203 0)"/>
     </g>
    </g>
   </g>
  </g>
 </g>
 <defs>
  <clipPath id="pf30194efc3">
   <rect x="30.103125" y="10.999219" width="460.273973" height="460.273973"/>
  </clipPath>
 </defs>
</svg>
